M48
;Layer_Color=9474304
;FILE_FORMAT=4:4
METRIC,LZ
;TYPE=PLATED
T1F00S00C0.3000
T3F00S00C1.0000
T4F00S00C1.1000
T5F00S00C1.5000
T6F00S00C3.2000
;TYPE=NON_PLATED
T7F00S00C3.2000
%
T01
X00375Y00069
X00397Y00085
X00405Y0011183
X00416Y00066
X00424
X00432
X00446Y00049
X00465Y00044
X00474Y0008816
X00481Y00104
X004635Y00111
X00456Y00157
X004445Y00218
X00607Y0018
X00629Y00185
Y0017
X00661Y00159
X00678Y00125
X00611Y00077
Y00068
X00323Y00071
Y00063
X0029Y00065
X00307Y0009
X00303Y00178
X0033Y00179
X00312Y00225
X00329Y00247
X00233Y00201
X002375Y001815
X00231Y00134
X00208Y00135
X00192Y00144
X0016Y00134
X00147Y00136
X00135Y00168
Y00178
Y00187
X00118Y00195
X00117Y00215
X00137Y0022684
X00162Y0021
X00155Y00202
X00176Y002
Y00209
X00198Y0021
X0020984Y0020978
X00119Y00174
X00115Y00156
X00104
X00094
X00104Y00146
X00084Y0012
Y00112
X00082Y00184
X0008Y00226
X00059
Y00218
X00078Y00249
X0011Y00251
X001Y00272
X0008Y00291
X00092Y0032
Y00366
X00104
X00117Y00406
Y00415
X00126Y0041
X00173Y00415
X00192Y00413
X00199Y00433
X002205Y00438
X00214Y00406
X00221Y00336
X00273Y00349
Y00253
X00221Y0025
X00184Y00288
X0015Y00271
X0004322Y00284
X00015Y0029
X0006Y00448
X00051Y00521
X00223Y00482
X00277Y00493
X00308Y00418
X00323Y00415
Y00404
X00409Y0038
Y00371
X00418
Y0038
Y00481
Y0049
X00409
Y00481
X00528Y00404
X00549Y00423
X00562Y00421
X00565Y00411
X00564Y00398
Y0039
Y00381
X00624Y00454
X00473Y00256
X00396Y00256
T03
X002015Y000185
X002465
Y000835
X002015
X005955Y002605
Y003055
X006605
Y002605
T04
X00381Y000254
X004064
X004318
X004572
X00508
X005334
X005588
X005842
X006096
X00635
X0062065Y0012573
X0059525
X0056985
X0054445
X0051905
X0049365
X0046825
X0044285
X0041745
X0039205
Y0020193
X0041745
X0044285
X0046825
X0049365
X0051905
X0054445
X0056985
X0059525
X0062065
X0036665
X0034125
X0031585
X0029045
Y0012573
X0031585
X0034125
X0036665
X003556Y000254
X003302
X003048
X002794
X00167Y00088
X001416
X001162
X000508Y003166
Y00342
X000254
Y003166
Y0038608
X000508
X000762
Y0041148
X000508
X000254
Y0047244
Y0049784
X000508
X000762
Y0047244
X000508
X00146Y00446
Y004206
Y003952
Y003698
X0018796Y00508
X0021336
X0023876
X0026416
X0028956
X0031496
X0034036
X0036576
X0039116
X0041656
X004572
X004826
X00508
X005334
X005588
X005842
X006096
X00635
X00662Y00469
Y004436
Y004182
T05
X0002032Y000254
Y0013462
T06
X006604Y000762
X001397Y000254
X006604Y003556
T07
X001524Y00508
M30
