%FSLAX44Y44*%
%MOMM*%
G71*
G01*
G75*
G04 Layer_Physical_Order=2*
G04 Layer_Color=16711680*
%ADD10R,2.5000X2.6000*%
%ADD11R,2.7000X2.0000*%
%ADD12R,1.6000X3.0000*%
%ADD13R,1.3000X0.7000*%
%ADD14R,0.9000X1.3000*%
%ADD15R,0.7000X1.3000*%
%ADD16R,1.5000X0.5000*%
%ADD17R,0.5000X1.5000*%
%ADD18R,1.3000X0.9000*%
%ADD19R,0.8000X0.8000*%
%ADD20R,0.5588X0.6858*%
%ADD21R,0.6858X0.5588*%
%ADD22C,1.0160*%
%ADD23R,1.4000X1.6000*%
%ADD24R,1.9000X1.9000*%
%ADD25R,1.3500X0.4000*%
%ADD26R,1.0000X0.5500*%
%ADD27R,0.5500X1.0000*%
%ADD28R,0.9000X0.6000*%
%ADD29R,0.6000X2.2000*%
%ADD30R,3.5000X2.2000*%
%ADD31R,2.6000X2.5000*%
%ADD32C,0.2000*%
%ADD33C,0.6000*%
%ADD34C,0.8000*%
%ADD35C,0.5000*%
%ADD36C,0.4000*%
%ADD37C,1.0000*%
%ADD38C,0.9000*%
%ADD39R,1.6000X2.0000*%
%ADD40O,1.6000X2.0000*%
%ADD41R,1.7000X1.7000*%
%ADD42C,1.7000*%
%ADD43O,2.0000X1.6000*%
%ADD44R,2.0000X1.6000*%
G04:AMPARAMS|DCode=45|XSize=2mm|YSize=1.2mm|CornerRadius=0.36mm|HoleSize=0mm|Usage=FLASHONLY|Rotation=0.000|XOffset=0mm|YOffset=0mm|HoleType=Round|Shape=RoundedRectangle|*
%AMROUNDEDRECTD45*
21,1,2.0000,0.4800,0,0,0.0*
21,1,1.2800,1.2000,0,0,0.0*
1,1,0.7200,0.6400,-0.2400*
1,1,0.7200,-0.6400,-0.2400*
1,1,0.7200,-0.6400,0.2400*
1,1,0.7200,0.6400,0.2400*
%
%ADD45ROUNDEDRECTD45*%
%ADD46C,4.0000*%
%ADD47C,7.4000*%
%ADD48C,3.2000*%
%ADD49R,1.9000X1.9000*%
%ADD50C,1.9000*%
%ADD51C,0.6000*%
G36*
X72000Y218000D02*
X77000D01*
Y187317D01*
X76348Y186341D01*
X75882Y184000D01*
X76348Y181659D01*
X77000Y180683D01*
Y178000D01*
X81409D01*
X82000Y177882D01*
X82591Y178000D01*
X88000D01*
X88000Y156591D01*
X87882Y156000D01*
X88000Y155409D01*
X88000Y139295D01*
X87941Y139000D01*
X87941Y109059D01*
X84591Y109059D01*
X84296Y109000D01*
X83705Y109000D01*
X83409Y109059D01*
X74957Y109059D01*
X74059Y109957D01*
X74059Y137000D01*
X74059Y137000D01*
X74000Y137296D01*
Y139000D01*
X70000Y143000D01*
X70000Y164000D01*
X59059Y174941D01*
Y185000D01*
X59059Y196000D01*
Y196000D01*
Y196000D01*
X59000Y196295D01*
Y198000D01*
X55059Y201942D01*
Y231970D01*
X72000D01*
Y218000D01*
D02*
G37*
G36*
X234000Y92000D02*
Y82455D01*
X234000Y72270D01*
Y72270D01*
Y72270D01*
X234000Y71000D01*
X234000Y71000D01*
X235270Y71000D01*
X235270D01*
D01*
X240333D01*
X271999Y71000D01*
X284000Y59000D01*
X287000Y56000D01*
X343000D01*
X358000Y41000D01*
X364000Y35000D01*
Y16000D01*
X347000D01*
Y27000D01*
Y28000D01*
X338000Y37000D01*
X336600Y38400D01*
X330921Y38400D01*
X330200Y38495D01*
X329479Y38400D01*
X305522Y38400D01*
X304800Y38495D01*
X304078Y38400D01*
X290400Y38400D01*
X290400Y38400D01*
Y38400D01*
X273600D01*
X267000Y45000D01*
X264000Y48000D01*
X262696D01*
X262400Y48059D01*
X262400Y48059D01*
X250000D01*
X219941Y48059D01*
X197755Y70245D01*
X198510Y71286D01*
X201500Y70892D01*
X204763Y71322D01*
X207804Y72581D01*
X210415Y74585D01*
X212419Y77196D01*
X213678Y80237D01*
X214108Y83500D01*
X213678Y86763D01*
X212419Y89804D01*
X210415Y92415D01*
X207804Y94419D01*
X204763Y95678D01*
X201500Y96108D01*
X198237Y95678D01*
X195196Y94419D01*
X192585Y92415D01*
X190581Y89804D01*
X189322Y86763D01*
X188892Y83500D01*
X189322Y80237D01*
X189722Y79270D01*
X188874Y78000D01*
X188295D01*
X188000Y78059D01*
X188000Y78059D01*
X167721D01*
X167523Y78019D01*
X167322Y78033D01*
X167074Y78000D01*
X166926D01*
X166678Y78033D01*
X166477Y78019D01*
X166279Y78059D01*
X159000D01*
Y98000D01*
X168000Y107000D01*
X219000Y107000D01*
X234000Y92000D01*
D02*
G37*
G36*
X108000Y480000D02*
X84894D01*
X84402Y480642D01*
X82000Y482485D01*
X79202Y483644D01*
X76200Y484039D01*
X73198Y483644D01*
X70400Y482485D01*
X67998Y480642D01*
X66155Y478240D01*
X64996Y475442D01*
X64601Y472440D01*
X64996Y469438D01*
X66155Y466640D01*
X67998Y464238D01*
X68000Y464237D01*
Y464000D01*
X68308D01*
X70400Y462395D01*
X73198Y461236D01*
X76200Y460841D01*
X79202Y461236D01*
X82000Y462395D01*
X84092Y464000D01*
X108000D01*
Y434398D01*
X107941Y434102D01*
X107941Y434102D01*
X107941Y400001D01*
Y400001D01*
X108000Y399705D01*
Y397000D01*
X110708D01*
X111000Y396942D01*
X121941Y396942D01*
Y381898D01*
X121941Y381898D01*
X122000Y381603D01*
Y378000D01*
X125601D01*
X125898Y377941D01*
X125898Y377941D01*
X134781Y377941D01*
X135407Y376671D01*
X134391Y375348D01*
X133283Y372672D01*
X132905Y369800D01*
X133283Y366928D01*
X134391Y364253D01*
X136155Y361955D01*
X138453Y360191D01*
X141128Y359083D01*
X144000Y358705D01*
X148000D01*
X150872Y359083D01*
X153547Y360191D01*
X155845Y361955D01*
X157608Y364253D01*
X158717Y366928D01*
X159095Y369800D01*
X158717Y372672D01*
X157608Y375348D01*
X156593Y376671D01*
X157219Y377941D01*
X186000Y377941D01*
X186296Y378000D01*
X189000D01*
Y380705D01*
X189059Y381000D01*
X189059Y412409D01*
X189000Y412705D01*
Y413006D01*
Y413296D01*
X189059Y413591D01*
Y435059D01*
X189941Y435941D01*
X198409D01*
X198704Y436000D01*
X199296Y436000D01*
X199591Y435941D01*
X208000D01*
X208000Y406591D01*
X207882Y406000D01*
X208000Y405409D01*
Y400000D01*
X213409D01*
X214000Y399883D01*
X214591Y400000D01*
X217000D01*
X219000Y400000D01*
X236000Y383000D01*
X541000Y383000D01*
X559000Y401000D01*
X568102Y401000D01*
X569000Y400102D01*
X569000Y342000D01*
X567000Y340000D01*
X558000Y331000D01*
Y187000D01*
X575000D01*
X588000Y174000D01*
X606409Y174000D01*
X607000Y173883D01*
X607591Y174000D01*
X613000Y174000D01*
Y179409D01*
X613117Y180000D01*
X613000Y180591D01*
Y188000D01*
X632000D01*
Y183000D01*
Y165000D01*
X631000Y164000D01*
X615000Y148000D01*
X584000Y148000D01*
Y113000D01*
X592478D01*
X595250Y112635D01*
X598022Y113000D01*
X617878Y113000D01*
X620650Y112635D01*
X623422Y113000D01*
X632000D01*
Y131312D01*
X633688Y133000D01*
X671000D01*
X683000Y133000D01*
X683000Y3898D01*
X682102Y3000D01*
X622009D01*
X621059Y3898D01*
X621059Y3898D01*
Y14380D01*
X621000Y14675D01*
Y36125D01*
X621059Y36421D01*
X621059Y86000D01*
X621000Y86295D01*
Y89000D01*
X618295D01*
X618000Y89059D01*
X587000Y89059D01*
X552000Y89059D01*
X551704Y89000D01*
X549400D01*
X524459Y64059D01*
X435317Y64059D01*
X435021Y64000D01*
X428979Y64000D01*
X428683Y64059D01*
X427317Y64059D01*
X427021Y64000D01*
X420978D01*
X420684Y64059D01*
X419316D01*
X419022Y64000D01*
X419000D01*
X414160D01*
X412160Y66000D01*
X411083Y66000D01*
X410788Y66059D01*
X375590Y66059D01*
X375294Y66000D01*
X374993Y66000D01*
X374993Y66000D01*
X374706D01*
X374410Y66059D01*
X373941D01*
X354000Y86000D01*
X352298D01*
X352000Y86059D01*
X352000Y86059D01*
X306941Y86059D01*
X272000Y121000D01*
X262000Y131000D01*
X260296D01*
X260000Y131059D01*
X260000Y131059D01*
X231591Y131059D01*
X231296Y131000D01*
X231005Y131000D01*
X231000D01*
X230994D01*
X230704Y131000D01*
X230409Y131059D01*
X160591Y131059D01*
X160296Y131000D01*
X159994D01*
X159705D01*
X159409Y131059D01*
X157957D01*
X157059Y131957D01*
Y133409D01*
X157000Y133705D01*
Y134295D01*
X157059Y134591D01*
X157059Y138102D01*
X157059Y138102D01*
X157000Y138397D01*
Y142000D01*
X153398D01*
X153102Y142059D01*
X153102Y142059D01*
X147296D01*
X147000Y142118D01*
X146705Y142059D01*
X91957Y142059D01*
X91059Y142957D01*
X91059Y155409D01*
X91000Y155704D01*
Y156295D01*
X91059Y156591D01*
X91059Y178000D01*
X91000Y178295D01*
Y181000D01*
X88295D01*
X88000Y181059D01*
X82591D01*
X82296Y181000D01*
X81705D01*
X81409Y181059D01*
X80000D01*
Y186720D01*
Y187021D01*
X80059Y187317D01*
Y218000D01*
X80000Y218295D01*
Y221000D01*
X77295D01*
X77000Y221059D01*
X75059D01*
Y231970D01*
X75000Y232265D01*
Y235000D01*
X72145D01*
X72000Y235029D01*
X55957D01*
X55059Y235927D01*
X55059Y304196D01*
X55039Y304295D01*
X55052Y304396D01*
X55000Y304590D01*
Y305892D01*
X56600Y306555D01*
X59002Y308398D01*
X60845Y310800D01*
X62004Y313598D01*
X62399Y316600D01*
X62004Y319602D01*
X60845Y322400D01*
X59002Y324802D01*
X56600Y326645D01*
X55000Y327308D01*
Y330500D01*
X62300D01*
Y353500D01*
X55957D01*
X55059Y354398D01*
X55059Y373676D01*
X55039Y373775D01*
X55052Y373876D01*
X55000Y374070D01*
Y375372D01*
X56600Y376035D01*
X59002Y377878D01*
X60845Y380280D01*
X62004Y383078D01*
X62399Y386080D01*
X62004Y389082D01*
X60845Y391880D01*
X59002Y394282D01*
X56600Y396125D01*
X55000Y396788D01*
Y400772D01*
X56600Y401435D01*
X59002Y403278D01*
X60845Y405680D01*
X62004Y408478D01*
X62399Y411480D01*
X62004Y414482D01*
X60845Y417280D01*
X59002Y419682D01*
X56600Y421525D01*
X55000Y422188D01*
Y423490D01*
X55052Y423684D01*
X55039Y423785D01*
X55059Y423884D01*
X55059Y460036D01*
X55039Y460135D01*
X55052Y460236D01*
X55000Y460430D01*
Y461732D01*
X56600Y462395D01*
X59002Y464238D01*
X60845Y466640D01*
X62004Y469438D01*
X62399Y472440D01*
X62004Y475442D01*
X60845Y478240D01*
X59002Y480642D01*
X56600Y482485D01*
X55000Y483148D01*
Y487132D01*
X56600Y487795D01*
X59002Y489638D01*
X60845Y492040D01*
X62004Y494838D01*
X62399Y497840D01*
X62004Y500842D01*
X60845Y503640D01*
X59002Y506042D01*
X56600Y507885D01*
X55000Y508548D01*
Y509850D01*
X55052Y510044D01*
X55039Y510145D01*
X55059Y510244D01*
Y512000D01*
X55000Y512295D01*
Y515000D01*
X52295D01*
X52000Y515059D01*
X3898Y515059D01*
X3898Y515059D01*
X3000Y516008D01*
Y530000D01*
X108000D01*
Y480000D01*
D02*
G37*
G36*
X232000Y438000D02*
X235000Y435000D01*
X245000Y425000D01*
X276000Y425000D01*
X315000D01*
Y401898D01*
X314102Y401000D01*
X243000Y401000D01*
X231000Y413000D01*
X212000Y413000D01*
Y439000D01*
X199591D01*
X199000Y439118D01*
X198409Y439000D01*
X186000D01*
Y413591D01*
X185882Y413000D01*
X186000Y412409D01*
X186000Y381000D01*
X125898Y381000D01*
X125000Y381898D01*
Y400000D01*
X123191Y400000D01*
X111000Y400001D01*
X111000Y434102D01*
X111898Y435000D01*
X133000Y435000D01*
Y435000D01*
X159000D01*
Y435000D01*
X159000Y435000D01*
X165000Y435000D01*
X165000Y457000D01*
X213000D01*
X232000Y438000D01*
D02*
G37*
G36*
X683000Y530000D02*
Y477000D01*
X675000D01*
Y480000D01*
X649000D01*
Y477000D01*
X265000D01*
X257000Y485000D01*
X257000Y530000D01*
X683000Y530000D01*
D02*
G37*
G36*
X124000Y83000D02*
Y75000D01*
X140879D01*
X141600Y74905D01*
X142321Y75000D01*
X166279D01*
X167000Y74905D01*
X167721Y75000D01*
X188000D01*
X218000Y45000D01*
X250000Y45000D01*
X262400D01*
X267912Y39488D01*
X268400Y38400D01*
X268400D01*
X268400Y38400D01*
X268400Y13459D01*
Y13421D01*
Y12400D01*
Y12400D01*
X269000Y12400D01*
X269000Y12400D01*
X269670Y12400D01*
X304079D01*
X304800Y12305D01*
X305521Y12400D01*
X329479D01*
X330200Y12305D01*
X330921Y12400D01*
X354879D01*
X355600Y12305D01*
X356321Y12400D01*
X369000D01*
Y36000D01*
X396000D01*
Y31037D01*
X395683Y30272D01*
X395305Y27400D01*
Y23400D01*
X395683Y20528D01*
X396000Y19763D01*
Y3000D01*
X174186D01*
X173565Y4108D01*
X175450Y7184D01*
X177860Y13001D01*
X179330Y19123D01*
X179824Y25400D01*
X179330Y31677D01*
X177860Y37799D01*
X175450Y43616D01*
X172161Y48984D01*
X168072Y53772D01*
X163284Y57861D01*
X157916Y61150D01*
X152099Y63560D01*
X145977Y65030D01*
X139700Y65524D01*
X133423Y65030D01*
X127301Y63560D01*
X121484Y61150D01*
X116116Y57861D01*
X111328Y53772D01*
X107239Y48984D01*
X103949Y43616D01*
X101540Y37799D01*
X100070Y31677D01*
X99576Y25400D01*
X100070Y19123D01*
X101540Y13001D01*
X103949Y7184D01*
X105835Y4108D01*
X105214Y3000D01*
X3000D01*
Y48000D01*
Y57000D01*
X72000D01*
X112000Y97000D01*
X113000Y98000D01*
X124000D01*
Y83000D01*
D02*
G37*
G36*
X52000Y512000D02*
Y510244D01*
X51045Y509407D01*
X50800Y509439D01*
X47798Y509044D01*
X45000Y507885D01*
X42598Y506042D01*
X40755Y503640D01*
X39596Y500842D01*
X39201Y497840D01*
X39596Y494838D01*
X40755Y492040D01*
X42598Y489638D01*
X45000Y487795D01*
X47798Y486636D01*
X50800Y486241D01*
X51467Y485162D01*
Y485118D01*
X50800Y484039D01*
X47798Y483644D01*
X45000Y482485D01*
X42598Y480642D01*
X40755Y478240D01*
X39596Y475442D01*
X39201Y472440D01*
X39596Y469438D01*
X40755Y466640D01*
X42598Y464238D01*
X45000Y462395D01*
X47798Y461236D01*
X50800Y460841D01*
X51045Y460873D01*
X52000Y460036D01*
X52000Y423884D01*
X51045Y423047D01*
X50800Y423079D01*
X47798Y422684D01*
X45000Y421525D01*
X42598Y419682D01*
X40755Y417280D01*
X39596Y414482D01*
X39201Y411480D01*
X39596Y408478D01*
X40755Y405680D01*
X42598Y403278D01*
X45000Y401435D01*
X47798Y400276D01*
X50800Y399881D01*
X51467Y398802D01*
Y398758D01*
X50800Y397679D01*
X47798Y397284D01*
X45000Y396125D01*
X42598Y394282D01*
X40755Y391880D01*
X39596Y389082D01*
X39201Y386080D01*
X39596Y383078D01*
X40755Y380280D01*
X42598Y377878D01*
X45000Y376035D01*
X47798Y374876D01*
X50800Y374481D01*
X51045Y374513D01*
X52000Y373676D01*
X52000Y353500D01*
X39300D01*
Y330500D01*
X50423D01*
X51502Y329396D01*
X51499Y329260D01*
X50800Y328199D01*
X47798Y327804D01*
X45000Y326645D01*
X42598Y324802D01*
X40755Y322400D01*
X39596Y319602D01*
X39201Y316600D01*
X39596Y313598D01*
X40755Y310800D01*
X42598Y308398D01*
X45000Y306555D01*
X47798Y305396D01*
X50800Y305001D01*
X51045Y305033D01*
X52000Y304196D01*
X52000Y200000D01*
X56000Y196000D01*
X56000Y185000D01*
Y173000D01*
X60000Y169000D01*
X66000Y163000D01*
Y153000D01*
Y142000D01*
X67000Y141000D01*
X71000Y137000D01*
X71000Y106000D01*
X83409Y106000D01*
X84000Y105883D01*
X84591Y106000D01*
X91000Y106000D01*
X91000Y139000D01*
X153102Y139000D01*
X154000Y138102D01*
X154000Y134591D01*
X153883Y134000D01*
X154000Y133410D01*
X154000Y128000D01*
X159409D01*
X160000Y127882D01*
X160591Y128000D01*
X230409Y128000D01*
X231000Y127882D01*
X231591Y128000D01*
X260000Y128000D01*
X305000Y83000D01*
X352000Y83000D01*
X372000Y63000D01*
X374410Y63000D01*
X375000Y62882D01*
X375590Y63000D01*
X410788Y63000D01*
X411674Y61674D01*
X413659Y60348D01*
X416000Y59882D01*
X418341Y60348D01*
X419316Y61000D01*
X420684D01*
X421659Y60348D01*
X424000Y59882D01*
X426341Y60348D01*
X427317Y61000D01*
X428683Y61000D01*
X429659Y60348D01*
X432000Y59882D01*
X434341Y60348D01*
X435317Y61000D01*
X527000Y61000D01*
X552000Y86000D01*
X587000Y86000D01*
X618000Y86000D01*
X618000Y36421D01*
X616730Y35794D01*
X615147Y37009D01*
X612472Y38117D01*
X609600Y38495D01*
X606728Y38117D01*
X604053Y37009D01*
X601755Y35245D01*
X599991Y32947D01*
X598883Y30272D01*
X598505Y27400D01*
Y23400D01*
X598883Y20528D01*
X599991Y17852D01*
X601755Y15555D01*
X604053Y13792D01*
X606728Y12683D01*
X609600Y12305D01*
X612472Y12683D01*
X615147Y13792D01*
X616730Y15006D01*
X618000Y14380D01*
Y3898D01*
X617102Y3000D01*
X400329Y3000D01*
X399059Y3000D01*
Y13732D01*
X400198Y14294D01*
X400853Y13792D01*
X403528Y12683D01*
X406400Y12305D01*
X409272Y12683D01*
X411947Y13792D01*
X414245Y15555D01*
X416008Y17852D01*
X417117Y20528D01*
X417495Y23400D01*
Y27400D01*
X417117Y30272D01*
X416008Y32947D01*
X414245Y35245D01*
X411947Y37009D01*
X409272Y38117D01*
X406400Y38495D01*
X403528Y38117D01*
X400853Y37009D01*
X400270Y36562D01*
X399000Y37188D01*
Y39000D01*
X396296D01*
X396000Y39059D01*
X369000D01*
X368704Y39000D01*
X365000D01*
X360000Y44000D01*
X345000Y59000D01*
X343296D01*
X343000Y59059D01*
X343000Y59059D01*
X289941D01*
X281000Y68000D01*
X274000Y75000D01*
X260000D01*
X260000Y97000D01*
X234000D01*
X230000Y101000D01*
X221000Y110000D01*
X219297D01*
X219000Y110059D01*
X219000Y110059D01*
X168000Y110059D01*
X167705Y110000D01*
X164000D01*
X159000Y105000D01*
X154000Y100000D01*
Y92000D01*
Y78059D01*
X142321D01*
X142123Y78019D01*
X141922Y78033D01*
X141674Y78000D01*
X141526D01*
X141278Y78033D01*
X141077Y78019D01*
X140879Y78059D01*
X129000D01*
Y101000D01*
X124296D01*
X124000Y101059D01*
X113000D01*
X113000Y101059D01*
X112704Y101000D01*
X105200D01*
Y94700D01*
X77500Y67000D01*
X70559Y60059D01*
X3000D01*
Y117618D01*
X4270Y118038D01*
X7480Y115404D01*
X11476Y113268D01*
X15811Y111953D01*
X20320Y111509D01*
X24829Y111953D01*
X29164Y113268D01*
X33160Y115404D01*
X36662Y118278D01*
X39536Y121780D01*
X41672Y125776D01*
X42987Y130111D01*
X43431Y134620D01*
X42987Y139129D01*
X41672Y143464D01*
X39536Y147460D01*
X36662Y150962D01*
X33160Y153836D01*
X29164Y155972D01*
X24829Y157287D01*
X20973Y157667D01*
X20956Y158587D01*
X22078Y158943D01*
X28400D01*
X30123Y159170D01*
X31728Y159835D01*
X33107Y160893D01*
X34165Y162271D01*
X34830Y163877D01*
X35057Y165600D01*
Y170400D01*
X34830Y172123D01*
X34165Y173729D01*
X33107Y175107D01*
X31728Y176165D01*
X30123Y176830D01*
X28400Y177057D01*
X15600D01*
X13877Y176830D01*
X12271Y176165D01*
X10893Y175107D01*
X9835Y173729D01*
X9170Y172123D01*
X8943Y170400D01*
Y165600D01*
X9170Y163877D01*
X9835Y162271D01*
X10893Y160893D01*
X12271Y159835D01*
X13877Y159170D01*
X15600Y158943D01*
X18562D01*
X19684Y158587D01*
X19667Y157667D01*
X15811Y157287D01*
X11476Y155972D01*
X7480Y153836D01*
X4270Y151202D01*
X3000Y151622D01*
Y511102D01*
X3898Y512000D01*
X52000Y512000D01*
D02*
G37*
%LPC*%
G36*
X442850Y138825D02*
X439978Y138447D01*
X437303Y137338D01*
X435005Y135575D01*
X433242Y133278D01*
X432133Y130602D01*
X431755Y127730D01*
Y123730D01*
X432133Y120858D01*
X433242Y118182D01*
X435005Y115885D01*
X437303Y114122D01*
X439978Y113013D01*
X442850Y112635D01*
X445722Y113013D01*
X448397Y114122D01*
X450695Y115885D01*
X452458Y118182D01*
X453567Y120858D01*
X453945Y123730D01*
Y127730D01*
X453567Y130602D01*
X452458Y133278D01*
X450695Y135575D01*
X448397Y137338D01*
X445722Y138447D01*
X442850Y138825D01*
D02*
G37*
G36*
X508000Y165059D02*
X453000D01*
X451829Y164826D01*
X450837Y164163D01*
X450174Y163171D01*
X449941Y162000D01*
Y157296D01*
X449883Y157000D01*
X449941Y156705D01*
Y153000D01*
X450174Y151830D01*
X450837Y150837D01*
X451829Y150174D01*
X453000Y149941D01*
X468733D01*
X472837Y145837D01*
X472837Y145837D01*
X475941Y142733D01*
X475941Y130350D01*
X475981Y130152D01*
X475967Y129950D01*
X476286Y127529D01*
Y123931D01*
X475967Y121509D01*
X475981Y121308D01*
X475941Y121110D01*
X475941Y107229D01*
X475348Y106341D01*
X474883Y104000D01*
X475348Y101659D01*
X476674Y99674D01*
X477348Y99224D01*
X477735Y98837D01*
X478727Y98174D01*
X479898Y97941D01*
X479898Y97941D01*
X480705D01*
X481000Y97882D01*
X481295Y97941D01*
X508000D01*
X509170Y98174D01*
X510163Y98837D01*
X510826Y99829D01*
X511059Y101000D01*
Y114396D01*
X512329Y115022D01*
X513503Y114122D01*
X516178Y113013D01*
X519050Y112635D01*
X521922Y113013D01*
X524598Y114122D01*
X526895Y115885D01*
X528658Y118182D01*
X529767Y120858D01*
X530145Y123730D01*
Y127730D01*
X529767Y130602D01*
X528658Y133278D01*
X526895Y135575D01*
X524598Y137338D01*
X521922Y138447D01*
X519050Y138825D01*
X516178Y138447D01*
X513503Y137338D01*
X512329Y136438D01*
X511059Y137064D01*
Y162000D01*
X510826Y163171D01*
X510163Y164163D01*
X509170Y164826D01*
X508000Y165059D01*
D02*
G37*
G36*
X417450Y138825D02*
X414578Y138447D01*
X411903Y137338D01*
X409605Y135575D01*
X407842Y133278D01*
X406733Y130602D01*
X406355Y127730D01*
Y123730D01*
X406733Y120858D01*
X407842Y118182D01*
X409605Y115885D01*
X411903Y114122D01*
X414578Y113013D01*
X417450Y112635D01*
X420322Y113013D01*
X422998Y114122D01*
X425295Y115885D01*
X427058Y118182D01*
X428167Y120858D01*
X428545Y123730D01*
Y127730D01*
X428167Y130602D01*
X427058Y133278D01*
X425295Y135575D01*
X422998Y137338D01*
X420322Y138447D01*
X417450Y138825D01*
D02*
G37*
G36*
X392050D02*
X389178Y138447D01*
X386503Y137338D01*
X384205Y135575D01*
X382442Y133278D01*
X381333Y130602D01*
X380955Y127730D01*
Y123730D01*
X381333Y120858D01*
X382442Y118182D01*
X384205Y115885D01*
X386503Y114122D01*
X389178Y113013D01*
X392050Y112635D01*
X394922Y113013D01*
X397598Y114122D01*
X399895Y115885D01*
X401659Y118182D01*
X402767Y120858D01*
X403145Y123730D01*
Y127730D01*
X402767Y130602D01*
X401659Y133278D01*
X399895Y135575D01*
X397598Y137338D01*
X394922Y138447D01*
X392050Y138825D01*
D02*
G37*
G36*
X366650D02*
X363778Y138447D01*
X361103Y137338D01*
X358805Y135575D01*
X357042Y133278D01*
X355933Y130602D01*
X355555Y127730D01*
Y123730D01*
X355933Y120858D01*
X357042Y118182D01*
X358805Y115885D01*
X361103Y114122D01*
X363778Y113013D01*
X366650Y112635D01*
X369522Y113013D01*
X372197Y114122D01*
X374495Y115885D01*
X376259Y118182D01*
X377367Y120858D01*
X377745Y123730D01*
Y127730D01*
X377367Y130602D01*
X376259Y133278D01*
X374495Y135575D01*
X372197Y137338D01*
X369522Y138447D01*
X366650Y138825D01*
D02*
G37*
G36*
X417450Y215025D02*
X414578Y214647D01*
X411903Y213538D01*
X409605Y211775D01*
X407842Y209478D01*
X406733Y206802D01*
X406355Y203930D01*
Y199930D01*
X406733Y197058D01*
X407842Y194382D01*
X409605Y192085D01*
X411903Y190322D01*
X414578Y189213D01*
X417450Y188835D01*
X420322Y189213D01*
X422998Y190322D01*
X425295Y192085D01*
X427058Y194382D01*
X428167Y197058D01*
X428545Y199930D01*
Y203930D01*
X428167Y206802D01*
X427058Y209478D01*
X425295Y211775D01*
X422998Y213538D01*
X420322Y214647D01*
X417450Y215025D01*
D02*
G37*
G36*
X468250D02*
X465378Y214647D01*
X462703Y213538D01*
X460405Y211775D01*
X458642Y209478D01*
X457533Y206802D01*
X457155Y203930D01*
Y199930D01*
X457533Y197058D01*
X458642Y194382D01*
X460405Y192085D01*
X462703Y190322D01*
X465378Y189213D01*
X468250Y188835D01*
X471122Y189213D01*
X473797Y190322D01*
X476095Y192085D01*
X477859Y194382D01*
X478967Y197058D01*
X479345Y199930D01*
Y203930D01*
X478967Y206802D01*
X477859Y209478D01*
X476095Y211775D01*
X473797Y213538D01*
X471122Y214647D01*
X468250Y215025D01*
D02*
G37*
G36*
X493650D02*
X490778Y214647D01*
X488103Y213538D01*
X485805Y211775D01*
X484042Y209478D01*
X482933Y206802D01*
X482555Y203930D01*
Y199930D01*
X482933Y197058D01*
X484042Y194382D01*
X485805Y192085D01*
X488103Y190322D01*
X490778Y189213D01*
X493650Y188835D01*
X496522Y189213D01*
X499198Y190322D01*
X501495Y192085D01*
X503259Y194382D01*
X504367Y197058D01*
X504745Y199930D01*
Y203930D01*
X504367Y206802D01*
X503259Y209478D01*
X501495Y211775D01*
X499198Y213538D01*
X496522Y214647D01*
X493650Y215025D01*
D02*
G37*
G36*
X392050D02*
X389178Y214647D01*
X386503Y213538D01*
X384205Y211775D01*
X382442Y209478D01*
X381333Y206802D01*
X380955Y203930D01*
Y199930D01*
X381333Y197058D01*
X382442Y194382D01*
X384205Y192085D01*
X386503Y190322D01*
X389178Y189213D01*
X392050Y188835D01*
X394922Y189213D01*
X397598Y190322D01*
X399895Y192085D01*
X401659Y194382D01*
X402767Y197058D01*
X403145Y199930D01*
Y203930D01*
X402767Y206802D01*
X401659Y209478D01*
X399895Y211775D01*
X397598Y213538D01*
X394922Y214647D01*
X392050Y215025D01*
D02*
G37*
G36*
X544450Y138825D02*
X541578Y138447D01*
X538903Y137338D01*
X536605Y135575D01*
X534842Y133278D01*
X533733Y130602D01*
X533355Y127730D01*
Y123730D01*
X533733Y120858D01*
X534842Y118182D01*
X536605Y115885D01*
X538903Y114122D01*
X541578Y113013D01*
X544450Y112635D01*
X547322Y113013D01*
X549997Y114122D01*
X552295Y115885D01*
X554058Y118182D01*
X555167Y120858D01*
X555545Y123730D01*
Y127730D01*
X555167Y130602D01*
X554058Y133278D01*
X552295Y135575D01*
X549997Y137338D01*
X547322Y138447D01*
X544450Y138825D01*
D02*
G37*
G36*
X569850D02*
X566978Y138447D01*
X564303Y137338D01*
X562005Y135575D01*
X560242Y133278D01*
X559133Y130602D01*
X558755Y127730D01*
Y123730D01*
X559133Y120858D01*
X560242Y118182D01*
X562005Y115885D01*
X564303Y114122D01*
X566978Y113013D01*
X569850Y112635D01*
X572722Y113013D01*
X575397Y114122D01*
X577695Y115885D01*
X579459Y118182D01*
X580567Y120858D01*
X580945Y123730D01*
Y127730D01*
X580567Y130602D01*
X579459Y133278D01*
X577695Y135575D01*
X575397Y137338D01*
X572722Y138447D01*
X569850Y138825D01*
D02*
G37*
G36*
X366650Y215025D02*
X363778Y214647D01*
X361103Y213538D01*
X358805Y211775D01*
X357042Y209478D01*
X355933Y206802D01*
X355555Y203930D01*
Y199930D01*
X355933Y197058D01*
X357042Y194382D01*
X358805Y192085D01*
X361103Y190322D01*
X363778Y189213D01*
X366650Y188835D01*
X369522Y189213D01*
X372197Y190322D01*
X374495Y192085D01*
X376259Y194382D01*
X377367Y197058D01*
X377745Y199930D01*
Y203930D01*
X377367Y206802D01*
X376259Y209478D01*
X374495Y211775D01*
X372197Y213538D01*
X369522Y214647D01*
X366650Y215025D01*
D02*
G37*
G36*
X584200Y38495D02*
X581328Y38117D01*
X578653Y37009D01*
X576355Y35245D01*
X574591Y32947D01*
X573483Y30272D01*
X573105Y27400D01*
Y23400D01*
X573483Y20528D01*
X574591Y17852D01*
X576355Y15555D01*
X578653Y13792D01*
X581328Y12683D01*
X584200Y12305D01*
X587072Y12683D01*
X589747Y13792D01*
X592045Y15555D01*
X593809Y17852D01*
X594917Y20528D01*
X595295Y23400D01*
Y27400D01*
X594917Y30272D01*
X593809Y32947D01*
X592045Y35245D01*
X589747Y37009D01*
X587072Y38117D01*
X584200Y38495D01*
D02*
G37*
G36*
X635000D02*
X632128Y38117D01*
X629453Y37009D01*
X627155Y35245D01*
X625392Y32947D01*
X624283Y30272D01*
X623905Y27400D01*
Y23400D01*
X624283Y20528D01*
X625392Y17852D01*
X627155Y15555D01*
X629453Y13792D01*
X632128Y12683D01*
X635000Y12305D01*
X637872Y12683D01*
X640547Y13792D01*
X642845Y15555D01*
X644609Y17852D01*
X645717Y20528D01*
X646095Y23400D01*
Y27400D01*
X645717Y30272D01*
X644609Y32947D01*
X642845Y35245D01*
X640547Y37009D01*
X637872Y38117D01*
X635000Y38495D01*
D02*
G37*
G36*
X519000Y38400D02*
X497000D01*
Y12400D01*
X519000D01*
Y38400D01*
D02*
G37*
G36*
X457200Y38495D02*
X454328Y38117D01*
X451653Y37009D01*
X449355Y35245D01*
X447592Y32947D01*
X446483Y30272D01*
X446105Y27400D01*
Y23400D01*
X446483Y20528D01*
X447592Y17852D01*
X449355Y15555D01*
X451653Y13792D01*
X454328Y12683D01*
X457200Y12305D01*
X460072Y12683D01*
X462747Y13792D01*
X465045Y15555D01*
X466809Y17852D01*
X467917Y20528D01*
X468295Y23400D01*
Y27400D01*
X467917Y30272D01*
X466809Y32947D01*
X465045Y35245D01*
X462747Y37009D01*
X460072Y38117D01*
X457200Y38495D01*
D02*
G37*
G36*
X533400D02*
X530528Y38117D01*
X527853Y37009D01*
X525555Y35245D01*
X523792Y32947D01*
X522683Y30272D01*
X522305Y27400D01*
Y23400D01*
X522683Y20528D01*
X523792Y17852D01*
X525555Y15555D01*
X527853Y13792D01*
X530528Y12683D01*
X533400Y12305D01*
X536272Y12683D01*
X538947Y13792D01*
X541245Y15555D01*
X543008Y17852D01*
X544117Y20528D01*
X544495Y23400D01*
Y27400D01*
X544117Y30272D01*
X543008Y32947D01*
X541245Y35245D01*
X538947Y37009D01*
X536272Y38117D01*
X533400Y38495D01*
D02*
G37*
G36*
X558800D02*
X555928Y38117D01*
X553253Y37009D01*
X550955Y35245D01*
X549192Y32947D01*
X548083Y30272D01*
X547705Y27400D01*
Y23400D01*
X548083Y20528D01*
X549192Y17852D01*
X550955Y15555D01*
X553253Y13792D01*
X555928Y12683D01*
X558800Y12305D01*
X561672Y12683D01*
X564347Y13792D01*
X566645Y15555D01*
X568409Y17852D01*
X569517Y20528D01*
X569895Y23400D01*
Y27400D01*
X569517Y30272D01*
X568409Y32947D01*
X566645Y35245D01*
X564347Y37009D01*
X561672Y38117D01*
X558800Y38495D01*
D02*
G37*
G36*
X201500Y31108D02*
X198237Y30678D01*
X195196Y29419D01*
X192585Y27415D01*
X190581Y24804D01*
X189322Y21763D01*
X188892Y18500D01*
X189322Y15237D01*
X190581Y12196D01*
X192585Y9585D01*
X195196Y7581D01*
X198237Y6322D01*
X201500Y5892D01*
X204763Y6322D01*
X207804Y7581D01*
X210415Y9585D01*
X212419Y12196D01*
X213678Y15237D01*
X214108Y18500D01*
X213678Y21763D01*
X212419Y24804D01*
X210415Y27415D01*
X207804Y29419D01*
X204763Y30678D01*
X201500Y31108D01*
D02*
G37*
G36*
X315850Y138825D02*
X312978Y138447D01*
X310303Y137338D01*
X308005Y135575D01*
X306242Y133278D01*
X305133Y130602D01*
X304755Y127730D01*
Y123730D01*
X305133Y120858D01*
X306242Y118182D01*
X308005Y115885D01*
X310303Y114122D01*
X312978Y113013D01*
X315850Y112635D01*
X318722Y113013D01*
X321398Y114122D01*
X323695Y115885D01*
X325458Y118182D01*
X326567Y120858D01*
X326945Y123730D01*
Y127730D01*
X326567Y130602D01*
X325458Y133278D01*
X323695Y135575D01*
X321398Y137338D01*
X318722Y138447D01*
X315850Y138825D01*
D02*
G37*
G36*
X341250D02*
X338378Y138447D01*
X335703Y137338D01*
X333405Y135575D01*
X331642Y133278D01*
X330533Y130602D01*
X330155Y127730D01*
Y123730D01*
X330533Y120858D01*
X331642Y118182D01*
X333405Y115885D01*
X335703Y114122D01*
X338378Y113013D01*
X341250Y112635D01*
X344122Y113013D01*
X346797Y114122D01*
X349095Y115885D01*
X350858Y118182D01*
X351967Y120858D01*
X352345Y123730D01*
Y127730D01*
X351967Y130602D01*
X350858Y133278D01*
X349095Y135575D01*
X346797Y137338D01*
X344122Y138447D01*
X341250Y138825D01*
D02*
G37*
G36*
X431800Y38495D02*
X428928Y38117D01*
X426253Y37009D01*
X423955Y35245D01*
X422192Y32947D01*
X421083Y30272D01*
X420705Y27400D01*
Y23400D01*
X421083Y20528D01*
X422192Y17852D01*
X423955Y15555D01*
X426253Y13792D01*
X428928Y12683D01*
X431800Y12305D01*
X434672Y12683D01*
X437347Y13792D01*
X439645Y15555D01*
X441409Y17852D01*
X442517Y20528D01*
X442895Y23400D01*
Y27400D01*
X442517Y30272D01*
X441409Y32947D01*
X439645Y35245D01*
X437347Y37009D01*
X434672Y38117D01*
X431800Y38495D01*
D02*
G37*
G36*
X246500Y31108D02*
X243237Y30678D01*
X240196Y29419D01*
X237585Y27415D01*
X235581Y24804D01*
X234322Y21763D01*
X233892Y18500D01*
X234322Y15237D01*
X235581Y12196D01*
X237585Y9585D01*
X240196Y7581D01*
X243237Y6322D01*
X246500Y5892D01*
X249763Y6322D01*
X252804Y7581D01*
X255415Y9585D01*
X257419Y12196D01*
X258678Y15237D01*
X259108Y18500D01*
X258678Y21763D01*
X257419Y24804D01*
X255415Y27415D01*
X252804Y29419D01*
X249763Y30678D01*
X246500Y31108D01*
D02*
G37*
G36*
X290450Y138825D02*
X287578Y138447D01*
X284903Y137338D01*
X282605Y135575D01*
X280842Y133278D01*
X279733Y130602D01*
X279355Y127730D01*
Y123730D01*
X279733Y120858D01*
X280842Y118182D01*
X282605Y115885D01*
X284903Y114122D01*
X287578Y113013D01*
X290450Y112635D01*
X293322Y113013D01*
X295998Y114122D01*
X298295Y115885D01*
X300058Y118182D01*
X301167Y120858D01*
X301545Y123730D01*
Y127730D01*
X301167Y130602D01*
X300058Y133278D01*
X298295Y135575D01*
X295998Y137338D01*
X293322Y138447D01*
X290450Y138825D01*
D02*
G37*
G36*
X457200Y521095D02*
X454328Y520717D01*
X451653Y519608D01*
X449355Y517845D01*
X447592Y515547D01*
X446483Y512872D01*
X446105Y510000D01*
Y506000D01*
X446483Y503128D01*
X447592Y500452D01*
X449355Y498155D01*
X451653Y496391D01*
X454328Y495283D01*
X457200Y494905D01*
X460072Y495283D01*
X462747Y496391D01*
X465045Y498155D01*
X466809Y500452D01*
X467917Y503128D01*
X468295Y506000D01*
Y510000D01*
X467917Y512872D01*
X466809Y515547D01*
X465045Y517845D01*
X462747Y519608D01*
X460072Y520717D01*
X457200Y521095D01*
D02*
G37*
G36*
X482600D02*
X479728Y520717D01*
X477053Y519608D01*
X474755Y517845D01*
X472991Y515547D01*
X471883Y512872D01*
X471505Y510000D01*
Y506000D01*
X471883Y503128D01*
X472991Y500452D01*
X474755Y498155D01*
X477053Y496391D01*
X479728Y495283D01*
X482600Y494905D01*
X485472Y495283D01*
X488147Y496391D01*
X490445Y498155D01*
X492209Y500452D01*
X493317Y503128D01*
X493695Y506000D01*
Y510000D01*
X493317Y512872D01*
X492209Y515547D01*
X490445Y517845D01*
X488147Y519608D01*
X485472Y520717D01*
X482600Y521095D01*
D02*
G37*
G36*
X508000D02*
X505128Y520717D01*
X502453Y519608D01*
X500155Y517845D01*
X498391Y515547D01*
X497283Y512872D01*
X496905Y510000D01*
Y506000D01*
X497283Y503128D01*
X498391Y500452D01*
X500155Y498155D01*
X502453Y496391D01*
X505128Y495283D01*
X508000Y494905D01*
X510872Y495283D01*
X513547Y496391D01*
X515845Y498155D01*
X517608Y500452D01*
X518717Y503128D01*
X519095Y506000D01*
Y510000D01*
X518717Y512872D01*
X517608Y515547D01*
X515845Y517845D01*
X513547Y519608D01*
X510872Y520717D01*
X508000Y521095D01*
D02*
G37*
G36*
X391160D02*
X388288Y520717D01*
X385613Y519608D01*
X383315Y517845D01*
X381552Y515547D01*
X380443Y512872D01*
X380065Y510000D01*
Y506000D01*
X380443Y503128D01*
X381552Y500452D01*
X383315Y498155D01*
X385613Y496391D01*
X388288Y495283D01*
X391160Y494905D01*
X394032Y495283D01*
X396707Y496391D01*
X399005Y498155D01*
X400769Y500452D01*
X401877Y503128D01*
X402255Y506000D01*
Y510000D01*
X401877Y512872D01*
X400769Y515547D01*
X399005Y517845D01*
X396707Y519608D01*
X394032Y520717D01*
X391160Y521095D01*
D02*
G37*
G36*
X36900Y483940D02*
X13900D01*
Y460940D01*
X36900D01*
Y483940D01*
D02*
G37*
G36*
X340360Y521095D02*
X337488Y520717D01*
X334813Y519608D01*
X332515Y517845D01*
X330751Y515547D01*
X329643Y512872D01*
X329265Y510000D01*
Y506000D01*
X329643Y503128D01*
X330751Y500452D01*
X332515Y498155D01*
X334813Y496391D01*
X337488Y495283D01*
X340360Y494905D01*
X343232Y495283D01*
X345907Y496391D01*
X348205Y498155D01*
X349968Y500452D01*
X351077Y503128D01*
X351455Y506000D01*
Y510000D01*
X351077Y512872D01*
X349968Y515547D01*
X348205Y517845D01*
X345907Y519608D01*
X343232Y520717D01*
X340360Y521095D01*
D02*
G37*
G36*
X365760D02*
X362888Y520717D01*
X360213Y519608D01*
X357915Y517845D01*
X356152Y515547D01*
X355043Y512872D01*
X354665Y510000D01*
Y506000D01*
X355043Y503128D01*
X356152Y500452D01*
X357915Y498155D01*
X360213Y496391D01*
X362888Y495283D01*
X365760Y494905D01*
X368632Y495283D01*
X371307Y496391D01*
X373605Y498155D01*
X375368Y500452D01*
X376477Y503128D01*
X376855Y506000D01*
Y510000D01*
X376477Y512872D01*
X375368Y515547D01*
X373605Y517845D01*
X371307Y519608D01*
X368632Y520717D01*
X365760Y521095D01*
D02*
G37*
G36*
X427560Y521000D02*
X405560D01*
Y495000D01*
X427560D01*
Y521000D01*
D02*
G37*
G36*
X646000D02*
X624000D01*
Y495000D01*
X646000D01*
Y521000D01*
D02*
G37*
G36*
X314960Y521095D02*
X312088Y520717D01*
X309413Y519608D01*
X307115Y517845D01*
X305352Y515547D01*
X304243Y512872D01*
X303865Y510000D01*
Y506000D01*
X304243Y503128D01*
X304266Y503074D01*
X299007Y497815D01*
X298790Y497874D01*
X298301Y499322D01*
X299168Y500452D01*
X300277Y503128D01*
X300655Y506000D01*
Y510000D01*
X300277Y512872D01*
X299168Y515547D01*
X297405Y517845D01*
X295107Y519608D01*
X292432Y520717D01*
X289560Y521095D01*
X286688Y520717D01*
X284013Y519608D01*
X281715Y517845D01*
X279951Y515547D01*
X278843Y512872D01*
X278465Y510000D01*
Y506000D01*
X278843Y503128D01*
X279951Y500452D01*
X281024Y499055D01*
X280144Y498115D01*
X279341Y498652D01*
X277000Y499118D01*
X274659Y498652D01*
X272674Y497326D01*
X271348Y495341D01*
X270882Y493000D01*
X271348Y490659D01*
X272674Y488674D01*
X274659Y487348D01*
X277000Y486883D01*
X279341Y487348D01*
X281326Y488674D01*
X281491Y488922D01*
X299960D01*
X299960Y488922D01*
X301262Y489181D01*
X301521Y489232D01*
X302844Y490116D01*
X309247Y496519D01*
X309413Y496391D01*
X312088Y495283D01*
X314960Y494905D01*
X317832Y495283D01*
X320507Y496391D01*
X322805Y498155D01*
X324568Y500452D01*
X325677Y503128D01*
X326055Y506000D01*
Y510000D01*
X325677Y512872D01*
X324568Y515547D01*
X322805Y517845D01*
X320507Y519608D01*
X317832Y520717D01*
X314960Y521095D01*
D02*
G37*
G36*
X609600D02*
X606728Y520717D01*
X604053Y519608D01*
X601755Y517845D01*
X599991Y515547D01*
X598883Y512872D01*
X598505Y510000D01*
Y506000D01*
X598883Y503128D01*
X599991Y500452D01*
X601755Y498155D01*
X604053Y496391D01*
X606728Y495283D01*
X609600Y494905D01*
X612472Y495283D01*
X615147Y496391D01*
X617445Y498155D01*
X619208Y500452D01*
X620317Y503128D01*
X620695Y506000D01*
Y510000D01*
X620317Y512872D01*
X619208Y515547D01*
X617445Y517845D01*
X615147Y519608D01*
X612472Y520717D01*
X609600Y521095D01*
D02*
G37*
G36*
X533400D02*
X530528Y520717D01*
X527853Y519608D01*
X525555Y517845D01*
X523792Y515547D01*
X522683Y512872D01*
X522305Y510000D01*
Y506000D01*
X522683Y503128D01*
X523792Y500452D01*
X525555Y498155D01*
X527853Y496391D01*
X530528Y495283D01*
X533400Y494905D01*
X536272Y495283D01*
X538947Y496391D01*
X541245Y498155D01*
X543008Y500452D01*
X544117Y503128D01*
X544495Y506000D01*
Y510000D01*
X544117Y512872D01*
X543008Y515547D01*
X541245Y517845D01*
X538947Y519608D01*
X536272Y520717D01*
X533400Y521095D01*
D02*
G37*
G36*
X558800D02*
X555928Y520717D01*
X553253Y519608D01*
X550955Y517845D01*
X549192Y515547D01*
X548083Y512872D01*
X547705Y510000D01*
Y506000D01*
X548083Y503128D01*
X549192Y500452D01*
X550955Y498155D01*
X553253Y496391D01*
X555928Y495283D01*
X558800Y494905D01*
X561672Y495283D01*
X564347Y496391D01*
X566645Y498155D01*
X568409Y500452D01*
X569517Y503128D01*
X569895Y506000D01*
Y510000D01*
X569517Y512872D01*
X568409Y515547D01*
X566645Y517845D01*
X564347Y519608D01*
X561672Y520717D01*
X558800Y521095D01*
D02*
G37*
G36*
X584200D02*
X581328Y520717D01*
X578653Y519608D01*
X576355Y517845D01*
X574591Y515547D01*
X573483Y512872D01*
X573105Y510000D01*
Y506000D01*
X573483Y503128D01*
X574591Y500452D01*
X576355Y498155D01*
X578653Y496391D01*
X581328Y495283D01*
X584200Y494905D01*
X587072Y495283D01*
X589747Y496391D01*
X592045Y498155D01*
X593809Y500452D01*
X594917Y503128D01*
X595295Y506000D01*
Y510000D01*
X594917Y512872D01*
X593809Y515547D01*
X592045Y517845D01*
X589747Y519608D01*
X587072Y520717D01*
X584200Y521095D01*
D02*
G37*
G36*
X329000Y253118D02*
X326659Y252652D01*
X324674Y251326D01*
X323348Y249341D01*
X322882Y247000D01*
X323348Y244659D01*
X324672Y242678D01*
Y212431D01*
X323402Y212001D01*
X321398Y213538D01*
X318722Y214647D01*
X315850Y215025D01*
X312978Y214647D01*
X310303Y213538D01*
X308348Y212039D01*
X307078Y212517D01*
Y214311D01*
X311708Y218941D01*
X312000Y218883D01*
X314341Y219348D01*
X316326Y220674D01*
X317652Y222659D01*
X318118Y225000D01*
X317652Y227341D01*
X316326Y229326D01*
X314341Y230652D01*
X312000Y231117D01*
X309659Y230652D01*
X307674Y229326D01*
X306348Y227341D01*
X305882Y225000D01*
X305940Y224708D01*
X300116Y218884D01*
X299232Y217561D01*
X299181Y217302D01*
X298922Y216000D01*
X298922Y216000D01*
Y212896D01*
X297652Y212269D01*
X295998Y213538D01*
X293322Y214647D01*
X290450Y215025D01*
X287578Y214647D01*
X284903Y213538D01*
X282605Y211775D01*
X280842Y209478D01*
X279733Y206802D01*
X279355Y203930D01*
Y199930D01*
X279733Y197058D01*
X279756Y197003D01*
X268331Y185578D01*
X241991D01*
X241826Y185826D01*
X239841Y187152D01*
X237500Y187618D01*
X235159Y187152D01*
X233174Y185826D01*
X231848Y183841D01*
X231383Y181500D01*
X231848Y179159D01*
X233174Y177174D01*
X235159Y175848D01*
X237500Y175382D01*
X239841Y175848D01*
X241826Y177174D01*
X241991Y177422D01*
X270020D01*
X270020Y177422D01*
X271322Y177681D01*
X271581Y177732D01*
X272904Y178616D01*
X284737Y190449D01*
X284903Y190322D01*
X287578Y189213D01*
X290450Y188835D01*
X293322Y189213D01*
X295998Y190322D01*
X297652Y191591D01*
X298922Y190965D01*
Y182491D01*
X298674Y182326D01*
X297348Y180341D01*
X296882Y178000D01*
X297348Y175659D01*
X298674Y173674D01*
X300659Y172348D01*
X303000Y171882D01*
X305341Y172348D01*
X307326Y173674D01*
X308652Y175659D01*
X309118Y178000D01*
X308652Y180341D01*
X307326Y182326D01*
X307078Y182491D01*
Y191343D01*
X308348Y191821D01*
X310303Y190322D01*
X312978Y189213D01*
X315850Y188835D01*
X318722Y189213D01*
X321398Y190322D01*
X323402Y191859D01*
X324672Y191429D01*
Y181825D01*
X324348Y181341D01*
X323882Y179000D01*
X324348Y176659D01*
X325674Y174674D01*
X327659Y173348D01*
X330000Y172882D01*
X332341Y173348D01*
X334326Y174674D01*
X335652Y176659D01*
X336118Y179000D01*
X335652Y181341D01*
X334326Y183326D01*
X332828Y184326D01*
Y190926D01*
X334098Y191552D01*
X335703Y190322D01*
X338378Y189213D01*
X341250Y188835D01*
X344122Y189213D01*
X346797Y190322D01*
X349095Y192085D01*
X350858Y194382D01*
X351967Y197058D01*
X352345Y199930D01*
Y203930D01*
X351967Y206802D01*
X350858Y209478D01*
X349095Y211775D01*
X346797Y213538D01*
X344122Y214647D01*
X341250Y215025D01*
X338378Y214647D01*
X335703Y213538D01*
X334098Y212308D01*
X332828Y212934D01*
Y242342D01*
X333326Y242674D01*
X334652Y244659D01*
X335117Y247000D01*
X334652Y249341D01*
X333326Y251326D01*
X331341Y252652D01*
X329000Y253118D01*
D02*
G37*
G36*
X28400Y243057D02*
X15600D01*
X13877Y242830D01*
X12271Y242165D01*
X10893Y241107D01*
X9835Y239729D01*
X9170Y238123D01*
X8943Y236400D01*
Y231600D01*
X9170Y229877D01*
X9835Y228272D01*
X10893Y226893D01*
X12271Y225835D01*
X13877Y225170D01*
X15600Y224943D01*
X28400D01*
X30123Y225170D01*
X31728Y225835D01*
X33107Y226893D01*
X34165Y228272D01*
X34830Y229877D01*
X35057Y231600D01*
Y236400D01*
X34830Y238123D01*
X34165Y239729D01*
X33107Y241107D01*
X31728Y242165D01*
X30123Y242830D01*
X28400Y243057D01*
D02*
G37*
G36*
X104000Y372118D02*
X92000D01*
X89659Y371652D01*
X87674Y370326D01*
X86348Y368341D01*
X85883Y366000D01*
X86348Y363659D01*
X87674Y361674D01*
X87922Y361509D01*
Y324491D01*
X87674Y324326D01*
X86348Y322341D01*
X85883Y320000D01*
X86348Y317659D01*
X87674Y315674D01*
X89659Y314348D01*
X92000Y313883D01*
X94341Y314348D01*
X96326Y315674D01*
X97212Y317000D01*
X99922D01*
Y278102D01*
X97659Y277652D01*
X95674Y276326D01*
X94348Y274341D01*
X93883Y272000D01*
X94348Y269659D01*
X95674Y267674D01*
X97659Y266348D01*
X100000Y265882D01*
X102341Y266348D01*
X104326Y267674D01*
X105652Y269659D01*
X106117Y272000D01*
X106060Y272292D01*
X106884Y273116D01*
X106884Y273116D01*
X107768Y274439D01*
X108078Y276000D01*
Y361509D01*
X108326Y361674D01*
X109652Y363659D01*
X110118Y366000D01*
X109652Y368341D01*
X108326Y370326D01*
X106341Y371652D01*
X104000Y372118D01*
D02*
G37*
G36*
X209840Y215898D02*
X209387D01*
X207045Y215432D01*
X205061Y214106D01*
X197073Y206117D01*
X177000D01*
X176500Y206018D01*
X176000Y206117D01*
X173659Y205652D01*
X171674Y204326D01*
X170348Y202341D01*
X169883Y200000D01*
X170348Y197659D01*
X171674Y195674D01*
X173659Y194348D01*
X176000Y193883D01*
X176500Y193982D01*
X177000Y193883D01*
X199607D01*
X201948Y194348D01*
X203932Y195674D01*
X212799Y204541D01*
X214166Y205454D01*
X215492Y207439D01*
X215958Y209780D01*
X215492Y212121D01*
X214166Y214106D01*
X212181Y215432D01*
X209840Y215898D01*
D02*
G37*
G36*
X519050Y215025D02*
X516178Y214647D01*
X513503Y213538D01*
X511205Y211775D01*
X509442Y209478D01*
X508333Y206802D01*
X507955Y203930D01*
Y199930D01*
X508333Y197058D01*
X509442Y194382D01*
X511205Y192085D01*
X513503Y190322D01*
X516178Y189213D01*
X519050Y188835D01*
X521922Y189213D01*
X524598Y190322D01*
X526895Y192085D01*
X528658Y194382D01*
X529767Y197058D01*
X530145Y199930D01*
Y203930D01*
X529767Y206802D01*
X528658Y209478D01*
X526895Y211775D01*
X524598Y213538D01*
X521922Y214647D01*
X519050Y215025D01*
D02*
G37*
G36*
X544450D02*
X541578Y214647D01*
X538903Y213538D01*
X536605Y211775D01*
X534842Y209478D01*
X533733Y206802D01*
X533355Y203930D01*
Y199930D01*
X533733Y197058D01*
X534842Y194382D01*
X536605Y192085D01*
X538903Y190322D01*
X541578Y189213D01*
X544450Y188835D01*
X547322Y189213D01*
X549997Y190322D01*
X552295Y192085D01*
X554058Y194382D01*
X555167Y197058D01*
X555545Y199930D01*
Y203930D01*
X555167Y206802D01*
X554058Y209478D01*
X552295Y211775D01*
X549997Y213538D01*
X547322Y214647D01*
X544450Y215025D01*
D02*
G37*
G36*
X117000Y221117D02*
X114659Y220652D01*
X112674Y219326D01*
X111348Y217341D01*
X110883Y215000D01*
X111348Y212659D01*
X112674Y210674D01*
X114659Y209348D01*
X117000Y208883D01*
X117292Y208941D01*
X119116Y207116D01*
X120439Y206232D01*
X120698Y206181D01*
X121525Y206016D01*
X121793Y205502D01*
X121927Y204819D01*
X121918Y204686D01*
X118292Y201059D01*
X118000Y201117D01*
X115659Y200652D01*
X113674Y199326D01*
X112348Y197341D01*
X111882Y195000D01*
X112348Y192659D01*
X113674Y190674D01*
X115659Y189348D01*
X118000Y188883D01*
X120341Y189348D01*
X122326Y190674D01*
X123652Y192659D01*
X124117Y195000D01*
X124059Y195292D01*
X126689Y197922D01*
X150509D01*
X150674Y197674D01*
X152659Y196348D01*
X155000Y195882D01*
X157341Y196348D01*
X159326Y197674D01*
X160652Y199659D01*
X161117Y202000D01*
X160914Y203022D01*
X161686Y203794D01*
X162037Y203890D01*
X164341Y204348D01*
X166326Y205674D01*
X167652Y207659D01*
X168118Y210000D01*
X167652Y212341D01*
X166326Y214326D01*
X164341Y215652D01*
X162000Y216118D01*
X159659Y215652D01*
X157674Y214326D01*
X157509Y214078D01*
X124050D01*
X123118Y215000D01*
X122652Y217341D01*
X121326Y219326D01*
X119341Y220652D01*
X117000Y221117D01*
D02*
G37*
G36*
X25400Y328199D02*
X22398Y327804D01*
X19600Y326645D01*
X17198Y324802D01*
X15355Y322400D01*
X14196Y319602D01*
X13801Y316600D01*
X14196Y313598D01*
X15355Y310800D01*
X17198Y308398D01*
X19600Y306555D01*
X22398Y305396D01*
X25400Y305001D01*
X28402Y305396D01*
X31200Y306555D01*
X33602Y308398D01*
X35445Y310800D01*
X36604Y313598D01*
X36999Y316600D01*
X36604Y319602D01*
X35445Y322400D01*
X33602Y324802D01*
X31200Y326645D01*
X28402Y327804D01*
X25400Y328199D01*
D02*
G37*
G36*
X148000Y406295D02*
X144000D01*
X141128Y405917D01*
X138453Y404809D01*
X136155Y403045D01*
X134391Y400747D01*
X133283Y398072D01*
X132905Y395200D01*
X133283Y392328D01*
X134391Y389652D01*
X136155Y387355D01*
X138453Y385592D01*
X141128Y384483D01*
X144000Y384105D01*
X148000D01*
X150872Y384483D01*
X153547Y385592D01*
X155845Y387355D01*
X157608Y389652D01*
X158717Y392328D01*
X159095Y395200D01*
X158717Y398072D01*
X157608Y400747D01*
X155845Y403045D01*
X153547Y404809D01*
X150872Y405917D01*
X148000Y406295D01*
D02*
G37*
G36*
X36900Y397580D02*
X13900D01*
Y374580D01*
X36900D01*
Y397580D01*
D02*
G37*
G36*
X76200Y397679D02*
X73198Y397284D01*
X70400Y396125D01*
X67998Y394282D01*
X66155Y391880D01*
X64996Y389082D01*
X64601Y386080D01*
X64996Y383078D01*
X66155Y380280D01*
X67998Y377878D01*
X70400Y376035D01*
X73198Y374876D01*
X76200Y374481D01*
X79202Y374876D01*
X82000Y376035D01*
X84402Y377878D01*
X86245Y380280D01*
X87404Y383078D01*
X87799Y386080D01*
X87404Y389082D01*
X86245Y391880D01*
X84402Y394282D01*
X82000Y396125D01*
X79202Y397284D01*
X76200Y397679D01*
D02*
G37*
G36*
X148000Y431695D02*
X144000D01*
X141128Y431317D01*
X138453Y430209D01*
X136155Y428445D01*
X134391Y426147D01*
X133283Y423472D01*
X132905Y420600D01*
X133283Y417728D01*
X134391Y415052D01*
X136155Y412755D01*
X138453Y410992D01*
X141128Y409883D01*
X144000Y409505D01*
X148000D01*
X150872Y409883D01*
X153547Y410992D01*
X155845Y412755D01*
X157608Y415052D01*
X158717Y417728D01*
X159095Y420600D01*
X158717Y423472D01*
X157608Y426147D01*
X155845Y428445D01*
X153547Y430209D01*
X150872Y431317D01*
X148000Y431695D01*
D02*
G37*
G36*
X25400Y353599D02*
X22398Y353204D01*
X19600Y352045D01*
X17198Y350202D01*
X15355Y347800D01*
X14196Y345002D01*
X13801Y342000D01*
X14196Y338998D01*
X15355Y336200D01*
X17198Y333798D01*
X19600Y331955D01*
X22398Y330796D01*
X25400Y330401D01*
X28402Y330796D01*
X31200Y331955D01*
X33602Y333798D01*
X35445Y336200D01*
X36604Y338998D01*
X36999Y342000D01*
X36604Y345002D01*
X35445Y347800D01*
X33602Y350202D01*
X31200Y352045D01*
X28402Y353204D01*
X25400Y353599D01*
D02*
G37*
%LPD*%
G36*
X508000Y128071D02*
X507955Y127730D01*
Y123730D01*
X508000Y123389D01*
Y101000D01*
X479898D01*
X479000Y101898D01*
X479000Y121110D01*
X479345Y123730D01*
Y127730D01*
X479000Y130350D01*
X479000Y144000D01*
X475000Y148000D01*
X470000Y153000D01*
X453000D01*
Y162000D01*
X508000D01*
Y128071D01*
D02*
G37*
%LPC*%
G36*
X493650Y138825D02*
X490778Y138447D01*
X488103Y137338D01*
X485805Y135575D01*
X484042Y133278D01*
X482933Y130602D01*
X482555Y127730D01*
Y123730D01*
X482933Y120858D01*
X484042Y118182D01*
X485805Y115885D01*
X488103Y114122D01*
X490778Y113013D01*
X493650Y112635D01*
X496522Y113013D01*
X499198Y114122D01*
X501495Y115885D01*
X503259Y118182D01*
X504367Y120858D01*
X504745Y123730D01*
Y127730D01*
X504367Y130602D01*
X503259Y133278D01*
X501495Y135575D01*
X499198Y137338D01*
X496522Y138447D01*
X493650Y138825D01*
D02*
G37*
%LPD*%
D24*
X246500Y83500D02*
D03*
D32*
X213360Y506640D02*
Y508000D01*
Y506640D02*
X259000Y461000D01*
X635000Y252000D02*
X668000Y219000D01*
Y166000D02*
Y219000D01*
X661000Y159000D02*
X668000Y166000D01*
X618000Y142000D02*
X638000Y162000D01*
Y209830D01*
X595250Y125730D02*
X611520Y142000D01*
X618000D01*
X649000Y154080D02*
Y213000D01*
X620650Y125730D02*
X649000Y154080D01*
X614000Y248000D02*
X649000Y213000D01*
X614000Y248000D02*
Y309000D01*
X611830Y236000D02*
X638000Y209830D01*
X598000Y236000D02*
X611830D01*
X573000Y461000D02*
X594000Y440000D01*
Y327000D02*
Y440000D01*
X581500Y314500D02*
X594000Y327000D01*
X259000Y461000D02*
X573000D01*
X245000Y523000D02*
X251260Y516740D01*
X202960Y523000D02*
X245000D01*
X187960Y508000D02*
X202960Y523000D01*
X263000Y471000D02*
X578000D01*
X251260Y482740D02*
X263000Y471000D01*
X251260Y482740D02*
Y516740D01*
X578000Y471000D02*
X604000Y445000D01*
Y319000D02*
Y445000D01*
Y319000D02*
X614000Y309000D01*
X581500Y252500D02*
Y314500D01*
Y252500D02*
X598000Y236000D01*
X328750Y180250D02*
X330000Y179000D01*
X328750Y180250D02*
Y246750D01*
X329000Y247000D01*
X270020Y181500D02*
X290450Y201930D01*
X237500Y181500D02*
X270020D01*
X303000Y178000D02*
Y216000D01*
X553000Y431000D02*
X562000Y422000D01*
X635000Y252000D02*
Y307000D01*
X616000Y326000D02*
X635000Y307000D01*
X92000Y320000D02*
Y366000D01*
X323000Y404000D02*
X528000D01*
X303000Y216000D02*
X312000Y225000D01*
X131560Y472440D02*
X146000Y458000D01*
Y446000D02*
Y458000D01*
X76200Y472440D02*
X131560D01*
X277000Y493000D02*
X299960D01*
X314960Y508000D01*
X146000Y446000D02*
X165000Y465000D01*
X216000D01*
X250000Y431000D01*
X616000Y326000D02*
Y378000D01*
X624000Y386000D01*
Y454000D01*
X562000Y421000D02*
Y422000D01*
X559000Y411000D02*
X565000D01*
X538000Y390000D02*
X559000Y411000D01*
X117000Y215000D02*
X122000Y210000D01*
X162000D01*
X323000Y415000D02*
X541000D01*
X549000Y423000D01*
X125000Y202000D02*
X155000D01*
X118000Y195000D02*
X125000Y202000D01*
X250000Y431000D02*
X553000D01*
X214000Y406000D02*
X225000D01*
X241000Y390000D01*
X538000D01*
X100000Y272000D02*
X104000Y276000D01*
Y366000D01*
D33*
X177000Y200000D02*
X199607D01*
X209387Y209780D01*
X209840D01*
D35*
X582143Y225857D02*
X582350Y225650D01*
Y187650D02*
Y225650D01*
Y187650D02*
X590000Y180000D01*
X607000D01*
X192000Y413000D02*
Y413000D01*
X141600Y88000D02*
Y93600D01*
D36*
X463500Y120980D02*
X468250Y125730D01*
X135000Y168000D02*
X136000Y167000D01*
X406400Y25400D02*
Y31600D01*
X139700Y25400D02*
Y27500D01*
X21000Y233000D02*
X22000Y234000D01*
X660400Y305600D02*
X660500Y305500D01*
X660400Y76200D02*
X678000Y93800D01*
X638000Y378000D02*
X660400Y355600D01*
D37*
X223000Y477000D02*
Y482000D01*
X568000Y240000D02*
Y326280D01*
Y240000D02*
X582143Y225857D01*
X568000Y326280D02*
X580000Y338280D01*
Y427000D01*
X562000Y445000D02*
X580000Y427000D01*
X223000Y477000D02*
X255000Y445000D01*
X562000D01*
D39*
X116200Y88000D02*
D03*
X416560Y508000D02*
D03*
X508000Y25400D02*
D03*
X635000Y508000D02*
D03*
X279400Y25400D02*
D03*
X620650Y201930D02*
D03*
D40*
X141600Y88000D02*
D03*
X167000D02*
D03*
X187960Y508000D02*
D03*
X213360D02*
D03*
X264160D02*
D03*
X238760D02*
D03*
X391160D02*
D03*
X365760D02*
D03*
X340360D02*
D03*
X289560D02*
D03*
X314960D02*
D03*
X533400Y25400D02*
D03*
X558800D02*
D03*
X584200D02*
D03*
X635000D02*
D03*
X609600D02*
D03*
X482600Y508000D02*
D03*
X457200D02*
D03*
X609600D02*
D03*
X584200D02*
D03*
X558800D02*
D03*
X508000D02*
D03*
X533400D02*
D03*
X431800Y25400D02*
D03*
X457200D02*
D03*
X304800D02*
D03*
X330200D02*
D03*
X355600D02*
D03*
X406400D02*
D03*
X381000D02*
D03*
X290450Y125730D02*
D03*
X315850D02*
D03*
X341250D02*
D03*
X366650D02*
D03*
X392050D02*
D03*
X417450D02*
D03*
X442850D02*
D03*
X468250D02*
D03*
X493650D02*
D03*
X519050D02*
D03*
X544450D02*
D03*
X569850D02*
D03*
X595250D02*
D03*
X620650D02*
D03*
X290450Y201930D02*
D03*
X315850D02*
D03*
X341250D02*
D03*
X366650D02*
D03*
X392050D02*
D03*
X417450D02*
D03*
X442850D02*
D03*
X468250D02*
D03*
X493650D02*
D03*
X519050D02*
D03*
X544450D02*
D03*
X569850D02*
D03*
X595250D02*
D03*
D41*
X25400Y386080D02*
D03*
Y472440D02*
D03*
X50800Y342000D02*
D03*
D42*
Y386080D02*
D03*
X76200D02*
D03*
X25400Y411480D02*
D03*
X50800D02*
D03*
X76200D02*
D03*
Y497840D02*
D03*
X50800D02*
D03*
X25400D02*
D03*
X76200Y472440D02*
D03*
X50800D02*
D03*
X25400Y342000D02*
D03*
X50800Y316600D02*
D03*
X25400D02*
D03*
D43*
X146000Y369800D02*
D03*
Y395200D02*
D03*
Y420600D02*
D03*
X662000Y418200D02*
D03*
Y443600D02*
D03*
D44*
X146000Y446000D02*
D03*
X662000Y469000D02*
D03*
D45*
X22000Y168000D02*
D03*
Y234000D02*
D03*
D46*
X20320Y25400D02*
D03*
Y134620D02*
D03*
D47*
X139700Y25400D02*
D03*
X660400Y76200D02*
D03*
Y355600D02*
D03*
D48*
X152400Y508000D02*
D03*
D49*
X660500Y260500D02*
D03*
D50*
X595500D02*
D03*
X660500Y305500D02*
D03*
X595500D02*
D03*
X246500Y18500D02*
D03*
X201500Y83500D02*
D03*
Y18500D02*
D03*
D51*
X84000Y112000D02*
D03*
Y120000D02*
D03*
X59000Y218000D02*
D03*
X137000Y226840D02*
D03*
X405000Y111830D02*
D03*
X397000Y85000D02*
D03*
X233000Y201000D02*
D03*
X221000Y250000D02*
D03*
Y336000D02*
D03*
X135000Y168000D02*
D03*
Y178000D02*
D03*
Y187000D02*
D03*
X208000Y135000D02*
D03*
X231000Y134000D02*
D03*
X192000Y144000D02*
D03*
X444500Y218000D02*
D03*
X463500Y111000D02*
D03*
X473000Y256000D02*
D03*
X375000Y69000D02*
D03*
X323000Y63000D02*
D03*
X160000Y134000D02*
D03*
X176000Y200000D02*
D03*
X209840Y209780D02*
D03*
X51000Y521000D02*
D03*
X60000Y448000D02*
D03*
X104000Y366000D02*
D03*
X92000D02*
D03*
X117000Y415000D02*
D03*
X446000Y49000D02*
D03*
X465000Y44000D02*
D03*
X474000Y88160D02*
D03*
X432000Y66000D02*
D03*
X456000Y157000D02*
D03*
X481000Y104000D02*
D03*
X678000Y125000D02*
D03*
X629000Y170000D02*
D03*
Y185000D02*
D03*
X661000Y159000D02*
D03*
X624000Y454000D02*
D03*
X117000Y215000D02*
D03*
X162000Y210000D02*
D03*
X155000Y202000D02*
D03*
X118000Y195000D02*
D03*
X59000Y226000D02*
D03*
X15000Y290000D02*
D03*
X100000Y272000D02*
D03*
X607000Y180000D02*
D03*
X312000Y225000D02*
D03*
X329000Y247000D02*
D03*
X303000Y178000D02*
D03*
X330000Y179000D02*
D03*
X237500Y181500D02*
D03*
X214000Y406000D02*
D03*
X92000Y320000D02*
D03*
X308000Y418000D02*
D03*
X199000Y433000D02*
D03*
X192000Y413000D02*
D03*
X80000Y291000D02*
D03*
X78000Y249000D02*
D03*
X80000Y226000D02*
D03*
X82000Y184000D02*
D03*
X119000Y174000D02*
D03*
X104000Y156000D02*
D03*
X94000D02*
D03*
X110000Y251000D02*
D03*
X150000Y271000D02*
D03*
X184000Y288000D02*
D03*
X273000Y349000D02*
D03*
X176000Y209000D02*
D03*
X198000Y210000D02*
D03*
X104000Y146000D02*
D03*
X416000Y66000D02*
D03*
X396000Y256000D02*
D03*
X611000Y77000D02*
D03*
X173000Y415000D02*
D03*
X562000Y421000D02*
D03*
X565000Y411000D02*
D03*
X223000Y482000D02*
D03*
X564000Y390000D02*
D03*
Y398000D02*
D03*
X277000Y493000D02*
D03*
X409000Y490000D02*
D03*
X418000D02*
D03*
Y481000D02*
D03*
X409000D02*
D03*
Y371000D02*
D03*
X418000D02*
D03*
Y380000D02*
D03*
X409000D02*
D03*
X528000Y404000D02*
D03*
X323000D02*
D03*
X549000Y423000D02*
D03*
X323000Y415000D02*
D03*
Y71000D02*
D03*
X290000Y65000D02*
D03*
X115000Y156000D02*
D03*
X307000Y90000D02*
D03*
X564000Y381000D02*
D03*
X147000Y136000D02*
D03*
X43220Y284000D02*
D03*
X220500Y438000D02*
D03*
X117000Y406000D02*
D03*
X126000Y410000D02*
D03*
X424000Y66000D02*
D03*
X611000Y68000D02*
D03*
X273000Y253000D02*
D03*
M02*
