%FSLAX44Y44*%
%MOMM*%
G71*
G01*
G75*
G04 Layer_Color=16711935*
%ADD10R,2.5000X2.6000*%
%ADD11R,2.7000X2.0000*%
%ADD12R,1.6000X3.0000*%
%ADD13R,1.3000X0.7000*%
%ADD14R,0.9000X1.3000*%
%ADD15R,0.7000X1.3000*%
%ADD16R,1.5000X0.5000*%
%ADD17R,0.5000X1.5000*%
%ADD18R,1.3000X0.9000*%
%ADD19R,0.8000X0.8000*%
%ADD20R,0.5588X0.6858*%
%ADD21R,0.6858X0.5588*%
%ADD22C,1.0160*%
%ADD23R,1.4000X1.6000*%
%ADD24R,1.9000X1.9000*%
%ADD25R,1.3500X0.4000*%
%ADD26R,1.0000X0.5500*%
%ADD27R,0.5500X1.0000*%
%ADD28R,0.9000X0.6000*%
%ADD29R,0.6000X2.2000*%
%ADD30R,3.5000X2.2000*%
%ADD31R,2.6000X2.5000*%
%ADD32C,0.2000*%
%ADD33C,0.6000*%
%ADD34C,0.8000*%
%ADD35C,0.5000*%
%ADD36C,0.4000*%
%ADD37C,1.0000*%
%ADD38C,0.9000*%
%ADD39R,1.6000X2.0000*%
%ADD40O,1.6000X2.0000*%
%ADD41R,1.7000X1.7000*%
%ADD42C,1.7000*%
%ADD43O,2.0000X1.6000*%
%ADD44R,2.0000X1.6000*%
G04:AMPARAMS|DCode=45|XSize=2mm|YSize=1.2mm|CornerRadius=0.36mm|HoleSize=0mm|Usage=FLASHONLY|Rotation=0.000|XOffset=0mm|YOffset=0mm|HoleType=Round|Shape=RoundedRectangle|*
%AMROUNDEDRECTD45*
21,1,2.0000,0.4800,0,0,0.0*
21,1,1.2800,1.2000,0,0,0.0*
1,1,0.7200,0.6400,-0.2400*
1,1,0.7200,-0.6400,-0.2400*
1,1,0.7200,-0.6400,0.2400*
1,1,0.7200,0.6400,0.2400*
%
%ADD45ROUNDEDRECTD45*%
%ADD46C,4.0000*%
%ADD47C,7.4000*%
%ADD48C,3.2000*%
%ADD49R,1.9000X1.9000*%
%ADD50C,1.9000*%
%ADD51C,0.6000*%
%ADD52C,0.2540*%
%ADD53C,0.0800*%
%ADD54R,2.7000X2.8000*%
%ADD55R,2.9000X2.2000*%
%ADD56R,1.8000X3.2000*%
%ADD57R,1.5000X0.9000*%
%ADD58R,1.1000X1.5000*%
%ADD59R,0.9000X1.5000*%
%ADD60R,1.6200X0.6200*%
%ADD61R,0.6200X1.6200*%
%ADD62R,1.5000X1.1000*%
%ADD63R,1.0000X1.0000*%
%ADD64R,0.7112X0.8382*%
%ADD65R,0.8382X0.7112*%
%ADD66C,3.0480*%
%ADD67R,1.6000X1.8000*%
%ADD68R,2.1000X2.1000*%
%ADD69R,1.4500X0.5000*%
%ADD70R,1.2000X0.7500*%
%ADD71R,0.7500X1.2000*%
%ADD72R,1.1000X0.8000*%
%ADD73R,0.8000X2.4000*%
%ADD74R,3.7000X2.4000*%
%ADD75R,2.8000X2.7000*%
%ADD76R,1.8000X2.2000*%
%ADD77O,1.8000X2.2000*%
%ADD78O,2.2000X1.8000*%
%ADD79R,2.2000X1.8000*%
G04:AMPARAMS|DCode=80|XSize=2.2mm|YSize=1.4mm|CornerRadius=0.46mm|HoleSize=0mm|Usage=FLASHONLY|Rotation=0.000|XOffset=0mm|YOffset=0mm|HoleType=Round|Shape=RoundedRectangle|*
%AMROUNDEDRECTD80*
21,1,2.2000,0.4800,0,0,0.0*
21,1,1.2800,1.4000,0,0,0.0*
1,1,0.9200,0.6400,-0.2400*
1,1,0.9200,-0.6400,-0.2400*
1,1,0.9200,-0.6400,0.2400*
1,1,0.9200,0.6400,0.2400*
%
%ADD80ROUNDEDRECTD80*%
%ADD81C,4.2000*%
%ADD82C,7.4508*%
%ADD83C,3.2500*%
%ADD84R,2.1000X2.1000*%
%ADD85C,2.1000*%
%ADD86C,0.5080*%
%ADD87C,1.0160*%
%ADD88C,0.1524*%
%ADD89C,0.7000*%
%ADD90C,0.3810*%
D52*
X1075000Y516235D02*
Y501000D01*
X1085157D01*
X1090235Y516235D02*
X1095313D01*
X1092774D01*
Y501000D01*
X1090235D01*
X1095313D01*
X1113088Y513696D02*
X1110548Y516235D01*
X1105470D01*
X1102931Y513696D01*
Y503539D01*
X1105470Y501000D01*
X1110548D01*
X1113088Y503539D01*
X1128323Y516235D02*
X1118166D01*
Y501000D01*
X1128323D01*
X1118166Y508618D02*
X1123244D01*
X1133401Y501000D02*
Y516235D01*
X1143558Y501000D01*
Y516235D01*
X1158793Y513696D02*
X1156254Y516235D01*
X1151175D01*
X1148636Y513696D01*
Y503539D01*
X1151175Y501000D01*
X1156254D01*
X1158793Y503539D01*
X1174028Y516235D02*
X1163871D01*
Y501000D01*
X1174028D01*
X1163871Y508618D02*
X1168950D01*
X1077000Y456000D02*
Y466157D01*
X1082078Y471235D01*
X1087157Y466157D01*
Y456000D01*
Y463618D01*
X1077000D01*
X1092235Y471235D02*
Y458539D01*
X1094774Y456000D01*
X1099853D01*
X1102392Y458539D01*
Y471235D01*
X1107470D02*
X1117627D01*
X1112549D01*
Y456000D01*
X1122705Y471235D02*
Y456000D01*
Y463618D01*
X1132862D01*
Y471235D01*
Y456000D01*
X1145558Y471235D02*
X1140480D01*
X1137940Y468696D01*
Y458539D01*
X1140480Y456000D01*
X1145558D01*
X1148097Y458539D01*
Y468696D01*
X1145558Y471235D01*
X1153175Y456000D02*
Y471235D01*
X1160793D01*
X1163332Y468696D01*
Y463618D01*
X1160793Y461078D01*
X1153175D01*
X1158254D02*
X1163332Y456000D01*
X1168410Y466157D02*
X1170950D01*
Y463618D01*
X1168410D01*
Y466157D01*
Y458539D02*
X1170950D01*
Y456000D01*
X1168410D01*
Y458539D01*
X1206498Y471235D02*
X1196341D01*
Y463618D01*
X1201420D01*
X1196341D01*
Y456000D01*
X1221733Y471235D02*
X1211577D01*
Y456000D01*
X1221733D01*
X1211577Y463618D02*
X1216655D01*
X1226812Y471235D02*
Y456000D01*
X1234429D01*
X1236968Y458539D01*
Y468696D01*
X1234429Y471235D01*
X1226812D01*
X1252203D02*
X1242047D01*
Y456000D01*
X1252203D01*
X1242047Y463618D02*
X1247125D01*
X1257282Y471235D02*
Y461078D01*
X1262360Y456000D01*
X1267438Y461078D01*
Y471235D01*
X1282673D02*
X1272517D01*
Y456000D01*
X1282673D01*
X1272517Y463618D02*
X1277595D01*
X1287752Y471235D02*
Y456000D01*
X1297909D01*
X1328379D02*
X1318222D01*
X1328379Y466157D01*
Y468696D01*
X1325840Y471235D01*
X1320761D01*
X1318222Y468696D01*
X1333457D02*
X1335996Y471235D01*
X1341075D01*
X1343614Y468696D01*
Y458539D01*
X1341075Y456000D01*
X1335996D01*
X1333457Y458539D01*
Y468696D01*
X1348692Y456000D02*
X1353770D01*
X1351231D01*
Y471235D01*
X1348692Y468696D01*
X1371545Y471235D02*
X1361388D01*
Y463618D01*
X1366466Y466157D01*
X1369006D01*
X1371545Y463618D01*
Y458539D01*
X1369006Y456000D01*
X1363927D01*
X1361388Y458539D01*
X1077000Y446235D02*
Y431000D01*
X1082078Y436078D01*
X1087157Y431000D01*
Y446235D01*
X1102392D02*
X1092235D01*
Y431000D01*
X1102392D01*
X1092235Y438618D02*
X1097314D01*
X1107470Y446235D02*
Y431000D01*
X1115088D01*
X1117627Y433539D01*
Y436078D01*
X1115088Y438618D01*
X1107470D01*
X1115088D01*
X1117627Y441157D01*
Y443696D01*
X1115088Y446235D01*
X1107470D01*
X1132862Y443696D02*
X1130323Y446235D01*
X1125244D01*
X1122705Y443696D01*
Y441157D01*
X1125244Y438618D01*
X1130323D01*
X1132862Y436078D01*
Y433539D01*
X1130323Y431000D01*
X1125244D01*
X1122705Y433539D01*
X1137940Y446235D02*
X1143019D01*
X1140480D01*
Y431000D01*
X1137940D01*
X1143019D01*
X1150636Y446235D02*
X1160793D01*
X1155715D01*
Y431000D01*
X1176028Y446235D02*
X1165871D01*
Y431000D01*
X1176028D01*
X1165871Y438618D02*
X1170950D01*
X1181106Y441157D02*
X1183645D01*
Y438618D01*
X1181106D01*
Y441157D01*
Y433539D02*
X1183645D01*
Y431000D01*
X1181106D01*
Y433539D01*
X1209037Y446235D02*
Y431000D01*
Y438618D01*
X1211577Y441157D01*
X1216655D01*
X1219194Y438618D01*
Y431000D01*
X1226812Y443696D02*
Y441157D01*
X1224272D01*
X1229351D01*
X1226812D01*
Y433539D01*
X1229351Y431000D01*
X1239508Y443696D02*
Y441157D01*
X1236968D01*
X1242047D01*
X1239508D01*
Y433539D01*
X1242047Y431000D01*
X1249664Y425922D02*
Y441157D01*
X1257282D01*
X1259821Y438618D01*
Y433539D01*
X1257282Y431000D01*
X1249664D01*
X1264899Y441157D02*
X1267438D01*
Y438618D01*
X1264899D01*
Y441157D01*
Y433539D02*
X1267438D01*
Y431000D01*
X1264899D01*
Y433539D01*
X1277595Y431000D02*
X1287752Y441157D01*
X1292830Y431000D02*
X1302987Y441157D01*
X1308065D02*
Y433539D01*
X1310604Y431000D01*
X1313144Y433539D01*
X1315683Y431000D01*
X1318222Y433539D01*
Y441157D01*
X1323300D02*
Y433539D01*
X1325840Y431000D01*
X1328379Y433539D01*
X1330918Y431000D01*
X1333457Y433539D01*
Y441157D01*
X1338535D02*
Y433539D01*
X1341075Y431000D01*
X1343614Y433539D01*
X1346153Y431000D01*
X1348692Y433539D01*
Y441157D01*
X1353770Y431000D02*
Y433539D01*
X1356310D01*
Y431000D01*
X1353770D01*
X1376623D02*
X1366466D01*
X1376623Y441157D01*
Y443696D01*
X1374084Y446235D01*
X1369005D01*
X1366466Y443696D01*
X1381701D02*
X1384241Y446235D01*
X1389319D01*
X1391858Y443696D01*
Y441157D01*
X1389319Y438618D01*
X1391858Y436078D01*
Y433539D01*
X1389319Y431000D01*
X1384241D01*
X1381701Y433539D01*
Y436078D01*
X1384241Y438618D01*
X1381701Y441157D01*
Y443696D01*
X1384241Y438618D02*
X1389319D01*
X1396936Y425922D02*
Y441157D01*
X1404554D01*
X1407093Y438618D01*
Y433539D01*
X1404554Y431000D01*
X1396936D01*
X1412172D02*
X1417250D01*
X1414711D01*
Y441157D01*
X1412172D01*
X1424868Y431000D02*
Y441157D01*
X1432485D01*
X1435024Y438618D01*
Y431000D01*
X1440103D02*
X1447720D01*
X1450259Y433539D01*
X1447720Y436078D01*
X1442642D01*
X1440103Y438618D01*
X1442642Y441157D01*
X1450259D01*
X1455338Y431000D02*
Y433539D01*
X1457877D01*
Y431000D01*
X1455338D01*
X1478190Y441157D02*
X1470573D01*
X1468033Y438618D01*
Y433539D01*
X1470573Y431000D01*
X1478190D01*
X1485808D02*
X1490886D01*
X1493425Y433539D01*
Y438618D01*
X1490886Y441157D01*
X1485808D01*
X1483269Y438618D01*
Y433539D01*
X1485808Y431000D01*
X1498504D02*
Y441157D01*
X1501043D01*
X1503582Y438618D01*
Y431000D01*
Y438618D01*
X1506121Y441157D01*
X1508660Y438618D01*
Y431000D01*
X1077000Y396235D02*
X1087157D01*
X1082078D01*
Y381000D01*
X1092235Y396235D02*
Y381000D01*
Y388618D01*
X1094774Y391157D01*
X1099853D01*
X1102392Y388618D01*
Y381000D01*
X1107470D02*
X1112549D01*
X1110009D01*
Y391157D01*
X1107470D01*
X1120166Y381000D02*
X1127784D01*
X1130323Y383539D01*
X1127784Y386078D01*
X1122705D01*
X1120166Y388618D01*
X1122705Y391157D01*
X1130323D01*
X1150636Y381000D02*
X1155715D01*
X1153175D01*
Y391157D01*
X1150636D01*
X1163332Y381000D02*
X1170950D01*
X1173489Y383539D01*
X1170950Y386078D01*
X1165871D01*
X1163332Y388618D01*
X1165871Y391157D01*
X1173489D01*
X1196341D02*
X1201420D01*
X1203959Y388618D01*
Y381000D01*
X1196341D01*
X1193802Y383539D01*
X1196341Y386078D01*
X1203959D01*
X1224272Y396235D02*
Y381000D01*
Y388618D01*
X1226812Y391157D01*
X1231890D01*
X1234429Y388618D01*
Y381000D01*
X1239508Y391157D02*
Y383539D01*
X1242047Y381000D01*
X1249664D01*
Y391157D01*
X1254743Y381000D02*
Y391157D01*
X1257282D01*
X1259821Y388618D01*
Y381000D01*
Y388618D01*
X1262360Y391157D01*
X1264899Y388618D01*
Y381000D01*
X1272517Y391157D02*
X1277595D01*
X1280134Y388618D01*
Y381000D01*
X1272517D01*
X1269978Y383539D01*
X1272517Y386078D01*
X1280134D01*
X1285213Y381000D02*
Y391157D01*
X1292830D01*
X1295369Y388618D01*
Y381000D01*
X1300448Y388618D02*
X1310605D01*
X1315683Y391157D02*
Y381000D01*
Y386078D01*
X1318222Y388618D01*
X1320761Y391157D01*
X1323300D01*
X1338535Y381000D02*
X1333457D01*
X1330918Y383539D01*
Y388618D01*
X1333457Y391157D01*
X1338535D01*
X1341075Y388618D01*
Y386078D01*
X1330918D01*
X1348692Y391157D02*
X1353770D01*
X1356310Y388618D01*
Y381000D01*
X1348692D01*
X1346153Y383539D01*
X1348692Y386078D01*
X1356310D01*
X1371545Y396235D02*
Y381000D01*
X1363927D01*
X1361388Y383539D01*
Y388618D01*
X1363927Y391157D01*
X1371545D01*
X1379162D02*
X1384241D01*
X1386780Y388618D01*
Y381000D01*
X1379162D01*
X1376623Y383539D01*
X1379162Y386078D01*
X1386780D01*
X1391858Y396235D02*
Y381000D01*
X1399476D01*
X1402015Y383539D01*
Y386078D01*
Y388618D01*
X1399476Y391157D01*
X1391858D01*
X1407093Y381000D02*
X1412172D01*
X1409632D01*
Y396235D01*
X1407093D01*
X1427407Y381000D02*
X1422328D01*
X1419789Y383539D01*
Y388618D01*
X1422328Y391157D01*
X1427407D01*
X1429946Y388618D01*
Y386078D01*
X1419789D01*
X1450259Y381000D02*
X1457877D01*
X1460416Y383539D01*
X1457877Y386078D01*
X1452798D01*
X1450259Y388618D01*
X1452798Y391157D01*
X1460416D01*
X1465494D02*
Y383539D01*
X1468033Y381000D01*
X1475651D01*
Y391157D01*
X1480729Y381000D02*
Y391157D01*
X1483269D01*
X1485808Y388618D01*
Y381000D01*
Y388618D01*
X1488347Y391157D01*
X1490886Y388618D01*
Y381000D01*
X1495965D02*
Y391157D01*
X1498504D01*
X1501043Y388618D01*
Y381000D01*
Y388618D01*
X1503582Y391157D01*
X1506121Y388618D01*
Y381000D01*
X1513739Y391157D02*
X1518817D01*
X1521356Y388618D01*
Y381000D01*
X1513739D01*
X1511200Y383539D01*
X1513739Y386078D01*
X1521356D01*
X1526435Y391157D02*
Y381000D01*
Y386078D01*
X1528974Y388618D01*
X1531513Y391157D01*
X1534052D01*
X1541670D02*
Y383539D01*
X1544209Y381000D01*
X1551826D01*
Y378461D01*
X1549287Y375922D01*
X1546748D01*
X1551826Y381000D02*
Y391157D01*
X1574679Y381000D02*
X1579757D01*
X1582297Y383539D01*
Y388618D01*
X1579757Y391157D01*
X1574679D01*
X1572140Y388618D01*
Y383539D01*
X1574679Y381000D01*
X1589914D02*
Y393696D01*
Y388618D01*
X1587375D01*
X1592453D01*
X1589914D01*
Y393696D01*
X1592453Y396235D01*
X1617845Y393696D02*
Y391157D01*
X1615306D01*
X1620384D01*
X1617845D01*
Y383539D01*
X1620384Y381000D01*
X1628002Y396235D02*
Y381000D01*
Y388618D01*
X1630541Y391157D01*
X1635619D01*
X1638159Y388618D01*
Y381000D01*
X1650854D02*
X1645776D01*
X1643237Y383539D01*
Y388618D01*
X1645776Y391157D01*
X1650854D01*
X1653394Y388618D01*
Y386078D01*
X1643237D01*
X1673707Y381000D02*
X1678785D01*
X1676246D01*
Y396235D01*
X1673707D01*
X1686403Y381000D02*
X1691481D01*
X1688942D01*
Y391157D01*
X1686403D01*
X1709256D02*
X1701638D01*
X1699099Y388618D01*
Y383539D01*
X1701638Y381000D01*
X1709256D01*
X1721951D02*
X1716873D01*
X1714334Y383539D01*
Y388618D01*
X1716873Y391157D01*
X1721951D01*
X1724491Y388618D01*
Y386078D01*
X1714334D01*
X1729569Y381000D02*
Y391157D01*
X1737186D01*
X1739726Y388618D01*
Y381000D01*
X1754961Y391157D02*
X1747343D01*
X1744804Y388618D01*
Y383539D01*
X1747343Y381000D01*
X1754961D01*
X1767657D02*
X1762578D01*
X1760039Y383539D01*
Y388618D01*
X1762578Y391157D01*
X1767657D01*
X1770196Y388618D01*
Y386078D01*
X1760039D01*
X1775274Y381000D02*
Y383539D01*
X1777813D01*
Y381000D01*
X1775274D01*
X1803205D02*
Y396235D01*
X1810823D01*
X1813362Y393696D01*
Y388618D01*
X1810823Y386078D01*
X1803205D01*
X1808283D02*
X1813362Y381000D01*
X1826058D02*
X1820979D01*
X1818440Y383539D01*
Y388618D01*
X1820979Y391157D01*
X1826058D01*
X1828597Y388618D01*
Y386078D01*
X1818440D01*
X1836214Y391157D02*
X1841293D01*
X1843832Y388618D01*
Y381000D01*
X1836214D01*
X1833675Y383539D01*
X1836214Y386078D01*
X1843832D01*
X1859067Y396235D02*
Y381000D01*
X1851449D01*
X1848910Y383539D01*
Y388618D01*
X1851449Y391157D01*
X1859067D01*
X1881920Y381000D02*
Y393696D01*
Y388618D01*
X1879380D01*
X1884459D01*
X1881920D01*
Y393696D01*
X1884459Y396235D01*
X1892076Y391157D02*
Y383539D01*
X1894615Y381000D01*
X1902233D01*
Y391157D01*
X1907311Y381000D02*
X1912390D01*
X1909851D01*
Y396235D01*
X1907311D01*
X1920007Y381000D02*
X1925086D01*
X1922547D01*
Y396235D01*
X1920007D01*
X1947938Y381000D02*
X1953017D01*
X1950477D01*
Y396235D01*
X1947938D01*
X1960634Y381000D02*
X1965712D01*
X1963173D01*
Y391157D01*
X1960634D01*
X1983487D02*
X1975869D01*
X1973330Y388618D01*
Y383539D01*
X1975869Y381000D01*
X1983487D01*
X1996183D02*
X1991104D01*
X1988565Y383539D01*
Y388618D01*
X1991104Y391157D01*
X1996183D01*
X1998722Y388618D01*
Y386078D01*
X1988565D01*
X2003800Y381000D02*
Y391157D01*
X2011418D01*
X2013957Y388618D01*
Y381000D01*
X2029192Y391157D02*
X2021574D01*
X2019035Y388618D01*
Y383539D01*
X2021574Y381000D01*
X2029192D01*
X2041888D02*
X2036810D01*
X2034270Y383539D01*
Y388618D01*
X2036810Y391157D01*
X2041888D01*
X2044427Y388618D01*
Y386078D01*
X2034270D01*
X2067280Y391157D02*
X2072358D01*
X2074897Y388618D01*
Y381000D01*
X2067280D01*
X2064740Y383539D01*
X2067280Y386078D01*
X2074897D01*
X2082515Y393696D02*
Y391157D01*
X2079975D01*
X2085054D01*
X2082515D01*
Y383539D01*
X2085054Y381000D01*
X2092671Y391157D02*
X2095211D01*
Y388618D01*
X2092671D01*
Y391157D01*
Y383539D02*
X2095211D01*
Y381000D01*
X2092671D01*
Y383539D01*
X1077000Y371235D02*
Y356000D01*
Y363618D01*
X1079539Y366157D01*
X1084618D01*
X1087157Y363618D01*
Y356000D01*
X1094774Y368696D02*
Y366157D01*
X1092235D01*
X1097314D01*
X1094774D01*
Y358539D01*
X1097314Y356000D01*
X1107470Y368696D02*
Y366157D01*
X1104931D01*
X1110009D01*
X1107470D01*
Y358539D01*
X1110009Y356000D01*
X1117627Y350922D02*
Y366157D01*
X1125244D01*
X1127784Y363618D01*
Y358539D01*
X1125244Y356000D01*
X1117627D01*
X1132862D02*
X1140480D01*
X1143019Y358539D01*
X1140480Y361078D01*
X1135401D01*
X1132862Y363618D01*
X1135401Y366157D01*
X1143019D01*
X1148097D02*
X1150636D01*
Y363618D01*
X1148097D01*
Y366157D01*
Y358539D02*
X1150636D01*
Y356000D01*
X1148097D01*
Y358539D01*
X1160793Y356000D02*
X1170950Y366157D01*
X1176028Y356000D02*
X1186185Y366157D01*
X1201420D02*
X1193802D01*
X1191263Y363618D01*
Y358539D01*
X1193802Y356000D01*
X1201420D01*
X1206498Y366157D02*
Y356000D01*
Y361078D01*
X1209037Y363618D01*
X1211577Y366157D01*
X1214116D01*
X1229351Y356000D02*
X1224272D01*
X1221733Y358539D01*
Y363618D01*
X1224272Y366157D01*
X1229351D01*
X1231890Y363618D01*
Y361078D01*
X1221733D01*
X1239508Y366157D02*
X1244586D01*
X1247125Y363618D01*
Y356000D01*
X1239508D01*
X1236968Y358539D01*
X1239508Y361078D01*
X1247125D01*
X1254743Y368696D02*
Y366157D01*
X1252203D01*
X1257282D01*
X1254743D01*
Y358539D01*
X1257282Y356000D01*
X1264899D02*
X1269978D01*
X1267438D01*
Y366157D01*
X1264899D01*
X1277595D02*
X1282673Y356000D01*
X1287752Y366157D01*
X1300448Y356000D02*
X1295369D01*
X1292830Y358539D01*
Y363618D01*
X1295369Y366157D01*
X1300448D01*
X1302987Y363618D01*
Y361078D01*
X1292830D01*
X1318222Y366157D02*
X1310604D01*
X1308065Y363618D01*
Y358539D01*
X1310604Y356000D01*
X1318222D01*
X1325840D02*
X1330918D01*
X1333457Y358539D01*
Y363618D01*
X1330918Y366157D01*
X1325840D01*
X1323300Y363618D01*
Y358539D01*
X1325840Y356000D01*
X1338535D02*
Y366157D01*
X1341075D01*
X1343614Y363618D01*
Y356000D01*
Y363618D01*
X1346153Y366157D01*
X1348692Y363618D01*
Y356000D01*
X1353770D02*
Y366157D01*
X1356310D01*
X1358849Y363618D01*
Y356000D01*
Y363618D01*
X1361388Y366157D01*
X1363927Y363618D01*
Y356000D01*
X1371545D02*
X1376623D01*
X1379162Y358539D01*
Y363618D01*
X1376623Y366157D01*
X1371545D01*
X1369005Y363618D01*
Y358539D01*
X1371545Y356000D01*
X1384241D02*
Y366157D01*
X1391858D01*
X1394397Y363618D01*
Y356000D01*
X1399476D02*
X1407093D01*
X1409632Y358539D01*
X1407093Y361078D01*
X1402015D01*
X1399476Y363618D01*
X1402015Y366157D01*
X1409632D01*
X1414711Y356000D02*
Y358539D01*
X1417250D01*
Y356000D01*
X1414711D01*
X1429946D02*
X1435024D01*
X1437563Y358539D01*
Y363618D01*
X1435024Y366157D01*
X1429946D01*
X1427407Y363618D01*
Y358539D01*
X1429946Y356000D01*
X1442642Y366157D02*
Y356000D01*
Y361078D01*
X1445181Y363618D01*
X1447720Y366157D01*
X1450259D01*
X1462955Y350922D02*
X1465494D01*
X1468033Y353461D01*
Y366157D01*
X1460416D01*
X1457877Y363618D01*
Y358539D01*
X1460416Y356000D01*
X1468033D01*
X1473112D02*
X1483269Y366157D01*
X1488347Y356000D02*
X1493425D01*
X1490886D01*
Y371235D01*
X1488347D01*
X1501043Y356000D02*
X1506121D01*
X1503582D01*
Y366157D01*
X1501043D01*
X1523895D02*
X1516278D01*
X1513739Y363618D01*
Y358539D01*
X1516278Y356000D01*
X1523895D01*
X1536591D02*
X1531513D01*
X1528974Y358539D01*
Y363618D01*
X1531513Y366157D01*
X1536591D01*
X1539131Y363618D01*
Y361078D01*
X1528974D01*
X1544209Y356000D02*
Y366157D01*
X1551826D01*
X1554366Y363618D01*
Y356000D01*
X1559444D02*
X1567061D01*
X1569601Y358539D01*
X1567061Y361078D01*
X1561983D01*
X1559444Y363618D01*
X1561983Y366157D01*
X1569601D01*
X1582296Y356000D02*
X1577218D01*
X1574679Y358539D01*
Y363618D01*
X1577218Y366157D01*
X1582296D01*
X1584836Y363618D01*
Y361078D01*
X1574679D01*
X1589914Y356000D02*
X1597532D01*
X1600071Y358539D01*
X1597532Y361078D01*
X1592453D01*
X1589914Y363618D01*
X1592453Y366157D01*
X1600071D01*
X1605149Y356000D02*
X1615306Y366157D01*
X1620384Y371235D02*
Y356000D01*
X1628002D01*
X1630541Y358539D01*
Y361078D01*
Y363618D01*
X1628002Y366157D01*
X1620384D01*
X1635619D02*
Y358539D01*
X1638159Y356000D01*
X1645776D01*
Y353461D01*
X1643237Y350922D01*
X1640698D01*
X1645776Y356000D02*
Y366157D01*
X1650854Y363618D02*
X1661011D01*
X1666089Y356000D02*
X1673707D01*
X1676246Y358539D01*
X1673707Y361078D01*
X1668629D01*
X1666089Y363618D01*
X1668629Y366157D01*
X1676246D01*
X1683864D02*
X1688942D01*
X1691481Y363618D01*
Y356000D01*
X1683864D01*
X1681324Y358539D01*
X1683864Y361078D01*
X1691481D01*
X1696560Y356000D02*
X1706716Y366157D01*
X1711795Y368696D02*
X1714334Y371235D01*
X1719412D01*
X1721951Y368696D01*
Y366157D01*
X1719412Y363618D01*
X1716873D01*
X1719412D01*
X1721951Y361078D01*
Y358539D01*
X1719412Y356000D01*
X1714334D01*
X1711795Y358539D01*
X1727030Y356000D02*
Y358539D01*
X1729569D01*
Y356000D01*
X1727030D01*
X1739726Y368696D02*
X1742265Y371235D01*
X1747343D01*
X1749882Y368696D01*
Y358539D01*
X1747343Y356000D01*
X1742265D01*
X1739726Y358539D01*
Y368696D01*
X1754961Y356000D02*
X1765117Y366157D01*
X1770196Y356000D02*
X1775274D01*
X1772735D01*
Y371235D01*
X1770196D01*
X1790509Y356000D02*
X1785431D01*
X1782892Y358539D01*
Y363618D01*
X1785431Y366157D01*
X1790509D01*
X1793048Y363618D01*
Y361078D01*
X1782892D01*
X1803205Y350922D02*
X1805744D01*
X1808283Y353461D01*
Y366157D01*
X1800666D01*
X1798127Y363618D01*
Y358539D01*
X1800666Y356000D01*
X1808283D01*
X1815901Y366157D02*
X1820979D01*
X1823519Y363618D01*
Y356000D01*
X1815901D01*
X1813362Y358539D01*
X1815901Y361078D01*
X1823519D01*
X1828597Y356000D02*
X1833675D01*
X1831136D01*
Y371235D01*
X1828597D01*
X1851449Y366157D02*
X1843832D01*
X1841293Y363618D01*
Y358539D01*
X1843832Y356000D01*
X1851449D01*
X1859067D02*
X1864145D01*
X1866685Y358539D01*
Y363618D01*
X1864145Y366157D01*
X1859067D01*
X1856528Y363618D01*
Y358539D01*
X1859067Y356000D01*
X1881920Y371235D02*
Y356000D01*
X1874302D01*
X1871763Y358539D01*
Y363618D01*
X1874302Y366157D01*
X1881920D01*
X1894615Y356000D02*
X1889537D01*
X1886998Y358539D01*
Y363618D01*
X1889537Y366157D01*
X1894615D01*
X1897155Y363618D01*
Y361078D01*
X1886998D01*
X1087157Y293696D02*
X1084618Y296235D01*
X1079539D01*
X1077000Y293696D01*
Y291157D01*
X1079539Y288617D01*
X1084618D01*
X1087157Y286078D01*
Y283539D01*
X1084618Y281000D01*
X1079539D01*
X1077000Y283539D01*
X1092235Y296235D02*
Y281000D01*
Y288617D01*
X1094774Y291157D01*
X1099853D01*
X1102392Y288617D01*
Y281000D01*
X1110009Y291157D02*
X1115088D01*
X1117627Y288617D01*
Y281000D01*
X1110009D01*
X1107470Y283539D01*
X1110009Y286078D01*
X1117627D01*
X1122705Y291157D02*
Y281000D01*
Y286078D01*
X1125244Y288617D01*
X1127784Y291157D01*
X1130323D01*
X1145558Y281000D02*
X1140480D01*
X1137940Y283539D01*
Y288617D01*
X1140480Y291157D01*
X1145558D01*
X1148097Y288617D01*
Y286078D01*
X1137940D01*
X1168410Y288617D02*
X1178567D01*
X1209037Y291157D02*
X1201420D01*
X1198881Y288617D01*
Y283539D01*
X1201420Y281000D01*
X1209037D01*
X1216655D02*
X1221733D01*
X1224272Y283539D01*
Y288617D01*
X1221733Y291157D01*
X1216655D01*
X1214116Y288617D01*
Y283539D01*
X1216655Y281000D01*
X1229351Y275922D02*
Y291157D01*
X1236968D01*
X1239508Y288617D01*
Y283539D01*
X1236968Y281000D01*
X1229351D01*
X1244586Y291157D02*
Y283539D01*
X1247125Y281000D01*
X1254743D01*
Y278461D01*
X1252203Y275922D01*
X1249664D01*
X1254743Y281000D02*
Y291157D01*
X1277595D02*
X1282673D01*
X1285213Y288617D01*
Y281000D01*
X1277595D01*
X1275056Y283539D01*
X1277595Y286078D01*
X1285213D01*
X1290291Y281000D02*
Y291157D01*
X1297909D01*
X1300448Y288617D01*
Y281000D01*
X1315683Y296235D02*
Y281000D01*
X1308065D01*
X1305526Y283539D01*
Y288617D01*
X1308065Y291157D01*
X1315683D01*
X1335996D02*
Y281000D01*
Y286078D01*
X1338535Y288617D01*
X1341075Y291157D01*
X1343614D01*
X1358849Y281000D02*
X1353770D01*
X1351231Y283539D01*
Y288617D01*
X1353770Y291157D01*
X1358849D01*
X1361388Y288617D01*
Y286078D01*
X1351231D01*
X1376623Y296235D02*
Y281000D01*
X1369006D01*
X1366466Y283539D01*
Y288617D01*
X1369006Y291157D01*
X1376623D01*
X1381702Y281000D02*
X1386780D01*
X1384241D01*
Y291157D01*
X1381702D01*
X1394397Y281000D02*
X1402015D01*
X1404554Y283539D01*
X1402015Y286078D01*
X1396937D01*
X1394397Y288617D01*
X1396937Y291157D01*
X1404554D01*
X1412172Y293696D02*
Y291157D01*
X1409632D01*
X1414711D01*
X1412172D01*
Y283539D01*
X1414711Y281000D01*
X1422328Y291157D02*
Y281000D01*
Y286078D01*
X1424868Y288617D01*
X1427407Y291157D01*
X1429946D01*
X1437563Y281000D02*
X1442642D01*
X1440103D01*
Y291157D01*
X1437563D01*
X1450259Y296235D02*
Y281000D01*
X1457877D01*
X1460416Y283539D01*
Y286078D01*
Y288617D01*
X1457877Y291157D01*
X1450259D01*
X1465494D02*
Y283539D01*
X1468033Y281000D01*
X1475651D01*
Y291157D01*
X1483269Y293696D02*
Y291157D01*
X1480729D01*
X1485808D01*
X1483269D01*
Y283539D01*
X1485808Y281000D01*
X1501043D02*
X1495965D01*
X1493425Y283539D01*
Y288617D01*
X1495965Y291157D01*
X1501043D01*
X1503582Y288617D01*
Y286078D01*
X1493425D01*
X1526435Y293696D02*
Y291157D01*
X1523896D01*
X1528974D01*
X1526435D01*
Y283539D01*
X1528974Y281000D01*
X1536591Y296235D02*
Y281000D01*
Y288617D01*
X1539131Y291157D01*
X1544209D01*
X1546748Y288617D01*
Y281000D01*
X1559444D02*
X1554366D01*
X1551826Y283539D01*
Y288617D01*
X1554366Y291157D01*
X1559444D01*
X1561983Y288617D01*
Y286078D01*
X1551826D01*
X1582297Y281000D02*
Y291157D01*
X1584836D01*
X1587375Y288617D01*
Y281000D01*
Y288617D01*
X1589914Y291157D01*
X1592453Y288617D01*
Y281000D01*
X1600071Y291157D02*
X1605149D01*
X1607688Y288617D01*
Y281000D01*
X1600071D01*
X1597532Y283539D01*
X1600071Y286078D01*
X1607688D01*
X1615306Y293696D02*
Y291157D01*
X1612767D01*
X1617845D01*
X1615306D01*
Y283539D01*
X1617845Y281000D01*
X1633080D02*
X1628002D01*
X1625463Y283539D01*
Y288617D01*
X1628002Y291157D01*
X1633080D01*
X1635619Y288617D01*
Y286078D01*
X1625463D01*
X1640698Y291157D02*
Y281000D01*
Y286078D01*
X1643237Y288617D01*
X1645776Y291157D01*
X1648315D01*
X1655933Y281000D02*
X1661011D01*
X1658472D01*
Y291157D01*
X1655933D01*
X1671168D02*
X1676246D01*
X1678785Y288617D01*
Y281000D01*
X1671168D01*
X1668629Y283539D01*
X1671168Y286078D01*
X1678785D01*
X1683864Y281000D02*
X1688942D01*
X1686403D01*
Y296235D01*
X1683864D01*
X1711795Y281000D02*
X1716873D01*
X1714334D01*
Y291157D01*
X1711795D01*
X1724491Y281000D02*
Y291157D01*
X1732108D01*
X1734647Y288617D01*
Y281000D01*
X1757500Y291157D02*
X1762578D01*
X1765117Y288617D01*
Y281000D01*
X1757500D01*
X1754961Y283539D01*
X1757500Y286078D01*
X1765117D01*
X1770196Y281000D02*
Y291157D01*
X1777813D01*
X1780352Y288617D01*
Y281000D01*
X1785431Y291157D02*
Y283539D01*
X1787970Y281000D01*
X1795587D01*
Y278461D01*
X1793048Y275922D01*
X1790509D01*
X1795587Y281000D02*
Y291157D01*
X1815901Y281000D02*
Y291157D01*
X1818440D01*
X1820979Y288617D01*
Y281000D01*
Y288617D01*
X1823519Y291157D01*
X1826058Y288617D01*
Y281000D01*
X1838754D02*
X1833675D01*
X1831136Y283539D01*
Y288617D01*
X1833675Y291157D01*
X1838754D01*
X1841293Y288617D01*
Y286078D01*
X1831136D01*
X1856528Y296235D02*
Y281000D01*
X1848910D01*
X1846371Y283539D01*
Y288617D01*
X1848910Y291157D01*
X1856528D01*
X1861606Y281000D02*
X1866685D01*
X1864145D01*
Y291157D01*
X1861606D01*
X1874302D02*
Y283539D01*
X1876841Y281000D01*
X1884459D01*
Y291157D01*
X1889537Y281000D02*
Y291157D01*
X1892076D01*
X1894615Y288617D01*
Y281000D01*
Y288617D01*
X1897155Y291157D01*
X1899694Y288617D01*
Y281000D01*
X1922547D02*
X1927625D01*
X1930164Y283539D01*
Y288617D01*
X1927625Y291157D01*
X1922547D01*
X1920007Y288617D01*
Y283539D01*
X1922547Y281000D01*
X1935242Y291157D02*
Y281000D01*
Y286078D01*
X1937782Y288617D01*
X1940321Y291157D01*
X1942860D01*
X1968252Y281000D02*
Y293696D01*
Y288617D01*
X1965712D01*
X1970791D01*
X1968252D01*
Y293696D01*
X1970791Y296235D01*
X1980948Y281000D02*
X1986026D01*
X1988565Y283539D01*
Y288617D01*
X1986026Y291157D01*
X1980948D01*
X1978408Y288617D01*
Y283539D01*
X1980948Y281000D01*
X1993643Y291157D02*
Y281000D01*
Y286078D01*
X1996183Y288617D01*
X1998722Y291157D01*
X2001261D01*
X2008878Y281000D02*
Y291157D01*
X2011418D01*
X2013957Y288617D01*
Y281000D01*
Y288617D01*
X2016496Y291157D01*
X2019035Y288617D01*
Y281000D01*
X2026653Y291157D02*
X2031731D01*
X2034270Y288617D01*
Y281000D01*
X2026653D01*
X2024114Y283539D01*
X2026653Y286078D01*
X2034270D01*
X2041888Y293696D02*
Y291157D01*
X2039349D01*
X2044427D01*
X2041888D01*
Y283539D01*
X2044427Y281000D01*
X1077000Y256000D02*
Y266157D01*
X1082078Y271235D01*
X1087157Y266157D01*
Y256000D01*
Y263617D01*
X1077000D01*
X1102392Y271235D02*
Y256000D01*
X1094774D01*
X1092235Y258539D01*
Y263617D01*
X1094774Y266157D01*
X1102392D01*
X1110009D02*
X1115088D01*
X1117627Y263617D01*
Y256000D01*
X1110009D01*
X1107470Y258539D01*
X1110009Y261078D01*
X1117627D01*
X1122705Y250922D02*
Y266157D01*
X1130323D01*
X1132862Y263617D01*
Y258539D01*
X1130323Y256000D01*
X1122705D01*
X1140480Y268696D02*
Y266157D01*
X1137940D01*
X1143019D01*
X1140480D01*
Y258539D01*
X1143019Y256000D01*
X1165871Y263617D02*
X1176028D01*
X1196341Y266157D02*
Y256000D01*
Y261078D01*
X1198881Y263617D01*
X1201420Y266157D01*
X1203959D01*
X1219194Y256000D02*
X1214116D01*
X1211577Y258539D01*
Y263617D01*
X1214116Y266157D01*
X1219194D01*
X1221733Y263617D01*
Y261078D01*
X1211577D01*
X1226812Y256000D02*
Y266157D01*
X1229351D01*
X1231890Y263617D01*
Y256000D01*
Y263617D01*
X1234429Y266157D01*
X1236968Y263617D01*
Y256000D01*
X1242047D02*
X1247125D01*
X1244586D01*
Y266157D01*
X1242047D01*
X1254743D02*
X1264899Y256000D01*
X1259821Y261078D01*
X1264899Y266157D01*
X1254743Y256000D01*
X1272517Y253461D02*
X1275056Y256000D01*
Y258539D01*
X1272517D01*
Y256000D01*
X1275056D01*
X1272517Y253461D01*
X1269978Y250922D01*
X1302987Y268696D02*
Y266157D01*
X1300448D01*
X1305526D01*
X1302987D01*
Y258539D01*
X1305526Y256000D01*
X1313144Y266157D02*
Y256000D01*
Y261078D01*
X1315683Y263617D01*
X1318222Y266157D01*
X1320761D01*
X1330918D02*
X1335996D01*
X1338535Y263617D01*
Y256000D01*
X1330918D01*
X1328379Y258539D01*
X1330918Y261078D01*
X1338535D01*
X1343614Y256000D02*
Y266157D01*
X1351231D01*
X1353770Y263617D01*
Y256000D01*
X1358849D02*
X1366466D01*
X1369006Y258539D01*
X1366466Y261078D01*
X1361388D01*
X1358849Y263617D01*
X1361388Y266157D01*
X1369006D01*
X1376623Y256000D02*
Y268696D01*
Y263617D01*
X1374084D01*
X1379162D01*
X1376623D01*
Y268696D01*
X1379162Y271235D01*
X1389319Y256000D02*
X1394397D01*
X1396936Y258539D01*
Y263617D01*
X1394397Y266157D01*
X1389319D01*
X1386780Y263617D01*
Y258539D01*
X1389319Y256000D01*
X1402015Y266157D02*
Y256000D01*
Y261078D01*
X1404554Y263617D01*
X1407093Y266157D01*
X1409632D01*
X1417250Y256000D02*
Y266157D01*
X1419789D01*
X1422328Y263617D01*
Y256000D01*
Y263617D01*
X1424868Y266157D01*
X1427407Y263617D01*
Y256000D01*
X1435024Y253461D02*
X1437563Y256000D01*
Y258539D01*
X1435024D01*
Y256000D01*
X1437563D01*
X1435024Y253461D01*
X1432485Y250922D01*
X1465494Y266157D02*
X1470573D01*
X1473112Y263617D01*
Y256000D01*
X1465494D01*
X1462955Y258539D01*
X1465494Y261078D01*
X1473112D01*
X1478190Y256000D02*
Y266157D01*
X1485808D01*
X1488347Y263617D01*
Y256000D01*
X1503582Y271235D02*
Y256000D01*
X1495965D01*
X1493425Y258539D01*
Y263617D01*
X1495965Y266157D01*
X1503582D01*
X1523896Y271235D02*
Y256000D01*
X1531513D01*
X1534052Y258539D01*
Y261078D01*
Y263617D01*
X1531513Y266157D01*
X1523896D01*
X1539131D02*
Y258539D01*
X1541670Y256000D01*
X1549287D01*
Y266157D01*
X1554366Y256000D02*
X1559444D01*
X1556905D01*
Y266157D01*
X1554366D01*
X1567061Y256000D02*
X1572140D01*
X1569601D01*
Y271235D01*
X1567061D01*
X1589914D02*
Y256000D01*
X1582297D01*
X1579757Y258539D01*
Y263617D01*
X1582297Y266157D01*
X1589914D01*
X1610228D02*
Y258539D01*
X1612767Y256000D01*
X1620384D01*
Y266157D01*
X1625463Y250922D02*
Y266157D01*
X1633080D01*
X1635619Y263617D01*
Y258539D01*
X1633080Y256000D01*
X1625463D01*
X1643237D02*
X1648315D01*
X1650854Y258539D01*
Y263617D01*
X1648315Y266157D01*
X1643237D01*
X1640698Y263617D01*
Y258539D01*
X1643237Y256000D01*
X1655933D02*
Y266157D01*
X1663550D01*
X1666089Y263617D01*
Y256000D01*
X1688942Y268696D02*
Y266157D01*
X1686403D01*
X1691481D01*
X1688942D01*
Y258539D01*
X1691481Y256000D01*
X1699099Y271235D02*
Y256000D01*
Y263617D01*
X1701638Y266157D01*
X1706716D01*
X1709256Y263617D01*
Y256000D01*
X1721951D02*
X1716873D01*
X1714334Y258539D01*
Y263617D01*
X1716873Y266157D01*
X1721951D01*
X1724491Y263617D01*
Y261078D01*
X1714334D01*
X1744804Y256000D02*
Y266157D01*
X1747343D01*
X1749882Y263617D01*
Y256000D01*
Y263617D01*
X1752422Y266157D01*
X1754961Y263617D01*
Y256000D01*
X1762578Y266157D02*
X1767657D01*
X1770196Y263617D01*
Y256000D01*
X1762578D01*
X1760039Y258539D01*
X1762578Y261078D01*
X1770196D01*
X1777813Y268696D02*
Y266157D01*
X1775274D01*
X1780352D01*
X1777813D01*
Y258539D01*
X1780352Y256000D01*
X1795587D02*
X1790509D01*
X1787970Y258539D01*
Y263617D01*
X1790509Y266157D01*
X1795587D01*
X1798127Y263617D01*
Y261078D01*
X1787970D01*
X1803205Y266157D02*
Y256000D01*
Y261078D01*
X1805744Y263617D01*
X1808283Y266157D01*
X1810823D01*
X1818440Y256000D02*
X1823519D01*
X1820979D01*
Y266157D01*
X1818440D01*
X1833675D02*
X1838754D01*
X1841293Y263617D01*
Y256000D01*
X1833675D01*
X1831136Y258539D01*
X1833675Y261078D01*
X1841293D01*
X1846371Y256000D02*
X1851449D01*
X1848910D01*
Y271235D01*
X1846371D01*
X1079539Y231000D02*
Y243696D01*
Y238617D01*
X1077000D01*
X1082078D01*
X1079539D01*
Y243696D01*
X1082078Y246235D01*
X1092235Y231000D02*
X1097314D01*
X1099853Y233539D01*
Y238617D01*
X1097314Y241157D01*
X1092235D01*
X1089696Y238617D01*
Y233539D01*
X1092235Y231000D01*
X1104931Y241157D02*
Y231000D01*
Y236078D01*
X1107470Y238617D01*
X1110009Y241157D01*
X1112549D01*
X1137940D02*
X1143019D01*
X1145558Y238617D01*
Y231000D01*
X1137940D01*
X1135401Y233539D01*
X1137940Y236078D01*
X1145558D01*
X1150636Y231000D02*
Y241157D01*
X1158254D01*
X1160793Y238617D01*
Y231000D01*
X1165871Y241157D02*
Y233539D01*
X1168410Y231000D01*
X1176028D01*
Y228461D01*
X1173489Y225922D01*
X1170950D01*
X1176028Y231000D02*
Y241157D01*
X1196341Y225922D02*
Y241157D01*
X1203959D01*
X1206498Y238617D01*
Y233539D01*
X1203959Y231000D01*
X1196341D01*
X1211577Y241157D02*
Y233539D01*
X1214116Y231000D01*
X1221733D01*
Y241157D01*
X1226812D02*
Y231000D01*
Y236078D01*
X1229351Y238617D01*
X1231890Y241157D01*
X1234429D01*
X1242047Y225922D02*
Y241157D01*
X1249664D01*
X1252203Y238617D01*
Y233539D01*
X1249664Y231000D01*
X1242047D01*
X1259821D02*
X1264899D01*
X1267438Y233539D01*
Y238617D01*
X1264899Y241157D01*
X1259821D01*
X1257282Y238617D01*
Y233539D01*
X1259821Y231000D01*
X1272517D02*
X1280134D01*
X1282673Y233539D01*
X1280134Y236078D01*
X1275056D01*
X1272517Y238617D01*
X1275056Y241157D01*
X1282673D01*
X1295369Y231000D02*
X1290291D01*
X1287752Y233539D01*
Y238617D01*
X1290291Y241157D01*
X1295369D01*
X1297909Y238617D01*
Y236078D01*
X1287752D01*
X1305526Y228461D02*
X1308065Y231000D01*
Y233539D01*
X1305526D01*
Y231000D01*
X1308065D01*
X1305526Y228461D01*
X1302987Y225922D01*
X1341075Y231000D02*
X1335996D01*
X1333457Y233539D01*
Y238617D01*
X1335996Y241157D01*
X1341075D01*
X1343614Y238617D01*
Y236078D01*
X1333457D01*
X1348692Y241157D02*
X1353770Y231000D01*
X1358849Y241157D01*
X1371545Y231000D02*
X1366466D01*
X1363927Y233539D01*
Y238617D01*
X1366466Y241157D01*
X1371545D01*
X1374084Y238617D01*
Y236078D01*
X1363927D01*
X1379162Y231000D02*
Y241157D01*
X1386780D01*
X1389319Y238617D01*
Y231000D01*
X1419789Y241157D02*
X1412172D01*
X1409632Y238617D01*
Y233539D01*
X1412172Y231000D01*
X1419789D01*
X1427407D02*
X1432485D01*
X1435024Y233539D01*
Y238617D01*
X1432485Y241157D01*
X1427407D01*
X1424868Y238617D01*
Y233539D01*
X1427407Y231000D01*
X1440103D02*
Y241157D01*
X1442642D01*
X1445181Y238617D01*
Y231000D01*
Y238617D01*
X1447720Y241157D01*
X1450259Y238617D01*
Y231000D01*
X1455338D02*
Y241157D01*
X1457877D01*
X1460416Y238617D01*
Y231000D01*
Y238617D01*
X1462955Y241157D01*
X1465494Y238617D01*
Y231000D01*
X1478190D02*
X1473112D01*
X1470573Y233539D01*
Y238617D01*
X1473112Y241157D01*
X1478190D01*
X1480729Y238617D01*
Y236078D01*
X1470573D01*
X1485808Y241157D02*
Y231000D01*
Y236078D01*
X1488347Y238617D01*
X1490886Y241157D01*
X1493425D01*
X1511200D02*
X1503582D01*
X1501043Y238617D01*
Y233539D01*
X1503582Y231000D01*
X1511200D01*
X1516278D02*
X1521356D01*
X1518817D01*
Y241157D01*
X1516278D01*
X1531513D02*
X1536591D01*
X1539131Y238617D01*
Y231000D01*
X1531513D01*
X1528974Y233539D01*
X1531513Y236078D01*
X1539131D01*
X1544209Y231000D02*
X1549287D01*
X1546748D01*
Y246235D01*
X1544209D01*
X1556905Y231000D02*
X1561983D01*
X1559444D01*
Y246235D01*
X1556905D01*
X1569601Y241157D02*
Y233539D01*
X1572140Y231000D01*
X1579757D01*
Y228461D01*
X1577218Y225922D01*
X1574679D01*
X1579757Y231000D02*
Y241157D01*
X1584836Y231000D02*
Y233539D01*
X1587375D01*
Y231000D01*
X1584836D01*
X1077000Y196235D02*
X1087157D01*
X1082078D01*
Y181000D01*
X1092235Y196235D02*
Y181000D01*
Y188617D01*
X1094774Y191157D01*
X1099853D01*
X1102392Y188617D01*
Y181000D01*
X1115088D02*
X1110009D01*
X1107470Y183539D01*
Y188617D01*
X1110009Y191157D01*
X1115088D01*
X1117627Y188617D01*
Y186078D01*
X1107470D01*
X1137940Y181000D02*
X1143019D01*
X1140480D01*
Y196235D01*
X1137940D01*
X1150636Y181000D02*
X1155715D01*
X1153175D01*
Y191157D01*
X1150636D01*
X1173489D02*
X1165871D01*
X1163332Y188617D01*
Y183539D01*
X1165871Y181000D01*
X1173489D01*
X1186185D02*
X1181106D01*
X1178567Y183539D01*
Y188617D01*
X1181106Y191157D01*
X1186185D01*
X1188724Y188617D01*
Y186078D01*
X1178567D01*
X1193802Y181000D02*
Y191157D01*
X1201420D01*
X1203959Y188617D01*
Y181000D01*
X1209037D02*
X1216655D01*
X1219194Y183539D01*
X1216655Y186078D01*
X1211577D01*
X1209037Y188617D01*
X1211577Y191157D01*
X1219194D01*
X1226812Y181000D02*
X1231890D01*
X1234429Y183539D01*
Y188617D01*
X1231890Y191157D01*
X1226812D01*
X1224272Y188617D01*
Y183539D01*
X1226812Y181000D01*
X1239508Y191157D02*
Y181000D01*
Y186078D01*
X1242047Y188617D01*
X1244586Y191157D01*
X1247125D01*
X1280134D02*
X1272517D01*
X1269978Y188617D01*
Y183539D01*
X1272517Y181000D01*
X1280134D01*
X1287752Y191157D02*
X1292830D01*
X1295369Y188617D01*
Y181000D01*
X1287752D01*
X1285213Y183539D01*
X1287752Y186078D01*
X1295369D01*
X1300448Y181000D02*
Y191157D01*
X1308065D01*
X1310605Y188617D01*
Y181000D01*
X1315683D02*
Y191157D01*
X1323300D01*
X1325840Y188617D01*
Y181000D01*
X1333457D02*
X1338535D01*
X1341075Y183539D01*
Y188617D01*
X1338535Y191157D01*
X1333457D01*
X1330918Y188617D01*
Y183539D01*
X1333457Y181000D01*
X1348692Y193696D02*
Y191157D01*
X1346153D01*
X1351231D01*
X1348692D01*
Y183539D01*
X1351231Y181000D01*
X1374084Y191157D02*
Y181000D01*
Y186078D01*
X1376623Y188617D01*
X1379162Y191157D01*
X1381702D01*
X1396936Y181000D02*
X1391858D01*
X1389319Y183539D01*
Y188617D01*
X1391858Y191157D01*
X1396936D01*
X1399476Y188617D01*
Y186078D01*
X1389319D01*
X1404554Y191157D02*
X1409632Y181000D01*
X1414711Y191157D01*
X1422328Y181000D02*
X1427407D01*
X1429946Y183539D01*
Y188617D01*
X1427407Y191157D01*
X1422328D01*
X1419789Y188617D01*
Y183539D01*
X1422328Y181000D01*
X1435024D02*
Y196235D01*
Y186078D02*
X1442642Y191157D01*
X1435024Y186078D02*
X1442642Y181000D01*
X1457877D02*
X1452798D01*
X1450259Y183539D01*
Y188617D01*
X1452798Y191157D01*
X1457877D01*
X1460416Y188617D01*
Y186078D01*
X1450259D01*
X1483269Y193696D02*
Y191157D01*
X1480729D01*
X1485808D01*
X1483269D01*
Y183539D01*
X1485808Y181000D01*
X1493425Y196235D02*
Y181000D01*
Y188617D01*
X1495965Y191157D01*
X1501043D01*
X1503582Y188617D01*
Y181000D01*
X1516278D02*
X1511200D01*
X1508660Y183539D01*
Y188617D01*
X1511200Y191157D01*
X1516278D01*
X1518817Y188617D01*
Y186078D01*
X1508660D01*
X1523896Y181000D02*
X1531513D01*
X1534052Y183539D01*
X1531513Y186078D01*
X1526435D01*
X1523896Y188617D01*
X1526435Y191157D01*
X1534052D01*
X1546748Y181000D02*
X1541670D01*
X1539131Y183539D01*
Y188617D01*
X1541670Y191157D01*
X1546748D01*
X1549287Y188617D01*
Y186078D01*
X1539131D01*
X1572140Y181000D02*
Y193696D01*
Y188617D01*
X1569601D01*
X1574679D01*
X1572140D01*
Y193696D01*
X1574679Y196235D01*
X1582297Y191157D02*
Y181000D01*
Y186078D01*
X1584836Y188617D01*
X1587375Y191157D01*
X1589914D01*
X1605149Y181000D02*
X1600071D01*
X1597532Y183539D01*
Y188617D01*
X1600071Y191157D01*
X1605149D01*
X1607688Y188617D01*
Y186078D01*
X1597532D01*
X1620384Y181000D02*
X1615306D01*
X1612767Y183539D01*
Y188617D01*
X1615306Y191157D01*
X1620384D01*
X1622923Y188617D01*
Y186078D01*
X1612767D01*
X1638159Y196235D02*
Y181000D01*
X1630541D01*
X1628002Y183539D01*
Y188617D01*
X1630541Y191157D01*
X1638159D01*
X1645776Y181000D02*
X1650854D01*
X1653394Y183539D01*
Y188617D01*
X1650854Y191157D01*
X1645776D01*
X1643237Y188617D01*
Y183539D01*
X1645776Y181000D01*
X1658472D02*
Y191157D01*
X1661011D01*
X1663550Y188617D01*
Y181000D01*
Y188617D01*
X1666089Y191157D01*
X1668629Y188617D01*
Y181000D01*
X1673707D02*
X1681324D01*
X1683864Y183539D01*
X1681324Y186078D01*
X1676246D01*
X1673707Y188617D01*
X1676246Y191157D01*
X1683864D01*
X1706716D02*
X1711795D01*
X1714334Y188617D01*
Y181000D01*
X1706716D01*
X1704177Y183539D01*
X1706716Y186078D01*
X1714334D01*
X1719412Y181000D02*
X1727030D01*
X1729569Y183539D01*
X1727030Y186078D01*
X1721951D01*
X1719412Y188617D01*
X1721951Y191157D01*
X1729569D01*
X1749882Y181000D02*
X1754961D01*
X1752422D01*
Y196235D01*
X1749882D01*
X1765117Y181000D02*
X1770196D01*
X1772735Y183539D01*
Y188617D01*
X1770196Y191157D01*
X1765117D01*
X1762578Y188617D01*
Y183539D01*
X1765117Y181000D01*
X1777813D02*
Y191157D01*
X1785431D01*
X1787970Y188617D01*
Y181000D01*
X1798127Y175922D02*
X1800666D01*
X1803205Y178461D01*
Y191157D01*
X1795588D01*
X1793048Y188617D01*
Y183539D01*
X1795588Y181000D01*
X1803205D01*
X1826058Y191157D02*
X1831136D01*
X1833675Y188617D01*
Y181000D01*
X1826058D01*
X1823519Y183539D01*
X1826058Y186078D01*
X1833675D01*
X1838754Y181000D02*
X1846371D01*
X1848910Y183539D01*
X1846371Y186078D01*
X1841293D01*
X1838754Y188617D01*
X1841293Y191157D01*
X1848910D01*
X1869224D02*
Y183539D01*
X1871763Y181000D01*
X1879380D01*
Y178461D01*
X1876841Y175922D01*
X1874302D01*
X1879380Y181000D02*
Y191157D01*
X1886998Y181000D02*
X1892076D01*
X1894615Y183539D01*
Y188617D01*
X1892076Y191157D01*
X1886998D01*
X1884459Y188617D01*
Y183539D01*
X1886998Y181000D01*
X1899694Y191157D02*
Y183539D01*
X1902233Y181000D01*
X1909851D01*
Y191157D01*
X1932703Y181000D02*
Y193696D01*
Y188617D01*
X1930164D01*
X1935242D01*
X1932703D01*
Y193696D01*
X1935242Y196235D01*
X1945399Y181000D02*
X1950477D01*
X1953017Y183539D01*
Y188617D01*
X1950477Y191157D01*
X1945399D01*
X1942860Y188617D01*
Y183539D01*
X1945399Y181000D01*
X1958095D02*
X1963173D01*
X1960634D01*
Y196235D01*
X1958095D01*
X1970791Y181000D02*
X1975869D01*
X1973330D01*
Y196235D01*
X1970791D01*
X1986026Y181000D02*
X1991104D01*
X1993643Y183539D01*
Y188617D01*
X1991104Y191157D01*
X1986026D01*
X1983487Y188617D01*
Y183539D01*
X1986026Y181000D01*
X1998722Y191157D02*
Y183539D01*
X2001261Y181000D01*
X2003800Y183539D01*
X2006339Y181000D01*
X2008879Y183539D01*
Y191157D01*
X2031731Y193696D02*
Y191157D01*
X2029192D01*
X2034270D01*
X2031731D01*
Y183539D01*
X2034270Y181000D01*
X2041888Y196235D02*
Y181000D01*
Y188617D01*
X2044427Y191157D01*
X2049505D01*
X2052045Y188617D01*
Y181000D01*
X2064740D02*
X2059662D01*
X2057123Y183539D01*
Y188617D01*
X2059662Y191157D01*
X2064740D01*
X2067280Y188617D01*
Y186078D01*
X2057123D01*
X2087593Y181000D02*
X2092671D01*
X2090132D01*
Y196235D01*
X2087593D01*
X2100289Y181000D02*
X2105367D01*
X2102828D01*
Y191157D01*
X2100289D01*
X2123142D02*
X2115524D01*
X2112985Y188617D01*
Y183539D01*
X2115524Y181000D01*
X2123142D01*
X2135838D02*
X2130759D01*
X2128220Y183539D01*
Y188617D01*
X2130759Y191157D01*
X2135838D01*
X2138377Y188617D01*
Y186078D01*
X2128220D01*
X2143455Y181000D02*
Y191157D01*
X2151073D01*
X2153612Y188617D01*
Y181000D01*
X2158690D02*
X2166308D01*
X2168847Y183539D01*
X2166308Y186078D01*
X2161229D01*
X2158690Y188617D01*
X2161229Y191157D01*
X2168847D01*
X2181543Y181000D02*
X2176464D01*
X2173925Y183539D01*
Y188617D01*
X2176464Y191157D01*
X2181543D01*
X2184082Y188617D01*
Y186078D01*
X2173925D01*
X2206935Y193696D02*
Y191157D01*
X2204395D01*
X2209474D01*
X2206935D01*
Y183539D01*
X2209474Y181000D01*
X2224709D02*
X2219630D01*
X2217091Y183539D01*
Y188617D01*
X2219630Y191157D01*
X2224709D01*
X2227248Y188617D01*
Y186078D01*
X2217091D01*
X2232326Y191157D02*
Y181000D01*
Y186078D01*
X2234865Y188617D01*
X2237405Y191157D01*
X2239944D01*
X2247561Y181000D02*
Y191157D01*
X2250101D01*
X2252640Y188617D01*
Y181000D01*
Y188617D01*
X2255179Y191157D01*
X2257718Y188617D01*
Y181000D01*
X2262796D02*
X2270414D01*
X2272953Y183539D01*
X2270414Y186078D01*
X2265336D01*
X2262796Y188617D01*
X2265336Y191157D01*
X2272953D01*
X2278031Y181000D02*
Y183539D01*
X2280571D01*
Y181000D01*
X2278031D01*
X1077000Y146235D02*
Y133539D01*
X1079539Y131000D01*
X1084618D01*
X1087157Y133539D01*
Y146235D01*
X1092235Y131000D02*
Y141157D01*
X1099853D01*
X1102392Y138617D01*
Y131000D01*
X1117627Y146235D02*
Y131000D01*
X1110009D01*
X1107470Y133539D01*
Y138617D01*
X1110009Y141157D01*
X1117627D01*
X1130323Y131000D02*
X1125244D01*
X1122705Y133539D01*
Y138617D01*
X1125244Y141157D01*
X1130323D01*
X1132862Y138617D01*
Y136078D01*
X1122705D01*
X1137940Y141157D02*
Y131000D01*
Y136078D01*
X1140480Y138617D01*
X1143019Y141157D01*
X1145558D01*
X1170950Y143696D02*
Y141157D01*
X1168410D01*
X1173489D01*
X1170950D01*
Y133539D01*
X1173489Y131000D01*
X1181106Y146235D02*
Y131000D01*
Y138617D01*
X1183645Y141157D01*
X1188724D01*
X1191263Y138617D01*
Y131000D01*
X1203959D02*
X1198881D01*
X1196341Y133539D01*
Y138617D01*
X1198881Y141157D01*
X1203959D01*
X1206498Y138617D01*
Y136078D01*
X1196341D01*
X1229351Y131000D02*
Y143696D01*
Y138617D01*
X1226812D01*
X1231890D01*
X1229351D01*
Y143696D01*
X1231890Y146235D01*
X1242047Y131000D02*
X1247125D01*
X1249664Y133539D01*
Y138617D01*
X1247125Y141157D01*
X1242047D01*
X1239508Y138617D01*
Y133539D01*
X1242047Y131000D01*
X1254743D02*
X1259821D01*
X1257282D01*
Y146235D01*
X1254743D01*
X1267438Y131000D02*
X1272517D01*
X1269978D01*
Y146235D01*
X1267438D01*
X1282673Y131000D02*
X1287752D01*
X1290291Y133539D01*
Y138617D01*
X1287752Y141157D01*
X1282673D01*
X1280134Y138617D01*
Y133539D01*
X1282673Y131000D01*
X1295369Y141157D02*
Y133539D01*
X1297909Y131000D01*
X1300448Y133539D01*
X1302987Y131000D01*
X1305526Y133539D01*
Y141157D01*
X1310604Y131000D02*
X1315683D01*
X1313144D01*
Y141157D01*
X1310604D01*
X1323300Y131000D02*
Y141157D01*
X1330918D01*
X1333457Y138617D01*
Y131000D01*
X1343614Y125922D02*
X1346153D01*
X1348692Y128461D01*
Y141157D01*
X1341075D01*
X1338535Y138617D01*
Y133539D01*
X1341075Y131000D01*
X1348692D01*
X1371545Y143696D02*
Y141157D01*
X1369005D01*
X1374084D01*
X1371545D01*
Y133539D01*
X1374084Y131000D01*
X1389319D02*
X1384241D01*
X1381701Y133539D01*
Y138617D01*
X1384241Y141157D01*
X1389319D01*
X1391858Y138617D01*
Y136078D01*
X1381701D01*
X1396936Y141157D02*
Y131000D01*
Y136078D01*
X1399476Y138617D01*
X1402015Y141157D01*
X1404554D01*
X1412172Y131000D02*
Y141157D01*
X1414711D01*
X1417250Y138617D01*
Y131000D01*
Y138617D01*
X1419789Y141157D01*
X1422328Y138617D01*
Y131000D01*
X1427407D02*
X1435024D01*
X1437563Y133539D01*
X1435024Y136078D01*
X1429946D01*
X1427407Y138617D01*
X1429946Y141157D01*
X1437563D01*
X1442642D02*
X1445181D01*
Y138617D01*
X1442642D01*
Y141157D01*
Y133539D02*
X1445181D01*
Y131000D01*
X1442642D01*
Y133539D01*
X1077000Y106000D02*
Y116157D01*
X1082078Y121235D01*
X1087157Y116157D01*
Y106000D01*
Y113617D01*
X1077000D01*
X1094774Y118696D02*
Y116157D01*
X1092235D01*
X1097314D01*
X1094774D01*
Y108539D01*
X1097314Y106000D01*
X1107470Y118696D02*
Y116157D01*
X1104931D01*
X1110009D01*
X1107470D01*
Y108539D01*
X1110009Y106000D01*
X1117627Y116157D02*
Y106000D01*
Y111078D01*
X1120166Y113617D01*
X1122705Y116157D01*
X1125244D01*
X1132862Y106000D02*
X1137940D01*
X1135401D01*
Y116157D01*
X1132862D01*
X1145558Y121235D02*
Y106000D01*
X1153175D01*
X1155715Y108539D01*
Y111078D01*
Y113617D01*
X1153175Y116157D01*
X1145558D01*
X1160793D02*
Y108539D01*
X1163332Y106000D01*
X1170950D01*
Y116157D01*
X1178567Y118696D02*
Y116157D01*
X1176028D01*
X1181106D01*
X1178567D01*
Y108539D01*
X1181106Y106000D01*
X1188724D02*
X1193802D01*
X1191263D01*
Y116157D01*
X1188724D01*
X1203959Y106000D02*
X1209037D01*
X1211577Y108539D01*
Y113617D01*
X1209037Y116157D01*
X1203959D01*
X1201420Y113617D01*
Y108539D01*
X1203959Y106000D01*
X1216655D02*
Y116157D01*
X1224272D01*
X1226812Y113617D01*
Y106000D01*
X1247125Y113617D02*
X1257282D01*
X1277595Y121235D02*
Y118696D01*
X1282673Y113617D01*
X1287752Y118696D01*
Y121235D01*
X1282673Y113617D02*
Y106000D01*
X1295369D02*
X1300448D01*
X1302987Y108539D01*
Y113617D01*
X1300448Y116157D01*
X1295369D01*
X1292830Y113617D01*
Y108539D01*
X1295369Y106000D01*
X1308065Y116157D02*
Y108539D01*
X1310604Y106000D01*
X1318222D01*
Y116157D01*
X1338535Y106000D02*
Y116157D01*
X1341075D01*
X1343614Y113617D01*
Y106000D01*
Y113617D01*
X1346153Y116157D01*
X1348692Y113617D01*
Y106000D01*
X1353770Y116157D02*
Y108539D01*
X1356310Y106000D01*
X1363927D01*
Y116157D01*
X1369005Y106000D02*
X1376623D01*
X1379162Y108539D01*
X1376623Y111078D01*
X1371545D01*
X1369005Y113617D01*
X1371545Y116157D01*
X1379162D01*
X1386780Y118696D02*
Y116157D01*
X1384241D01*
X1389319D01*
X1386780D01*
Y108539D01*
X1389319Y106000D01*
X1417250Y100922D02*
X1419789D01*
X1422328Y103461D01*
Y116157D01*
X1414711D01*
X1412172Y113617D01*
Y108539D01*
X1414711Y106000D01*
X1422328D01*
X1427407D02*
X1432485D01*
X1429946D01*
Y116157D01*
X1427407D01*
X1440103D02*
X1445181Y106000D01*
X1450259Y116157D01*
X1462955Y106000D02*
X1457877D01*
X1455338Y108539D01*
Y113617D01*
X1457877Y116157D01*
X1462955D01*
X1465494Y113617D01*
Y111078D01*
X1455338D01*
X1488347Y116157D02*
X1493425D01*
X1495965Y113617D01*
Y106000D01*
X1488347D01*
X1485808Y108539D01*
X1488347Y111078D01*
X1495965D01*
X1501043Y100922D02*
Y116157D01*
X1508660D01*
X1511199Y113617D01*
Y108539D01*
X1508660Y106000D01*
X1501043D01*
X1516278Y100922D02*
Y116157D01*
X1523895D01*
X1526435Y113617D01*
Y108539D01*
X1523895Y106000D01*
X1516278D01*
X1531513Y116157D02*
Y106000D01*
Y111078D01*
X1534052Y113617D01*
X1536591Y116157D01*
X1539131D01*
X1549287Y106000D02*
X1554366D01*
X1556905Y108539D01*
Y113617D01*
X1554366Y116157D01*
X1549287D01*
X1546748Y113617D01*
Y108539D01*
X1549287Y106000D01*
X1561983Y100922D02*
Y116157D01*
X1569601D01*
X1572140Y113617D01*
Y108539D01*
X1569601Y106000D01*
X1561983D01*
X1577218Y116157D02*
Y106000D01*
Y111078D01*
X1579757Y113617D01*
X1582296Y116157D01*
X1584836D01*
X1592453Y106000D02*
X1597532D01*
X1594992D01*
Y116157D01*
X1592453D01*
X1607688D02*
X1612767D01*
X1615306Y113617D01*
Y106000D01*
X1607688D01*
X1605149Y108539D01*
X1607688Y111078D01*
X1615306D01*
X1622923Y118696D02*
Y116157D01*
X1620384D01*
X1625463D01*
X1622923D01*
Y108539D01*
X1625463Y106000D01*
X1640698D02*
X1635619D01*
X1633080Y108539D01*
Y113617D01*
X1635619Y116157D01*
X1640698D01*
X1643237Y113617D01*
Y111078D01*
X1633080D01*
X1673707Y116157D02*
X1666089D01*
X1663550Y113617D01*
Y108539D01*
X1666089Y106000D01*
X1673707D01*
X1678785Y116157D02*
Y106000D01*
Y111078D01*
X1681324Y113617D01*
X1683864Y116157D01*
X1686403D01*
X1701638Y106000D02*
X1696560D01*
X1694020Y108539D01*
Y113617D01*
X1696560Y116157D01*
X1701638D01*
X1704177Y113617D01*
Y111078D01*
X1694020D01*
X1719412Y121235D02*
Y106000D01*
X1711795D01*
X1709256Y108539D01*
Y113617D01*
X1711795Y116157D01*
X1719412D01*
X1724491Y106000D02*
X1729569D01*
X1727030D01*
Y116157D01*
X1724491D01*
X1739726Y118696D02*
Y116157D01*
X1737186D01*
X1742265D01*
X1739726D01*
Y108539D01*
X1742265Y106000D01*
X1752422Y103461D02*
X1754961Y106000D01*
Y108539D01*
X1752422D01*
Y106000D01*
X1754961D01*
X1752422Y103461D01*
X1749882Y100922D01*
X1780352D02*
Y116157D01*
X1787970D01*
X1790509Y113617D01*
Y108539D01*
X1787970Y106000D01*
X1780352D01*
X1795587Y116157D02*
Y106000D01*
Y111078D01*
X1798127Y113617D01*
X1800666Y116157D01*
X1803205D01*
X1813362Y106000D02*
X1818440D01*
X1820979Y108539D01*
Y113617D01*
X1818440Y116157D01*
X1813362D01*
X1810823Y113617D01*
Y108539D01*
X1813362Y106000D01*
X1826058Y116157D02*
X1831136Y106000D01*
X1836214Y116157D01*
X1841293Y106000D02*
X1846371D01*
X1843832D01*
Y116157D01*
X1841293D01*
X1864145Y121235D02*
Y106000D01*
X1856528D01*
X1853989Y108539D01*
Y113617D01*
X1856528Y116157D01*
X1864145D01*
X1876841Y106000D02*
X1871763D01*
X1869224Y108539D01*
Y113617D01*
X1871763Y116157D01*
X1876841D01*
X1879380Y113617D01*
Y111078D01*
X1869224D01*
X1902233Y116157D02*
X1907311D01*
X1909851Y113617D01*
Y106000D01*
X1902233D01*
X1899694Y108539D01*
X1902233Y111078D01*
X1909851D01*
X1930164Y106000D02*
X1935242D01*
X1932703D01*
Y121235D01*
X1930164D01*
X1942860Y106000D02*
X1947938D01*
X1945399D01*
Y116157D01*
X1942860D01*
X1955556Y106000D02*
Y116157D01*
X1963173D01*
X1965712Y113617D01*
Y106000D01*
X1970791D02*
Y121235D01*
Y111078D02*
X1978408Y116157D01*
X1970791Y111078D02*
X1978408Y106000D01*
X2003800Y118696D02*
Y116157D01*
X2001261D01*
X2006339D01*
X2003800D01*
Y108539D01*
X2006339Y106000D01*
X2016496D02*
X2021574D01*
X2024114Y108539D01*
Y113617D01*
X2021574Y116157D01*
X2016496D01*
X2013957Y113617D01*
Y108539D01*
X2016496Y106000D01*
X2046966Y118696D02*
Y116157D01*
X2044427D01*
X2049505D01*
X2046966D01*
Y108539D01*
X2049505Y106000D01*
X2057123Y121235D02*
Y106000D01*
Y113617D01*
X2059662Y116157D01*
X2064740D01*
X2067280Y113617D01*
Y106000D01*
X2079975D02*
X2074897D01*
X2072358Y108539D01*
Y113617D01*
X2074897Y116157D01*
X2079975D01*
X2082515Y113617D01*
Y111078D01*
X2072358D01*
X2102828Y106000D02*
X2107906D01*
X2105367D01*
Y121235D01*
X2102828D01*
X2115524Y106000D02*
X2120602D01*
X2118063D01*
Y116157D01*
X2115524D01*
X2138377D02*
X2130759D01*
X2128220Y113617D01*
Y108539D01*
X2130759Y106000D01*
X2138377D01*
X2151073D02*
X2145994D01*
X2143455Y108539D01*
Y113617D01*
X2145994Y116157D01*
X2151073D01*
X2153612Y113617D01*
Y111078D01*
X2143455D01*
X2158690Y106000D02*
Y116157D01*
X2166308D01*
X2168847Y113617D01*
Y106000D01*
X2173925D02*
X2181543D01*
X2184082Y108539D01*
X2181543Y111078D01*
X2176464D01*
X2173925Y113617D01*
X2176464Y116157D01*
X2184082D01*
X2196778Y106000D02*
X2191699D01*
X2189160Y108539D01*
Y113617D01*
X2191699Y116157D01*
X2196778D01*
X2199317Y113617D01*
Y111078D01*
X2189160D01*
X2206934Y103461D02*
X2209474Y106000D01*
Y108539D01*
X2206934D01*
Y106000D01*
X2209474D01*
X2206934Y103461D01*
X2204395Y100922D01*
X2237405Y116157D02*
X2242483D01*
X2245022Y113617D01*
Y106000D01*
X2237405D01*
X2234865Y108539D01*
X2237405Y111078D01*
X2245022D01*
X2250101Y106000D02*
Y116157D01*
X2257718D01*
X2260257Y113617D01*
Y106000D01*
X2275492Y121235D02*
Y106000D01*
X2267875D01*
X2265336Y108539D01*
Y113617D01*
X2267875Y116157D01*
X2275492D01*
X1077000Y81000D02*
X1082078D01*
X1079539D01*
Y91157D01*
X1077000D01*
X1089696Y81000D02*
Y91157D01*
X1097314D01*
X1099853Y88617D01*
Y81000D01*
X1115088Y96235D02*
Y81000D01*
X1107470D01*
X1104931Y83539D01*
Y88617D01*
X1107470Y91157D01*
X1115088D01*
X1120166Y81000D02*
X1125244D01*
X1122705D01*
Y91157D01*
X1120166D01*
X1143019D02*
X1135401D01*
X1132862Y88617D01*
Y83539D01*
X1135401Y81000D01*
X1143019D01*
X1150636Y91157D02*
X1155715D01*
X1158254Y88617D01*
Y81000D01*
X1150636D01*
X1148097Y83539D01*
X1150636Y86078D01*
X1158254D01*
X1165871Y93696D02*
Y91157D01*
X1163332D01*
X1168410D01*
X1165871D01*
Y83539D01*
X1168410Y81000D01*
X1183645D02*
X1178567D01*
X1176028Y83539D01*
Y88617D01*
X1178567Y91157D01*
X1183645D01*
X1186185Y88617D01*
Y86078D01*
X1176028D01*
X1206498Y81000D02*
X1211577D01*
X1209037D01*
Y91157D01*
X1206498D01*
X1221733Y81000D02*
Y93696D01*
Y88617D01*
X1219194D01*
X1224272D01*
X1221733D01*
Y93696D01*
X1224272Y96235D01*
X1257282Y91157D02*
X1249664D01*
X1247125Y88617D01*
Y83539D01*
X1249664Y81000D01*
X1257282D01*
X1262360Y96235D02*
Y81000D01*
Y88617D01*
X1264899Y91157D01*
X1269978D01*
X1272517Y88617D01*
Y81000D01*
X1280134Y91157D02*
X1285213D01*
X1287752Y88617D01*
Y81000D01*
X1280134D01*
X1277595Y83539D01*
X1280134Y86078D01*
X1287752D01*
X1292830Y81000D02*
Y91157D01*
X1300448D01*
X1302987Y88617D01*
Y81000D01*
X1313144Y75922D02*
X1315683D01*
X1318222Y78461D01*
Y91157D01*
X1310604D01*
X1308065Y88617D01*
Y83539D01*
X1310604Y81000D01*
X1318222D01*
X1330918D02*
X1325840D01*
X1323300Y83539D01*
Y88617D01*
X1325840Y91157D01*
X1330918D01*
X1333457Y88617D01*
Y86078D01*
X1323300D01*
X1338535Y81000D02*
X1346153D01*
X1348692Y83539D01*
X1346153Y86078D01*
X1341075D01*
X1338535Y88617D01*
X1341075Y91157D01*
X1348692D01*
X1369005D02*
Y83539D01*
X1371545Y81000D01*
X1374084Y83539D01*
X1376623Y81000D01*
X1379162Y83539D01*
Y91157D01*
X1391858Y81000D02*
X1386780D01*
X1384241Y83539D01*
Y88617D01*
X1386780Y91157D01*
X1391858D01*
X1394397Y88617D01*
Y86078D01*
X1384241D01*
X1399476Y91157D02*
Y81000D01*
Y86078D01*
X1402015Y88617D01*
X1404554Y91157D01*
X1407093D01*
X1422328Y81000D02*
X1417250D01*
X1414711Y83539D01*
Y88617D01*
X1417250Y91157D01*
X1422328D01*
X1424868Y88617D01*
Y86078D01*
X1414711D01*
X1445181Y81000D02*
Y91157D01*
X1447720D01*
X1450259Y88617D01*
Y81000D01*
Y88617D01*
X1452798Y91157D01*
X1455338Y88617D01*
Y81000D01*
X1462955Y91157D02*
X1468033D01*
X1470573Y88617D01*
Y81000D01*
X1462955D01*
X1460416Y83539D01*
X1462955Y86078D01*
X1470573D01*
X1485808Y96235D02*
Y81000D01*
X1478190D01*
X1475651Y83539D01*
Y88617D01*
X1478190Y91157D01*
X1485808D01*
X1498504Y81000D02*
X1493425D01*
X1490886Y83539D01*
Y88617D01*
X1493425Y91157D01*
X1498504D01*
X1501043Y88617D01*
Y86078D01*
X1490886D01*
X1506121Y81000D02*
Y83539D01*
X1508660D01*
Y81000D01*
X1506121D01*
X1534052Y96235D02*
Y93696D01*
X1539131Y88617D01*
X1544209Y93696D01*
Y96235D01*
X1539131Y88617D02*
Y81000D01*
X1551826D02*
X1556905D01*
X1559444Y83539D01*
Y88617D01*
X1556905Y91157D01*
X1551826D01*
X1549287Y88617D01*
Y83539D01*
X1551826Y81000D01*
X1564522Y91157D02*
Y83539D01*
X1567061Y81000D01*
X1574679D01*
Y91157D01*
X1594992Y81000D02*
Y91157D01*
X1597532D01*
X1600071Y88617D01*
Y81000D01*
Y88617D01*
X1602610Y91157D01*
X1605149Y88617D01*
Y81000D01*
X1612767Y91157D02*
X1617845D01*
X1620384Y88617D01*
Y81000D01*
X1612767D01*
X1610228Y83539D01*
X1612767Y86078D01*
X1620384D01*
X1625463Y91157D02*
Y83539D01*
X1628002Y81000D01*
X1635619D01*
Y78461D01*
X1633080Y75922D01*
X1630541D01*
X1635619Y81000D02*
Y91157D01*
X1666089Y96235D02*
Y81000D01*
X1658472D01*
X1655933Y83539D01*
Y88617D01*
X1658472Y91157D01*
X1666089D01*
X1673707Y81000D02*
X1678785D01*
X1681324Y83539D01*
Y88617D01*
X1678785Y91157D01*
X1673707D01*
X1671168Y88617D01*
Y83539D01*
X1673707Y81000D01*
X1701638D02*
X1709256D01*
X1711795Y83539D01*
X1709256Y86078D01*
X1704177D01*
X1701638Y88617D01*
X1704177Y91157D01*
X1711795D01*
X1719412Y81000D02*
X1724491D01*
X1727030Y83539D01*
Y88617D01*
X1724491Y91157D01*
X1719412D01*
X1716873Y88617D01*
Y83539D01*
X1719412Y81000D01*
X1747343D02*
X1752422D01*
X1749882D01*
Y91157D01*
X1747343D01*
X1760039Y81000D02*
Y91157D01*
X1767657D01*
X1770196Y88617D01*
Y81000D01*
X1793048Y91157D02*
X1798127D01*
X1800666Y88617D01*
Y81000D01*
X1793048D01*
X1790509Y83539D01*
X1793048Y86078D01*
X1800666D01*
X1805744Y81000D02*
Y91157D01*
X1813362D01*
X1815901Y88617D01*
Y81000D01*
X1820979Y91157D02*
Y83539D01*
X1823519Y81000D01*
X1831136D01*
Y78461D01*
X1828597Y75922D01*
X1826058D01*
X1831136Y81000D02*
Y91157D01*
X1851449D02*
Y81000D01*
Y86078D01*
X1853989Y88617D01*
X1856528Y91157D01*
X1859067D01*
X1874302Y81000D02*
X1869224D01*
X1866685Y83539D01*
Y88617D01*
X1869224Y91157D01*
X1874302D01*
X1876841Y88617D01*
Y86078D01*
X1866685D01*
X1884459Y91157D02*
X1889537D01*
X1892076Y88617D01*
Y81000D01*
X1884459D01*
X1881920Y83539D01*
X1884459Y86078D01*
X1892076D01*
X1897155Y81000D02*
X1904772D01*
X1907311Y83539D01*
X1904772Y86078D01*
X1899694D01*
X1897155Y88617D01*
X1899694Y91157D01*
X1907311D01*
X1914929Y81000D02*
X1920007D01*
X1922547Y83539D01*
Y88617D01*
X1920007Y91157D01*
X1914929D01*
X1912390Y88617D01*
Y83539D01*
X1914929Y81000D01*
X1927625D02*
Y91157D01*
X1935242D01*
X1937782Y88617D01*
Y81000D01*
X1945399Y91157D02*
X1950477D01*
X1953017Y88617D01*
Y81000D01*
X1945399D01*
X1942860Y83539D01*
X1945399Y86078D01*
X1953017D01*
X1958095Y96235D02*
Y81000D01*
X1965712D01*
X1968252Y83539D01*
Y86078D01*
Y88617D01*
X1965712Y91157D01*
X1958095D01*
X1973330Y81000D02*
X1978408D01*
X1975869D01*
Y96235D01*
X1973330D01*
X1993643Y81000D02*
X1988565D01*
X1986026Y83539D01*
Y88617D01*
X1988565Y91157D01*
X1993643D01*
X1996183Y88617D01*
Y86078D01*
X1986026D01*
X2016496Y81000D02*
Y91157D01*
X2019035D01*
X2021574Y88617D01*
Y81000D01*
Y88617D01*
X2024114Y91157D01*
X2026653Y88617D01*
Y81000D01*
X2034270Y91157D02*
X2039349D01*
X2041888Y88617D01*
Y81000D01*
X2034270D01*
X2031731Y83539D01*
X2034270Y86078D01*
X2041888D01*
X2046966Y81000D02*
Y91157D01*
X2054584D01*
X2057123Y88617D01*
Y81000D01*
X2062201D02*
Y91157D01*
X2069819D01*
X2072358Y88617D01*
Y81000D01*
X2085054D02*
X2079976D01*
X2077436Y83539D01*
Y88617D01*
X2079976Y91157D01*
X2085054D01*
X2087593Y88617D01*
Y86078D01*
X2077436D01*
X2092672Y91157D02*
Y81000D01*
Y86078D01*
X2095211Y88617D01*
X2097750Y91157D01*
X2100289D01*
X2110446Y78461D02*
X2112985Y81000D01*
Y83539D01*
X2110446D01*
Y81000D01*
X2112985D01*
X2110446Y78461D01*
X2107906Y75922D01*
X2138377Y96235D02*
Y81000D01*
X2145994D01*
X2148533Y83539D01*
Y86078D01*
Y88617D01*
X2145994Y91157D01*
X2138377D01*
X2153612D02*
Y83539D01*
X2156151Y81000D01*
X2163768D01*
Y91157D01*
X2171386Y93696D02*
Y91157D01*
X2168847D01*
X2173925D01*
X2171386D01*
Y83539D01*
X2173925Y81000D01*
X2196778D02*
Y91157D01*
X2204395D01*
X2206935Y88617D01*
Y81000D01*
X2214552D02*
X2219630D01*
X2222170Y83539D01*
Y88617D01*
X2219630Y91157D01*
X2214552D01*
X2212013Y88617D01*
Y83539D01*
X2214552Y81000D01*
X2229787Y93696D02*
Y91157D01*
X2227248D01*
X2232326D01*
X2229787D01*
Y83539D01*
X2232326Y81000D01*
X2255179D02*
X2260257D01*
X2257718D01*
Y91157D01*
X2255179D01*
X2267875Y81000D02*
Y91157D01*
X2275492D01*
X2278031Y88617D01*
Y81000D01*
X2300884Y91157D02*
X2305962D01*
X2308502Y88617D01*
Y81000D01*
X2300884D01*
X2298345Y83539D01*
X2300884Y86078D01*
X2308502D01*
X2313580Y81000D02*
Y91157D01*
X2321198D01*
X2323737Y88617D01*
Y81000D01*
X2328815Y91157D02*
Y83539D01*
X2331354Y81000D01*
X2338972D01*
Y78461D01*
X2336433Y75922D01*
X2333893D01*
X2338972Y81000D02*
Y91157D01*
X1077000Y66157D02*
Y58539D01*
X1079539Y56000D01*
X1082078Y58539D01*
X1084618Y56000D01*
X1087157Y58539D01*
Y66157D01*
X1094774D02*
X1099853D01*
X1102392Y63618D01*
Y56000D01*
X1094774D01*
X1092235Y58539D01*
X1094774Y61078D01*
X1102392D01*
X1107470Y66157D02*
Y58539D01*
X1110009Y56000D01*
X1117627D01*
Y53461D01*
X1115088Y50922D01*
X1112549D01*
X1117627Y56000D02*
Y66157D01*
X1140480Y68696D02*
Y66157D01*
X1137940D01*
X1143019D01*
X1140480D01*
Y58539D01*
X1143019Y56000D01*
X1150636Y71235D02*
Y56000D01*
Y63618D01*
X1153175Y66157D01*
X1158254D01*
X1160793Y63618D01*
Y56000D01*
X1168410Y66157D02*
X1173489D01*
X1176028Y63618D01*
Y56000D01*
X1168410D01*
X1165871Y58539D01*
X1168410Y61078D01*
X1176028D01*
X1183645Y68696D02*
Y66157D01*
X1181106D01*
X1186185D01*
X1183645D01*
Y58539D01*
X1186185Y56000D01*
X1209037D02*
X1216655D01*
X1219194Y58539D01*
X1216655Y61078D01*
X1211577D01*
X1209037Y63618D01*
X1211577Y66157D01*
X1219194D01*
X1224272D02*
Y58539D01*
X1226812Y56000D01*
X1234429D01*
Y66157D01*
X1244586Y50922D02*
X1247125D01*
X1249664Y53461D01*
Y66157D01*
X1242047D01*
X1239508Y63618D01*
Y58539D01*
X1242047Y56000D01*
X1249664D01*
X1259821Y50922D02*
X1262360D01*
X1264899Y53461D01*
Y66157D01*
X1257282D01*
X1254743Y63618D01*
Y58539D01*
X1257282Y56000D01*
X1264899D01*
X1277595D02*
X1272517D01*
X1269978Y58539D01*
Y63618D01*
X1272517Y66157D01*
X1277595D01*
X1280134Y63618D01*
Y61078D01*
X1269978D01*
X1285213Y56000D02*
X1292830D01*
X1295369Y58539D01*
X1292830Y61078D01*
X1287752D01*
X1285213Y63618D01*
X1287752Y66157D01*
X1295369D01*
X1302987Y68696D02*
Y66157D01*
X1300448D01*
X1305526D01*
X1302987D01*
Y58539D01*
X1305526Y56000D01*
X1313144D02*
X1320761D01*
X1323300Y58539D01*
X1320761Y61078D01*
X1315683D01*
X1313144Y63618D01*
X1315683Y66157D01*
X1323300D01*
X1346153Y68696D02*
Y66157D01*
X1343614D01*
X1348692D01*
X1346153D01*
Y58539D01*
X1348692Y56000D01*
X1356310Y71235D02*
Y56000D01*
Y63618D01*
X1358849Y66157D01*
X1363927D01*
X1366466Y63618D01*
Y56000D01*
X1379162D02*
X1374084D01*
X1371545Y58539D01*
Y63618D01*
X1374084Y66157D01*
X1379162D01*
X1381702Y63618D01*
Y61078D01*
X1371545D01*
X1402015Y56000D02*
X1407093D01*
X1404554D01*
Y71235D01*
X1402015D01*
X1414711Y56000D02*
X1419789D01*
X1417250D01*
Y66157D01*
X1414711D01*
X1437563D02*
X1429946D01*
X1427407Y63618D01*
Y58539D01*
X1429946Y56000D01*
X1437563D01*
X1450259D02*
X1445181D01*
X1442642Y58539D01*
Y63618D01*
X1445181Y66157D01*
X1450259D01*
X1452798Y63618D01*
Y61078D01*
X1442642D01*
X1457877Y56000D02*
Y66157D01*
X1465494D01*
X1468033Y63618D01*
Y56000D01*
X1473112D02*
X1480729D01*
X1483269Y58539D01*
X1480729Y61078D01*
X1475651D01*
X1473112Y63618D01*
X1475651Y66157D01*
X1483269D01*
X1490886Y56000D02*
X1495965D01*
X1498504Y58539D01*
Y63618D01*
X1495965Y66157D01*
X1490886D01*
X1488347Y63618D01*
Y58539D01*
X1490886Y56000D01*
X1503582Y66157D02*
Y56000D01*
Y61078D01*
X1506121Y63618D01*
X1508660Y66157D01*
X1511199D01*
X1541670Y56000D02*
X1536591D01*
X1534052Y58539D01*
Y63618D01*
X1536591Y66157D01*
X1541670D01*
X1544209Y63618D01*
Y61078D01*
X1534052D01*
X1549287Y56000D02*
Y66157D01*
X1556905D01*
X1559444Y63618D01*
Y56000D01*
X1574679Y71235D02*
Y56000D01*
X1567061D01*
X1564522Y58539D01*
Y63618D01*
X1567061Y66157D01*
X1574679D01*
X1582297Y56000D02*
X1587375D01*
X1589914Y58539D01*
Y63618D01*
X1587375Y66157D01*
X1582297D01*
X1579757Y63618D01*
Y58539D01*
X1582297Y56000D01*
X1594992Y66157D02*
Y56000D01*
Y61078D01*
X1597532Y63618D01*
X1600071Y66157D01*
X1602610D01*
X1610228Y56000D02*
X1617845D01*
X1620384Y58539D01*
X1617845Y61078D01*
X1612767D01*
X1610228Y63618D01*
X1612767Y66157D01*
X1620384D01*
X1633080Y56000D02*
X1628002D01*
X1625463Y58539D01*
Y63618D01*
X1628002Y66157D01*
X1633080D01*
X1635619Y63618D01*
Y61078D01*
X1625463D01*
X1640698Y56000D02*
X1648315D01*
X1650854Y58539D01*
X1648315Y61078D01*
X1643237D01*
X1640698Y63618D01*
X1643237Y66157D01*
X1650854D01*
X1671168D02*
Y58539D01*
X1673707Y56000D01*
X1681324D01*
Y53461D01*
X1678785Y50922D01*
X1676246D01*
X1681324Y56000D02*
Y66157D01*
X1688942Y56000D02*
X1694020D01*
X1696560Y58539D01*
Y63618D01*
X1694020Y66157D01*
X1688942D01*
X1686403Y63618D01*
Y58539D01*
X1688942Y56000D01*
X1701638Y66157D02*
Y58539D01*
X1704177Y56000D01*
X1711795D01*
Y66157D01*
X1734647Y56000D02*
X1739726D01*
X1742265Y58539D01*
Y63618D01*
X1739726Y66157D01*
X1734647D01*
X1732108Y63618D01*
Y58539D01*
X1734647Y56000D01*
X1747343Y66157D02*
Y56000D01*
Y61078D01*
X1749882Y63618D01*
X1752422Y66157D01*
X1754961D01*
X1777813D02*
Y58539D01*
X1780352Y56000D01*
X1787970D01*
Y53461D01*
X1785431Y50922D01*
X1782892D01*
X1787970Y56000D02*
Y66157D01*
X1795588Y56000D02*
X1800666D01*
X1803205Y58539D01*
Y63618D01*
X1800666Y66157D01*
X1795588D01*
X1793048Y63618D01*
Y58539D01*
X1795588Y56000D01*
X1808284Y66157D02*
Y58539D01*
X1810823Y56000D01*
X1818440D01*
Y66157D01*
X1823519D02*
Y56000D01*
Y61078D01*
X1826058Y63618D01*
X1828597Y66157D01*
X1831136D01*
X1853989D02*
Y58539D01*
X1856528Y56000D01*
X1864145D01*
Y66157D01*
X1869224Y56000D02*
X1876841D01*
X1879380Y58539D01*
X1876841Y61078D01*
X1871763D01*
X1869224Y63618D01*
X1871763Y66157D01*
X1879380D01*
X1892076Y56000D02*
X1886998D01*
X1884459Y58539D01*
Y63618D01*
X1886998Y66157D01*
X1892076D01*
X1894615Y63618D01*
Y61078D01*
X1884459D01*
X1899694Y56000D02*
Y58539D01*
X1902233D01*
Y56000D01*
X1899694D01*
X1075000Y-75000D02*
Y-59765D01*
X1085157Y-75000D01*
Y-59765D01*
X1092774Y-75000D02*
X1097853D01*
X1100392Y-72461D01*
Y-67382D01*
X1097853Y-64843D01*
X1092774D01*
X1090235Y-67382D01*
Y-72461D01*
X1092774Y-75000D01*
X1123244Y-64843D02*
X1128323D01*
X1130862Y-67382D01*
Y-75000D01*
X1123244D01*
X1120705Y-72461D01*
X1123244Y-69922D01*
X1130862D01*
X1146097Y-59765D02*
Y-75000D01*
X1138480D01*
X1135940Y-72461D01*
Y-67382D01*
X1138480Y-64843D01*
X1146097D01*
X1161332Y-59765D02*
Y-75000D01*
X1153715D01*
X1151175Y-72461D01*
Y-67382D01*
X1153715Y-64843D01*
X1161332D01*
X1166410Y-75000D02*
X1171489D01*
X1168950D01*
Y-64843D01*
X1166410D01*
X1181646Y-62304D02*
Y-64843D01*
X1179106D01*
X1184185D01*
X1181646D01*
Y-72461D01*
X1184185Y-75000D01*
X1191802D02*
X1196881D01*
X1194341D01*
Y-64843D01*
X1191802D01*
X1207037Y-75000D02*
X1212116D01*
X1214655Y-72461D01*
Y-67382D01*
X1212116Y-64843D01*
X1207037D01*
X1204498Y-67382D01*
Y-72461D01*
X1207037Y-75000D01*
X1219733D02*
Y-64843D01*
X1227351D01*
X1229890Y-67382D01*
Y-75000D01*
X1237507Y-64843D02*
X1242586D01*
X1245125Y-67382D01*
Y-75000D01*
X1237507D01*
X1234968Y-72461D01*
X1237507Y-69922D01*
X1245125D01*
X1250203Y-75000D02*
X1255282D01*
X1252742D01*
Y-59765D01*
X1250203D01*
X1278134Y-64843D02*
Y-75000D01*
Y-69922D01*
X1280674Y-67382D01*
X1283213Y-64843D01*
X1285752D01*
X1300987Y-75000D02*
X1295909D01*
X1293369Y-72461D01*
Y-67382D01*
X1295909Y-64843D01*
X1300987D01*
X1303526Y-67382D01*
Y-69922D01*
X1293369D01*
X1308604Y-75000D02*
X1316222D01*
X1318761Y-72461D01*
X1316222Y-69922D01*
X1311144D01*
X1308604Y-67382D01*
X1311144Y-64843D01*
X1318761D01*
X1326379Y-62304D02*
Y-64843D01*
X1323840D01*
X1328918D01*
X1326379D01*
Y-72461D01*
X1328918Y-75000D01*
X1336535Y-64843D02*
Y-75000D01*
Y-69922D01*
X1339075Y-67382D01*
X1341614Y-64843D01*
X1344153D01*
X1351770Y-75000D02*
X1356849D01*
X1354310D01*
Y-64843D01*
X1351770D01*
X1374623D02*
X1367005D01*
X1364466Y-67382D01*
Y-72461D01*
X1367005Y-75000D01*
X1374623D01*
X1382241Y-62304D02*
Y-64843D01*
X1379701D01*
X1384780D01*
X1382241D01*
Y-72461D01*
X1384780Y-75000D01*
X1392397D02*
X1397476D01*
X1394937D01*
Y-64843D01*
X1392397D01*
X1407632Y-75000D02*
X1412711D01*
X1415250Y-72461D01*
Y-67382D01*
X1412711Y-64843D01*
X1407632D01*
X1405093Y-67382D01*
Y-72461D01*
X1407632Y-75000D01*
X1420328D02*
Y-64843D01*
X1427946D01*
X1430485Y-67382D01*
Y-75000D01*
X1435563D02*
X1443181D01*
X1445720Y-72461D01*
X1443181Y-69922D01*
X1438103D01*
X1435563Y-67382D01*
X1438103Y-64843D01*
X1445720D01*
X1466033Y-67382D02*
X1476190D01*
X1496504Y-59765D02*
Y-62304D01*
X1501582Y-67382D01*
X1506660Y-62304D01*
Y-59765D01*
X1501582Y-67382D02*
Y-75000D01*
X1514278D02*
X1519356D01*
X1521895Y-72461D01*
Y-67382D01*
X1519356Y-64843D01*
X1514278D01*
X1511739Y-67382D01*
Y-72461D01*
X1514278Y-75000D01*
X1526974Y-64843D02*
Y-72461D01*
X1529513Y-75000D01*
X1537130D01*
Y-64843D01*
X1557444Y-75000D02*
Y-64843D01*
X1559983D01*
X1562522Y-67382D01*
Y-75000D01*
Y-67382D01*
X1565061Y-64843D01*
X1567601Y-67382D01*
Y-75000D01*
X1575218Y-64843D02*
X1580296D01*
X1582836Y-67382D01*
Y-75000D01*
X1575218D01*
X1572679Y-72461D01*
X1575218Y-69922D01*
X1582836D01*
X1587914Y-64843D02*
Y-72461D01*
X1590453Y-75000D01*
X1598071D01*
Y-77539D01*
X1595532Y-80078D01*
X1592992D01*
X1598071Y-75000D02*
Y-64843D01*
X1618384Y-75000D02*
Y-64843D01*
X1626002D01*
X1628541Y-67382D01*
Y-75000D01*
X1636158D02*
X1641237D01*
X1643776Y-72461D01*
Y-67382D01*
X1641237Y-64843D01*
X1636158D01*
X1633619Y-67382D01*
Y-72461D01*
X1636158Y-75000D01*
X1651393Y-62304D02*
Y-64843D01*
X1648854D01*
X1653933D01*
X1651393D01*
Y-72461D01*
X1653933Y-75000D01*
X1679324Y-64843D02*
X1684403D01*
X1686942Y-67382D01*
Y-75000D01*
X1679324D01*
X1676785Y-72461D01*
X1679324Y-69922D01*
X1686942D01*
X1692020Y-80078D02*
Y-64843D01*
X1699638D01*
X1702177Y-67382D01*
Y-72461D01*
X1699638Y-75000D01*
X1692020D01*
X1707255Y-80078D02*
Y-64843D01*
X1714873D01*
X1717412Y-67382D01*
Y-72461D01*
X1714873Y-75000D01*
X1707255D01*
X1722491D02*
X1727569D01*
X1725030D01*
Y-59765D01*
X1722491D01*
X1735186Y-64843D02*
Y-72461D01*
X1737726Y-75000D01*
X1745343D01*
Y-77539D01*
X1742804Y-80078D01*
X1740265D01*
X1745343Y-75000D02*
Y-64843D01*
X1765656Y-75000D02*
X1770735D01*
X1768196D01*
Y-59765D01*
X1765656D01*
X1785970Y-75000D02*
X1780892D01*
X1778352Y-72461D01*
Y-67382D01*
X1780892Y-64843D01*
X1785970D01*
X1788509Y-67382D01*
Y-69922D01*
X1778352D01*
X1798666Y-80078D02*
X1801205D01*
X1803744Y-77539D01*
Y-64843D01*
X1796127D01*
X1793587Y-67382D01*
Y-72461D01*
X1796127Y-75000D01*
X1803744D01*
X1811362Y-64843D02*
X1816440D01*
X1818979Y-67382D01*
Y-75000D01*
X1811362D01*
X1808823Y-72461D01*
X1811362Y-69922D01*
X1818979D01*
X1824058Y-75000D02*
X1829136D01*
X1826597D01*
Y-59765D01*
X1824058D01*
X1854528Y-62304D02*
Y-64843D01*
X1851989D01*
X1857067D01*
X1854528D01*
Y-72461D01*
X1857067Y-75000D01*
X1872302D02*
X1867224D01*
X1864684Y-72461D01*
Y-67382D01*
X1867224Y-64843D01*
X1872302D01*
X1874841Y-67382D01*
Y-69922D01*
X1864684D01*
X1879920Y-64843D02*
Y-75000D01*
Y-69922D01*
X1882459Y-67382D01*
X1884998Y-64843D01*
X1887537D01*
X1895155Y-75000D02*
Y-64843D01*
X1897694D01*
X1900233Y-67382D01*
Y-75000D01*
Y-67382D01*
X1902772Y-64843D01*
X1905311Y-67382D01*
Y-75000D01*
X1910390D02*
X1918007D01*
X1920546Y-72461D01*
X1918007Y-69922D01*
X1912929D01*
X1910390Y-67382D01*
X1912929Y-64843D01*
X1920546D01*
X1943399Y-75000D02*
X1948477D01*
X1951017Y-72461D01*
Y-67382D01*
X1948477Y-64843D01*
X1943399D01*
X1940860Y-67382D01*
Y-72461D01*
X1943399Y-75000D01*
X1956095Y-64843D02*
Y-75000D01*
Y-69922D01*
X1958634Y-67382D01*
X1961173Y-64843D01*
X1963712D01*
X1989104Y-62304D02*
Y-64843D01*
X1986565D01*
X1991643D01*
X1989104D01*
Y-72461D01*
X1991643Y-75000D01*
X2006879D02*
X2001800D01*
X1999261Y-72461D01*
Y-67382D01*
X2001800Y-64843D01*
X2006879D01*
X2009418Y-67382D01*
Y-69922D01*
X1999261D01*
X2024653Y-64843D02*
X2017035D01*
X2014496Y-67382D01*
Y-72461D01*
X2017035Y-75000D01*
X2024653D01*
X2029731Y-59765D02*
Y-75000D01*
Y-67382D01*
X2032270Y-64843D01*
X2037349D01*
X2039888Y-67382D01*
Y-75000D01*
X2044966D02*
Y-64843D01*
X2052584D01*
X2055123Y-67382D01*
Y-75000D01*
X2062740D02*
X2067819D01*
X2070358Y-72461D01*
Y-67382D01*
X2067819Y-64843D01*
X2062740D01*
X2060201Y-67382D01*
Y-72461D01*
X2062740Y-75000D01*
X2075436D02*
X2080515D01*
X2077975D01*
Y-59765D01*
X2075436D01*
X2090671Y-75000D02*
X2095750D01*
X2098289Y-72461D01*
Y-67382D01*
X2095750Y-64843D01*
X2090671D01*
X2088132Y-67382D01*
Y-72461D01*
X2090671Y-75000D01*
X2108446Y-80078D02*
X2110985D01*
X2113524Y-77539D01*
Y-64843D01*
X2105907D01*
X2103367Y-67382D01*
Y-72461D01*
X2105907Y-75000D01*
X2113524D01*
X2118602D02*
X2123681D01*
X2121142D01*
Y-64843D01*
X2118602D01*
X2141455D02*
X2133837D01*
X2131298Y-67382D01*
Y-72461D01*
X2133837Y-75000D01*
X2141455D01*
X2149073Y-64843D02*
X2154151D01*
X2156690Y-67382D01*
Y-75000D01*
X2149073D01*
X2146533Y-72461D01*
X2149073Y-69922D01*
X2156690D01*
X2161768Y-75000D02*
X2166847D01*
X2164308D01*
Y-59765D01*
X2161768D01*
X2189699Y-75000D02*
Y-64843D01*
X2192238D01*
X2194778Y-67382D01*
Y-75000D01*
Y-67382D01*
X2197317Y-64843D01*
X2199856Y-67382D01*
Y-75000D01*
X2212552D02*
X2207474D01*
X2204934Y-72461D01*
Y-67382D01*
X2207474Y-64843D01*
X2212552D01*
X2215091Y-67382D01*
Y-69922D01*
X2204934D01*
X2222709Y-64843D02*
X2227787D01*
X2230326Y-67382D01*
Y-75000D01*
X2222709D01*
X2220170Y-72461D01*
X2222709Y-69922D01*
X2230326D01*
X2235405Y-75000D02*
X2243022D01*
X2245561Y-72461D01*
X2243022Y-69922D01*
X2237944D01*
X2235405Y-67382D01*
X2237944Y-64843D01*
X2245561D01*
X2250640D02*
Y-72461D01*
X2253179Y-75000D01*
X2260796D01*
Y-64843D01*
X2265875D02*
Y-75000D01*
Y-69922D01*
X2268414Y-67382D01*
X2270953Y-64843D01*
X2273492D01*
X2288727Y-75000D02*
X2283649D01*
X2281110Y-72461D01*
Y-67382D01*
X2283649Y-64843D01*
X2288727D01*
X2291266Y-67382D01*
Y-69922D01*
X2281110D01*
X2296345Y-75000D02*
X2303962D01*
X2306502Y-72461D01*
X2303962Y-69922D01*
X2298884D01*
X2296345Y-67382D01*
X2298884Y-64843D01*
X2306502D01*
X1077539Y-87304D02*
Y-89843D01*
X1075000D01*
X1080078D01*
X1077539D01*
Y-97461D01*
X1080078Y-100000D01*
X1087696Y-84765D02*
Y-100000D01*
Y-92382D01*
X1090235Y-89843D01*
X1095313D01*
X1097853Y-92382D01*
Y-100000D01*
X1105470Y-89843D02*
X1110548D01*
X1113088Y-92382D01*
Y-100000D01*
X1105470D01*
X1102931Y-97461D01*
X1105470Y-94922D01*
X1113088D01*
X1120705Y-87304D02*
Y-89843D01*
X1118166D01*
X1123244D01*
X1120705D01*
Y-97461D01*
X1123244Y-100000D01*
X1146097D02*
X1151175D01*
X1148636D01*
Y-84765D01*
X1146097D01*
X1166410Y-100000D02*
X1161332D01*
X1158793Y-97461D01*
Y-92382D01*
X1161332Y-89843D01*
X1166410D01*
X1168950Y-92382D01*
Y-94922D01*
X1158793D01*
X1179106Y-105078D02*
X1181646D01*
X1184185Y-102539D01*
Y-89843D01*
X1176567D01*
X1174028Y-92382D01*
Y-97461D01*
X1176567Y-100000D01*
X1184185D01*
X1191802Y-89843D02*
X1196881D01*
X1199420Y-92382D01*
Y-100000D01*
X1191802D01*
X1189263Y-97461D01*
X1191802Y-94922D01*
X1199420D01*
X1204498Y-100000D02*
X1209576D01*
X1207037D01*
Y-84765D01*
X1204498D01*
X1217194Y-100000D02*
X1222272D01*
X1219733D01*
Y-84765D01*
X1217194D01*
X1229890Y-89843D02*
Y-97461D01*
X1232429Y-100000D01*
X1240047D01*
Y-102539D01*
X1237507Y-105078D01*
X1234968D01*
X1240047Y-100000D02*
Y-89843D01*
X1260360D02*
Y-100000D01*
Y-94922D01*
X1262899Y-92382D01*
X1265438Y-89843D01*
X1267978D01*
X1283213Y-100000D02*
X1278134D01*
X1275595Y-97461D01*
Y-92382D01*
X1278134Y-89843D01*
X1283213D01*
X1285752Y-92382D01*
Y-94922D01*
X1275595D01*
X1290830Y-100000D02*
X1298448D01*
X1300987Y-97461D01*
X1298448Y-94922D01*
X1293369D01*
X1290830Y-92382D01*
X1293369Y-89843D01*
X1300987D01*
X1308604Y-87304D02*
Y-89843D01*
X1306065D01*
X1311144D01*
X1308604D01*
Y-97461D01*
X1311144Y-100000D01*
X1318761Y-89843D02*
Y-100000D01*
Y-94922D01*
X1321300Y-92382D01*
X1323840Y-89843D01*
X1326379D01*
X1333996Y-100000D02*
X1339075D01*
X1336535D01*
Y-89843D01*
X1333996D01*
X1356849D02*
X1349231D01*
X1346692Y-92382D01*
Y-97461D01*
X1349231Y-100000D01*
X1356849D01*
X1364466Y-87304D02*
Y-89843D01*
X1361927D01*
X1367005D01*
X1364466D01*
Y-97461D01*
X1367005Y-100000D01*
X1392397D02*
X1397476D01*
X1400015Y-97461D01*
Y-92382D01*
X1397476Y-89843D01*
X1392397D01*
X1389858Y-92382D01*
Y-97461D01*
X1392397Y-100000D01*
X1407632Y-87304D02*
Y-89843D01*
X1405093D01*
X1410172D01*
X1407632D01*
Y-97461D01*
X1410172Y-100000D01*
X1417789Y-84765D02*
Y-100000D01*
Y-92382D01*
X1420328Y-89843D01*
X1425407D01*
X1427946Y-92382D01*
Y-100000D01*
X1440642D02*
X1435563D01*
X1433024Y-97461D01*
Y-92382D01*
X1435563Y-89843D01*
X1440642D01*
X1443181Y-92382D01*
Y-94922D01*
X1433024D01*
X1448259Y-89843D02*
Y-100000D01*
Y-94922D01*
X1450798Y-92382D01*
X1453338Y-89843D01*
X1455877D01*
X1463494Y-100000D02*
X1471112D01*
X1473651Y-97461D01*
X1471112Y-94922D01*
X1466033D01*
X1463494Y-92382D01*
X1466033Y-89843D01*
X1473651D01*
X1496504Y-100000D02*
Y-87304D01*
Y-92382D01*
X1493964D01*
X1499043D01*
X1496504D01*
Y-87304D01*
X1499043Y-84765D01*
X1506660Y-89843D02*
Y-100000D01*
Y-94922D01*
X1509200Y-92382D01*
X1511739Y-89843D01*
X1514278D01*
X1524435Y-100000D02*
X1529513D01*
X1532052Y-97461D01*
Y-92382D01*
X1529513Y-89843D01*
X1524435D01*
X1521895Y-92382D01*
Y-97461D01*
X1524435Y-100000D01*
X1537130D02*
Y-89843D01*
X1539670D01*
X1542209Y-92382D01*
Y-100000D01*
Y-92382D01*
X1544748Y-89843D01*
X1547287Y-92382D01*
Y-100000D01*
X1577757Y-84765D02*
Y-100000D01*
X1570140D01*
X1567601Y-97461D01*
Y-92382D01*
X1570140Y-89843D01*
X1577757D01*
X1585375Y-100000D02*
X1590453D01*
X1592992Y-97461D01*
Y-92382D01*
X1590453Y-89843D01*
X1585375D01*
X1582836Y-92382D01*
Y-97461D01*
X1585375Y-100000D01*
X1598071D02*
X1603149D01*
X1600610D01*
Y-89843D01*
X1598071D01*
X1610767Y-100000D02*
Y-89843D01*
X1618384D01*
X1620923Y-92382D01*
Y-100000D01*
X1631080Y-105078D02*
X1633619D01*
X1636158Y-102539D01*
Y-89843D01*
X1628541D01*
X1626002Y-92382D01*
Y-97461D01*
X1628541Y-100000D01*
X1636158D01*
X1659011Y-89843D02*
X1664089D01*
X1666629Y-92382D01*
Y-100000D01*
X1659011D01*
X1656472Y-97461D01*
X1659011Y-94922D01*
X1666629D01*
X1671707Y-100000D02*
Y-89843D01*
X1679324D01*
X1681864Y-92382D01*
Y-100000D01*
X1686942Y-89843D02*
Y-97461D01*
X1689481Y-100000D01*
X1697099D01*
Y-102539D01*
X1694559Y-105078D01*
X1692020D01*
X1697099Y-100000D02*
Y-89843D01*
X1704716Y-87304D02*
Y-89843D01*
X1702177D01*
X1707255D01*
X1704716D01*
Y-97461D01*
X1707255Y-100000D01*
X1714873Y-84765D02*
Y-100000D01*
Y-92382D01*
X1717412Y-89843D01*
X1722491D01*
X1725030Y-92382D01*
Y-100000D01*
X1730108D02*
X1735186D01*
X1732647D01*
Y-89843D01*
X1730108D01*
X1742804Y-100000D02*
Y-89843D01*
X1750421D01*
X1752961Y-92382D01*
Y-100000D01*
X1763117Y-105078D02*
X1765656D01*
X1768196Y-102539D01*
Y-89843D01*
X1760578D01*
X1758039Y-92382D01*
Y-97461D01*
X1760578Y-100000D01*
X1768196D01*
X1791048Y-87304D02*
Y-89843D01*
X1788509D01*
X1793587D01*
X1791048D01*
Y-97461D01*
X1793587Y-100000D01*
X1801205Y-84765D02*
Y-100000D01*
Y-92382D01*
X1803744Y-89843D01*
X1808822D01*
X1811362Y-92382D01*
Y-100000D01*
X1824058D02*
X1818979D01*
X1816440Y-97461D01*
Y-92382D01*
X1818979Y-89843D01*
X1824058D01*
X1826597Y-92382D01*
Y-94922D01*
X1816440D01*
X1846910Y-100000D02*
X1851989D01*
X1849449D01*
Y-84765D01*
X1846910D01*
X1859606Y-100000D02*
X1864684D01*
X1862145D01*
Y-89843D01*
X1859606D01*
X1882459D02*
X1874841D01*
X1872302Y-92382D01*
Y-97461D01*
X1874841Y-100000D01*
X1882459D01*
X1895155D02*
X1890076D01*
X1887537Y-97461D01*
Y-92382D01*
X1890076Y-89843D01*
X1895155D01*
X1897694Y-92382D01*
Y-94922D01*
X1887537D01*
X1902772Y-100000D02*
Y-89843D01*
X1910390D01*
X1912929Y-92382D01*
Y-100000D01*
X1918007D02*
X1925625D01*
X1928164Y-97461D01*
X1925625Y-94922D01*
X1920546D01*
X1918007Y-92382D01*
X1920546Y-89843D01*
X1928164D01*
X1940860Y-100000D02*
X1935782D01*
X1933242Y-97461D01*
Y-92382D01*
X1935782Y-89843D01*
X1940860D01*
X1943399Y-92382D01*
Y-94922D01*
X1933242D01*
X1963712Y-105078D02*
Y-89843D01*
X1971330D01*
X1973869Y-92382D01*
Y-97461D01*
X1971330Y-100000D01*
X1963712D01*
X1986565D02*
X1981487D01*
X1978947Y-97461D01*
Y-92382D01*
X1981487Y-89843D01*
X1986565D01*
X1989104Y-92382D01*
Y-94922D01*
X1978947D01*
X1994183Y-89843D02*
Y-100000D01*
Y-94922D01*
X1996722Y-92382D01*
X1999261Y-89843D01*
X2001800D01*
X2009418Y-100000D02*
Y-89843D01*
X2011957D01*
X2014496Y-92382D01*
Y-100000D01*
Y-92382D01*
X2017035Y-89843D01*
X2019574Y-92382D01*
Y-100000D01*
X2024653D02*
X2029731D01*
X2027192D01*
Y-89843D01*
X2024653D01*
X2039888Y-87304D02*
Y-89843D01*
X2037349D01*
X2042427D01*
X2039888D01*
Y-97461D01*
X2042427Y-100000D01*
X2050045D02*
X2057662D01*
X2060201Y-97461D01*
X2057662Y-94922D01*
X2052584D01*
X2050045Y-92382D01*
X2052584Y-89843D01*
X2060201D01*
X2065280Y-100000D02*
Y-97461D01*
X2067819D01*
Y-100000D01*
X2065280D01*
X1075000Y-150000D02*
Y-134765D01*
X1085157Y-150000D01*
Y-134765D01*
X1092774Y-150000D02*
X1097853D01*
X1100392Y-147461D01*
Y-142382D01*
X1097853Y-139843D01*
X1092774D01*
X1090235Y-142382D01*
Y-147461D01*
X1092774Y-150000D01*
X1108009Y-137304D02*
Y-139843D01*
X1105470D01*
X1110548D01*
X1108009D01*
Y-147461D01*
X1110548Y-150000D01*
X1118166D02*
X1123244D01*
X1120705D01*
Y-139843D01*
X1118166D01*
X1141019D02*
X1133401D01*
X1130862Y-142382D01*
Y-147461D01*
X1133401Y-150000D01*
X1141019D01*
X1153715D02*
X1148636D01*
X1146097Y-147461D01*
Y-142382D01*
X1148636Y-139843D01*
X1153715D01*
X1156254Y-142382D01*
Y-144922D01*
X1146097D01*
X1161332Y-150000D02*
X1168950D01*
X1171489Y-147461D01*
X1168950Y-144922D01*
X1163871D01*
X1161332Y-142382D01*
X1163871Y-139843D01*
X1171489D01*
X1176567D02*
X1179106D01*
Y-142382D01*
X1176567D01*
Y-139843D01*
Y-147461D02*
X1179106D01*
Y-150000D01*
X1176567D01*
Y-147461D01*
X1075000Y-159765D02*
Y-162304D01*
X1080078Y-167383D01*
X1085157Y-162304D01*
Y-159765D01*
X1080078Y-167383D02*
Y-175000D01*
X1092774D02*
X1097853D01*
X1100392Y-172461D01*
Y-167383D01*
X1097853Y-164843D01*
X1092774D01*
X1090235Y-167383D01*
Y-172461D01*
X1092774Y-175000D01*
X1105470Y-164843D02*
Y-172461D01*
X1108009Y-175000D01*
X1115627D01*
Y-164843D01*
X1146097Y-159765D02*
Y-175000D01*
X1138480D01*
X1135940Y-172461D01*
Y-167383D01*
X1138480Y-164843D01*
X1146097D01*
X1153715Y-175000D02*
X1158793D01*
X1161332Y-172461D01*
Y-167383D01*
X1158793Y-164843D01*
X1153715D01*
X1151175Y-167383D01*
Y-172461D01*
X1153715Y-175000D01*
X1181646D02*
Y-164843D01*
X1189263D01*
X1191802Y-167383D01*
Y-175000D01*
X1199420D02*
X1204498D01*
X1207037Y-172461D01*
Y-167383D01*
X1204498Y-164843D01*
X1199420D01*
X1196881Y-167383D01*
Y-172461D01*
X1199420Y-175000D01*
X1214655Y-162304D02*
Y-164843D01*
X1212116D01*
X1217194D01*
X1214655D01*
Y-172461D01*
X1217194Y-175000D01*
X1240047Y-159765D02*
Y-175000D01*
Y-167383D01*
X1242586Y-164843D01*
X1247664D01*
X1250203Y-167383D01*
Y-175000D01*
X1257821Y-164843D02*
X1262899D01*
X1265438Y-167383D01*
Y-175000D01*
X1257821D01*
X1255282Y-172461D01*
X1257821Y-169922D01*
X1265438D01*
X1270517Y-164843D02*
X1275595Y-175000D01*
X1280674Y-164843D01*
X1293369Y-175000D02*
X1288291D01*
X1285752Y-172461D01*
Y-167383D01*
X1288291Y-164843D01*
X1293369D01*
X1295909Y-167383D01*
Y-169922D01*
X1285752D01*
X1318761Y-162304D02*
Y-164843D01*
X1316222D01*
X1321300D01*
X1318761D01*
Y-172461D01*
X1321300Y-175000D01*
X1331457D02*
X1336535D01*
X1339075Y-172461D01*
Y-167383D01*
X1336535Y-164843D01*
X1331457D01*
X1328918Y-167383D01*
Y-172461D01*
X1331457Y-175000D01*
X1369545Y-164843D02*
X1361927D01*
X1359388Y-167383D01*
Y-172461D01*
X1361927Y-175000D01*
X1369545D01*
X1377162D02*
X1382241D01*
X1384780Y-172461D01*
Y-167383D01*
X1382241Y-164843D01*
X1377162D01*
X1374623Y-167383D01*
Y-172461D01*
X1377162Y-175000D01*
X1389858D02*
Y-164843D01*
X1392397D01*
X1394937Y-167383D01*
Y-175000D01*
Y-167383D01*
X1397476Y-164843D01*
X1400015Y-167383D01*
Y-175000D01*
X1405093Y-180078D02*
Y-164843D01*
X1412711D01*
X1415250Y-167383D01*
Y-172461D01*
X1412711Y-175000D01*
X1405093D01*
X1420328D02*
X1425407D01*
X1422867D01*
Y-159765D01*
X1420328D01*
X1433024Y-164843D02*
Y-172461D01*
X1435563Y-175000D01*
X1443181D01*
Y-177539D01*
X1440642Y-180078D01*
X1438103D01*
X1443181Y-175000D02*
Y-164843D01*
X1463494D02*
Y-172461D01*
X1466033Y-175000D01*
X1468573Y-172461D01*
X1471112Y-175000D01*
X1473651Y-172461D01*
Y-164843D01*
X1478729Y-175000D02*
X1483808D01*
X1481269D01*
Y-164843D01*
X1478729D01*
X1493965Y-162304D02*
Y-164843D01*
X1491425D01*
X1496504D01*
X1493965D01*
Y-172461D01*
X1496504Y-175000D01*
X1504121Y-159765D02*
Y-175000D01*
Y-167383D01*
X1506660Y-164843D01*
X1511739D01*
X1514278Y-167383D01*
Y-175000D01*
X1537130Y-162304D02*
Y-164843D01*
X1534591D01*
X1539670D01*
X1537130D01*
Y-172461D01*
X1539670Y-175000D01*
X1547287Y-159765D02*
Y-175000D01*
Y-167383D01*
X1549826Y-164843D01*
X1554905D01*
X1557444Y-167383D01*
Y-175000D01*
X1570140D02*
X1565061D01*
X1562522Y-172461D01*
Y-167383D01*
X1565061Y-164843D01*
X1570140D01*
X1572679Y-167383D01*
Y-169922D01*
X1562522D01*
X1592992Y-175000D02*
X1598071D01*
X1595532D01*
Y-159765D01*
X1592992D01*
X1605688Y-175000D02*
X1610767D01*
X1608228D01*
Y-164843D01*
X1605688D01*
X1628541D02*
X1620923D01*
X1618384Y-167383D01*
Y-172461D01*
X1620923Y-175000D01*
X1628541D01*
X1641237D02*
X1636158D01*
X1633619Y-172461D01*
Y-167383D01*
X1636158Y-164843D01*
X1641237D01*
X1643776Y-167383D01*
Y-169922D01*
X1633619D01*
X1648854Y-175000D02*
Y-164843D01*
X1656472D01*
X1659011Y-167383D01*
Y-175000D01*
X1664089D02*
X1671707D01*
X1674246Y-172461D01*
X1671707Y-169922D01*
X1666629D01*
X1664089Y-167383D01*
X1666629Y-164843D01*
X1674246D01*
X1686942Y-175000D02*
X1681864D01*
X1679324Y-172461D01*
Y-167383D01*
X1681864Y-164843D01*
X1686942D01*
X1689481Y-167383D01*
Y-169922D01*
X1679324D01*
X1712334Y-175000D02*
Y-162304D01*
Y-167383D01*
X1709795D01*
X1714873D01*
X1712334D01*
Y-162304D01*
X1714873Y-159765D01*
X1725030Y-175000D02*
X1730108D01*
X1732647Y-172461D01*
Y-167383D01*
X1730108Y-164843D01*
X1725030D01*
X1722491Y-167383D01*
Y-172461D01*
X1725030Y-175000D01*
X1737726Y-164843D02*
Y-175000D01*
Y-169922D01*
X1740265Y-167383D01*
X1742804Y-164843D01*
X1745343D01*
X1775813Y-175000D02*
X1770735D01*
X1768196Y-172461D01*
Y-167383D01*
X1770735Y-164843D01*
X1775813D01*
X1778353Y-167383D01*
Y-169922D01*
X1768196D01*
X1783431Y-175000D02*
X1788509D01*
X1785970D01*
Y-159765D01*
X1783431D01*
X1803744Y-175000D02*
X1798666D01*
X1796127Y-172461D01*
Y-167383D01*
X1798666Y-164843D01*
X1803744D01*
X1806283Y-167383D01*
Y-169922D01*
X1796127D01*
X1811362Y-175000D02*
Y-164843D01*
X1813901D01*
X1816440Y-167383D01*
Y-175000D01*
Y-167383D01*
X1818979Y-164843D01*
X1821519Y-167383D01*
Y-175000D01*
X1834214D02*
X1829136D01*
X1826597Y-172461D01*
Y-167383D01*
X1829136Y-164843D01*
X1834214D01*
X1836754Y-167383D01*
Y-169922D01*
X1826597D01*
X1841832Y-175000D02*
Y-164843D01*
X1849449D01*
X1851989Y-167383D01*
Y-175000D01*
X1859606Y-162304D02*
Y-164843D01*
X1857067D01*
X1862145D01*
X1859606D01*
Y-172461D01*
X1862145Y-175000D01*
X1869763D02*
X1877380D01*
X1879920Y-172461D01*
X1877380Y-169922D01*
X1872302D01*
X1869763Y-167383D01*
X1872302Y-164843D01*
X1879920D01*
X1902772Y-175000D02*
X1907850D01*
X1910390Y-172461D01*
Y-167383D01*
X1907850Y-164843D01*
X1902772D01*
X1900233Y-167383D01*
Y-172461D01*
X1902772Y-175000D01*
X1918007D02*
Y-162304D01*
Y-167383D01*
X1915468D01*
X1920546D01*
X1918007D01*
Y-162304D01*
X1920546Y-159765D01*
X1945938Y-162304D02*
Y-164843D01*
X1943399D01*
X1948477D01*
X1945938D01*
Y-172461D01*
X1948477Y-175000D01*
X1956095Y-159765D02*
Y-175000D01*
Y-167383D01*
X1958634Y-164843D01*
X1963712D01*
X1966252Y-167383D01*
Y-175000D01*
X1978947D02*
X1973869D01*
X1971330Y-172461D01*
Y-167383D01*
X1973869Y-164843D01*
X1978947D01*
X1981487Y-167383D01*
Y-169922D01*
X1971330D01*
X2001800Y-175000D02*
Y-164843D01*
X2004339D01*
X2006879Y-167383D01*
Y-175000D01*
Y-167383D01*
X2009418Y-164843D01*
X2011957Y-167383D01*
Y-175000D01*
X2019574Y-164843D02*
X2024653D01*
X2027192Y-167383D01*
Y-175000D01*
X2019574D01*
X2017035Y-172461D01*
X2019574Y-169922D01*
X2027192D01*
X2034810Y-162304D02*
Y-164843D01*
X2032270D01*
X2037349D01*
X2034810D01*
Y-172461D01*
X2037349Y-175000D01*
X2052584D02*
X2047505D01*
X2044966Y-172461D01*
Y-167383D01*
X2047505Y-164843D01*
X2052584D01*
X2055123Y-167383D01*
Y-169922D01*
X2044966D01*
X2060201Y-164843D02*
Y-175000D01*
Y-169922D01*
X2062740Y-167383D01*
X2065280Y-164843D01*
X2067819D01*
X2075436Y-175000D02*
X2080515D01*
X2077975D01*
Y-164843D01*
X2075436D01*
X2090671D02*
X2095750D01*
X2098289Y-167383D01*
Y-175000D01*
X2090671D01*
X2088132Y-172461D01*
X2090671Y-169922D01*
X2098289D01*
X2103367Y-175000D02*
X2108446D01*
X2105907D01*
Y-159765D01*
X2103367D01*
X2131298Y-175000D02*
X2136377D01*
X2133837D01*
Y-164843D01*
X2131298D01*
X2143994Y-175000D02*
Y-164843D01*
X2151612D01*
X2154151Y-167383D01*
Y-175000D01*
X2177003Y-162304D02*
Y-164843D01*
X2174464D01*
X2179543D01*
X2177003D01*
Y-172461D01*
X2179543Y-175000D01*
X2187160Y-159765D02*
Y-175000D01*
Y-167383D01*
X2189699Y-164843D01*
X2194778D01*
X2197317Y-167383D01*
Y-175000D01*
X2210013D02*
X2204934D01*
X2202395Y-172461D01*
Y-167383D01*
X2204934Y-164843D01*
X2210013D01*
X2212552Y-167383D01*
Y-169922D01*
X2202395D01*
X2232865Y-180078D02*
Y-164843D01*
X2240483D01*
X2243022Y-167383D01*
Y-172461D01*
X2240483Y-175000D01*
X2232865D01*
X2248100Y-164843D02*
Y-172461D01*
X2250640Y-175000D01*
X2258257D01*
Y-164843D01*
X2263336Y-159765D02*
Y-175000D01*
X2270953D01*
X2273492Y-172461D01*
Y-169922D01*
Y-167383D01*
X2270953Y-164843D01*
X2263336D01*
X2278571Y-175000D02*
X2283649D01*
X2281110D01*
Y-159765D01*
X2278571D01*
X2291266Y-175000D02*
X2296345D01*
X2293806D01*
Y-164843D01*
X2291266D01*
X2314119D02*
X2306501D01*
X2303962Y-167383D01*
Y-172461D01*
X2306501Y-175000D01*
X2314119D01*
X2344589Y-159765D02*
Y-175000D01*
X2336972D01*
X2334433Y-172461D01*
Y-167383D01*
X2336972Y-164843D01*
X2344589D01*
X2352207Y-175000D02*
X2357285D01*
X2359824Y-172461D01*
Y-167383D01*
X2357285Y-164843D01*
X2352207D01*
X2349668Y-167383D01*
Y-172461D01*
X2352207Y-175000D01*
X2364903D02*
Y-164843D01*
X2367442D01*
X2369981Y-167383D01*
Y-175000D01*
Y-167383D01*
X2372520Y-164843D01*
X2375059Y-167383D01*
Y-175000D01*
X2382677Y-164843D02*
X2387755D01*
X2390294Y-167383D01*
Y-175000D01*
X2382677D01*
X2380138Y-172461D01*
X2382677Y-169922D01*
X2390294D01*
X2395373Y-175000D02*
X2400451D01*
X2397912D01*
Y-164843D01*
X2395373D01*
X2408069Y-175000D02*
Y-164843D01*
X2415686D01*
X2418225Y-167383D01*
Y-175000D01*
X2441078D02*
X2446156D01*
X2448696Y-172461D01*
Y-167383D01*
X2446156Y-164843D01*
X2441078D01*
X2438539Y-167383D01*
Y-172461D01*
X2441078Y-175000D01*
X2453774Y-164843D02*
Y-175000D01*
Y-169922D01*
X2456313Y-167383D01*
X2458852Y-164843D01*
X2461391D01*
X2484244D02*
Y-172461D01*
X2486783Y-175000D01*
X2489322Y-172461D01*
X2491862Y-175000D01*
X2494401Y-172461D01*
Y-164843D01*
X2499479Y-159765D02*
Y-175000D01*
Y-167383D01*
X2502018Y-164843D01*
X2507097D01*
X2509636Y-167383D01*
Y-175000D01*
X2522332D02*
X2517253D01*
X2514714Y-172461D01*
Y-167383D01*
X2517253Y-164843D01*
X2522332D01*
X2524871Y-167383D01*
Y-169922D01*
X2514714D01*
X2529949Y-164843D02*
Y-175000D01*
Y-169922D01*
X2532488Y-167383D01*
X2535028Y-164843D01*
X2537567D01*
X2552802Y-175000D02*
X2547724D01*
X2545184Y-172461D01*
Y-167383D01*
X2547724Y-164843D01*
X2552802D01*
X2555341Y-167383D01*
Y-169922D01*
X2545184D01*
X1075000Y-189843D02*
Y-197461D01*
X1077539Y-200000D01*
X1085157D01*
Y-202539D01*
X1082617Y-205078D01*
X1080078D01*
X1085157Y-200000D02*
Y-189843D01*
X1092774Y-200000D02*
X1097853D01*
X1100392Y-197461D01*
Y-192383D01*
X1097853Y-189843D01*
X1092774D01*
X1090235Y-192383D01*
Y-197461D01*
X1092774Y-200000D01*
X1105470Y-189843D02*
Y-197461D01*
X1108009Y-200000D01*
X1115627D01*
Y-189843D01*
X1120705D02*
Y-200000D01*
Y-194922D01*
X1123244Y-192383D01*
X1125784Y-189843D01*
X1128323D01*
X1151175D02*
Y-197461D01*
X1153715Y-200000D01*
X1161332D01*
Y-189843D01*
X1166410Y-200000D02*
X1174028D01*
X1176567Y-197461D01*
X1174028Y-194922D01*
X1168950D01*
X1166410Y-192383D01*
X1168950Y-189843D01*
X1176567D01*
X1189263Y-200000D02*
X1184185D01*
X1181646Y-197461D01*
Y-192383D01*
X1184185Y-189843D01*
X1189263D01*
X1191802Y-192383D01*
Y-194922D01*
X1181646D01*
X1212116Y-200000D02*
X1217194D01*
X1214655D01*
Y-189843D01*
X1212116D01*
X1224811Y-200000D02*
X1232429D01*
X1234968Y-197461D01*
X1232429Y-194922D01*
X1227351D01*
X1224811Y-192383D01*
X1227351Y-189843D01*
X1234968D01*
X1255282Y-205078D02*
Y-189843D01*
X1262899D01*
X1265438Y-192383D01*
Y-197461D01*
X1262899Y-200000D01*
X1255282D01*
X1278134D02*
X1273056D01*
X1270517Y-197461D01*
Y-192383D01*
X1273056Y-189843D01*
X1278134D01*
X1280674Y-192383D01*
Y-194922D01*
X1270517D01*
X1285752Y-189843D02*
Y-200000D01*
Y-194922D01*
X1288291Y-192383D01*
X1290830Y-189843D01*
X1293369D01*
X1300987Y-200000D02*
Y-189843D01*
X1303526D01*
X1306065Y-192383D01*
Y-200000D01*
Y-192383D01*
X1308604Y-189843D01*
X1311144Y-192383D01*
Y-200000D01*
X1316222D02*
X1321300D01*
X1318761D01*
Y-189843D01*
X1316222D01*
X1331457Y-187304D02*
Y-189843D01*
X1328918D01*
X1333996D01*
X1331457D01*
Y-197461D01*
X1333996Y-200000D01*
X1344153Y-187304D02*
Y-189843D01*
X1341614D01*
X1346692D01*
X1344153D01*
Y-197461D01*
X1346692Y-200000D01*
X1361927D02*
X1356849D01*
X1354310Y-197461D01*
Y-192383D01*
X1356849Y-189843D01*
X1361927D01*
X1364466Y-192383D01*
Y-194922D01*
X1354310D01*
X1379701Y-184765D02*
Y-200000D01*
X1372084D01*
X1369545Y-197461D01*
Y-192383D01*
X1372084Y-189843D01*
X1379701D01*
X1400015Y-184765D02*
Y-200000D01*
X1407632D01*
X1410172Y-197461D01*
Y-194922D01*
Y-192383D01*
X1407632Y-189843D01*
X1400015D01*
X1415250D02*
Y-197461D01*
X1417789Y-200000D01*
X1425407D01*
Y-202539D01*
X1422867Y-205078D01*
X1420328D01*
X1425407Y-200000D02*
Y-189843D01*
X1448259D02*
X1453338D01*
X1455877Y-192383D01*
Y-200000D01*
X1448259D01*
X1445720Y-197461D01*
X1448259Y-194922D01*
X1455877D01*
X1460955Y-200000D02*
Y-189843D01*
X1468573D01*
X1471112Y-192383D01*
Y-200000D01*
X1493965Y-189843D02*
X1499043D01*
X1501582Y-192383D01*
Y-200000D01*
X1493965D01*
X1491425Y-197461D01*
X1493965Y-194922D01*
X1501582D01*
X1506660Y-205078D02*
Y-189843D01*
X1514278D01*
X1516817Y-192383D01*
Y-197461D01*
X1514278Y-200000D01*
X1506660D01*
X1521895Y-205078D02*
Y-189843D01*
X1529513D01*
X1532052Y-192383D01*
Y-197461D01*
X1529513Y-200000D01*
X1521895D01*
X1537130D02*
X1542209D01*
X1539670D01*
Y-184765D01*
X1537130D01*
X1549826Y-200000D02*
X1554905D01*
X1552366D01*
Y-189843D01*
X1549826D01*
X1572679D02*
X1565061D01*
X1562522Y-192383D01*
Y-197461D01*
X1565061Y-200000D01*
X1572679D01*
X1580296Y-189843D02*
X1585375D01*
X1587914Y-192383D01*
Y-200000D01*
X1580296D01*
X1577757Y-197461D01*
X1580296Y-194922D01*
X1587914D01*
X1592992Y-184765D02*
Y-200000D01*
X1600610D01*
X1603149Y-197461D01*
Y-194922D01*
Y-192383D01*
X1600610Y-189843D01*
X1592992D01*
X1608228Y-200000D02*
X1613306D01*
X1610767D01*
Y-184765D01*
X1608228D01*
X1628541Y-200000D02*
X1623463D01*
X1620923Y-197461D01*
Y-192383D01*
X1623463Y-189843D01*
X1628541D01*
X1631080Y-192383D01*
Y-194922D01*
X1620923D01*
X1659011Y-200000D02*
X1653933D01*
X1651393Y-197461D01*
Y-192383D01*
X1653933Y-189843D01*
X1659011D01*
X1661550Y-192383D01*
Y-194922D01*
X1651393D01*
X1666629Y-189843D02*
X1676785Y-200000D01*
X1671707Y-194922D01*
X1676785Y-189843D01*
X1666629Y-200000D01*
X1692020Y-189843D02*
X1684403D01*
X1681864Y-192383D01*
Y-197461D01*
X1684403Y-200000D01*
X1692020D01*
X1704716D02*
X1699638D01*
X1697099Y-197461D01*
Y-192383D01*
X1699638Y-189843D01*
X1704716D01*
X1707256Y-192383D01*
Y-194922D01*
X1697099D01*
X1712334Y-205078D02*
Y-189843D01*
X1719951D01*
X1722491Y-192383D01*
Y-197461D01*
X1719951Y-200000D01*
X1712334D01*
X1730108Y-187304D02*
Y-189843D01*
X1727569D01*
X1732647D01*
X1730108D01*
Y-197461D01*
X1732647Y-200000D01*
X1740265D02*
X1745343D01*
X1742804D01*
Y-189843D01*
X1740265D01*
X1755500Y-200000D02*
X1760578D01*
X1763117Y-197461D01*
Y-192383D01*
X1760578Y-189843D01*
X1755500D01*
X1752961Y-192383D01*
Y-197461D01*
X1755500Y-200000D01*
X1768196D02*
Y-189843D01*
X1775813D01*
X1778353Y-192383D01*
Y-200000D01*
X1801205D02*
X1806283D01*
X1808823Y-197461D01*
Y-192383D01*
X1806283Y-189843D01*
X1801205D01*
X1798666Y-192383D01*
Y-197461D01*
X1801205Y-200000D01*
X1813901Y-189843D02*
Y-200000D01*
Y-194922D01*
X1816440Y-192383D01*
X1818979Y-189843D01*
X1821519D01*
X1844371Y-200000D02*
X1849449D01*
X1846910D01*
Y-184765D01*
X1844371D01*
X1857067Y-200000D02*
X1862145D01*
X1859606D01*
Y-189843D01*
X1857067D01*
X1869763Y-200000D02*
Y-189843D01*
X1872302D01*
X1874841Y-192383D01*
Y-200000D01*
Y-192383D01*
X1877380Y-189843D01*
X1879920Y-192383D01*
Y-200000D01*
X1884998D02*
X1890076D01*
X1887537D01*
Y-189843D01*
X1884998D01*
X1900233Y-187304D02*
Y-189843D01*
X1897694D01*
X1902772D01*
X1900233D01*
Y-197461D01*
X1902772Y-200000D01*
X1912929Y-189843D02*
X1918007D01*
X1920546Y-192383D01*
Y-200000D01*
X1912929D01*
X1910390Y-197461D01*
X1912929Y-194922D01*
X1920546D01*
X1928164Y-187304D02*
Y-189843D01*
X1925625D01*
X1930703D01*
X1928164D01*
Y-197461D01*
X1930703Y-200000D01*
X1938321D02*
X1943399D01*
X1940860D01*
Y-189843D01*
X1938321D01*
X1953556Y-200000D02*
X1958634D01*
X1961173Y-197461D01*
Y-192383D01*
X1958634Y-189843D01*
X1953556D01*
X1951017Y-192383D01*
Y-197461D01*
X1953556Y-200000D01*
X1966252D02*
Y-189843D01*
X1973869D01*
X1976408Y-192383D01*
Y-200000D01*
X1981487D02*
Y-197461D01*
X1984026D01*
Y-200000D01*
X1981487D01*
X1075000Y-250000D02*
Y-234765D01*
X1085157Y-250000D01*
Y-234765D01*
X1092774Y-250000D02*
X1097853D01*
X1100392Y-247461D01*
Y-242383D01*
X1097853Y-239843D01*
X1092774D01*
X1090235Y-242383D01*
Y-247461D01*
X1092774Y-250000D01*
X1120705Y-239843D02*
Y-247461D01*
X1123244Y-250000D01*
X1125784Y-247461D01*
X1128323Y-250000D01*
X1130862Y-247461D01*
Y-239843D01*
X1138480D02*
X1143558D01*
X1146097Y-242383D01*
Y-250000D01*
X1138480D01*
X1135940Y-247461D01*
X1138480Y-244922D01*
X1146097D01*
X1151175Y-239843D02*
Y-250000D01*
Y-244922D01*
X1153715Y-242383D01*
X1156254Y-239843D01*
X1158793D01*
X1166410D02*
Y-250000D01*
Y-244922D01*
X1168950Y-242383D01*
X1171489Y-239843D01*
X1174028D01*
X1184185D02*
X1189263D01*
X1191802Y-242383D01*
Y-250000D01*
X1184185D01*
X1181646Y-247461D01*
X1184185Y-244922D01*
X1191802D01*
X1196881Y-250000D02*
Y-239843D01*
X1204498D01*
X1207037Y-242383D01*
Y-250000D01*
X1214655Y-237304D02*
Y-239843D01*
X1212116D01*
X1217194D01*
X1214655D01*
Y-247461D01*
X1217194Y-250000D01*
X1224811D02*
X1229890D01*
X1227351D01*
Y-239843D01*
X1224811D01*
X1245125Y-250000D02*
X1240047D01*
X1237507Y-247461D01*
Y-242383D01*
X1240047Y-239843D01*
X1245125D01*
X1247664Y-242383D01*
Y-244922D01*
X1237507D01*
X1252742Y-250000D02*
X1260360D01*
X1262899Y-247461D01*
X1260360Y-244922D01*
X1255282D01*
X1252742Y-242383D01*
X1255282Y-239843D01*
X1262899D01*
X1285752D02*
X1290830D01*
X1293369Y-242383D01*
Y-250000D01*
X1285752D01*
X1283213Y-247461D01*
X1285752Y-244922D01*
X1293369D01*
X1298448Y-239843D02*
Y-250000D01*
Y-244922D01*
X1300987Y-242383D01*
X1303526Y-239843D01*
X1306065D01*
X1321300Y-250000D02*
X1316222D01*
X1313683Y-247461D01*
Y-242383D01*
X1316222Y-239843D01*
X1321300D01*
X1323840Y-242383D01*
Y-244922D01*
X1313683D01*
X1349231Y-255078D02*
X1351770D01*
X1354310Y-252539D01*
Y-239843D01*
X1346692D01*
X1344153Y-242383D01*
Y-247461D01*
X1346692Y-250000D01*
X1354310D01*
X1359388D02*
X1364466D01*
X1361927D01*
Y-239843D01*
X1359388D01*
X1372084D02*
X1377162Y-250000D01*
X1382241Y-239843D01*
X1394937Y-250000D02*
X1389858D01*
X1387319Y-247461D01*
Y-242383D01*
X1389858Y-239843D01*
X1394937D01*
X1397476Y-242383D01*
Y-244922D01*
X1387319D01*
X1402554Y-250000D02*
Y-239843D01*
X1410172D01*
X1412711Y-242383D01*
Y-250000D01*
X1417789D02*
Y-247461D01*
X1420328D01*
Y-250000D01*
X1417789D01*
X1445720Y-234765D02*
X1455877D01*
X1450798D01*
Y-250000D01*
X1460955Y-234765D02*
Y-250000D01*
Y-242383D01*
X1463494Y-239843D01*
X1468573D01*
X1471112Y-242383D01*
Y-250000D01*
X1483808D02*
X1478729D01*
X1476190Y-247461D01*
Y-242383D01*
X1478729Y-239843D01*
X1483808D01*
X1486347Y-242383D01*
Y-244922D01*
X1476190D01*
X1506660Y-250000D02*
X1511739D01*
X1509200D01*
Y-234765D01*
X1506660D01*
X1519356Y-250000D02*
X1524435D01*
X1521895D01*
Y-239843D01*
X1519356D01*
X1542209D02*
X1534591D01*
X1532052Y-242383D01*
Y-247461D01*
X1534591Y-250000D01*
X1542209D01*
X1554905D02*
X1549826D01*
X1547287Y-247461D01*
Y-242383D01*
X1549826Y-239843D01*
X1554905D01*
X1557444Y-242383D01*
Y-244922D01*
X1547287D01*
X1562522Y-250000D02*
Y-239843D01*
X1570140D01*
X1572679Y-242383D01*
Y-250000D01*
X1577757D02*
X1585375D01*
X1587914Y-247461D01*
X1585375Y-244922D01*
X1580296D01*
X1577757Y-242383D01*
X1580296Y-239843D01*
X1587914D01*
X1600610Y-250000D02*
X1595532D01*
X1592992Y-247461D01*
Y-242383D01*
X1595532Y-239843D01*
X1600610D01*
X1603149Y-242383D01*
Y-244922D01*
X1592992D01*
X1623463Y-250000D02*
Y-239843D01*
X1626002D01*
X1628541Y-242383D01*
Y-250000D01*
Y-242383D01*
X1631080Y-239843D01*
X1633619Y-242383D01*
Y-250000D01*
X1641237Y-239843D02*
X1646315D01*
X1648854Y-242383D01*
Y-250000D01*
X1641237D01*
X1638698Y-247461D01*
X1641237Y-244922D01*
X1648854D01*
X1653933Y-239843D02*
Y-247461D01*
X1656472Y-250000D01*
X1664089D01*
Y-252539D01*
X1661550Y-255078D01*
X1659011D01*
X1664089Y-250000D02*
Y-239843D01*
X1684403Y-250000D02*
Y-239843D01*
X1692020D01*
X1694560Y-242383D01*
Y-250000D01*
X1702177D02*
X1707256D01*
X1709795Y-247461D01*
Y-242383D01*
X1707256Y-239843D01*
X1702177D01*
X1699638Y-242383D01*
Y-247461D01*
X1702177Y-250000D01*
X1717412Y-237304D02*
Y-239843D01*
X1714873D01*
X1719951D01*
X1717412D01*
Y-247461D01*
X1719951Y-250000D01*
X1747882Y-255078D02*
X1750421D01*
X1752961Y-252539D01*
Y-239843D01*
X1745343D01*
X1742804Y-242383D01*
Y-247461D01*
X1745343Y-250000D01*
X1752961D01*
X1758039D02*
X1763117D01*
X1760578D01*
Y-239843D01*
X1758039D01*
X1770735D02*
X1775813Y-250000D01*
X1780892Y-239843D01*
X1793587Y-250000D02*
X1788509D01*
X1785970Y-247461D01*
Y-242383D01*
X1788509Y-239843D01*
X1793587D01*
X1796127Y-242383D01*
Y-244922D01*
X1785970D01*
X1816440Y-239843D02*
Y-247461D01*
X1818979Y-250000D01*
X1826597D01*
Y-252539D01*
X1824058Y-255078D01*
X1821519D01*
X1826597Y-250000D02*
Y-239843D01*
X1834214Y-250000D02*
X1839293D01*
X1841832Y-247461D01*
Y-242383D01*
X1839293Y-239843D01*
X1834214D01*
X1831675Y-242383D01*
Y-247461D01*
X1834214Y-250000D01*
X1846910Y-239843D02*
Y-247461D01*
X1849449Y-250000D01*
X1857067D01*
Y-239843D01*
X1879920D02*
X1884998D01*
X1887537Y-242383D01*
Y-250000D01*
X1879920D01*
X1877380Y-247461D01*
X1879920Y-244922D01*
X1887537D01*
X1892616Y-250000D02*
X1897694D01*
X1895155D01*
Y-234765D01*
X1892616D01*
X1905311Y-250000D02*
X1910390D01*
X1907851D01*
Y-234765D01*
X1905311D01*
X1935782Y-250000D02*
X1940860D01*
X1943399Y-247461D01*
Y-242383D01*
X1940860Y-239843D01*
X1935782D01*
X1933242Y-242383D01*
Y-247461D01*
X1935782Y-250000D01*
X1951017D02*
Y-237304D01*
Y-242383D01*
X1948477D01*
X1953556D01*
X1951017D01*
Y-237304D01*
X1953556Y-234765D01*
X1978948Y-237304D02*
Y-239843D01*
X1976408D01*
X1981487D01*
X1978948D01*
Y-247461D01*
X1981487Y-250000D01*
X1989104Y-234765D02*
Y-250000D01*
Y-242383D01*
X1991643Y-239843D01*
X1996722D01*
X1999261Y-242383D01*
Y-250000D01*
X2011957D02*
X2006879D01*
X2004339Y-247461D01*
Y-242383D01*
X2006879Y-239843D01*
X2011957D01*
X2014496Y-242383D01*
Y-244922D01*
X2004339D01*
X2034810Y-255078D02*
Y-239843D01*
X2042427D01*
X2044966Y-242383D01*
Y-247461D01*
X2042427Y-250000D01*
X2034810D01*
X2057662D02*
X2052584D01*
X2050045Y-247461D01*
Y-242383D01*
X2052584Y-239843D01*
X2057662D01*
X2060201Y-242383D01*
Y-244922D01*
X2050045D01*
X2065280Y-239843D02*
Y-250000D01*
Y-244922D01*
X2067819Y-242383D01*
X2070358Y-239843D01*
X2072897D01*
X2080515Y-250000D02*
Y-239843D01*
X2083054D01*
X2085593Y-242383D01*
Y-250000D01*
Y-242383D01*
X2088132Y-239843D01*
X2090671Y-242383D01*
Y-250000D01*
X2095750D02*
X2100828D01*
X2098289D01*
Y-239843D01*
X2095750D01*
X2108446Y-250000D02*
X2116063D01*
X2118602Y-247461D01*
X2116063Y-244922D01*
X2110985D01*
X2108446Y-242383D01*
X2110985Y-239843D01*
X2118602D01*
X2123681Y-250000D02*
X2131298D01*
X2133837Y-247461D01*
X2131298Y-244922D01*
X2126220D01*
X2123681Y-242383D01*
X2126220Y-239843D01*
X2133837D01*
X2138916Y-250000D02*
X2143994D01*
X2141455D01*
Y-239843D01*
X2138916D01*
X2154151Y-250000D02*
X2159229D01*
X2161768Y-247461D01*
Y-242383D01*
X2159229Y-239843D01*
X2154151D01*
X2151612Y-242383D01*
Y-247461D01*
X2154151Y-250000D01*
X2166847D02*
Y-239843D01*
X2174464D01*
X2177003Y-242383D01*
Y-250000D01*
X2182082D02*
X2189699D01*
X2192238Y-247461D01*
X2189699Y-244922D01*
X2184621D01*
X2182082Y-242383D01*
X2184621Y-239843D01*
X2192238D01*
X2212552Y-250000D02*
Y-239843D01*
X2220170D01*
X2222709Y-242383D01*
Y-250000D01*
X2235405D02*
X2230326D01*
X2227787Y-247461D01*
Y-242383D01*
X2230326Y-239843D01*
X2235405D01*
X2237944Y-242383D01*
Y-244922D01*
X2227787D01*
X2253179Y-239843D02*
X2245561D01*
X2243022Y-242383D01*
Y-247461D01*
X2245561Y-250000D01*
X2253179D01*
X2265875D02*
X2260796D01*
X2258257Y-247461D01*
Y-242383D01*
X2260796Y-239843D01*
X2265875D01*
X2268414Y-242383D01*
Y-244922D01*
X2258257D01*
X2273492Y-250000D02*
X2281110D01*
X2283649Y-247461D01*
X2281110Y-244922D01*
X2276031D01*
X2273492Y-242383D01*
X2276031Y-239843D01*
X2283649D01*
X2288727Y-250000D02*
X2296345D01*
X2298884Y-247461D01*
X2296345Y-244922D01*
X2291266D01*
X2288727Y-242383D01*
X2291266Y-239843D01*
X2298884D01*
X2306502D02*
X2311580D01*
X2314119Y-242383D01*
Y-250000D01*
X2306502D01*
X2303962Y-247461D01*
X2306502Y-244922D01*
X2314119D01*
X2319198Y-239843D02*
Y-250000D01*
Y-244922D01*
X2321737Y-242383D01*
X2324276Y-239843D01*
X2326815D01*
X2334433D02*
Y-247461D01*
X2336972Y-250000D01*
X2344589D01*
Y-252539D01*
X2342050Y-255078D01*
X2339511D01*
X2344589Y-250000D02*
Y-239843D01*
X2367442Y-250000D02*
Y-237304D01*
Y-242383D01*
X2364903D01*
X2369981D01*
X2367442D01*
Y-237304D01*
X2369981Y-234765D01*
X2380138Y-250000D02*
X2385216D01*
X2387755Y-247461D01*
Y-242383D01*
X2385216Y-239843D01*
X2380138D01*
X2377599Y-242383D01*
Y-247461D01*
X2380138Y-250000D01*
X2392834Y-239843D02*
Y-250000D01*
Y-244922D01*
X2395373Y-242383D01*
X2397912Y-239843D01*
X2400451D01*
X2423304D02*
Y-247461D01*
X2425843Y-250000D01*
X2433461D01*
Y-252539D01*
X2430921Y-255078D01*
X2428382D01*
X2433461Y-250000D02*
Y-239843D01*
X2441078Y-250000D02*
X2446156D01*
X2448696Y-247461D01*
Y-242383D01*
X2446156Y-239843D01*
X2441078D01*
X2438539Y-242383D01*
Y-247461D01*
X2441078Y-250000D01*
X2453774Y-239843D02*
Y-247461D01*
X2456313Y-250000D01*
X2463931D01*
Y-239843D01*
X2469009D02*
Y-250000D01*
Y-244922D01*
X2471548Y-242383D01*
X2474087Y-239843D01*
X2476626D01*
X1075000Y-275000D02*
X1080078D01*
X1077539D01*
Y-264843D01*
X1075000D01*
X1087696Y-275000D02*
Y-264843D01*
X1095313D01*
X1097853Y-267383D01*
Y-275000D01*
X1105470Y-262304D02*
Y-264843D01*
X1102931D01*
X1108009D01*
X1105470D01*
Y-272461D01*
X1108009Y-275000D01*
X1123244D02*
X1118166D01*
X1115627Y-272461D01*
Y-267383D01*
X1118166Y-264843D01*
X1123244D01*
X1125784Y-267383D01*
Y-269922D01*
X1115627D01*
X1130862Y-275000D02*
Y-264843D01*
X1138480D01*
X1141019Y-267383D01*
Y-275000D01*
X1156254Y-259765D02*
Y-275000D01*
X1148636D01*
X1146097Y-272461D01*
Y-267383D01*
X1148636Y-264843D01*
X1156254D01*
X1168950Y-275000D02*
X1163871D01*
X1161332Y-272461D01*
Y-267383D01*
X1163871Y-264843D01*
X1168950D01*
X1171489Y-267383D01*
Y-269922D01*
X1161332D01*
X1186724Y-259765D02*
Y-275000D01*
X1179106D01*
X1176567Y-272461D01*
Y-267383D01*
X1179106Y-264843D01*
X1186724D01*
X1207037D02*
Y-272461D01*
X1209576Y-275000D01*
X1217194D01*
Y-264843D01*
X1222272Y-275000D02*
X1229890D01*
X1232429Y-272461D01*
X1229890Y-269922D01*
X1224811D01*
X1222272Y-267383D01*
X1224811Y-264843D01*
X1232429D01*
X1245125Y-275000D02*
X1240047D01*
X1237507Y-272461D01*
Y-267383D01*
X1240047Y-264843D01*
X1245125D01*
X1247664Y-267383D01*
Y-269922D01*
X1237507D01*
X1252742Y-275000D02*
Y-272461D01*
X1255282D01*
Y-275000D01*
X1252742D01*
X1290830Y-259765D02*
X1280674D01*
Y-267383D01*
X1285752D01*
X1280674D01*
Y-275000D01*
X1298448D02*
X1303526D01*
X1306065Y-272461D01*
Y-267383D01*
X1303526Y-264843D01*
X1298448D01*
X1295909Y-267383D01*
Y-272461D01*
X1298448Y-275000D01*
X1311144Y-264843D02*
Y-275000D01*
Y-269922D01*
X1313683Y-267383D01*
X1316222Y-264843D01*
X1318761D01*
X1349231Y-275000D02*
X1344153D01*
X1341614Y-272461D01*
Y-267383D01*
X1344153Y-264843D01*
X1349231D01*
X1351770Y-267383D01*
Y-269922D01*
X1341614D01*
X1356849Y-264843D02*
X1367005Y-275000D01*
X1361927Y-269922D01*
X1367005Y-264843D01*
X1356849Y-275000D01*
X1374623Y-264843D02*
X1379701D01*
X1382241Y-267383D01*
Y-275000D01*
X1374623D01*
X1372084Y-272461D01*
X1374623Y-269922D01*
X1382241D01*
X1387319Y-275000D02*
Y-264843D01*
X1389858D01*
X1392397Y-267383D01*
Y-275000D01*
Y-267383D01*
X1394937Y-264843D01*
X1397476Y-267383D01*
Y-275000D01*
X1402554Y-280078D02*
Y-264843D01*
X1410172D01*
X1412711Y-267383D01*
Y-272461D01*
X1410172Y-275000D01*
X1402554D01*
X1417789D02*
X1422867D01*
X1420328D01*
Y-259765D01*
X1417789D01*
X1438103Y-275000D02*
X1433024D01*
X1430485Y-272461D01*
Y-267383D01*
X1433024Y-264843D01*
X1438103D01*
X1440642Y-267383D01*
Y-269922D01*
X1430485D01*
X1448259Y-277539D02*
X1450798Y-275000D01*
Y-272461D01*
X1448259D01*
Y-275000D01*
X1450798D01*
X1448259Y-277539D01*
X1445720Y-280078D01*
X1478729Y-275000D02*
X1483808D01*
X1486347Y-272461D01*
Y-267383D01*
X1483808Y-264843D01*
X1478729D01*
X1476190Y-267383D01*
Y-272461D01*
X1478729Y-275000D01*
X1493965Y-262304D02*
Y-264843D01*
X1491425D01*
X1496504D01*
X1493965D01*
Y-272461D01*
X1496504Y-275000D01*
X1504121Y-259765D02*
Y-275000D01*
Y-267383D01*
X1506660Y-264843D01*
X1511739D01*
X1514278Y-267383D01*
Y-275000D01*
X1526974D02*
X1521895D01*
X1519356Y-272461D01*
Y-267383D01*
X1521895Y-264843D01*
X1526974D01*
X1529513Y-267383D01*
Y-269922D01*
X1519356D01*
X1534591Y-264843D02*
Y-275000D01*
Y-269922D01*
X1537130Y-267383D01*
X1539670Y-264843D01*
X1542209D01*
X1565061D02*
Y-275000D01*
Y-269922D01*
X1567601Y-267383D01*
X1570140Y-264843D01*
X1572679D01*
X1580296Y-275000D02*
X1585375D01*
X1582836D01*
Y-264843D01*
X1580296D01*
X1598071Y-280078D02*
X1600610D01*
X1603149Y-277539D01*
Y-264843D01*
X1595532D01*
X1592992Y-267383D01*
Y-272461D01*
X1595532Y-275000D01*
X1603149D01*
X1608228Y-259765D02*
Y-275000D01*
Y-267383D01*
X1610767Y-264843D01*
X1615845D01*
X1618384Y-267383D01*
Y-275000D01*
X1626002Y-262304D02*
Y-264843D01*
X1623463D01*
X1628541D01*
X1626002D01*
Y-272461D01*
X1628541Y-275000D01*
X1636158D02*
X1643776D01*
X1646315Y-272461D01*
X1643776Y-269922D01*
X1638698D01*
X1636158Y-267383D01*
X1638698Y-264843D01*
X1646315D01*
X1666629Y-275000D02*
X1674246D01*
X1676785Y-272461D01*
X1674246Y-269922D01*
X1669168D01*
X1666629Y-267383D01*
X1669168Y-264843D01*
X1676785D01*
X1681864D02*
Y-272461D01*
X1684403Y-275000D01*
X1692020D01*
Y-264843D01*
X1707256D02*
X1699638D01*
X1697099Y-267383D01*
Y-272461D01*
X1699638Y-275000D01*
X1707256D01*
X1712334Y-259765D02*
Y-275000D01*
Y-267383D01*
X1714873Y-264843D01*
X1719951D01*
X1722491Y-267383D01*
Y-275000D01*
X1745343Y-264843D02*
X1750421D01*
X1752961Y-267383D01*
Y-275000D01*
X1745343D01*
X1742804Y-272461D01*
X1745343Y-269922D01*
X1752961D01*
X1758039Y-275000D02*
X1765657D01*
X1768196Y-272461D01*
X1765657Y-269922D01*
X1760578D01*
X1758039Y-267383D01*
X1760578Y-264843D01*
X1768196D01*
X1788509Y-280078D02*
Y-264843D01*
X1796127D01*
X1798666Y-267383D01*
Y-272461D01*
X1796127Y-275000D01*
X1788509D01*
X1803744Y-264843D02*
Y-272461D01*
X1806283Y-275000D01*
X1813901D01*
Y-264843D01*
X1818979Y-259765D02*
Y-275000D01*
X1826597D01*
X1829136Y-272461D01*
Y-269922D01*
Y-267383D01*
X1826597Y-264843D01*
X1818979D01*
X1834214Y-275000D02*
X1839293D01*
X1836754D01*
Y-259765D01*
X1834214D01*
X1846910Y-275000D02*
X1851989D01*
X1849449D01*
Y-264843D01*
X1846910D01*
X1869763D02*
X1862145D01*
X1859606Y-267383D01*
Y-272461D01*
X1862145Y-275000D01*
X1869763D01*
X1874841D02*
X1879920D01*
X1877380D01*
Y-264843D01*
X1874841D01*
X1890076Y-262304D02*
Y-264843D01*
X1887537D01*
X1892616D01*
X1890076D01*
Y-272461D01*
X1892616Y-275000D01*
X1900233Y-264843D02*
Y-272461D01*
X1902772Y-275000D01*
X1910390D01*
Y-277539D01*
X1907850Y-280078D01*
X1905311D01*
X1910390Y-275000D02*
Y-264843D01*
X1918007Y-277539D02*
X1920546Y-275000D01*
Y-272461D01*
X1918007D01*
Y-275000D01*
X1920546D01*
X1918007Y-277539D01*
X1915468Y-280078D01*
X1945938D02*
Y-264843D01*
X1953556D01*
X1956095Y-267383D01*
Y-272461D01*
X1953556Y-275000D01*
X1945938D01*
X1961173Y-264843D02*
Y-275000D01*
Y-269922D01*
X1963712Y-267383D01*
X1966252Y-264843D01*
X1968791D01*
X1976408Y-275000D02*
X1981487D01*
X1978948D01*
Y-264843D01*
X1976408D01*
X1989104D02*
X1994183Y-275000D01*
X1999261Y-264843D01*
X2006879D02*
X2011957D01*
X2014496Y-267383D01*
Y-275000D01*
X2006879D01*
X2004339Y-272461D01*
X2006879Y-269922D01*
X2014496D01*
X2029731Y-264843D02*
X2022114D01*
X2019574Y-267383D01*
Y-272461D01*
X2022114Y-275000D01*
X2029731D01*
X2034810Y-264843D02*
Y-272461D01*
X2037349Y-275000D01*
X2044966D01*
Y-277539D01*
X2042427Y-280078D01*
X2039888D01*
X2044966Y-275000D02*
Y-264843D01*
X2052584Y-277539D02*
X2055123Y-275000D01*
Y-272461D01*
X2052584D01*
Y-275000D01*
X2055123D01*
X2052584Y-277539D01*
X2050045Y-280078D01*
X2083054Y-275000D02*
X2088132D01*
X2090671Y-272461D01*
Y-267383D01*
X2088132Y-264843D01*
X2083054D01*
X2080515Y-267383D01*
Y-272461D01*
X2083054Y-275000D01*
X2095750Y-264843D02*
Y-275000D01*
Y-269922D01*
X2098289Y-267383D01*
X2100828Y-264843D01*
X2103367D01*
X2126220Y-275000D02*
Y-264843D01*
X2128759D01*
X2131298Y-267383D01*
Y-275000D01*
Y-267383D01*
X2133837Y-264843D01*
X2136377Y-267383D01*
Y-275000D01*
X2143994D02*
X2149073D01*
X2151612Y-272461D01*
Y-267383D01*
X2149073Y-264843D01*
X2143994D01*
X2141455Y-267383D01*
Y-272461D01*
X2143994Y-275000D01*
X2156690Y-264843D02*
Y-275000D01*
Y-269922D01*
X2159229Y-267383D01*
X2161768Y-264843D01*
X2164308D01*
X2174464D02*
X2179543D01*
X2182082Y-267383D01*
Y-275000D01*
X2174464D01*
X2171925Y-272461D01*
X2174464Y-269922D01*
X2182082D01*
X2187160Y-275000D02*
X2192238D01*
X2189699D01*
Y-259765D01*
X2187160D01*
X2215091Y-264843D02*
Y-275000D01*
Y-269922D01*
X2217630Y-267383D01*
X2220170Y-264843D01*
X2222709D01*
X2230326Y-275000D02*
X2235405D01*
X2232865D01*
Y-264843D01*
X2230326D01*
X2248100Y-280078D02*
X2250640D01*
X2253179Y-277539D01*
Y-264843D01*
X2245561D01*
X2243022Y-267383D01*
Y-272461D01*
X2245561Y-275000D01*
X2253179D01*
X2258257Y-259765D02*
Y-275000D01*
Y-267383D01*
X2260796Y-264843D01*
X2265875D01*
X2268414Y-267383D01*
Y-275000D01*
X2276031Y-262304D02*
Y-264843D01*
X2273492D01*
X2278571D01*
X2276031D01*
Y-272461D01*
X2278571Y-275000D01*
X2286188D02*
X2293806D01*
X2296345Y-272461D01*
X2293806Y-269922D01*
X2288727D01*
X2286188Y-267383D01*
X2288727Y-264843D01*
X2296345D01*
X2316658Y-275000D02*
Y-264843D01*
X2319198D01*
X2321737Y-267383D01*
Y-275000D01*
Y-267383D01*
X2324276Y-264843D01*
X2326815Y-267383D01*
Y-275000D01*
X2334433Y-264843D02*
X2339511D01*
X2342050Y-267383D01*
Y-275000D01*
X2334433D01*
X2331893Y-272461D01*
X2334433Y-269922D01*
X2342050D01*
X2347128Y-264843D02*
Y-272461D01*
X2349668Y-275000D01*
X2357285D01*
Y-277539D01*
X2354746Y-280078D01*
X2352207D01*
X2357285Y-275000D02*
Y-264843D01*
X2377599Y-275000D02*
X2382677D01*
X2380138D01*
Y-259765D01*
X2377599D01*
X2390294Y-275000D02*
X2395373D01*
X2392834D01*
Y-264843D01*
X2390294D01*
X2402990Y-275000D02*
Y-264843D01*
X2405529D01*
X2408069Y-267383D01*
Y-275000D01*
Y-267383D01*
X2410608Y-264843D01*
X2413147Y-267383D01*
Y-275000D01*
X2418225D02*
X2423304D01*
X2420765D01*
Y-264843D01*
X2418225D01*
X2433461Y-262304D02*
Y-264843D01*
X2430921D01*
X2436000D01*
X2433461D01*
Y-272461D01*
X2436000Y-275000D01*
X2458852Y-259765D02*
Y-275000D01*
Y-267383D01*
X2461391Y-264843D01*
X2466470D01*
X2469009Y-267383D01*
Y-275000D01*
X2476626D02*
X2481705D01*
X2484244Y-272461D01*
Y-267383D01*
X2481705Y-264843D01*
X2476626D01*
X2474087Y-267383D01*
Y-272461D01*
X2476626Y-275000D01*
X2489322Y-264843D02*
Y-272461D01*
X2491862Y-275000D01*
X2494401Y-272461D01*
X2496940Y-275000D01*
X2499479Y-272461D01*
Y-264843D01*
X2519792D02*
Y-272461D01*
X2522332Y-275000D01*
X2529949D01*
Y-277539D01*
X2527410Y-280078D01*
X2524871D01*
X2529949Y-275000D02*
Y-264843D01*
X2537567Y-275000D02*
X2542645D01*
X2545184Y-272461D01*
Y-267383D01*
X2542645Y-264843D01*
X2537567D01*
X2535028Y-267383D01*
Y-272461D01*
X2537567Y-275000D01*
X2550263Y-264843D02*
Y-272461D01*
X2552802Y-275000D01*
X2560419D01*
Y-264843D01*
X1075000Y-289843D02*
Y-297461D01*
X1077539Y-300000D01*
X1085157D01*
Y-289843D01*
X1090235Y-300000D02*
X1097853D01*
X1100392Y-297461D01*
X1097853Y-294922D01*
X1092774D01*
X1090235Y-292383D01*
X1092774Y-289843D01*
X1100392D01*
X1113088Y-300000D02*
X1108009D01*
X1105470Y-297461D01*
Y-292383D01*
X1108009Y-289843D01*
X1113088D01*
X1115627Y-292383D01*
Y-294922D01*
X1105470D01*
X1138480Y-287304D02*
Y-289843D01*
X1135940D01*
X1141019D01*
X1138480D01*
Y-297461D01*
X1141019Y-300000D01*
X1148636Y-284765D02*
Y-300000D01*
Y-292383D01*
X1151175Y-289843D01*
X1156254D01*
X1158793Y-292383D01*
Y-300000D01*
X1171489D02*
X1166410D01*
X1163871Y-297461D01*
Y-292383D01*
X1166410Y-289843D01*
X1171489D01*
X1174028Y-292383D01*
Y-294922D01*
X1163871D01*
X1194341Y-300000D02*
Y-289843D01*
X1196881D01*
X1199420Y-292383D01*
Y-300000D01*
Y-292383D01*
X1201959Y-289843D01*
X1204498Y-292383D01*
Y-300000D01*
X1212116Y-289843D02*
X1217194D01*
X1219733Y-292383D01*
Y-300000D01*
X1212116D01*
X1209576Y-297461D01*
X1212116Y-294922D01*
X1219733D01*
X1227351Y-287304D02*
Y-289843D01*
X1224811D01*
X1229890D01*
X1227351D01*
Y-297461D01*
X1229890Y-300000D01*
X1245125D02*
X1240047D01*
X1237507Y-297461D01*
Y-292383D01*
X1240047Y-289843D01*
X1245125D01*
X1247664Y-292383D01*
Y-294922D01*
X1237507D01*
X1252742Y-289843D02*
Y-300000D01*
Y-294922D01*
X1255282Y-292383D01*
X1257821Y-289843D01*
X1260360D01*
X1267978Y-300000D02*
X1273056D01*
X1270517D01*
Y-289843D01*
X1267978D01*
X1283213D02*
X1288291D01*
X1290830Y-292383D01*
Y-300000D01*
X1283213D01*
X1280674Y-297461D01*
X1283213Y-294922D01*
X1290830D01*
X1295909Y-300000D02*
X1300987D01*
X1298448D01*
Y-284765D01*
X1295909D01*
X1308604Y-300000D02*
Y-297461D01*
X1311144D01*
Y-300000D01*
X1308604D01*
X1087697Y-7618D02*
X1080079D01*
X1077540Y-10158D01*
Y-15236D01*
X1080079Y-17775D01*
X1087697D01*
X1095314D02*
X1100393D01*
X1102932Y-15236D01*
Y-10158D01*
X1100393Y-7618D01*
X1095314D01*
X1092775Y-10158D01*
Y-15236D01*
X1095314Y-17775D01*
X1108010D02*
Y-7618D01*
X1115628D01*
X1118167Y-10158D01*
Y-17775D01*
X1125784Y-5079D02*
Y-7618D01*
X1123245D01*
X1128324D01*
X1125784D01*
Y-15236D01*
X1128324Y-17775D01*
X1135941Y-7618D02*
Y-17775D01*
Y-12697D01*
X1138480Y-10158D01*
X1141020Y-7618D01*
X1143559D01*
X1151176Y-17775D02*
X1156255D01*
X1153715D01*
Y-7618D01*
X1151176D01*
X1163872Y-2540D02*
Y-17775D01*
X1171490D01*
X1174029Y-15236D01*
Y-12697D01*
Y-10158D01*
X1171490Y-7618D01*
X1163872D01*
X1179107D02*
Y-15236D01*
X1181646Y-17775D01*
X1189264D01*
Y-7618D01*
X1196881Y-5079D02*
Y-7618D01*
X1194342D01*
X1199421D01*
X1196881D01*
Y-15236D01*
X1199421Y-17775D01*
X1207038D02*
X1212116D01*
X1209577D01*
Y-7618D01*
X1207038D01*
X1222273Y-17775D02*
X1227352D01*
X1229891Y-15236D01*
Y-10158D01*
X1227352Y-7618D01*
X1222273D01*
X1219734Y-10158D01*
Y-15236D01*
X1222273Y-17775D01*
X1234969D02*
Y-7618D01*
X1242587D01*
X1245126Y-10158D01*
Y-17775D01*
X1250204D02*
X1257822D01*
X1260361Y-15236D01*
X1257822Y-12697D01*
X1252743D01*
X1250204Y-10158D01*
X1252743Y-7618D01*
X1260361D01*
X1280674D02*
Y-15236D01*
X1283214Y-17775D01*
X1290831D01*
Y-7618D01*
X1295909Y-17775D02*
Y-7618D01*
X1303527D01*
X1306066Y-10158D01*
Y-17775D01*
X1321301Y-2540D02*
Y-17775D01*
X1313684D01*
X1311144Y-15236D01*
Y-10158D01*
X1313684Y-7618D01*
X1321301D01*
X1333997Y-17775D02*
X1328919D01*
X1326380Y-15236D01*
Y-10158D01*
X1328919Y-7618D01*
X1333997D01*
X1336536Y-10158D01*
Y-12697D01*
X1326380D01*
X1341615Y-7618D02*
Y-17775D01*
Y-12697D01*
X1344154Y-10158D01*
X1346693Y-7618D01*
X1349232D01*
X1374624Y-5079D02*
Y-7618D01*
X1372085D01*
X1377163D01*
X1374624D01*
Y-15236D01*
X1377163Y-17775D01*
X1384781Y-2540D02*
Y-17775D01*
Y-10158D01*
X1387320Y-7618D01*
X1392398D01*
X1394937Y-10158D01*
Y-17775D01*
X1407633D02*
X1402555D01*
X1400016Y-15236D01*
Y-10158D01*
X1402555Y-7618D01*
X1407633D01*
X1410172Y-10158D01*
Y-12697D01*
X1400016D01*
X1430486Y-17775D02*
X1438103D01*
X1440643Y-15236D01*
X1438103Y-12697D01*
X1433025D01*
X1430486Y-10158D01*
X1433025Y-7618D01*
X1440643D01*
X1448260D02*
X1453338D01*
X1455878Y-10158D01*
Y-17775D01*
X1448260D01*
X1445721Y-15236D01*
X1448260Y-12697D01*
X1455878D01*
X1460956Y-17775D02*
Y-7618D01*
X1463495D01*
X1466034Y-10158D01*
Y-17775D01*
Y-10158D01*
X1468573Y-7618D01*
X1471113Y-10158D01*
Y-17775D01*
X1483809D02*
X1478730D01*
X1476191Y-15236D01*
Y-10158D01*
X1478730Y-7618D01*
X1483809D01*
X1486348Y-10158D01*
Y-12697D01*
X1476191D01*
X1506661Y-17775D02*
X1511740D01*
X1509200D01*
Y-2540D01*
X1506661D01*
X1519357Y-17775D02*
X1524435D01*
X1521896D01*
Y-7618D01*
X1519357D01*
X1542210D02*
X1534592D01*
X1532053Y-10158D01*
Y-15236D01*
X1534592Y-17775D01*
X1542210D01*
X1554906D02*
X1549827D01*
X1547288Y-15236D01*
Y-10158D01*
X1549827Y-7618D01*
X1554906D01*
X1557445Y-10158D01*
Y-12697D01*
X1547288D01*
X1562523Y-17775D02*
Y-7618D01*
X1570141D01*
X1572680Y-10158D01*
Y-17775D01*
X1577758D02*
X1585376D01*
X1587915Y-15236D01*
X1585376Y-12697D01*
X1580297D01*
X1577758Y-10158D01*
X1580297Y-7618D01*
X1587915D01*
X1600611Y-17775D02*
X1595532D01*
X1592993Y-15236D01*
Y-10158D01*
X1595532Y-7618D01*
X1600611D01*
X1603150Y-10158D01*
Y-12697D01*
X1592993D01*
X1626003Y-7618D02*
X1631081D01*
X1633620Y-10158D01*
Y-17775D01*
X1626003D01*
X1623463Y-15236D01*
X1626003Y-12697D01*
X1633620D01*
X1638698Y-17775D02*
X1646316D01*
X1648855Y-15236D01*
X1646316Y-12697D01*
X1641238D01*
X1638698Y-10158D01*
X1641238Y-7618D01*
X1648855D01*
X1671708Y-5079D02*
Y-7618D01*
X1669169D01*
X1674247D01*
X1671708D01*
Y-15236D01*
X1674247Y-17775D01*
X1681864Y-2540D02*
Y-17775D01*
Y-10158D01*
X1684404Y-7618D01*
X1689482D01*
X1692021Y-10158D01*
Y-17775D01*
X1704717D02*
X1699639D01*
X1697100Y-15236D01*
Y-10158D01*
X1699639Y-7618D01*
X1704717D01*
X1707256Y-10158D01*
Y-12697D01*
X1697100D01*
X1730109Y-17775D02*
X1735187D01*
X1737726Y-15236D01*
Y-10158D01*
X1735187Y-7618D01*
X1730109D01*
X1727570Y-10158D01*
Y-15236D01*
X1730109Y-17775D01*
X1742805Y-7618D02*
Y-17775D01*
Y-12697D01*
X1745344Y-10158D01*
X1747883Y-7618D01*
X1750422D01*
X1758040Y-17775D02*
X1763118D01*
X1760579D01*
Y-7618D01*
X1758040D01*
X1775814Y-22853D02*
X1778353D01*
X1780892Y-20314D01*
Y-7618D01*
X1773275D01*
X1770736Y-10158D01*
Y-15236D01*
X1773275Y-17775D01*
X1780892D01*
X1785971D02*
X1791049D01*
X1788510D01*
Y-7618D01*
X1785971D01*
X1798667Y-17775D02*
Y-7618D01*
X1806284D01*
X1808823Y-10158D01*
Y-17775D01*
X1816441Y-7618D02*
X1821519D01*
X1824059Y-10158D01*
Y-17775D01*
X1816441D01*
X1813902Y-15236D01*
X1816441Y-12697D01*
X1824059D01*
X1829137Y-17775D02*
X1834215D01*
X1831676D01*
Y-2540D01*
X1829137D01*
X1841833Y-17775D02*
Y-15236D01*
X1844372D01*
Y-17775D01*
X1841833D01*
X1087697Y19921D02*
X1085157Y22460D01*
X1080079D01*
X1077540Y19921D01*
Y17382D01*
X1080079Y14842D01*
X1085157D01*
X1087697Y12303D01*
Y9764D01*
X1085157Y7225D01*
X1080079D01*
X1077540Y9764D01*
X1092775Y22460D02*
Y7225D01*
Y14842D01*
X1095314Y17382D01*
X1100393D01*
X1102932Y14842D01*
Y7225D01*
X1110549Y17382D02*
X1115628D01*
X1118167Y14842D01*
Y7225D01*
X1110549D01*
X1108010Y9764D01*
X1110549Y12303D01*
X1118167D01*
X1123245Y17382D02*
Y7225D01*
Y12303D01*
X1125784Y14842D01*
X1128324Y17382D01*
X1130863D01*
X1146098Y7225D02*
X1141020D01*
X1138480Y9764D01*
Y14842D01*
X1141020Y17382D01*
X1146098D01*
X1148637Y14842D01*
Y12303D01*
X1138480D01*
X1153715Y7225D02*
Y17382D01*
X1158794Y22460D01*
X1163872Y17382D01*
Y7225D01*
Y14842D01*
X1153715D01*
X1168950Y7225D02*
X1174029D01*
X1171490D01*
Y22460D01*
X1168950D01*
X1181646Y7225D02*
X1186725D01*
X1184185D01*
Y17382D01*
X1181646D01*
X1194342Y7225D02*
Y22460D01*
Y12303D02*
X1201960Y17382D01*
X1194342Y12303D02*
X1201960Y7225D01*
X1217195D02*
X1212116D01*
X1209577Y9764D01*
Y14842D01*
X1212116Y17382D01*
X1217195D01*
X1219734Y14842D01*
Y12303D01*
X1209577D01*
X1240047Y14842D02*
X1250204D01*
X1270518Y22460D02*
X1275596D01*
X1273057D01*
Y7225D01*
X1270518D01*
X1275596D01*
X1285753D02*
Y19921D01*
Y14842D01*
X1283214D01*
X1288292D01*
X1285753D01*
Y19921D01*
X1288292Y22460D01*
X1311144Y17382D02*
Y9764D01*
X1313684Y7225D01*
X1321301D01*
Y4686D01*
X1318762Y2147D01*
X1316223D01*
X1321301Y7225D02*
Y17382D01*
X1328919Y7225D02*
X1333997D01*
X1336536Y9764D01*
Y14842D01*
X1333997Y17382D01*
X1328919D01*
X1326380Y14842D01*
Y9764D01*
X1328919Y7225D01*
X1341615Y17382D02*
Y9764D01*
X1344154Y7225D01*
X1351771D01*
Y17382D01*
X1372085D02*
Y7225D01*
Y12303D01*
X1374624Y14842D01*
X1377163Y17382D01*
X1379702D01*
X1394937Y7225D02*
X1389859D01*
X1387320Y9764D01*
Y14842D01*
X1389859Y17382D01*
X1394937D01*
X1397477Y14842D01*
Y12303D01*
X1387320D01*
X1402555Y7225D02*
Y17382D01*
X1405094D01*
X1407633Y14842D01*
Y7225D01*
Y14842D01*
X1410172Y17382D01*
X1412712Y14842D01*
Y7225D01*
X1417790D02*
X1422868D01*
X1420329D01*
Y17382D01*
X1417790D01*
X1430486D02*
X1440643Y7225D01*
X1435564Y12303D01*
X1440643Y17382D01*
X1430486Y7225D01*
X1448260Y4686D02*
X1450799Y7225D01*
Y9764D01*
X1448260D01*
Y7225D01*
X1450799D01*
X1448260Y4686D01*
X1445721Y2147D01*
X1478730Y19921D02*
Y17382D01*
X1476191D01*
X1481269D01*
X1478730D01*
Y9764D01*
X1481269Y7225D01*
X1488887Y17382D02*
Y7225D01*
Y12303D01*
X1491426Y14842D01*
X1493965Y17382D01*
X1496504D01*
X1506661D02*
X1511740D01*
X1514279Y14842D01*
Y7225D01*
X1506661D01*
X1504122Y9764D01*
X1506661Y12303D01*
X1514279D01*
X1519357Y7225D02*
Y17382D01*
X1526975D01*
X1529514Y14842D01*
Y7225D01*
X1534592D02*
X1542210D01*
X1544749Y9764D01*
X1542210Y12303D01*
X1537131D01*
X1534592Y14842D01*
X1537131Y17382D01*
X1544749D01*
X1552366Y7225D02*
Y19921D01*
Y14842D01*
X1549827D01*
X1554906D01*
X1552366D01*
Y19921D01*
X1554906Y22460D01*
X1565062Y7225D02*
X1570141D01*
X1572680Y9764D01*
Y14842D01*
X1570141Y17382D01*
X1565062D01*
X1562523Y14842D01*
Y9764D01*
X1565062Y7225D01*
X1577758Y17382D02*
Y7225D01*
Y12303D01*
X1580297Y14842D01*
X1582836Y17382D01*
X1585376D01*
X1592993Y7225D02*
Y17382D01*
X1595532D01*
X1598072Y14842D01*
Y7225D01*
Y14842D01*
X1600611Y17382D01*
X1603150Y14842D01*
Y7225D01*
X1610768Y4686D02*
X1613307Y7225D01*
Y9764D01*
X1610768D01*
Y7225D01*
X1613307D01*
X1610768Y4686D01*
X1608228Y2147D01*
X1641238Y7225D02*
X1646316D01*
X1648855Y9764D01*
Y14842D01*
X1646316Y17382D01*
X1641238D01*
X1638698Y14842D01*
Y9764D01*
X1641238Y7225D01*
X1653934Y17382D02*
Y7225D01*
Y12303D01*
X1656473Y14842D01*
X1659012Y17382D01*
X1661551D01*
X1684404Y22460D02*
Y7225D01*
X1692021D01*
X1694560Y9764D01*
Y12303D01*
Y14842D01*
X1692021Y17382D01*
X1684404D01*
X1699639D02*
Y9764D01*
X1702178Y7225D01*
X1709796D01*
Y17382D01*
X1714874Y7225D02*
X1719952D01*
X1717413D01*
Y17382D01*
X1714874D01*
X1727570Y7225D02*
X1732648D01*
X1730109D01*
Y22460D01*
X1727570D01*
X1750422D02*
Y7225D01*
X1742805D01*
X1740266Y9764D01*
Y14842D01*
X1742805Y17382D01*
X1750422D01*
X1770736D02*
Y9764D01*
X1773275Y7225D01*
X1780892D01*
Y17382D01*
X1785971Y2147D02*
Y17382D01*
X1793588D01*
X1796127Y14842D01*
Y9764D01*
X1793588Y7225D01*
X1785971D01*
X1803745D02*
X1808823D01*
X1811363Y9764D01*
Y14842D01*
X1808823Y17382D01*
X1803745D01*
X1801206Y14842D01*
Y9764D01*
X1803745Y7225D01*
X1816441D02*
Y17382D01*
X1824059D01*
X1826598Y14842D01*
Y7225D01*
X1849450Y19921D02*
Y17382D01*
X1846911D01*
X1851989D01*
X1849450D01*
Y9764D01*
X1851989Y7225D01*
X1859607Y22460D02*
Y7225D01*
Y14842D01*
X1862146Y17382D01*
X1867224D01*
X1869764Y14842D01*
Y7225D01*
X1882460D02*
X1877381D01*
X1874842Y9764D01*
Y14842D01*
X1877381Y17382D01*
X1882460D01*
X1884999Y14842D01*
Y12303D01*
X1874842D01*
X1905312Y7225D02*
Y17382D01*
X1907851D01*
X1910390Y14842D01*
Y7225D01*
Y14842D01*
X1912930Y17382D01*
X1915469Y14842D01*
Y7225D01*
X1923087Y17382D02*
X1928165D01*
X1930704Y14842D01*
Y7225D01*
X1923087D01*
X1920547Y9764D01*
X1923087Y12303D01*
X1930704D01*
X1938322Y19921D02*
Y17382D01*
X1935782D01*
X1940861D01*
X1938322D01*
Y9764D01*
X1940861Y7225D01*
X1956096D02*
X1951017D01*
X1948478Y9764D01*
Y14842D01*
X1951017Y17382D01*
X1956096D01*
X1958635Y14842D01*
Y12303D01*
X1948478D01*
X1963713Y17382D02*
Y7225D01*
Y12303D01*
X1966252Y14842D01*
X1968792Y17382D01*
X1971331D01*
X1978948Y7225D02*
X1984027D01*
X1981488D01*
Y17382D01*
X1978948D01*
X1994183D02*
X1999262D01*
X2001801Y14842D01*
Y7225D01*
X1994183D01*
X1991644Y9764D01*
X1994183Y12303D01*
X2001801D01*
X2006879Y7225D02*
X2011958D01*
X2009418D01*
Y22460D01*
X2006879D01*
X2022114Y4686D02*
X2024654Y7225D01*
Y9764D01*
X2022114D01*
Y7225D01*
X2024654D01*
X2022114Y4686D01*
X2019575Y2147D01*
X2050045Y17382D02*
Y9764D01*
X2052585Y7225D01*
X2060202D01*
Y4686D01*
X2057663Y2147D01*
X2055124D01*
X2060202Y7225D02*
Y17382D01*
X2067820Y7225D02*
X2072898D01*
X2075437Y9764D01*
Y14842D01*
X2072898Y17382D01*
X2067820D01*
X2065280Y14842D01*
Y9764D01*
X2067820Y7225D01*
X2080515Y17382D02*
Y9764D01*
X2083055Y7225D01*
X2090672D01*
Y17382D01*
X2110986Y7225D02*
Y17382D01*
X2113525D01*
X2116064Y14842D01*
Y7225D01*
Y14842D01*
X2118603Y17382D01*
X2121142Y14842D01*
Y7225D01*
X2126221Y17382D02*
Y9764D01*
X2128760Y7225D01*
X2136377D01*
Y17382D01*
X2141456Y7225D02*
X2149073D01*
X2151613Y9764D01*
X2149073Y12303D01*
X2143995D01*
X2141456Y14842D01*
X2143995Y17382D01*
X2151613D01*
X2159230Y19921D02*
Y17382D01*
X2156691D01*
X2161769D01*
X2159230D01*
Y9764D01*
X2161769Y7225D01*
X2194778Y22460D02*
Y7225D01*
X2187161D01*
X2184622Y9764D01*
Y14842D01*
X2187161Y17382D01*
X2194778D01*
X2199857Y7225D02*
X2204935D01*
X2202396D01*
Y17382D01*
X2199857D01*
X2212553Y7225D02*
X2220170D01*
X2222710Y9764D01*
X2220170Y12303D01*
X2215092D01*
X2212553Y14842D01*
X2215092Y17382D01*
X2222710D01*
X2230327Y19921D02*
Y17382D01*
X2227788D01*
X2232866D01*
X2230327D01*
Y9764D01*
X2232866Y7225D01*
X2240484Y17382D02*
Y7225D01*
Y12303D01*
X2243023Y14842D01*
X2245562Y17382D01*
X2248101D01*
X2255719Y7225D02*
X2260797D01*
X2258258D01*
Y17382D01*
X2255719D01*
X2268415Y22460D02*
Y7225D01*
X2276032D01*
X2278571Y9764D01*
Y12303D01*
Y14842D01*
X2276032Y17382D01*
X2268415D01*
X2283650D02*
Y9764D01*
X2286189Y7225D01*
X2293806D01*
Y17382D01*
X2301424Y19921D02*
Y17382D01*
X2298885D01*
X2303963D01*
X2301424D01*
Y9764D01*
X2303963Y7225D01*
X2319198D02*
X2314120D01*
X2311581Y9764D01*
Y14842D01*
X2314120Y17382D01*
X2319198D01*
X2321737Y14842D01*
Y12303D01*
X2311581D01*
X2342051Y17382D02*
Y9764D01*
X2344590Y7225D01*
X2352208D01*
Y4686D01*
X2349668Y2147D01*
X2347129D01*
X2352208Y7225D02*
Y17382D01*
X2359825Y7225D02*
X2364904D01*
X2367443Y9764D01*
Y14842D01*
X2364904Y17382D01*
X2359825D01*
X2357286Y14842D01*
Y9764D01*
X2359825Y7225D01*
X2372521Y17382D02*
Y9764D01*
X2375060Y7225D01*
X2382678D01*
Y17382D01*
X2387756D02*
Y7225D01*
Y12303D01*
X2390295Y14842D01*
X2392834Y17382D01*
X2395374D01*
X1077000Y321235D02*
Y318696D01*
X1082078Y313617D01*
X1087157Y318696D01*
Y321235D01*
X1082078Y313617D02*
Y306000D01*
X1094774D02*
X1099853D01*
X1102392Y308539D01*
Y313617D01*
X1099853Y316157D01*
X1094774D01*
X1092235Y313617D01*
Y308539D01*
X1094774Y306000D01*
X1107470Y316157D02*
Y308539D01*
X1110009Y306000D01*
X1117627D01*
Y316157D01*
X1140480D02*
X1145558D01*
X1148097Y313617D01*
Y306000D01*
X1140480D01*
X1137940Y308539D01*
X1140480Y311078D01*
X1148097D01*
X1153175Y316157D02*
Y306000D01*
Y311078D01*
X1155715Y313617D01*
X1158254Y316157D01*
X1160793D01*
X1176028Y306000D02*
X1170950D01*
X1168410Y308539D01*
Y313617D01*
X1170950Y316157D01*
X1176028D01*
X1178567Y313617D01*
Y311078D01*
X1168410D01*
X1201420Y306000D02*
Y318696D01*
Y313617D01*
X1198881D01*
X1203959D01*
X1201420D01*
Y318696D01*
X1203959Y321235D01*
X1211577Y316157D02*
Y306000D01*
Y311078D01*
X1214116Y313617D01*
X1216655Y316157D01*
X1219194D01*
X1234429Y306000D02*
X1229351D01*
X1226812Y308539D01*
Y313617D01*
X1229351Y316157D01*
X1234429D01*
X1236968Y313617D01*
Y311078D01*
X1226812D01*
X1249664Y306000D02*
X1244586D01*
X1242047Y308539D01*
Y313617D01*
X1244586Y316157D01*
X1249664D01*
X1252203Y313617D01*
Y311078D01*
X1242047D01*
X1275056Y318696D02*
Y316157D01*
X1272517D01*
X1277595D01*
X1275056D01*
Y308539D01*
X1277595Y306000D01*
X1287752D02*
X1292830D01*
X1295369Y308539D01*
Y313617D01*
X1292830Y316157D01*
X1287752D01*
X1285213Y313617D01*
Y308539D01*
X1287752Y306000D01*
X1300448Y316157D02*
X1302987D01*
Y313617D01*
X1300448D01*
Y316157D01*
Y308539D02*
X1302987D01*
Y306000D01*
X1300448D01*
Y308539D01*
X1075000Y-334765D02*
Y-350000D01*
X1082617D01*
X1085157Y-347461D01*
Y-344922D01*
X1082617Y-342383D01*
X1075000D01*
X1082617D01*
X1085157Y-339843D01*
Y-337304D01*
X1082617Y-334765D01*
X1075000D01*
X1092774Y-339843D02*
X1097853D01*
X1100392Y-342383D01*
Y-350000D01*
X1092774D01*
X1090235Y-347461D01*
X1092774Y-344922D01*
X1100392D01*
X1105470Y-350000D02*
X1113088D01*
X1115627Y-347461D01*
X1113088Y-344922D01*
X1108009D01*
X1105470Y-342383D01*
X1108009Y-339843D01*
X1115627D01*
X1128323Y-350000D02*
X1123244D01*
X1120705Y-347461D01*
Y-342383D01*
X1123244Y-339843D01*
X1128323D01*
X1130862Y-342383D01*
Y-344922D01*
X1120705D01*
X1146097Y-334765D02*
Y-350000D01*
X1138480D01*
X1135940Y-347461D01*
Y-342383D01*
X1138480Y-339843D01*
X1146097D01*
X1168950Y-350000D02*
X1174028D01*
X1176567Y-347461D01*
Y-342383D01*
X1174028Y-339843D01*
X1168950D01*
X1166410Y-342383D01*
Y-347461D01*
X1168950Y-350000D01*
X1181646D02*
Y-339843D01*
X1189263D01*
X1191802Y-342383D01*
Y-350000D01*
X1212116D02*
Y-339843D01*
X1217194Y-334765D01*
X1222272Y-339843D01*
Y-350000D01*
Y-342383D01*
X1212116D01*
X1227351Y-339843D02*
Y-350000D01*
Y-344922D01*
X1229890Y-342383D01*
X1232429Y-339843D01*
X1234968D01*
X1252742Y-334765D02*
Y-350000D01*
X1245125D01*
X1242586Y-347461D01*
Y-342383D01*
X1245125Y-339843D01*
X1252742D01*
X1257821D02*
Y-347461D01*
X1260360Y-350000D01*
X1267978D01*
Y-339843D01*
X1273056Y-350000D02*
X1278134D01*
X1275595D01*
Y-339843D01*
X1273056D01*
X1285752Y-350000D02*
Y-339843D01*
X1293369D01*
X1295909Y-342383D01*
Y-350000D01*
X1303526D02*
X1308604D01*
X1311144Y-347461D01*
Y-342383D01*
X1308604Y-339843D01*
X1303526D01*
X1300987Y-342383D01*
Y-347461D01*
X1303526Y-350000D01*
X1316222Y-339843D02*
X1318761D01*
Y-342383D01*
X1316222D01*
Y-339843D01*
Y-347461D02*
X1318761D01*
Y-350000D01*
X1316222D01*
Y-347461D01*
X1344153Y-334765D02*
Y-350000D01*
Y-342383D01*
X1346692Y-339843D01*
X1351770D01*
X1354310Y-342383D01*
Y-350000D01*
X1361927Y-337304D02*
Y-339843D01*
X1359388D01*
X1364466D01*
X1361927D01*
Y-347461D01*
X1364466Y-350000D01*
X1374623Y-337304D02*
Y-339843D01*
X1372084D01*
X1377162D01*
X1374623D01*
Y-347461D01*
X1377162Y-350000D01*
X1384780Y-355078D02*
Y-339843D01*
X1392397D01*
X1394937Y-342383D01*
Y-347461D01*
X1392397Y-350000D01*
X1384780D01*
X1400015Y-339843D02*
X1402554D01*
Y-342383D01*
X1400015D01*
Y-339843D01*
Y-347461D02*
X1402554D01*
Y-350000D01*
X1400015D01*
Y-347461D01*
X1412711Y-350000D02*
X1422867Y-339843D01*
X1427946Y-350000D02*
X1438103Y-339843D01*
X1443181D02*
Y-347461D01*
X1445720Y-350000D01*
X1448259Y-347461D01*
X1450798Y-350000D01*
X1453338Y-347461D01*
Y-339843D01*
X1458416D02*
Y-347461D01*
X1460955Y-350000D01*
X1463494Y-347461D01*
X1466033Y-350000D01*
X1468573Y-347461D01*
Y-339843D01*
X1473651D02*
Y-347461D01*
X1476190Y-350000D01*
X1478729Y-347461D01*
X1481269Y-350000D01*
X1483808Y-347461D01*
Y-339843D01*
X1488886Y-350000D02*
Y-347461D01*
X1491425D01*
Y-350000D01*
X1488886D01*
X1504121Y-339843D02*
X1509200D01*
X1511739Y-342383D01*
Y-350000D01*
X1504121D01*
X1501582Y-347461D01*
X1504121Y-344922D01*
X1511739D01*
X1516817Y-339843D02*
Y-350000D01*
Y-344922D01*
X1519356Y-342383D01*
X1521895Y-339843D01*
X1524435D01*
X1542209Y-334765D02*
Y-350000D01*
X1534591D01*
X1532052Y-347461D01*
Y-342383D01*
X1534591Y-339843D01*
X1542209D01*
X1547287D02*
Y-347461D01*
X1549826Y-350000D01*
X1557444D01*
Y-339843D01*
X1562522Y-350000D02*
X1567601D01*
X1565061D01*
Y-339843D01*
X1562522D01*
X1575218Y-350000D02*
Y-339843D01*
X1582836D01*
X1585375Y-342383D01*
Y-350000D01*
X1592992D02*
X1598071D01*
X1600610Y-347461D01*
Y-342383D01*
X1598071Y-339843D01*
X1592992D01*
X1590453Y-342383D01*
Y-347461D01*
X1592992Y-350000D01*
X1605688D02*
Y-347461D01*
X1608228D01*
Y-350000D01*
X1605688D01*
X1628541Y-339843D02*
X1620923D01*
X1618384Y-342383D01*
Y-347461D01*
X1620923Y-350000D01*
X1628541D01*
X1643776Y-339843D02*
X1636158D01*
X1633619Y-342383D01*
Y-347461D01*
X1636158Y-350000D01*
X1643776D01*
X1648854D02*
X1659011Y-339843D01*
M02*
