%FSLAX44Y44*%
%MOMM*%
G71*
G01*
G75*
G04 Layer_Physical_Order=1*
G04 Layer_Color=255*
%ADD10R,2.5000X2.6000*%
%ADD11R,2.7000X2.0000*%
%ADD12R,1.6000X3.0000*%
%ADD13R,1.3000X0.7000*%
%ADD14R,0.9000X1.3000*%
%ADD15R,0.7000X1.3000*%
%ADD16R,1.5000X0.5000*%
%ADD17R,0.5000X1.5000*%
%ADD18R,1.3000X0.9000*%
%ADD19R,0.8000X0.8000*%
%ADD20R,0.5588X0.6858*%
%ADD21R,0.6858X0.5588*%
%ADD22C,1.0160*%
%ADD23R,1.4000X1.6000*%
%ADD24R,1.9000X1.9000*%
%ADD25R,1.3500X0.4000*%
%ADD26R,1.0000X0.5500*%
%ADD27R,0.5500X1.0000*%
%ADD28R,0.9000X0.6000*%
%ADD29R,0.6000X2.2000*%
%ADD30R,3.5000X2.2000*%
%ADD31R,2.6000X2.5000*%
%ADD32C,0.2000*%
%ADD33C,0.6000*%
%ADD34C,0.8000*%
%ADD35C,0.5000*%
%ADD36C,0.4000*%
%ADD37C,1.0000*%
%ADD38C,0.9000*%
%ADD39R,1.6000X2.0000*%
%ADD40O,1.6000X2.0000*%
%ADD41R,1.7000X1.7000*%
%ADD42C,1.7000*%
%ADD43O,2.0000X1.6000*%
%ADD44R,2.0000X1.6000*%
G04:AMPARAMS|DCode=45|XSize=2mm|YSize=1.2mm|CornerRadius=0.36mm|HoleSize=0mm|Usage=FLASHONLY|Rotation=0.000|XOffset=0mm|YOffset=0mm|HoleType=Round|Shape=RoundedRectangle|*
%AMROUNDEDRECTD45*
21,1,2.0000,0.4800,0,0,0.0*
21,1,1.2800,1.2000,0,0,0.0*
1,1,0.7200,0.6400,-0.2400*
1,1,0.7200,-0.6400,-0.2400*
1,1,0.7200,-0.6400,0.2400*
1,1,0.7200,0.6400,0.2400*
%
%ADD45ROUNDEDRECTD45*%
%ADD46C,4.0000*%
%ADD47C,7.4000*%
%ADD48C,3.2000*%
%ADD49R,1.9000X1.9000*%
%ADD50C,1.9000*%
%ADD51C,0.6000*%
G36*
X370000Y52000D02*
Y43898D01*
X369102Y43000D01*
X364000Y43000D01*
Y16000D01*
X347000D01*
Y28000D01*
X332000Y43000D01*
Y51102D01*
X332898Y52000D01*
X370000Y52000D01*
D02*
G37*
G36*
X482000Y107000D02*
X498000Y91000D01*
X498000Y74000D01*
Y56220D01*
X491780Y50000D01*
X479000D01*
Y84183D01*
X479652Y85159D01*
X479774Y85774D01*
X480000Y86000D01*
X481000Y87000D01*
Y91000D01*
Y95000D01*
X478000Y98000D01*
Y106000D01*
Y107000D01*
X481000D01*
X482000Y107000D01*
D02*
G37*
G36*
X431000Y126000D02*
Y115000D01*
X434780Y111220D01*
Y88000D01*
X453000D01*
Y76000D01*
X431002Y76000D01*
X431002Y74898D01*
X430103Y74000D01*
X422898Y74000D01*
X422000Y74898D01*
X422000Y104000D01*
X415000Y111000D01*
X408000Y118000D01*
X408000Y137000D01*
X415000Y137000D01*
X431000D01*
Y126000D01*
D02*
G37*
G36*
X419000Y68500D02*
Y68500D01*
X434000D01*
X435000Y67848D01*
X435000Y55000D01*
Y42000D01*
X436000Y41000D01*
X440000Y37000D01*
Y15000D01*
X401000D01*
Y37000D01*
Y61000D01*
X406000D01*
X413000Y68000D01*
X414000Y69000D01*
X418500Y69000D01*
X419000Y68500D01*
D02*
G37*
G36*
X43000Y35000D02*
X79000D01*
Y3000D01*
X3000D01*
Y71000D01*
X43000D01*
Y35000D01*
D02*
G37*
G36*
X349160Y62000D02*
X331840D01*
X328840Y59000D01*
X327000Y57160D01*
Y45000D01*
Y42000D01*
X318000Y33000D01*
Y23000D01*
Y15000D01*
X297000D01*
X296840Y15160D01*
Y52000D01*
X314160D01*
X317160Y55000D01*
Y61000D01*
Y74000D01*
X349160D01*
Y62000D01*
D02*
G37*
G36*
X362000Y87000D02*
X386000D01*
X391000Y82000D01*
Y63000D01*
Y43000D01*
X393000Y41000D01*
X394000Y40000D01*
Y38400D01*
Y15000D01*
X373000D01*
Y37000D01*
Y39000D01*
X374000Y40000D01*
X375000Y41000D01*
Y45000D01*
Y60000D01*
X378000Y63000D01*
X381000Y66000D01*
Y68409D01*
X381118Y69000D01*
X381000Y69591D01*
Y70000D01*
Y72000D01*
X378000Y75000D01*
X377000Y76000D01*
X355000D01*
X351000Y80000D01*
X349000Y82000D01*
X331000D01*
Y91000D01*
X358000D01*
X362000Y87000D01*
D02*
G37*
G36*
X643000Y403000D02*
X683000D01*
Y390000D01*
Y296000D01*
X592000D01*
X586000Y302000D01*
Y309000D01*
Y310000D01*
X591000Y315000D01*
Y327000D01*
Y335000D01*
X604000D01*
Y376000D01*
X560000D01*
Y403000D01*
X629000D01*
Y416000D01*
X643000D01*
Y403000D01*
D02*
G37*
G36*
X422000Y368000D02*
X400000D01*
Y383000D01*
Y493000D01*
X422000D01*
Y368000D01*
D02*
G37*
G36*
X101000Y434000D02*
X113000Y422000D01*
X132037D01*
X132922Y420730D01*
X132905Y420600D01*
X133000Y419879D01*
Y403000D01*
X90000D01*
Y412000D01*
Y419780D01*
X86000Y423780D01*
X84780Y425000D01*
X39220D01*
X38000Y423780D01*
X34000Y419780D01*
Y415000D01*
Y403000D01*
X14000D01*
Y437000D01*
X33000D01*
X35000Y439000D01*
X37000Y441000D01*
X94000D01*
X101000Y434000D01*
D02*
G37*
G36*
X151000Y103000D02*
X136000D01*
X135000Y102000D01*
X124000Y91000D01*
Y78000D01*
X107000D01*
Y119000D01*
X120000D01*
X121000Y120000D01*
X130000Y129000D01*
Y129000D01*
X146541D01*
X147000Y128940D01*
X147459Y129000D01*
X151000D01*
Y103000D01*
D02*
G37*
G36*
X54000Y229317D02*
X53348Y228341D01*
X52882Y226000D01*
X52886Y225982D01*
X52080Y225000D01*
X38500D01*
Y210500D01*
X38000Y210000D01*
Y190000D01*
X39000D01*
Y189500D01*
X55889D01*
X56000Y189389D01*
Y175000D01*
Y174000D01*
X63000Y167000D01*
X66000Y164000D01*
X105000D01*
Y181000D01*
X115000D01*
X124000Y190000D01*
X148729D01*
X149747Y189319D01*
X151893Y188892D01*
X171000D01*
X173146Y189319D01*
X174165Y190000D01*
X178000D01*
Y174032D01*
X177848Y173804D01*
X177382Y171463D01*
Y167382D01*
X173118Y163118D01*
X146000D01*
X145409Y163000D01*
X142000D01*
X136000Y157000D01*
X128000Y149000D01*
Y136000D01*
Y132000D01*
X126000Y130000D01*
X124000Y128000D01*
X105000D01*
X104000Y127000D01*
Y119296D01*
X103941Y119000D01*
Y78000D01*
X104000Y77705D01*
Y74000D01*
X192000D01*
Y77705D01*
X192059Y78000D01*
Y82681D01*
X192019Y82879D01*
X192033Y83080D01*
X192000Y83328D01*
Y83672D01*
X192033Y83920D01*
X192019Y84121D01*
X192059Y84319D01*
Y88059D01*
X196000Y92000D01*
X215000Y92000D01*
X215000Y81000D01*
Y69000D01*
X204000D01*
Y29000D01*
X215000D01*
Y3000D01*
X98000D01*
Y26000D01*
Y46000D01*
X61000D01*
Y75000D01*
Y82941D01*
X81000D01*
X81296Y83000D01*
X84000Y83000D01*
Y85705D01*
X84059Y86000D01*
X84059Y91062D01*
X91000Y98326D01*
Y99703D01*
X91059Y100000D01*
X91059Y100000D01*
X91059Y123000D01*
X91000Y123295D01*
X91000Y127000D01*
X82000Y127000D01*
X46000D01*
X36000Y117000D01*
X32000Y113000D01*
X3000D01*
Y241000D01*
X54000D01*
Y229317D01*
D02*
G37*
G36*
X88000Y123000D02*
X88000Y100000D01*
X81000Y93000D01*
X81000Y86000D01*
X3000D01*
Y108000D01*
X35000D01*
X37000Y110000D01*
X42000Y115000D01*
X80000D01*
Y122102D01*
X80898Y123000D01*
X88000Y123000D01*
D02*
G37*
G36*
X198000Y110000D02*
X215000D01*
Y96000D01*
X202319D01*
X201500Y96108D01*
X200681Y96000D01*
X189000D01*
Y84319D01*
X188892Y83500D01*
X189000Y82681D01*
Y78000D01*
X159000D01*
Y98000D01*
X169000D01*
Y128000D01*
X198000D01*
Y110000D01*
D02*
G37*
D10*
X459500Y287000D02*
D03*
X410500D02*
D03*
D11*
X21000Y96000D02*
D03*
Y64000D02*
D03*
D12*
X71000Y142500D02*
D03*
Y101500D02*
D03*
Y20500D02*
D03*
Y61500D02*
D03*
D13*
X339000Y86500D02*
D03*
Y67500D02*
D03*
X173000Y406500D02*
D03*
Y387500D02*
D03*
X90000Y261500D02*
D03*
Y280500D02*
D03*
X221000Y289500D02*
D03*
Y270500D02*
D03*
X611000Y474500D02*
D03*
Y455500D02*
D03*
X582000Y474500D02*
D03*
Y455500D02*
D03*
X636000Y412500D02*
D03*
Y431500D02*
D03*
X666000Y206500D02*
D03*
Y187500D02*
D03*
X32000Y297500D02*
D03*
Y278500D02*
D03*
X666000Y222500D02*
D03*
Y241500D02*
D03*
X274000Y48500D02*
D03*
Y67500D02*
D03*
X249000Y143500D02*
D03*
Y162500D02*
D03*
X645000Y222500D02*
D03*
Y241500D02*
D03*
X339000Y67500D02*
D03*
Y48500D02*
D03*
D14*
X596000Y328000D02*
D03*
X577000D02*
D03*
X125500Y236000D02*
D03*
X144500D02*
D03*
X243500Y349000D02*
D03*
X262500D02*
D03*
X243500Y247000D02*
D03*
X262500D02*
D03*
X39500Y522000D02*
D03*
X20500D02*
D03*
X262500Y482500D02*
D03*
X243500D02*
D03*
X464500Y78000D02*
D03*
X483500D02*
D03*
X444500Y230000D02*
D03*
X463500D02*
D03*
X407500Y99000D02*
D03*
X426500D02*
D03*
X463500D02*
D03*
X444500D02*
D03*
X425500Y256000D02*
D03*
X406500D02*
D03*
X444250D02*
D03*
X463250D02*
D03*
X663500Y125000D02*
D03*
X644500D02*
D03*
X70500Y294000D02*
D03*
X51500D02*
D03*
X109500Y236000D02*
D03*
X90500D02*
D03*
X483500Y57000D02*
D03*
X464500D02*
D03*
X407500Y78000D02*
D03*
X426500D02*
D03*
X405500Y52000D02*
D03*
X386500D02*
D03*
D15*
X84500Y350000D02*
D03*
X103500D02*
D03*
X296500Y438000D02*
D03*
X277500D02*
D03*
X296500Y418000D02*
D03*
X277500D02*
D03*
X108500Y215000D02*
D03*
X89500D02*
D03*
X108500Y194000D02*
D03*
X89500D02*
D03*
X108500Y174000D02*
D03*
X89500D02*
D03*
X622500Y226000D02*
D03*
X603500D02*
D03*
X229500Y445000D02*
D03*
X248500D02*
D03*
X405500Y230000D02*
D03*
X424500D02*
D03*
X576500Y350000D02*
D03*
X595500D02*
D03*
X33500Y257000D02*
D03*
X14500D02*
D03*
X372500Y99000D02*
D03*
X391500D02*
D03*
X270500Y85000D02*
D03*
X289500D02*
D03*
X126500Y215000D02*
D03*
X145500D02*
D03*
D16*
X196000Y272000D02*
D03*
Y280000D02*
D03*
Y288000D02*
D03*
Y296000D02*
D03*
Y304000D02*
D03*
Y312000D02*
D03*
Y320000D02*
D03*
Y328000D02*
D03*
X112000D02*
D03*
Y320000D02*
D03*
Y312000D02*
D03*
Y304000D02*
D03*
Y296000D02*
D03*
Y288000D02*
D03*
Y280000D02*
D03*
Y272000D02*
D03*
D17*
X182000Y342000D02*
D03*
X174000D02*
D03*
X166000D02*
D03*
X158000D02*
D03*
X150000D02*
D03*
X142000D02*
D03*
X134000D02*
D03*
X126000D02*
D03*
Y258000D02*
D03*
X134000D02*
D03*
X142000D02*
D03*
X150000D02*
D03*
X158000D02*
D03*
X166000D02*
D03*
X174000D02*
D03*
X182000D02*
D03*
D18*
X221000Y238500D02*
D03*
Y219500D02*
D03*
X199000Y219500D02*
D03*
Y238500D02*
D03*
X221000Y324000D02*
D03*
Y305000D02*
D03*
X176000Y219500D02*
D03*
Y238500D02*
D03*
X114000Y133500D02*
D03*
Y114500D02*
D03*
X23000Y451640D02*
D03*
Y432640D02*
D03*
X637000Y473500D02*
D03*
Y454500D02*
D03*
X208000Y124500D02*
D03*
Y105500D02*
D03*
X307000Y66500D02*
D03*
Y47500D02*
D03*
X362000Y66500D02*
D03*
Y47500D02*
D03*
X211000Y427500D02*
D03*
Y446500D02*
D03*
X221000Y200500D02*
D03*
Y181500D02*
D03*
X645000Y188500D02*
D03*
Y207500D02*
D03*
X231000Y124500D02*
D03*
Y105500D02*
D03*
X199000Y200500D02*
D03*
Y181500D02*
D03*
X446000Y80500D02*
D03*
Y61500D02*
D03*
D19*
X232000Y402000D02*
D03*
X248000D02*
D03*
X232000Y386000D02*
D03*
X248000D02*
D03*
X232000Y427000D02*
D03*
X248000D02*
D03*
X579000Y369000D02*
D03*
X595000D02*
D03*
D20*
X628192Y243000D02*
D03*
X603808D02*
D03*
D21*
X15000Y272808D02*
D03*
Y297192D02*
D03*
D22*
X223520Y48260D02*
D03*
X668020Y17780D02*
D03*
Y515620D02*
D03*
X106680D02*
D03*
D23*
X46500Y169000D02*
D03*
Y233000D02*
D03*
D24*
X22000Y189000D02*
D03*
Y213000D02*
D03*
X246500Y83500D02*
D03*
D25*
X48750Y188000D02*
D03*
Y194500D02*
D03*
Y201000D02*
D03*
Y207500D02*
D03*
Y214000D02*
D03*
D26*
X193500Y423500D02*
D03*
Y442500D02*
D03*
X166500Y423500D02*
D03*
Y433000D02*
D03*
Y442500D02*
D03*
X230500Y143500D02*
D03*
Y162500D02*
D03*
X203500Y143500D02*
D03*
Y153000D02*
D03*
Y162500D02*
D03*
D27*
X69500Y276500D02*
D03*
X50500D02*
D03*
X69500Y249500D02*
D03*
X60000D02*
D03*
X50500D02*
D03*
X642500Y145500D02*
D03*
X661500D02*
D03*
X642500Y172500D02*
D03*
X652000D02*
D03*
X661500D02*
D03*
D28*
X71000Y225500D02*
D03*
Y210500D02*
D03*
Y182500D02*
D03*
Y197500D02*
D03*
D29*
X134600Y117000D02*
D03*
X147300D02*
D03*
X160000D02*
D03*
X172700D02*
D03*
X185400D02*
D03*
D30*
X160000Y179000D02*
D03*
D31*
X253000Y273500D02*
D03*
Y322500D02*
D03*
D32*
X262500Y67500D02*
X274000D01*
X246500Y83500D02*
X262500Y67500D01*
X246500Y18500D02*
Y83500D01*
X444250Y270250D02*
X459500Y285500D01*
Y287000D01*
X410500Y286500D02*
X425500Y271500D01*
X410500Y286500D02*
Y287000D01*
X104000Y366000D02*
X107800Y369800D01*
X146000D01*
X25400Y316600D02*
X27850D01*
X40450Y304000D01*
X78000D01*
X86000Y296000D01*
X112000D01*
X50800Y316600D02*
X57900Y309500D01*
X83500D01*
X89000Y304000D01*
X112000D01*
X562000Y249000D02*
Y368000D01*
X552000Y378000D02*
X562000Y368000D01*
X552000Y378000D02*
Y411000D01*
X25400Y342000D02*
X38300Y329100D01*
X55978D01*
X69578Y315500D01*
X226260Y499260D02*
Y515178D01*
X210000Y483000D02*
X226260Y499260D01*
X185000Y483000D02*
X210000D01*
X628192Y243000D02*
X634840D01*
X636340Y241500D01*
X645000D01*
X643500Y243000D02*
X645000Y241500D01*
X665000D01*
Y241500D02*
X665000Y241500D01*
Y256000D01*
X660500Y260500D02*
X665000Y256000D01*
X655500Y180990D02*
Y197000D01*
X652000Y172500D02*
Y177490D01*
X655500Y180990D01*
X645000Y207500D02*
X655500Y197000D01*
X662000Y173000D02*
Y184500D01*
X665000Y187500D01*
X299430Y216430D02*
X318430D01*
X290450Y207450D02*
X299430Y216430D01*
X290450Y201930D02*
Y207450D01*
X318430Y216430D02*
X332000Y230000D01*
X338000D01*
X352000Y244000D01*
Y327000D01*
X317000Y248000D02*
Y343000D01*
X284000Y187000D02*
X333000D01*
X277950Y193050D02*
X284000Y187000D01*
X285430Y216430D02*
X317000Y248000D01*
X285272Y216430D02*
X285430D01*
X277950Y209108D02*
X285272Y216430D01*
X277950Y193050D02*
Y209108D01*
X267000Y214000D02*
X305000Y252000D01*
X352150Y111230D02*
X366650Y125730D01*
X283770Y111230D02*
X352150D01*
X276550Y118450D02*
X283770Y111230D01*
X276550Y118450D02*
Y176450D01*
X56657Y194500D02*
X61000Y190157D01*
Y179000D02*
Y190157D01*
X48750Y194500D02*
X56657D01*
X60000Y244886D02*
Y249500D01*
Y244886D02*
X68886Y236000D01*
X90500D01*
X91000Y321500D02*
X92500Y320000D01*
X72272Y321500D02*
X91000D01*
X51772Y342000D02*
X72272Y321500D01*
X50800Y342000D02*
X51772D01*
X92500Y320000D02*
X112000D01*
X69578Y315500D02*
X85985D01*
X89485Y312000D01*
X112000D01*
X78263Y328000D02*
X112000D01*
X63800Y342463D02*
X78263Y328000D01*
X40000Y358000D02*
X58164D01*
X63800Y342463D02*
Y352364D01*
X58164Y358000D02*
X63800Y352364D01*
X38300Y376700D02*
Y398000D01*
Y376700D02*
X48000Y367000D01*
X62000D01*
X38300Y398000D02*
X50800Y410500D01*
X67000Y376000D02*
X84500Y358500D01*
X60880Y376000D02*
X67000D01*
X50800Y386080D02*
X60880Y376000D01*
X84500Y350000D02*
Y358500D01*
X193500Y423500D02*
X200000Y417000D01*
X219000D01*
X92000Y373101D02*
X101600Y382700D01*
X153178D01*
X160500Y390022D01*
Y406100D01*
X146000Y420600D02*
X160500Y406100D01*
X115900Y433100D02*
X166500D01*
X97000Y452000D02*
X115900Y433100D01*
X166500D02*
Y442500D01*
Y433000D02*
Y433100D01*
X277000Y479636D02*
Y492000D01*
X267864Y470500D02*
X277000Y479636D01*
X186500Y470500D02*
X267864D01*
X174700Y458700D02*
X186500Y470500D01*
X234082Y523000D02*
X325000D01*
X226260Y515178D02*
X234082Y523000D01*
X50800Y497840D02*
X63800Y510840D01*
X81585D01*
X112300Y458700D02*
X174700D01*
X25400Y472440D02*
X37900Y484940D01*
X86060D01*
X112300Y458700D01*
X50800Y472440D02*
X71240Y452000D01*
X468000Y345000D02*
Y468000D01*
X366650Y201930D02*
X388000Y223280D01*
X375000Y231000D02*
Y317000D01*
X345930Y201930D02*
X375000Y231000D01*
X363000Y322000D02*
X389000Y348000D01*
X363000Y239000D02*
Y322000D01*
X344000Y220000D02*
X363000Y239000D01*
X352000Y327000D02*
X385000Y360000D01*
X81000Y337000D02*
X109000D01*
X73000Y345000D02*
X81000Y337000D01*
X73000Y345000D02*
Y356000D01*
X276000Y458000D02*
X289560Y471560D01*
X194000Y458000D02*
X276000D01*
X178500Y442500D02*
X194000Y458000D01*
X289560Y471560D02*
Y508000D01*
X292000D02*
X301000Y499000D01*
X289560Y508000D02*
X292000D01*
X267000Y186000D02*
Y214000D01*
Y186000D02*
X276550Y176450D01*
X341250Y125730D02*
Y178750D01*
X333000Y187000D02*
X341250Y178750D01*
X315850Y125730D02*
Y164850D01*
X330000Y179000D01*
X290450Y165450D02*
X303000Y178000D01*
X290450Y125730D02*
Y165450D01*
X243500Y343500D02*
Y345000D01*
X391500Y99000D02*
X392050Y99550D01*
Y125730D01*
X352000Y393000D02*
Y456000D01*
X305000Y346000D02*
X352000Y393000D01*
X305000Y252000D02*
Y346000D01*
X317000Y343000D02*
X366000Y392000D01*
X378000Y387000D02*
Y474000D01*
X329000Y338000D02*
X378000Y387000D01*
X329000Y247000D02*
Y338000D01*
X391160Y383160D02*
Y508000D01*
X340000Y332000D02*
X391160Y383160D01*
X340000Y247000D02*
Y332000D01*
X332000Y239000D02*
X340000Y247000D01*
X547000Y246029D02*
Y364000D01*
Y246029D02*
X591100Y201930D01*
X365760Y486240D02*
X378000Y474000D01*
X314960Y493040D02*
X352000Y456000D01*
X319000Y404000D02*
X323000D01*
X316000Y415000D02*
X323000D01*
X165000Y376000D02*
X195000Y406000D01*
X214000D01*
X506000Y51000D02*
Y93000D01*
X491300Y36300D02*
X506000Y51000D01*
X481000Y118000D02*
X506000Y93000D01*
X491300Y16300D02*
Y36300D01*
X595000Y350500D02*
X595500Y350000D01*
X595000Y350500D02*
Y369000D01*
X591100Y201930D02*
X595250D01*
X605500Y225000D02*
Y226000D01*
Y217080D02*
Y225000D01*
Y217080D02*
X620650Y201930D01*
X92000Y366000D02*
Y373101D01*
X62000Y367000D02*
X73000Y356000D01*
X50800Y410500D02*
Y411480D01*
X25400Y372600D02*
Y386080D01*
Y372600D02*
X40000Y358000D01*
X481000Y118000D02*
Y136000D01*
X560500Y455500D02*
X582000D01*
X553000Y448000D02*
X560500Y455500D01*
X537000Y448000D02*
X553000D01*
X528000Y439000D02*
X537000Y448000D01*
X528000Y404000D02*
Y439000D01*
X415520Y203860D02*
X417450Y201930D01*
X134000Y340000D02*
Y342000D01*
X117000Y194000D02*
X118000Y195000D01*
X14500Y255000D02*
Y272308D01*
X20692Y278500D02*
X32000D01*
X14500Y272308D02*
X15000Y272808D01*
X20692Y278500D01*
X33500Y255000D02*
X45000D01*
X50500Y249500D01*
X60000D01*
X365760Y486240D02*
Y508000D01*
X248000Y427000D02*
Y446000D01*
X248000Y446000D02*
X248000Y446000D01*
X277500Y414340D02*
Y418000D01*
Y436657D02*
Y438000D01*
X196000Y328000D02*
Y345000D01*
X182000Y342000D02*
Y348000D01*
X174000Y342000D02*
Y351000D01*
X166000Y342000D02*
Y355000D01*
X150000Y342000D02*
Y351000D01*
X314960Y493040D02*
Y508000D01*
Y510040D01*
X50800Y342000D02*
X51000Y342200D01*
X114000Y342000D02*
X126000D01*
X109000Y337000D02*
X114000Y342000D01*
X166500Y442500D02*
X178500D01*
X229000Y427000D02*
X232000D01*
X219000Y417000D02*
X229000Y427000D01*
X219220Y393000D02*
X228220Y402000D01*
X232000D01*
X226000Y386000D02*
X232000D01*
X224000Y384000D02*
X226000Y386000D01*
X248000Y402000D02*
X253000D01*
X248000Y386000D02*
X249160D01*
X253000Y402000D02*
X269000Y418000D01*
Y428157D01*
X277500Y436657D01*
X61000Y179000D02*
X67000Y173000D01*
X88500D01*
X89500Y174000D01*
X134000Y342000D02*
Y352000D01*
X130000Y356000D02*
X134000Y352000D01*
X123000Y356000D02*
X130000D01*
X117000Y350000D02*
X123000Y356000D01*
X103500Y350000D02*
X117000D01*
X493650Y123350D02*
Y125730D01*
X519050Y201930D02*
Y212950D01*
X544450Y201930D02*
Y208550D01*
X508000Y25400D02*
Y30000D01*
X519050Y117950D02*
Y125730D01*
X330200Y11800D02*
X334000Y8000D01*
X483000D02*
X491300Y16300D01*
X330200Y11800D02*
Y25400D01*
X334000Y8000D02*
X483000D01*
X569850Y39750D02*
X584200Y25400D01*
X569850Y39750D02*
Y125730D01*
X595250Y120250D02*
Y125730D01*
X584000Y109000D02*
X595250Y120250D01*
X584000Y53600D02*
Y109000D01*
Y53600D02*
X609600Y28000D01*
Y25400D02*
Y28000D01*
X597000Y102080D02*
X620650Y125730D01*
X597000Y63400D02*
Y102080D01*
Y63400D02*
X635000Y25400D01*
X624000Y454000D02*
X624500Y454500D01*
X658000Y469000D02*
X666000D01*
X653500Y473500D02*
X658000Y469000D01*
X639000Y473500D02*
X653500D01*
X340000Y508000D02*
X340360D01*
X325000Y523000D02*
X340000Y508000D01*
X315850Y201930D02*
X316930D01*
X335000Y220000D01*
X344000D01*
X341250Y201930D02*
X345930D01*
X312000Y225000D02*
X314100D01*
X328100Y239000D01*
X332000D01*
X385000Y360000D02*
X422000D01*
X430000Y368000D01*
X416560Y508000D02*
X430000Y494560D01*
X389000Y348000D02*
X428000D01*
X443000Y363000D01*
X430000Y368000D02*
Y494560D01*
X457000Y508000D02*
X457200D01*
X443000Y363000D02*
Y494000D01*
X457000Y508000D01*
X456000Y354000D02*
Y481400D01*
X482600Y508000D01*
X249160Y386000D02*
X277500Y414340D01*
X198000Y393000D02*
X219220D01*
X202000Y384000D02*
X224000D01*
X174000Y351000D02*
X184500Y361500D01*
X150000Y351000D02*
X165000Y366000D01*
Y376000D01*
X166000Y355000D02*
X176000Y365000D01*
Y371000D01*
X198000Y393000D01*
X184500Y361500D02*
Y366500D01*
X202000Y384000D01*
X468000Y468000D02*
X508000Y508000D01*
X481000Y464000D02*
X508000Y491000D01*
X520000D01*
X533400Y504400D01*
Y508000D01*
X481000Y341000D02*
Y464000D01*
X494000Y459000D02*
X514000Y479000D01*
X529800D01*
X494000Y350000D02*
Y459000D01*
X529800Y479000D02*
X558800Y508000D01*
X505000Y364000D02*
Y454000D01*
X520000Y469000D01*
X537000D01*
X517000Y370000D02*
Y448000D01*
X527000Y458000D01*
X537000Y469000D02*
X560000Y492000D01*
X571200D01*
X584200Y505000D01*
Y508000D01*
X582000Y474500D02*
Y480400D01*
X609600Y508000D01*
X558500Y474500D02*
X582000D01*
X527000Y458000D02*
X542000D01*
X558500Y474500D01*
X596000Y449000D02*
Y459500D01*
X611000Y474500D01*
Y484000D01*
X635000Y508000D01*
X595000Y411000D02*
X627600Y443600D01*
X662000D01*
X648700Y431500D02*
X662000Y418200D01*
X636000Y431500D02*
X648700D01*
X664000Y420200D02*
X666000Y418200D01*
X611000Y445000D02*
Y455500D01*
X274000Y69500D02*
X289500Y85000D01*
X274000Y67500D02*
Y69500D01*
X231000Y105500D02*
X250000D01*
X270500Y85000D01*
X228340Y105500D02*
X231000D01*
X220000Y113840D02*
X228340Y105500D01*
X220000Y113840D02*
Y131000D01*
X212000Y153000D02*
X215000Y150000D01*
X203500Y153000D02*
X212000D01*
X203500D02*
Y162500D01*
X237500Y177500D02*
Y181500D01*
X249000Y162500D02*
Y166000D01*
X237500Y177500D02*
X249000Y166000D01*
X71240Y452000D02*
X97000D01*
X624500Y454500D02*
X637000D01*
X586000Y439000D02*
X596000Y449000D01*
Y430000D02*
X611000Y445000D01*
X565000Y411000D02*
X595000D01*
X661500Y159500D02*
Y172500D01*
X661000Y159000D02*
X661500Y159500D01*
Y172500D02*
X662000Y173000D01*
X586000Y225000D02*
X605500D01*
X562000Y249000D02*
X586000Y225000D01*
X196000Y272000D02*
X209840D01*
X211340Y270500D02*
X221000D01*
X209840Y272000D02*
X211340Y270500D01*
X221000D02*
X229500D01*
X235500Y276500D01*
X253000D01*
X243500Y267000D02*
X253000Y276500D01*
X243500Y251000D02*
Y267000D01*
X196000Y280000D02*
X207000D01*
X216500Y289500D02*
X221000D01*
X207000Y280000D02*
X216500Y289500D01*
X221000D02*
X234000D01*
X253000Y308500D01*
Y319500D01*
Y334000D01*
X243500Y343500D02*
X253000Y334000D01*
X85320Y395200D02*
X146000D01*
X76200Y386080D02*
X85320Y395200D01*
X424500Y208980D02*
Y230000D01*
X417450Y201930D02*
X424500Y208980D01*
X444250Y256000D02*
Y270250D01*
X424500Y230000D02*
Y236250D01*
X444250Y256000D01*
X405500Y236000D02*
X425500Y256000D01*
X392050Y201930D02*
X405500Y215380D01*
Y230000D01*
Y236000D01*
X425500Y256000D02*
Y271500D01*
X645000Y207500D02*
Y221500D01*
Y207500D02*
X645000Y207500D01*
X544450Y112550D02*
Y125730D01*
X508000Y30000D02*
X525000Y47000D01*
Y92000D01*
X493650Y123350D02*
X525000Y92000D01*
X558800Y25400D02*
Y38200D01*
X554000Y43000D02*
X558800Y38200D01*
X554000Y43000D02*
Y103000D01*
X544450Y112550D02*
X554000Y103000D01*
X533400Y25400D02*
Y37400D01*
X540000Y44000D01*
Y97000D01*
X519050Y117950D02*
X540000Y97000D01*
X595500Y260500D02*
X660500D01*
X48750Y207500D02*
X61880D01*
X64880Y210500D01*
X71000D01*
X76500D01*
X81000Y215000D01*
X89500D01*
X48750Y201000D02*
X59000D01*
X62500Y197500D01*
X71000D01*
X78500D01*
X82000Y194000D01*
X89500D01*
X215000Y136000D02*
X220000Y131000D01*
X215000Y136000D02*
Y150000D01*
X230500Y143500D02*
X249000D01*
X108500Y215000D02*
X117000D01*
X166000Y245000D02*
Y258000D01*
X162000Y241000D02*
X166000Y245000D01*
X162000Y210000D02*
Y241000D01*
X108500Y194000D02*
X117000D01*
X158000Y248000D02*
Y258000D01*
X155000Y245000D02*
X158000Y248000D01*
X155000Y202000D02*
Y245000D01*
X187960Y507040D02*
Y508000D01*
X520000Y233000D02*
X544450Y208550D01*
X520000Y233000D02*
Y349000D01*
X505000Y364000D02*
X520000Y349000D01*
X533000Y238780D02*
X569850Y201930D01*
X533000Y238780D02*
Y354000D01*
X517000Y370000D02*
X533000Y354000D01*
X506000Y226000D02*
X519050Y212950D01*
X506000Y226000D02*
Y338000D01*
X494000Y350000D02*
X506000Y338000D01*
X493650Y201930D02*
Y217350D01*
X491000Y220000D02*
X493650Y217350D01*
X491000Y220000D02*
Y331000D01*
X481000Y341000D02*
X491000Y331000D01*
X547000Y439000D02*
X586000D01*
X539000Y372000D02*
X547000Y364000D01*
X539000Y372000D02*
Y431000D01*
X547000Y439000D01*
X549000Y423000D02*
X556000Y430000D01*
X596000D01*
X552000Y411000D02*
X562000Y421000D01*
X388000Y223280D02*
Y311000D01*
X375000Y317000D02*
X394000Y336000D01*
X438000D01*
X456000Y354000D01*
X388000Y311000D02*
X401000Y324000D01*
X447000D01*
X468000Y345000D01*
X340360Y488640D02*
Y508000D01*
Y488640D02*
X366000Y463000D01*
Y392000D02*
Y463000D01*
X262000Y112000D02*
Y171000D01*
Y112000D02*
X275000Y99000D01*
X372500D01*
X81585Y510840D02*
X124425Y468000D01*
X170000D01*
X283000Y399000D02*
X300000D01*
X316000Y415000D01*
X288000Y389000D02*
X304000D01*
X319000Y404000D01*
X196000Y345000D02*
X216000Y365000D01*
X264000D01*
X288000Y389000D01*
X182000Y348000D02*
X209000Y375000D01*
X259000D01*
X283000Y399000D01*
X287000Y352000D02*
X334000Y399000D01*
X301000Y480000D02*
Y499000D01*
Y480000D02*
X334000Y447000D01*
Y399000D02*
Y447000D01*
X170000Y468000D02*
X185000Y483000D01*
X287000Y251000D02*
Y352000D01*
X253000Y180000D02*
X262000Y171000D01*
X253000Y180000D02*
Y217000D01*
X287000Y251000D01*
X620650Y165350D02*
Y201930D01*
Y165350D02*
X627000Y159000D01*
X481000Y136000D02*
X490500Y145500D01*
X642500D01*
X627000Y159000D02*
X637000D01*
X642500Y153500D01*
Y145500D02*
Y153500D01*
X90000Y280500D02*
X98500Y272000D01*
X100000D01*
X100000Y272000D02*
X112000D01*
X100000Y272000D02*
X100000Y272000D01*
X69500Y276500D02*
X75500D01*
X79500Y280500D01*
X90000D01*
D33*
X223500Y482500D02*
X243500D01*
X223000Y482000D02*
X223500Y482500D01*
X676500Y222500D02*
X677500Y221500D01*
X665000Y222500D02*
X676500D01*
X665000Y206500D02*
X677500D01*
X200000Y200500D02*
X219000Y219500D01*
X199000Y200500D02*
X200000D01*
X198000Y218500D02*
X199000Y219500D01*
X198000Y210000D02*
Y218500D01*
X146000Y157000D02*
X176000D01*
X183500Y164500D02*
Y171463D01*
X184500Y207500D02*
X187500Y210500D01*
X134600Y145600D02*
X146000Y157000D01*
X176000D02*
X183500Y164500D01*
Y171463D02*
X184500Y172463D01*
Y207500D01*
X187500Y210500D02*
Y227000D01*
X176000Y238500D02*
X187500Y227000D01*
X134600Y117000D02*
Y145600D01*
X20500Y502740D02*
Y522000D01*
Y502740D02*
X25400Y497840D01*
X677500Y221500D02*
X678000Y222000D01*
X464500Y44500D02*
Y57000D01*
X446000Y49000D02*
Y61500D01*
X274000Y48500D02*
X282500D01*
X290000Y56000D01*
Y65000D01*
X221000Y179500D02*
Y181500D01*
X15308Y297500D02*
X32000D01*
X15000Y297192D02*
X15308Y297500D01*
X15000Y290000D02*
Y297192D01*
X50500Y293000D02*
X51500Y294000D01*
X82500Y261500D02*
X90000D01*
X81000Y263000D02*
X82500Y261500D01*
X56000Y263000D02*
X81000D01*
X50500Y268500D02*
X56000Y263000D01*
X50500Y268500D02*
Y276500D01*
X43220Y284000D02*
X49500D01*
X50500Y283000D01*
Y276500D02*
Y283000D01*
Y293000D01*
X173000Y406500D02*
Y415000D01*
X296500Y418000D02*
Y438000D01*
Y418000D02*
X308000D01*
X219000Y219500D02*
X221000D01*
X202000Y238500D02*
X221000Y219500D01*
X199000Y238500D02*
X202000D01*
X238760Y497400D02*
X243500Y492660D01*
Y482500D02*
Y492660D01*
X238760Y497400D02*
Y508000D01*
X444500Y99000D02*
Y124080D01*
X442850Y125730D02*
X444500Y124080D01*
X39500Y522000D02*
X40500Y521000D01*
X51000D01*
X207500Y427500D02*
X211000D01*
X202000Y433000D02*
X207500Y427500D01*
X199000Y433000D02*
X202000D01*
X70500Y294000D02*
X77000D01*
X80000Y291000D01*
X109500Y236000D02*
Y250500D01*
X144500Y234340D02*
Y236000D01*
X137000Y226840D02*
X144500Y234340D01*
X71000Y225500D02*
X79500D01*
X160000Y117000D02*
Y134000D01*
X208000Y124500D02*
Y135000D01*
X231000Y124500D02*
Y134000D01*
X307000Y66500D02*
Y90000D01*
X362000Y66500D02*
X372500D01*
X375000Y69000D01*
X400500Y85000D02*
X407500Y78000D01*
X397000Y85000D02*
X400500D01*
X407500Y99000D02*
Y109330D01*
X405000Y111830D02*
X407500Y109330D01*
X463500Y99000D02*
Y111000D01*
X464500Y78000D02*
X474000Y87500D01*
Y88160D01*
X663500Y125000D02*
X678000D01*
X632500Y188500D02*
X645000D01*
X629000Y185000D02*
X632500Y188500D01*
X463250Y256000D02*
X473000D01*
X396000D02*
X406500D01*
X444500Y218000D02*
Y230000D01*
X262500Y349000D02*
X273000D01*
X221000Y324000D02*
Y336000D01*
Y238500D02*
Y250000D01*
Y200500D02*
X232500D01*
X176000Y209000D02*
Y219500D01*
X579000Y369000D02*
Y380000D01*
X578000Y381000D02*
X579000Y380000D01*
X564000Y381000D02*
X578000D01*
X55000Y448000D02*
X60000D01*
X23000Y451640D02*
X51360D01*
X55000Y448000D01*
X262500Y247000D02*
X267000D01*
X273000Y253000D01*
D34*
X678500Y155065D02*
Y275500D01*
X671000Y283000D02*
X678500Y275500D01*
X668935Y145500D02*
X678500Y155065D01*
X179000Y145000D02*
X192500Y158500D01*
X156000Y145000D02*
X179000D01*
X199000Y174235D02*
Y181500D01*
X192500Y167735D02*
X199000Y174235D01*
X192500Y158500D02*
Y167735D01*
X661500Y145500D02*
X662500D01*
X668935D01*
X591000Y283000D02*
X671000D01*
X576500Y297500D02*
X591000Y283000D01*
X576500Y255500D02*
X589000Y243000D01*
X603808D01*
X576500Y255500D02*
Y297500D01*
Y350000D01*
X603808Y243000D02*
X610000D01*
X622500Y230500D01*
Y226000D02*
Y230500D01*
X199000Y181500D02*
X219000D01*
X221000D01*
X147000Y136000D02*
X156000Y145000D01*
D35*
X171000Y194500D02*
X176000Y199500D01*
X151893Y194500D02*
X171000D01*
X145500Y200893D02*
Y215000D01*
Y200893D02*
X151893Y194500D01*
X232500Y200500D02*
X233000Y201000D01*
X464500Y44500D02*
X465000Y44000D01*
X483500Y78000D02*
X483500Y78000D01*
X20500Y432500D02*
X21000Y433000D01*
X77500Y249500D02*
X78000Y249000D01*
X79500Y225500D02*
X80000Y226000D01*
X262500Y506340D02*
X262820D01*
X264160Y505000D01*
X262500Y482500D02*
Y506340D01*
X264160Y505000D02*
Y508000D01*
X230500Y162500D02*
Y170000D01*
X463500Y220580D02*
Y230000D01*
Y220580D02*
X468250Y215830D01*
Y201930D02*
Y215830D01*
X219000Y181500D02*
X221000Y179500D01*
X230500Y170000D01*
X193500Y442500D02*
X199000D01*
X203000Y446500D01*
X211000D01*
X226500Y445000D02*
X229500D01*
X211000Y446500D02*
X212000D01*
X220000Y438500D01*
X226500Y445000D01*
X216840Y305000D02*
X221000D01*
X196000Y296000D02*
X207840D01*
X216840Y305000D01*
X179000Y296000D02*
X196000D01*
X175000Y292000D02*
X179000Y296000D01*
X175000Y277000D02*
X182000Y270000D01*
X195500Y238500D02*
X199000D01*
X175000Y277000D02*
Y292000D01*
X182000Y258000D02*
Y270000D01*
X125500Y236000D02*
X125500Y236000D01*
Y216000D02*
Y236000D01*
X182000Y252000D02*
Y258000D01*
Y252000D02*
X195500Y238500D01*
X166500Y423500D02*
X178400D01*
X188899Y413000D01*
X192000D01*
X69500Y249500D02*
X77500D01*
X150000Y258000D02*
Y271000D01*
X184000Y288000D02*
X196000D01*
X192500Y143500D02*
X203500D01*
X192000Y144000D02*
X192500Y143500D01*
X631500Y172500D02*
X642500D01*
X629000Y170000D02*
X631500Y172500D01*
X219000Y200500D02*
X221000D01*
D36*
X71000Y182500D02*
X80929D01*
X136000Y246500D02*
X140000D01*
X142000Y248500D02*
Y258000D01*
X125500Y236000D02*
X136000Y246500D01*
X140000D02*
X142000Y248500D01*
X67750Y97250D02*
X71000Y100500D01*
X135000Y178000D02*
X136000Y179000D01*
X71000Y143500D02*
Y144500D01*
X21000Y167000D02*
X22000Y168000D01*
X21000Y27000D02*
X30500Y17500D01*
X139700Y25400D02*
X148100Y17000D01*
X426500Y78000D02*
X429000Y80500D01*
X463500Y120980D02*
X468250Y125730D01*
X442850Y201930D02*
X444500Y203580D01*
X116200Y116700D02*
X116500Y117000D01*
X167000Y88000D02*
X172700Y93700D01*
Y117000D02*
X173700Y116000D01*
X22000Y189000D02*
X26500D01*
X22000Y213000D02*
X26500D01*
X45500Y168000D02*
X46500Y169000D01*
X45500Y234000D02*
X46500Y233000D01*
Y169000D02*
X48750Y171250D01*
X109500Y250500D02*
X110000Y251000D01*
X150000Y271000D02*
X150000Y271000D01*
X184000Y288000D02*
X184000Y288000D01*
X396000Y256000D02*
X396000Y256000D01*
X48750Y214000D02*
X55000D01*
X59000Y218000D01*
Y226000D01*
X174000Y240500D02*
X176000Y238500D01*
X174000Y240500D02*
Y258000D01*
D37*
X442850Y125730D02*
X485120Y168000D01*
X456000Y157000D02*
Y174000D01*
X468250Y186250D01*
Y201930D01*
X611000Y68000D02*
Y89500D01*
X646500Y125000D01*
Y129500D01*
X662500Y145500D01*
X485120Y168000D02*
X595000D01*
X607000Y180000D01*
D38*
X405500Y26300D02*
X406400Y25400D01*
D39*
X116200Y88000D02*
D03*
X416560Y508000D02*
D03*
X508000Y25400D02*
D03*
X635000Y508000D02*
D03*
X279400Y25400D02*
D03*
X620650Y201930D02*
D03*
D40*
X141600Y88000D02*
D03*
X167000D02*
D03*
X187960Y508000D02*
D03*
X213360D02*
D03*
X264160D02*
D03*
X238760D02*
D03*
X391160D02*
D03*
X365760D02*
D03*
X340360D02*
D03*
X289560D02*
D03*
X314960D02*
D03*
X533400Y25400D02*
D03*
X558800D02*
D03*
X584200D02*
D03*
X635000D02*
D03*
X609600D02*
D03*
X482600Y508000D02*
D03*
X457200D02*
D03*
X609600D02*
D03*
X584200D02*
D03*
X558800D02*
D03*
X508000D02*
D03*
X533400D02*
D03*
X431800Y25400D02*
D03*
X457200D02*
D03*
X304800D02*
D03*
X330200D02*
D03*
X355600D02*
D03*
X406400D02*
D03*
X381000D02*
D03*
X290450Y125730D02*
D03*
X315850D02*
D03*
X341250D02*
D03*
X366650D02*
D03*
X392050D02*
D03*
X417450D02*
D03*
X442850D02*
D03*
X468250D02*
D03*
X493650D02*
D03*
X519050D02*
D03*
X544450D02*
D03*
X569850D02*
D03*
X595250D02*
D03*
X620650D02*
D03*
X290450Y201930D02*
D03*
X315850D02*
D03*
X341250D02*
D03*
X366650D02*
D03*
X392050D02*
D03*
X417450D02*
D03*
X442850D02*
D03*
X468250D02*
D03*
X493650D02*
D03*
X519050D02*
D03*
X544450D02*
D03*
X569850D02*
D03*
X595250D02*
D03*
D41*
X25400Y386080D02*
D03*
Y472440D02*
D03*
X50800Y342000D02*
D03*
D42*
Y386080D02*
D03*
X76200D02*
D03*
X25400Y411480D02*
D03*
X50800D02*
D03*
X76200D02*
D03*
Y497840D02*
D03*
X50800D02*
D03*
X25400D02*
D03*
X76200Y472440D02*
D03*
X50800D02*
D03*
X25400Y342000D02*
D03*
X50800Y316600D02*
D03*
X25400D02*
D03*
D43*
X146000Y369800D02*
D03*
Y395200D02*
D03*
Y420600D02*
D03*
X662000Y418200D02*
D03*
Y443600D02*
D03*
D44*
X146000Y446000D02*
D03*
X662000Y469000D02*
D03*
D45*
X22000Y168000D02*
D03*
Y234000D02*
D03*
D46*
X20320Y25400D02*
D03*
Y134620D02*
D03*
D47*
X139700Y25400D02*
D03*
X660400Y76200D02*
D03*
Y355600D02*
D03*
D48*
X152400Y508000D02*
D03*
D49*
X660500Y260500D02*
D03*
D50*
X595500D02*
D03*
X660500Y305500D02*
D03*
X595500D02*
D03*
X246500Y18500D02*
D03*
X201500Y83500D02*
D03*
Y18500D02*
D03*
D51*
X84000Y112000D02*
D03*
Y120000D02*
D03*
X59000Y218000D02*
D03*
X137000Y226840D02*
D03*
X405000Y111830D02*
D03*
X397000Y85000D02*
D03*
X233000Y201000D02*
D03*
X221000Y250000D02*
D03*
Y336000D02*
D03*
X135000Y168000D02*
D03*
Y178000D02*
D03*
Y187000D02*
D03*
X208000Y135000D02*
D03*
X231000Y134000D02*
D03*
X192000Y144000D02*
D03*
X444500Y218000D02*
D03*
X463500Y111000D02*
D03*
X473000Y256000D02*
D03*
X375000Y69000D02*
D03*
X323000Y63000D02*
D03*
X160000Y134000D02*
D03*
X176000Y200000D02*
D03*
X209840Y209780D02*
D03*
X51000Y521000D02*
D03*
X60000Y448000D02*
D03*
X104000Y366000D02*
D03*
X92000D02*
D03*
X117000Y415000D02*
D03*
X446000Y49000D02*
D03*
X465000Y44000D02*
D03*
X474000Y88160D02*
D03*
X432000Y66000D02*
D03*
X456000Y157000D02*
D03*
X481000Y104000D02*
D03*
X678000Y125000D02*
D03*
X629000Y170000D02*
D03*
Y185000D02*
D03*
X661000Y159000D02*
D03*
X624000Y454000D02*
D03*
X117000Y215000D02*
D03*
X162000Y210000D02*
D03*
X155000Y202000D02*
D03*
X118000Y195000D02*
D03*
X59000Y226000D02*
D03*
X15000Y290000D02*
D03*
X100000Y272000D02*
D03*
X607000Y180000D02*
D03*
X312000Y225000D02*
D03*
X329000Y247000D02*
D03*
X303000Y178000D02*
D03*
X330000Y179000D02*
D03*
X237500Y181500D02*
D03*
X214000Y406000D02*
D03*
X92000Y320000D02*
D03*
X308000Y418000D02*
D03*
X199000Y433000D02*
D03*
X192000Y413000D02*
D03*
X80000Y291000D02*
D03*
X78000Y249000D02*
D03*
X80000Y226000D02*
D03*
X82000Y184000D02*
D03*
X119000Y174000D02*
D03*
X104000Y156000D02*
D03*
X94000D02*
D03*
X110000Y251000D02*
D03*
X150000Y271000D02*
D03*
X184000Y288000D02*
D03*
X273000Y349000D02*
D03*
X176000Y209000D02*
D03*
X198000Y210000D02*
D03*
X104000Y146000D02*
D03*
X416000Y66000D02*
D03*
X396000Y256000D02*
D03*
X611000Y77000D02*
D03*
X173000Y415000D02*
D03*
X562000Y421000D02*
D03*
X565000Y411000D02*
D03*
X223000Y482000D02*
D03*
X564000Y390000D02*
D03*
Y398000D02*
D03*
X277000Y493000D02*
D03*
X409000Y490000D02*
D03*
X418000D02*
D03*
Y481000D02*
D03*
X409000D02*
D03*
Y371000D02*
D03*
X418000D02*
D03*
Y380000D02*
D03*
X409000D02*
D03*
X528000Y404000D02*
D03*
X323000D02*
D03*
X549000Y423000D02*
D03*
X323000Y415000D02*
D03*
Y71000D02*
D03*
X290000Y65000D02*
D03*
X115000Y156000D02*
D03*
X307000Y90000D02*
D03*
X564000Y381000D02*
D03*
X147000Y136000D02*
D03*
X43220Y284000D02*
D03*
X220500Y438000D02*
D03*
X117000Y406000D02*
D03*
X126000Y410000D02*
D03*
X424000Y66000D02*
D03*
X611000Y68000D02*
D03*
X273000Y253000D02*
D03*
M02*
