G04*
G04 #@! TF.GenerationSoftware,Altium Limited,Altium Designer,21.9.2 (33)*
G04*
G04 Layer_Color=128*
%FSLAX44Y44*%
%MOMM*%
G71*
G04*
G04 #@! TF.SameCoordinates,E4C3A579-B693-4A56-8CB7-AE82ACC2EB58*
G04*
G04*
G04 #@! TF.FilePolarity,Positive*
G04*
G01*
G75*
%ADD29R,3.3000X3.3000*%
%ADD30R,0.6000X0.2300*%
%ADD31R,0.2300X0.6000*%
%ADD32R,1.3000X0.7000*%
%ADD33R,0.9000X1.6000*%
%ADD34R,0.9000X1.3000*%
%ADD35R,0.7000X1.3000*%
D29*
X250000Y250000D02*
D03*
D30*
X274000Y267500D02*
D03*
X226000D02*
D03*
Y262500D02*
D03*
Y257500D02*
D03*
Y252500D02*
D03*
Y247500D02*
D03*
Y242500D02*
D03*
Y237500D02*
D03*
Y232500D02*
D03*
X274000D02*
D03*
Y237500D02*
D03*
Y242500D02*
D03*
Y247500D02*
D03*
Y252500D02*
D03*
Y257500D02*
D03*
Y262500D02*
D03*
D31*
X267500Y274000D02*
D03*
X262500D02*
D03*
X257500D02*
D03*
X252500D02*
D03*
X247500D02*
D03*
X242500D02*
D03*
X237500D02*
D03*
X232500D02*
D03*
Y226000D02*
D03*
X237500D02*
D03*
X242500D02*
D03*
X247500D02*
D03*
X252500D02*
D03*
X257500D02*
D03*
X262500D02*
D03*
X267500D02*
D03*
D32*
X223000Y174500D02*
D03*
Y193500D02*
D03*
X245000Y193500D02*
D03*
Y174500D02*
D03*
X267000D02*
D03*
Y193500D02*
D03*
X289000D02*
D03*
Y174500D02*
D03*
X311000Y174500D02*
D03*
Y193500D02*
D03*
X255000Y319500D02*
D03*
Y300500D02*
D03*
D33*
X320500Y214000D02*
D03*
X289500D02*
D03*
D34*
X304500Y239000D02*
D03*
X323500D02*
D03*
X323500Y262000D02*
D03*
X304500D02*
D03*
X310500Y296000D02*
D03*
X291500D02*
D03*
X294500Y328000D02*
D03*
X313500D02*
D03*
X195000Y186000D02*
D03*
X176000D02*
D03*
X176000Y236000D02*
D03*
X195000D02*
D03*
X176000Y298000D02*
D03*
X195000D02*
D03*
D35*
X296500Y351000D02*
D03*
X315500D02*
D03*
X254000Y404000D02*
D03*
X273000D02*
D03*
X273500Y382000D02*
D03*
X254500D02*
D03*
X273500Y360000D02*
D03*
X254500D02*
D03*
X273500Y338000D02*
D03*
X254500D02*
D03*
X196778Y208000D02*
D03*
X177778D02*
D03*
X196524Y275000D02*
D03*
X177524D02*
D03*
X132500Y243000D02*
D03*
X151500D02*
D03*
X151754Y265000D02*
D03*
X132754D02*
D03*
X132754Y287000D02*
D03*
X151754D02*
D03*
X132500Y325000D02*
D03*
X151500D02*
D03*
X152500Y348000D02*
D03*
X133500D02*
D03*
M02*
