G04*
G04 #@! TF.GenerationSoftware,Altium Limited,Altium Designer,21.9.2 (33)*
G04*
G04 Layer_Physical_Order=4*
G04 Layer_Color=16440176*
%FSLAX44Y44*%
%MOMM*%
G71*
G04*
G04 #@! TF.SameCoordinates,E4C3A579-B693-4A56-8CB7-AE82ACC2EB58*
G04*
G04*
G04 #@! TF.FilePolarity,Positive*
G04*
G01*
G75*
%ADD23C,0.6000*%
G36*
X425000Y75000D02*
X80000D01*
Y90100D01*
X82000Y90929D01*
X82168Y90761D01*
X84005Y90000D01*
X85995D01*
X87832Y90761D01*
X89239Y92168D01*
X90000Y94005D01*
Y95995D01*
X89239Y97832D01*
X87832Y99239D01*
X85995Y100000D01*
X84005D01*
X82168Y99239D01*
X82000Y99071D01*
X80000Y99900D01*
Y120100D01*
X82000Y120929D01*
X82168Y120761D01*
X84005Y120000D01*
X85995D01*
X87832Y120761D01*
X89239Y122168D01*
X90000Y124005D01*
Y125995D01*
X89239Y127832D01*
X87832Y129239D01*
X85995Y130000D01*
X84005D01*
X82168Y129239D01*
X82000Y129071D01*
X80000Y129900D01*
Y330101D01*
X82000Y330929D01*
X82168Y330761D01*
X84005Y330000D01*
X85995D01*
X87832Y330761D01*
X89239Y332168D01*
X90000Y334005D01*
Y335995D01*
X89239Y337832D01*
X87832Y339239D01*
X85995Y340000D01*
X84005D01*
X82168Y339239D01*
X82000Y339071D01*
X80000Y339899D01*
Y360101D01*
X82000Y360929D01*
X82168Y360761D01*
X84005Y360000D01*
X85995D01*
X87832Y360761D01*
X89239Y362168D01*
X90000Y364005D01*
Y365995D01*
X89239Y367832D01*
X87832Y369239D01*
X85995Y370000D01*
X84005D01*
X82168Y369239D01*
X82000Y369071D01*
X80000Y369899D01*
Y450000D01*
X128647D01*
X129112Y449305D01*
Y447315D01*
X129873Y445478D01*
X130423Y444928D01*
X131123Y443750D01*
X130423Y442314D01*
X129991Y441882D01*
X129230Y440045D01*
Y438055D01*
X129991Y436218D01*
X130180Y436029D01*
X131216Y434603D01*
X130180Y433415D01*
X129873Y433108D01*
X129112Y431271D01*
Y429281D01*
X129873Y427444D01*
X131280Y426037D01*
X133117Y425276D01*
X135107D01*
X136944Y426037D01*
X138351Y427444D01*
X139112Y429281D01*
Y431271D01*
X138351Y433108D01*
X138162Y433297D01*
X137126Y434723D01*
X138162Y435911D01*
X138469Y436218D01*
X139230Y438055D01*
Y440045D01*
X138469Y441882D01*
X137919Y442432D01*
X137219Y443610D01*
X137919Y445046D01*
X138351Y445478D01*
X139112Y447315D01*
Y449305D01*
X139577Y450000D01*
X425000D01*
Y75000D01*
D02*
G37*
%LPC*%
G36*
X134995Y414000D02*
X133005D01*
X131168Y413239D01*
X129761Y411832D01*
X129000Y409995D01*
Y408005D01*
X129761Y406168D01*
X131168Y404761D01*
X133005Y404000D01*
X134995D01*
X136832Y404761D01*
X138239Y406168D01*
X139000Y408005D01*
Y409995D01*
X138239Y411832D01*
X136832Y413239D01*
X134995Y414000D01*
D02*
G37*
G36*
X285494Y409000D02*
X283505D01*
X281668Y408239D01*
X280261Y406832D01*
X279500Y404995D01*
Y403005D01*
X280261Y401168D01*
X281668Y399761D01*
X283505Y399000D01*
X285494D01*
X287332Y399761D01*
X288739Y401168D01*
X289500Y403005D01*
Y404995D01*
X288739Y406832D01*
X287332Y408239D01*
X285494Y409000D01*
D02*
G37*
G36*
X104995Y400000D02*
X103005D01*
X101168Y399239D01*
X99761Y397832D01*
X99000Y395995D01*
Y394005D01*
X99761Y392168D01*
X100714Y391215D01*
X100993Y390000D01*
X100714Y388785D01*
X99761Y387832D01*
X99000Y385995D01*
Y385755D01*
X98905Y385632D01*
X97000Y384584D01*
X95995Y385000D01*
X94900D01*
X94071Y387000D01*
X94239Y387168D01*
X95000Y389005D01*
Y390995D01*
X94239Y392832D01*
X92832Y394239D01*
X90995Y395000D01*
X89005D01*
X87168Y394239D01*
X85761Y392832D01*
X85000Y390995D01*
Y389005D01*
X85761Y387168D01*
X87168Y385761D01*
X89005Y385000D01*
X90100D01*
X90929Y383000D01*
X90761Y382832D01*
X90000Y380995D01*
Y379005D01*
X90761Y377168D01*
X92168Y375761D01*
X94005Y375000D01*
X95995D01*
X97832Y375761D01*
X99239Y377168D01*
X100000Y379005D01*
Y379245D01*
X100095Y379368D01*
X102000Y380416D01*
X103005Y380000D01*
X104995D01*
X106832Y380761D01*
X108239Y382168D01*
X109000Y384005D01*
Y385995D01*
X108239Y387832D01*
X107287Y388785D01*
X107007Y390000D01*
X107287Y391215D01*
X108239Y392168D01*
X109000Y394005D01*
Y395995D01*
X108239Y397832D01*
X106832Y399239D01*
X104995Y400000D01*
D02*
G37*
G36*
X391995Y390515D02*
X390005D01*
X388168Y389754D01*
X386761Y388347D01*
X386000Y386509D01*
Y384520D01*
X386761Y382682D01*
X388168Y381276D01*
X390005Y380515D01*
X391995D01*
X393832Y381276D01*
X395239Y382682D01*
X396000Y384520D01*
Y386509D01*
X395239Y388347D01*
X393832Y389754D01*
X391995Y390515D01*
D02*
G37*
G36*
X193995Y376000D02*
X192005D01*
X190168Y375239D01*
X188761Y373832D01*
X188000Y371995D01*
Y370005D01*
X188761Y368168D01*
X190168Y366761D01*
X192005Y366000D01*
X193995D01*
X195832Y366761D01*
X197239Y368168D01*
X198000Y370005D01*
Y371995D01*
X197239Y373832D01*
X195832Y375239D01*
X193995Y376000D01*
D02*
G37*
G36*
X134995Y375900D02*
X133005D01*
X131168Y375139D01*
X129761Y373732D01*
X129000Y371895D01*
Y369905D01*
X129761Y368068D01*
X131168Y366661D01*
X133005Y365900D01*
X134995D01*
X136832Y366661D01*
X138239Y368068D01*
X139000Y369905D01*
Y371895D01*
X138239Y373732D01*
X136832Y375139D01*
X134995Y375900D01*
D02*
G37*
G36*
X98629Y364572D02*
X96639D01*
X94802Y363811D01*
X93395Y362404D01*
X92634Y360567D01*
Y358577D01*
X93392Y356746D01*
X93395Y356739D01*
X92804Y354502D01*
X92168Y354239D01*
X90761Y352832D01*
X90000Y350995D01*
Y349005D01*
X90761Y347168D01*
X92168Y345761D01*
X93425Y345241D01*
X93998Y343574D01*
X93995Y343004D01*
X93395Y342404D01*
X92634Y340567D01*
Y338577D01*
X93395Y336740D01*
X94802Y335333D01*
X96639Y334572D01*
X98629D01*
X100466Y335333D01*
X101873Y336740D01*
X102634Y338577D01*
Y340567D01*
X101873Y342404D01*
X100466Y343811D01*
X99209Y344332D01*
X98636Y345998D01*
X98639Y346568D01*
X99239Y347168D01*
X100000Y349005D01*
Y350995D01*
X99242Y352826D01*
X99239Y352833D01*
X99830Y355070D01*
X100466Y355333D01*
X101873Y356740D01*
X102634Y358577D01*
Y360567D01*
X101873Y362404D01*
X100466Y363811D01*
X98629Y364572D01*
D02*
G37*
G36*
X306049Y336724D02*
X304059D01*
X302222Y335963D01*
X300815Y334556D01*
X300054Y332719D01*
Y330729D01*
X300815Y328892D01*
X301793Y327914D01*
X301323Y327444D01*
X300562Y325607D01*
Y323617D01*
X301323Y321780D01*
X302730Y320373D01*
X304567Y319612D01*
X306557D01*
X308394Y320373D01*
X309801Y321780D01*
X310562Y323617D01*
Y325607D01*
X309801Y327444D01*
X308823Y328422D01*
X309293Y328892D01*
X310054Y330729D01*
Y332719D01*
X309293Y334556D01*
X307886Y335963D01*
X306049Y336724D01*
D02*
G37*
G36*
X244495Y324500D02*
X242505D01*
X240668Y323739D01*
X239261Y322332D01*
X238500Y320495D01*
Y318505D01*
X239261Y316668D01*
X240668Y315261D01*
X242505Y314500D01*
X244495D01*
X246332Y315261D01*
X247739Y316668D01*
X248500Y318505D01*
Y320495D01*
X247739Y322332D01*
X246332Y323739D01*
X244495Y324500D01*
D02*
G37*
G36*
X195995Y320000D02*
X194005D01*
X192168Y319239D01*
X190761Y317832D01*
X190000Y315995D01*
Y314005D01*
X190761Y312168D01*
X192168Y310761D01*
X194005Y310000D01*
X195995D01*
X197832Y310761D01*
X199239Y312168D01*
X200000Y314005D01*
Y315995D01*
X199239Y317832D01*
X197832Y319239D01*
X195995Y320000D01*
D02*
G37*
G36*
X211995Y315000D02*
X210005D01*
X208168Y314239D01*
X206761Y312832D01*
X206000Y310995D01*
Y309005D01*
X206761Y307168D01*
X208168Y305761D01*
X210005Y305000D01*
X211995D01*
X213832Y305761D01*
X215239Y307168D01*
X216000Y309005D01*
Y310995D01*
X215239Y312832D01*
X213832Y314239D01*
X211995Y315000D01*
D02*
G37*
G36*
X369041Y311070D02*
X367051D01*
X365214Y310309D01*
X363807Y308902D01*
X363046Y307065D01*
Y305075D01*
X363807Y303238D01*
X365214Y301831D01*
X367051Y301070D01*
X369041D01*
X370878Y301831D01*
X372285Y303238D01*
X373046Y305075D01*
Y307065D01*
X372285Y308902D01*
X370878Y310309D01*
X369041Y311070D01*
D02*
G37*
G36*
X404347Y310054D02*
X402357D01*
X400520Y309293D01*
X399113Y307886D01*
X398352Y306049D01*
Y304059D01*
X399113Y302222D01*
X400520Y300815D01*
X402357Y300054D01*
X404347D01*
X406184Y300815D01*
X407591Y302222D01*
X408352Y304059D01*
Y306049D01*
X407591Y307886D01*
X406184Y309293D01*
X404347Y310054D01*
D02*
G37*
G36*
X319257Y304212D02*
X317267D01*
X315430Y303451D01*
X314023Y302044D01*
X313262Y300207D01*
Y298217D01*
X314023Y296380D01*
X314366Y296037D01*
X314023Y295694D01*
X313262Y293857D01*
Y291867D01*
X314023Y290030D01*
X315430Y288623D01*
X317267Y287862D01*
X319257D01*
X321094Y288623D01*
X322501Y290030D01*
X323262Y291867D01*
Y293857D01*
X322501Y295694D01*
X322158Y296037D01*
X322501Y296380D01*
X323262Y298217D01*
Y300207D01*
X322501Y302044D01*
X321094Y303451D01*
X319257Y304212D01*
D02*
G37*
G36*
X369295Y297100D02*
X367305D01*
X365468Y296339D01*
X364061Y294932D01*
X363300Y293095D01*
Y291105D01*
X364061Y289268D01*
X365468Y287861D01*
X367305Y287100D01*
X369295D01*
X371132Y287861D01*
X372539Y289268D01*
X373300Y291105D01*
Y293095D01*
X372539Y294932D01*
X371132Y296339D01*
X369295Y297100D01*
D02*
G37*
G36*
X404347Y296846D02*
X402357D01*
X400520Y296085D01*
X399113Y294678D01*
X398352Y292841D01*
Y290851D01*
X399113Y289014D01*
X400520Y287607D01*
X402357Y286846D01*
X404347D01*
X406184Y287607D01*
X407591Y289014D01*
X408352Y290851D01*
Y292841D01*
X407591Y294678D01*
X406184Y296085D01*
X404347Y296846D01*
D02*
G37*
G36*
X224995Y290000D02*
X223005D01*
X221168Y289239D01*
X219761Y287832D01*
X219000Y285995D01*
Y284005D01*
X219761Y282168D01*
X221168Y280761D01*
X223005Y280000D01*
X224995D01*
X226832Y280761D01*
X228239Y282168D01*
X229000Y284005D01*
Y285995D01*
X228239Y287832D01*
X226832Y289239D01*
X224995Y290000D01*
D02*
G37*
G36*
X250423Y295322D02*
X248433D01*
X246596Y294561D01*
X245189Y293154D01*
X244428Y291317D01*
Y289327D01*
X245189Y287490D01*
X246596Y286083D01*
X248433Y285322D01*
X250423D01*
X250837Y285494D01*
X251419Y285221D01*
X252650Y284080D01*
Y282655D01*
X253411Y280818D01*
X254818Y279411D01*
X256655Y278650D01*
X258645D01*
X260482Y279411D01*
X261889Y280818D01*
X262650Y282655D01*
Y284645D01*
X261889Y286482D01*
X260482Y287889D01*
X258645Y288650D01*
X256655D01*
X256241Y288478D01*
X255659Y288751D01*
X254428Y289892D01*
Y291317D01*
X253667Y293154D01*
X252260Y294561D01*
X250423Y295322D01*
D02*
G37*
G36*
X394695Y284146D02*
X392705D01*
X390868Y283385D01*
X389461Y281978D01*
X388700Y280141D01*
Y278151D01*
X389461Y276314D01*
X390868Y274907D01*
X392705Y274146D01*
X394695D01*
X396532Y274907D01*
X397939Y276314D01*
X398700Y278151D01*
Y280141D01*
X397939Y281978D01*
X396532Y283385D01*
X394695Y284146D01*
D02*
G37*
G36*
X378693D02*
X376703D01*
X374866Y283385D01*
X373459Y281978D01*
X372698Y280141D01*
Y278151D01*
X373459Y276314D01*
X374866Y274907D01*
X376703Y274146D01*
X378693D01*
X380530Y274907D01*
X381937Y276314D01*
X382698Y278151D01*
Y280141D01*
X381937Y281978D01*
X380530Y283385D01*
X378693Y284146D01*
D02*
G37*
G36*
X119249Y270000D02*
X117260D01*
X115422Y269239D01*
X114015Y267832D01*
X113254Y265995D01*
Y264005D01*
X114015Y262168D01*
X115422Y260761D01*
X117260Y260000D01*
X119249D01*
X121086Y260761D01*
X122493Y262168D01*
X123254Y264005D01*
Y265995D01*
X122493Y267832D01*
X121086Y269239D01*
X119249Y270000D01*
D02*
G37*
G36*
X211245Y267250D02*
X209255D01*
X207418Y266489D01*
X206011Y265082D01*
X205250Y263245D01*
Y261255D01*
X206011Y259418D01*
X207418Y258011D01*
X209255Y257250D01*
X211245D01*
X213082Y258011D01*
X214489Y259418D01*
X215250Y261255D01*
Y263245D01*
X214489Y265082D01*
X213082Y266489D01*
X211245Y267250D01*
D02*
G37*
G36*
X238995Y267000D02*
X237005D01*
X235168Y266239D01*
X233761Y264832D01*
X233000Y262995D01*
Y261005D01*
X233761Y259168D01*
X235168Y257761D01*
X237005Y257000D01*
X238995D01*
X240832Y257761D01*
X242239Y259168D01*
X243000Y261005D01*
Y262995D01*
X242239Y264832D01*
X240832Y266239D01*
X238995Y267000D01*
D02*
G37*
G36*
X251995Y265000D02*
X250005D01*
X248168Y264239D01*
X246761Y262832D01*
X246000Y260995D01*
Y259005D01*
X246761Y257168D01*
X248168Y255761D01*
X250005Y255000D01*
X251995D01*
X253832Y255761D01*
X255239Y257168D01*
X256000Y259005D01*
Y260995D01*
X255239Y262832D01*
X253832Y264239D01*
X251995Y265000D01*
D02*
G37*
G36*
X331703Y270176D02*
X329713D01*
X327876Y269415D01*
X326469Y268008D01*
X325708Y266171D01*
Y264181D01*
X326469Y262344D01*
X326812Y262001D01*
X326469Y261658D01*
X325708Y259821D01*
Y257831D01*
X326469Y255994D01*
X327876Y254587D01*
X329713Y253826D01*
X331703D01*
X333540Y254587D01*
X334947Y255994D01*
X335708Y257831D01*
Y259821D01*
X334947Y261658D01*
X334604Y262001D01*
X334947Y262344D01*
X335708Y264181D01*
Y266171D01*
X334947Y268008D01*
X333540Y269415D01*
X331703Y270176D01*
D02*
G37*
G36*
X314995Y255000D02*
X313005D01*
X311168Y254239D01*
X309761Y252832D01*
X309000Y250995D01*
Y249005D01*
X309761Y247168D01*
X311168Y245761D01*
X313005Y245000D01*
X314995D01*
X316832Y245761D01*
X318239Y247168D01*
X319000Y249005D01*
Y250995D01*
X318239Y252832D01*
X316832Y254239D01*
X314995Y255000D01*
D02*
G37*
G36*
X118995Y248000D02*
X117005D01*
X115168Y247239D01*
X113761Y245832D01*
X113000Y243995D01*
Y242005D01*
X113761Y240168D01*
X115168Y238761D01*
X117005Y238000D01*
X118995D01*
X120832Y238761D01*
X122239Y240168D01*
X123000Y242005D01*
Y243995D01*
X122239Y245832D01*
X120832Y247239D01*
X118995Y248000D01*
D02*
G37*
G36*
X261995Y243000D02*
X260005D01*
X258168Y242239D01*
X256761Y240832D01*
X256000Y238995D01*
Y237005D01*
X256761Y235168D01*
X258168Y233761D01*
X260005Y233000D01*
X261995D01*
X263832Y233761D01*
X265239Y235168D01*
X266000Y237005D01*
Y238995D01*
X265239Y240832D01*
X263832Y242239D01*
X261995Y243000D01*
D02*
G37*
G36*
X238995D02*
X237005D01*
X235168Y242239D01*
X233761Y240832D01*
X233000Y238995D01*
Y237005D01*
X233761Y235168D01*
X235168Y233761D01*
X237005Y233000D01*
X238995D01*
X240832Y233761D01*
X242239Y235168D01*
X243000Y237005D01*
Y238995D01*
X242239Y240832D01*
X240832Y242239D01*
X238995Y243000D01*
D02*
G37*
G36*
X331195Y247316D02*
X329205D01*
X327368Y246555D01*
X325961Y245148D01*
X325200Y243311D01*
Y241321D01*
X325961Y239484D01*
X326304Y239141D01*
X325961Y238798D01*
X325200Y236961D01*
Y234971D01*
X325961Y233134D01*
X327368Y231727D01*
X329205Y230966D01*
X331195D01*
X333032Y231727D01*
X334439Y233134D01*
X335200Y234971D01*
Y236961D01*
X334439Y238798D01*
X334096Y239141D01*
X334439Y239484D01*
X335200Y241321D01*
Y243311D01*
X334439Y245148D01*
X333032Y246555D01*
X331195Y247316D01*
D02*
G37*
G36*
X167619Y240966D02*
X165629D01*
X163792Y240205D01*
X162385Y238798D01*
X161624Y236961D01*
Y234971D01*
X162385Y233134D01*
X163792Y231727D01*
X165629Y230966D01*
X167619D01*
X169456Y231727D01*
X170863Y233134D01*
X171624Y234971D01*
Y236961D01*
X170863Y238798D01*
X169456Y240205D01*
X167619Y240966D01*
D02*
G37*
G36*
X289995Y236000D02*
X288005D01*
X286168Y235239D01*
X284761Y233832D01*
X284000Y231995D01*
Y230005D01*
X284761Y228168D01*
X286168Y226761D01*
X288005Y226000D01*
X289995D01*
X291832Y226761D01*
X293239Y228168D01*
X294000Y230005D01*
Y231995D01*
X293239Y233832D01*
X291832Y235239D01*
X289995Y236000D01*
D02*
G37*
G36*
X204995Y228000D02*
X203005D01*
X201168Y227239D01*
X199761Y225832D01*
X199000Y223995D01*
Y222005D01*
X199761Y220168D01*
X201168Y218761D01*
X203005Y218000D01*
X204995D01*
X206832Y218761D01*
X208239Y220168D01*
X209000Y222005D01*
Y223995D01*
X208239Y225832D01*
X206832Y227239D01*
X204995Y228000D01*
D02*
G37*
G36*
X273995Y224000D02*
X272005D01*
X270168Y223239D01*
X268761Y221832D01*
X268000Y219995D01*
Y218005D01*
X268761Y216168D01*
X270168Y214761D01*
X272005Y214000D01*
X273995D01*
X275832Y214761D01*
X277239Y216168D01*
X278000Y218005D01*
Y219995D01*
X277239Y221832D01*
X275832Y223239D01*
X273995Y224000D01*
D02*
G37*
G36*
X235995Y220000D02*
X234006D01*
X232168Y219239D01*
X230761Y217832D01*
X230000Y215995D01*
Y214005D01*
X230761Y212168D01*
X232168Y210761D01*
X234006Y210000D01*
X235995D01*
X237832Y210761D01*
X239239Y212168D01*
X240000Y214005D01*
Y215995D01*
X239239Y217832D01*
X237832Y219239D01*
X235995Y220000D01*
D02*
G37*
G36*
X328655Y222170D02*
X326665D01*
X324828Y221409D01*
X323421Y220002D01*
X322660Y218165D01*
Y216175D01*
X323421Y214338D01*
X323764Y213995D01*
X323421Y213652D01*
X322660Y211815D01*
Y209825D01*
X323421Y207988D01*
X324828Y206581D01*
X326665Y205820D01*
X328655D01*
X330492Y206581D01*
X331899Y207988D01*
X332660Y209825D01*
Y211815D01*
X331899Y213652D01*
X331556Y213995D01*
X331899Y214338D01*
X332660Y216175D01*
Y218165D01*
X331899Y220002D01*
X330492Y221409D01*
X328655Y222170D01*
D02*
G37*
G36*
X245995Y213000D02*
X244005D01*
X242168Y212239D01*
X240761Y210832D01*
X240000Y208995D01*
Y207005D01*
X240761Y205168D01*
X242168Y203761D01*
X244005Y203000D01*
X245995D01*
X247832Y203761D01*
X249239Y205168D01*
X250000Y207005D01*
Y208995D01*
X249239Y210832D01*
X247832Y212239D01*
X245995Y213000D01*
D02*
G37*
G36*
X369295Y206676D02*
X367305D01*
X365468Y205915D01*
X364061Y204508D01*
X363300Y202671D01*
Y200681D01*
X364061Y198844D01*
X365468Y197437D01*
X367305Y196676D01*
X369295D01*
X371132Y197437D01*
X372539Y198844D01*
X373300Y200681D01*
Y202671D01*
X372539Y204508D01*
X371132Y205915D01*
X369295Y206676D01*
D02*
G37*
G36*
X404601Y205660D02*
X402611D01*
X400774Y204899D01*
X399367Y203492D01*
X398606Y201655D01*
Y199665D01*
X399367Y197828D01*
X400774Y196421D01*
X402611Y195660D01*
X404601D01*
X406438Y196421D01*
X407845Y197828D01*
X408606Y199665D01*
Y201655D01*
X407845Y203492D01*
X406438Y204899D01*
X404601Y205660D01*
D02*
G37*
G36*
X139225Y205050D02*
X137235D01*
X135398Y204289D01*
X133991Y202882D01*
X133230Y201045D01*
Y199056D01*
X133991Y197218D01*
X135398Y195811D01*
X137235Y195050D01*
X139225D01*
X141062Y195811D01*
X142469Y197218D01*
X143230Y199056D01*
Y201045D01*
X142469Y202882D01*
X141062Y204289D01*
X139225Y205050D01*
D02*
G37*
G36*
X346995Y198000D02*
X345005D01*
X343168Y197239D01*
X341761Y195832D01*
X341000Y193995D01*
Y192005D01*
X341761Y190168D01*
X343168Y188761D01*
X345005Y188000D01*
X346995D01*
X348832Y188761D01*
X350239Y190168D01*
X351000Y192005D01*
Y193995D01*
X350239Y195832D01*
X348832Y197239D01*
X346995Y198000D01*
D02*
G37*
G36*
X299995D02*
X298005D01*
X296168Y197239D01*
X294761Y195832D01*
X294000Y193995D01*
Y192005D01*
X294761Y190168D01*
X296168Y188761D01*
X298005Y188000D01*
X299995D01*
X301832Y188761D01*
X303239Y190168D01*
X304000Y192005D01*
Y193995D01*
X303239Y195832D01*
X301832Y197239D01*
X299995Y198000D01*
D02*
G37*
G36*
X369549Y192706D02*
X367559D01*
X365722Y191945D01*
X364315Y190538D01*
X363554Y188701D01*
Y186711D01*
X364315Y184874D01*
X365722Y183467D01*
X367559Y182706D01*
X369549D01*
X371386Y183467D01*
X372793Y184874D01*
X373554Y186711D01*
Y188701D01*
X372793Y190538D01*
X371386Y191945D01*
X369549Y192706D01*
D02*
G37*
G36*
X404601Y192452D02*
X402611D01*
X400774Y191691D01*
X399367Y190284D01*
X398606Y188447D01*
Y186457D01*
X399367Y184620D01*
X400774Y183213D01*
X402611Y182452D01*
X404601D01*
X406438Y183213D01*
X407845Y184620D01*
X408606Y186457D01*
Y188447D01*
X407845Y190284D01*
X406438Y191691D01*
X404601Y192452D01*
D02*
G37*
G36*
X394949Y179752D02*
X392959D01*
X391122Y178991D01*
X389715Y177584D01*
X388954Y175747D01*
Y173757D01*
X389715Y171920D01*
X391122Y170513D01*
X392959Y169752D01*
X394949D01*
X396786Y170513D01*
X398193Y171920D01*
X398954Y173757D01*
Y175747D01*
X398193Y177584D01*
X396786Y178991D01*
X394949Y179752D01*
D02*
G37*
G36*
X378947D02*
X376957D01*
X375120Y178991D01*
X373713Y177584D01*
X372952Y175747D01*
Y173757D01*
X373713Y171920D01*
X375120Y170513D01*
X376957Y169752D01*
X378947D01*
X380784Y170513D01*
X382191Y171920D01*
X382952Y173757D01*
Y175747D01*
X382191Y177584D01*
X380784Y178991D01*
X378947Y179752D01*
D02*
G37*
G36*
X134995Y174000D02*
X133005D01*
X131168Y173239D01*
X129761Y171832D01*
X129000Y169995D01*
Y168005D01*
X129761Y166168D01*
X131168Y164761D01*
X133005Y164000D01*
X134995D01*
X136832Y164761D01*
X138239Y166168D01*
X139000Y168005D01*
Y169995D01*
X138239Y171832D01*
X136832Y173239D01*
X134995Y174000D01*
D02*
G37*
G36*
X195995Y173000D02*
X194005D01*
X192168Y172239D01*
X190761Y170832D01*
X190000Y168995D01*
Y167005D01*
X190761Y165168D01*
X192168Y163761D01*
X194005Y163000D01*
X195995D01*
X197832Y163761D01*
X199239Y165168D01*
X200000Y167005D01*
Y168995D01*
X199239Y170832D01*
X197832Y172239D01*
X195995Y173000D01*
D02*
G37*
G36*
X245995Y167000D02*
X244005D01*
X242168Y166239D01*
X240761Y164832D01*
X240000Y162995D01*
Y161005D01*
X240761Y159168D01*
X242168Y157761D01*
X244005Y157000D01*
X245995D01*
X247832Y157761D01*
X249239Y159168D01*
X250000Y161005D01*
Y162995D01*
X249239Y164832D01*
X247832Y166239D01*
X245995Y167000D01*
D02*
G37*
G36*
X104995Y160000D02*
X103005D01*
X101168Y159239D01*
X99761Y157832D01*
X99000Y155995D01*
Y154005D01*
X99761Y152168D01*
X100714Y151215D01*
X100993Y150000D01*
X100714Y148785D01*
X99761Y147832D01*
X99000Y145995D01*
Y145755D01*
X98905Y145632D01*
X97000Y144584D01*
X95995Y145000D01*
X94900D01*
X94071Y147000D01*
X94239Y147168D01*
X95000Y149005D01*
Y150995D01*
X94239Y152832D01*
X92832Y154239D01*
X90995Y155000D01*
X89005D01*
X87168Y154239D01*
X85761Y152832D01*
X85000Y150995D01*
Y149005D01*
X85761Y147168D01*
X87168Y145761D01*
X89005Y145000D01*
X90100D01*
X90929Y143000D01*
X90761Y142832D01*
X90000Y140995D01*
Y139005D01*
X90761Y137168D01*
X92168Y135761D01*
X94005Y135000D01*
X95995D01*
X97832Y135761D01*
X99239Y137168D01*
X100000Y139005D01*
Y139245D01*
X100095Y139368D01*
X102000Y140416D01*
X103005Y140000D01*
X104995D01*
X106832Y140761D01*
X108239Y142168D01*
X109000Y144005D01*
Y145995D01*
X108239Y147832D01*
X107287Y148785D01*
X107007Y150000D01*
X107287Y151215D01*
X108239Y152168D01*
X109000Y154005D01*
Y155995D01*
X108239Y157832D01*
X106832Y159239D01*
X104995Y160000D01*
D02*
G37*
G36*
X191995Y136000D02*
X190005D01*
X188168Y135239D01*
X186761Y133832D01*
X186000Y131995D01*
Y130005D01*
X186761Y128168D01*
X188168Y126761D01*
X190005Y126000D01*
X191995D01*
X193832Y126761D01*
X195239Y128168D01*
X196000Y130005D01*
Y131995D01*
X195239Y133832D01*
X193832Y135239D01*
X191995Y136000D01*
D02*
G37*
G36*
X134995Y135900D02*
X133005D01*
X131168Y135139D01*
X129761Y133732D01*
X129000Y131895D01*
Y129905D01*
X129761Y128068D01*
X131168Y126661D01*
X133005Y125900D01*
X134995D01*
X136832Y126661D01*
X138239Y128068D01*
X139000Y129905D01*
Y131895D01*
X138239Y133732D01*
X136832Y135139D01*
X134995Y135900D01*
D02*
G37*
G36*
X377995Y124000D02*
X376005D01*
X374168Y123239D01*
X372761Y121832D01*
X372000Y119995D01*
Y118005D01*
X372761Y116168D01*
X374168Y114761D01*
X376005Y114000D01*
X377995D01*
X379832Y114761D01*
X381239Y116168D01*
X382000Y118005D01*
Y119995D01*
X381239Y121832D01*
X379832Y123239D01*
X377995Y124000D01*
D02*
G37*
G36*
X97867Y123810D02*
X95877D01*
X94040Y123049D01*
X92633Y121642D01*
X91872Y119805D01*
Y117815D01*
X92566Y116141D01*
X92168Y114239D01*
X90761Y112832D01*
X90000Y110995D01*
Y109005D01*
X90761Y107168D01*
X92168Y105761D01*
X93765Y105100D01*
X94001Y104221D01*
X93995Y103004D01*
X92633Y101642D01*
X91872Y99805D01*
Y97815D01*
X92633Y95978D01*
X94040Y94571D01*
X95877Y93810D01*
X97867D01*
X99704Y94571D01*
X101111Y95978D01*
X101872Y97815D01*
Y99805D01*
X101111Y101642D01*
X99704Y103049D01*
X98107Y103710D01*
X97871Y104588D01*
X97877Y105806D01*
X99239Y107168D01*
X100000Y109005D01*
Y110995D01*
X99306Y112669D01*
X99704Y114571D01*
X101111Y115978D01*
X101872Y117815D01*
Y119805D01*
X101111Y121642D01*
X99704Y123049D01*
X97867Y123810D01*
D02*
G37*
%LPD*%
D23*
X266954Y161290D02*
D03*
X291500Y307500D02*
D03*
X223000Y163000D02*
D03*
X296500Y365500D02*
D03*
X285000Y360000D02*
D03*
X118000Y325000D02*
D03*
X119000Y348000D02*
D03*
X118254Y287000D02*
D03*
X211000Y248000D02*
D03*
M02*
