G04*
G04 #@! TF.GenerationSoftware,Altium Limited,Altium Designer,21.9.2 (33)*
G04*
G04 Layer_Color=32896*
%FSLAX44Y44*%
%MOMM*%
G71*
G04*
G04 #@! TF.SameCoordinates,E4C3A579-B693-4A56-8CB7-AE82ACC2EB58*
G04*
G04*
G04 #@! TF.FilePolarity,Positive*
G04*
G01*
G75*
%ADD10C,0.2000*%
%ADD11C,0.2540*%
%ADD46C,0.3500*%
%ADD47C,0.1000*%
D10*
X274000Y276000D02*
X276000Y274000D01*
X270828Y276000D02*
X274000D01*
X224000D02*
X228410D01*
X224000Y271082D02*
Y276000D01*
Y224000D02*
Y228918D01*
Y224000D02*
X228664D01*
X271082D02*
X276000D01*
Y228918D01*
Y271336D02*
Y274000D01*
X213602Y200256D02*
X232398D01*
X213348Y167998D02*
Y200256D01*
Y167998D02*
X232652D01*
Y200256D01*
X235602Y167744D02*
X254398D01*
X254652D02*
Y200002D01*
X235348D02*
X254652D01*
X235348Y167744D02*
Y200002D01*
X257602Y200256D02*
X276398D01*
X257348Y167998D02*
Y200256D01*
Y167998D02*
X276652D01*
Y200256D01*
X279602Y167744D02*
X298398D01*
X298652D02*
Y200002D01*
X279348D02*
X298652D01*
X279348Y167744D02*
Y200002D01*
X301602Y200256D02*
X320398D01*
X301348Y167998D02*
Y200256D01*
Y167998D02*
X320652D01*
Y200256D01*
X282140Y225430D02*
X329130D01*
X282140Y202570D02*
X329130D01*
X282140D02*
Y225430D01*
X329130Y202570D02*
Y225430D01*
X331780Y228840D02*
Y249160D01*
X296220D02*
X331780D01*
X296220Y228840D02*
Y249160D01*
Y228840D02*
X331780D01*
X296220Y251840D02*
Y272160D01*
Y251840D02*
X331780D01*
Y272160D01*
X296220D02*
X331780D01*
X283220Y285840D02*
X318780D01*
X283220D02*
Y306160D01*
X318780D01*
Y285840D02*
Y306160D01*
X286220Y338160D02*
X321780D01*
Y317840D02*
Y338160D01*
X286220Y317840D02*
X321780D01*
X286220D02*
Y338160D01*
X322256Y341602D02*
Y360398D01*
X289998Y360652D02*
X322256D01*
X289998Y341348D02*
Y360652D01*
Y341348D02*
X322256D01*
X279756Y394602D02*
Y413398D01*
X247498Y413652D02*
X279756D01*
X247498Y394348D02*
Y413652D01*
Y394348D02*
X279756D01*
X247744Y372602D02*
Y391398D01*
Y372348D02*
X280002D01*
Y391652D01*
X247744D02*
X280002D01*
X247744Y350602D02*
Y369398D01*
Y350348D02*
X280002D01*
Y369652D01*
X247744D02*
X280002D01*
X247744Y328602D02*
Y347398D01*
Y328348D02*
X280002D01*
Y347652D01*
X247744D02*
X280002D01*
X245602Y293744D02*
X264398D01*
X264652D02*
Y326002D01*
X245348D02*
X264652D01*
X245348Y293744D02*
Y326002D01*
X167720Y175840D02*
X203280D01*
X167720D02*
Y196160D01*
X203280D01*
Y175840D02*
Y196160D01*
X171022Y198602D02*
Y217398D01*
Y198348D02*
X203280D01*
Y217652D01*
X171022D02*
X203280D01*
X167720Y246160D02*
X203280D01*
Y225840D02*
Y246160D01*
X167720Y225840D02*
X203280D01*
X167720D02*
Y246160D01*
X171022Y265348D02*
X203280D01*
X171022D02*
Y284652D01*
X203280D01*
Y265602D02*
Y284398D01*
X167720Y308160D02*
X203280D01*
Y287840D02*
Y308160D01*
X167720Y287840D02*
X203280D01*
X167720D02*
Y308160D01*
X158256Y233602D02*
Y252398D01*
X125998Y252652D02*
X158256D01*
X125998Y233348D02*
Y252652D01*
Y233348D02*
X158256D01*
X125998Y255602D02*
Y274398D01*
Y255348D02*
X158256D01*
Y274652D01*
X125998D02*
X158256D01*
X158510Y277602D02*
Y296398D01*
X126252Y296652D02*
X158510D01*
X126252Y277348D02*
Y296652D01*
Y277348D02*
X158510D01*
X158256Y315602D02*
Y334398D01*
X125998Y334652D02*
X158256D01*
X125998Y315348D02*
Y334652D01*
Y315348D02*
X158256D01*
X126744Y338602D02*
Y357398D01*
Y338348D02*
X159002D01*
Y357652D01*
X126744D02*
X159002D01*
X283242Y260318D02*
X280243D01*
X281742D01*
Y269315D01*
X283242Y267816D01*
D11*
X475236Y30226D02*
X480314Y35304D01*
Y40383D01*
X475236Y45461D01*
X457461Y42922D02*
X460001Y45461D01*
X465079D01*
X467618Y42922D01*
Y32765D01*
X465079Y30226D01*
X460001D01*
X457461Y32765D01*
X452383Y30226D02*
X447305Y35304D01*
Y40383D01*
X452383Y45461D01*
X414295Y30226D02*
X424452D01*
X414295Y40383D01*
Y42922D01*
X416834Y45461D01*
X421913D01*
X424452Y42922D01*
X409217D02*
X406678Y45461D01*
X401600D01*
X399060Y42922D01*
Y32765D01*
X401600Y30226D01*
X406678D01*
X409217Y32765D01*
Y42922D01*
X393982Y30226D02*
X388904D01*
X391443D01*
Y45461D01*
X393982Y42922D01*
X381286Y32765D02*
X378747Y30226D01*
X373669D01*
X371129Y32765D01*
Y42922D01*
X373669Y45461D01*
X378747D01*
X381286Y42922D01*
Y40383D01*
X378747Y37843D01*
X371129D01*
X340659Y45461D02*
X350816D01*
Y37843D01*
X345738D01*
X350816D01*
Y30226D01*
X325424Y45461D02*
X335581D01*
Y30226D01*
X325424D01*
X335581Y37843D02*
X330503D01*
X320346Y45461D02*
Y30226D01*
X312728D01*
X310189Y32765D01*
Y42922D01*
X312728Y45461D01*
X320346D01*
X294954D02*
X305111D01*
Y30226D01*
X294954D01*
X305111Y37843D02*
X300032D01*
X289876Y45461D02*
Y35304D01*
X284797Y30226D01*
X279719Y35304D01*
Y45461D01*
X264484D02*
X274641D01*
Y30226D01*
X264484D01*
X274641Y37843D02*
X269562D01*
X259405Y45461D02*
Y30226D01*
X249249D01*
X215394Y122941D02*
X230630D01*
Y130559D01*
X228090Y133098D01*
X223012D01*
X220473Y130559D01*
Y122941D01*
Y128020D02*
X215394Y133098D01*
Y138176D02*
Y143255D01*
Y140716D01*
X230630D01*
X228090Y138176D01*
X215394Y150872D02*
Y155951D01*
Y153412D01*
X230630D01*
X228090Y150872D01*
X235968Y122942D02*
X251203D01*
Y130560D01*
X248664Y133099D01*
X243586D01*
X241047Y130560D01*
Y122942D01*
Y128020D02*
X235968Y133099D01*
X251203Y138177D02*
Y148334D01*
X248664D01*
X238508Y138177D01*
X235968D01*
X258321Y122942D02*
X273556D01*
Y130560D01*
X271016Y133099D01*
X265938D01*
X263399Y130560D01*
Y122942D01*
Y128020D02*
X258321Y133099D01*
Y138177D02*
Y143256D01*
Y140716D01*
X273556D01*
X271016Y138177D01*
Y150873D02*
X273556Y153412D01*
Y158491D01*
X271016Y161030D01*
X268477D01*
X265938Y158491D01*
Y155951D01*
Y158491D01*
X263399Y161030D01*
X260860D01*
X258321Y158491D01*
Y153412D01*
X260860Y150873D01*
X281434Y122942D02*
X296670D01*
Y130560D01*
X294130Y133099D01*
X289052D01*
X286513Y130560D01*
Y122942D01*
Y128020D02*
X281434Y133099D01*
Y138177D02*
Y143256D01*
Y140716D01*
X296670D01*
X294130Y138177D01*
X281434Y161030D02*
Y150873D01*
X291591Y161030D01*
X294130D01*
X296670Y158491D01*
Y153412D01*
X294130Y150873D01*
X304802Y122942D02*
X320038D01*
Y130560D01*
X317498Y133099D01*
X312420D01*
X309881Y130560D01*
Y122942D01*
Y128020D02*
X304802Y133099D01*
Y138177D02*
Y143256D01*
Y140716D01*
X320038D01*
X317498Y138177D01*
X320038Y150873D02*
Y161030D01*
X317498D01*
X307342Y150873D01*
X304802D01*
X368173Y223894D02*
X370713Y226433D01*
X375791D01*
X378330Y223894D01*
Y213737D01*
X375791Y211198D01*
X370713D01*
X368173Y213737D01*
X363095Y211198D02*
X358017D01*
X360556D01*
Y226433D01*
X363095Y223894D01*
X368173Y247516D02*
X370713Y250055D01*
X375791D01*
X378330Y247516D01*
Y237359D01*
X375791Y234820D01*
X370713D01*
X368173Y237359D01*
X352938Y234820D02*
X363095D01*
X352938Y244977D01*
Y247516D01*
X355477Y250055D01*
X360556D01*
X363095Y247516D01*
X368173Y270630D02*
X370713Y273169D01*
X375791D01*
X378330Y270630D01*
Y260473D01*
X375791Y257934D01*
X370713D01*
X368173Y260473D01*
X363095Y257934D02*
X358017D01*
X360556D01*
Y273169D01*
X363095Y270630D01*
X350399Y257934D02*
X345321D01*
X347860D01*
Y273169D01*
X350399Y270630D01*
X368173Y304666D02*
X370713Y307205D01*
X375791D01*
X378330Y304666D01*
Y294509D01*
X375791Y291970D01*
X370713D01*
X368173Y294509D01*
X355477Y291970D02*
Y307205D01*
X363095Y299587D01*
X352938D01*
X368173Y336670D02*
X370713Y339209D01*
X375791D01*
X378330Y336670D01*
Y326513D01*
X375791Y323974D01*
X370713D01*
X368173Y326513D01*
X363095Y323974D02*
X358017D01*
X360556D01*
Y339209D01*
X363095Y336670D01*
X340242Y323974D02*
X350399D01*
X340242Y334131D01*
Y336670D01*
X342781Y339209D01*
X347860D01*
X350399Y336670D01*
X378330Y346326D02*
Y361561D01*
X370713D01*
X368173Y359022D01*
Y353943D01*
X370713Y351404D01*
X378330D01*
X373252D02*
X368173Y346326D01*
X363095Y359022D02*
X360556Y361561D01*
X355477D01*
X352938Y359022D01*
Y356483D01*
X355477Y353943D01*
X352938Y351404D01*
Y348865D01*
X355477Y346326D01*
X360556D01*
X363095Y348865D01*
Y351404D01*
X360556Y353943D01*
X363095Y356483D01*
Y359022D01*
X360556Y353943D02*
X355477D01*
X236598Y393824D02*
Y409059D01*
X228981D01*
X226441Y406520D01*
Y401441D01*
X228981Y398902D01*
X236598D01*
X231520D02*
X226441Y393824D01*
X221363D02*
X216285D01*
X218824D01*
Y409059D01*
X221363Y406520D01*
X208667D02*
X206128Y409059D01*
X201049D01*
X198510Y406520D01*
Y403981D01*
X201049Y401441D01*
X198510Y398902D01*
Y396363D01*
X201049Y393824D01*
X206128D01*
X208667Y396363D01*
Y398902D01*
X206128Y401441D01*
X208667Y403981D01*
Y406520D01*
X206128Y401441D02*
X201049D01*
X236598Y371726D02*
Y386961D01*
X228981D01*
X226441Y384422D01*
Y379343D01*
X228981Y376804D01*
X236598D01*
X231520D02*
X226441Y371726D01*
X221363D02*
X216285D01*
X218824D01*
Y386961D01*
X221363Y384422D01*
X198510Y386961D02*
X208667D01*
Y379343D01*
X203589Y381883D01*
X201049D01*
X198510Y379343D01*
Y374265D01*
X201049Y371726D01*
X206128D01*
X208667Y374265D01*
X236598Y349882D02*
Y365117D01*
X228981D01*
X226441Y362578D01*
Y357500D01*
X228981Y354960D01*
X236598D01*
X231520D02*
X226441Y349882D01*
X221363D02*
X216285D01*
X218824D01*
Y365117D01*
X221363Y362578D01*
X198510Y365117D02*
X203589Y362578D01*
X208667Y357500D01*
Y352421D01*
X206128Y349882D01*
X201049D01*
X198510Y352421D01*
Y354960D01*
X201049Y357500D01*
X208667D01*
X236598Y327784D02*
Y343019D01*
X228981D01*
X226441Y340480D01*
Y335401D01*
X228981Y332862D01*
X236598D01*
X231520D02*
X226441Y327784D01*
X221363D02*
X216285D01*
X218824D01*
Y343019D01*
X221363Y340480D01*
X201049Y327784D02*
Y343019D01*
X208667Y335401D01*
X198510D01*
X236598Y306194D02*
Y321429D01*
X228981D01*
X226441Y318890D01*
Y313811D01*
X228981Y311272D01*
X236598D01*
X231520D02*
X226441Y306194D01*
X211206Y321429D02*
X216285Y318890D01*
X221363Y313811D01*
Y308733D01*
X218824Y306194D01*
X213745D01*
X211206Y308733D01*
Y311272D01*
X213745Y313811D01*
X221363D01*
X187325Y49650D02*
X189865Y52189D01*
X194943D01*
X197482Y49650D01*
Y39493D01*
X194943Y36954D01*
X189865D01*
X187325Y39493D01*
X182247Y52189D02*
X172090D01*
Y49650D01*
X182247Y39493D01*
Y36954D01*
X197482Y64957D02*
Y80193D01*
X189865D01*
X187325Y77653D01*
Y72575D01*
X189865Y70036D01*
X197482D01*
X192404D02*
X187325Y64957D01*
X174629D02*
Y80193D01*
X182247Y72575D01*
X172090D01*
X187325Y105657D02*
X189865Y108196D01*
X194943D01*
X197482Y105657D01*
Y95500D01*
X194943Y92961D01*
X189865D01*
X187325Y95500D01*
X182247Y105657D02*
X179708Y108196D01*
X174629D01*
X172090Y105657D01*
Y103118D01*
X174629Y100578D01*
X177169D01*
X174629D01*
X172090Y98039D01*
Y95500D01*
X174629Y92961D01*
X179708D01*
X182247Y95500D01*
X197482Y120964D02*
Y136200D01*
X189865D01*
X187325Y133660D01*
Y128582D01*
X189865Y126043D01*
X197482D01*
X192404D02*
X187325Y120964D01*
X172090Y136200D02*
X182247D01*
Y128582D01*
X177169Y131121D01*
X174629D01*
X172090Y128582D01*
Y123504D01*
X174629Y120964D01*
X179708D01*
X182247Y123504D01*
X187325Y161664D02*
X189865Y164203D01*
X194943D01*
X197482Y161664D01*
Y151507D01*
X194943Y148968D01*
X189865D01*
X187325Y151507D01*
X182247Y161664D02*
X179708Y164203D01*
X174629D01*
X172090Y161664D01*
Y159125D01*
X174629Y156586D01*
X172090Y154046D01*
Y151507D01*
X174629Y148968D01*
X179708D01*
X182247Y151507D01*
Y154046D01*
X179708Y156586D01*
X182247Y159125D01*
Y161664D01*
X179708Y156586D02*
X174629D01*
X116202Y235328D02*
Y250563D01*
X108584D01*
X106045Y248024D01*
Y242945D01*
X108584Y240406D01*
X116202D01*
X111124D02*
X106045Y235328D01*
X100967D02*
X95889D01*
X98428D01*
Y250563D01*
X100967Y248024D01*
X116202Y257426D02*
Y272661D01*
X108584D01*
X106045Y270122D01*
Y265044D01*
X108584Y262504D01*
X116202D01*
X111124D02*
X106045Y257426D01*
X90810D02*
X100967D01*
X90810Y267583D01*
Y270122D01*
X93349Y272661D01*
X98428D01*
X100967Y270122D01*
X116456Y279270D02*
Y294505D01*
X108839D01*
X106299Y291966D01*
Y286887D01*
X108839Y284348D01*
X116456D01*
X111378D02*
X106299Y279270D01*
X101221Y291966D02*
X98682Y294505D01*
X93603D01*
X91064Y291966D01*
Y289427D01*
X93603Y286887D01*
X96143D01*
X93603D01*
X91064Y284348D01*
Y281809D01*
X93603Y279270D01*
X98682D01*
X101221Y281809D01*
X116202Y317370D02*
Y332605D01*
X108584D01*
X106045Y330066D01*
Y324987D01*
X108584Y322448D01*
X116202D01*
X111124D02*
X106045Y317370D01*
X100967D02*
X95889D01*
X98428D01*
Y332605D01*
X100967Y330066D01*
X88271D02*
X85732Y332605D01*
X80653D01*
X78114Y330066D01*
Y319909D01*
X80653Y317370D01*
X85732D01*
X88271Y319909D01*
Y330066D01*
X116710Y340484D02*
Y355719D01*
X109093D01*
X106553Y353180D01*
Y348102D01*
X109093Y345562D01*
X116710D01*
X111632D02*
X106553Y340484D01*
X101475Y343023D02*
X98936Y340484D01*
X93857D01*
X91318Y343023D01*
Y353180D01*
X93857Y355719D01*
X98936D01*
X101475Y353180D01*
Y350641D01*
X98936Y348102D01*
X91318D01*
D46*
X399344Y481710D02*
X392679D01*
X396012D01*
Y461716D01*
X399344D01*
X392679D01*
X369354Y478377D02*
X372686Y481710D01*
X379351D01*
X382683Y478377D01*
Y475045D01*
X379351Y471713D01*
X372686D01*
X369354Y468381D01*
Y465048D01*
X372686Y461716D01*
X379351D01*
X382683Y465048D01*
X362689Y481710D02*
Y461716D01*
X349360D01*
X329367Y481710D02*
X336031Y478377D01*
X342696Y471713D01*
Y465048D01*
X339363Y461716D01*
X332699D01*
X329367Y465048D01*
Y468381D01*
X332699Y471713D01*
X342696D01*
X309373Y461716D02*
X322702D01*
X309373Y475045D01*
Y478377D01*
X312705Y481710D01*
X319370D01*
X322702Y478377D01*
X302708D02*
X299376Y481710D01*
X292712D01*
X289380Y478377D01*
Y475045D01*
X292712Y471713D01*
X296044D01*
X292712D01*
X289380Y468381D01*
Y465048D01*
X292712Y461716D01*
X299376D01*
X302708Y465048D01*
X269386Y481710D02*
X276050Y478377D01*
X282715Y471713D01*
Y465048D01*
X279383Y461716D01*
X272718D01*
X269386Y465048D01*
Y468381D01*
X272718Y471713D01*
X282715D01*
X262721Y461716D02*
Y475045D01*
X256057Y481710D01*
X249392Y475045D01*
Y461716D01*
Y471713D01*
X262721D01*
X222734Y481710D02*
Y461716D01*
X212738D01*
X209405Y465048D01*
Y478377D01*
X212738Y481710D01*
X222734D01*
X189412D02*
X202741D01*
Y461716D01*
X189412D01*
X202741Y471713D02*
X196076D01*
X182747Y461716D02*
Y481710D01*
X176083Y475045D01*
X169418Y481710D01*
Y461716D01*
X152757Y481710D02*
X159421D01*
X162754Y478377D01*
Y465048D01*
X159421Y461716D01*
X152757D01*
X149425Y465048D01*
Y478377D01*
X152757Y481710D01*
X122767D02*
Y468381D01*
X116102Y461716D01*
X109437Y468381D01*
Y481710D01*
X102773Y461716D02*
X96108D01*
X99441D01*
Y481710D01*
X102773Y478377D01*
X86112Y481710D02*
X79447D01*
X82779D01*
Y461716D01*
X86112D01*
X79447D01*
X69450D02*
X62786D01*
X66118D01*
Y481710D01*
X69450Y478377D01*
D47*
X242600Y287741D02*
Y283576D01*
X241767Y282743D01*
X240101D01*
X239268Y283576D01*
Y287741D01*
X237602Y282743D02*
X235936D01*
X236769D01*
Y287741D01*
X237602Y286908D01*
M02*
