M48
;Layer_Color=9474304
;FILE_FORMAT=4:4
METRIC,LZ
;TYPE=PLATED
T1F00S00C0.3000
T2F00S00C1.5000
%
T01
X00075Y00095
X00085
X00075Y00115
Y00135
Y00155
X00085Y00125
Y00335
X00075
Y00355
X00085Y00365
X00075Y00375
Y00395
X0009Y0039
X00095Y0038
X00104Y00385
Y00395
X00097634Y00359572
X00095Y0035
X00097634Y00339572
X00119Y00348
X00118Y00325
X00118254Y00287
X00118254Y00265
X00118Y00243
X00166624Y00235966
X00204Y00223
X00211Y00248
X0021025Y0026225
X00238Y00262
X00251Y0026
X0025765Y0028365
X00249428Y00290322
X00224Y00285
X00211Y0031
X00195Y00315
X002435Y003195
X002915Y003075
X00305562Y00324612
X00305054Y00331724
X002965Y003655
X00285Y0036
X002845Y00404
X00193Y00371
X00134Y003709
Y00409
X00134112Y00430276
X0013423Y0043905
X00134112Y0044831
X0013823Y0020005
X00134Y00169
Y001309
X00104Y00145
Y00155
X0009Y0015
X00095Y0014
X00096872Y0011881
X00095Y0011
X00096872Y0009881
X00191Y00131
X00195Y00168
X00223Y00163
X00245Y00162
X00266954Y0016129
X00273Y00219
X00289Y00231
X00261Y00238
X00238
X00235Y00215
X00245Y00208
X00299Y00193
X0032766Y0021082
Y0021717
X003302Y00235966
Y00242316
X00330708Y00258826
Y00265176
X00314Y0025
X00318262Y00292862
Y00299212
X00368046Y0030607
X003683Y002921
X00377698Y00279146
X003937
X00403352Y00291846
Y00305054
X00391Y00385515
X00403606Y0020066
Y00187452
X00393954Y00174752
X00377952
X00368554Y00187706
X003683Y00201676
X00346Y00193
X00377Y00119
T02
X00052Y0019
X0005Y003
X0045
Y0036
Y002
Y0014
M30
