G04*
G04 #@! TF.GenerationSoftware,Altium Limited,Altium Designer,21.7.2 (23)*
G04*
G04 Layer_Physical_Order=2*
G04 Layer_Color=16711680*
%FSLAX25Y25*%
%MOIN*%
G70*
G04*
G04 #@! TF.SameCoordinates,30376CAB-91CD-47D3-876A-24FA50545A46*
G04*
G04*
G04 #@! TF.FilePolarity,Positive*
G04*
G01*
G75*
%ADD13R,0.03150X0.03150*%
%ADD14R,0.05118X0.02756*%
%ADD19C,0.01968*%
%ADD20R,0.07874X0.06299*%
%ADD21O,0.07874X0.06299*%
%ADD22C,0.02362*%
G36*
X62200Y65088D02*
X61955Y65040D01*
X61239Y64561D01*
X55525Y58848D01*
X55047Y58131D01*
X54879Y57287D01*
Y51732D01*
X51968D01*
Y43071D01*
X62200D01*
Y40922D01*
X61716Y40438D01*
X60733D01*
X59967Y41026D01*
X58957Y41444D01*
X57874Y41587D01*
X57587D01*
Y37402D01*
Y33216D01*
X57874D01*
X58957Y33359D01*
X59967Y33777D01*
X60834Y34442D01*
X61499Y35309D01*
X61700Y35795D01*
X62200Y35695D01*
Y5000D01*
X5000D01*
Y75000D01*
X62200D01*
Y65088D01*
D02*
G37*
%LPC*%
G36*
X56587Y41587D02*
X56299D01*
X55216Y41444D01*
X54207Y41026D01*
X53340Y40361D01*
X52675Y39494D01*
X52256Y38485D01*
X52180Y37902D01*
X56587D01*
Y41587D01*
D02*
G37*
G36*
Y36902D02*
X52180D01*
X52256Y36318D01*
X52675Y35309D01*
X53340Y34442D01*
X54207Y33777D01*
X55216Y33359D01*
X56299Y33216D01*
X56587D01*
Y36902D01*
D02*
G37*
G36*
X29437Y23217D02*
Y21563D01*
X31091D01*
X30786Y22298D01*
X30173Y22912D01*
X29437Y23217D01*
D02*
G37*
G36*
X28437D02*
X27702Y22912D01*
X27088Y22298D01*
X26783Y21563D01*
X28437D01*
Y23217D01*
D02*
G37*
G36*
X31091Y20563D02*
X29437D01*
Y18909D01*
X30173Y19214D01*
X30786Y19827D01*
X31091Y20563D01*
D02*
G37*
G36*
X28437D02*
X26783D01*
X27088Y19827D01*
X27702Y19214D01*
X28437Y18909D01*
Y20563D01*
D02*
G37*
%LPD*%
D13*
X68500Y46796D02*
D03*
Y40300D02*
D03*
D14*
X68550Y55330D02*
D03*
Y62810D02*
D03*
D19*
X64700Y40300D02*
X68500D01*
X62630Y38230D02*
X64700Y40300D01*
X57087Y37402D02*
X57915Y38230D01*
X62630D01*
X68525Y46821D02*
Y55304D01*
X68500Y46796D02*
X68525Y46821D01*
Y55304D02*
X68550Y55330D01*
X68360Y63000D02*
X68550Y62810D01*
X62800Y63000D02*
X68360D01*
X57087Y47402D02*
Y57287D01*
X62800Y63000D01*
D20*
X57087Y47402D02*
D03*
D21*
Y37402D02*
D03*
D22*
X28937Y21063D02*
D03*
M02*
