G04*
G04 #@! TF.GenerationSoftware,Altium Limited,Altium Designer,21.7.2 (23)*
G04*
G04 Layer_Color=65535*
%FSLAX25Y25*%
%MOIN*%
G70*
G04*
G04 #@! TF.SameCoordinates,30376CAB-91CD-47D3-876A-24FA50545A46*
G04*
G04*
G04 #@! TF.FilePolarity,Positive*
G04*
G01*
G75*
%ADD10C,0.00787*%
%ADD11C,0.01000*%
%ADD12R,0.06000X0.01500*%
D10*
X14717Y16811D02*
X20717D01*
Y30811D01*
X14717D02*
X20717D01*
X14717Y16811D02*
Y30811D01*
X68587Y32402D02*
Y52402D01*
X45587Y32402D02*
X68587D01*
X45587D02*
Y52402D01*
X68587D01*
X45587Y47402D02*
X51587D01*
Y37402D02*
Y47402D01*
X45587Y37402D02*
X51587D01*
X21618Y38579D02*
Y51772D01*
X13716D02*
X21618D01*
X13716Y38579D02*
X21618D01*
X13716D02*
Y51772D01*
X34287Y10436D02*
Y7287D01*
Y8862D01*
X35074Y9649D01*
X35862Y10436D01*
X36649D01*
X39010Y7287D02*
X41372D01*
X42159Y8075D01*
X41372Y8862D01*
X39797D01*
X39010Y9649D01*
X39797Y10436D01*
X42159D01*
X44520D02*
X46095D01*
X46882Y9649D01*
Y7287D01*
X44520D01*
X43733Y8075D01*
X44520Y8862D01*
X46882D01*
X48456Y7287D02*
Y10436D01*
X49243D01*
X50030Y9649D01*
Y7287D01*
Y9649D01*
X50818Y10436D01*
X51605Y9649D01*
Y7287D01*
X53966D02*
X55540D01*
X56327Y8075D01*
Y9649D01*
X55540Y10436D01*
X53966D01*
X53179Y9649D01*
Y8075D01*
X53966Y7287D01*
X57902D02*
Y10436D01*
X60263D01*
X61050Y9649D01*
Y7287D01*
X63412Y11223D02*
Y10436D01*
X62625D01*
X64199D01*
X63412D01*
Y8075D01*
X64199Y7287D01*
X68922D02*
X67348D01*
X66560Y8075D01*
Y9649D01*
X67348Y10436D01*
X68922D01*
X69709Y9649D01*
Y8862D01*
X66560D01*
X71283Y7287D02*
X72858D01*
X72070D01*
Y12010D01*
X71283Y11223D01*
X39287Y36787D02*
X42436D01*
X39287Y47862D02*
X42436D01*
X40862Y49436D02*
Y46287D01*
D11*
X71087Y45902D02*
X73086D01*
X72086D01*
Y51900D01*
X71087Y50900D01*
X6501Y58501D02*
Y64499D01*
X9500D01*
X10500Y63499D01*
Y61500D01*
X9500Y60500D01*
X6501D01*
X8501D02*
X10500Y58501D01*
X12499D02*
X14499D01*
X13499D01*
Y64499D01*
X12499Y63499D01*
X50168Y61897D02*
X48169D01*
X49168D01*
Y56899D01*
X48169Y55899D01*
X47169D01*
X46169Y56899D01*
X52167Y55899D02*
X54167D01*
X53167D01*
Y61897D01*
X52167Y60898D01*
X7001Y14499D02*
Y8501D01*
X10000D01*
X11000Y9501D01*
Y13499D01*
X10000Y14499D01*
X7001D01*
X12999Y8501D02*
X14999D01*
X13999D01*
Y14499D01*
X12999Y13499D01*
D12*
X17717Y17561D02*
D03*
M02*
