G04*
G04 #@! TF.GenerationSoftware,Altium Limited,Altium Designer,21.9.2 (33)*
G04*
G04 Layer_Color=16711935*
%FSLAX44Y44*%
%MOMM*%
G71*
G04*
G04 #@! TF.SameCoordinates,2C727151-6C43-470A-82D4-EDCCEE28B5AB*
G04*
G04*
G04 #@! TF.FilePolarity,Negative*
G04*
G01*
G75*
%ADD20C,4.2032*%
%ADD39R,3.4016X3.4016*%
%ADD40R,0.7016X0.3316*%
%ADD41R,0.3316X0.7016*%
%ADD42R,1.5032X0.9032*%
%ADD43R,1.1032X1.8032*%
%ADD44R,1.1032X1.5032*%
%ADD45R,0.9032X1.5032*%
D20*
X450000Y140000D02*
D03*
X50000Y300000D02*
D03*
X52000Y190000D02*
D03*
X450000Y300000D02*
D03*
Y360000D02*
D03*
Y200000D02*
D03*
D39*
X250000Y250000D02*
D03*
D40*
X274000Y267500D02*
D03*
X226000D02*
D03*
Y262500D02*
D03*
Y257500D02*
D03*
Y252500D02*
D03*
Y247500D02*
D03*
Y242500D02*
D03*
Y237500D02*
D03*
Y232500D02*
D03*
X274000D02*
D03*
Y237500D02*
D03*
Y242500D02*
D03*
Y247500D02*
D03*
Y252500D02*
D03*
Y257500D02*
D03*
Y262500D02*
D03*
D41*
X267500Y274000D02*
D03*
X262500D02*
D03*
X257500D02*
D03*
X252500D02*
D03*
X247500D02*
D03*
X242500D02*
D03*
X237500D02*
D03*
X232500D02*
D03*
Y226000D02*
D03*
X237500D02*
D03*
X242500D02*
D03*
X247500D02*
D03*
X252500D02*
D03*
X257500D02*
D03*
X262500D02*
D03*
X267500D02*
D03*
D42*
X223000Y174500D02*
D03*
Y193500D02*
D03*
X245000Y193500D02*
D03*
Y174500D02*
D03*
X267000D02*
D03*
Y193500D02*
D03*
X289000D02*
D03*
Y174500D02*
D03*
X311000Y174500D02*
D03*
Y193500D02*
D03*
X255000Y319500D02*
D03*
Y300500D02*
D03*
D43*
X320500Y214000D02*
D03*
X289500D02*
D03*
D44*
X304500Y239000D02*
D03*
X323500D02*
D03*
X323500Y262000D02*
D03*
X304500D02*
D03*
X310500Y296000D02*
D03*
X291500D02*
D03*
X294500Y328000D02*
D03*
X313500D02*
D03*
X195000Y186000D02*
D03*
X176000D02*
D03*
X176000Y236000D02*
D03*
X195000D02*
D03*
X176000Y298000D02*
D03*
X195000D02*
D03*
D45*
X296500Y351000D02*
D03*
X315500D02*
D03*
X254000Y404000D02*
D03*
X273000D02*
D03*
X273500Y382000D02*
D03*
X254500D02*
D03*
X273500Y360000D02*
D03*
X254500D02*
D03*
X273500Y338000D02*
D03*
X254500D02*
D03*
X196778Y208000D02*
D03*
X177778D02*
D03*
X196524Y275000D02*
D03*
X177524D02*
D03*
X132500Y243000D02*
D03*
X151500D02*
D03*
X151754Y265000D02*
D03*
X132754D02*
D03*
X132754Y287000D02*
D03*
X151754D02*
D03*
X132500Y325000D02*
D03*
X151500D02*
D03*
X152500Y348000D02*
D03*
X133500D02*
D03*
M02*
