G04*
G04 #@! TF.GenerationSoftware,Altium Limited,Altium Designer,21.9.2 (33)*
G04*
G04 Layer_Physical_Order=3*
G04 Layer_Color=36540*
%FSLAX44Y44*%
%MOMM*%
G71*
G04*
G04 #@! TF.SameCoordinates,2C727151-6C43-470A-82D4-EDCCEE28B5AB*
G04*
G04*
G04 #@! TF.FilePolarity,Positive*
G04*
G01*
G75*
%ADD10C,0.2000*%
%ADD23C,0.6000*%
%ADD28C,1.0000*%
D10*
X216000Y310000D02*
X261000Y265000D01*
X211000Y310000D02*
X216000D01*
X286000Y265000D02*
X294000Y257000D01*
X303000Y248000D01*
X261000Y265000D02*
X286000D01*
X303000Y224000D02*
Y248000D01*
X287000Y208000D02*
X303000Y224000D01*
X245000Y208000D02*
X287000D01*
D23*
X391000Y385515D02*
D03*
X377000Y119000D02*
D03*
X204000Y223000D02*
D03*
X235000Y215000D02*
D03*
X299000Y193000D02*
D03*
X211000Y310000D02*
D03*
X193000Y371000D02*
D03*
X191000Y131000D02*
D03*
X134000Y130900D02*
D03*
Y169000D02*
D03*
Y370900D02*
D03*
Y409000D02*
D03*
X118000Y243000D02*
D03*
X195000Y315000D02*
D03*
X224000Y285000D02*
D03*
X257650Y283650D02*
D03*
X289000Y231000D02*
D03*
X245000Y208000D02*
D03*
X195000Y168000D02*
D03*
X210250Y262250D02*
D03*
D28*
X130653Y210653D02*
X151795D01*
X120000Y156000D02*
Y200000D01*
X130653Y210653D01*
X120000Y156000D02*
X134000Y142000D01*
X183465Y246000D02*
X191465Y238000D01*
X121000Y246000D02*
X183465D01*
X191465Y238000D02*
X221000D01*
X288558Y283650D02*
X390423Y385515D01*
X257650Y283650D02*
X288558D01*
X390423Y385515D02*
X391000D01*
X231000Y248000D02*
X272000D01*
X221000Y238000D02*
X231000Y248000D01*
X272000D02*
X289000Y231000D01*
X299000Y193000D02*
X327000D01*
X364000Y156000D01*
Y132000D02*
X377000Y119000D01*
X299000Y193000D02*
X299765Y192235D01*
X364000Y132000D02*
Y156000D01*
X134000Y329000D02*
Y338500D01*
X200750Y262250D02*
X210250D01*
X134000Y329000D02*
X200750Y262250D01*
X118000Y243000D02*
X121000Y246000D01*
X151795Y210653D02*
X164142Y223000D01*
X204000D01*
X221250Y215000D02*
X235000D01*
X175250Y169000D02*
X221250Y215000D01*
X134000Y169000D02*
X175250D01*
X208029Y285000D02*
X224000D01*
X163640Y329389D02*
X208029Y285000D01*
X195000Y315000D02*
X204000Y324000D01*
Y360000D01*
X193000Y371000D02*
X204000Y360000D01*
X163640Y329389D02*
Y389360D01*
X134000Y338500D02*
Y370900D01*
X144000Y409000D02*
X163640Y389360D01*
X134000Y409000D02*
X144000D01*
X195000Y135485D02*
Y168000D01*
X191000Y131485D02*
X195000Y135485D01*
X191000Y131000D02*
Y131485D01*
X134000Y130900D02*
Y142000D01*
M02*
