%TF.GenerationSoftware,KiCad,Pcbnew,(6.0.7)*%
%TF.CreationDate,2023-05-29T18:59:42-07:00*%
%TF.ProjectId,STM32F4_Breakout,53544d33-3246-4345-9f42-7265616b6f75,rev?*%
%TF.SameCoordinates,Original*%
%TF.FileFunction,Copper,L1,Top*%
%TF.FilePolarity,Positive*%
%FSLAX46Y46*%
G04 Gerber Fmt 4.6, Leading zero omitted, Abs format (unit mm)*
G04 Created by KiCad (PCBNEW (6.0.7)) date 2023-05-29 18:59:42*
%MOMM*%
%LPD*%
G01*
G04 APERTURE LIST*
G04 Aperture macros list*
%AMRoundRect*
0 Rectangle with rounded corners*
0 $1 Rounding radius*
0 $2 $3 $4 $5 $6 $7 $8 $9 X,Y pos of 4 corners*
0 Add a 4 corners polygon primitive as box body*
4,1,4,$2,$3,$4,$5,$6,$7,$8,$9,$2,$3,0*
0 Add four circle primitives for the rounded corners*
1,1,$1+$1,$2,$3*
1,1,$1+$1,$4,$5*
1,1,$1+$1,$6,$7*
1,1,$1+$1,$8,$9*
0 Add four rect primitives between the rounded corners*
20,1,$1+$1,$2,$3,$4,$5,0*
20,1,$1+$1,$4,$5,$6,$7,0*
20,1,$1+$1,$6,$7,$8,$9,0*
20,1,$1+$1,$8,$9,$2,$3,0*%
G04 Aperture macros list end*
%TA.AperFunction,SMDPad,CuDef*%
%ADD10RoundRect,0.140000X0.140000X0.170000X-0.140000X0.170000X-0.140000X-0.170000X0.140000X-0.170000X0*%
%TD*%
%TA.AperFunction,SMDPad,CuDef*%
%ADD11RoundRect,0.135000X-0.135000X-0.185000X0.135000X-0.185000X0.135000X0.185000X-0.135000X0.185000X0*%
%TD*%
%TA.AperFunction,ComponentPad*%
%ADD12R,1.700000X1.700000*%
%TD*%
%TA.AperFunction,ComponentPad*%
%ADD13O,1.700000X1.700000*%
%TD*%
%TA.AperFunction,SMDPad,CuDef*%
%ADD14RoundRect,0.250000X0.250000X0.475000X-0.250000X0.475000X-0.250000X-0.475000X0.250000X-0.475000X0*%
%TD*%
%TA.AperFunction,SMDPad,CuDef*%
%ADD15RoundRect,0.140000X-0.140000X-0.170000X0.140000X-0.170000X0.140000X0.170000X-0.140000X0.170000X0*%
%TD*%
%TA.AperFunction,SMDPad,CuDef*%
%ADD16RoundRect,0.140000X0.170000X-0.140000X0.170000X0.140000X-0.170000X0.140000X-0.170000X-0.140000X0*%
%TD*%
%TA.AperFunction,SMDPad,CuDef*%
%ADD17RoundRect,0.225000X-0.225000X-0.250000X0.225000X-0.250000X0.225000X0.250000X-0.225000X0.250000X0*%
%TD*%
%TA.AperFunction,SMDPad,CuDef*%
%ADD18R,2.400000X0.740000*%
%TD*%
%TA.AperFunction,SMDPad,CuDef*%
%ADD19RoundRect,0.250000X-0.475000X0.250000X-0.475000X-0.250000X0.475000X-0.250000X0.475000X0.250000X0*%
%TD*%
%TA.AperFunction,SMDPad,CuDef*%
%ADD20RoundRect,0.218750X0.218750X0.256250X-0.218750X0.256250X-0.218750X-0.256250X0.218750X-0.256250X0*%
%TD*%
%TA.AperFunction,SMDPad,CuDef*%
%ADD21R,1.500000X2.000000*%
%TD*%
%TA.AperFunction,SMDPad,CuDef*%
%ADD22R,3.800000X2.000000*%
%TD*%
%TA.AperFunction,SMDPad,CuDef*%
%ADD23RoundRect,0.135000X0.135000X0.185000X-0.135000X0.185000X-0.135000X-0.185000X0.135000X-0.185000X0*%
%TD*%
%TA.AperFunction,SMDPad,CuDef*%
%ADD24RoundRect,0.200000X-0.200000X-0.275000X0.200000X-0.275000X0.200000X0.275000X-0.200000X0.275000X0*%
%TD*%
%TA.AperFunction,SMDPad,CuDef*%
%ADD25RoundRect,0.075000X-0.700000X-0.075000X0.700000X-0.075000X0.700000X0.075000X-0.700000X0.075000X0*%
%TD*%
%TA.AperFunction,SMDPad,CuDef*%
%ADD26RoundRect,0.075000X-0.075000X-0.700000X0.075000X-0.700000X0.075000X0.700000X-0.075000X0.700000X0*%
%TD*%
%TA.AperFunction,SMDPad,CuDef*%
%ADD27RoundRect,0.225000X-0.250000X0.225000X-0.250000X-0.225000X0.250000X-0.225000X0.250000X0.225000X0*%
%TD*%
%TA.AperFunction,SMDPad,CuDef*%
%ADD28RoundRect,0.135000X-0.185000X0.135000X-0.185000X-0.135000X0.185000X-0.135000X0.185000X0.135000X0*%
%TD*%
%TA.AperFunction,SMDPad,CuDef*%
%ADD29R,1.200000X0.900000*%
%TD*%
%TA.AperFunction,SMDPad,CuDef*%
%ADD30RoundRect,0.200000X0.200000X0.275000X-0.200000X0.275000X-0.200000X-0.275000X0.200000X-0.275000X0*%
%TD*%
%TA.AperFunction,SMDPad,CuDef*%
%ADD31RoundRect,0.218750X0.256250X-0.218750X0.256250X0.218750X-0.256250X0.218750X-0.256250X-0.218750X0*%
%TD*%
%TA.AperFunction,ComponentPad*%
%ADD32C,0.900000*%
%TD*%
%TA.AperFunction,ComponentPad*%
%ADD33C,8.600000*%
%TD*%
%TA.AperFunction,SMDPad,CuDef*%
%ADD34R,1.200000X1.400000*%
%TD*%
%TA.AperFunction,SMDPad,CuDef*%
%ADD35RoundRect,0.218750X0.218750X0.381250X-0.218750X0.381250X-0.218750X-0.381250X0.218750X-0.381250X0*%
%TD*%
%TA.AperFunction,SMDPad,CuDef*%
%ADD36RoundRect,0.218750X0.381250X-0.218750X0.381250X0.218750X-0.381250X0.218750X-0.381250X-0.218750X0*%
%TD*%
%TA.AperFunction,SMDPad,CuDef*%
%ADD37RoundRect,0.225000X0.250000X-0.225000X0.250000X0.225000X-0.250000X0.225000X-0.250000X-0.225000X0*%
%TD*%
%TA.AperFunction,SMDPad,CuDef*%
%ADD38RoundRect,0.135000X0.185000X-0.135000X0.185000X0.135000X-0.185000X0.135000X-0.185000X-0.135000X0*%
%TD*%
%TA.AperFunction,ViaPad*%
%ADD39C,0.800000*%
%TD*%
%TA.AperFunction,ViaPad*%
%ADD40C,1.000000*%
%TD*%
%TA.AperFunction,Conductor*%
%ADD41C,0.400000*%
%TD*%
%TA.AperFunction,Conductor*%
%ADD42C,0.500000*%
%TD*%
%TA.AperFunction,Conductor*%
%ADD43C,0.300000*%
%TD*%
%TA.AperFunction,Conductor*%
%ADD44C,1.000000*%
%TD*%
G04 APERTURE END LIST*
D10*
%TO.P,C17,1*%
%TO.N,GND*%
X74580000Y-60500000D03*
%TO.P,C17,2*%
%TO.N,HSE_IN*%
X73620000Y-60500000D03*
%TD*%
D11*
%TO.P,R6,1*%
%TO.N,Net-(C18-Pad1)*%
X77090000Y-63900000D03*
%TO.P,R6,2*%
%TO.N,HSE_OUT*%
X78110000Y-63900000D03*
%TD*%
D12*
%TO.P,J1,1,Pin_1*%
%TO.N,VCC*%
X63100000Y-77075000D03*
D13*
%TO.P,J1,2,Pin_2*%
%TO.N,GND*%
X63100000Y-74535000D03*
%TD*%
D14*
%TO.P,C2,1*%
%TO.N,+3V3*%
X66100000Y-65850000D03*
%TO.P,C2,2*%
%TO.N,GND*%
X64200000Y-65850000D03*
%TD*%
D15*
%TO.P,C11,1*%
%TO.N,+3V3*%
X81320000Y-57500000D03*
%TO.P,C11,2*%
%TO.N,GND*%
X82280000Y-57500000D03*
%TD*%
D16*
%TO.P,C14,1*%
%TO.N,+3.3VA*%
X78100000Y-67480000D03*
%TO.P,C14,2*%
%TO.N,GND*%
X78100000Y-66520000D03*
%TD*%
D15*
%TO.P,C12,1*%
%TO.N,+3V3*%
X81340000Y-56500000D03*
%TO.P,C12,2*%
%TO.N,GND*%
X82300000Y-56500000D03*
%TD*%
D17*
%TO.P,C16,1*%
%TO.N,Net-(C16-Pad1)*%
X92925000Y-61200000D03*
%TO.P,C16,2*%
%TO.N,GND*%
X94475000Y-61200000D03*
%TD*%
D18*
%TO.P,J4,1,Pin_1*%
%TO.N,+3V3*%
X106150000Y-57640000D03*
%TO.P,J4,2,Pin_2*%
%TO.N,SWDIO*%
X102250000Y-57640000D03*
%TO.P,J4,3,Pin_3*%
%TO.N,GND*%
X106150000Y-56370000D03*
%TO.P,J4,4,Pin_4*%
%TO.N,SWCLK*%
X102250000Y-56370000D03*
%TO.P,J4,5,Pin_5*%
%TO.N,GND*%
X106150000Y-55100000D03*
%TO.P,J4,6,Pin_6*%
%TO.N,SWO*%
X102250000Y-55100000D03*
%TO.P,J4,7,Pin_7*%
%TO.N,unconnected-(J4-Pad7)*%
X106150000Y-53830000D03*
%TO.P,J4,8,Pin_8*%
%TO.N,unconnected-(J4-Pad8)*%
X102250000Y-53830000D03*
%TO.P,J4,9,Pin_9*%
%TO.N,GND*%
X106150000Y-52560000D03*
%TO.P,J4,10,Pin_10*%
%TO.N,NRST*%
X102250000Y-52560000D03*
%TD*%
D19*
%TO.P,C1,1*%
%TO.N,GND*%
X70500000Y-61600000D03*
%TO.P,C1,2*%
%TO.N,Net-(C1-Pad2)*%
X70500000Y-63500000D03*
%TD*%
D11*
%TO.P,R2,1*%
%TO.N,I2C1_SCL*%
X85690000Y-54500000D03*
%TO.P,R2,2*%
%TO.N,+3V3*%
X86710000Y-54500000D03*
%TD*%
D20*
%TO.P,D2,1,K*%
%TO.N,Net-(D2-Pad1)*%
X68387500Y-52600000D03*
%TO.P,D2,2,A*%
%TO.N,+3V3*%
X66812500Y-52600000D03*
%TD*%
D10*
%TO.P,C5,1*%
%TO.N,+3V3*%
X82480000Y-72300000D03*
%TO.P,C5,2*%
%TO.N,GND*%
X81520000Y-72300000D03*
%TD*%
D21*
%TO.P,U1,1,GND*%
%TO.N,GND*%
X63300000Y-63100000D03*
%TO.P,U1,2,VO*%
%TO.N,+3V3*%
X65600000Y-63100000D03*
D22*
X65600000Y-56800000D03*
D21*
%TO.P,U1,3,VI*%
%TO.N,Net-(C1-Pad2)*%
X67900000Y-63100000D03*
%TD*%
D23*
%TO.P,R3,1*%
%TO.N,I2C1_SDA*%
X84710000Y-54500000D03*
%TO.P,R3,2*%
%TO.N,+3V3*%
X83690000Y-54500000D03*
%TD*%
D12*
%TO.P,J3,1,Pin_1*%
%TO.N,+3V3*%
X78275000Y-42400000D03*
D13*
%TO.P,J3,2,Pin_2*%
%TO.N,GND*%
X75735000Y-42400000D03*
%TD*%
D24*
%TO.P,R7,1*%
%TO.N,GND*%
X93175000Y-70300000D03*
%TO.P,R7,2*%
%TO.N,Net-(D3-Pad1)*%
X94825000Y-70300000D03*
%TD*%
D25*
%TO.P,U2,1,VBAT*%
%TO.N,+3V3*%
X79725000Y-61250000D03*
%TO.P,U2,2,PC13*%
%TO.N,unconnected-(U2-Pad2)*%
X79725000Y-61750000D03*
%TO.P,U2,3,PC14*%
%TO.N,unconnected-(U2-Pad3)*%
X79725000Y-62250000D03*
%TO.P,U2,4,PC15*%
%TO.N,unconnected-(U2-Pad4)*%
X79725000Y-62750000D03*
%TO.P,U2,5,PH0*%
%TO.N,HSE_IN*%
X79725000Y-63250000D03*
%TO.P,U2,6,PH1*%
%TO.N,HSE_OUT*%
X79725000Y-63750000D03*
%TO.P,U2,7,NRST*%
%TO.N,NRST*%
X79725000Y-64250000D03*
%TO.P,U2,8,PC0*%
%TO.N,unconnected-(U2-Pad8)*%
X79725000Y-64750000D03*
%TO.P,U2,9,PC1*%
%TO.N,unconnected-(U2-Pad9)*%
X79725000Y-65250000D03*
%TO.P,U2,10,PC2*%
%TO.N,unconnected-(U2-Pad10)*%
X79725000Y-65750000D03*
%TO.P,U2,11,PC3*%
%TO.N,unconnected-(U2-Pad11)*%
X79725000Y-66250000D03*
%TO.P,U2,12,VSSA*%
%TO.N,GND*%
X79725000Y-66750000D03*
%TO.P,U2,13,VDDA*%
%TO.N,+3.3VA*%
X79725000Y-67250000D03*
%TO.P,U2,14,PA0*%
%TO.N,unconnected-(U2-Pad14)*%
X79725000Y-67750000D03*
%TO.P,U2,15,PA1*%
%TO.N,unconnected-(U2-Pad15)*%
X79725000Y-68250000D03*
%TO.P,U2,16,PA2*%
%TO.N,unconnected-(U2-Pad16)*%
X79725000Y-68750000D03*
D26*
%TO.P,U2,17,PA3*%
%TO.N,unconnected-(U2-Pad17)*%
X81650000Y-70675000D03*
%TO.P,U2,18,VSS*%
%TO.N,GND*%
X82150000Y-70675000D03*
%TO.P,U2,19,VDD*%
%TO.N,+3V3*%
X82650000Y-70675000D03*
%TO.P,U2,20,PA4*%
%TO.N,SPI1_CS*%
X83150000Y-70675000D03*
%TO.P,U2,21,PA5*%
%TO.N,SPI1_SCK*%
X83650000Y-70675000D03*
%TO.P,U2,22,PA6*%
%TO.N,SPI1_MISO*%
X84150000Y-70675000D03*
%TO.P,U2,23,PA7*%
%TO.N,SPI1_MOSI*%
X84650000Y-70675000D03*
%TO.P,U2,24,PC4*%
%TO.N,unconnected-(U2-Pad24)*%
X85150000Y-70675000D03*
%TO.P,U2,25,PC5*%
%TO.N,unconnected-(U2-Pad25)*%
X85650000Y-70675000D03*
%TO.P,U2,26,PB0*%
%TO.N,unconnected-(U2-Pad26)*%
X86150000Y-70675000D03*
%TO.P,U2,27,PB1*%
%TO.N,unconnected-(U2-Pad27)*%
X86650000Y-70675000D03*
%TO.P,U2,28,PB2*%
%TO.N,BOOT1*%
X87150000Y-70675000D03*
%TO.P,U2,29,PB10*%
%TO.N,unconnected-(U2-Pad29)*%
X87650000Y-70675000D03*
%TO.P,U2,30,PB11*%
%TO.N,unconnected-(U2-Pad30)*%
X88150000Y-70675000D03*
%TO.P,U2,31,VCAP_1*%
%TO.N,Net-(C15-Pad1)*%
X88650000Y-70675000D03*
%TO.P,U2,32,VDD*%
%TO.N,+3V3*%
X89150000Y-70675000D03*
D25*
%TO.P,U2,33,PB12*%
%TO.N,Net-(D3-Pad2)*%
X91075000Y-68750000D03*
%TO.P,U2,34,PB13*%
%TO.N,unconnected-(U2-Pad34)*%
X91075000Y-68250000D03*
%TO.P,U2,35,PB14*%
%TO.N,unconnected-(U2-Pad35)*%
X91075000Y-67750000D03*
%TO.P,U2,36,PB15*%
%TO.N,unconnected-(U2-Pad36)*%
X91075000Y-67250000D03*
%TO.P,U2,37,PC6*%
%TO.N,unconnected-(U2-Pad37)*%
X91075000Y-66750000D03*
%TO.P,U2,38,PC7*%
%TO.N,unconnected-(U2-Pad38)*%
X91075000Y-66250000D03*
%TO.P,U2,39,PC8*%
%TO.N,unconnected-(U2-Pad39)*%
X91075000Y-65750000D03*
%TO.P,U2,40,PC9*%
%TO.N,unconnected-(U2-Pad40)*%
X91075000Y-65250000D03*
%TO.P,U2,41,PA8*%
%TO.N,unconnected-(U2-Pad41)*%
X91075000Y-64750000D03*
%TO.P,U2,42,PA9*%
%TO.N,USART1_TX*%
X91075000Y-64250000D03*
%TO.P,U2,43,PA10*%
%TO.N,USART1_RX*%
X91075000Y-63750000D03*
%TO.P,U2,44,PA11*%
%TO.N,unconnected-(U2-Pad44)*%
X91075000Y-63250000D03*
%TO.P,U2,45,PA12*%
%TO.N,unconnected-(U2-Pad45)*%
X91075000Y-62750000D03*
%TO.P,U2,46,PA13*%
%TO.N,SWDIO*%
X91075000Y-62250000D03*
%TO.P,U2,47,VCAP_2*%
%TO.N,Net-(C16-Pad1)*%
X91075000Y-61750000D03*
%TO.P,U2,48,VDD*%
%TO.N,+3V3*%
X91075000Y-61250000D03*
D26*
%TO.P,U2,49,PA14*%
%TO.N,SWCLK*%
X89150000Y-59325000D03*
%TO.P,U2,50,PA15*%
%TO.N,unconnected-(U2-Pad50)*%
X88650000Y-59325000D03*
%TO.P,U2,51,PC10*%
%TO.N,unconnected-(U2-Pad51)*%
X88150000Y-59325000D03*
%TO.P,U2,52,PC11*%
%TO.N,unconnected-(U2-Pad52)*%
X87650000Y-59325000D03*
%TO.P,U2,53,PC12*%
%TO.N,unconnected-(U2-Pad53)*%
X87150000Y-59325000D03*
%TO.P,U2,54,PD2*%
%TO.N,unconnected-(U2-Pad54)*%
X86650000Y-59325000D03*
%TO.P,U2,55,PB3*%
%TO.N,SWO*%
X86150000Y-59325000D03*
%TO.P,U2,56,PB4*%
%TO.N,unconnected-(U2-Pad56)*%
X85650000Y-59325000D03*
%TO.P,U2,57,PB5*%
%TO.N,unconnected-(U2-Pad57)*%
X85150000Y-59325000D03*
%TO.P,U2,58,PB6*%
%TO.N,I2C1_SCL*%
X84650000Y-59325000D03*
%TO.P,U2,59,PB7*%
%TO.N,I2C1_SDA*%
X84150000Y-59325000D03*
%TO.P,U2,60,BOOT0*%
%TO.N,BOOT0*%
X83650000Y-59325000D03*
%TO.P,U2,61,PB8*%
%TO.N,unconnected-(U2-Pad61)*%
X83150000Y-59325000D03*
%TO.P,U2,62,PB9*%
%TO.N,unconnected-(U2-Pad62)*%
X82650000Y-59325000D03*
%TO.P,U2,63,VSS*%
%TO.N,GND*%
X82150000Y-59325000D03*
%TO.P,U2,64,VDD*%
%TO.N,+3V3*%
X81650000Y-59325000D03*
%TD*%
D27*
%TO.P,C15,1*%
%TO.N,Net-(C15-Pad1)*%
X88800000Y-72525000D03*
%TO.P,C15,2*%
%TO.N,GND*%
X88800000Y-74075000D03*
%TD*%
D16*
%TO.P,C4,1*%
%TO.N,+3V3*%
X77800000Y-60980000D03*
%TO.P,C4,2*%
%TO.N,GND*%
X77800000Y-60020000D03*
%TD*%
D28*
%TO.P,R4,1*%
%TO.N,GND*%
X83500000Y-56490000D03*
%TO.P,R4,2*%
%TO.N,BOOT0*%
X83500000Y-57510000D03*
%TD*%
D29*
%TO.P,D1,1,K*%
%TO.N,Net-(D1-Pad1)*%
X69200000Y-72450000D03*
%TO.P,D1,2,A*%
%TO.N,VCC*%
X69200000Y-75750000D03*
%TD*%
D16*
%TO.P,C9,1*%
%TO.N,+3V3*%
X91300000Y-59880000D03*
%TO.P,C9,2*%
%TO.N,GND*%
X91300000Y-58920000D03*
%TD*%
D30*
%TO.P,R1,1*%
%TO.N,GND*%
X71700000Y-52600000D03*
%TO.P,R1,2*%
%TO.N,Net-(D2-Pad1)*%
X70050000Y-52600000D03*
%TD*%
D31*
%TO.P,F1,1*%
%TO.N,Net-(D1-Pad1)*%
X67900000Y-70437500D03*
%TO.P,F1,2*%
%TO.N,Net-(F1-Pad2)*%
X67900000Y-68862500D03*
%TD*%
D32*
%TO.P,H2,1,1*%
%TO.N,GND*%
X107480419Y-82119581D03*
X105200000Y-87625000D03*
X101975000Y-84400000D03*
X107480419Y-86680419D03*
D33*
X105200000Y-84400000D03*
D32*
X102919581Y-82119581D03*
X105200000Y-81175000D03*
X102919581Y-86680419D03*
X108425000Y-84400000D03*
%TD*%
D16*
%TO.P,C13,1*%
%TO.N,+3.3VA*%
X77100000Y-67500000D03*
%TO.P,C13,2*%
%TO.N,GND*%
X77100000Y-66540000D03*
%TD*%
D15*
%TO.P,C8,1*%
%TO.N,+3V3*%
X90140000Y-72000000D03*
%TO.P,C8,2*%
%TO.N,GND*%
X91100000Y-72000000D03*
%TD*%
D12*
%TO.P,J6,1,Pin_1*%
%TO.N,USART1_TX*%
X108000000Y-72100000D03*
D13*
%TO.P,J6,2,Pin_2*%
%TO.N,USART1_RX*%
X108000000Y-69560000D03*
%TD*%
D32*
%TO.P,H3,1,1*%
%TO.N,GND*%
X103039162Y-47160838D03*
X108544581Y-44880419D03*
X107600000Y-47160838D03*
X102094581Y-44880419D03*
X105319581Y-48105419D03*
X107600000Y-42600000D03*
X105319581Y-41655419D03*
D33*
X105319581Y-44880419D03*
D32*
X103039162Y-42600000D03*
%TD*%
D12*
%TO.P,J5,1,Pin_1*%
%TO.N,SPI1_CS*%
X82400000Y-87000000D03*
D13*
%TO.P,J5,2,Pin_2*%
%TO.N,SPI1_SCK*%
X84940000Y-87000000D03*
%TO.P,J5,3,Pin_3*%
%TO.N,SPI1_MISO*%
X87480000Y-87000000D03*
%TO.P,J5,4,Pin_4*%
%TO.N,SPI1_MOSI*%
X90020000Y-87000000D03*
%TD*%
D34*
%TO.P,HSE1,1,1*%
%TO.N,HSE_IN*%
X73250000Y-62100000D03*
%TO.P,HSE1,2,2*%
%TO.N,GND*%
X73250000Y-64300000D03*
%TO.P,HSE1,3,3*%
%TO.N,Net-(C18-Pad1)*%
X74950000Y-64300000D03*
%TO.P,HSE1,4,4*%
%TO.N,GND*%
X74950000Y-62100000D03*
%TD*%
D35*
%TO.P,FB2,1*%
%TO.N,+3V3*%
X76862500Y-68900000D03*
%TO.P,FB2,2*%
%TO.N,+3.3VA*%
X74737500Y-68900000D03*
%TD*%
D15*
%TO.P,C7,1*%
%TO.N,+3V3*%
X90120000Y-71000000D03*
%TO.P,C7,2*%
%TO.N,GND*%
X91080000Y-71000000D03*
%TD*%
D16*
%TO.P,C10,1*%
%TO.N,+3V3*%
X92300000Y-59880000D03*
%TO.P,C10,2*%
%TO.N,GND*%
X92300000Y-58920000D03*
%TD*%
D10*
%TO.P,C6,1*%
%TO.N,+3V3*%
X82480000Y-73300000D03*
%TO.P,C6,2*%
%TO.N,GND*%
X81520000Y-73300000D03*
%TD*%
D32*
%TO.P,H4,1,1*%
%TO.N,GND*%
X69025000Y-45200000D03*
X63519581Y-47480419D03*
X68080419Y-42919581D03*
X65800000Y-41975000D03*
D33*
X65800000Y-45200000D03*
D32*
X68080419Y-47480419D03*
X65800000Y-48425000D03*
X62575000Y-45200000D03*
X63519581Y-42919581D03*
%TD*%
D20*
%TO.P,D3,1,K*%
%TO.N,Net-(D3-Pad1)*%
X94787500Y-68600000D03*
%TO.P,D3,2,A*%
%TO.N,Net-(D3-Pad2)*%
X93212500Y-68600000D03*
%TD*%
D32*
%TO.P,H1,1,1*%
%TO.N,GND*%
X67880419Y-86680419D03*
X68825000Y-84400000D03*
X63319581Y-86680419D03*
X65600000Y-87625000D03*
X62375000Y-84400000D03*
D33*
X65600000Y-84400000D03*
D32*
X67880419Y-82119581D03*
X65600000Y-81175000D03*
X63319581Y-82119581D03*
%TD*%
D10*
%TO.P,C18,1*%
%TO.N,Net-(C18-Pad1)*%
X74860000Y-65900000D03*
%TO.P,C18,2*%
%TO.N,GND*%
X73900000Y-65900000D03*
%TD*%
D12*
%TO.P,J2,1,Pin_1*%
%TO.N,I2C1_SDA*%
X83125000Y-42400000D03*
D13*
%TO.P,J2,2,Pin_2*%
%TO.N,I2C1_SCL*%
X85665000Y-42400000D03*
%TD*%
D36*
%TO.P,FB1,1*%
%TO.N,Net-(F1-Pad2)*%
X67900000Y-67350000D03*
%TO.P,FB1,2*%
%TO.N,Net-(C1-Pad2)*%
X67900000Y-65225000D03*
%TD*%
D37*
%TO.P,C3,1*%
%TO.N,+3V3*%
X79300000Y-58775000D03*
%TO.P,C3,2*%
%TO.N,GND*%
X79300000Y-57225000D03*
%TD*%
D38*
%TO.P,R5,1*%
%TO.N,GND*%
X87400000Y-73310000D03*
%TO.P,R5,2*%
%TO.N,BOOT1*%
X87400000Y-72290000D03*
%TD*%
D39*
%TO.N,GND*%
X92000000Y-71000000D03*
X108200000Y-55100000D03*
X80400000Y-72400000D03*
D40*
X93600000Y-58900000D03*
D39*
X72900000Y-65900000D03*
X108200000Y-56400000D03*
D40*
X93100000Y-71800000D03*
X61900000Y-68500000D03*
X95000000Y-58900000D03*
D39*
X87400000Y-74300000D03*
D40*
X61900000Y-71600000D03*
D39*
X88800000Y-75400000D03*
D40*
X77900000Y-57200000D03*
D39*
X71500000Y-60300000D03*
X92000000Y-72000000D03*
D40*
X96100000Y-61100000D03*
D39*
X70500000Y-60300000D03*
D40*
X64000000Y-70100000D03*
D39*
X108100000Y-52600000D03*
X78800000Y-60000000D03*
X80400000Y-73300000D03*
D40*
X82800000Y-55400000D03*
D39*
X78100000Y-65600000D03*
X72900000Y-67800000D03*
D40*
X61900000Y-70100000D03*
D39*
X75500000Y-60500000D03*
D40*
X64000000Y-71600000D03*
D39*
X77100000Y-65600000D03*
%TO.N,+3V3*%
X67900000Y-58600000D03*
X78200000Y-68900000D03*
D40*
X80700000Y-55300000D03*
D39*
X90100000Y-73000000D03*
X76800000Y-70300000D03*
X82400000Y-74400000D03*
X82400000Y-75400000D03*
X67900000Y-60900000D03*
X90100000Y-73900000D03*
D40*
X77900000Y-58800000D03*
D39*
X86700000Y-53500000D03*
X95000000Y-59900000D03*
X106200000Y-59400000D03*
X78200000Y-70100000D03*
X63400000Y-58700000D03*
X93600000Y-59900000D03*
X68400000Y-56300000D03*
D40*
X81900000Y-54300000D03*
D39*
X77880356Y-61975111D03*
X83600000Y-53500000D03*
X62700000Y-56400000D03*
X63400000Y-60900000D03*
%TO.N,NRST*%
X83000000Y-64300000D03*
X99000000Y-52600000D03*
%TD*%
D41*
%TO.N,GND*%
X70500000Y-61300000D02*
X71500000Y-60300000D01*
D42*
X91300000Y-58920000D02*
X92300000Y-58920000D01*
D43*
X81520000Y-72257035D02*
X81520000Y-72300000D01*
D41*
X106150000Y-55100000D02*
X108200000Y-55100000D01*
X93175000Y-70300000D02*
X93175000Y-71725000D01*
X78780000Y-60020000D02*
X78800000Y-60000000D01*
X70500000Y-61600000D02*
X70500000Y-60300000D01*
X94475000Y-61200000D02*
X96000000Y-61200000D01*
D43*
X78100000Y-66520000D02*
X77120000Y-66520000D01*
D42*
X91080000Y-71980000D02*
X91100000Y-72000000D01*
X91080000Y-71000000D02*
X91080000Y-71980000D01*
D43*
X82150000Y-59325000D02*
X82150000Y-57630000D01*
X82150000Y-57630000D02*
X82280000Y-57500000D01*
X80500000Y-72300000D02*
X80400000Y-72400000D01*
D41*
X96000000Y-61200000D02*
X96100000Y-61100000D01*
D43*
X82150000Y-71627035D02*
X81520000Y-72257035D01*
D42*
X73250000Y-65550000D02*
X72900000Y-65900000D01*
X91080000Y-71000000D02*
X92000000Y-71000000D01*
D44*
X63300000Y-63100000D02*
X63300000Y-64950000D01*
D43*
X82280000Y-56520000D02*
X82300000Y-56500000D01*
D41*
X106150000Y-56370000D02*
X108170000Y-56370000D01*
D43*
X82150000Y-70675000D02*
X82150000Y-71627035D01*
D41*
X77800000Y-60020000D02*
X78780000Y-60020000D01*
X106150000Y-52560000D02*
X108060000Y-52560000D01*
D43*
X82300000Y-56500000D02*
X82300000Y-55900000D01*
X82280000Y-57500000D02*
X82280000Y-56520000D01*
D41*
X108170000Y-56370000D02*
X108200000Y-56400000D01*
D43*
X77100000Y-66540000D02*
X77100000Y-65600000D01*
D41*
X87400000Y-74300000D02*
X87400000Y-73310000D01*
D44*
X63300000Y-64950000D02*
X64200000Y-65850000D01*
D42*
X91100000Y-72000000D02*
X92000000Y-72000000D01*
D43*
X79725000Y-66750000D02*
X78330000Y-66750000D01*
D42*
X75500000Y-60500000D02*
X75500000Y-61550000D01*
D41*
X70500000Y-61600000D02*
X70500000Y-61300000D01*
X93175000Y-71725000D02*
X93100000Y-71800000D01*
D43*
X81520000Y-73300000D02*
X80400000Y-73300000D01*
X78100000Y-66520000D02*
X78100000Y-65600000D01*
D41*
X88800000Y-75400000D02*
X88800000Y-74075000D01*
D42*
X75500000Y-61550000D02*
X74950000Y-62100000D01*
X92300000Y-58920000D02*
X93580000Y-58920000D01*
X93580000Y-58920000D02*
X93600000Y-58900000D01*
D43*
X81520000Y-72300000D02*
X81520000Y-73300000D01*
D42*
X73250000Y-64300000D02*
X73250000Y-65550000D01*
X93600000Y-58900000D02*
X95000000Y-58900000D01*
X72900000Y-65900000D02*
X73900000Y-65900000D01*
D43*
X77120000Y-66520000D02*
X77100000Y-66540000D01*
D41*
X79300000Y-57225000D02*
X77925000Y-57225000D01*
D42*
X74580000Y-60500000D02*
X75500000Y-60500000D01*
D43*
X78330000Y-66750000D02*
X78100000Y-66520000D01*
X81520000Y-72300000D02*
X80500000Y-72300000D01*
X82300000Y-55900000D02*
X82800000Y-55400000D01*
D41*
X77925000Y-57225000D02*
X77900000Y-57200000D01*
X108060000Y-52560000D02*
X108100000Y-52600000D01*
D42*
%TO.N,Net-(D3-Pad1)*%
X94787500Y-70262500D02*
X94825000Y-70300000D01*
X94787500Y-68600000D02*
X94787500Y-70262500D01*
D43*
%TO.N,Net-(D2-Pad1)*%
X68387500Y-52600000D02*
X70050000Y-52600000D01*
%TO.N,BOOT0*%
X83650000Y-57660000D02*
X83500000Y-57510000D01*
X83650000Y-59325000D02*
X83650000Y-57660000D01*
D42*
%TO.N,Net-(C18-Pad1)*%
X74860000Y-64390000D02*
X74950000Y-64300000D01*
X75350000Y-63900000D02*
X74950000Y-64300000D01*
X77090000Y-63900000D02*
X75350000Y-63900000D01*
X74860000Y-65900000D02*
X74860000Y-64390000D01*
D43*
%TO.N,HSE_OUT*%
X78260000Y-63750000D02*
X79725000Y-63750000D01*
X78110000Y-63900000D02*
X78260000Y-63750000D01*
%TO.N,BOOT1*%
X87150000Y-70675000D02*
X87150000Y-72040000D01*
X87150000Y-72040000D02*
X87400000Y-72290000D01*
%TO.N,I2C1_SDA*%
X83125000Y-43925000D02*
X83125000Y-42400000D01*
X84700000Y-45500000D02*
X83125000Y-43925000D01*
X84710000Y-54500000D02*
X84700000Y-54490000D01*
X84710000Y-57305894D02*
X84710000Y-54500000D01*
X84150000Y-59325000D02*
X84150000Y-57865894D01*
X84700000Y-54490000D02*
X84700000Y-45500000D01*
X84150000Y-57865894D02*
X84710000Y-57305894D01*
%TO.N,+3V3*%
X93580000Y-59880000D02*
X93600000Y-59900000D01*
D44*
X65600000Y-53812500D02*
X66812500Y-52600000D01*
D41*
X86710000Y-53510000D02*
X86700000Y-53500000D01*
D44*
X66100000Y-56800000D02*
X67900000Y-58600000D01*
X65600000Y-56800000D02*
X65300000Y-56800000D01*
D41*
X83690000Y-54500000D02*
X83690000Y-53590000D01*
D43*
X81320000Y-56520000D02*
X81340000Y-56500000D01*
X82480000Y-72300000D02*
X82480000Y-73300000D01*
X78070000Y-61250000D02*
X77800000Y-60980000D01*
D41*
X106150000Y-57640000D02*
X106150000Y-59350000D01*
D43*
X93600000Y-59900000D02*
X95000000Y-59900000D01*
X92300000Y-59880000D02*
X93580000Y-59880000D01*
X89150000Y-70675000D02*
X89795000Y-70675000D01*
D41*
X86710000Y-54500000D02*
X86710000Y-53510000D01*
D43*
X77800000Y-60980000D02*
X77800000Y-61894755D01*
X91300000Y-59880000D02*
X92300000Y-59880000D01*
X91075000Y-60105000D02*
X91300000Y-59880000D01*
X91075000Y-61250000D02*
X91075000Y-60105000D01*
X77925000Y-58775000D02*
X77900000Y-58800000D01*
D41*
X106150000Y-59350000D02*
X106200000Y-59400000D01*
D44*
X67900000Y-56800000D02*
X68400000Y-56300000D01*
D43*
X82480000Y-73300000D02*
X82480000Y-74320000D01*
D44*
X65600000Y-62250000D02*
X66950000Y-60900000D01*
X66950000Y-60900000D02*
X67900000Y-60900000D01*
D43*
X81320000Y-57500000D02*
X81320000Y-56520000D01*
D41*
X78062500Y-70100000D02*
X76862500Y-68900000D01*
D43*
X81340000Y-56500000D02*
X81340000Y-55940000D01*
X81340000Y-56500000D02*
X81340000Y-54860000D01*
D44*
X65600000Y-56800000D02*
X63100000Y-56800000D01*
X64400000Y-60900000D02*
X63400000Y-60900000D01*
D43*
X81650000Y-59325000D02*
X81650000Y-57830000D01*
D41*
X76862500Y-70237500D02*
X76800000Y-70300000D01*
D43*
X90120000Y-71980000D02*
X90140000Y-72000000D01*
X89795000Y-70675000D02*
X90120000Y-71000000D01*
X82480000Y-74320000D02*
X82400000Y-74400000D01*
D41*
X76862500Y-68900000D02*
X78200000Y-68900000D01*
D44*
X63100000Y-56800000D02*
X62700000Y-56400000D01*
X65600000Y-56800000D02*
X66100000Y-56800000D01*
X66100000Y-65850000D02*
X66100000Y-63600000D01*
D43*
X79300000Y-58775000D02*
X77925000Y-58775000D01*
D44*
X65300000Y-56800000D02*
X63400000Y-58700000D01*
D43*
X82650000Y-70675000D02*
X82650000Y-72130000D01*
D41*
X76862500Y-68900000D02*
X76862500Y-70237500D01*
D43*
X81320000Y-57500000D02*
X80575000Y-57500000D01*
D44*
X65600000Y-63100000D02*
X65600000Y-62250000D01*
D43*
X90120000Y-71000000D02*
X90120000Y-71980000D01*
X90100000Y-73000000D02*
X90100000Y-73900000D01*
D41*
X83690000Y-53590000D02*
X83600000Y-53500000D01*
D44*
X66100000Y-63600000D02*
X65600000Y-63100000D01*
D41*
X82400000Y-75400000D02*
X82400000Y-74400000D01*
D43*
X81340000Y-54860000D02*
X81900000Y-54300000D01*
D44*
X65600000Y-56800000D02*
X67900000Y-56800000D01*
D43*
X81340000Y-55940000D02*
X80700000Y-55300000D01*
X77800000Y-61894755D02*
X77880356Y-61975111D01*
D44*
X65600000Y-63100000D02*
X65600000Y-62100000D01*
D43*
X90140000Y-72000000D02*
X90140000Y-72960000D01*
X82650000Y-72130000D02*
X82480000Y-72300000D01*
D44*
X65600000Y-62100000D02*
X64400000Y-60900000D01*
D41*
X78200000Y-70100000D02*
X78062500Y-70100000D01*
D43*
X81650000Y-57830000D02*
X81320000Y-57500000D01*
X80575000Y-57500000D02*
X79300000Y-58775000D01*
X79725000Y-61250000D02*
X78070000Y-61250000D01*
D44*
X65600000Y-56800000D02*
X65600000Y-53800000D01*
D43*
X90140000Y-72960000D02*
X90100000Y-73000000D01*
D44*
X65600000Y-63100000D02*
X65600000Y-56800000D01*
D43*
%TO.N,I2C1_SCL*%
X84650000Y-58073000D02*
X85690000Y-57033000D01*
X85690000Y-54474106D02*
X85300000Y-54084106D01*
X85690000Y-54500000D02*
X85690000Y-54474106D01*
X85690000Y-57033000D02*
X85690000Y-54500000D01*
X85300000Y-42765000D02*
X85665000Y-42400000D01*
X85300000Y-54084106D02*
X85300000Y-42765000D01*
X84650000Y-59325000D02*
X84650000Y-58073000D01*
D44*
%TO.N,Net-(C1-Pad2)*%
X70500000Y-63500000D02*
X68300000Y-63500000D01*
X68300000Y-63500000D02*
X67900000Y-63100000D01*
X67900000Y-65225000D02*
X67900000Y-63100000D01*
D43*
%TO.N,HSE_IN*%
X73250000Y-62400000D02*
X73250000Y-62100000D01*
X78365894Y-63150000D02*
X74000000Y-63150000D01*
D42*
X73250000Y-62100000D02*
X73250000Y-60870000D01*
D43*
X78465894Y-63250000D02*
X78365894Y-63150000D01*
X74000000Y-63150000D02*
X73250000Y-62400000D01*
X79725000Y-63250000D02*
X78465894Y-63250000D01*
D42*
X73250000Y-60870000D02*
X73620000Y-60500000D01*
D43*
%TO.N,NRST*%
X79725000Y-64250000D02*
X82950000Y-64250000D01*
X99040000Y-52560000D02*
X102250000Y-52560000D01*
X99000000Y-52600000D02*
X99040000Y-52560000D01*
X82950000Y-64250000D02*
X83000000Y-64300000D01*
%TO.N,+3.3VA*%
X78330000Y-67250000D02*
X78100000Y-67480000D01*
D42*
X74737500Y-68900000D02*
X76137500Y-67500000D01*
D43*
X78100000Y-67480000D02*
X77120000Y-67480000D01*
X79725000Y-67250000D02*
X78330000Y-67250000D01*
D42*
X76137500Y-67500000D02*
X77100000Y-67500000D01*
D43*
X77120000Y-67480000D02*
X77100000Y-67500000D01*
%TO.N,SPI1_CS*%
X83150000Y-86250000D02*
X82400000Y-87000000D01*
X83150000Y-70675000D02*
X83150000Y-86250000D01*
%TO.N,SPI1_SCK*%
X85000000Y-81914212D02*
X85000000Y-86940000D01*
X83650000Y-70675000D02*
X83650000Y-80564212D01*
X85000000Y-86940000D02*
X84940000Y-87000000D01*
X83650000Y-80564212D02*
X85000000Y-81914212D01*
%TO.N,SPI1_MISO*%
X87480000Y-83687106D02*
X87480000Y-87000000D01*
X84150000Y-70675000D02*
X84150000Y-80357106D01*
X84150000Y-80357106D02*
X87480000Y-83687106D01*
%TO.N,SPI1_MOSI*%
X84650000Y-70675000D02*
X84650000Y-80150000D01*
X90020000Y-85520000D02*
X90020000Y-87000000D01*
X84650000Y-80150000D02*
X90020000Y-85520000D01*
%TO.N,Net-(C15-Pad1)*%
X88650000Y-70675000D02*
X88650000Y-72375000D01*
X88650000Y-72375000D02*
X88800000Y-72525000D01*
%TO.N,Net-(D3-Pad2)*%
X93062500Y-68750000D02*
X93212500Y-68600000D01*
X91075000Y-68750000D02*
X93062500Y-68750000D01*
%TO.N,USART1_TX*%
X100150000Y-64250000D02*
X108000000Y-72100000D01*
X91075000Y-64250000D02*
X100150000Y-64250000D01*
%TO.N,USART1_RX*%
X102190000Y-63750000D02*
X108000000Y-69560000D01*
X91075000Y-63750000D02*
X102190000Y-63750000D01*
%TO.N,SWDIO*%
X91075000Y-62250000D02*
X97640000Y-62250000D01*
X97640000Y-62250000D02*
X102250000Y-57640000D01*
%TO.N,Net-(C16-Pad1)*%
X91075000Y-61750000D02*
X92375000Y-61750000D01*
X92375000Y-61750000D02*
X92925000Y-61200000D01*
%TO.N,SWCLK*%
X92630000Y-56370000D02*
X102250000Y-56370000D01*
X89150000Y-59325000D02*
X89675000Y-59325000D01*
X89675000Y-59325000D02*
X92630000Y-56370000D01*
%TO.N,SWO*%
X86150000Y-59325000D02*
X86150000Y-58448959D01*
X93192894Y-55100000D02*
X102250000Y-55100000D01*
X86150000Y-58448959D02*
X87298959Y-57300000D01*
X90992894Y-57300000D02*
X93192894Y-55100000D01*
X87298959Y-57300000D02*
X90992894Y-57300000D01*
D44*
%TO.N,Net-(F1-Pad2)*%
X67900000Y-67350000D02*
X67900000Y-68862500D01*
%TO.N,Net-(D1-Pad1)*%
X67900000Y-72050000D02*
X68800000Y-72050000D01*
X67900000Y-70437500D02*
X67900000Y-72050000D01*
X68800000Y-72050000D02*
X69200000Y-72450000D01*
%TO.N,VCC*%
X67875000Y-77075000D02*
X69200000Y-75750000D01*
X63100000Y-77075000D02*
X67875000Y-77075000D01*
%TD*%
%TA.AperFunction,Conductor*%
%TO.N,GND*%
G36*
X80991500Y-60063244D02*
G01*
X80992038Y-60067330D01*
X80992038Y-60067331D01*
X81000000Y-60127807D01*
X81000000Y-61072193D01*
X80994559Y-61030865D01*
X80993481Y-61022676D01*
X80934686Y-60880732D01*
X80841157Y-60758843D01*
X80719267Y-60665314D01*
X80577324Y-60606519D01*
X80478291Y-60593481D01*
X80467331Y-60592038D01*
X80467330Y-60592038D01*
X80463244Y-60591500D01*
X78685690Y-60591500D01*
X78617569Y-60571498D01*
X78571076Y-60517842D01*
X78560972Y-60447568D01*
X78570051Y-60415464D01*
X78571642Y-60411788D01*
X78606619Y-60291395D01*
X78606579Y-60277295D01*
X78599309Y-60274000D01*
X78321379Y-60274000D01*
X78257240Y-60256454D01*
X78236420Y-60244141D01*
X78236419Y-60244141D01*
X78229597Y-60240106D01*
X78221986Y-60237895D01*
X78221984Y-60237894D01*
X78171005Y-60223084D01*
X78072254Y-60194394D01*
X78065849Y-60193890D01*
X78065844Y-60193889D01*
X78037940Y-60191693D01*
X78037932Y-60191693D01*
X78035484Y-60191500D01*
X77672000Y-60191500D01*
X77603879Y-60171498D01*
X77557386Y-60117842D01*
X77546000Y-60065500D01*
X77546000Y-59915394D01*
X77566002Y-59847273D01*
X77619658Y-59800780D01*
X77686919Y-59790280D01*
X77755493Y-59798457D01*
X77878777Y-59813158D01*
X77884912Y-59812686D01*
X77884914Y-59812686D01*
X78069830Y-59798457D01*
X78069834Y-59798456D01*
X78075972Y-59797984D01*
X78173900Y-59770642D01*
X78207784Y-59766000D01*
X78593558Y-59766000D01*
X78608797Y-59761525D01*
X78618343Y-59750509D01*
X78633826Y-59716605D01*
X78693552Y-59678221D01*
X78768717Y-59679524D01*
X78900243Y-59723149D01*
X78907080Y-59723849D01*
X78907082Y-59723850D01*
X78948401Y-59728083D01*
X79001268Y-59733500D01*
X79598732Y-59733500D01*
X79601978Y-59733163D01*
X79601982Y-59733163D01*
X79645726Y-59728624D01*
X79701019Y-59722887D01*
X79830993Y-59679524D01*
X79856324Y-59671073D01*
X79856326Y-59671072D01*
X79863268Y-59668756D01*
X79884488Y-59655625D01*
X80002485Y-59582606D01*
X80008713Y-59578752D01*
X80087328Y-59500000D01*
X80991500Y-59500000D01*
X80991500Y-60063244D01*
G37*
%TD.AperFunction*%
%TD*%
%TA.AperFunction,Conductor*%
%TO.N,GND*%
G36*
X62830396Y-59538146D02*
G01*
X63004041Y-59632822D01*
X63125926Y-59671018D01*
X63154769Y-59680057D01*
X63213791Y-59719514D01*
X63242111Y-59784618D01*
X63230738Y-59854698D01*
X63183283Y-59907504D01*
X63153508Y-59920913D01*
X63013831Y-59963084D01*
X62839204Y-60055934D01*
X62752938Y-60126291D01*
X62690713Y-60177040D01*
X62690710Y-60177043D01*
X62685938Y-60180935D01*
X62682011Y-60185682D01*
X62682009Y-60185684D01*
X62563799Y-60328575D01*
X62563797Y-60328579D01*
X62559870Y-60333325D01*
X62465802Y-60507299D01*
X62407318Y-60696232D01*
X62386645Y-60892925D01*
X62404570Y-61089888D01*
X62460410Y-61279619D01*
X62463265Y-61285080D01*
X62463267Y-61285085D01*
X62531973Y-61416507D01*
X62545807Y-61486142D01*
X62519797Y-61552203D01*
X62462201Y-61593715D01*
X62449456Y-61597465D01*
X62432395Y-61601521D01*
X62311946Y-61646676D01*
X62296351Y-61655214D01*
X62194276Y-61731715D01*
X62181715Y-61744276D01*
X62105214Y-61846351D01*
X62096676Y-61861946D01*
X62051522Y-61982394D01*
X62047895Y-61997649D01*
X62042369Y-62048514D01*
X62042000Y-62055328D01*
X62042000Y-62827885D01*
X62046475Y-62843124D01*
X62047865Y-62844329D01*
X62055548Y-62846000D01*
X63428000Y-62846000D01*
X63496121Y-62866002D01*
X63542614Y-62919658D01*
X63554000Y-62972000D01*
X63554000Y-64589882D01*
X63561426Y-64615172D01*
X63561426Y-64686168D01*
X63523043Y-64745895D01*
X63506834Y-64757815D01*
X63482190Y-64773066D01*
X63470792Y-64782099D01*
X63356261Y-64896829D01*
X63347249Y-64908240D01*
X63262184Y-65046243D01*
X63256037Y-65059424D01*
X63204862Y-65213710D01*
X63201995Y-65227086D01*
X63192328Y-65321438D01*
X63192000Y-65327855D01*
X63192000Y-65577885D01*
X63196475Y-65593124D01*
X63197865Y-65594329D01*
X63205548Y-65596000D01*
X64328000Y-65596000D01*
X64396121Y-65616002D01*
X64442614Y-65669658D01*
X64454000Y-65722000D01*
X64454000Y-65978000D01*
X64433998Y-66046121D01*
X64380342Y-66092614D01*
X64328000Y-66104000D01*
X63210116Y-66104000D01*
X63194877Y-66108475D01*
X63193672Y-66109865D01*
X63192001Y-66117548D01*
X63192001Y-66372095D01*
X63192338Y-66378614D01*
X63202257Y-66474206D01*
X63205149Y-66487600D01*
X63256588Y-66641784D01*
X63262761Y-66654962D01*
X63348063Y-66792807D01*
X63357099Y-66804208D01*
X63471829Y-66918739D01*
X63483240Y-66927751D01*
X63600450Y-67000000D01*
X60908500Y-67000000D01*
X60908500Y-64144669D01*
X62042001Y-64144669D01*
X62042371Y-64151490D01*
X62047895Y-64202352D01*
X62051521Y-64217604D01*
X62096676Y-64338054D01*
X62105214Y-64353649D01*
X62181715Y-64455724D01*
X62194276Y-64468285D01*
X62296351Y-64544786D01*
X62311946Y-64553324D01*
X62432394Y-64598478D01*
X62447649Y-64602105D01*
X62498514Y-64607631D01*
X62505328Y-64608000D01*
X63027885Y-64608000D01*
X63043124Y-64603525D01*
X63044329Y-64602135D01*
X63046000Y-64594452D01*
X63046000Y-63372115D01*
X63041525Y-63356876D01*
X63040135Y-63355671D01*
X63032452Y-63354000D01*
X62060116Y-63354000D01*
X62044877Y-63358475D01*
X62043672Y-63359865D01*
X62042001Y-63367548D01*
X62042001Y-64144669D01*
X60908500Y-64144669D01*
X60908500Y-59500000D01*
X62784612Y-59500000D01*
X62830396Y-59538146D01*
G37*
%TD.AperFunction*%
%TA.AperFunction,Conductor*%
G36*
X71667930Y-64233774D02*
G01*
X71724802Y-64276271D01*
X71749671Y-64342770D01*
X71750000Y-64351868D01*
X71750000Y-67000000D01*
X68999896Y-67000000D01*
X68997978Y-66981518D01*
X68944308Y-66820651D01*
X68855071Y-66676445D01*
X68735053Y-66556636D01*
X68590692Y-66467651D01*
X68533503Y-66448682D01*
X68436262Y-66416428D01*
X68436260Y-66416428D01*
X68429731Y-66414262D01*
X68415344Y-66412788D01*
X68349617Y-66385946D01*
X68308836Y-66327831D01*
X68305948Y-66256893D01*
X68341870Y-66195655D01*
X68405198Y-66163559D01*
X68415186Y-66162117D01*
X68424124Y-66161190D01*
X68424128Y-66161189D01*
X68430982Y-66160478D01*
X68591849Y-66106808D01*
X68736055Y-66017571D01*
X68855864Y-65897553D01*
X68944849Y-65753192D01*
X68972556Y-65669658D01*
X68996072Y-65598762D01*
X68996072Y-65598760D01*
X68998238Y-65592231D01*
X69008500Y-65492072D01*
X69008500Y-64957928D01*
X68997978Y-64856518D01*
X68944308Y-64695651D01*
X68940452Y-64689420D01*
X68939764Y-64687951D01*
X68928979Y-64617779D01*
X68957845Y-64552915D01*
X69017196Y-64513954D01*
X69053865Y-64508500D01*
X71025400Y-64508500D01*
X71028646Y-64508163D01*
X71028650Y-64508163D01*
X71124308Y-64498238D01*
X71124312Y-64498237D01*
X71131166Y-64497526D01*
X71137702Y-64495345D01*
X71137704Y-64495345D01*
X71291998Y-64443868D01*
X71298946Y-64441550D01*
X71449348Y-64348478D01*
X71534827Y-64262850D01*
X71597110Y-64228771D01*
X71667930Y-64233774D01*
G37*
%TD.AperFunction*%
%TA.AperFunction,Conductor*%
G36*
X67510563Y-59535562D02*
G01*
X67619219Y-59568782D01*
X67693800Y-59591584D01*
X67693802Y-59591584D01*
X67699698Y-59593387D01*
X67757551Y-59599264D01*
X67890334Y-59612752D01*
X67890339Y-59612752D01*
X67896462Y-59613374D01*
X68020525Y-59601646D01*
X68087229Y-59595341D01*
X68087231Y-59595341D01*
X68093362Y-59594761D01*
X68188129Y-59566510D01*
X68276993Y-59540019D01*
X68276995Y-59540018D01*
X68282896Y-59538259D01*
X68355460Y-59500000D01*
X71750000Y-59500000D01*
X71750000Y-60748757D01*
X71729998Y-60816878D01*
X71676342Y-60863371D01*
X71606068Y-60873475D01*
X71541488Y-60843981D01*
X71534982Y-60837930D01*
X71453171Y-60756261D01*
X71441760Y-60747249D01*
X71303757Y-60662184D01*
X71290576Y-60656037D01*
X71136290Y-60604862D01*
X71122914Y-60601995D01*
X71028562Y-60592328D01*
X71022145Y-60592000D01*
X70772115Y-60592000D01*
X70756876Y-60596475D01*
X70755671Y-60597865D01*
X70754000Y-60605548D01*
X70754000Y-61728000D01*
X70733998Y-61796121D01*
X70680342Y-61842614D01*
X70628000Y-61854000D01*
X69285116Y-61854000D01*
X69249871Y-61864349D01*
X69223804Y-61881101D01*
X69152807Y-61881101D01*
X69093081Y-61842717D01*
X69087503Y-61835800D01*
X69013261Y-61736739D01*
X68896705Y-61649385D01*
X68888296Y-61646233D01*
X68888295Y-61646232D01*
X68819743Y-61620533D01*
X68762978Y-61577892D01*
X68738278Y-61511330D01*
X68753136Y-61442622D01*
X68805379Y-61346000D01*
X68815174Y-61327885D01*
X69267000Y-61327885D01*
X69271475Y-61343124D01*
X69272865Y-61344329D01*
X69280548Y-61346000D01*
X70227885Y-61346000D01*
X70243124Y-61341525D01*
X70244329Y-61340135D01*
X70246000Y-61332452D01*
X70246000Y-60610116D01*
X70241525Y-60594877D01*
X70240135Y-60593672D01*
X70232452Y-60592001D01*
X69977905Y-60592001D01*
X69971386Y-60592338D01*
X69875794Y-60602257D01*
X69862400Y-60605149D01*
X69708216Y-60656588D01*
X69695038Y-60662761D01*
X69557193Y-60748063D01*
X69545792Y-60757099D01*
X69431261Y-60871829D01*
X69422249Y-60883240D01*
X69337184Y-61021243D01*
X69331037Y-61034424D01*
X69279862Y-61188710D01*
X69276995Y-61202086D01*
X69267328Y-61296438D01*
X69267000Y-61302855D01*
X69267000Y-61327885D01*
X68815174Y-61327885D01*
X68834198Y-61292701D01*
X68892682Y-61103768D01*
X68913355Y-60907075D01*
X68895430Y-60710112D01*
X68839590Y-60520381D01*
X68829919Y-60501881D01*
X68750813Y-60350568D01*
X68747960Y-60345110D01*
X68624032Y-60190975D01*
X68617727Y-60185684D01*
X68601334Y-60171929D01*
X68472526Y-60063846D01*
X68467128Y-60060879D01*
X68467123Y-60060875D01*
X68304608Y-59971533D01*
X68304609Y-59971533D01*
X68299213Y-59968567D01*
X68293346Y-59966706D01*
X68293344Y-59966705D01*
X68116564Y-59910627D01*
X68116563Y-59910627D01*
X68110694Y-59908765D01*
X67956773Y-59891500D01*
X67011842Y-59891500D01*
X66998235Y-59890763D01*
X66966737Y-59887341D01*
X66966732Y-59887341D01*
X66960611Y-59886676D01*
X66942611Y-59888251D01*
X66910609Y-59891050D01*
X66905784Y-59891379D01*
X66903313Y-59891500D01*
X66900231Y-59891500D01*
X66877763Y-59893703D01*
X66857489Y-59895691D01*
X66856174Y-59895813D01*
X66825965Y-59898456D01*
X66763587Y-59903913D01*
X66758468Y-59905400D01*
X66756742Y-59905569D01*
X66756229Y-59905517D01*
X66753914Y-59905847D01*
X66753167Y-59905920D01*
X66753157Y-59905921D01*
X66753086Y-59905197D01*
X66686930Y-59898456D01*
X66631402Y-59854216D01*
X66608500Y-59781781D01*
X66608500Y-59500000D01*
X67444240Y-59500000D01*
X67510563Y-59535562D01*
G37*
%TD.AperFunction*%
%TD*%
%TA.AperFunction,Conductor*%
%TO.N,GND*%
G36*
X103246227Y-40328502D02*
G01*
X103292720Y-40382158D01*
X103302824Y-40452432D01*
X103273330Y-40517012D01*
X103230857Y-40548926D01*
X103114714Y-40602469D01*
X103109745Y-40605033D01*
X102743162Y-40815403D01*
X102738429Y-40818406D01*
X102392001Y-41060528D01*
X102387560Y-41063936D01*
X102116057Y-41292158D01*
X102107612Y-41304875D01*
X102113720Y-41315348D01*
X102513074Y-41714702D01*
X102974373Y-42176002D01*
X103039161Y-42240790D01*
X103924459Y-43126087D01*
X107600000Y-46801628D01*
X108485298Y-47686925D01*
X108881726Y-48083353D01*
X108895484Y-48090865D01*
X108904844Y-48084408D01*
X109073825Y-47891722D01*
X109077325Y-47887354D01*
X109326654Y-47546064D01*
X109329749Y-47541406D01*
X109547741Y-47179322D01*
X109550422Y-47174383D01*
X109652204Y-46965237D01*
X109699998Y-46912737D01*
X109768589Y-46894411D01*
X109836199Y-46916077D01*
X109881362Y-46970856D01*
X109891500Y-47020373D01*
X109891500Y-82527958D01*
X109871498Y-82596079D01*
X109817842Y-82642572D01*
X109747568Y-82652676D01*
X109682988Y-82623182D01*
X109649474Y-82577089D01*
X109545107Y-82330618D01*
X109542683Y-82325536D01*
X109343936Y-81952535D01*
X109341085Y-81947713D01*
X109109974Y-81593865D01*
X109106692Y-81589297D01*
X108845030Y-81257380D01*
X108841382Y-81253155D01*
X108788103Y-81196715D01*
X108774389Y-81188705D01*
X108773517Y-81188742D01*
X108765438Y-81193772D01*
X108365717Y-81593493D01*
X107480419Y-82478790D01*
X106954332Y-83004878D01*
X103804879Y-86154331D01*
X102919581Y-87039628D01*
X102393494Y-87565716D01*
X101996736Y-87962474D01*
X101989122Y-87976418D01*
X101989171Y-87977110D01*
X101994617Y-87985274D01*
X102072268Y-88057812D01*
X102076507Y-88061433D01*
X102409802Y-88321363D01*
X102414359Y-88324602D01*
X102769448Y-88553880D01*
X102774250Y-88556686D01*
X103148316Y-88753491D01*
X103153374Y-88755871D01*
X103377074Y-88849218D01*
X103432238Y-88893911D01*
X103454482Y-88961333D01*
X103436744Y-89030078D01*
X103384655Y-89078320D01*
X103328551Y-89091500D01*
X67472960Y-89091500D01*
X67404839Y-89071498D01*
X67358346Y-89017842D01*
X67348242Y-88947568D01*
X67377736Y-88882988D01*
X67423222Y-88849732D01*
X67692126Y-88734202D01*
X67697169Y-88731764D01*
X68069131Y-88531063D01*
X68073935Y-88528188D01*
X68426563Y-88295231D01*
X68431126Y-88291916D01*
X68761658Y-88028529D01*
X68765873Y-88024852D01*
X68803823Y-87988649D01*
X68811763Y-87974890D01*
X68811713Y-87973843D01*
X68806822Y-87966032D01*
X68406507Y-87565717D01*
X67521210Y-86680419D01*
X66995122Y-86154332D01*
X65241922Y-84401132D01*
X65964408Y-84401132D01*
X65964539Y-84402965D01*
X65968790Y-84409580D01*
X67354331Y-85795121D01*
X67803563Y-86244354D01*
X67880418Y-86321209D01*
X68765716Y-87206506D01*
X69162142Y-87602932D01*
X69175903Y-87610446D01*
X69185263Y-87603989D01*
X69354244Y-87411303D01*
X69357744Y-87406935D01*
X69607073Y-87065645D01*
X69610168Y-87060987D01*
X69828160Y-86698903D01*
X69830841Y-86693964D01*
X70015779Y-86313946D01*
X70018014Y-86308780D01*
X70168442Y-85913815D01*
X70170201Y-85908496D01*
X70284920Y-85501730D01*
X70286204Y-85496259D01*
X70364315Y-85080883D01*
X70365102Y-85075346D01*
X70406035Y-84654102D01*
X70406308Y-84649665D01*
X70412788Y-84402233D01*
X70412746Y-84397762D01*
X70393917Y-83974973D01*
X70393419Y-83969386D01*
X70337155Y-83550499D01*
X70336162Y-83544976D01*
X70242883Y-83132748D01*
X70241410Y-83127361D01*
X70111847Y-82725025D01*
X70109910Y-82719815D01*
X69945098Y-82330599D01*
X69942683Y-82325536D01*
X69743936Y-81952535D01*
X69741085Y-81947713D01*
X69509974Y-81593865D01*
X69506692Y-81589297D01*
X69245030Y-81257380D01*
X69241382Y-81253155D01*
X69188103Y-81196715D01*
X69174389Y-81188705D01*
X69173517Y-81188742D01*
X69165438Y-81193772D01*
X68765717Y-81593493D01*
X67880419Y-82478790D01*
X67354332Y-83004878D01*
X65972022Y-84387188D01*
X65964408Y-84401132D01*
X65241922Y-84401132D01*
X63845669Y-83004879D01*
X62960372Y-82119581D01*
X62434284Y-81593494D01*
X62035561Y-81194771D01*
X62022253Y-81187504D01*
X62012214Y-81194626D01*
X61768223Y-81487994D01*
X61764828Y-81492467D01*
X61524528Y-81840152D01*
X61521549Y-81844902D01*
X61313106Y-82212575D01*
X61310562Y-82217568D01*
X61149201Y-82572461D01*
X61102797Y-82626194D01*
X61034710Y-82646310D01*
X60966556Y-82626421D01*
X60919974Y-82572843D01*
X60908500Y-82520310D01*
X60908500Y-80824456D01*
X62388031Y-80824456D01*
X62394139Y-80834929D01*
X62793493Y-81234283D01*
X63319580Y-81760371D01*
X64204878Y-82645668D01*
X65587188Y-84027978D01*
X65601132Y-84035592D01*
X65602965Y-84035461D01*
X65609580Y-84031210D01*
X66995121Y-82645669D01*
X67880419Y-81760372D01*
X68406506Y-81234284D01*
X68802754Y-80838036D01*
X68810316Y-80824187D01*
X68803987Y-80814962D01*
X68630928Y-80661582D01*
X68626561Y-80658046D01*
X68286600Y-80406948D01*
X68281947Y-80403821D01*
X67920995Y-80183926D01*
X67916094Y-80181232D01*
X67537027Y-79994297D01*
X67531904Y-79992048D01*
X67137707Y-79839545D01*
X67132417Y-79837765D01*
X66726218Y-79720904D01*
X66720794Y-79719602D01*
X66305822Y-79639316D01*
X66300293Y-79638500D01*
X65879828Y-79595420D01*
X65874247Y-79595098D01*
X65451635Y-79589566D01*
X65446024Y-79589742D01*
X65024593Y-79621800D01*
X65019036Y-79622472D01*
X64602128Y-79691864D01*
X64596631Y-79693032D01*
X64187547Y-79799209D01*
X64182181Y-79800861D01*
X63784153Y-79942983D01*
X63778965Y-79945100D01*
X63395133Y-80122050D01*
X63390164Y-80124614D01*
X63023581Y-80334984D01*
X63018848Y-80337987D01*
X62672420Y-80580109D01*
X62667979Y-80583517D01*
X62396476Y-80811739D01*
X62388031Y-80824456D01*
X60908500Y-80824456D01*
X60908500Y-77973134D01*
X61741500Y-77973134D01*
X61748255Y-78035316D01*
X61799385Y-78171705D01*
X61886739Y-78288261D01*
X62003295Y-78375615D01*
X62139684Y-78426745D01*
X62201866Y-78433500D01*
X63998134Y-78433500D01*
X64060316Y-78426745D01*
X64196705Y-78375615D01*
X64313261Y-78288261D01*
X64400615Y-78171705D01*
X64403767Y-78163296D01*
X64408077Y-78155425D01*
X64409741Y-78156336D01*
X64445663Y-78108510D01*
X64512224Y-78083807D01*
X64521009Y-78083500D01*
X67813157Y-78083500D01*
X67826764Y-78084237D01*
X67858262Y-78087659D01*
X67858267Y-78087659D01*
X67864388Y-78088324D01*
X67890638Y-78086027D01*
X67914388Y-78083950D01*
X67919214Y-78083621D01*
X67921686Y-78083500D01*
X67924769Y-78083500D01*
X67936738Y-78082326D01*
X67967506Y-78079310D01*
X67968819Y-78079188D01*
X68013084Y-78075315D01*
X68061413Y-78071087D01*
X68066532Y-78069600D01*
X68071833Y-78069080D01*
X68160834Y-78042209D01*
X68161967Y-78041874D01*
X68245414Y-78017630D01*
X68245418Y-78017628D01*
X68251336Y-78015909D01*
X68256068Y-78013456D01*
X68261169Y-78011916D01*
X68266612Y-78009022D01*
X68343260Y-77968269D01*
X68344426Y-77967657D01*
X68421453Y-77927729D01*
X68426926Y-77924892D01*
X68431089Y-77921569D01*
X68435796Y-77919066D01*
X68507918Y-77860245D01*
X68508774Y-77859554D01*
X68547973Y-77828262D01*
X68550477Y-77825758D01*
X68551195Y-77825116D01*
X68555528Y-77821415D01*
X68589062Y-77794065D01*
X68618288Y-77758737D01*
X68626277Y-77749958D01*
X69630829Y-76745405D01*
X69693141Y-76711380D01*
X69719924Y-76708500D01*
X69848134Y-76708500D01*
X69910316Y-76701745D01*
X70046705Y-76650615D01*
X70163261Y-76563261D01*
X70250615Y-76446705D01*
X70301745Y-76310316D01*
X70308500Y-76248134D01*
X70308500Y-75251866D01*
X70301745Y-75189684D01*
X70250615Y-75053295D01*
X70163261Y-74936739D01*
X70046705Y-74849385D01*
X69910316Y-74798255D01*
X69848134Y-74791500D01*
X69533299Y-74791500D01*
X69495620Y-74785734D01*
X69413113Y-74759878D01*
X69407232Y-74758035D01*
X69401109Y-74757370D01*
X69401105Y-74757369D01*
X69216737Y-74737341D01*
X69216733Y-74737341D01*
X69210612Y-74736676D01*
X69013587Y-74753913D01*
X68952860Y-74771556D01*
X68901432Y-74786497D01*
X68866279Y-74791500D01*
X68551866Y-74791500D01*
X68489684Y-74798255D01*
X68353295Y-74849385D01*
X68236739Y-74936739D01*
X68149385Y-75053295D01*
X68098255Y-75189684D01*
X68091500Y-75251866D01*
X68091500Y-75380074D01*
X68071498Y-75448195D01*
X68054596Y-75469169D01*
X67494171Y-76029595D01*
X67431858Y-76063620D01*
X67405075Y-76066500D01*
X64521009Y-76066500D01*
X64452888Y-76046498D01*
X64406395Y-75992842D01*
X64404097Y-75987306D01*
X64403767Y-75986703D01*
X64400615Y-75978295D01*
X64313261Y-75861739D01*
X64196705Y-75774385D01*
X64077687Y-75729767D01*
X64020923Y-75687125D01*
X63996223Y-75620564D01*
X64011430Y-75551215D01*
X64032977Y-75522535D01*
X64134052Y-75421812D01*
X64140730Y-75413965D01*
X64265003Y-75241020D01*
X64270313Y-75232183D01*
X64364670Y-75041267D01*
X64368469Y-75031672D01*
X64430377Y-74827910D01*
X64432555Y-74817837D01*
X64433986Y-74806962D01*
X64431775Y-74792778D01*
X64418617Y-74789000D01*
X61783225Y-74789000D01*
X61769694Y-74792973D01*
X61768257Y-74802966D01*
X61798565Y-74937446D01*
X61801645Y-74947275D01*
X61881770Y-75144603D01*
X61886413Y-75153794D01*
X61997694Y-75335388D01*
X62003777Y-75343699D01*
X62143213Y-75504667D01*
X62150577Y-75511879D01*
X62155522Y-75515985D01*
X62195156Y-75574889D01*
X62196653Y-75645870D01*
X62159537Y-75706392D01*
X62119264Y-75730910D01*
X62011705Y-75771232D01*
X62011704Y-75771233D01*
X62003295Y-75774385D01*
X61886739Y-75861739D01*
X61799385Y-75978295D01*
X61748255Y-76114684D01*
X61741500Y-76176866D01*
X61741500Y-77973134D01*
X60908500Y-77973134D01*
X60908500Y-74269183D01*
X61764389Y-74269183D01*
X61765912Y-74277607D01*
X61778292Y-74281000D01*
X62827885Y-74281000D01*
X62843124Y-74276525D01*
X62844329Y-74275135D01*
X62846000Y-74267452D01*
X62846000Y-74262885D01*
X63354000Y-74262885D01*
X63358475Y-74278124D01*
X63359865Y-74279329D01*
X63367548Y-74281000D01*
X64418344Y-74281000D01*
X64431875Y-74277027D01*
X64433180Y-74267947D01*
X64391214Y-74100875D01*
X64387894Y-74091124D01*
X64302972Y-73895814D01*
X64298105Y-73886739D01*
X64182426Y-73707926D01*
X64176136Y-73699757D01*
X64056951Y-73568775D01*
X80734937Y-73568775D01*
X80736688Y-73578359D01*
X80778357Y-73721784D01*
X80784604Y-73736220D01*
X80859876Y-73863499D01*
X80869516Y-73875926D01*
X80974074Y-73980484D01*
X80986501Y-73990124D01*
X81113780Y-74065396D01*
X81128216Y-74071643D01*
X81271641Y-74113312D01*
X81284244Y-74115614D01*
X81312102Y-74117807D01*
X81317031Y-74118000D01*
X81376198Y-74118000D01*
X81444319Y-74138002D01*
X81490812Y-74191658D01*
X81501508Y-74257170D01*
X81486496Y-74400000D01*
X81487186Y-74406565D01*
X81491127Y-74444057D01*
X81506458Y-74589928D01*
X81565473Y-74771556D01*
X81568776Y-74777278D01*
X81568777Y-74777279D01*
X81603257Y-74837000D01*
X81619995Y-74905995D01*
X81603257Y-74963000D01*
X81570065Y-75020491D01*
X81565473Y-75028444D01*
X81506458Y-75210072D01*
X81486496Y-75400000D01*
X81487186Y-75406565D01*
X81488789Y-75421812D01*
X81506458Y-75589928D01*
X81565473Y-75771556D01*
X81660960Y-75936944D01*
X81665378Y-75941851D01*
X81665379Y-75941852D01*
X81784325Y-76073955D01*
X81788747Y-76078866D01*
X81943248Y-76191118D01*
X81949276Y-76193802D01*
X81949278Y-76193803D01*
X82078938Y-76251531D01*
X82117712Y-76268794D01*
X82211113Y-76288647D01*
X82298056Y-76307128D01*
X82298061Y-76307128D01*
X82304513Y-76308500D01*
X82365500Y-76308500D01*
X82433621Y-76328502D01*
X82480114Y-76382158D01*
X82491500Y-76434500D01*
X82491500Y-85515500D01*
X82471498Y-85583621D01*
X82417842Y-85630114D01*
X82365500Y-85641500D01*
X81501866Y-85641500D01*
X81439684Y-85648255D01*
X81303295Y-85699385D01*
X81186739Y-85786739D01*
X81099385Y-85903295D01*
X81048255Y-86039684D01*
X81041500Y-86101866D01*
X81041500Y-87898134D01*
X81048255Y-87960316D01*
X81099385Y-88096705D01*
X81186739Y-88213261D01*
X81303295Y-88300615D01*
X81439684Y-88351745D01*
X81501866Y-88358500D01*
X83298134Y-88358500D01*
X83360316Y-88351745D01*
X83496705Y-88300615D01*
X83613261Y-88213261D01*
X83700615Y-88096705D01*
X83739156Y-87993898D01*
X83744598Y-87979382D01*
X83787240Y-87922618D01*
X83853802Y-87897918D01*
X83923150Y-87913126D01*
X83957817Y-87941114D01*
X83986250Y-87973938D01*
X84123996Y-88088297D01*
X84150420Y-88110234D01*
X84158126Y-88116632D01*
X84351000Y-88229338D01*
X84559692Y-88309030D01*
X84564760Y-88310061D01*
X84564763Y-88310062D01*
X84620310Y-88321363D01*
X84778597Y-88353567D01*
X84783772Y-88353757D01*
X84783774Y-88353757D01*
X84996673Y-88361564D01*
X84996677Y-88361564D01*
X85001837Y-88361753D01*
X85006957Y-88361097D01*
X85006959Y-88361097D01*
X85218288Y-88334025D01*
X85218289Y-88334025D01*
X85223416Y-88333368D01*
X85228366Y-88331883D01*
X85432429Y-88270661D01*
X85432434Y-88270659D01*
X85437384Y-88269174D01*
X85637994Y-88170896D01*
X85819860Y-88041173D01*
X85867301Y-87993898D01*
X85963616Y-87897918D01*
X85978096Y-87883489D01*
X86108453Y-87702077D01*
X86109776Y-87703028D01*
X86156645Y-87659857D01*
X86226580Y-87647625D01*
X86292026Y-87675144D01*
X86319875Y-87706994D01*
X86379987Y-87805088D01*
X86526250Y-87973938D01*
X86663996Y-88088297D01*
X86690420Y-88110234D01*
X86698126Y-88116632D01*
X86891000Y-88229338D01*
X87099692Y-88309030D01*
X87104760Y-88310061D01*
X87104763Y-88310062D01*
X87160310Y-88321363D01*
X87318597Y-88353567D01*
X87323772Y-88353757D01*
X87323774Y-88353757D01*
X87536673Y-88361564D01*
X87536677Y-88361564D01*
X87541837Y-88361753D01*
X87546957Y-88361097D01*
X87546959Y-88361097D01*
X87758288Y-88334025D01*
X87758289Y-88334025D01*
X87763416Y-88333368D01*
X87768366Y-88331883D01*
X87972429Y-88270661D01*
X87972434Y-88270659D01*
X87977384Y-88269174D01*
X88177994Y-88170896D01*
X88359860Y-88041173D01*
X88407301Y-87993898D01*
X88503616Y-87897918D01*
X88518096Y-87883489D01*
X88648453Y-87702077D01*
X88649776Y-87703028D01*
X88696645Y-87659857D01*
X88766580Y-87647625D01*
X88832026Y-87675144D01*
X88859875Y-87706994D01*
X88919987Y-87805088D01*
X89066250Y-87973938D01*
X89203996Y-88088297D01*
X89230420Y-88110234D01*
X89238126Y-88116632D01*
X89431000Y-88229338D01*
X89639692Y-88309030D01*
X89644760Y-88310061D01*
X89644763Y-88310062D01*
X89700310Y-88321363D01*
X89858597Y-88353567D01*
X89863772Y-88353757D01*
X89863774Y-88353757D01*
X90076673Y-88361564D01*
X90076677Y-88361564D01*
X90081837Y-88361753D01*
X90086957Y-88361097D01*
X90086959Y-88361097D01*
X90298288Y-88334025D01*
X90298289Y-88334025D01*
X90303416Y-88333368D01*
X90308366Y-88331883D01*
X90512429Y-88270661D01*
X90512434Y-88270659D01*
X90517384Y-88269174D01*
X90717994Y-88170896D01*
X90899860Y-88041173D01*
X90947301Y-87993898D01*
X91043616Y-87897918D01*
X91058096Y-87883489D01*
X91188453Y-87702077D01*
X91209320Y-87659857D01*
X91285136Y-87506453D01*
X91285137Y-87506451D01*
X91287430Y-87501811D01*
X91352370Y-87288069D01*
X91381529Y-87066590D01*
X91383156Y-87000000D01*
X91364852Y-86777361D01*
X91310431Y-86560702D01*
X91221354Y-86355840D01*
X91149231Y-86244355D01*
X91102822Y-86172617D01*
X91102820Y-86172614D01*
X91100014Y-86168277D01*
X90949670Y-86003051D01*
X90945619Y-85999852D01*
X90945615Y-85999848D01*
X90778412Y-85867799D01*
X90774359Y-85864598D01*
X90769841Y-85862104D01*
X90769835Y-85862100D01*
X90743605Y-85847620D01*
X90693635Y-85797187D01*
X90678500Y-85737312D01*
X90678500Y-85602059D01*
X90679059Y-85590203D01*
X90680789Y-85582463D01*
X90679621Y-85545286D01*
X90678562Y-85511611D01*
X90678500Y-85507653D01*
X90678500Y-85478568D01*
X90677946Y-85474179D01*
X90677013Y-85462337D01*
X90675811Y-85424094D01*
X90675562Y-85416169D01*
X90669580Y-85395579D01*
X90665570Y-85376216D01*
X90663875Y-85362796D01*
X90663875Y-85362795D01*
X90662882Y-85354936D01*
X90659966Y-85347571D01*
X90659965Y-85347567D01*
X90645874Y-85311979D01*
X90642035Y-85300769D01*
X90629145Y-85256400D01*
X90618225Y-85237935D01*
X90609534Y-85220195D01*
X90601635Y-85200244D01*
X90574482Y-85162871D01*
X90567967Y-85152952D01*
X90548493Y-85120023D01*
X90548490Y-85120019D01*
X90544453Y-85113193D01*
X90529289Y-85098029D01*
X90516448Y-85082995D01*
X90508501Y-85072057D01*
X90503841Y-85065643D01*
X90468247Y-85036197D01*
X90459468Y-85028208D01*
X89708085Y-84276825D01*
X100388855Y-84276825D01*
X100396600Y-84699410D01*
X100396950Y-84704976D01*
X100442231Y-85125208D01*
X100443078Y-85130746D01*
X100525535Y-85545286D01*
X100526864Y-85550698D01*
X100645852Y-85956289D01*
X100647658Y-85961564D01*
X100802219Y-86354948D01*
X100804501Y-86360072D01*
X100993416Y-86738150D01*
X100996140Y-86743043D01*
X101217917Y-87102833D01*
X101221068Y-87107469D01*
X101473955Y-87446127D01*
X101477488Y-87450444D01*
X101613222Y-87601988D01*
X101626717Y-87610351D01*
X101636128Y-87604662D01*
X102034283Y-87206507D01*
X102919581Y-86321210D01*
X102996436Y-86244355D01*
X103445668Y-85795122D01*
X104827978Y-84412812D01*
X104835592Y-84398868D01*
X104835461Y-84397035D01*
X104831210Y-84390420D01*
X103445669Y-83004879D01*
X102560372Y-82119581D01*
X102034284Y-81593494D01*
X101635561Y-81194771D01*
X101622253Y-81187504D01*
X101612214Y-81194626D01*
X101368223Y-81487994D01*
X101364828Y-81492467D01*
X101124528Y-81840152D01*
X101121549Y-81844902D01*
X100913106Y-82212575D01*
X100910562Y-82217568D01*
X100735629Y-82602312D01*
X100733538Y-82607511D01*
X100593498Y-83006290D01*
X100591877Y-83011659D01*
X100487840Y-83421303D01*
X100486706Y-83426776D01*
X100419496Y-83844054D01*
X100418851Y-83849632D01*
X100389002Y-84271204D01*
X100388855Y-84276825D01*
X89708085Y-84276825D01*
X86255716Y-80824456D01*
X101988031Y-80824456D01*
X101994139Y-80834929D01*
X102393493Y-81234283D01*
X102919580Y-81760371D01*
X103804878Y-82645668D01*
X105187188Y-84027978D01*
X105201132Y-84035592D01*
X105202965Y-84035461D01*
X105209580Y-84031210D01*
X106595121Y-82645669D01*
X107480419Y-81760372D01*
X108006506Y-81234284D01*
X108402754Y-80838036D01*
X108410316Y-80824187D01*
X108403987Y-80814962D01*
X108230928Y-80661582D01*
X108226561Y-80658046D01*
X107886600Y-80406948D01*
X107881947Y-80403821D01*
X107520995Y-80183926D01*
X107516094Y-80181232D01*
X107137027Y-79994297D01*
X107131904Y-79992048D01*
X106737707Y-79839545D01*
X106732417Y-79837765D01*
X106326218Y-79720904D01*
X106320794Y-79719602D01*
X105905822Y-79639316D01*
X105900293Y-79638500D01*
X105479828Y-79595420D01*
X105474247Y-79595098D01*
X105051635Y-79589566D01*
X105046024Y-79589742D01*
X104624593Y-79621800D01*
X104619036Y-79622472D01*
X104202128Y-79691864D01*
X104196631Y-79693032D01*
X103787547Y-79799209D01*
X103782181Y-79800861D01*
X103384153Y-79942983D01*
X103378965Y-79945100D01*
X102995133Y-80122050D01*
X102990164Y-80124614D01*
X102623581Y-80334984D01*
X102618848Y-80337987D01*
X102272420Y-80580109D01*
X102267979Y-80583517D01*
X101996476Y-80811739D01*
X101988031Y-80824456D01*
X86255716Y-80824456D01*
X85345405Y-79914145D01*
X85311379Y-79851833D01*
X85308500Y-79825050D01*
X85308500Y-73575871D01*
X86583434Y-73575871D01*
X86617981Y-73694783D01*
X86624230Y-73709222D01*
X86698854Y-73835405D01*
X86708501Y-73847841D01*
X86812159Y-73951499D01*
X86824595Y-73961146D01*
X86950778Y-74035770D01*
X86965217Y-74042019D01*
X87107436Y-74083338D01*
X87120023Y-74085637D01*
X87127943Y-74086260D01*
X87143030Y-74083090D01*
X87146000Y-74071626D01*
X87146000Y-73582115D01*
X87141525Y-73566876D01*
X87140135Y-73565671D01*
X87132452Y-73564000D01*
X86598100Y-73564000D01*
X86584569Y-73567973D01*
X86583434Y-73575871D01*
X85308500Y-73575871D01*
X85308500Y-72072125D01*
X85328502Y-72004004D01*
X85382158Y-71957511D01*
X85450946Y-71947203D01*
X85532669Y-71957962D01*
X85532670Y-71957962D01*
X85536756Y-71958500D01*
X85763244Y-71958500D01*
X85767330Y-71957962D01*
X85767331Y-71957962D01*
X85877324Y-71943481D01*
X85877527Y-71945026D01*
X85922473Y-71945026D01*
X85922676Y-71943481D01*
X86032669Y-71957962D01*
X86032670Y-71957962D01*
X86036756Y-71958500D01*
X86263244Y-71958500D01*
X86267330Y-71957962D01*
X86267331Y-71957962D01*
X86349054Y-71947203D01*
X86419203Y-71958142D01*
X86472301Y-72005271D01*
X86491500Y-72072125D01*
X86491500Y-72081432D01*
X86492056Y-72085832D01*
X86492988Y-72097664D01*
X86494438Y-72143831D01*
X86496650Y-72151444D01*
X86496650Y-72151445D01*
X86500419Y-72164416D01*
X86504430Y-72183782D01*
X86507118Y-72205064D01*
X86510034Y-72212429D01*
X86510035Y-72212433D01*
X86524126Y-72248021D01*
X86527965Y-72259231D01*
X86540855Y-72303600D01*
X86551775Y-72322065D01*
X86560473Y-72339822D01*
X86562655Y-72345334D01*
X86571501Y-72391711D01*
X86571501Y-72489988D01*
X86574371Y-72526466D01*
X86619731Y-72682596D01*
X86651523Y-72736353D01*
X86668982Y-72805166D01*
X86651522Y-72864630D01*
X86624229Y-72910780D01*
X86617981Y-72925217D01*
X86585039Y-73038605D01*
X86585079Y-73052705D01*
X86592349Y-73056000D01*
X87062458Y-73056000D01*
X87097610Y-73061003D01*
X87107353Y-73063834D01*
X87107360Y-73063835D01*
X87113534Y-73065629D01*
X87119941Y-73066133D01*
X87119945Y-73066134D01*
X87147556Y-73068307D01*
X87147562Y-73068307D01*
X87150011Y-73068500D01*
X87159930Y-73068500D01*
X87528001Y-73068499D01*
X87596120Y-73088501D01*
X87642613Y-73142156D01*
X87654000Y-73194499D01*
X87654000Y-74069566D01*
X87658344Y-74084361D01*
X87670003Y-74086421D01*
X87681114Y-74085547D01*
X87750594Y-74100143D01*
X87801153Y-74149985D01*
X87817000Y-74211159D01*
X87817000Y-74345438D01*
X87817337Y-74351953D01*
X87826894Y-74444057D01*
X87829788Y-74457456D01*
X87879381Y-74606107D01*
X87885555Y-74619286D01*
X87967788Y-74752173D01*
X87976824Y-74763574D01*
X88087429Y-74873986D01*
X88098840Y-74882998D01*
X88231880Y-74965004D01*
X88245061Y-74971151D01*
X88393814Y-75020491D01*
X88407190Y-75023358D01*
X88498097Y-75032672D01*
X88504513Y-75033000D01*
X88527885Y-75033000D01*
X88543124Y-75028525D01*
X88544329Y-75027135D01*
X88546000Y-75019452D01*
X88546000Y-73947000D01*
X88566002Y-73878879D01*
X88619658Y-73832386D01*
X88672000Y-73821000D01*
X88928000Y-73821000D01*
X88996121Y-73841002D01*
X89042614Y-73894658D01*
X89054000Y-73947000D01*
X89054000Y-75014885D01*
X89058475Y-75030124D01*
X89059865Y-75031329D01*
X89067548Y-75033000D01*
X89095438Y-75033000D01*
X89101953Y-75032663D01*
X89194057Y-75023106D01*
X89207456Y-75020212D01*
X89356107Y-74970619D01*
X89369286Y-74964445D01*
X89502173Y-74882212D01*
X89513574Y-74873176D01*
X89618057Y-74768511D01*
X89680340Y-74734432D01*
X89751160Y-74739435D01*
X89758478Y-74742422D01*
X89811677Y-74766108D01*
X89811685Y-74766111D01*
X89817712Y-74768794D01*
X89897408Y-74785734D01*
X89998056Y-74807128D01*
X89998061Y-74807128D01*
X90004513Y-74808500D01*
X90195487Y-74808500D01*
X90201939Y-74807128D01*
X90201944Y-74807128D01*
X90302592Y-74785734D01*
X90382288Y-74768794D01*
X90390201Y-74765271D01*
X90550722Y-74693803D01*
X90550724Y-74693802D01*
X90556752Y-74691118D01*
X90711253Y-74578866D01*
X90820571Y-74457456D01*
X90834621Y-74441852D01*
X90834622Y-74441851D01*
X90839040Y-74436944D01*
X90897314Y-74336010D01*
X90931223Y-74277279D01*
X90931224Y-74277278D01*
X90934527Y-74271556D01*
X90993542Y-74089928D01*
X90996121Y-74065396D01*
X91012814Y-73906565D01*
X91013504Y-73900000D01*
X90993542Y-73710072D01*
X90934527Y-73528444D01*
X90925611Y-73513001D01*
X90908872Y-73444007D01*
X90925611Y-73386998D01*
X90931224Y-73377277D01*
X90934527Y-73371556D01*
X90993542Y-73189928D01*
X91006305Y-73068500D01*
X91012814Y-73006565D01*
X91013504Y-73000000D01*
X91004127Y-72910780D01*
X90994232Y-72816635D01*
X90994232Y-72816633D01*
X90993542Y-72810072D01*
X90988176Y-72793558D01*
X91354000Y-72793558D01*
X91357973Y-72807089D01*
X91365871Y-72808224D01*
X91491784Y-72771643D01*
X91506220Y-72765396D01*
X91633499Y-72690124D01*
X91645926Y-72680484D01*
X91750484Y-72575926D01*
X91760124Y-72563499D01*
X91835396Y-72436220D01*
X91841643Y-72421784D01*
X91883312Y-72278359D01*
X91884768Y-72270391D01*
X91881948Y-72256969D01*
X91870487Y-72254000D01*
X91372115Y-72254000D01*
X91356876Y-72258475D01*
X91355671Y-72259865D01*
X91354000Y-72267548D01*
X91354000Y-72793558D01*
X90988176Y-72793558D01*
X90934527Y-72628444D01*
X90920928Y-72604890D01*
X90885183Y-72542977D01*
X90868445Y-72473981D01*
X90878000Y-72432800D01*
X90879894Y-72429597D01*
X90882104Y-72421989D01*
X90882106Y-72421985D01*
X90923811Y-72278431D01*
X90925606Y-72272254D01*
X90926582Y-72259865D01*
X90928307Y-72237940D01*
X90928307Y-72237932D01*
X90928500Y-72235484D01*
X90928500Y-71764516D01*
X90927617Y-71753295D01*
X90926111Y-71734156D01*
X90926110Y-71734151D01*
X90925617Y-71727885D01*
X91354000Y-71727885D01*
X91358475Y-71743124D01*
X91359865Y-71744329D01*
X91367548Y-71746000D01*
X91868424Y-71746000D01*
X91883219Y-71741656D01*
X91885063Y-71731225D01*
X91883312Y-71721641D01*
X91841643Y-71578216D01*
X91835394Y-71563776D01*
X91824651Y-71545610D01*
X91807192Y-71476794D01*
X91817468Y-71431430D01*
X91821644Y-71421780D01*
X91863312Y-71278359D01*
X91864768Y-71270391D01*
X91861948Y-71256969D01*
X91850487Y-71254000D01*
X91372115Y-71254000D01*
X91356876Y-71258475D01*
X91355671Y-71259865D01*
X91354000Y-71267548D01*
X91354000Y-71727885D01*
X90925617Y-71727885D01*
X90925606Y-71727746D01*
X90879894Y-71570403D01*
X90865215Y-71545582D01*
X90847755Y-71476766D01*
X90857536Y-71433584D01*
X90859894Y-71429597D01*
X90865843Y-71409122D01*
X90895939Y-71305528D01*
X90905606Y-71272254D01*
X90906187Y-71264884D01*
X90908307Y-71237940D01*
X90908307Y-71237932D01*
X90908500Y-71235484D01*
X90908500Y-70764516D01*
X90907748Y-70754960D01*
X90906111Y-70734156D01*
X90906110Y-70734151D01*
X90905617Y-70727885D01*
X91334000Y-70727885D01*
X91338475Y-70743124D01*
X91339865Y-70744329D01*
X91347548Y-70746000D01*
X91848424Y-70746000D01*
X91863219Y-70741656D01*
X91865063Y-70731225D01*
X91863312Y-70721641D01*
X91836311Y-70628705D01*
X92267001Y-70628705D01*
X92267264Y-70634454D01*
X92273132Y-70698315D01*
X92275743Y-70711351D01*
X92322715Y-70861243D01*
X92328921Y-70874988D01*
X92409824Y-71008574D01*
X92419131Y-71020443D01*
X92529557Y-71130869D01*
X92541426Y-71140176D01*
X92675012Y-71221079D01*
X92688757Y-71227285D01*
X92838644Y-71274256D01*
X92851694Y-71276869D01*
X92906586Y-71281913D01*
X92918124Y-71278525D01*
X92919329Y-71277135D01*
X92921000Y-71269452D01*
X92921000Y-70572115D01*
X92916525Y-70556876D01*
X92915135Y-70555671D01*
X92907452Y-70554000D01*
X92285116Y-70554000D01*
X92269877Y-70558475D01*
X92268672Y-70559865D01*
X92267001Y-70567548D01*
X92267001Y-70628705D01*
X91836311Y-70628705D01*
X91821643Y-70578216D01*
X91815396Y-70563780D01*
X91740124Y-70436501D01*
X91730484Y-70424074D01*
X91625926Y-70319516D01*
X91613499Y-70309876D01*
X91486220Y-70234604D01*
X91471784Y-70228357D01*
X91351395Y-70193381D01*
X91337295Y-70193421D01*
X91334000Y-70200691D01*
X91334000Y-70727885D01*
X90905617Y-70727885D01*
X90905606Y-70727746D01*
X90876832Y-70628705D01*
X90862106Y-70578016D01*
X90862105Y-70578014D01*
X90859894Y-70570403D01*
X90843546Y-70542760D01*
X90826000Y-70478621D01*
X90826000Y-70206442D01*
X90822027Y-70192911D01*
X90814129Y-70191776D01*
X90688216Y-70228357D01*
X90673778Y-70234605D01*
X90664628Y-70240016D01*
X90595812Y-70257474D01*
X90536353Y-70240015D01*
X90528469Y-70235353D01*
X90519597Y-70230106D01*
X90511986Y-70227895D01*
X90511984Y-70227894D01*
X90438144Y-70206442D01*
X90362254Y-70184394D01*
X90355849Y-70183890D01*
X90355844Y-70183889D01*
X90327940Y-70181693D01*
X90327932Y-70181693D01*
X90325484Y-70181500D01*
X90281313Y-70181500D01*
X90213192Y-70161498D01*
X90195060Y-70147350D01*
X90190913Y-70143456D01*
X90185133Y-70138028D01*
X90178181Y-70134206D01*
X90166342Y-70127697D01*
X90149818Y-70116843D01*
X90139132Y-70108555D01*
X90132868Y-70103696D01*
X90125596Y-70100549D01*
X90125594Y-70100548D01*
X90090465Y-70085346D01*
X90079805Y-70080124D01*
X90046284Y-70061695D01*
X90046282Y-70061694D01*
X90039337Y-70057876D01*
X90018559Y-70052541D01*
X89999869Y-70046142D01*
X89980176Y-70037620D01*
X89934552Y-70030394D01*
X89922927Y-70027986D01*
X89899400Y-70021945D01*
X89838394Y-69985630D01*
X89805814Y-69916351D01*
X89794559Y-69830864D01*
X89793481Y-69822676D01*
X89786919Y-69806832D01*
X89761713Y-69745981D01*
X89734686Y-69680732D01*
X89641157Y-69558843D01*
X89634605Y-69553815D01*
X89553771Y-69491790D01*
X89519267Y-69465314D01*
X89377324Y-69406519D01*
X89301868Y-69396585D01*
X89267331Y-69392038D01*
X89267330Y-69392038D01*
X89263244Y-69391500D01*
X89036756Y-69391500D01*
X89032670Y-69392038D01*
X89032669Y-69392038D01*
X88922676Y-69406519D01*
X88922473Y-69404974D01*
X88877527Y-69404974D01*
X88877324Y-69406519D01*
X88767331Y-69392038D01*
X88767330Y-69392038D01*
X88763244Y-69391500D01*
X88536756Y-69391500D01*
X88532670Y-69392038D01*
X88532669Y-69392038D01*
X88422676Y-69406519D01*
X88422473Y-69404974D01*
X88377527Y-69404974D01*
X88377324Y-69406519D01*
X88267331Y-69392038D01*
X88267330Y-69392038D01*
X88263244Y-69391500D01*
X88036756Y-69391500D01*
X88032670Y-69392038D01*
X88032669Y-69392038D01*
X87922676Y-69406519D01*
X87922473Y-69404974D01*
X87877527Y-69404974D01*
X87877324Y-69406519D01*
X87767331Y-69392038D01*
X87767330Y-69392038D01*
X87763244Y-69391500D01*
X87536756Y-69391500D01*
X87532670Y-69392038D01*
X87532669Y-69392038D01*
X87422676Y-69406519D01*
X87422473Y-69404974D01*
X87377527Y-69404974D01*
X87377324Y-69406519D01*
X87267331Y-69392038D01*
X87267330Y-69392038D01*
X87263244Y-69391500D01*
X87036756Y-69391500D01*
X87032670Y-69392038D01*
X87032669Y-69392038D01*
X86922676Y-69406519D01*
X86922473Y-69404974D01*
X86877527Y-69404974D01*
X86877324Y-69406519D01*
X86767331Y-69392038D01*
X86767330Y-69392038D01*
X86763244Y-69391500D01*
X86536756Y-69391500D01*
X86532670Y-69392038D01*
X86532669Y-69392038D01*
X86422676Y-69406519D01*
X86422473Y-69404974D01*
X86377527Y-69404974D01*
X86377324Y-69406519D01*
X86267331Y-69392038D01*
X86267330Y-69392038D01*
X86263244Y-69391500D01*
X86036756Y-69391500D01*
X86032670Y-69392038D01*
X86032669Y-69392038D01*
X85922676Y-69406519D01*
X85922473Y-69404974D01*
X85877527Y-69404974D01*
X85877324Y-69406519D01*
X85767331Y-69392038D01*
X85767330Y-69392038D01*
X85763244Y-69391500D01*
X85536756Y-69391500D01*
X85532670Y-69392038D01*
X85532669Y-69392038D01*
X85422676Y-69406519D01*
X85422473Y-69404974D01*
X85377527Y-69404974D01*
X85377324Y-69406519D01*
X85267331Y-69392038D01*
X85267330Y-69392038D01*
X85263244Y-69391500D01*
X85036756Y-69391500D01*
X85032670Y-69392038D01*
X85032669Y-69392038D01*
X84922676Y-69406519D01*
X84922473Y-69404974D01*
X84877527Y-69404974D01*
X84877324Y-69406519D01*
X84767331Y-69392038D01*
X84767330Y-69392038D01*
X84763244Y-69391500D01*
X84536756Y-69391500D01*
X84532670Y-69392038D01*
X84532669Y-69392038D01*
X84422676Y-69406519D01*
X84422473Y-69404974D01*
X84377527Y-69404974D01*
X84377324Y-69406519D01*
X84267331Y-69392038D01*
X84267330Y-69392038D01*
X84263244Y-69391500D01*
X84036756Y-69391500D01*
X84032670Y-69392038D01*
X84032669Y-69392038D01*
X83922676Y-69406519D01*
X83922473Y-69404974D01*
X83877527Y-69404974D01*
X83877324Y-69406519D01*
X83767331Y-69392038D01*
X83767330Y-69392038D01*
X83763244Y-69391500D01*
X83536756Y-69391500D01*
X83532670Y-69392038D01*
X83532669Y-69392038D01*
X83422676Y-69406519D01*
X83422473Y-69404974D01*
X83377527Y-69404974D01*
X83377324Y-69406519D01*
X83267331Y-69392038D01*
X83267330Y-69392038D01*
X83263244Y-69391500D01*
X83036756Y-69391500D01*
X83032670Y-69392038D01*
X83032669Y-69392038D01*
X82922676Y-69406519D01*
X82922473Y-69404974D01*
X82877527Y-69404974D01*
X82877324Y-69406519D01*
X82767331Y-69392038D01*
X82767330Y-69392038D01*
X82763244Y-69391500D01*
X82536756Y-69391500D01*
X82532670Y-69392038D01*
X82532669Y-69392038D01*
X82422676Y-69406519D01*
X82422507Y-69405234D01*
X82377427Y-69405235D01*
X82377194Y-69407006D01*
X82317960Y-69399208D01*
X82303778Y-69401419D01*
X82298217Y-69420784D01*
X82260189Y-69480737D01*
X82253816Y-69485967D01*
X82226704Y-69506771D01*
X82160484Y-69532372D01*
X82090935Y-69518108D01*
X82073295Y-69506771D01*
X82046092Y-69485897D01*
X82004225Y-69428558D01*
X82001901Y-69421433D01*
X81995956Y-69401187D01*
X81982417Y-69399158D01*
X81922806Y-69407006D01*
X81922573Y-69405235D01*
X81877493Y-69405234D01*
X81877324Y-69406519D01*
X81767331Y-69392038D01*
X81767330Y-69392038D01*
X81763244Y-69391500D01*
X81536756Y-69391500D01*
X81532670Y-69392038D01*
X81532669Y-69392038D01*
X81498132Y-69396585D01*
X81422676Y-69406519D01*
X81415049Y-69409678D01*
X81415046Y-69409679D01*
X81369604Y-69428502D01*
X81280732Y-69465314D01*
X81158843Y-69558843D01*
X81153817Y-69565393D01*
X81153816Y-69565394D01*
X81128743Y-69598070D01*
X81065314Y-69680733D01*
X81006519Y-69822676D01*
X80991500Y-69936756D01*
X80991500Y-71413244D01*
X80992038Y-71417330D01*
X80992038Y-71417331D01*
X81005359Y-71518517D01*
X80994419Y-71588666D01*
X80969532Y-71624058D01*
X80869516Y-71724074D01*
X80859876Y-71736501D01*
X80784604Y-71863780D01*
X80778357Y-71878216D01*
X80736688Y-72021641D01*
X80735232Y-72029609D01*
X80738052Y-72043031D01*
X80749513Y-72046000D01*
X81565500Y-72046000D01*
X81633621Y-72066002D01*
X81680114Y-72119658D01*
X81691500Y-72172000D01*
X81691500Y-72535484D01*
X81691693Y-72537932D01*
X81691693Y-72537940D01*
X81693705Y-72563499D01*
X81694394Y-72572254D01*
X81740106Y-72729597D01*
X81744141Y-72736419D01*
X81747290Y-72743697D01*
X81745947Y-72744278D01*
X81761269Y-72804685D01*
X81746245Y-72855851D01*
X81747290Y-72856303D01*
X81744141Y-72863581D01*
X81740106Y-72870403D01*
X81737895Y-72878014D01*
X81737894Y-72878016D01*
X81734375Y-72890130D01*
X81694394Y-73027746D01*
X81693890Y-73034151D01*
X81693889Y-73034156D01*
X81691776Y-73061003D01*
X81691500Y-73064516D01*
X81691500Y-73428000D01*
X81671498Y-73496121D01*
X81617842Y-73542614D01*
X81565500Y-73554000D01*
X80751576Y-73554000D01*
X80736781Y-73558344D01*
X80734937Y-73568775D01*
X64056951Y-73568775D01*
X64032806Y-73542240D01*
X64025273Y-73535215D01*
X63858139Y-73403222D01*
X63849552Y-73397517D01*
X63663117Y-73294599D01*
X63653705Y-73290369D01*
X63452959Y-73219280D01*
X63442988Y-73216646D01*
X63371837Y-73203972D01*
X63358540Y-73205432D01*
X63354000Y-73219989D01*
X63354000Y-74262885D01*
X62846000Y-74262885D01*
X62846000Y-73218102D01*
X62842082Y-73204758D01*
X62827806Y-73202771D01*
X62789324Y-73208660D01*
X62779288Y-73211051D01*
X62576868Y-73277212D01*
X62567359Y-73281209D01*
X62378463Y-73379542D01*
X62369738Y-73385036D01*
X62199433Y-73512905D01*
X62191726Y-73519748D01*
X62044590Y-73673717D01*
X62038104Y-73681727D01*
X61918098Y-73857649D01*
X61913000Y-73866623D01*
X61823338Y-74059783D01*
X61819775Y-74069470D01*
X61764389Y-74269183D01*
X60908500Y-74269183D01*
X60908500Y-67000000D01*
X63600451Y-67000000D01*
X63621243Y-67012816D01*
X63634424Y-67018963D01*
X63788710Y-67070138D01*
X63802086Y-67073005D01*
X63896438Y-67082672D01*
X63902854Y-67083000D01*
X63927885Y-67083000D01*
X63943124Y-67078525D01*
X63944329Y-67077135D01*
X63946000Y-67069452D01*
X63946000Y-67000000D01*
X64454000Y-67000000D01*
X64454000Y-67064884D01*
X64458475Y-67080123D01*
X64459865Y-67081328D01*
X64467548Y-67082999D01*
X64497095Y-67082999D01*
X64503614Y-67082662D01*
X64599206Y-67072743D01*
X64612600Y-67069851D01*
X64766784Y-67018412D01*
X64779962Y-67012239D01*
X64799740Y-67000000D01*
X65499496Y-67000000D01*
X65521032Y-67013275D01*
X65527262Y-67017115D01*
X65566375Y-67030088D01*
X65688611Y-67070632D01*
X65688613Y-67070632D01*
X65695139Y-67072797D01*
X65701975Y-67073497D01*
X65701978Y-67073498D01*
X65745031Y-67077909D01*
X65799600Y-67083500D01*
X66400400Y-67083500D01*
X66403646Y-67083163D01*
X66403650Y-67083163D01*
X66499308Y-67073238D01*
X66499312Y-67073237D01*
X66506166Y-67072526D01*
X66512702Y-67070345D01*
X66512704Y-67070345D01*
X66625624Y-67032672D01*
X66696574Y-67030088D01*
X66757658Y-67066272D01*
X66789482Y-67129736D01*
X66791500Y-67152196D01*
X66791500Y-67617072D01*
X66791837Y-67620318D01*
X66791837Y-67620322D01*
X66792505Y-67626762D01*
X66802022Y-67718482D01*
X66804204Y-67725022D01*
X66852988Y-67871243D01*
X66855692Y-67879349D01*
X66859544Y-67885573D01*
X66859544Y-67885574D01*
X66872644Y-67906743D01*
X66891500Y-67973046D01*
X66891500Y-68912269D01*
X66891800Y-68915325D01*
X66891800Y-68915332D01*
X66892316Y-68920590D01*
X66905920Y-69059333D01*
X66907701Y-69065232D01*
X66907702Y-69065237D01*
X66911122Y-69076563D01*
X66916500Y-69112981D01*
X66916500Y-69129572D01*
X66927022Y-69230982D01*
X66980692Y-69391849D01*
X67069929Y-69536055D01*
X67094805Y-69560887D01*
X67128884Y-69623168D01*
X67123882Y-69693988D01*
X67094960Y-69739078D01*
X67069136Y-69764947D01*
X66980151Y-69909308D01*
X66977846Y-69916256D01*
X66977846Y-69916257D01*
X66930873Y-70057876D01*
X66926762Y-70070269D01*
X66916500Y-70170428D01*
X66916500Y-70182917D01*
X66911559Y-70214833D01*
X66911909Y-70214907D01*
X66910628Y-70220934D01*
X66908765Y-70226806D01*
X66908079Y-70232923D01*
X66908078Y-70232927D01*
X66900555Y-70300000D01*
X66891500Y-70380727D01*
X66891500Y-71990127D01*
X66890810Y-72003297D01*
X66888045Y-72029609D01*
X66886645Y-72042925D01*
X66891218Y-72093173D01*
X66891500Y-72097207D01*
X66891500Y-72099769D01*
X66891800Y-72102827D01*
X66891800Y-72102831D01*
X66895895Y-72144596D01*
X66895977Y-72145471D01*
X66904570Y-72239888D01*
X66905573Y-72243297D01*
X66905920Y-72246833D01*
X66925118Y-72310418D01*
X66933334Y-72337630D01*
X66933561Y-72338390D01*
X66960410Y-72429619D01*
X66962058Y-72432772D01*
X66963084Y-72436169D01*
X66965971Y-72441599D01*
X66965972Y-72441601D01*
X67007669Y-72520022D01*
X67008016Y-72520681D01*
X67052040Y-72604890D01*
X67054265Y-72607658D01*
X67055934Y-72610796D01*
X67059831Y-72615574D01*
X67115941Y-72684372D01*
X67116494Y-72685056D01*
X67172102Y-72754218D01*
X67172108Y-72754224D01*
X67175968Y-72759025D01*
X67178689Y-72761308D01*
X67180935Y-72764062D01*
X67254136Y-72824619D01*
X67254671Y-72825065D01*
X67289156Y-72854001D01*
X67318014Y-72878216D01*
X67327474Y-72886154D01*
X67330589Y-72887866D01*
X67333325Y-72890130D01*
X67338746Y-72893061D01*
X67416865Y-72935300D01*
X67417603Y-72935702D01*
X67500787Y-72981433D01*
X67504170Y-72982506D01*
X67507299Y-72984198D01*
X67591673Y-73010316D01*
X67598002Y-73012275D01*
X67598842Y-73012538D01*
X67683435Y-73039373D01*
X67683439Y-73039374D01*
X67689306Y-73041235D01*
X67692837Y-73041631D01*
X67696232Y-73042682D01*
X67790707Y-73052611D01*
X67791421Y-73052689D01*
X67843227Y-73058500D01*
X67845800Y-73058500D01*
X67849776Y-73058820D01*
X67886796Y-73062711D01*
X67886798Y-73062711D01*
X67892925Y-73063355D01*
X67940570Y-73059019D01*
X67951990Y-73058500D01*
X68028991Y-73058500D01*
X68097112Y-73078502D01*
X68143605Y-73132158D01*
X68145903Y-73137694D01*
X68146232Y-73138296D01*
X68149385Y-73146705D01*
X68236739Y-73263261D01*
X68353295Y-73350615D01*
X68489684Y-73401745D01*
X68551866Y-73408500D01*
X68866759Y-73408500D01*
X68903598Y-73414006D01*
X68993800Y-73441584D01*
X68993802Y-73441584D01*
X68999698Y-73443387D01*
X69054670Y-73448971D01*
X69190334Y-73462752D01*
X69190339Y-73462752D01*
X69196462Y-73463374D01*
X69337941Y-73450000D01*
X69387229Y-73445341D01*
X69387231Y-73445341D01*
X69393362Y-73444761D01*
X69478763Y-73419302D01*
X69497384Y-73413751D01*
X69533380Y-73408500D01*
X69848134Y-73408500D01*
X69910316Y-73401745D01*
X70046705Y-73350615D01*
X70163261Y-73263261D01*
X70250615Y-73146705D01*
X70301745Y-73010316D01*
X70308500Y-72948134D01*
X70308500Y-72568775D01*
X80734937Y-72568775D01*
X80736688Y-72578359D01*
X80778357Y-72721784D01*
X80787753Y-72743497D01*
X80786469Y-72744053D01*
X80801851Y-72804674D01*
X80786759Y-72856073D01*
X80787753Y-72856503D01*
X80778357Y-72878216D01*
X80736688Y-73021641D01*
X80735232Y-73029609D01*
X80738052Y-73043031D01*
X80749513Y-73046000D01*
X81247885Y-73046000D01*
X81263124Y-73041525D01*
X81264329Y-73040135D01*
X81266000Y-73032452D01*
X81266000Y-72572115D01*
X81261525Y-72556876D01*
X81260135Y-72555671D01*
X81252452Y-72554000D01*
X80751576Y-72554000D01*
X80736781Y-72558344D01*
X80734937Y-72568775D01*
X70308500Y-72568775D01*
X70308500Y-71951866D01*
X70301745Y-71889684D01*
X70250615Y-71753295D01*
X70163261Y-71636739D01*
X70046705Y-71549385D01*
X69910316Y-71498255D01*
X69848134Y-71491500D01*
X69719924Y-71491500D01*
X69651803Y-71471498D01*
X69630829Y-71454595D01*
X69556855Y-71380621D01*
X69547753Y-71370478D01*
X69527897Y-71345782D01*
X69524032Y-71340975D01*
X69485578Y-71308708D01*
X69481931Y-71305528D01*
X69480119Y-71303885D01*
X69477925Y-71301691D01*
X69444651Y-71274358D01*
X69443853Y-71273696D01*
X69372526Y-71213846D01*
X69367856Y-71211278D01*
X69363739Y-71207897D01*
X69305855Y-71176860D01*
X69281914Y-71164023D01*
X69280755Y-71163394D01*
X69204619Y-71121538D01*
X69204611Y-71121535D01*
X69199213Y-71118567D01*
X69194131Y-71116955D01*
X69189437Y-71114438D01*
X69100466Y-71087237D01*
X69099441Y-71086918D01*
X69010694Y-71058765D01*
X69006810Y-71058329D01*
X69000994Y-71056825D01*
X69000302Y-71056613D01*
X69000301Y-71056613D01*
X69000262Y-71056601D01*
X69000897Y-71054526D01*
X68946756Y-71026013D01*
X68911797Y-70964220D01*
X68908500Y-70935586D01*
X68908500Y-70387731D01*
X68907814Y-70380727D01*
X68898910Y-70289928D01*
X68894080Y-70240667D01*
X68892299Y-70234768D01*
X68892298Y-70234763D01*
X68888878Y-70223437D01*
X68883500Y-70187019D01*
X68883500Y-70170428D01*
X68882574Y-70161498D01*
X68877940Y-70116843D01*
X68872978Y-70069018D01*
X68819308Y-69908151D01*
X68730071Y-69763945D01*
X68705195Y-69739113D01*
X68671116Y-69676832D01*
X68676118Y-69606012D01*
X68705040Y-69560922D01*
X68725693Y-69540233D01*
X68730864Y-69535053D01*
X68819849Y-69390692D01*
X68835012Y-69344978D01*
X68871072Y-69236262D01*
X68871072Y-69236260D01*
X68873238Y-69229731D01*
X68883500Y-69129572D01*
X68883500Y-69117083D01*
X68888441Y-69085167D01*
X68888091Y-69085093D01*
X68889372Y-69079066D01*
X68891235Y-69073194D01*
X68908500Y-68919273D01*
X68908500Y-67972875D01*
X68927240Y-67906759D01*
X68927250Y-67906743D01*
X68944849Y-67878192D01*
X68947154Y-67871243D01*
X68996072Y-67723762D01*
X68996072Y-67723760D01*
X68998238Y-67717231D01*
X69008500Y-67617072D01*
X69008500Y-67082928D01*
X69007471Y-67073005D01*
X69006111Y-67059908D01*
X68999896Y-67000000D01*
X75260629Y-67000000D01*
X75328750Y-67020002D01*
X75375243Y-67073658D01*
X75385347Y-67143932D01*
X75355853Y-67208512D01*
X75349724Y-67215095D01*
X74810224Y-67754595D01*
X74747912Y-67788621D01*
X74721129Y-67791500D01*
X74470428Y-67791500D01*
X74467182Y-67791837D01*
X74467178Y-67791837D01*
X74438584Y-67794804D01*
X74369018Y-67802022D01*
X74208151Y-67855692D01*
X74063945Y-67944929D01*
X73944136Y-68064947D01*
X73855151Y-68209308D01*
X73852846Y-68216256D01*
X73852846Y-68216257D01*
X73825503Y-68298694D01*
X73801762Y-68370269D01*
X73791500Y-68470428D01*
X73791500Y-69329572D01*
X73791837Y-69332818D01*
X73791837Y-69332822D01*
X73792308Y-69337361D01*
X73802022Y-69430982D01*
X73855692Y-69591849D01*
X73944929Y-69736055D01*
X73950107Y-69741224D01*
X73980113Y-69771178D01*
X74064947Y-69855864D01*
X74209308Y-69944849D01*
X74216256Y-69947154D01*
X74216257Y-69947154D01*
X74363738Y-69996072D01*
X74363740Y-69996072D01*
X74370269Y-69998238D01*
X74470428Y-70008500D01*
X75004572Y-70008500D01*
X75007818Y-70008163D01*
X75007822Y-70008163D01*
X75041603Y-70004658D01*
X75105982Y-69997978D01*
X75266849Y-69944308D01*
X75411055Y-69855071D01*
X75530864Y-69735053D01*
X75619849Y-69590692D01*
X75626591Y-69570367D01*
X75671072Y-69436262D01*
X75671072Y-69436260D01*
X75673238Y-69429731D01*
X75674712Y-69415344D01*
X75701554Y-69349617D01*
X75759669Y-69308836D01*
X75830607Y-69305948D01*
X75891845Y-69341870D01*
X75923941Y-69405198D01*
X75925383Y-69415186D01*
X75926310Y-69424124D01*
X75926311Y-69424128D01*
X75927022Y-69430982D01*
X75980692Y-69591849D01*
X76000021Y-69623084D01*
X76033712Y-69677529D01*
X76052549Y-69745981D01*
X76035686Y-69806832D01*
X76030943Y-69815047D01*
X75973181Y-69915094D01*
X75965473Y-69928444D01*
X75906458Y-70110072D01*
X75905768Y-70116633D01*
X75905768Y-70116635D01*
X75894026Y-70228357D01*
X75886496Y-70300000D01*
X75887186Y-70306565D01*
X75905270Y-70478621D01*
X75906458Y-70489928D01*
X75965473Y-70671556D01*
X75968776Y-70677278D01*
X75968777Y-70677279D01*
X75989007Y-70712318D01*
X76060960Y-70836944D01*
X76065378Y-70841851D01*
X76065379Y-70841852D01*
X76179678Y-70968794D01*
X76188747Y-70978866D01*
X76245973Y-71020443D01*
X76297901Y-71058171D01*
X76343248Y-71091118D01*
X76349276Y-71093802D01*
X76349278Y-71093803D01*
X76505583Y-71163394D01*
X76517712Y-71168794D01*
X76611112Y-71188647D01*
X76698056Y-71207128D01*
X76698061Y-71207128D01*
X76704513Y-71208500D01*
X76895487Y-71208500D01*
X76901939Y-71207128D01*
X76901944Y-71207128D01*
X76988888Y-71188647D01*
X77082288Y-71168794D01*
X77094417Y-71163394D01*
X77250722Y-71093803D01*
X77250724Y-71093802D01*
X77256752Y-71091118D01*
X77302100Y-71058171D01*
X77354027Y-71020443D01*
X77411253Y-70978866D01*
X77420322Y-70968794D01*
X77514397Y-70864313D01*
X77574843Y-70827073D01*
X77645827Y-70828425D01*
X77682094Y-70846687D01*
X77729815Y-70881358D01*
X77743248Y-70891118D01*
X77749276Y-70893802D01*
X77749278Y-70893803D01*
X77911681Y-70966109D01*
X77917712Y-70968794D01*
X77983365Y-70982749D01*
X78098056Y-71007128D01*
X78098061Y-71007128D01*
X78104513Y-71008500D01*
X78295487Y-71008500D01*
X78301939Y-71007128D01*
X78301944Y-71007128D01*
X78416635Y-70982749D01*
X78482288Y-70968794D01*
X78488319Y-70966109D01*
X78650722Y-70893803D01*
X78650724Y-70893802D01*
X78656752Y-70891118D01*
X78670186Y-70881358D01*
X78717906Y-70846687D01*
X78811253Y-70778866D01*
X78844757Y-70741656D01*
X78934621Y-70641852D01*
X78934622Y-70641851D01*
X78939040Y-70636944D01*
X79034527Y-70471556D01*
X79093542Y-70289928D01*
X79098720Y-70240667D01*
X79112814Y-70106565D01*
X79113504Y-70100000D01*
X79108970Y-70056857D01*
X79094232Y-69916635D01*
X79094232Y-69916633D01*
X79093542Y-69910072D01*
X79034527Y-69728444D01*
X78958926Y-69597499D01*
X78942188Y-69528505D01*
X78965408Y-69461413D01*
X79021215Y-69417526D01*
X79068045Y-69408500D01*
X80463244Y-69408500D01*
X80467330Y-69407962D01*
X80467331Y-69407962D01*
X80542467Y-69398070D01*
X80577324Y-69393481D01*
X80584951Y-69390322D01*
X80584954Y-69390321D01*
X80683221Y-69349617D01*
X80719268Y-69334686D01*
X80841157Y-69241157D01*
X80846186Y-69234604D01*
X80924324Y-69132771D01*
X80934686Y-69119267D01*
X80993481Y-68977324D01*
X81008500Y-68863244D01*
X81008500Y-68636756D01*
X80998797Y-68563051D01*
X80993481Y-68522676D01*
X80995026Y-68522473D01*
X80995026Y-68477527D01*
X80993481Y-68477324D01*
X81007962Y-68367331D01*
X81007962Y-68367330D01*
X81008500Y-68363244D01*
X81008500Y-68136756D01*
X80993481Y-68022676D01*
X80995026Y-68022473D01*
X80995026Y-67977527D01*
X80993481Y-67977324D01*
X81007962Y-67867331D01*
X81007962Y-67867330D01*
X81008500Y-67863244D01*
X81008500Y-67636756D01*
X81007219Y-67627022D01*
X80993481Y-67522676D01*
X80995026Y-67522473D01*
X80995026Y-67477527D01*
X80993481Y-67477324D01*
X81007962Y-67367331D01*
X81007962Y-67367330D01*
X81008500Y-67363244D01*
X81008500Y-67136756D01*
X81001446Y-67083172D01*
X80993481Y-67022676D01*
X80994766Y-67022507D01*
X80994765Y-66977427D01*
X80992994Y-66977194D01*
X81000792Y-66917960D01*
X80998581Y-66903778D01*
X80979216Y-66898217D01*
X80919263Y-66860189D01*
X80914033Y-66853816D01*
X80893229Y-66826704D01*
X80867628Y-66760484D01*
X80881892Y-66690935D01*
X80893229Y-66673295D01*
X80914103Y-66646092D01*
X80971442Y-66604225D01*
X80978567Y-66601901D01*
X80998813Y-66595956D01*
X81000842Y-66582417D01*
X80992994Y-66522806D01*
X80994765Y-66522573D01*
X80994766Y-66477493D01*
X80993481Y-66477324D01*
X81007962Y-66367331D01*
X81007962Y-66367330D01*
X81008500Y-66363244D01*
X81008500Y-66136756D01*
X81004629Y-66107349D01*
X80993481Y-66022676D01*
X80995026Y-66022473D01*
X80995026Y-65977527D01*
X80993481Y-65977324D01*
X81007962Y-65867331D01*
X81007962Y-65867330D01*
X81008500Y-65863244D01*
X81008500Y-65636756D01*
X80993481Y-65522676D01*
X80995026Y-65522473D01*
X80995026Y-65477527D01*
X80993481Y-65477324D01*
X81007962Y-65367331D01*
X81007962Y-65367330D01*
X81008500Y-65363244D01*
X81008500Y-65136756D01*
X80997203Y-65050946D01*
X81008142Y-64980797D01*
X81055271Y-64927699D01*
X81122125Y-64908500D01*
X82269290Y-64908500D01*
X82337411Y-64928502D01*
X82362926Y-64950189D01*
X82388747Y-64978866D01*
X82543248Y-65091118D01*
X82549276Y-65093802D01*
X82549278Y-65093803D01*
X82645753Y-65136756D01*
X82717712Y-65168794D01*
X82811112Y-65188647D01*
X82898056Y-65207128D01*
X82898061Y-65207128D01*
X82904513Y-65208500D01*
X83095487Y-65208500D01*
X83101939Y-65207128D01*
X83101944Y-65207128D01*
X83188888Y-65188647D01*
X83282288Y-65168794D01*
X83354247Y-65136756D01*
X83450722Y-65093803D01*
X83450724Y-65093802D01*
X83456752Y-65091118D01*
X83611253Y-64978866D01*
X83637074Y-64950189D01*
X83734621Y-64841852D01*
X83734622Y-64841851D01*
X83739040Y-64836944D01*
X83834527Y-64671556D01*
X83893542Y-64489928D01*
X83894846Y-64477527D01*
X83912814Y-64306565D01*
X83913504Y-64300000D01*
X83904078Y-64210316D01*
X83894232Y-64116635D01*
X83894232Y-64116633D01*
X83893542Y-64110072D01*
X83834527Y-63928444D01*
X83739040Y-63763056D01*
X83701447Y-63721304D01*
X83615675Y-63626045D01*
X83615674Y-63626044D01*
X83611253Y-63621134D01*
X83475738Y-63522676D01*
X83462094Y-63512763D01*
X83462093Y-63512762D01*
X83456752Y-63508882D01*
X83450724Y-63506198D01*
X83450722Y-63506197D01*
X83288319Y-63433891D01*
X83288318Y-63433891D01*
X83282288Y-63431206D01*
X83188887Y-63411353D01*
X83101944Y-63392872D01*
X83101939Y-63392872D01*
X83095487Y-63391500D01*
X82904513Y-63391500D01*
X82898061Y-63392872D01*
X82898056Y-63392872D01*
X82811113Y-63411353D01*
X82717712Y-63431206D01*
X82711682Y-63433891D01*
X82711681Y-63433891D01*
X82549278Y-63506197D01*
X82549276Y-63506198D01*
X82543248Y-63508882D01*
X82537907Y-63512762D01*
X82537906Y-63512763D01*
X82462656Y-63567436D01*
X82395789Y-63591294D01*
X82388595Y-63591500D01*
X81126000Y-63591500D01*
X81057879Y-63571498D01*
X81011386Y-63517842D01*
X81000000Y-63465500D01*
X81000000Y-63436066D01*
X81001078Y-63419620D01*
X81007962Y-63367331D01*
X81007962Y-63367330D01*
X81008500Y-63363244D01*
X81008500Y-63136756D01*
X81001078Y-63080380D01*
X81000000Y-63063934D01*
X81000000Y-62936066D01*
X81001078Y-62919620D01*
X81007962Y-62867331D01*
X81007962Y-62867330D01*
X81008500Y-62863244D01*
X81008500Y-62636756D01*
X81000000Y-62572192D01*
X81000000Y-62427808D01*
X81007962Y-62367331D01*
X81007962Y-62367330D01*
X81008500Y-62363244D01*
X81008500Y-62136756D01*
X81000000Y-62072192D01*
X81000000Y-61927808D01*
X81007962Y-61867331D01*
X81007962Y-61867330D01*
X81008500Y-61863244D01*
X81008500Y-61636756D01*
X81000000Y-61572192D01*
X81000000Y-61427808D01*
X81007962Y-61367331D01*
X81007962Y-61367330D01*
X81008500Y-61363244D01*
X81008500Y-61136756D01*
X81000000Y-61072192D01*
X81000000Y-60127807D01*
X81006519Y-60177324D01*
X81009678Y-60184951D01*
X81009679Y-60184954D01*
X81027404Y-60227746D01*
X81065314Y-60319268D01*
X81158843Y-60441157D01*
X81165393Y-60446183D01*
X81165394Y-60446184D01*
X81165526Y-60446285D01*
X81280733Y-60534686D01*
X81422676Y-60593481D01*
X81478208Y-60600792D01*
X81532669Y-60607962D01*
X81532670Y-60607962D01*
X81536756Y-60608500D01*
X81763244Y-60608500D01*
X81767330Y-60607962D01*
X81767331Y-60607962D01*
X81877324Y-60593481D01*
X81877493Y-60594766D01*
X81922573Y-60594765D01*
X81922806Y-60592994D01*
X81982040Y-60600792D01*
X81996222Y-60598581D01*
X82001783Y-60579216D01*
X82039811Y-60519263D01*
X82046184Y-60514033D01*
X82073296Y-60493229D01*
X82139516Y-60467628D01*
X82209065Y-60481892D01*
X82226705Y-60493229D01*
X82253908Y-60514103D01*
X82295775Y-60571442D01*
X82298099Y-60578567D01*
X82304044Y-60598813D01*
X82317583Y-60600842D01*
X82377194Y-60592994D01*
X82377427Y-60594765D01*
X82422507Y-60594766D01*
X82422676Y-60593481D01*
X82532669Y-60607962D01*
X82532670Y-60607962D01*
X82536756Y-60608500D01*
X82763244Y-60608500D01*
X82767330Y-60607962D01*
X82767331Y-60607962D01*
X82877324Y-60593481D01*
X82877527Y-60595026D01*
X82922473Y-60595026D01*
X82922676Y-60593481D01*
X83032669Y-60607962D01*
X83032670Y-60607962D01*
X83036756Y-60608500D01*
X83263244Y-60608500D01*
X83267330Y-60607962D01*
X83267331Y-60607962D01*
X83377324Y-60593481D01*
X83377527Y-60595026D01*
X83422473Y-60595026D01*
X83422676Y-60593481D01*
X83532669Y-60607962D01*
X83532670Y-60607962D01*
X83536756Y-60608500D01*
X83763244Y-60608500D01*
X83767330Y-60607962D01*
X83767331Y-60607962D01*
X83877324Y-60593481D01*
X83877527Y-60595026D01*
X83922473Y-60595026D01*
X83922676Y-60593481D01*
X84032669Y-60607962D01*
X84032670Y-60607962D01*
X84036756Y-60608500D01*
X84263244Y-60608500D01*
X84267330Y-60607962D01*
X84267331Y-60607962D01*
X84377324Y-60593481D01*
X84377527Y-60595026D01*
X84422473Y-60595026D01*
X84422676Y-60593481D01*
X84532669Y-60607962D01*
X84532670Y-60607962D01*
X84536756Y-60608500D01*
X84763244Y-60608500D01*
X84767330Y-60607962D01*
X84767331Y-60607962D01*
X84877324Y-60593481D01*
X84877527Y-60595026D01*
X84922473Y-60595026D01*
X84922676Y-60593481D01*
X85032669Y-60607962D01*
X85032670Y-60607962D01*
X85036756Y-60608500D01*
X85263244Y-60608500D01*
X85267330Y-60607962D01*
X85267331Y-60607962D01*
X85377324Y-60593481D01*
X85377527Y-60595026D01*
X85422473Y-60595026D01*
X85422676Y-60593481D01*
X85532669Y-60607962D01*
X85532670Y-60607962D01*
X85536756Y-60608500D01*
X85763244Y-60608500D01*
X85767330Y-60607962D01*
X85767331Y-60607962D01*
X85877324Y-60593481D01*
X85877527Y-60595026D01*
X85922473Y-60595026D01*
X85922676Y-60593481D01*
X86032669Y-60607962D01*
X86032670Y-60607962D01*
X86036756Y-60608500D01*
X86263244Y-60608500D01*
X86267330Y-60607962D01*
X86267331Y-60607962D01*
X86377324Y-60593481D01*
X86377527Y-60595026D01*
X86422473Y-60595026D01*
X86422676Y-60593481D01*
X86532669Y-60607962D01*
X86532670Y-60607962D01*
X86536756Y-60608500D01*
X86763244Y-60608500D01*
X86767330Y-60607962D01*
X86767331Y-60607962D01*
X86877324Y-60593481D01*
X86877527Y-60595026D01*
X86922473Y-60595026D01*
X86922676Y-60593481D01*
X87032669Y-60607962D01*
X87032670Y-60607962D01*
X87036756Y-60608500D01*
X87263244Y-60608500D01*
X87267330Y-60607962D01*
X87267331Y-60607962D01*
X87377324Y-60593481D01*
X87377527Y-60595026D01*
X87422473Y-60595026D01*
X87422676Y-60593481D01*
X87532669Y-60607962D01*
X87532670Y-60607962D01*
X87536756Y-60608500D01*
X87763244Y-60608500D01*
X87767330Y-60607962D01*
X87767331Y-60607962D01*
X87877324Y-60593481D01*
X87877527Y-60595026D01*
X87922473Y-60595026D01*
X87922676Y-60593481D01*
X88032669Y-60607962D01*
X88032670Y-60607962D01*
X88036756Y-60608500D01*
X88263244Y-60608500D01*
X88267330Y-60607962D01*
X88267331Y-60607962D01*
X88377324Y-60593481D01*
X88377527Y-60595026D01*
X88422473Y-60595026D01*
X88422676Y-60593481D01*
X88532669Y-60607962D01*
X88532670Y-60607962D01*
X88536756Y-60608500D01*
X88763244Y-60608500D01*
X88767330Y-60607962D01*
X88767331Y-60607962D01*
X88877324Y-60593481D01*
X88877527Y-60595026D01*
X88922473Y-60595026D01*
X88922676Y-60593481D01*
X89032669Y-60607962D01*
X89032670Y-60607962D01*
X89036756Y-60608500D01*
X89263244Y-60608500D01*
X89267330Y-60607962D01*
X89267331Y-60607962D01*
X89321792Y-60600792D01*
X89377324Y-60593481D01*
X89384951Y-60590322D01*
X89384954Y-60590321D01*
X89461776Y-60558500D01*
X89519268Y-60534686D01*
X89641157Y-60441157D01*
X89646186Y-60434604D01*
X89699610Y-60364979D01*
X89734686Y-60319267D01*
X89793481Y-60177324D01*
X89808500Y-60063244D01*
X89808500Y-60059120D01*
X89808549Y-60058372D01*
X89832962Y-59991705D01*
X89889542Y-59948819D01*
X89899126Y-59945613D01*
X89930990Y-59936356D01*
X89930991Y-59936356D01*
X89938600Y-59934145D01*
X89957065Y-59923225D01*
X89974805Y-59914534D01*
X89994756Y-59906635D01*
X90032129Y-59879482D01*
X90042048Y-59872967D01*
X90074977Y-59853493D01*
X90074981Y-59853490D01*
X90081807Y-59849453D01*
X90096971Y-59834289D01*
X90112005Y-59821448D01*
X90122943Y-59813501D01*
X90129357Y-59808841D01*
X90158803Y-59773247D01*
X90166792Y-59764468D01*
X90266405Y-59664855D01*
X90328717Y-59630829D01*
X90399532Y-59635894D01*
X90456368Y-59678441D01*
X90481179Y-59744961D01*
X90481500Y-59753950D01*
X90481500Y-59785339D01*
X90465915Y-59846040D01*
X90461818Y-59853493D01*
X90457876Y-59860663D01*
X90452541Y-59881441D01*
X90446142Y-59900131D01*
X90437620Y-59919824D01*
X90433028Y-59948819D01*
X90430394Y-59965448D01*
X90427987Y-59977071D01*
X90416500Y-60021812D01*
X90416500Y-60043259D01*
X90414949Y-60062969D01*
X90411594Y-60084152D01*
X90412734Y-60096206D01*
X90415941Y-60130138D01*
X90416500Y-60141996D01*
X90416500Y-60470503D01*
X90396498Y-60538624D01*
X90342842Y-60585117D01*
X90306949Y-60595424D01*
X90222676Y-60606519D01*
X90215049Y-60609678D01*
X90215046Y-60609679D01*
X90151704Y-60635917D01*
X90080732Y-60665314D01*
X89958843Y-60758843D01*
X89953817Y-60765393D01*
X89953816Y-60765394D01*
X89933534Y-60791826D01*
X89865314Y-60880733D01*
X89806519Y-61022676D01*
X89791500Y-61136756D01*
X89791500Y-61363244D01*
X89792038Y-61367330D01*
X89792038Y-61367331D01*
X89806519Y-61477324D01*
X89804974Y-61477527D01*
X89804974Y-61522473D01*
X89806519Y-61522676D01*
X89791500Y-61636756D01*
X89791500Y-61863244D01*
X89792038Y-61867330D01*
X89792038Y-61867331D01*
X89806519Y-61977324D01*
X89804974Y-61977527D01*
X89804974Y-62022473D01*
X89806519Y-62022676D01*
X89791500Y-62136756D01*
X89791500Y-62363244D01*
X89792038Y-62367330D01*
X89792038Y-62367331D01*
X89806519Y-62477324D01*
X89804974Y-62477527D01*
X89804974Y-62522473D01*
X89806519Y-62522676D01*
X89791500Y-62636756D01*
X89791500Y-62863244D01*
X89792038Y-62867330D01*
X89792038Y-62867331D01*
X89806519Y-62977324D01*
X89804974Y-62977527D01*
X89804974Y-63022473D01*
X89806519Y-63022676D01*
X89803356Y-63046705D01*
X89791500Y-63136756D01*
X89791500Y-63363244D01*
X89792038Y-63367330D01*
X89792038Y-63367331D01*
X89806519Y-63477324D01*
X89804974Y-63477527D01*
X89804974Y-63522473D01*
X89806519Y-63522676D01*
X89791500Y-63636756D01*
X89791500Y-63863244D01*
X89792038Y-63867330D01*
X89792038Y-63867331D01*
X89806519Y-63977324D01*
X89804974Y-63977527D01*
X89804974Y-64022473D01*
X89806519Y-64022676D01*
X89791500Y-64136756D01*
X89791500Y-64363244D01*
X89792038Y-64367330D01*
X89792038Y-64367331D01*
X89806519Y-64477324D01*
X89804974Y-64477527D01*
X89804974Y-64522473D01*
X89806519Y-64522676D01*
X89791500Y-64636756D01*
X89791500Y-64863244D01*
X89792038Y-64867330D01*
X89792038Y-64867331D01*
X89806519Y-64977324D01*
X89804974Y-64977527D01*
X89804974Y-65022473D01*
X89806519Y-65022676D01*
X89791500Y-65136756D01*
X89791500Y-65363244D01*
X89792038Y-65367330D01*
X89792038Y-65367331D01*
X89806519Y-65477324D01*
X89804974Y-65477527D01*
X89804974Y-65522473D01*
X89806519Y-65522676D01*
X89791500Y-65636756D01*
X89791500Y-65863244D01*
X89792038Y-65867330D01*
X89792038Y-65867331D01*
X89806519Y-65977324D01*
X89804974Y-65977527D01*
X89804974Y-66022473D01*
X89806519Y-66022676D01*
X89795372Y-66107349D01*
X89791500Y-66136756D01*
X89791500Y-66363244D01*
X89792038Y-66367330D01*
X89792038Y-66367331D01*
X89806519Y-66477324D01*
X89804974Y-66477527D01*
X89804974Y-66522473D01*
X89806519Y-66522676D01*
X89791500Y-66636756D01*
X89791500Y-66863244D01*
X89792038Y-66867330D01*
X89792038Y-66867331D01*
X89806519Y-66977324D01*
X89804974Y-66977527D01*
X89804974Y-67022473D01*
X89806519Y-67022676D01*
X89798555Y-67083172D01*
X89791500Y-67136756D01*
X89791500Y-67363244D01*
X89792038Y-67367330D01*
X89792038Y-67367331D01*
X89806519Y-67477324D01*
X89804974Y-67477527D01*
X89804974Y-67522473D01*
X89806519Y-67522676D01*
X89792782Y-67627022D01*
X89791500Y-67636756D01*
X89791500Y-67863244D01*
X89792038Y-67867330D01*
X89792038Y-67867331D01*
X89806519Y-67977324D01*
X89804974Y-67977527D01*
X89804974Y-68022473D01*
X89806519Y-68022676D01*
X89791500Y-68136756D01*
X89791500Y-68363244D01*
X89792038Y-68367330D01*
X89792038Y-68367331D01*
X89806519Y-68477324D01*
X89804974Y-68477527D01*
X89804974Y-68522473D01*
X89806519Y-68522676D01*
X89801204Y-68563051D01*
X89791500Y-68636756D01*
X89791500Y-68863244D01*
X89806519Y-68977324D01*
X89809678Y-68984951D01*
X89809679Y-68984954D01*
X89826963Y-69026681D01*
X89865314Y-69119268D01*
X89958843Y-69241157D01*
X89965393Y-69246183D01*
X89965394Y-69246184D01*
X90019788Y-69287921D01*
X90080733Y-69334686D01*
X90222676Y-69393481D01*
X90257533Y-69398070D01*
X90332669Y-69407962D01*
X90332670Y-69407962D01*
X90336756Y-69408500D01*
X92296993Y-69408500D01*
X92365114Y-69428502D01*
X92411607Y-69482158D01*
X92421711Y-69552432D01*
X92404769Y-69599771D01*
X92328923Y-69725008D01*
X92322715Y-69738757D01*
X92275744Y-69888644D01*
X92273131Y-69901694D01*
X92267266Y-69965521D01*
X92267000Y-69971309D01*
X92267000Y-70027885D01*
X92271475Y-70043124D01*
X92272865Y-70044329D01*
X92280548Y-70046000D01*
X93303000Y-70046000D01*
X93371121Y-70066002D01*
X93417614Y-70119658D01*
X93429000Y-70172000D01*
X93429000Y-71264884D01*
X93433475Y-71280123D01*
X93434865Y-71281328D01*
X93439294Y-71282291D01*
X93498315Y-71276868D01*
X93511351Y-71274257D01*
X93661243Y-71227285D01*
X93674988Y-71221079D01*
X93808574Y-71140176D01*
X93820443Y-71130869D01*
X93910551Y-71040761D01*
X93972863Y-71006735D01*
X94043678Y-71011800D01*
X94088741Y-71040761D01*
X94184619Y-71136639D01*
X94331301Y-71225472D01*
X94338548Y-71227743D01*
X94338550Y-71227744D01*
X94363249Y-71235484D01*
X94494938Y-71276753D01*
X94568365Y-71283500D01*
X94571263Y-71283500D01*
X94825665Y-71283499D01*
X95081634Y-71283499D01*
X95084492Y-71283236D01*
X95084501Y-71283236D01*
X95120004Y-71279974D01*
X95155062Y-71276753D01*
X95161447Y-71274752D01*
X95311450Y-71227744D01*
X95311452Y-71227743D01*
X95318699Y-71225472D01*
X95465381Y-71136639D01*
X95586639Y-71015381D01*
X95675472Y-70868699D01*
X95683886Y-70841852D01*
X95718657Y-70730896D01*
X95726753Y-70705062D01*
X95733500Y-70631635D01*
X95733500Y-70300000D01*
X95733499Y-69971249D01*
X95733499Y-69968366D01*
X95731339Y-69944849D01*
X95728720Y-69916351D01*
X95726753Y-69894938D01*
X95713618Y-69853023D01*
X95677744Y-69738550D01*
X95677743Y-69738548D01*
X95675472Y-69731301D01*
X95586639Y-69584619D01*
X95581263Y-69579243D01*
X95576581Y-69573272D01*
X95578098Y-69572082D01*
X95548879Y-69518573D01*
X95546000Y-69491790D01*
X95546000Y-69396585D01*
X95566002Y-69328464D01*
X95573119Y-69318492D01*
X95575692Y-69315234D01*
X95580864Y-69310053D01*
X95669849Y-69165692D01*
X95687778Y-69111638D01*
X95721072Y-69011262D01*
X95721072Y-69011260D01*
X95723238Y-69004731D01*
X95733500Y-68904572D01*
X95733500Y-68295428D01*
X95722978Y-68194018D01*
X95669308Y-68033151D01*
X95580071Y-67888945D01*
X95460053Y-67769136D01*
X95315692Y-67680151D01*
X95241210Y-67655446D01*
X95161262Y-67628928D01*
X95161260Y-67628928D01*
X95154731Y-67626762D01*
X95054572Y-67616500D01*
X94520428Y-67616500D01*
X94517182Y-67616837D01*
X94517178Y-67616837D01*
X94484083Y-67620271D01*
X94419018Y-67627022D01*
X94258151Y-67680692D01*
X94113945Y-67769929D01*
X94089113Y-67794805D01*
X94026832Y-67828884D01*
X93956012Y-67823882D01*
X93910922Y-67794960D01*
X93890233Y-67774307D01*
X93885053Y-67769136D01*
X93740692Y-67680151D01*
X93666210Y-67655446D01*
X93586262Y-67628928D01*
X93586260Y-67628928D01*
X93579731Y-67626762D01*
X93479572Y-67616500D01*
X92945428Y-67616500D01*
X92942182Y-67616837D01*
X92942178Y-67616837D01*
X92909083Y-67620271D01*
X92844018Y-67627022D01*
X92683151Y-67680692D01*
X92611514Y-67725022D01*
X92550803Y-67762591D01*
X92482351Y-67781428D01*
X92414581Y-67760267D01*
X92369010Y-67705826D01*
X92358500Y-67655446D01*
X92358500Y-67636756D01*
X92357219Y-67627022D01*
X92343481Y-67522676D01*
X92345026Y-67522473D01*
X92345026Y-67477527D01*
X92343481Y-67477324D01*
X92357962Y-67367331D01*
X92357962Y-67367330D01*
X92358500Y-67363244D01*
X92358500Y-67136756D01*
X92351446Y-67083172D01*
X92343481Y-67022676D01*
X92345026Y-67022473D01*
X92345026Y-66977527D01*
X92343481Y-66977324D01*
X92357962Y-66867331D01*
X92357962Y-66867330D01*
X92358500Y-66863244D01*
X92358500Y-66636756D01*
X92343481Y-66522676D01*
X92345026Y-66522473D01*
X92345026Y-66477527D01*
X92343481Y-66477324D01*
X92357962Y-66367331D01*
X92357962Y-66367330D01*
X92358500Y-66363244D01*
X92358500Y-66136756D01*
X92354629Y-66107349D01*
X92343481Y-66022676D01*
X92345026Y-66022473D01*
X92345026Y-65977527D01*
X92343481Y-65977324D01*
X92357962Y-65867331D01*
X92357962Y-65867330D01*
X92358500Y-65863244D01*
X92358500Y-65636756D01*
X92343481Y-65522676D01*
X92345026Y-65522473D01*
X92345026Y-65477527D01*
X92343481Y-65477324D01*
X92357962Y-65367331D01*
X92357962Y-65367330D01*
X92358500Y-65363244D01*
X92358500Y-65136756D01*
X92347203Y-65050946D01*
X92358142Y-64980797D01*
X92405271Y-64927699D01*
X92472125Y-64908500D01*
X99825050Y-64908500D01*
X99893171Y-64928502D01*
X99914145Y-64945405D01*
X106604595Y-71635854D01*
X106638621Y-71698166D01*
X106641500Y-71724949D01*
X106641500Y-72998134D01*
X106648255Y-73060316D01*
X106699385Y-73196705D01*
X106786739Y-73313261D01*
X106903295Y-73400615D01*
X107039684Y-73451745D01*
X107101866Y-73458500D01*
X108898134Y-73458500D01*
X108960316Y-73451745D01*
X109096705Y-73400615D01*
X109213261Y-73313261D01*
X109300615Y-73196705D01*
X109351745Y-73060316D01*
X109358500Y-72998134D01*
X109358500Y-71201866D01*
X109351745Y-71139684D01*
X109300615Y-71003295D01*
X109213261Y-70886739D01*
X109096705Y-70799385D01*
X109028871Y-70773955D01*
X108978203Y-70754960D01*
X108921439Y-70712318D01*
X108896739Y-70645756D01*
X108911947Y-70576408D01*
X108933493Y-70547727D01*
X109034435Y-70447137D01*
X109038096Y-70443489D01*
X109043118Y-70436501D01*
X109165435Y-70266277D01*
X109168453Y-70262077D01*
X109179035Y-70240667D01*
X109265136Y-70066453D01*
X109265137Y-70066451D01*
X109267430Y-70061811D01*
X109306041Y-69934729D01*
X109330865Y-69853023D01*
X109330865Y-69853021D01*
X109332370Y-69848069D01*
X109361529Y-69626590D01*
X109362406Y-69590692D01*
X109363074Y-69563365D01*
X109363074Y-69563361D01*
X109363156Y-69560000D01*
X109344852Y-69337361D01*
X109290431Y-69120702D01*
X109201354Y-68915840D01*
X109080014Y-68728277D01*
X108929670Y-68563051D01*
X108925619Y-68559852D01*
X108925615Y-68559848D01*
X108758414Y-68427800D01*
X108758410Y-68427798D01*
X108754359Y-68424598D01*
X108558789Y-68316638D01*
X108553920Y-68314914D01*
X108553916Y-68314912D01*
X108353087Y-68243795D01*
X108353083Y-68243794D01*
X108348212Y-68242069D01*
X108343119Y-68241162D01*
X108343116Y-68241161D01*
X108133373Y-68203800D01*
X108133367Y-68203799D01*
X108128284Y-68202894D01*
X108054452Y-68201992D01*
X107910081Y-68200228D01*
X107910079Y-68200228D01*
X107904911Y-68200165D01*
X107684091Y-68233955D01*
X107683928Y-68232891D01*
X107618329Y-68229488D01*
X107570948Y-68199688D01*
X102713655Y-63342395D01*
X102705665Y-63333615D01*
X102705663Y-63333613D01*
X102701416Y-63326920D01*
X102649742Y-63278395D01*
X102646901Y-63275641D01*
X102626333Y-63255073D01*
X102622826Y-63252353D01*
X102613804Y-63244647D01*
X102585913Y-63218456D01*
X102580133Y-63213028D01*
X102573181Y-63209206D01*
X102561342Y-63202697D01*
X102544818Y-63191843D01*
X102534132Y-63183555D01*
X102527868Y-63178696D01*
X102520596Y-63175549D01*
X102520594Y-63175548D01*
X102485465Y-63160346D01*
X102474805Y-63155124D01*
X102441284Y-63136695D01*
X102441282Y-63136694D01*
X102434337Y-63132876D01*
X102413559Y-63127541D01*
X102394869Y-63121142D01*
X102375176Y-63112620D01*
X102329552Y-63105394D01*
X102317929Y-63102987D01*
X102282278Y-63093834D01*
X102273188Y-63091500D01*
X102251741Y-63091500D01*
X102232031Y-63089949D01*
X102218677Y-63087834D01*
X102210848Y-63086594D01*
X102164859Y-63090941D01*
X102153004Y-63091500D01*
X97971287Y-63091500D01*
X97903166Y-63071498D01*
X97856673Y-63017842D01*
X97846569Y-62947568D01*
X97876063Y-62882988D01*
X97907147Y-62857047D01*
X97922059Y-62848228D01*
X97939805Y-62839534D01*
X97959756Y-62831635D01*
X97997129Y-62804482D01*
X98007048Y-62797967D01*
X98039977Y-62778493D01*
X98039981Y-62778490D01*
X98046807Y-62774453D01*
X98061971Y-62759289D01*
X98077005Y-62746448D01*
X98087943Y-62738501D01*
X98094357Y-62733841D01*
X98123803Y-62698247D01*
X98131792Y-62689468D01*
X102265855Y-58555405D01*
X102328167Y-58521379D01*
X102354950Y-58518500D01*
X103498134Y-58518500D01*
X103560316Y-58511745D01*
X103696705Y-58460615D01*
X103813261Y-58373261D01*
X103900615Y-58256705D01*
X103951745Y-58120316D01*
X103958500Y-58058134D01*
X104441500Y-58058134D01*
X104448255Y-58120316D01*
X104499385Y-58256705D01*
X104586739Y-58373261D01*
X104703295Y-58460615D01*
X104839684Y-58511745D01*
X104901866Y-58518500D01*
X105315500Y-58518500D01*
X105383621Y-58538502D01*
X105430114Y-58592158D01*
X105441500Y-58644500D01*
X105441500Y-58863001D01*
X105424619Y-58926000D01*
X105365473Y-59028444D01*
X105306458Y-59210072D01*
X105305768Y-59216633D01*
X105305768Y-59216635D01*
X105287186Y-59393435D01*
X105286496Y-59400000D01*
X105287186Y-59406565D01*
X105301016Y-59538146D01*
X105306458Y-59589928D01*
X105365473Y-59771556D01*
X105368776Y-59777278D01*
X105368777Y-59777279D01*
X105389492Y-59813158D01*
X105460960Y-59936944D01*
X105465378Y-59941851D01*
X105465379Y-59941852D01*
X105486625Y-59965448D01*
X105588747Y-60078866D01*
X105656108Y-60127807D01*
X105734763Y-60184953D01*
X105743248Y-60191118D01*
X105749276Y-60193802D01*
X105749278Y-60193803D01*
X105778596Y-60206856D01*
X105917712Y-60268794D01*
X106011113Y-60288647D01*
X106098056Y-60307128D01*
X106098061Y-60307128D01*
X106104513Y-60308500D01*
X106295487Y-60308500D01*
X106301939Y-60307128D01*
X106301944Y-60307128D01*
X106388887Y-60288647D01*
X106482288Y-60268794D01*
X106621404Y-60206856D01*
X106650722Y-60193803D01*
X106650724Y-60193802D01*
X106656752Y-60191118D01*
X106665238Y-60184953D01*
X106743892Y-60127807D01*
X106811253Y-60078866D01*
X106913375Y-59965448D01*
X106934621Y-59941852D01*
X106934622Y-59941851D01*
X106939040Y-59936944D01*
X107010508Y-59813158D01*
X107031223Y-59777279D01*
X107031224Y-59777278D01*
X107034527Y-59771556D01*
X107093542Y-59589928D01*
X107098985Y-59538146D01*
X107112814Y-59406565D01*
X107113504Y-59400000D01*
X107112814Y-59393435D01*
X107094232Y-59216635D01*
X107094232Y-59216633D01*
X107093542Y-59210072D01*
X107034527Y-59028444D01*
X107013990Y-58992872D01*
X106997314Y-58963990D01*
X106939040Y-58863056D01*
X106890864Y-58809551D01*
X106860146Y-58745544D01*
X106858500Y-58725241D01*
X106858500Y-58644500D01*
X106878502Y-58576379D01*
X106932158Y-58529886D01*
X106984500Y-58518500D01*
X107398134Y-58518500D01*
X107460316Y-58511745D01*
X107596705Y-58460615D01*
X107713261Y-58373261D01*
X107800615Y-58256705D01*
X107851745Y-58120316D01*
X107858500Y-58058134D01*
X107858500Y-57221866D01*
X107851745Y-57159684D01*
X107848973Y-57152288D01*
X107848971Y-57152282D01*
X107810071Y-57048517D01*
X107804888Y-56977710D01*
X107810071Y-56960059D01*
X107848478Y-56857609D01*
X107852105Y-56842351D01*
X107857631Y-56791486D01*
X107858000Y-56784672D01*
X107858000Y-56642115D01*
X107853525Y-56626876D01*
X107852135Y-56625671D01*
X107844452Y-56624000D01*
X104460116Y-56624000D01*
X104444877Y-56628475D01*
X104443672Y-56629865D01*
X104442001Y-56637548D01*
X104442001Y-56784669D01*
X104442371Y-56791490D01*
X104447895Y-56842352D01*
X104451522Y-56857607D01*
X104489929Y-56960059D01*
X104495112Y-57030866D01*
X104489929Y-57048517D01*
X104451029Y-57152282D01*
X104451027Y-57152288D01*
X104448255Y-57159684D01*
X104441500Y-57221866D01*
X104441500Y-58058134D01*
X103958500Y-58058134D01*
X103958500Y-57221866D01*
X103951745Y-57159684D01*
X103948973Y-57152288D01*
X103948971Y-57152282D01*
X103910338Y-57049229D01*
X103905155Y-56978422D01*
X103910338Y-56960771D01*
X103948971Y-56857718D01*
X103948973Y-56857712D01*
X103951745Y-56850316D01*
X103958500Y-56788134D01*
X103958500Y-56097885D01*
X104442000Y-56097885D01*
X104446475Y-56113124D01*
X104447865Y-56114329D01*
X104455548Y-56116000D01*
X105877885Y-56116000D01*
X105893124Y-56111525D01*
X105894329Y-56110135D01*
X105896000Y-56102452D01*
X105896000Y-56097885D01*
X106404000Y-56097885D01*
X106408475Y-56113124D01*
X106409865Y-56114329D01*
X106417548Y-56116000D01*
X107839884Y-56116000D01*
X107855123Y-56111525D01*
X107856328Y-56110135D01*
X107857999Y-56102452D01*
X107857999Y-55955331D01*
X107857629Y-55948510D01*
X107852105Y-55897648D01*
X107848478Y-55882394D01*
X107809804Y-55779229D01*
X107804621Y-55708422D01*
X107809804Y-55690771D01*
X107848478Y-55587609D01*
X107852105Y-55572351D01*
X107857631Y-55521486D01*
X107858000Y-55514672D01*
X107858000Y-55372115D01*
X107853525Y-55356876D01*
X107852135Y-55355671D01*
X107844452Y-55354000D01*
X106422115Y-55354000D01*
X106406876Y-55358475D01*
X106405671Y-55359865D01*
X106404000Y-55367548D01*
X106404000Y-56097885D01*
X105896000Y-56097885D01*
X105896000Y-55372115D01*
X105891525Y-55356876D01*
X105890135Y-55355671D01*
X105882452Y-55354000D01*
X104460116Y-55354000D01*
X104444877Y-55358475D01*
X104443672Y-55359865D01*
X104442001Y-55367548D01*
X104442001Y-55514669D01*
X104442371Y-55521490D01*
X104447895Y-55572352D01*
X104451522Y-55587606D01*
X104490196Y-55690771D01*
X104495379Y-55761578D01*
X104490196Y-55779229D01*
X104451522Y-55882391D01*
X104447895Y-55897649D01*
X104442369Y-55948514D01*
X104442000Y-55955328D01*
X104442000Y-56097885D01*
X103958500Y-56097885D01*
X103958500Y-55951866D01*
X103951745Y-55889684D01*
X103948973Y-55882288D01*
X103948971Y-55882282D01*
X103910338Y-55779229D01*
X103905155Y-55708422D01*
X103910338Y-55690771D01*
X103948971Y-55587718D01*
X103948973Y-55587712D01*
X103951745Y-55580316D01*
X103958500Y-55518134D01*
X103958500Y-54681866D01*
X103951745Y-54619684D01*
X103948973Y-54612288D01*
X103948971Y-54612282D01*
X103910338Y-54509229D01*
X103905155Y-54438422D01*
X103910338Y-54420771D01*
X103948971Y-54317718D01*
X103948973Y-54317712D01*
X103951745Y-54310316D01*
X103958500Y-54248134D01*
X104441500Y-54248134D01*
X104448255Y-54310316D01*
X104451027Y-54317712D01*
X104451029Y-54317718D01*
X104489929Y-54421483D01*
X104495112Y-54492290D01*
X104489929Y-54509941D01*
X104451522Y-54612391D01*
X104447895Y-54627649D01*
X104442369Y-54678514D01*
X104442000Y-54685328D01*
X104442000Y-54827885D01*
X104446475Y-54843124D01*
X104447865Y-54844329D01*
X104455548Y-54846000D01*
X107839884Y-54846000D01*
X107855123Y-54841525D01*
X107856328Y-54840135D01*
X107857999Y-54832452D01*
X107857999Y-54685331D01*
X107857629Y-54678510D01*
X107852105Y-54627648D01*
X107848478Y-54612393D01*
X107810071Y-54509941D01*
X107804888Y-54439134D01*
X107810071Y-54421483D01*
X107848971Y-54317718D01*
X107848973Y-54317712D01*
X107851745Y-54310316D01*
X107858500Y-54248134D01*
X107858500Y-53411866D01*
X107851745Y-53349684D01*
X107848973Y-53342288D01*
X107848971Y-53342282D01*
X107810071Y-53238517D01*
X107804888Y-53167710D01*
X107810071Y-53150059D01*
X107848478Y-53047609D01*
X107852105Y-53032351D01*
X107857631Y-52981486D01*
X107858000Y-52974672D01*
X107858000Y-52832115D01*
X107853525Y-52816876D01*
X107852135Y-52815671D01*
X107844452Y-52814000D01*
X104460116Y-52814000D01*
X104444877Y-52818475D01*
X104443672Y-52819865D01*
X104442001Y-52827548D01*
X104442001Y-52974669D01*
X104442371Y-52981490D01*
X104447895Y-53032352D01*
X104451522Y-53047607D01*
X104489929Y-53150059D01*
X104495112Y-53220866D01*
X104489929Y-53238517D01*
X104451029Y-53342282D01*
X104451027Y-53342288D01*
X104448255Y-53349684D01*
X104441500Y-53411866D01*
X104441500Y-54248134D01*
X103958500Y-54248134D01*
X103958500Y-53411866D01*
X103951745Y-53349684D01*
X103948973Y-53342288D01*
X103948971Y-53342282D01*
X103910338Y-53239229D01*
X103905155Y-53168422D01*
X103910338Y-53150771D01*
X103948971Y-53047718D01*
X103948973Y-53047712D01*
X103951745Y-53040316D01*
X103958500Y-52978134D01*
X103958500Y-52287885D01*
X104442000Y-52287885D01*
X104446475Y-52303124D01*
X104447865Y-52304329D01*
X104455548Y-52306000D01*
X105877885Y-52306000D01*
X105893124Y-52301525D01*
X105894329Y-52300135D01*
X105896000Y-52292452D01*
X105896000Y-52287885D01*
X106404000Y-52287885D01*
X106408475Y-52303124D01*
X106409865Y-52304329D01*
X106417548Y-52306000D01*
X107839884Y-52306000D01*
X107855123Y-52301525D01*
X107856328Y-52300135D01*
X107857999Y-52292452D01*
X107857999Y-52145331D01*
X107857629Y-52138510D01*
X107852105Y-52087648D01*
X107848479Y-52072396D01*
X107803324Y-51951946D01*
X107794786Y-51936351D01*
X107718285Y-51834276D01*
X107705724Y-51821715D01*
X107603649Y-51745214D01*
X107588054Y-51736676D01*
X107467606Y-51691522D01*
X107452351Y-51687895D01*
X107401486Y-51682369D01*
X107394672Y-51682000D01*
X106422115Y-51682000D01*
X106406876Y-51686475D01*
X106405671Y-51687865D01*
X106404000Y-51695548D01*
X106404000Y-52287885D01*
X105896000Y-52287885D01*
X105896000Y-51700116D01*
X105891525Y-51684877D01*
X105890135Y-51683672D01*
X105882452Y-51682001D01*
X104905331Y-51682001D01*
X104898510Y-51682371D01*
X104847648Y-51687895D01*
X104832396Y-51691521D01*
X104711946Y-51736676D01*
X104696351Y-51745214D01*
X104594276Y-51821715D01*
X104581715Y-51834276D01*
X104505214Y-51936351D01*
X104496676Y-51951946D01*
X104451522Y-52072394D01*
X104447895Y-52087649D01*
X104442369Y-52138514D01*
X104442000Y-52145328D01*
X104442000Y-52287885D01*
X103958500Y-52287885D01*
X103958500Y-52141866D01*
X103951745Y-52079684D01*
X103900615Y-51943295D01*
X103813261Y-51826739D01*
X103696705Y-51739385D01*
X103560316Y-51688255D01*
X103498134Y-51681500D01*
X101001866Y-51681500D01*
X100939684Y-51688255D01*
X100803295Y-51739385D01*
X100686739Y-51826739D01*
X100681091Y-51834276D01*
X100668509Y-51851064D01*
X100611650Y-51893580D01*
X100567682Y-51901500D01*
X99625169Y-51901500D01*
X99557048Y-51881498D01*
X99551108Y-51877436D01*
X99462094Y-51812763D01*
X99462093Y-51812762D01*
X99456752Y-51808882D01*
X99450724Y-51806198D01*
X99450722Y-51806197D01*
X99288319Y-51733891D01*
X99288318Y-51733891D01*
X99282288Y-51731206D01*
X99188887Y-51711353D01*
X99101944Y-51692872D01*
X99101939Y-51692872D01*
X99095487Y-51691500D01*
X98904513Y-51691500D01*
X98898061Y-51692872D01*
X98898056Y-51692872D01*
X98811113Y-51711353D01*
X98717712Y-51731206D01*
X98711682Y-51733891D01*
X98711681Y-51733891D01*
X98549278Y-51806197D01*
X98549276Y-51806198D01*
X98543248Y-51808882D01*
X98388747Y-51921134D01*
X98384326Y-51926044D01*
X98384325Y-51926045D01*
X98274615Y-52047891D01*
X98260960Y-52063056D01*
X98165473Y-52228444D01*
X98106458Y-52410072D01*
X98086496Y-52600000D01*
X98106458Y-52789928D01*
X98165473Y-52971556D01*
X98260960Y-53136944D01*
X98265378Y-53141851D01*
X98265379Y-53141852D01*
X98338217Y-53222747D01*
X98388747Y-53278866D01*
X98543248Y-53391118D01*
X98549276Y-53393802D01*
X98549278Y-53393803D01*
X98706495Y-53463800D01*
X98717712Y-53468794D01*
X98811112Y-53488647D01*
X98898056Y-53507128D01*
X98898061Y-53507128D01*
X98904513Y-53508500D01*
X99095487Y-53508500D01*
X99101939Y-53507128D01*
X99101944Y-53507128D01*
X99188888Y-53488647D01*
X99282288Y-53468794D01*
X99293505Y-53463800D01*
X99450722Y-53393803D01*
X99450724Y-53393802D01*
X99456752Y-53391118D01*
X99484283Y-53371116D01*
X99600546Y-53286645D01*
X99611253Y-53278866D01*
X99628070Y-53260189D01*
X99688516Y-53222950D01*
X99721706Y-53218500D01*
X100422077Y-53218500D01*
X100490198Y-53238502D01*
X100536691Y-53292158D01*
X100547340Y-53358108D01*
X100541500Y-53411866D01*
X100541500Y-54248134D01*
X100541869Y-54251531D01*
X100547340Y-54301892D01*
X100534812Y-54371775D01*
X100486491Y-54423790D01*
X100422077Y-54441500D01*
X93274953Y-54441500D01*
X93263097Y-54440941D01*
X93255357Y-54439211D01*
X93247431Y-54439460D01*
X93247430Y-54439460D01*
X93184505Y-54441438D01*
X93180547Y-54441500D01*
X93151462Y-54441500D01*
X93147531Y-54441997D01*
X93147524Y-54441997D01*
X93147073Y-54442054D01*
X93135237Y-54442986D01*
X93089063Y-54444438D01*
X93068473Y-54450420D01*
X93049112Y-54454430D01*
X93042124Y-54455312D01*
X93035690Y-54456125D01*
X93035689Y-54456125D01*
X93027830Y-54457118D01*
X93020465Y-54460034D01*
X93020461Y-54460035D01*
X92984873Y-54474126D01*
X92973663Y-54477965D01*
X92929294Y-54490855D01*
X92910829Y-54501775D01*
X92893089Y-54510466D01*
X92873138Y-54518365D01*
X92835768Y-54545516D01*
X92825846Y-54552033D01*
X92792917Y-54571507D01*
X92792913Y-54571510D01*
X92786087Y-54575547D01*
X92770923Y-54590711D01*
X92755890Y-54603551D01*
X92738537Y-54616159D01*
X92729032Y-54627649D01*
X92709092Y-54651752D01*
X92701102Y-54660532D01*
X90757039Y-56604595D01*
X90694727Y-56638621D01*
X90667944Y-56641500D01*
X87381015Y-56641500D01*
X87369159Y-56640941D01*
X87369156Y-56640941D01*
X87361422Y-56639212D01*
X87306405Y-56640941D01*
X87290590Y-56641438D01*
X87286632Y-56641500D01*
X87257527Y-56641500D01*
X87253127Y-56642056D01*
X87241295Y-56642988D01*
X87195128Y-56644438D01*
X87174538Y-56650420D01*
X87155177Y-56654430D01*
X87148189Y-56655312D01*
X87141755Y-56656125D01*
X87141754Y-56656125D01*
X87133895Y-56657118D01*
X87126530Y-56660034D01*
X87126526Y-56660035D01*
X87090938Y-56674126D01*
X87079728Y-56677965D01*
X87035359Y-56690855D01*
X87016902Y-56701771D01*
X86999152Y-56710466D01*
X86979203Y-56718365D01*
X86972792Y-56723023D01*
X86972790Y-56723024D01*
X86941823Y-56745523D01*
X86931905Y-56752038D01*
X86892152Y-56775548D01*
X86876991Y-56790709D01*
X86861959Y-56803548D01*
X86844602Y-56816159D01*
X86816262Y-56850417D01*
X86815153Y-56851757D01*
X86807163Y-56860537D01*
X86565236Y-57102464D01*
X86502924Y-57136490D01*
X86432109Y-57131425D01*
X86375273Y-57088878D01*
X86350700Y-57025223D01*
X86349059Y-57007858D01*
X86348500Y-56996004D01*
X86348500Y-55452095D01*
X86368502Y-55383974D01*
X86422158Y-55337481D01*
X86484388Y-55326484D01*
X86507533Y-55328306D01*
X86507559Y-55328307D01*
X86510011Y-55328500D01*
X86709878Y-55328500D01*
X86909988Y-55328499D01*
X86946466Y-55325629D01*
X87043624Y-55297402D01*
X87094983Y-55282481D01*
X87094985Y-55282480D01*
X87102596Y-55280269D01*
X87162575Y-55244798D01*
X87235720Y-55201540D01*
X87242541Y-55197506D01*
X87357506Y-55082541D01*
X87361540Y-55075720D01*
X87436234Y-54949419D01*
X87436234Y-54949418D01*
X87440269Y-54942596D01*
X87442480Y-54934985D01*
X87442481Y-54934983D01*
X87483834Y-54792644D01*
X87485629Y-54786466D01*
X87488500Y-54749989D01*
X87488499Y-54250012D01*
X87485629Y-54213534D01*
X87450897Y-54093986D01*
X87451100Y-54022990D01*
X87462775Y-53995833D01*
X87531223Y-53877279D01*
X87531224Y-53877278D01*
X87534527Y-53871556D01*
X87593542Y-53689928D01*
X87605700Y-53574256D01*
X87612814Y-53506565D01*
X87613504Y-53500000D01*
X87603540Y-53405196D01*
X87594232Y-53316635D01*
X87594232Y-53316633D01*
X87593542Y-53310072D01*
X87534527Y-53128444D01*
X87439040Y-52963056D01*
X87410749Y-52931635D01*
X87315675Y-52826045D01*
X87315674Y-52826044D01*
X87311253Y-52821134D01*
X87156752Y-52708882D01*
X87150724Y-52706198D01*
X87150722Y-52706197D01*
X86988319Y-52633891D01*
X86988318Y-52633891D01*
X86982288Y-52631206D01*
X86866362Y-52606565D01*
X86801944Y-52592872D01*
X86801939Y-52592872D01*
X86795487Y-52591500D01*
X86604513Y-52591500D01*
X86598061Y-52592872D01*
X86598056Y-52592872D01*
X86533638Y-52606565D01*
X86417712Y-52631206D01*
X86411682Y-52633891D01*
X86411681Y-52633891D01*
X86249278Y-52706197D01*
X86249276Y-52706198D01*
X86243248Y-52708882D01*
X86237907Y-52712762D01*
X86237906Y-52712763D01*
X86158561Y-52770411D01*
X86091693Y-52794269D01*
X86022542Y-52778189D01*
X85973062Y-52727275D01*
X85958500Y-52668475D01*
X85958500Y-48456837D01*
X102108703Y-48456837D01*
X102108752Y-48457529D01*
X102114198Y-48465693D01*
X102191849Y-48538231D01*
X102196088Y-48541852D01*
X102529383Y-48801782D01*
X102533940Y-48805021D01*
X102889029Y-49034299D01*
X102893831Y-49037105D01*
X103267897Y-49233910D01*
X103272955Y-49236290D01*
X103663016Y-49399057D01*
X103668271Y-49400980D01*
X104071257Y-49528427D01*
X104076656Y-49529874D01*
X104489377Y-49620994D01*
X104494888Y-49621956D01*
X104914082Y-49676029D01*
X104919645Y-49676496D01*
X105341986Y-49693089D01*
X105347578Y-49693060D01*
X105769706Y-49672045D01*
X105775289Y-49671517D01*
X106193886Y-49613059D01*
X106199373Y-49612042D01*
X106611124Y-49516604D01*
X106616510Y-49515100D01*
X107018148Y-49383437D01*
X107023365Y-49381465D01*
X107411707Y-49214621D01*
X107416750Y-49212183D01*
X107788712Y-49011482D01*
X107793516Y-49008607D01*
X108146144Y-48775650D01*
X108150707Y-48772335D01*
X108481239Y-48508948D01*
X108485454Y-48505271D01*
X108523404Y-48469068D01*
X108531344Y-48455309D01*
X108531294Y-48454262D01*
X108526403Y-48446451D01*
X108126088Y-48046136D01*
X107240791Y-47160838D01*
X106714703Y-46634751D01*
X105332393Y-45252441D01*
X105318449Y-45244827D01*
X105316616Y-45244958D01*
X105310001Y-45249209D01*
X103924460Y-46634750D01*
X103039162Y-47520047D01*
X102513075Y-48046135D01*
X102116317Y-48442893D01*
X102108703Y-48456837D01*
X85958500Y-48456837D01*
X85958500Y-44757244D01*
X100508436Y-44757244D01*
X100516181Y-45179829D01*
X100516531Y-45185395D01*
X100561812Y-45605627D01*
X100562659Y-45611165D01*
X100645116Y-46025705D01*
X100646445Y-46031117D01*
X100765433Y-46436708D01*
X100767239Y-46441983D01*
X100921800Y-46835367D01*
X100924082Y-46840491D01*
X101112997Y-47218569D01*
X101115721Y-47223462D01*
X101337498Y-47583252D01*
X101340649Y-47587888D01*
X101593536Y-47926546D01*
X101597069Y-47930863D01*
X101732803Y-48082407D01*
X101746298Y-48090770D01*
X101755709Y-48085081D01*
X102153864Y-47686926D01*
X103039162Y-46801629D01*
X103081825Y-46758966D01*
X103565249Y-46275541D01*
X104947559Y-44893231D01*
X104955173Y-44879287D01*
X104955042Y-44877454D01*
X104950791Y-44870839D01*
X103565250Y-43485298D01*
X102679953Y-42600000D01*
X102153865Y-42073913D01*
X101755142Y-41675190D01*
X101741834Y-41667923D01*
X101731795Y-41675045D01*
X101487804Y-41968413D01*
X101484409Y-41972886D01*
X101244109Y-42320571D01*
X101241130Y-42325321D01*
X101032687Y-42692994D01*
X101030143Y-42697987D01*
X100855210Y-43082731D01*
X100853119Y-43087930D01*
X100713079Y-43486709D01*
X100711458Y-43492078D01*
X100607421Y-43901722D01*
X100606287Y-43907195D01*
X100539077Y-44324473D01*
X100538432Y-44330051D01*
X100508583Y-44751623D01*
X100508436Y-44757244D01*
X85958500Y-44757244D01*
X85958500Y-43824089D01*
X85978502Y-43755968D01*
X86032158Y-43709475D01*
X86048292Y-43703404D01*
X86101027Y-43687582D01*
X86162384Y-43669174D01*
X86167034Y-43666896D01*
X86167039Y-43666894D01*
X86358346Y-43573173D01*
X86362994Y-43570896D01*
X86544860Y-43441173D01*
X86555844Y-43430228D01*
X86688400Y-43298134D01*
X86703096Y-43283489D01*
X86833453Y-43102077D01*
X86843015Y-43082731D01*
X86930136Y-42906453D01*
X86930137Y-42906451D01*
X86932430Y-42901811D01*
X86997370Y-42688069D01*
X87026529Y-42466590D01*
X87028156Y-42400000D01*
X87009852Y-42177361D01*
X86955431Y-41960702D01*
X86866354Y-41755840D01*
X86745014Y-41568277D01*
X86594670Y-41403051D01*
X86590619Y-41399852D01*
X86590615Y-41399848D01*
X86423414Y-41267800D01*
X86423410Y-41267798D01*
X86419359Y-41264598D01*
X86383028Y-41244542D01*
X86367136Y-41235769D01*
X86223789Y-41156638D01*
X86218920Y-41154914D01*
X86218916Y-41154912D01*
X86018087Y-41083795D01*
X86018083Y-41083794D01*
X86013212Y-41082069D01*
X86008119Y-41081162D01*
X86008116Y-41081161D01*
X85798373Y-41043800D01*
X85798367Y-41043799D01*
X85793284Y-41042894D01*
X85719452Y-41041992D01*
X85575081Y-41040228D01*
X85575079Y-41040228D01*
X85569911Y-41040165D01*
X85349091Y-41073955D01*
X85136756Y-41143357D01*
X84938607Y-41246507D01*
X84934474Y-41249610D01*
X84934471Y-41249612D01*
X84764100Y-41377530D01*
X84759965Y-41380635D01*
X84681252Y-41463004D01*
X84679283Y-41465064D01*
X84617759Y-41500494D01*
X84546846Y-41497037D01*
X84489060Y-41455791D01*
X84470207Y-41422243D01*
X84428767Y-41311703D01*
X84425615Y-41303295D01*
X84338261Y-41186739D01*
X84221705Y-41099385D01*
X84085316Y-41048255D01*
X84023134Y-41041500D01*
X82226866Y-41041500D01*
X82164684Y-41048255D01*
X82028295Y-41099385D01*
X81911739Y-41186739D01*
X81824385Y-41303295D01*
X81773255Y-41439684D01*
X81766500Y-41501866D01*
X81766500Y-43298134D01*
X81773255Y-43360316D01*
X81824385Y-43496705D01*
X81911739Y-43613261D01*
X82028295Y-43700615D01*
X82164684Y-43751745D01*
X82226866Y-43758500D01*
X82338840Y-43758500D01*
X82406961Y-43778502D01*
X82453454Y-43832158D01*
X82464778Y-43880542D01*
X82465615Y-43907195D01*
X82466438Y-43933370D01*
X82466500Y-43937327D01*
X82466500Y-43966432D01*
X82467056Y-43970832D01*
X82467988Y-43982664D01*
X82469438Y-44028831D01*
X82471650Y-44036444D01*
X82471650Y-44036445D01*
X82475419Y-44049416D01*
X82479430Y-44068782D01*
X82482118Y-44090064D01*
X82485034Y-44097429D01*
X82485035Y-44097433D01*
X82499126Y-44133021D01*
X82502965Y-44144231D01*
X82515855Y-44188600D01*
X82526775Y-44207065D01*
X82535466Y-44224805D01*
X82543365Y-44244756D01*
X82564736Y-44274171D01*
X82570516Y-44282126D01*
X82577033Y-44292048D01*
X82596507Y-44324977D01*
X82596510Y-44324981D01*
X82600547Y-44331807D01*
X82615711Y-44346971D01*
X82628551Y-44362004D01*
X82641159Y-44379357D01*
X82676435Y-44408540D01*
X82676752Y-44408802D01*
X82685532Y-44416792D01*
X84004595Y-45735854D01*
X84038620Y-45798166D01*
X84041500Y-45824949D01*
X84041500Y-52510238D01*
X84021498Y-52578359D01*
X83967842Y-52624852D01*
X83897568Y-52634956D01*
X83883214Y-52631618D01*
X83882288Y-52631206D01*
X83852395Y-52624852D01*
X83701944Y-52592872D01*
X83701939Y-52592872D01*
X83695487Y-52591500D01*
X83504513Y-52591500D01*
X83498061Y-52592872D01*
X83498056Y-52592872D01*
X83433638Y-52606565D01*
X83317712Y-52631206D01*
X83311682Y-52633891D01*
X83311681Y-52633891D01*
X83149278Y-52706197D01*
X83149276Y-52706198D01*
X83143248Y-52708882D01*
X82988747Y-52821134D01*
X82984326Y-52826044D01*
X82984325Y-52826045D01*
X82889252Y-52931635D01*
X82860960Y-52963056D01*
X82765473Y-53128444D01*
X82706458Y-53310072D01*
X82705768Y-53316633D01*
X82705768Y-53316635D01*
X82697355Y-53396682D01*
X82670342Y-53462339D01*
X82612120Y-53502969D01*
X82541175Y-53505672D01*
X82491730Y-53480597D01*
X82477462Y-53468794D01*
X82466675Y-53459870D01*
X82292701Y-53365802D01*
X82103768Y-53307318D01*
X82097643Y-53306674D01*
X82097642Y-53306674D01*
X81913204Y-53287289D01*
X81913202Y-53287289D01*
X81907075Y-53286645D01*
X81824576Y-53294153D01*
X81716251Y-53304011D01*
X81716248Y-53304012D01*
X81710112Y-53304570D01*
X81704206Y-53306308D01*
X81704202Y-53306309D01*
X81660749Y-53319098D01*
X81520381Y-53360410D01*
X81514923Y-53363263D01*
X81514919Y-53363265D01*
X81469066Y-53387237D01*
X81345110Y-53452040D01*
X81190975Y-53575968D01*
X81187011Y-53580692D01*
X81185669Y-53582291D01*
X81063846Y-53727474D01*
X81060879Y-53732872D01*
X81060875Y-53732877D01*
X81019048Y-53808962D01*
X80968567Y-53900787D01*
X80966706Y-53906654D01*
X80966705Y-53906656D01*
X80929802Y-54022990D01*
X80908765Y-54089306D01*
X80904776Y-54124871D01*
X80898485Y-54180953D01*
X80871014Y-54246420D01*
X80812510Y-54286642D01*
X80760100Y-54292218D01*
X80713204Y-54287289D01*
X80713202Y-54287289D01*
X80707075Y-54286645D01*
X80624576Y-54294153D01*
X80516251Y-54304011D01*
X80516248Y-54304012D01*
X80510112Y-54304570D01*
X80504206Y-54306308D01*
X80504202Y-54306309D01*
X80399076Y-54337249D01*
X80320381Y-54360410D01*
X80314923Y-54363263D01*
X80314919Y-54363265D01*
X80224147Y-54410720D01*
X80145110Y-54452040D01*
X79990975Y-54575968D01*
X79863846Y-54727474D01*
X79860879Y-54732872D01*
X79860875Y-54732877D01*
X79808645Y-54827885D01*
X79768567Y-54900787D01*
X79708765Y-55089306D01*
X79686719Y-55285851D01*
X79688191Y-55303376D01*
X79701960Y-55467351D01*
X79703268Y-55482934D01*
X79757783Y-55673050D01*
X79760602Y-55678535D01*
X79803281Y-55761578D01*
X79848187Y-55848956D01*
X79971035Y-56003953D01*
X80121650Y-56132136D01*
X80294294Y-56228624D01*
X80300154Y-56230528D01*
X80464436Y-56283906D01*
X80523042Y-56323979D01*
X80550679Y-56389376D01*
X80551500Y-56403739D01*
X80551500Y-56726496D01*
X80531498Y-56794617D01*
X80477842Y-56841110D01*
X80460662Y-56847490D01*
X80453107Y-56849686D01*
X80450588Y-56850417D01*
X80431218Y-56854430D01*
X80409936Y-56857118D01*
X80402567Y-56860036D01*
X80399738Y-56860762D01*
X80328783Y-56858330D01*
X80270407Y-56817923D01*
X80248878Y-56778597D01*
X80220619Y-56693893D01*
X80214445Y-56680714D01*
X80132212Y-56547827D01*
X80123176Y-56536426D01*
X80012571Y-56426014D01*
X80001160Y-56417002D01*
X79868120Y-56334996D01*
X79854939Y-56328849D01*
X79706186Y-56279509D01*
X79692810Y-56276642D01*
X79601903Y-56267328D01*
X79595486Y-56267000D01*
X79572115Y-56267000D01*
X79556876Y-56271475D01*
X79555671Y-56272865D01*
X79554000Y-56280548D01*
X79554000Y-57353000D01*
X79533998Y-57421121D01*
X79480342Y-57467614D01*
X79428000Y-57479000D01*
X78335115Y-57479000D01*
X78319876Y-57483475D01*
X78318671Y-57484865D01*
X78317000Y-57492548D01*
X78317000Y-57495438D01*
X78317337Y-57501953D01*
X78326894Y-57594057D01*
X78329789Y-57607459D01*
X78352502Y-57675541D01*
X78355086Y-57746490D01*
X78318902Y-57807574D01*
X78255438Y-57839398D01*
X78195719Y-57835781D01*
X78143632Y-57819658D01*
X78103768Y-57807318D01*
X78097643Y-57806674D01*
X78097642Y-57806674D01*
X77913204Y-57787289D01*
X77913202Y-57787289D01*
X77907075Y-57786645D01*
X77824576Y-57794153D01*
X77716251Y-57804011D01*
X77716248Y-57804012D01*
X77710112Y-57804570D01*
X77704206Y-57806308D01*
X77704202Y-57806309D01*
X77633516Y-57827113D01*
X77520381Y-57860410D01*
X77514923Y-57863263D01*
X77514919Y-57863265D01*
X77439687Y-57902596D01*
X77345110Y-57952040D01*
X77190975Y-58075968D01*
X77063846Y-58227474D01*
X77060879Y-58232872D01*
X77060875Y-58232877D01*
X77014927Y-58316458D01*
X76968567Y-58400787D01*
X76966706Y-58406654D01*
X76966705Y-58406656D01*
X76962558Y-58419729D01*
X76908765Y-58589306D01*
X76886719Y-58785851D01*
X76887235Y-58791995D01*
X76899974Y-58943700D01*
X76903268Y-58982934D01*
X76917110Y-59031206D01*
X76954405Y-59161269D01*
X76957783Y-59173050D01*
X76960602Y-59178535D01*
X77001363Y-59257846D01*
X77048187Y-59348956D01*
X77052010Y-59353780D01*
X77052013Y-59353784D01*
X77076310Y-59384439D01*
X77102947Y-59450249D01*
X77093554Y-59500000D01*
X68355460Y-59500000D01*
X68457846Y-59446018D01*
X68467516Y-59438188D01*
X68606757Y-59325432D01*
X68606758Y-59325431D01*
X68611547Y-59321553D01*
X68625211Y-59305153D01*
X68734205Y-59174335D01*
X68734208Y-59174330D01*
X68738146Y-59169604D01*
X68832821Y-58995959D01*
X68891964Y-58807231D01*
X68892630Y-58801104D01*
X68912659Y-58616736D01*
X68912659Y-58616732D01*
X68913324Y-58610611D01*
X68896087Y-58413587D01*
X68840909Y-58223663D01*
X68749892Y-58048074D01*
X68694214Y-57978328D01*
X68655459Y-57929780D01*
X68655456Y-57929777D01*
X68653261Y-57927027D01*
X68509556Y-57783322D01*
X68475530Y-57721010D01*
X68480595Y-57650195D01*
X68519009Y-57596589D01*
X68526071Y-57590828D01*
X68532921Y-57585242D01*
X68533773Y-57584554D01*
X68572973Y-57553262D01*
X68575477Y-57550758D01*
X68576195Y-57550116D01*
X68580528Y-57546415D01*
X68614062Y-57519065D01*
X68643294Y-57483730D01*
X68651271Y-57474964D01*
X69146140Y-56980094D01*
X69148309Y-56977925D01*
X69168679Y-56953126D01*
X78317071Y-56953126D01*
X78321475Y-56968124D01*
X78322865Y-56969329D01*
X78330548Y-56971000D01*
X79027885Y-56971000D01*
X79043124Y-56966525D01*
X79044329Y-56965135D01*
X79046000Y-56957452D01*
X79046000Y-56285115D01*
X79041525Y-56269876D01*
X79040135Y-56268671D01*
X79032452Y-56267000D01*
X79004562Y-56267000D01*
X78998047Y-56267337D01*
X78905943Y-56276894D01*
X78892544Y-56279788D01*
X78743893Y-56329381D01*
X78730714Y-56335555D01*
X78597827Y-56417788D01*
X78586426Y-56426824D01*
X78476014Y-56537429D01*
X78467002Y-56548840D01*
X78384996Y-56681880D01*
X78378849Y-56695061D01*
X78329509Y-56843814D01*
X78326642Y-56857190D01*
X78317328Y-56948097D01*
X78317071Y-56953126D01*
X69168679Y-56953126D01*
X69242103Y-56863739D01*
X69312197Y-56733015D01*
X69332650Y-56694870D01*
X69332651Y-56694869D01*
X69335563Y-56689437D01*
X69393388Y-56500302D01*
X69395969Y-56474888D01*
X69412752Y-56309666D01*
X69412752Y-56309661D01*
X69413374Y-56303538D01*
X69394762Y-56106638D01*
X69386230Y-56078016D01*
X69340019Y-55923008D01*
X69338259Y-55917104D01*
X69246018Y-55742153D01*
X69224548Y-55715639D01*
X69125432Y-55593242D01*
X69125431Y-55593241D01*
X69121553Y-55588452D01*
X69080181Y-55553982D01*
X68974335Y-55465794D01*
X68974330Y-55465791D01*
X68969604Y-55461853D01*
X68795959Y-55367178D01*
X68701195Y-55337481D01*
X68613114Y-55309878D01*
X68613111Y-55309877D01*
X68607232Y-55308035D01*
X68601109Y-55307370D01*
X68601105Y-55307369D01*
X68416737Y-55287341D01*
X68416733Y-55287341D01*
X68410612Y-55286676D01*
X68213587Y-55303913D01*
X68207670Y-55305632D01*
X68207665Y-55305633D01*
X68085651Y-55341082D01*
X68023664Y-55359091D01*
X68018197Y-55361925D01*
X67937837Y-55403579D01*
X67868153Y-55417170D01*
X67804287Y-55392540D01*
X67753892Y-55354771D01*
X67753890Y-55354770D01*
X67746705Y-55349385D01*
X67610316Y-55298255D01*
X67548134Y-55291500D01*
X66734500Y-55291500D01*
X66666379Y-55271498D01*
X66619886Y-55217842D01*
X66608500Y-55165500D01*
X66608500Y-54282426D01*
X66628502Y-54214305D01*
X66645404Y-54193331D01*
X67287179Y-53551555D01*
X67328792Y-53525830D01*
X67328277Y-53524730D01*
X67334910Y-53521623D01*
X67341849Y-53519308D01*
X67383660Y-53493435D01*
X67475441Y-53436639D01*
X67486055Y-53430071D01*
X67510887Y-53405195D01*
X67573168Y-53371116D01*
X67643988Y-53376118D01*
X67689078Y-53405040D01*
X67714947Y-53430864D01*
X67721177Y-53434704D01*
X67721178Y-53434705D01*
X67749301Y-53452040D01*
X67859308Y-53519849D01*
X67866256Y-53522154D01*
X67866257Y-53522154D01*
X68013738Y-53571072D01*
X68013740Y-53571072D01*
X68020269Y-53573238D01*
X68120428Y-53583500D01*
X68654572Y-53583500D01*
X68657818Y-53583163D01*
X68657822Y-53583163D01*
X68691603Y-53579658D01*
X68755982Y-53572978D01*
X68916849Y-53519308D01*
X69061055Y-53430071D01*
X69142810Y-53348174D01*
X69205091Y-53314095D01*
X69275911Y-53319098D01*
X69321077Y-53348097D01*
X69409619Y-53436639D01*
X69556301Y-53525472D01*
X69563548Y-53527743D01*
X69563550Y-53527744D01*
X69629836Y-53548517D01*
X69719938Y-53576753D01*
X69793365Y-53583500D01*
X69796263Y-53583500D01*
X70050665Y-53583499D01*
X70306634Y-53583499D01*
X70309492Y-53583236D01*
X70309501Y-53583236D01*
X70345004Y-53579974D01*
X70380062Y-53576753D01*
X70388030Y-53574256D01*
X70536450Y-53527744D01*
X70536452Y-53527743D01*
X70543699Y-53525472D01*
X70690381Y-53436639D01*
X70786259Y-53340761D01*
X70848571Y-53306735D01*
X70919386Y-53311800D01*
X70964449Y-53340761D01*
X71054557Y-53430869D01*
X71066426Y-53440176D01*
X71200012Y-53521079D01*
X71213757Y-53527285D01*
X71363644Y-53574256D01*
X71376694Y-53576869D01*
X71431586Y-53581913D01*
X71443124Y-53578525D01*
X71444329Y-53577135D01*
X71446000Y-53569452D01*
X71446000Y-53564884D01*
X71954000Y-53564884D01*
X71958475Y-53580123D01*
X71959865Y-53581328D01*
X71964294Y-53582291D01*
X72023315Y-53576868D01*
X72036351Y-53574257D01*
X72186243Y-53527285D01*
X72199988Y-53521079D01*
X72333574Y-53440176D01*
X72345443Y-53430869D01*
X72455869Y-53320443D01*
X72465176Y-53308574D01*
X72546079Y-53174988D01*
X72552285Y-53161243D01*
X72599256Y-53011356D01*
X72601869Y-52998306D01*
X72607734Y-52934479D01*
X72608000Y-52928691D01*
X72608000Y-52872115D01*
X72603525Y-52856876D01*
X72602135Y-52855671D01*
X72594452Y-52854000D01*
X71972115Y-52854000D01*
X71956876Y-52858475D01*
X71955671Y-52859865D01*
X71954000Y-52867548D01*
X71954000Y-53564884D01*
X71446000Y-53564884D01*
X71446000Y-52327885D01*
X71954000Y-52327885D01*
X71958475Y-52343124D01*
X71959865Y-52344329D01*
X71967548Y-52346000D01*
X72589884Y-52346000D01*
X72605123Y-52341525D01*
X72606328Y-52340135D01*
X72607999Y-52332452D01*
X72607999Y-52271295D01*
X72607736Y-52265546D01*
X72601868Y-52201685D01*
X72599257Y-52188649D01*
X72552285Y-52038757D01*
X72546079Y-52025012D01*
X72465176Y-51891426D01*
X72455869Y-51879557D01*
X72345443Y-51769131D01*
X72333574Y-51759824D01*
X72199988Y-51678921D01*
X72186243Y-51672715D01*
X72036356Y-51625744D01*
X72023306Y-51623131D01*
X71968414Y-51618087D01*
X71956876Y-51621475D01*
X71955671Y-51622865D01*
X71954000Y-51630548D01*
X71954000Y-52327885D01*
X71446000Y-52327885D01*
X71446000Y-51635116D01*
X71441525Y-51619877D01*
X71440135Y-51618672D01*
X71435706Y-51617709D01*
X71376685Y-51623132D01*
X71363649Y-51625743D01*
X71213757Y-51672715D01*
X71200012Y-51678921D01*
X71066426Y-51759824D01*
X71054557Y-51769131D01*
X70964449Y-51859239D01*
X70902137Y-51893265D01*
X70831322Y-51888200D01*
X70786259Y-51859239D01*
X70690381Y-51763361D01*
X70543699Y-51674528D01*
X70536452Y-51672257D01*
X70536450Y-51672256D01*
X70470164Y-51651483D01*
X70380062Y-51623247D01*
X70306635Y-51616500D01*
X70303737Y-51616500D01*
X70049335Y-51616501D01*
X69793366Y-51616501D01*
X69790508Y-51616764D01*
X69790499Y-51616764D01*
X69756619Y-51619877D01*
X69719938Y-51623247D01*
X69713560Y-51625246D01*
X69713559Y-51625246D01*
X69563550Y-51672256D01*
X69563548Y-51672257D01*
X69556301Y-51674528D01*
X69409619Y-51763361D01*
X69321116Y-51851864D01*
X69258804Y-51885890D01*
X69187989Y-51880825D01*
X69143003Y-51851942D01*
X69142124Y-51851064D01*
X69060053Y-51769136D01*
X68915692Y-51680151D01*
X68908743Y-51677846D01*
X68761262Y-51628928D01*
X68761260Y-51628928D01*
X68754731Y-51626762D01*
X68654572Y-51616500D01*
X68120428Y-51616500D01*
X68117182Y-51616837D01*
X68117178Y-51616837D01*
X68099494Y-51618672D01*
X68019018Y-51627022D01*
X67858151Y-51680692D01*
X67713945Y-51769929D01*
X67689113Y-51794805D01*
X67626832Y-51828884D01*
X67556012Y-51823882D01*
X67510922Y-51794960D01*
X67490233Y-51774307D01*
X67485053Y-51769136D01*
X67340692Y-51680151D01*
X67333743Y-51677846D01*
X67186262Y-51628928D01*
X67186260Y-51628928D01*
X67179731Y-51626762D01*
X67079572Y-51616500D01*
X67066024Y-51616500D01*
X67028348Y-51610735D01*
X67019732Y-51608035D01*
X67013609Y-51607370D01*
X67013605Y-51607369D01*
X66829237Y-51587341D01*
X66829233Y-51587341D01*
X66823112Y-51586676D01*
X66626087Y-51603913D01*
X66620170Y-51605632D01*
X66620165Y-51605633D01*
X66605555Y-51609878D01*
X66602606Y-51610735D01*
X66599983Y-51611497D01*
X66564830Y-51616500D01*
X66545428Y-51616500D01*
X66542182Y-51616837D01*
X66542178Y-51616837D01*
X66524494Y-51618672D01*
X66444018Y-51627022D01*
X66283151Y-51680692D01*
X66138945Y-51769929D01*
X66019136Y-51889947D01*
X65930151Y-52034308D01*
X65927847Y-52041254D01*
X65924752Y-52047891D01*
X65923389Y-52047255D01*
X65898225Y-52088040D01*
X64994402Y-52991863D01*
X64984260Y-53000964D01*
X64890975Y-53075968D01*
X64763846Y-53227474D01*
X64760879Y-53232872D01*
X64760875Y-53232877D01*
X64712736Y-53320443D01*
X64668567Y-53400787D01*
X64666706Y-53406654D01*
X64666705Y-53406656D01*
X64610627Y-53583436D01*
X64608765Y-53589306D01*
X64591500Y-53743227D01*
X64591500Y-53754596D01*
X64590855Y-53767329D01*
X64586626Y-53808962D01*
X64587206Y-53815093D01*
X64590941Y-53854609D01*
X64591500Y-53866467D01*
X64591500Y-55165500D01*
X64571498Y-55233621D01*
X64517842Y-55280114D01*
X64465500Y-55291500D01*
X63651866Y-55291500D01*
X63589684Y-55298255D01*
X63453295Y-55349385D01*
X63336739Y-55436739D01*
X63315977Y-55464441D01*
X63259120Y-55506956D01*
X63188302Y-55511982D01*
X63155611Y-55499920D01*
X63094870Y-55467351D01*
X63094869Y-55467351D01*
X63089437Y-55464438D01*
X62928562Y-55415253D01*
X62906200Y-55408416D01*
X62906198Y-55408416D01*
X62900302Y-55406613D01*
X62842449Y-55400736D01*
X62709666Y-55387248D01*
X62709661Y-55387248D01*
X62703538Y-55386626D01*
X62579475Y-55398354D01*
X62512771Y-55404659D01*
X62512769Y-55404659D01*
X62506638Y-55405239D01*
X62466616Y-55417170D01*
X62323007Y-55459981D01*
X62323005Y-55459982D01*
X62317104Y-55461741D01*
X62142154Y-55553982D01*
X62137368Y-55557858D01*
X62137366Y-55557859D01*
X62099587Y-55588452D01*
X61988453Y-55678447D01*
X61975977Y-55693421D01*
X61876039Y-55813371D01*
X61861854Y-55830396D01*
X61767178Y-56004041D01*
X61708035Y-56192768D01*
X61707370Y-56198891D01*
X61707369Y-56198895D01*
X61692524Y-56335555D01*
X61686676Y-56389388D01*
X61703913Y-56586413D01*
X61705632Y-56592330D01*
X61705633Y-56592335D01*
X61733844Y-56689437D01*
X61759091Y-56776336D01*
X61850108Y-56951926D01*
X61870491Y-56977459D01*
X61944542Y-57070223D01*
X61944549Y-57070230D01*
X61946738Y-57072973D01*
X62343152Y-57469387D01*
X62352242Y-57479517D01*
X62375968Y-57509025D01*
X62414456Y-57541320D01*
X62418075Y-57544478D01*
X62419890Y-57546124D01*
X62422075Y-57548309D01*
X62424455Y-57550264D01*
X62424465Y-57550273D01*
X62455236Y-57575549D01*
X62456251Y-57576391D01*
X62477305Y-57594057D01*
X62527474Y-57636154D01*
X62532148Y-57638723D01*
X62536261Y-57642102D01*
X62609806Y-57681536D01*
X62618047Y-57685955D01*
X62619177Y-57686568D01*
X62659325Y-57708639D01*
X62681828Y-57721010D01*
X62700787Y-57731433D01*
X62700891Y-57731466D01*
X62754006Y-57775353D01*
X62775600Y-57842986D01*
X62757202Y-57911557D01*
X62738730Y-57935036D01*
X62651691Y-58022075D01*
X62649738Y-58024452D01*
X62649734Y-58024457D01*
X62630335Y-58048074D01*
X62557897Y-58136261D01*
X62464438Y-58310563D01*
X62406613Y-58499698D01*
X62405990Y-58505833D01*
X62389428Y-58668879D01*
X62386626Y-58696462D01*
X62405239Y-58893362D01*
X62406999Y-58899265D01*
X62448633Y-59038924D01*
X62461741Y-59082896D01*
X62553982Y-59257846D01*
X62557858Y-59262632D01*
X62557859Y-59262634D01*
X62643810Y-59368774D01*
X62678447Y-59411547D01*
X62683182Y-59415492D01*
X62784611Y-59500000D01*
X60908500Y-59500000D01*
X60908500Y-48776418D01*
X62589122Y-48776418D01*
X62589171Y-48777110D01*
X62594617Y-48785274D01*
X62672268Y-48857812D01*
X62676507Y-48861433D01*
X63009802Y-49121363D01*
X63014359Y-49124602D01*
X63369448Y-49353880D01*
X63374250Y-49356686D01*
X63748316Y-49553491D01*
X63753374Y-49555871D01*
X64143435Y-49718638D01*
X64148690Y-49720561D01*
X64551676Y-49848008D01*
X64557075Y-49849455D01*
X64969796Y-49940575D01*
X64975307Y-49941537D01*
X65394501Y-49995610D01*
X65400064Y-49996077D01*
X65822405Y-50012670D01*
X65827997Y-50012641D01*
X66250125Y-49991626D01*
X66255708Y-49991098D01*
X66674305Y-49932640D01*
X66679792Y-49931623D01*
X67091543Y-49836185D01*
X67096929Y-49834681D01*
X67498567Y-49703018D01*
X67503784Y-49701046D01*
X67892126Y-49534202D01*
X67897169Y-49531764D01*
X68269131Y-49331063D01*
X68273935Y-49328188D01*
X68626563Y-49095231D01*
X68631126Y-49091916D01*
X68961658Y-48828529D01*
X68965873Y-48824852D01*
X69003823Y-48788649D01*
X69011763Y-48774890D01*
X69011713Y-48773843D01*
X69006822Y-48766032D01*
X68606507Y-48365717D01*
X67721210Y-47480419D01*
X67195122Y-46954332D01*
X65812812Y-45572022D01*
X65798868Y-45564408D01*
X65797035Y-45564539D01*
X65790420Y-45568790D01*
X64404879Y-46954331D01*
X63519581Y-47839628D01*
X62993494Y-48365716D01*
X62596736Y-48762474D01*
X62589122Y-48776418D01*
X60908500Y-48776418D01*
X60908500Y-46483454D01*
X60928502Y-46415333D01*
X60982158Y-46368840D01*
X61052432Y-46358736D01*
X61117012Y-46388230D01*
X61155405Y-46447984D01*
X61245852Y-46756289D01*
X61247658Y-46761564D01*
X61402219Y-47154948D01*
X61404501Y-47160072D01*
X61593416Y-47538150D01*
X61596140Y-47543043D01*
X61817917Y-47902833D01*
X61821068Y-47907469D01*
X62073955Y-48246127D01*
X62077488Y-48250444D01*
X62213222Y-48401988D01*
X62226717Y-48410351D01*
X62236128Y-48404662D01*
X62634283Y-48006507D01*
X63519581Y-47121210D01*
X63529378Y-47111413D01*
X64045668Y-46595122D01*
X65439658Y-45201132D01*
X66164408Y-45201132D01*
X66164539Y-45202965D01*
X66168790Y-45209580D01*
X67554331Y-46595121D01*
X68070621Y-47111412D01*
X68080418Y-47121209D01*
X68965716Y-48006506D01*
X69362142Y-48402932D01*
X69375903Y-48410446D01*
X69385263Y-48403989D01*
X69554244Y-48211303D01*
X69557744Y-48206935D01*
X69807073Y-47865645D01*
X69810168Y-47860987D01*
X70028160Y-47498903D01*
X70030841Y-47493964D01*
X70215779Y-47113946D01*
X70218014Y-47108780D01*
X70368442Y-46713815D01*
X70370201Y-46708496D01*
X70484920Y-46301730D01*
X70486204Y-46296259D01*
X70564315Y-45880883D01*
X70565102Y-45875346D01*
X70606035Y-45454102D01*
X70606308Y-45449665D01*
X70612788Y-45202233D01*
X70612746Y-45197762D01*
X70593917Y-44774973D01*
X70593419Y-44769386D01*
X70537155Y-44350499D01*
X70536162Y-44344976D01*
X70442883Y-43932748D01*
X70441410Y-43927361D01*
X70311847Y-43525025D01*
X70309910Y-43519815D01*
X70145098Y-43130599D01*
X70142683Y-43125536D01*
X69943936Y-42752535D01*
X69941085Y-42747713D01*
X69888999Y-42667966D01*
X74403257Y-42667966D01*
X74433565Y-42802446D01*
X74436645Y-42812275D01*
X74516770Y-43009603D01*
X74521413Y-43018794D01*
X74632694Y-43200388D01*
X74638777Y-43208699D01*
X74778213Y-43369667D01*
X74785580Y-43376883D01*
X74949434Y-43512916D01*
X74957881Y-43518831D01*
X75141756Y-43626279D01*
X75151042Y-43630729D01*
X75350001Y-43706703D01*
X75359899Y-43709579D01*
X75463250Y-43730606D01*
X75477299Y-43729410D01*
X75481000Y-43719065D01*
X75481000Y-43718517D01*
X75989000Y-43718517D01*
X75993064Y-43732359D01*
X76006478Y-43734393D01*
X76013184Y-43733534D01*
X76023262Y-43731392D01*
X76227255Y-43670191D01*
X76236842Y-43666433D01*
X76428095Y-43572739D01*
X76436945Y-43567464D01*
X76610328Y-43443792D01*
X76618193Y-43437145D01*
X76722897Y-43332805D01*
X76785268Y-43298889D01*
X76856075Y-43304077D01*
X76912837Y-43346723D01*
X76929819Y-43377826D01*
X76947565Y-43425163D01*
X76974385Y-43496705D01*
X77061739Y-43613261D01*
X77178295Y-43700615D01*
X77314684Y-43751745D01*
X77376866Y-43758500D01*
X79173134Y-43758500D01*
X79235316Y-43751745D01*
X79371705Y-43700615D01*
X79488261Y-43613261D01*
X79575615Y-43496705D01*
X79626745Y-43360316D01*
X79633500Y-43298134D01*
X79633500Y-41501866D01*
X79626745Y-41439684D01*
X79575615Y-41303295D01*
X79488261Y-41186739D01*
X79371705Y-41099385D01*
X79235316Y-41048255D01*
X79173134Y-41041500D01*
X77376866Y-41041500D01*
X77314684Y-41048255D01*
X77178295Y-41099385D01*
X77061739Y-41186739D01*
X76974385Y-41303295D01*
X76971233Y-41311703D01*
X76971232Y-41311705D01*
X76929722Y-41422433D01*
X76887081Y-41479198D01*
X76820519Y-41503898D01*
X76751170Y-41488691D01*
X76718546Y-41463004D01*
X76667799Y-41407234D01*
X76660273Y-41400215D01*
X76493139Y-41268222D01*
X76484552Y-41262517D01*
X76298117Y-41159599D01*
X76288705Y-41155369D01*
X76087959Y-41084280D01*
X76077988Y-41081646D01*
X76006837Y-41068972D01*
X75993540Y-41070432D01*
X75989000Y-41084989D01*
X75989000Y-43718517D01*
X75481000Y-43718517D01*
X75481000Y-42672115D01*
X75476525Y-42656876D01*
X75475135Y-42655671D01*
X75467452Y-42654000D01*
X74418225Y-42654000D01*
X74404694Y-42657973D01*
X74403257Y-42667966D01*
X69888999Y-42667966D01*
X69709974Y-42393865D01*
X69706692Y-42389297D01*
X69505577Y-42134183D01*
X74399389Y-42134183D01*
X74400912Y-42142607D01*
X74413292Y-42146000D01*
X75462885Y-42146000D01*
X75478124Y-42141525D01*
X75479329Y-42140135D01*
X75481000Y-42132452D01*
X75481000Y-41083102D01*
X75477082Y-41069758D01*
X75462806Y-41067771D01*
X75424324Y-41073660D01*
X75414288Y-41076051D01*
X75211868Y-41142212D01*
X75202359Y-41146209D01*
X75013463Y-41244542D01*
X75004738Y-41250036D01*
X74834433Y-41377905D01*
X74826726Y-41384748D01*
X74679590Y-41538717D01*
X74673104Y-41546727D01*
X74553098Y-41722649D01*
X74548000Y-41731623D01*
X74458338Y-41924783D01*
X74454775Y-41934470D01*
X74399389Y-42134183D01*
X69505577Y-42134183D01*
X69445030Y-42057380D01*
X69441382Y-42053155D01*
X69388103Y-41996715D01*
X69374389Y-41988705D01*
X69373517Y-41988742D01*
X69365438Y-41993772D01*
X68965717Y-42393493D01*
X68080419Y-43278790D01*
X67554332Y-43804878D01*
X66172022Y-45187188D01*
X66164408Y-45201132D01*
X65439658Y-45201132D01*
X67195121Y-43445669D01*
X68080419Y-42560372D01*
X68140790Y-42500001D01*
X68606506Y-42034284D01*
X69002754Y-41638036D01*
X69010316Y-41624187D01*
X69003987Y-41614962D01*
X68830928Y-41461582D01*
X68826561Y-41458046D01*
X68486600Y-41206948D01*
X68481947Y-41203821D01*
X68120995Y-40983926D01*
X68116094Y-40981232D01*
X67737027Y-40794297D01*
X67731904Y-40792048D01*
X67337707Y-40639545D01*
X67332417Y-40637765D01*
X67046780Y-40555589D01*
X66986844Y-40517532D01*
X66956998Y-40453114D01*
X66966718Y-40382786D01*
X67012916Y-40328876D01*
X67081616Y-40308500D01*
X103178106Y-40308500D01*
X103246227Y-40328502D01*
G37*
%TD.AperFunction*%
%TA.AperFunction,Conductor*%
G36*
X63889701Y-85855256D02*
G01*
X63934763Y-85884216D01*
X64025274Y-85974726D01*
X64025275Y-85974727D01*
X64115784Y-86065237D01*
X64149809Y-86127549D01*
X64144743Y-86198365D01*
X64115783Y-86243428D01*
X63319581Y-87039629D01*
X62882589Y-87476622D01*
X62820277Y-87510647D01*
X62749461Y-87505582D01*
X62704399Y-87476622D01*
X62613888Y-87386112D01*
X62613887Y-87386111D01*
X62523378Y-87295601D01*
X62489353Y-87233289D01*
X62494419Y-87162473D01*
X62523379Y-87117410D01*
X63319581Y-86321209D01*
X63756573Y-85884216D01*
X63818885Y-85850191D01*
X63889701Y-85855256D01*
G37*
%TD.AperFunction*%
%TA.AperFunction,Conductor*%
G36*
X106998365Y-85855257D02*
G01*
X107043428Y-85884217D01*
X107480419Y-86321209D01*
X108276622Y-87117411D01*
X108310647Y-87179723D01*
X108305582Y-87250539D01*
X108276622Y-87295601D01*
X108186112Y-87386112D01*
X108186111Y-87386113D01*
X108095601Y-87476622D01*
X108033289Y-87510647D01*
X107962473Y-87505581D01*
X107917410Y-87476621D01*
X107121209Y-86680419D01*
X106684216Y-86243427D01*
X106650191Y-86181115D01*
X106655256Y-86110299D01*
X106684216Y-86065237D01*
X106774726Y-85974726D01*
X106774727Y-85974725D01*
X106865237Y-85884216D01*
X106927549Y-85850191D01*
X106998365Y-85855257D01*
G37*
%TD.AperFunction*%
%TA.AperFunction,Conductor*%
G36*
X78384457Y-64770002D02*
G01*
X78430950Y-64823658D01*
X78440947Y-64863317D01*
X78441500Y-64863244D01*
X78456519Y-64977324D01*
X78454974Y-64977527D01*
X78454974Y-65022473D01*
X78456519Y-65022676D01*
X78441500Y-65136756D01*
X78441500Y-65363244D01*
X78442038Y-65367330D01*
X78442038Y-65367331D01*
X78456519Y-65477324D01*
X78454974Y-65477527D01*
X78454974Y-65522473D01*
X78456519Y-65522676D01*
X78442039Y-65632669D01*
X78441842Y-65634162D01*
X78413120Y-65699089D01*
X78361794Y-65732944D01*
X78357091Y-65737581D01*
X78354000Y-65749513D01*
X78354000Y-66468318D01*
X78333998Y-66536439D01*
X78280342Y-66582932D01*
X78241766Y-66591961D01*
X78241923Y-66592949D01*
X78234093Y-66594189D01*
X78226169Y-66594438D01*
X78205579Y-66600420D01*
X78186218Y-66604430D01*
X78179230Y-66605312D01*
X78172796Y-66606125D01*
X78172795Y-66606125D01*
X78164936Y-66607118D01*
X78157571Y-66610034D01*
X78157567Y-66610035D01*
X78121979Y-66624126D01*
X78110769Y-66627965D01*
X78066400Y-66640855D01*
X78047935Y-66651775D01*
X78030195Y-66660466D01*
X78010244Y-66668365D01*
X78003824Y-66673029D01*
X77998575Y-66675915D01*
X77937874Y-66691500D01*
X77864516Y-66691500D01*
X77862068Y-66691693D01*
X77862060Y-66691693D01*
X77834156Y-66693889D01*
X77834151Y-66693890D01*
X77827746Y-66694394D01*
X77752727Y-66716189D01*
X77678016Y-66737894D01*
X77678014Y-66737895D01*
X77670403Y-66740106D01*
X77663580Y-66744141D01*
X77663578Y-66744142D01*
X77645582Y-66754785D01*
X77576766Y-66772245D01*
X77533584Y-66762464D01*
X77529597Y-66760106D01*
X77521986Y-66757895D01*
X77521984Y-66757894D01*
X77465554Y-66741500D01*
X77372254Y-66714394D01*
X77365849Y-66713890D01*
X77365844Y-66713889D01*
X77337940Y-66711693D01*
X77337932Y-66711693D01*
X77335484Y-66711500D01*
X76972000Y-66711500D01*
X76903879Y-66691498D01*
X76857386Y-66637842D01*
X76846000Y-66585500D01*
X76846000Y-66247885D01*
X77354000Y-66247885D01*
X77358475Y-66263124D01*
X77359865Y-66264329D01*
X77367548Y-66266000D01*
X77827885Y-66266000D01*
X77843124Y-66261525D01*
X77844329Y-66260135D01*
X77846000Y-66252452D01*
X77846000Y-65751576D01*
X77841656Y-65736781D01*
X77831225Y-65734937D01*
X77821641Y-65736688D01*
X77678216Y-65778357D01*
X77663776Y-65784606D01*
X77645610Y-65795349D01*
X77576794Y-65812808D01*
X77531430Y-65802532D01*
X77521780Y-65798356D01*
X77378359Y-65756688D01*
X77370391Y-65755232D01*
X77356969Y-65758052D01*
X77354000Y-65769513D01*
X77354000Y-66247885D01*
X76846000Y-66247885D01*
X76846000Y-65771576D01*
X76841656Y-65756781D01*
X76831225Y-65754937D01*
X76821641Y-65756688D01*
X76678216Y-65798357D01*
X76663780Y-65804604D01*
X76536501Y-65879876D01*
X76524074Y-65889516D01*
X76465095Y-65948495D01*
X76402783Y-65982521D01*
X76331968Y-65977456D01*
X76275132Y-65934909D01*
X76250321Y-65868389D01*
X76250000Y-65859400D01*
X76250000Y-64876000D01*
X76270002Y-64807879D01*
X76323658Y-64761386D01*
X76376000Y-64750000D01*
X78316336Y-64750000D01*
X78384457Y-64770002D01*
G37*
%TD.AperFunction*%
%TA.AperFunction,Conductor*%
G36*
X100490198Y-57048502D02*
G01*
X100536691Y-57102158D01*
X100547340Y-57168108D01*
X100541500Y-57221866D01*
X100541500Y-58058134D01*
X100548255Y-58120316D01*
X100551027Y-58127712D01*
X100551029Y-58127718D01*
X100598897Y-58255406D01*
X100604080Y-58326213D01*
X100570010Y-58388730D01*
X97404145Y-61554595D01*
X97341833Y-61588621D01*
X97315050Y-61591500D01*
X95559000Y-61591500D01*
X95490879Y-61571498D01*
X95444386Y-61517842D01*
X95438213Y-61489466D01*
X95438104Y-61489498D01*
X95428525Y-61456876D01*
X95427135Y-61455671D01*
X95419452Y-61454000D01*
X94347000Y-61454000D01*
X94278879Y-61433998D01*
X94232386Y-61380342D01*
X94221000Y-61328000D01*
X94221000Y-61072000D01*
X94241002Y-61003879D01*
X94294658Y-60957386D01*
X94347000Y-60946000D01*
X95414885Y-60946000D01*
X95430124Y-60941525D01*
X95431329Y-60940135D01*
X95433000Y-60932452D01*
X95433000Y-60904562D01*
X95432663Y-60898047D01*
X95422394Y-60799084D01*
X95424241Y-60798892D01*
X95428741Y-60737279D01*
X95472669Y-60679554D01*
X95542465Y-60628844D01*
X95611253Y-60578866D01*
X95698569Y-60481892D01*
X95734621Y-60441852D01*
X95734622Y-60441851D01*
X95739040Y-60436944D01*
X95813197Y-60308500D01*
X95831223Y-60277279D01*
X95831224Y-60277278D01*
X95834527Y-60271556D01*
X95893542Y-60089928D01*
X95896376Y-60062969D01*
X95912814Y-59906565D01*
X95913504Y-59900000D01*
X95897192Y-59744798D01*
X95894232Y-59716635D01*
X95894232Y-59716633D01*
X95893542Y-59710072D01*
X95834527Y-59528444D01*
X95806791Y-59480403D01*
X95791121Y-59453262D01*
X95739040Y-59363056D01*
X95730692Y-59353784D01*
X95615675Y-59226045D01*
X95615674Y-59226044D01*
X95611253Y-59221134D01*
X95499728Y-59140106D01*
X95462094Y-59112763D01*
X95462093Y-59112762D01*
X95456752Y-59108882D01*
X95450724Y-59106198D01*
X95450722Y-59106197D01*
X95288319Y-59033891D01*
X95288318Y-59033891D01*
X95282288Y-59031206D01*
X95188887Y-59011353D01*
X95101944Y-58992872D01*
X95101939Y-58992872D01*
X95095487Y-58991500D01*
X94904513Y-58991500D01*
X94898061Y-58992872D01*
X94898056Y-58992872D01*
X94811113Y-59011353D01*
X94717712Y-59031206D01*
X94711682Y-59033891D01*
X94711681Y-59033891D01*
X94549278Y-59106197D01*
X94549276Y-59106198D01*
X94543248Y-59108882D01*
X94537907Y-59112762D01*
X94537906Y-59112763D01*
X94486888Y-59149830D01*
X94394092Y-59217251D01*
X94393837Y-59217436D01*
X94326969Y-59241294D01*
X94319776Y-59241500D01*
X94280224Y-59241500D01*
X94212103Y-59221498D01*
X94206163Y-59217436D01*
X94205909Y-59217251D01*
X94113112Y-59149830D01*
X94062094Y-59112763D01*
X94062093Y-59112762D01*
X94056752Y-59108882D01*
X94050724Y-59106198D01*
X94050722Y-59106197D01*
X93888319Y-59033891D01*
X93888318Y-59033891D01*
X93882288Y-59031206D01*
X93788887Y-59011353D01*
X93701944Y-58992872D01*
X93701939Y-58992872D01*
X93695487Y-58991500D01*
X93504513Y-58991500D01*
X93498061Y-58992872D01*
X93498056Y-58992872D01*
X93411113Y-59011353D01*
X93317712Y-59031206D01*
X93311682Y-59033891D01*
X93311681Y-59033891D01*
X93149278Y-59106197D01*
X93149276Y-59106198D01*
X93143248Y-59108882D01*
X93137907Y-59112762D01*
X93137906Y-59112763D01*
X93086742Y-59149936D01*
X93012681Y-59174000D01*
X92821379Y-59174000D01*
X92757240Y-59156454D01*
X92736420Y-59144141D01*
X92736419Y-59144141D01*
X92729597Y-59140106D01*
X92721986Y-59137895D01*
X92721984Y-59137894D01*
X92645948Y-59115804D01*
X92572254Y-59094394D01*
X92565849Y-59093890D01*
X92565844Y-59093889D01*
X92537940Y-59091693D01*
X92537932Y-59091693D01*
X92535484Y-59091500D01*
X92064516Y-59091500D01*
X92062068Y-59091693D01*
X92062060Y-59091693D01*
X92034156Y-59093889D01*
X92034151Y-59093890D01*
X92027746Y-59094394D01*
X91954052Y-59115804D01*
X91878016Y-59137894D01*
X91878014Y-59137895D01*
X91870403Y-59140106D01*
X91863581Y-59144141D01*
X91856303Y-59147290D01*
X91855722Y-59145947D01*
X91795315Y-59161269D01*
X91744149Y-59146245D01*
X91743697Y-59147290D01*
X91736419Y-59144141D01*
X91729597Y-59140106D01*
X91721986Y-59137895D01*
X91721984Y-59137894D01*
X91645948Y-59115804D01*
X91572254Y-59094394D01*
X91565849Y-59093890D01*
X91565844Y-59093889D01*
X91537940Y-59091693D01*
X91537932Y-59091693D01*
X91535484Y-59091500D01*
X91172000Y-59091500D01*
X91103879Y-59071498D01*
X91057386Y-59017842D01*
X91046000Y-58965500D01*
X91046000Y-58937450D01*
X91066002Y-58869329D01*
X91082905Y-58848355D01*
X91228355Y-58702905D01*
X91290667Y-58668879D01*
X91317450Y-58666000D01*
X92027885Y-58666000D01*
X92043124Y-58661525D01*
X92044329Y-58660135D01*
X92046000Y-58652452D01*
X92046000Y-58647885D01*
X92554000Y-58647885D01*
X92558475Y-58663124D01*
X92559865Y-58664329D01*
X92567548Y-58666000D01*
X93093558Y-58666000D01*
X93107089Y-58662027D01*
X93108224Y-58654129D01*
X93071643Y-58528216D01*
X93065396Y-58513780D01*
X92990124Y-58386501D01*
X92980484Y-58374074D01*
X92875926Y-58269516D01*
X92863499Y-58259876D01*
X92736220Y-58184604D01*
X92721784Y-58178357D01*
X92578359Y-58136688D01*
X92570391Y-58135232D01*
X92556969Y-58138052D01*
X92554000Y-58149513D01*
X92554000Y-58647885D01*
X92046000Y-58647885D01*
X92046000Y-58151576D01*
X92041525Y-58136337D01*
X92018258Y-58116175D01*
X92006241Y-58110215D01*
X91969793Y-58049288D01*
X91972069Y-57978328D01*
X92002670Y-57928590D01*
X92865855Y-57065405D01*
X92928167Y-57031379D01*
X92954950Y-57028500D01*
X100422077Y-57028500D01*
X100490198Y-57048502D01*
G37*
%TD.AperFunction*%
%TA.AperFunction,Conductor*%
G36*
X80868775Y-58241651D02*
G01*
X80888881Y-58251253D01*
X80913579Y-58265859D01*
X80913583Y-58265861D01*
X80916833Y-58267783D01*
X80916837Y-58267786D01*
X80920402Y-58269894D01*
X80920062Y-58270469D01*
X80970116Y-58312121D01*
X80991500Y-58382345D01*
X80991500Y-59500000D01*
X80087328Y-59500000D01*
X80124381Y-59462883D01*
X80124385Y-59462878D01*
X80129552Y-59457702D01*
X80155571Y-59415492D01*
X80215462Y-59318331D01*
X80215463Y-59318329D01*
X80219302Y-59312101D01*
X80273149Y-59149757D01*
X80274365Y-59137894D01*
X80279441Y-59088345D01*
X80283500Y-59048732D01*
X80283500Y-58774950D01*
X80303502Y-58706829D01*
X80320405Y-58685855D01*
X80735648Y-58270612D01*
X80797960Y-58236586D01*
X80868775Y-58241651D01*
G37*
%TD.AperFunction*%
%TA.AperFunction,Conductor*%
G36*
X66817012Y-58943700D02*
G01*
X66823595Y-58949829D01*
X67222075Y-59348309D01*
X67336261Y-59442102D01*
X67444240Y-59500000D01*
X66608500Y-59500000D01*
X66608500Y-59038924D01*
X66628502Y-58970803D01*
X66682158Y-58924310D01*
X66752432Y-58914206D01*
X66817012Y-58943700D01*
G37*
%TD.AperFunction*%
%TA.AperFunction,Conductor*%
G36*
X82918499Y-54862848D02*
G01*
X82952955Y-54919273D01*
X82959731Y-54942596D01*
X82963766Y-54949418D01*
X82963766Y-54949419D01*
X83038460Y-55075720D01*
X83042494Y-55082541D01*
X83157459Y-55197506D01*
X83164280Y-55201540D01*
X83237426Y-55244798D01*
X83297404Y-55280269D01*
X83305015Y-55282480D01*
X83305017Y-55282481D01*
X83356376Y-55297402D01*
X83453534Y-55325629D01*
X83459941Y-55326133D01*
X83459945Y-55326134D01*
X83487556Y-55328307D01*
X83487562Y-55328307D01*
X83490011Y-55328500D01*
X83689878Y-55328500D01*
X83889988Y-55328499D01*
X83892453Y-55328305D01*
X83892455Y-55328305D01*
X83915619Y-55326483D01*
X83985099Y-55341082D01*
X84035656Y-55390926D01*
X84051500Y-55452095D01*
X84051500Y-55624074D01*
X84031498Y-55692195D01*
X83977842Y-55738688D01*
X83907568Y-55748792D01*
X83890347Y-55745071D01*
X83792564Y-55716663D01*
X83779977Y-55714363D01*
X83772057Y-55713740D01*
X83756970Y-55716910D01*
X83754000Y-55728374D01*
X83754000Y-56605500D01*
X83733998Y-56673621D01*
X83680342Y-56720114D01*
X83628000Y-56731500D01*
X83259942Y-56731501D01*
X83250012Y-56731501D01*
X83213534Y-56734371D01*
X83207352Y-56736167D01*
X83207347Y-56736168D01*
X83197610Y-56738997D01*
X83162458Y-56744000D01*
X83146115Y-56744000D01*
X83129441Y-56748896D01*
X83093943Y-56754000D01*
X82572115Y-56754000D01*
X82556876Y-56758475D01*
X82555671Y-56759865D01*
X82554000Y-56767548D01*
X82554000Y-57295717D01*
X82540478Y-57341771D01*
X82534000Y-57371548D01*
X82534000Y-57613415D01*
X82513998Y-57681536D01*
X82460342Y-57728029D01*
X82390068Y-57738133D01*
X82325488Y-57708639D01*
X82290848Y-57659798D01*
X82275876Y-57621982D01*
X82272031Y-57610753D01*
X82261356Y-57574010D01*
X82259145Y-57566399D01*
X82248230Y-57547943D01*
X82239531Y-57530187D01*
X82239182Y-57529307D01*
X82231635Y-57510244D01*
X82204480Y-57472868D01*
X82197965Y-57462949D01*
X82178492Y-57430023D01*
X82178489Y-57430019D01*
X82174452Y-57423193D01*
X82159291Y-57408032D01*
X82146449Y-57392997D01*
X82133840Y-57375642D01*
X82136274Y-57373874D01*
X82110598Y-57323119D01*
X82108500Y-57300222D01*
X82108500Y-57264516D01*
X82108307Y-57262060D01*
X82106111Y-57234156D01*
X82106110Y-57234151D01*
X82105606Y-57227746D01*
X82069120Y-57102158D01*
X82062106Y-57078016D01*
X82062105Y-57078014D01*
X82059894Y-57070403D01*
X82057820Y-57066896D01*
X82049334Y-56998135D01*
X82065215Y-56954418D01*
X82075858Y-56936422D01*
X82075859Y-56936420D01*
X82079894Y-56929597D01*
X82125606Y-56772254D01*
X82126453Y-56761500D01*
X82128307Y-56737940D01*
X82128307Y-56737932D01*
X82128500Y-56735484D01*
X82128500Y-56264516D01*
X82127043Y-56246000D01*
X82126111Y-56234156D01*
X82126110Y-56234151D01*
X82125617Y-56227885D01*
X82554000Y-56227885D01*
X82558475Y-56243124D01*
X82559865Y-56244329D01*
X82567548Y-56246000D01*
X82613885Y-56246000D01*
X82630559Y-56241104D01*
X82666057Y-56236000D01*
X83227885Y-56236000D01*
X83243124Y-56231525D01*
X83244329Y-56230135D01*
X83246000Y-56222452D01*
X83246000Y-55730434D01*
X83241656Y-55715639D01*
X83229997Y-55713579D01*
X83220023Y-55714363D01*
X83207436Y-55716662D01*
X83065217Y-55757981D01*
X83050778Y-55764230D01*
X82967687Y-55813370D01*
X82898871Y-55830830D01*
X82839409Y-55813371D01*
X82706220Y-55734604D01*
X82691784Y-55728357D01*
X82571395Y-55693381D01*
X82557295Y-55693421D01*
X82554000Y-55700691D01*
X82554000Y-56227885D01*
X82125617Y-56227885D01*
X82125606Y-56227746D01*
X82092656Y-56114329D01*
X82082106Y-56078016D01*
X82082105Y-56078014D01*
X82079894Y-56070403D01*
X82063546Y-56042760D01*
X82046000Y-55978621D01*
X82046000Y-55706442D01*
X82041353Y-55690616D01*
X82003604Y-55631878D01*
X81998500Y-55596379D01*
X81998500Y-55415253D01*
X82018502Y-55347132D01*
X82072158Y-55300639D01*
X82090601Y-55293900D01*
X82266463Y-55244798D01*
X82271967Y-55242018D01*
X82271969Y-55242017D01*
X82437495Y-55158404D01*
X82437497Y-55158403D01*
X82442996Y-55155625D01*
X82598847Y-55033861D01*
X82728078Y-54884145D01*
X82729751Y-54881200D01*
X82784605Y-54837664D01*
X82855249Y-54830598D01*
X82918499Y-54862848D01*
G37*
%TD.AperFunction*%
%TA.AperFunction,Conductor*%
G36*
X63037527Y-42094419D02*
G01*
X63082590Y-42123379D01*
X63519581Y-42560371D01*
X64315784Y-43356573D01*
X64349809Y-43418885D01*
X64344744Y-43489701D01*
X64315784Y-43534763D01*
X64225274Y-43625274D01*
X64225273Y-43625275D01*
X64134763Y-43715784D01*
X64072451Y-43749809D01*
X64001635Y-43744743D01*
X63956572Y-43715783D01*
X63160371Y-42919581D01*
X62723378Y-42482589D01*
X62689353Y-42420277D01*
X62694418Y-42349461D01*
X62723378Y-42304399D01*
X62813888Y-42213888D01*
X62813889Y-42213887D01*
X62904399Y-42123378D01*
X62966711Y-42089353D01*
X63037527Y-42094419D01*
G37*
%TD.AperFunction*%
%TA.AperFunction,Conductor*%
G36*
X108170120Y-41774837D02*
G01*
X108215182Y-41803797D01*
X108305693Y-41894307D01*
X108305694Y-41894308D01*
X108396203Y-41984818D01*
X108430228Y-42047130D01*
X108425162Y-42117946D01*
X108396202Y-42163009D01*
X107600000Y-42959210D01*
X107163008Y-43396203D01*
X107100696Y-43430228D01*
X107029880Y-43425163D01*
X106984818Y-43396203D01*
X106894307Y-43305693D01*
X106894306Y-43305692D01*
X106803797Y-43215182D01*
X106769772Y-43152870D01*
X106774838Y-43082054D01*
X106803798Y-43036991D01*
X107600000Y-42240790D01*
X108036992Y-41803797D01*
X108099304Y-41769772D01*
X108170120Y-41774837D01*
G37*
%TD.AperFunction*%
%TD*%
M02*
