%TF.GenerationSoftware,KiCad,Pcbnew,(6.0.7)*%
%TF.CreationDate,2023-05-29T18:59:42-07:00*%
%TF.ProjectId,STM32F4_Breakout,53544d33-3246-4345-9f42-7265616b6f75,rev?*%
%TF.SameCoordinates,Original*%
%TF.FileFunction,Soldermask,Bot*%
%TF.FilePolarity,Negative*%
%FSLAX46Y46*%
G04 Gerber Fmt 4.6, Leading zero omitted, Abs format (unit mm)*
G04 Created by KiCad (PCBNEW (6.0.7)) date 2023-05-29 18:59:42*
%MOMM*%
%LPD*%
G01*
G04 APERTURE LIST*
%ADD10R,1.700000X1.700000*%
%ADD11O,1.700000X1.700000*%
%ADD12C,0.900000*%
%ADD13C,8.600000*%
G04 APERTURE END LIST*
D10*
%TO.C,J1*%
X63100000Y-77075000D03*
D11*
X63100000Y-74535000D03*
%TD*%
D10*
%TO.C,J3*%
X78275000Y-42400000D03*
D11*
X75735000Y-42400000D03*
%TD*%
D12*
%TO.C,H2*%
X107480419Y-82119581D03*
X105200000Y-87625000D03*
X101975000Y-84400000D03*
X107480419Y-86680419D03*
D13*
X105200000Y-84400000D03*
D12*
X102919581Y-82119581D03*
X105200000Y-81175000D03*
X102919581Y-86680419D03*
X108425000Y-84400000D03*
%TD*%
D10*
%TO.C,J6*%
X108000000Y-72100000D03*
D11*
X108000000Y-69560000D03*
%TD*%
D12*
%TO.C,H3*%
X103039162Y-47160838D03*
X108544581Y-44880419D03*
X107600000Y-47160838D03*
X102094581Y-44880419D03*
X105319581Y-48105419D03*
X107600000Y-42600000D03*
X105319581Y-41655419D03*
D13*
X105319581Y-44880419D03*
D12*
X103039162Y-42600000D03*
%TD*%
D10*
%TO.C,J5*%
X82400000Y-87000000D03*
D11*
X84940000Y-87000000D03*
X87480000Y-87000000D03*
X90020000Y-87000000D03*
%TD*%
D12*
%TO.C,H4*%
X69025000Y-45200000D03*
X63519581Y-47480419D03*
X68080419Y-42919581D03*
X65800000Y-41975000D03*
D13*
X65800000Y-45200000D03*
D12*
X68080419Y-47480419D03*
X65800000Y-48425000D03*
X62575000Y-45200000D03*
X63519581Y-42919581D03*
%TD*%
%TO.C,H1*%
X67880419Y-86680419D03*
X68825000Y-84400000D03*
X63319581Y-86680419D03*
X65600000Y-87625000D03*
X62375000Y-84400000D03*
D13*
X65600000Y-84400000D03*
D12*
X67880419Y-82119581D03*
X65600000Y-81175000D03*
X63319581Y-82119581D03*
%TD*%
D10*
%TO.C,J2*%
X83125000Y-42400000D03*
D11*
X85665000Y-42400000D03*
%TD*%
M02*
