%TF.GenerationSoftware,KiCad,Pcbnew,(6.0.7)*%
%TF.CreationDate,2023-05-29T18:59:42-07:00*%
%TF.ProjectId,STM32F4_Breakout,53544d33-3246-4345-9f42-7265616b6f75,rev?*%
%TF.SameCoordinates,Original*%
%TF.FileFunction,Copper,L3,Inr*%
%TF.FilePolarity,Positive*%
%FSLAX46Y46*%
G04 Gerber Fmt 4.6, Leading zero omitted, Abs format (unit mm)*
G04 Created by KiCad (PCBNEW (6.0.7)) date 2023-05-29 18:59:42*
%MOMM*%
%LPD*%
G01*
G04 APERTURE LIST*
%TA.AperFunction,ComponentPad*%
%ADD10R,1.700000X1.700000*%
%TD*%
%TA.AperFunction,ComponentPad*%
%ADD11O,1.700000X1.700000*%
%TD*%
%TA.AperFunction,ComponentPad*%
%ADD12C,0.900000*%
%TD*%
%TA.AperFunction,ComponentPad*%
%ADD13C,8.600000*%
%TD*%
%TA.AperFunction,ViaPad*%
%ADD14C,0.800000*%
%TD*%
%TA.AperFunction,ViaPad*%
%ADD15C,1.000000*%
%TD*%
G04 APERTURE END LIST*
D10*
%TO.N,VCC*%
%TO.C,J1*%
X63100000Y-77075000D03*
D11*
%TO.N,GND*%
X63100000Y-74535000D03*
%TD*%
D10*
%TO.N,+3V3*%
%TO.C,J3*%
X78275000Y-42400000D03*
D11*
%TO.N,GND*%
X75735000Y-42400000D03*
%TD*%
D12*
%TO.N,GND*%
%TO.C,H2*%
X107480419Y-82119581D03*
X105200000Y-87625000D03*
X101975000Y-84400000D03*
X107480419Y-86680419D03*
D13*
X105200000Y-84400000D03*
D12*
X102919581Y-82119581D03*
X105200000Y-81175000D03*
X102919581Y-86680419D03*
X108425000Y-84400000D03*
%TD*%
D10*
%TO.N,USART1_TX*%
%TO.C,J6*%
X108000000Y-72100000D03*
D11*
%TO.N,USART1_RX*%
X108000000Y-69560000D03*
%TD*%
D12*
%TO.N,GND*%
%TO.C,H3*%
X103039162Y-47160838D03*
X108544581Y-44880419D03*
X107600000Y-47160838D03*
X102094581Y-44880419D03*
X105319581Y-48105419D03*
X107600000Y-42600000D03*
X105319581Y-41655419D03*
D13*
X105319581Y-44880419D03*
D12*
X103039162Y-42600000D03*
%TD*%
D10*
%TO.N,SPI1_CS*%
%TO.C,J5*%
X82400000Y-87000000D03*
D11*
%TO.N,SPI1_SCK*%
X84940000Y-87000000D03*
%TO.N,SPI1_MISO*%
X87480000Y-87000000D03*
%TO.N,SPI1_MOSI*%
X90020000Y-87000000D03*
%TD*%
D12*
%TO.N,GND*%
%TO.C,H4*%
X69025000Y-45200000D03*
X63519581Y-47480419D03*
X68080419Y-42919581D03*
X65800000Y-41975000D03*
D13*
X65800000Y-45200000D03*
D12*
X68080419Y-47480419D03*
X65800000Y-48425000D03*
X62575000Y-45200000D03*
X63519581Y-42919581D03*
%TD*%
%TO.N,GND*%
%TO.C,H1*%
X67880419Y-86680419D03*
X68825000Y-84400000D03*
X63319581Y-86680419D03*
X65600000Y-87625000D03*
X62375000Y-84400000D03*
D13*
X65600000Y-84400000D03*
D12*
X67880419Y-82119581D03*
X65600000Y-81175000D03*
X63319581Y-82119581D03*
%TD*%
D10*
%TO.N,I2C1_SDA*%
%TO.C,J2*%
X83125000Y-42400000D03*
D11*
%TO.N,I2C1_SCL*%
X85665000Y-42400000D03*
%TD*%
D14*
%TO.N,GND*%
X92000000Y-71000000D03*
X108200000Y-55100000D03*
X80400000Y-72400000D03*
D15*
X93600000Y-58900000D03*
D14*
X72900000Y-65900000D03*
X108200000Y-56400000D03*
D15*
X93100000Y-71800000D03*
X61900000Y-68500000D03*
X95000000Y-58900000D03*
D14*
X87400000Y-74300000D03*
D15*
X61900000Y-71600000D03*
D14*
X88800000Y-75400000D03*
D15*
X77900000Y-57200000D03*
D14*
X71500000Y-60300000D03*
X92000000Y-72000000D03*
D15*
X96100000Y-61100000D03*
D14*
X70500000Y-60300000D03*
D15*
X64000000Y-70100000D03*
D14*
X108100000Y-52600000D03*
X78800000Y-60000000D03*
X80400000Y-73300000D03*
D15*
X82800000Y-55400000D03*
D14*
X78100000Y-65600000D03*
X72900000Y-67800000D03*
D15*
X61900000Y-70100000D03*
D14*
X75500000Y-60500000D03*
D15*
X64000000Y-71600000D03*
D14*
X77100000Y-65600000D03*
%TO.N,+3V3*%
X67900000Y-58600000D03*
X78200000Y-68900000D03*
D15*
X80700000Y-55300000D03*
D14*
X90100000Y-73000000D03*
X76800000Y-70300000D03*
X82400000Y-74400000D03*
X82400000Y-75400000D03*
X67900000Y-60900000D03*
X90100000Y-73900000D03*
D15*
X77900000Y-58800000D03*
D14*
X86700000Y-53500000D03*
X95000000Y-59900000D03*
X106200000Y-59400000D03*
X78200000Y-70100000D03*
X63400000Y-58700000D03*
X93600000Y-59900000D03*
X68400000Y-56300000D03*
D15*
X81900000Y-54300000D03*
D14*
X77880356Y-61975111D03*
X83600000Y-53500000D03*
X62700000Y-56400000D03*
X63400000Y-60900000D03*
%TO.N,NRST*%
X83000000Y-64300000D03*
X99000000Y-52600000D03*
%TD*%
%TA.AperFunction,Conductor*%
%TO.N,+3V3*%
G36*
X103245033Y-40328502D02*
G01*
X103291526Y-40382158D01*
X103301630Y-40452432D01*
X103272136Y-40517012D01*
X103229663Y-40548926D01*
X103111942Y-40603196D01*
X103109519Y-40604586D01*
X103109516Y-40604588D01*
X103049429Y-40639070D01*
X102740461Y-40816376D01*
X102738158Y-40817985D01*
X102738151Y-40817990D01*
X102404012Y-41051522D01*
X102389401Y-41061734D01*
X102061542Y-41337328D01*
X101759480Y-41640976D01*
X101485606Y-41970274D01*
X101484012Y-41972581D01*
X101484010Y-41972583D01*
X101368208Y-42140135D01*
X101242089Y-42322613D01*
X101030857Y-42695205D01*
X101029698Y-42697754D01*
X101029696Y-42697758D01*
X101004011Y-42754250D01*
X100853583Y-43085099D01*
X100852661Y-43087725D01*
X100852656Y-43087737D01*
X100777593Y-43301486D01*
X100711670Y-43489209D01*
X100710979Y-43491929D01*
X100710978Y-43491933D01*
X100643279Y-43758500D01*
X100606242Y-43904333D01*
X100538133Y-44327187D01*
X100507883Y-44754420D01*
X100515732Y-45182652D01*
X100561617Y-45608490D01*
X100645175Y-46028563D01*
X100765744Y-46439546D01*
X100766771Y-46442159D01*
X100766771Y-46442160D01*
X100872539Y-46711355D01*
X100922370Y-46838184D01*
X100923625Y-46840695D01*
X101091742Y-47177150D01*
X101113812Y-47221320D01*
X101338555Y-47585921D01*
X101594820Y-47929101D01*
X101596681Y-47931179D01*
X101596682Y-47931180D01*
X101878708Y-48246056D01*
X101878714Y-48246062D01*
X101880576Y-48248141D01*
X102193562Y-48540517D01*
X102531300Y-48803912D01*
X102891114Y-49036241D01*
X102893593Y-49037545D01*
X102893596Y-49037547D01*
X103267658Y-49234351D01*
X103267664Y-49234354D01*
X103270158Y-49235666D01*
X103272756Y-49236750D01*
X103272760Y-49236752D01*
X103662844Y-49399528D01*
X103662849Y-49399530D01*
X103665428Y-49400606D01*
X103668093Y-49401449D01*
X103668099Y-49401451D01*
X103890142Y-49471673D01*
X104073795Y-49529755D01*
X104076525Y-49530358D01*
X104076526Y-49530358D01*
X104194178Y-49556333D01*
X104492027Y-49622092D01*
X104494801Y-49622450D01*
X104494802Y-49622450D01*
X104914041Y-49676528D01*
X104914048Y-49676529D01*
X104916811Y-49676885D01*
X104919598Y-49676995D01*
X104919604Y-49676995D01*
X105167819Y-49686747D01*
X105344784Y-49693700D01*
X105347576Y-49693561D01*
X105347581Y-49693561D01*
X105769753Y-49672544D01*
X105769762Y-49672543D01*
X105772557Y-49672404D01*
X105775334Y-49672016D01*
X105775336Y-49672016D01*
X105849647Y-49661638D01*
X106196744Y-49613166D01*
X106613985Y-49516455D01*
X106827888Y-49446334D01*
X107018325Y-49383906D01*
X107018331Y-49383904D01*
X107020978Y-49383036D01*
X107414499Y-49213966D01*
X107791433Y-49010583D01*
X108148795Y-48774499D01*
X108483756Y-48507581D01*
X108793663Y-48211944D01*
X108795500Y-48209850D01*
X108795508Y-48209841D01*
X109074216Y-47892035D01*
X109076063Y-47889929D01*
X109095250Y-47863666D01*
X109327071Y-47546342D01*
X109328720Y-47544085D01*
X109330637Y-47540901D01*
X109548182Y-47179561D01*
X109548187Y-47179552D01*
X109549633Y-47177150D01*
X109652204Y-46966381D01*
X109699998Y-46913881D01*
X109768588Y-46895555D01*
X109836198Y-46917221D01*
X109881362Y-46972000D01*
X109891500Y-47021517D01*
X109891500Y-82526676D01*
X109871498Y-82594797D01*
X109817842Y-82641290D01*
X109747568Y-82651394D01*
X109682988Y-82621900D01*
X109649473Y-82575807D01*
X109545550Y-82330384D01*
X109545548Y-82330379D01*
X109544456Y-82327801D01*
X109343050Y-81949807D01*
X109108840Y-81591214D01*
X108843680Y-81254860D01*
X108549670Y-80943409D01*
X108547579Y-80941556D01*
X108547571Y-80941548D01*
X108231237Y-80661188D01*
X108231235Y-80661186D01*
X108229137Y-80659327D01*
X107884621Y-80404863D01*
X107691733Y-80287355D01*
X107521237Y-80183487D01*
X107521230Y-80183483D01*
X107518848Y-80182032D01*
X107401514Y-80124169D01*
X107137228Y-79993838D01*
X107134714Y-79992598D01*
X106735262Y-79838062D01*
X106488678Y-79767122D01*
X106326335Y-79720417D01*
X106326329Y-79720415D01*
X106323654Y-79719646D01*
X106320917Y-79719117D01*
X106320911Y-79719115D01*
X106175828Y-79691046D01*
X105903148Y-79638289D01*
X105900374Y-79638005D01*
X105900362Y-79638003D01*
X105617111Y-79608982D01*
X105477076Y-79594634D01*
X105474286Y-79594597D01*
X105474278Y-79594597D01*
X105206825Y-79591096D01*
X105048809Y-79589028D01*
X105046009Y-79589241D01*
X105046008Y-79589241D01*
X104971364Y-79594919D01*
X104621740Y-79621514D01*
X104199249Y-79691836D01*
X104113671Y-79714048D01*
X103787400Y-79798731D01*
X103787389Y-79798734D01*
X103784682Y-79799437D01*
X103526575Y-79891599D01*
X103383964Y-79942520D01*
X103383959Y-79942522D01*
X103381321Y-79943464D01*
X103378781Y-79944635D01*
X103378776Y-79944637D01*
X103276930Y-79991589D01*
X102992361Y-80122777D01*
X102620880Y-80335957D01*
X102618577Y-80337566D01*
X102618570Y-80337571D01*
X102272129Y-80579701D01*
X102269820Y-80581315D01*
X101941961Y-80856909D01*
X101639899Y-81160557D01*
X101366025Y-81489855D01*
X101122508Y-81842194D01*
X100911276Y-82214786D01*
X100734002Y-82604680D01*
X100733080Y-82607306D01*
X100733075Y-82607318D01*
X100719807Y-82645101D01*
X100592089Y-83008790D01*
X100486661Y-83423914D01*
X100418552Y-83846768D01*
X100388302Y-84274001D01*
X100396151Y-84702233D01*
X100442036Y-85128071D01*
X100525594Y-85548144D01*
X100646163Y-85959127D01*
X100647190Y-85961740D01*
X100647190Y-85961741D01*
X100797625Y-86344621D01*
X100802789Y-86357765D01*
X100804044Y-86360276D01*
X100972161Y-86696731D01*
X100994231Y-86740901D01*
X101218974Y-87105502D01*
X101475239Y-87448682D01*
X101477100Y-87450760D01*
X101477101Y-87450761D01*
X101759127Y-87765637D01*
X101759133Y-87765643D01*
X101760995Y-87767722D01*
X102073981Y-88060098D01*
X102411719Y-88323493D01*
X102771533Y-88555822D01*
X102774012Y-88557126D01*
X102774015Y-88557128D01*
X103148077Y-88753932D01*
X103148083Y-88753935D01*
X103150577Y-88755247D01*
X103153175Y-88756331D01*
X103153179Y-88756333D01*
X103375774Y-88849218D01*
X103430938Y-88893911D01*
X103453182Y-88961332D01*
X103435444Y-89030077D01*
X103383356Y-89078320D01*
X103327251Y-89091500D01*
X67474228Y-89091500D01*
X67406107Y-89071498D01*
X67359614Y-89017842D01*
X67349510Y-88947568D01*
X67379004Y-88882988D01*
X67424490Y-88849732D01*
X67425687Y-88849218D01*
X67694918Y-88733547D01*
X68071852Y-88530164D01*
X68429214Y-88294080D01*
X68764175Y-88027162D01*
X68899431Y-87898134D01*
X81041500Y-87898134D01*
X81048255Y-87960316D01*
X81099385Y-88096705D01*
X81186739Y-88213261D01*
X81303295Y-88300615D01*
X81439684Y-88351745D01*
X81501866Y-88358500D01*
X83298134Y-88358500D01*
X83360316Y-88351745D01*
X83496705Y-88300615D01*
X83613261Y-88213261D01*
X83700615Y-88096705D01*
X83722799Y-88037529D01*
X83744598Y-87979382D01*
X83787240Y-87922618D01*
X83853802Y-87897918D01*
X83923150Y-87913126D01*
X83957817Y-87941114D01*
X83986250Y-87973938D01*
X84092113Y-88061827D01*
X84150420Y-88110234D01*
X84158126Y-88116632D01*
X84351000Y-88229338D01*
X84559692Y-88309030D01*
X84564760Y-88310061D01*
X84564763Y-88310062D01*
X84672017Y-88331883D01*
X84778597Y-88353567D01*
X84783772Y-88353757D01*
X84783774Y-88353757D01*
X84996673Y-88361564D01*
X84996677Y-88361564D01*
X85001837Y-88361753D01*
X85006957Y-88361097D01*
X85006959Y-88361097D01*
X85218288Y-88334025D01*
X85218289Y-88334025D01*
X85223416Y-88333368D01*
X85228366Y-88331883D01*
X85432429Y-88270661D01*
X85432434Y-88270659D01*
X85437384Y-88269174D01*
X85637994Y-88170896D01*
X85819860Y-88041173D01*
X85978096Y-87883489D01*
X86108453Y-87702077D01*
X86109776Y-87703028D01*
X86156645Y-87659857D01*
X86226580Y-87647625D01*
X86292026Y-87675144D01*
X86319875Y-87706994D01*
X86379987Y-87805088D01*
X86526250Y-87973938D01*
X86632113Y-88061827D01*
X86690420Y-88110234D01*
X86698126Y-88116632D01*
X86891000Y-88229338D01*
X87099692Y-88309030D01*
X87104760Y-88310061D01*
X87104763Y-88310062D01*
X87212017Y-88331883D01*
X87318597Y-88353567D01*
X87323772Y-88353757D01*
X87323774Y-88353757D01*
X87536673Y-88361564D01*
X87536677Y-88361564D01*
X87541837Y-88361753D01*
X87546957Y-88361097D01*
X87546959Y-88361097D01*
X87758288Y-88334025D01*
X87758289Y-88334025D01*
X87763416Y-88333368D01*
X87768366Y-88331883D01*
X87972429Y-88270661D01*
X87972434Y-88270659D01*
X87977384Y-88269174D01*
X88177994Y-88170896D01*
X88359860Y-88041173D01*
X88518096Y-87883489D01*
X88648453Y-87702077D01*
X88649776Y-87703028D01*
X88696645Y-87659857D01*
X88766580Y-87647625D01*
X88832026Y-87675144D01*
X88859875Y-87706994D01*
X88919987Y-87805088D01*
X89066250Y-87973938D01*
X89172113Y-88061827D01*
X89230420Y-88110234D01*
X89238126Y-88116632D01*
X89431000Y-88229338D01*
X89639692Y-88309030D01*
X89644760Y-88310061D01*
X89644763Y-88310062D01*
X89752017Y-88331883D01*
X89858597Y-88353567D01*
X89863772Y-88353757D01*
X89863774Y-88353757D01*
X90076673Y-88361564D01*
X90076677Y-88361564D01*
X90081837Y-88361753D01*
X90086957Y-88361097D01*
X90086959Y-88361097D01*
X90298288Y-88334025D01*
X90298289Y-88334025D01*
X90303416Y-88333368D01*
X90308366Y-88331883D01*
X90512429Y-88270661D01*
X90512434Y-88270659D01*
X90517384Y-88269174D01*
X90717994Y-88170896D01*
X90899860Y-88041173D01*
X91058096Y-87883489D01*
X91188453Y-87702077D01*
X91209320Y-87659857D01*
X91285136Y-87506453D01*
X91285137Y-87506451D01*
X91287430Y-87501811D01*
X91352370Y-87288069D01*
X91381529Y-87066590D01*
X91383156Y-87000000D01*
X91364852Y-86777361D01*
X91310431Y-86560702D01*
X91221354Y-86355840D01*
X91100014Y-86168277D01*
X90949670Y-86003051D01*
X90945619Y-85999852D01*
X90945615Y-85999848D01*
X90778414Y-85867800D01*
X90778410Y-85867798D01*
X90774359Y-85864598D01*
X90578789Y-85756638D01*
X90573920Y-85754914D01*
X90573916Y-85754912D01*
X90373087Y-85683795D01*
X90373083Y-85683794D01*
X90368212Y-85682069D01*
X90363119Y-85681162D01*
X90363116Y-85681161D01*
X90153373Y-85643800D01*
X90153367Y-85643799D01*
X90148284Y-85642894D01*
X90074452Y-85641992D01*
X89930081Y-85640228D01*
X89930079Y-85640228D01*
X89924911Y-85640165D01*
X89704091Y-85673955D01*
X89491756Y-85743357D01*
X89293607Y-85846507D01*
X89289474Y-85849610D01*
X89289471Y-85849612D01*
X89203753Y-85913971D01*
X89114965Y-85980635D01*
X89111393Y-85984373D01*
X89003729Y-86097037D01*
X88960629Y-86142138D01*
X88853201Y-86299621D01*
X88798293Y-86344621D01*
X88727768Y-86352792D01*
X88664021Y-86321538D01*
X88643324Y-86297054D01*
X88562822Y-86172617D01*
X88562820Y-86172614D01*
X88560014Y-86168277D01*
X88409670Y-86003051D01*
X88405619Y-85999852D01*
X88405615Y-85999848D01*
X88238414Y-85867800D01*
X88238410Y-85867798D01*
X88234359Y-85864598D01*
X88038789Y-85756638D01*
X88033920Y-85754914D01*
X88033916Y-85754912D01*
X87833087Y-85683795D01*
X87833083Y-85683794D01*
X87828212Y-85682069D01*
X87823119Y-85681162D01*
X87823116Y-85681161D01*
X87613373Y-85643800D01*
X87613367Y-85643799D01*
X87608284Y-85642894D01*
X87534452Y-85641992D01*
X87390081Y-85640228D01*
X87390079Y-85640228D01*
X87384911Y-85640165D01*
X87164091Y-85673955D01*
X86951756Y-85743357D01*
X86753607Y-85846507D01*
X86749474Y-85849610D01*
X86749471Y-85849612D01*
X86663753Y-85913971D01*
X86574965Y-85980635D01*
X86571393Y-85984373D01*
X86463729Y-86097037D01*
X86420629Y-86142138D01*
X86313201Y-86299621D01*
X86258293Y-86344621D01*
X86187768Y-86352792D01*
X86124021Y-86321538D01*
X86103324Y-86297054D01*
X86022822Y-86172617D01*
X86022820Y-86172614D01*
X86020014Y-86168277D01*
X85869670Y-86003051D01*
X85865619Y-85999852D01*
X85865615Y-85999848D01*
X85698414Y-85867800D01*
X85698410Y-85867798D01*
X85694359Y-85864598D01*
X85498789Y-85756638D01*
X85493920Y-85754914D01*
X85493916Y-85754912D01*
X85293087Y-85683795D01*
X85293083Y-85683794D01*
X85288212Y-85682069D01*
X85283119Y-85681162D01*
X85283116Y-85681161D01*
X85073373Y-85643800D01*
X85073367Y-85643799D01*
X85068284Y-85642894D01*
X84994452Y-85641992D01*
X84850081Y-85640228D01*
X84850079Y-85640228D01*
X84844911Y-85640165D01*
X84624091Y-85673955D01*
X84411756Y-85743357D01*
X84213607Y-85846507D01*
X84209474Y-85849610D01*
X84209471Y-85849612D01*
X84123753Y-85913971D01*
X84034965Y-85980635D01*
X83978537Y-86039684D01*
X83954283Y-86065064D01*
X83892759Y-86100494D01*
X83821846Y-86097037D01*
X83764060Y-86055791D01*
X83745207Y-86022243D01*
X83703767Y-85911703D01*
X83700615Y-85903295D01*
X83613261Y-85786739D01*
X83496705Y-85699385D01*
X83360316Y-85648255D01*
X83298134Y-85641500D01*
X81501866Y-85641500D01*
X81439684Y-85648255D01*
X81303295Y-85699385D01*
X81186739Y-85786739D01*
X81099385Y-85903295D01*
X81048255Y-86039684D01*
X81041500Y-86101866D01*
X81041500Y-87898134D01*
X68899431Y-87898134D01*
X69074082Y-87731525D01*
X69075919Y-87729431D01*
X69075927Y-87729422D01*
X69354635Y-87411616D01*
X69356482Y-87409510D01*
X69609139Y-87063666D01*
X69610585Y-87061265D01*
X69828601Y-86699142D01*
X69828606Y-86699133D01*
X69830052Y-86696731D01*
X70017471Y-86311611D01*
X70143528Y-85980635D01*
X70168918Y-85913971D01*
X70168920Y-85913964D01*
X70169914Y-85911355D01*
X70286173Y-85499132D01*
X70355433Y-85130822D01*
X70364811Y-85080954D01*
X70364813Y-85080942D01*
X70365327Y-85078207D01*
X70406750Y-84651911D01*
X70412782Y-84421588D01*
X70413289Y-84402234D01*
X70413289Y-84402220D01*
X70413347Y-84400000D01*
X70394291Y-83972121D01*
X70337275Y-83547630D01*
X70308666Y-83421193D01*
X70243368Y-83132618D01*
X70243368Y-83132617D01*
X70242750Y-83129887D01*
X70111463Y-82722202D01*
X69944456Y-82327801D01*
X69743050Y-81949807D01*
X69508840Y-81591214D01*
X69243680Y-81254860D01*
X68949670Y-80943409D01*
X68947579Y-80941556D01*
X68947571Y-80941548D01*
X68631237Y-80661188D01*
X68631235Y-80661186D01*
X68629137Y-80659327D01*
X68284621Y-80404863D01*
X68091733Y-80287355D01*
X67921237Y-80183487D01*
X67921230Y-80183483D01*
X67918848Y-80182032D01*
X67801514Y-80124169D01*
X67537228Y-79993838D01*
X67534714Y-79992598D01*
X67135262Y-79838062D01*
X66888678Y-79767122D01*
X66726335Y-79720417D01*
X66726329Y-79720415D01*
X66723654Y-79719646D01*
X66720917Y-79719117D01*
X66720911Y-79719115D01*
X66575828Y-79691046D01*
X66303148Y-79638289D01*
X66300374Y-79638005D01*
X66300362Y-79638003D01*
X66017111Y-79608982D01*
X65877076Y-79594634D01*
X65874286Y-79594597D01*
X65874278Y-79594597D01*
X65606825Y-79591096D01*
X65448809Y-79589028D01*
X65446009Y-79589241D01*
X65446008Y-79589241D01*
X65371364Y-79594919D01*
X65021740Y-79621514D01*
X64599249Y-79691836D01*
X64513671Y-79714048D01*
X64187400Y-79798731D01*
X64187389Y-79798734D01*
X64184682Y-79799437D01*
X63926575Y-79891599D01*
X63783964Y-79942520D01*
X63783959Y-79942522D01*
X63781321Y-79943464D01*
X63778781Y-79944635D01*
X63778776Y-79944637D01*
X63676930Y-79991589D01*
X63392361Y-80122777D01*
X63020880Y-80335957D01*
X63018577Y-80337566D01*
X63018570Y-80337571D01*
X62672129Y-80579701D01*
X62669820Y-80581315D01*
X62341961Y-80856909D01*
X62039899Y-81160557D01*
X61766025Y-81489855D01*
X61522508Y-81842194D01*
X61311276Y-82214786D01*
X61172913Y-82519101D01*
X61149201Y-82571252D01*
X61102797Y-82624985D01*
X61034710Y-82645101D01*
X60966556Y-82625212D01*
X60919974Y-82571634D01*
X60908500Y-82519101D01*
X60908500Y-74501695D01*
X61737251Y-74501695D01*
X61737548Y-74506848D01*
X61737548Y-74506851D01*
X61749680Y-74717251D01*
X61750110Y-74724715D01*
X61751247Y-74729761D01*
X61751248Y-74729767D01*
X61771119Y-74817939D01*
X61799222Y-74942639D01*
X61883266Y-75149616D01*
X61999987Y-75340088D01*
X62146250Y-75508938D01*
X62150230Y-75512242D01*
X62154981Y-75516187D01*
X62194616Y-75575090D01*
X62196113Y-75646071D01*
X62158997Y-75706593D01*
X62118724Y-75731112D01*
X62003295Y-75774385D01*
X61886739Y-75861739D01*
X61799385Y-75978295D01*
X61748255Y-76114684D01*
X61741500Y-76176866D01*
X61741500Y-77973134D01*
X61748255Y-78035316D01*
X61799385Y-78171705D01*
X61886739Y-78288261D01*
X62003295Y-78375615D01*
X62139684Y-78426745D01*
X62201866Y-78433500D01*
X63998134Y-78433500D01*
X64060316Y-78426745D01*
X64196705Y-78375615D01*
X64313261Y-78288261D01*
X64400615Y-78171705D01*
X64451745Y-78035316D01*
X64458500Y-77973134D01*
X64458500Y-76176866D01*
X64451745Y-76114684D01*
X64400615Y-75978295D01*
X64313261Y-75861739D01*
X64196705Y-75774385D01*
X64184132Y-75769672D01*
X64078203Y-75729960D01*
X64021439Y-75687318D01*
X63996739Y-75620756D01*
X64011947Y-75551408D01*
X64033493Y-75522727D01*
X64134435Y-75422137D01*
X64138096Y-75418489D01*
X64197594Y-75335689D01*
X64265435Y-75241277D01*
X64268453Y-75237077D01*
X64284903Y-75203794D01*
X64365136Y-75041453D01*
X64365137Y-75041451D01*
X64367430Y-75036811D01*
X64426663Y-74841852D01*
X64430865Y-74828023D01*
X64430865Y-74828021D01*
X64432370Y-74823069D01*
X64461529Y-74601590D01*
X64463156Y-74535000D01*
X64444852Y-74312361D01*
X64441747Y-74300000D01*
X86486496Y-74300000D01*
X86506458Y-74489928D01*
X86565473Y-74671556D01*
X86660960Y-74836944D01*
X86788747Y-74978866D01*
X86943248Y-75091118D01*
X86949276Y-75093802D01*
X86949278Y-75093803D01*
X87111681Y-75166109D01*
X87117712Y-75168794D01*
X87211113Y-75188647D01*
X87298056Y-75207128D01*
X87298061Y-75207128D01*
X87304513Y-75208500D01*
X87495487Y-75208500D01*
X87501939Y-75207128D01*
X87501944Y-75207128D01*
X87588887Y-75188647D01*
X87682288Y-75168794D01*
X87688321Y-75166108D01*
X87688327Y-75166106D01*
X87722646Y-75150827D01*
X87793013Y-75141393D01*
X87857310Y-75171500D01*
X87895122Y-75231590D01*
X87899203Y-75279102D01*
X87886496Y-75400000D01*
X87887186Y-75406565D01*
X87898708Y-75516187D01*
X87906458Y-75589928D01*
X87965473Y-75771556D01*
X88060960Y-75936944D01*
X88065378Y-75941851D01*
X88065379Y-75941852D01*
X88105763Y-75986703D01*
X88188747Y-76078866D01*
X88343248Y-76191118D01*
X88349276Y-76193802D01*
X88349278Y-76193803D01*
X88511681Y-76266109D01*
X88517712Y-76268794D01*
X88611113Y-76288647D01*
X88698056Y-76307128D01*
X88698061Y-76307128D01*
X88704513Y-76308500D01*
X88895487Y-76308500D01*
X88901939Y-76307128D01*
X88901944Y-76307128D01*
X88988887Y-76288647D01*
X89082288Y-76268794D01*
X89088319Y-76266109D01*
X89250722Y-76193803D01*
X89250724Y-76193802D01*
X89256752Y-76191118D01*
X89411253Y-76078866D01*
X89494237Y-75986703D01*
X89534621Y-75941852D01*
X89534622Y-75941851D01*
X89539040Y-75936944D01*
X89634527Y-75771556D01*
X89693542Y-75589928D01*
X89701293Y-75516187D01*
X89712814Y-75406565D01*
X89713504Y-75400000D01*
X89693542Y-75210072D01*
X89634527Y-75028444D01*
X89539040Y-74863056D01*
X89411253Y-74721134D01*
X89256752Y-74608882D01*
X89250724Y-74606198D01*
X89250722Y-74606197D01*
X89088319Y-74533891D01*
X89088318Y-74533891D01*
X89082288Y-74531206D01*
X88988887Y-74511353D01*
X88901944Y-74492872D01*
X88901939Y-74492872D01*
X88895487Y-74491500D01*
X88704513Y-74491500D01*
X88698061Y-74492872D01*
X88698056Y-74492872D01*
X88611113Y-74511353D01*
X88517712Y-74531206D01*
X88511679Y-74533892D01*
X88511673Y-74533894D01*
X88477354Y-74549173D01*
X88406987Y-74558607D01*
X88342690Y-74528500D01*
X88304878Y-74468410D01*
X88300797Y-74420898D01*
X88313504Y-74300000D01*
X88293542Y-74110072D01*
X88234527Y-73928444D01*
X88139040Y-73763056D01*
X88058315Y-73673401D01*
X88015675Y-73626045D01*
X88015674Y-73626044D01*
X88011253Y-73621134D01*
X87856752Y-73508882D01*
X87850724Y-73506198D01*
X87850722Y-73506197D01*
X87688319Y-73433891D01*
X87688318Y-73433891D01*
X87682288Y-73431206D01*
X87588887Y-73411353D01*
X87501944Y-73392872D01*
X87501939Y-73392872D01*
X87495487Y-73391500D01*
X87304513Y-73391500D01*
X87298061Y-73392872D01*
X87298056Y-73392872D01*
X87211113Y-73411353D01*
X87117712Y-73431206D01*
X87111682Y-73433891D01*
X87111681Y-73433891D01*
X86949278Y-73506197D01*
X86949276Y-73506198D01*
X86943248Y-73508882D01*
X86788747Y-73621134D01*
X86784326Y-73626044D01*
X86784325Y-73626045D01*
X86741686Y-73673401D01*
X86660960Y-73763056D01*
X86565473Y-73928444D01*
X86506458Y-74110072D01*
X86486496Y-74300000D01*
X64441747Y-74300000D01*
X64390431Y-74095702D01*
X64301354Y-73890840D01*
X64180014Y-73703277D01*
X64029670Y-73538051D01*
X64025619Y-73534852D01*
X64025615Y-73534848D01*
X63858414Y-73402800D01*
X63858410Y-73402798D01*
X63854359Y-73399598D01*
X63839690Y-73391500D01*
X63802136Y-73370769D01*
X63673937Y-73300000D01*
X79486496Y-73300000D01*
X79487186Y-73306565D01*
X79502535Y-73452598D01*
X79506458Y-73489928D01*
X79565473Y-73671556D01*
X79660960Y-73836944D01*
X79665378Y-73841851D01*
X79665379Y-73841852D01*
X79683232Y-73861680D01*
X79788747Y-73978866D01*
X79943248Y-74091118D01*
X79949276Y-74093802D01*
X79949278Y-74093803D01*
X80000560Y-74116635D01*
X80117712Y-74168794D01*
X80211113Y-74188647D01*
X80298056Y-74207128D01*
X80298061Y-74207128D01*
X80304513Y-74208500D01*
X80495487Y-74208500D01*
X80501939Y-74207128D01*
X80501944Y-74207128D01*
X80588887Y-74188647D01*
X80682288Y-74168794D01*
X80799440Y-74116635D01*
X80850722Y-74093803D01*
X80850724Y-74093802D01*
X80856752Y-74091118D01*
X81011253Y-73978866D01*
X81116768Y-73861680D01*
X81134621Y-73841852D01*
X81134622Y-73841851D01*
X81139040Y-73836944D01*
X81234527Y-73671556D01*
X81293542Y-73489928D01*
X81297466Y-73452598D01*
X81312814Y-73306565D01*
X81313504Y-73300000D01*
X81303403Y-73203891D01*
X81294232Y-73116635D01*
X81294232Y-73116633D01*
X81293542Y-73110072D01*
X81234527Y-72928444D01*
X81225611Y-72913001D01*
X81208872Y-72844007D01*
X81225611Y-72786998D01*
X81231224Y-72777277D01*
X81234527Y-72771556D01*
X81293542Y-72589928D01*
X81313504Y-72400000D01*
X81293542Y-72210072D01*
X81234527Y-72028444D01*
X81225137Y-72012179D01*
X81218105Y-72000000D01*
X91086496Y-72000000D01*
X91106458Y-72189928D01*
X91165473Y-72371556D01*
X91260960Y-72536944D01*
X91265378Y-72541851D01*
X91265379Y-72541852D01*
X91316346Y-72598457D01*
X91388747Y-72678866D01*
X91475667Y-72742017D01*
X91524198Y-72777277D01*
X91543248Y-72791118D01*
X91549276Y-72793802D01*
X91549278Y-72793803D01*
X91688960Y-72855993D01*
X91717712Y-72868794D01*
X91811113Y-72888647D01*
X91898056Y-72907128D01*
X91898061Y-72907128D01*
X91904513Y-72908500D01*
X92095487Y-72908500D01*
X92101939Y-72907128D01*
X92101944Y-72907128D01*
X92188887Y-72888647D01*
X92282288Y-72868794D01*
X92311040Y-72855993D01*
X92450722Y-72793803D01*
X92450724Y-72793802D01*
X92456752Y-72791118D01*
X92462093Y-72787237D01*
X92462099Y-72787234D01*
X92543459Y-72728123D01*
X92610326Y-72704264D01*
X92678988Y-72720070D01*
X92694294Y-72728624D01*
X92882392Y-72789740D01*
X93078777Y-72813158D01*
X93084912Y-72812686D01*
X93084914Y-72812686D01*
X93269830Y-72798457D01*
X93269834Y-72798456D01*
X93275972Y-72797984D01*
X93466463Y-72744798D01*
X93471967Y-72742018D01*
X93471969Y-72742017D01*
X93637495Y-72658404D01*
X93637497Y-72658403D01*
X93642996Y-72655625D01*
X93798847Y-72533861D01*
X93908726Y-72406565D01*
X93924049Y-72388813D01*
X93924050Y-72388811D01*
X93928078Y-72384145D01*
X94025769Y-72212179D01*
X94088197Y-72024513D01*
X94112985Y-71828295D01*
X94113380Y-71800000D01*
X94094080Y-71603167D01*
X94036916Y-71413831D01*
X93944066Y-71239204D01*
X93873709Y-71152938D01*
X93822960Y-71090713D01*
X93822957Y-71090710D01*
X93819065Y-71085938D01*
X93814316Y-71082009D01*
X93671425Y-70963799D01*
X93671421Y-70963797D01*
X93666675Y-70959870D01*
X93492701Y-70865802D01*
X93303768Y-70807318D01*
X93297643Y-70806674D01*
X93297642Y-70806674D01*
X93113204Y-70787289D01*
X93113202Y-70787289D01*
X93107075Y-70786645D01*
X93078638Y-70789233D01*
X92992452Y-70797076D01*
X92922799Y-70783330D01*
X92871635Y-70734109D01*
X92861200Y-70710532D01*
X92836568Y-70634726D01*
X92834527Y-70628444D01*
X92739040Y-70463056D01*
X92724707Y-70447137D01*
X92615675Y-70326045D01*
X92615674Y-70326044D01*
X92611253Y-70321134D01*
X92456752Y-70208882D01*
X92450724Y-70206198D01*
X92450722Y-70206197D01*
X92288319Y-70133891D01*
X92288318Y-70133891D01*
X92282288Y-70131206D01*
X92188888Y-70111353D01*
X92101944Y-70092872D01*
X92101939Y-70092872D01*
X92095487Y-70091500D01*
X91904513Y-70091500D01*
X91898061Y-70092872D01*
X91898056Y-70092872D01*
X91811112Y-70111353D01*
X91717712Y-70131206D01*
X91711682Y-70133891D01*
X91711681Y-70133891D01*
X91549278Y-70206197D01*
X91549276Y-70206198D01*
X91543248Y-70208882D01*
X91388747Y-70321134D01*
X91384326Y-70326044D01*
X91384325Y-70326045D01*
X91275294Y-70447137D01*
X91260960Y-70463056D01*
X91165473Y-70628444D01*
X91106458Y-70810072D01*
X91105768Y-70816633D01*
X91105768Y-70816635D01*
X91098484Y-70885938D01*
X91086496Y-71000000D01*
X91087186Y-71006565D01*
X91100400Y-71132285D01*
X91106458Y-71189928D01*
X91165473Y-71371556D01*
X91168776Y-71377278D01*
X91168777Y-71377279D01*
X91203257Y-71437000D01*
X91219995Y-71505995D01*
X91203257Y-71563000D01*
X91165473Y-71628444D01*
X91106458Y-71810072D01*
X91105768Y-71816633D01*
X91105768Y-71816635D01*
X91094287Y-71925875D01*
X91086496Y-72000000D01*
X81218105Y-72000000D01*
X81142341Y-71868774D01*
X81139040Y-71863056D01*
X81097243Y-71816635D01*
X81015675Y-71726045D01*
X81015674Y-71726044D01*
X81011253Y-71721134D01*
X80892327Y-71634729D01*
X80862094Y-71612763D01*
X80862093Y-71612762D01*
X80856752Y-71608882D01*
X80850724Y-71606198D01*
X80850722Y-71606197D01*
X80688319Y-71533891D01*
X80688318Y-71533891D01*
X80682288Y-71531206D01*
X80588887Y-71511353D01*
X80501944Y-71492872D01*
X80501939Y-71492872D01*
X80495487Y-71491500D01*
X80304513Y-71491500D01*
X80298061Y-71492872D01*
X80298056Y-71492872D01*
X80211113Y-71511353D01*
X80117712Y-71531206D01*
X80111682Y-71533891D01*
X80111681Y-71533891D01*
X79949278Y-71606197D01*
X79949276Y-71606198D01*
X79943248Y-71608882D01*
X79937907Y-71612762D01*
X79937906Y-71612763D01*
X79907673Y-71634729D01*
X79788747Y-71721134D01*
X79784326Y-71726044D01*
X79784325Y-71726045D01*
X79702758Y-71816635D01*
X79660960Y-71863056D01*
X79657659Y-71868774D01*
X79574864Y-72012179D01*
X79565473Y-72028444D01*
X79506458Y-72210072D01*
X79486496Y-72400000D01*
X79506458Y-72589928D01*
X79565473Y-72771556D01*
X79568776Y-72777277D01*
X79574389Y-72786998D01*
X79591128Y-72855993D01*
X79574390Y-72913000D01*
X79565473Y-72928444D01*
X79506458Y-73110072D01*
X79505768Y-73116633D01*
X79505768Y-73116635D01*
X79496597Y-73203891D01*
X79486496Y-73300000D01*
X63673937Y-73300000D01*
X63658789Y-73291638D01*
X63653920Y-73289914D01*
X63653916Y-73289912D01*
X63453087Y-73218795D01*
X63453083Y-73218794D01*
X63448212Y-73217069D01*
X63443119Y-73216162D01*
X63443116Y-73216161D01*
X63233373Y-73178800D01*
X63233367Y-73178799D01*
X63228284Y-73177894D01*
X63154452Y-73176992D01*
X63010081Y-73175228D01*
X63010079Y-73175228D01*
X63004911Y-73175165D01*
X62784091Y-73208955D01*
X62571756Y-73278357D01*
X62373607Y-73381507D01*
X62369474Y-73384610D01*
X62369471Y-73384612D01*
X62220842Y-73496206D01*
X62194965Y-73515635D01*
X62040629Y-73677138D01*
X61914743Y-73861680D01*
X61820688Y-74064305D01*
X61760989Y-74279570D01*
X61737251Y-74501695D01*
X60908500Y-74501695D01*
X60908500Y-72334539D01*
X60928502Y-72266418D01*
X60982158Y-72219925D01*
X61052432Y-72209821D01*
X61117012Y-72239315D01*
X61133245Y-72256275D01*
X61167201Y-72299117D01*
X61167207Y-72299123D01*
X61171035Y-72303953D01*
X61175728Y-72307947D01*
X61175729Y-72307948D01*
X61265261Y-72384145D01*
X61321650Y-72432136D01*
X61494294Y-72528624D01*
X61682392Y-72589740D01*
X61878777Y-72613158D01*
X61884912Y-72612686D01*
X61884914Y-72612686D01*
X62069830Y-72598457D01*
X62069834Y-72598456D01*
X62075972Y-72597984D01*
X62266463Y-72544798D01*
X62271967Y-72542018D01*
X62271969Y-72542017D01*
X62437495Y-72458404D01*
X62437497Y-72458403D01*
X62442996Y-72455625D01*
X62598847Y-72333861D01*
X62699251Y-72217542D01*
X62724049Y-72188813D01*
X62724050Y-72188811D01*
X62728078Y-72184145D01*
X62825769Y-72012179D01*
X62830225Y-71998784D01*
X62870707Y-71940459D01*
X62936295Y-71913280D01*
X63006165Y-71925875D01*
X63058135Y-71974245D01*
X63061849Y-71980962D01*
X63145368Y-72143473D01*
X63145373Y-72143481D01*
X63148187Y-72148956D01*
X63271035Y-72303953D01*
X63275728Y-72307947D01*
X63275729Y-72307948D01*
X63365261Y-72384145D01*
X63421650Y-72432136D01*
X63594294Y-72528624D01*
X63782392Y-72589740D01*
X63978777Y-72613158D01*
X63984912Y-72612686D01*
X63984914Y-72612686D01*
X64169830Y-72598457D01*
X64169834Y-72598456D01*
X64175972Y-72597984D01*
X64366463Y-72544798D01*
X64371967Y-72542018D01*
X64371969Y-72542017D01*
X64537495Y-72458404D01*
X64537497Y-72458403D01*
X64542996Y-72455625D01*
X64698847Y-72333861D01*
X64799251Y-72217542D01*
X64824049Y-72188813D01*
X64824050Y-72188811D01*
X64828078Y-72184145D01*
X64925769Y-72012179D01*
X64988197Y-71824513D01*
X65012985Y-71628295D01*
X65013256Y-71608882D01*
X65013331Y-71603523D01*
X65013331Y-71603520D01*
X65013380Y-71600000D01*
X64994080Y-71403167D01*
X64936916Y-71213831D01*
X64844066Y-71039204D01*
X64754226Y-70929049D01*
X64726672Y-70863618D01*
X64738867Y-70793677D01*
X64756488Y-70767083D01*
X64824049Y-70688813D01*
X64824050Y-70688811D01*
X64828078Y-70684145D01*
X64925769Y-70512179D01*
X64988197Y-70324513D01*
X65012985Y-70128295D01*
X65013380Y-70100000D01*
X64994080Y-69903167D01*
X64936916Y-69713831D01*
X64844066Y-69539204D01*
X64833864Y-69526695D01*
X106637251Y-69526695D01*
X106637548Y-69531848D01*
X106637548Y-69531851D01*
X106643011Y-69626590D01*
X106650110Y-69749715D01*
X106651247Y-69754761D01*
X106651248Y-69754767D01*
X106658080Y-69785080D01*
X106699222Y-69967639D01*
X106783266Y-70174616D01*
X106834019Y-70257438D01*
X106875123Y-70324513D01*
X106899987Y-70365088D01*
X107046250Y-70533938D01*
X107050230Y-70537242D01*
X107054981Y-70541187D01*
X107094616Y-70600090D01*
X107096113Y-70671071D01*
X107058997Y-70731593D01*
X107018724Y-70756112D01*
X106903295Y-70799385D01*
X106786739Y-70886739D01*
X106699385Y-71003295D01*
X106648255Y-71139684D01*
X106641500Y-71201866D01*
X106641500Y-72998134D01*
X106648255Y-73060316D01*
X106699385Y-73196705D01*
X106786739Y-73313261D01*
X106903295Y-73400615D01*
X107039684Y-73451745D01*
X107101866Y-73458500D01*
X108898134Y-73458500D01*
X108960316Y-73451745D01*
X109096705Y-73400615D01*
X109213261Y-73313261D01*
X109300615Y-73196705D01*
X109351745Y-73060316D01*
X109358500Y-72998134D01*
X109358500Y-71201866D01*
X109351745Y-71139684D01*
X109300615Y-71003295D01*
X109213261Y-70886739D01*
X109096705Y-70799385D01*
X109064439Y-70787289D01*
X108978203Y-70754960D01*
X108921439Y-70712318D01*
X108896739Y-70645756D01*
X108911947Y-70576408D01*
X108933493Y-70547727D01*
X108963784Y-70517542D01*
X109038096Y-70443489D01*
X109097594Y-70360689D01*
X109165435Y-70266277D01*
X109168453Y-70262077D01*
X109192826Y-70212763D01*
X109265136Y-70066453D01*
X109265137Y-70066451D01*
X109267430Y-70061811D01*
X109332370Y-69848069D01*
X109361529Y-69626590D01*
X109363156Y-69560000D01*
X109344852Y-69337361D01*
X109290431Y-69120702D01*
X109201354Y-68915840D01*
X109080014Y-68728277D01*
X108929670Y-68563051D01*
X108925619Y-68559852D01*
X108925615Y-68559848D01*
X108758414Y-68427800D01*
X108758410Y-68427798D01*
X108754359Y-68424598D01*
X108558789Y-68316638D01*
X108553920Y-68314914D01*
X108553916Y-68314912D01*
X108353087Y-68243795D01*
X108353083Y-68243794D01*
X108348212Y-68242069D01*
X108343119Y-68241162D01*
X108343116Y-68241161D01*
X108133373Y-68203800D01*
X108133367Y-68203799D01*
X108128284Y-68202894D01*
X108054452Y-68201992D01*
X107910081Y-68200228D01*
X107910079Y-68200228D01*
X107904911Y-68200165D01*
X107684091Y-68233955D01*
X107471756Y-68303357D01*
X107273607Y-68406507D01*
X107269474Y-68409610D01*
X107269471Y-68409612D01*
X107111400Y-68528295D01*
X107094965Y-68540635D01*
X106940629Y-68702138D01*
X106937715Y-68706410D01*
X106937714Y-68706411D01*
X106925404Y-68724457D01*
X106814743Y-68886680D01*
X106799003Y-68920590D01*
X106725572Y-69078784D01*
X106720688Y-69089305D01*
X106660989Y-69304570D01*
X106637251Y-69526695D01*
X64833864Y-69526695D01*
X64769207Y-69447418D01*
X64722960Y-69390713D01*
X64722957Y-69390710D01*
X64719065Y-69385938D01*
X64712724Y-69380692D01*
X64571425Y-69263799D01*
X64571421Y-69263797D01*
X64566675Y-69259870D01*
X64392701Y-69165802D01*
X64203768Y-69107318D01*
X64197643Y-69106674D01*
X64197642Y-69106674D01*
X64013204Y-69087289D01*
X64013202Y-69087289D01*
X64007075Y-69086645D01*
X63924576Y-69094153D01*
X63816251Y-69104011D01*
X63816248Y-69104012D01*
X63810112Y-69104570D01*
X63804206Y-69106308D01*
X63804202Y-69106309D01*
X63757939Y-69119925D01*
X63620381Y-69160410D01*
X63614923Y-69163263D01*
X63614919Y-69163265D01*
X63546342Y-69199117D01*
X63445110Y-69252040D01*
X63290975Y-69375968D01*
X63163846Y-69527474D01*
X63160879Y-69532872D01*
X63160875Y-69532877D01*
X63071535Y-69695388D01*
X63068567Y-69700787D01*
X63066703Y-69706664D01*
X63065810Y-69708747D01*
X63020592Y-69763482D01*
X62952960Y-69785080D01*
X62884388Y-69766686D01*
X62837189Y-69714736D01*
X62836916Y-69713831D01*
X62744066Y-69539204D01*
X62638617Y-69409911D01*
X62622953Y-69390705D01*
X62622952Y-69390704D01*
X62619065Y-69385938D01*
X62618867Y-69385774D01*
X62586034Y-69325137D01*
X62591350Y-69254340D01*
X62613865Y-69216463D01*
X62728078Y-69084145D01*
X62825769Y-68912179D01*
X62888197Y-68724513D01*
X62912985Y-68528295D01*
X62913380Y-68500000D01*
X62894080Y-68303167D01*
X62836916Y-68113831D01*
X62744066Y-67939204D01*
X62630534Y-67800000D01*
X62622960Y-67790713D01*
X62622957Y-67790710D01*
X62619065Y-67785938D01*
X62612719Y-67780688D01*
X62471425Y-67663799D01*
X62471421Y-67663797D01*
X62466675Y-67659870D01*
X62292701Y-67565802D01*
X62103768Y-67507318D01*
X62097643Y-67506674D01*
X62097642Y-67506674D01*
X61913204Y-67487289D01*
X61913202Y-67487289D01*
X61907075Y-67486645D01*
X61824576Y-67494153D01*
X61716251Y-67504011D01*
X61716248Y-67504012D01*
X61710112Y-67504570D01*
X61704206Y-67506308D01*
X61704202Y-67506309D01*
X61599076Y-67537249D01*
X61520381Y-67560410D01*
X61514923Y-67563263D01*
X61514919Y-67563265D01*
X61425387Y-67610072D01*
X61345110Y-67652040D01*
X61190975Y-67775968D01*
X61131019Y-67847420D01*
X61071912Y-67886745D01*
X61000924Y-67887871D01*
X60940596Y-67850440D01*
X60910083Y-67786335D01*
X60908500Y-67766427D01*
X60908500Y-67126000D01*
X60928502Y-67057879D01*
X60982158Y-67011386D01*
X61034500Y-67000000D01*
X72114817Y-67000000D01*
X72182938Y-67020002D01*
X72229431Y-67073658D01*
X72239535Y-67143932D01*
X72208454Y-67210308D01*
X72160960Y-67263056D01*
X72065473Y-67428444D01*
X72006458Y-67610072D01*
X71986496Y-67800000D01*
X71987186Y-67806565D01*
X72001699Y-67944645D01*
X72006458Y-67989928D01*
X72065473Y-68171556D01*
X72068776Y-68177278D01*
X72068777Y-68177279D01*
X72083530Y-68202831D01*
X72160960Y-68336944D01*
X72165378Y-68341851D01*
X72165379Y-68341852D01*
X72239884Y-68424598D01*
X72288747Y-68478866D01*
X72443248Y-68591118D01*
X72449276Y-68593802D01*
X72449278Y-68593803D01*
X72611681Y-68666109D01*
X72617712Y-68668794D01*
X72711112Y-68688647D01*
X72798056Y-68707128D01*
X72798061Y-68707128D01*
X72804513Y-68708500D01*
X72995487Y-68708500D01*
X73001939Y-68707128D01*
X73001944Y-68707128D01*
X73088888Y-68688647D01*
X73182288Y-68668794D01*
X73188319Y-68666109D01*
X73350722Y-68593803D01*
X73350724Y-68593802D01*
X73356752Y-68591118D01*
X73511253Y-68478866D01*
X73560116Y-68424598D01*
X73634621Y-68341852D01*
X73634622Y-68341851D01*
X73639040Y-68336944D01*
X73716470Y-68202831D01*
X73731223Y-68177279D01*
X73731224Y-68177278D01*
X73734527Y-68171556D01*
X73793542Y-67989928D01*
X73798302Y-67944645D01*
X73812814Y-67806565D01*
X73813504Y-67800000D01*
X73793542Y-67610072D01*
X73734527Y-67428444D01*
X73639040Y-67263056D01*
X73591546Y-67210308D01*
X73560830Y-67146303D01*
X73569593Y-67075850D01*
X73615056Y-67021318D01*
X73685183Y-67000000D01*
X76250000Y-67000000D01*
X76250000Y-66341951D01*
X76270002Y-66273830D01*
X76323658Y-66227337D01*
X76393932Y-66217233D01*
X76458512Y-66246727D01*
X76469636Y-66257641D01*
X76484213Y-66273830D01*
X76488747Y-66278866D01*
X76575576Y-66341951D01*
X76600000Y-66359696D01*
X76643248Y-66391118D01*
X76649276Y-66393802D01*
X76649278Y-66393803D01*
X76651248Y-66394680D01*
X76817712Y-66468794D01*
X76911112Y-66488647D01*
X76998056Y-66507128D01*
X76998061Y-66507128D01*
X77004513Y-66508500D01*
X77195487Y-66508500D01*
X77201939Y-66507128D01*
X77201944Y-66507128D01*
X77288888Y-66488647D01*
X77382288Y-66468794D01*
X77548752Y-66394680D01*
X77619118Y-66385246D01*
X77651247Y-66394680D01*
X77817712Y-66468794D01*
X77911112Y-66488647D01*
X77998056Y-66507128D01*
X77998061Y-66507128D01*
X78004513Y-66508500D01*
X78195487Y-66508500D01*
X78201939Y-66507128D01*
X78201944Y-66507128D01*
X78288888Y-66488647D01*
X78382288Y-66468794D01*
X78548752Y-66394680D01*
X78550722Y-66393803D01*
X78550724Y-66393802D01*
X78556752Y-66391118D01*
X78600001Y-66359696D01*
X78624424Y-66341951D01*
X78711253Y-66278866D01*
X78715675Y-66273955D01*
X78834621Y-66141852D01*
X78834622Y-66141851D01*
X78839040Y-66136944D01*
X78934527Y-65971556D01*
X78993542Y-65789928D01*
X79013504Y-65600000D01*
X78993542Y-65410072D01*
X78934527Y-65228444D01*
X78839040Y-65063056D01*
X78746527Y-64960310D01*
X78715810Y-64896303D01*
X78724574Y-64825849D01*
X78770036Y-64771318D01*
X78840163Y-64750000D01*
X81000000Y-64750000D01*
X81000000Y-64300000D01*
X82086496Y-64300000D01*
X82106458Y-64489928D01*
X82165473Y-64671556D01*
X82260960Y-64836944D01*
X82388747Y-64978866D01*
X82543248Y-65091118D01*
X82549276Y-65093802D01*
X82549278Y-65093803D01*
X82711681Y-65166109D01*
X82717712Y-65168794D01*
X82811112Y-65188647D01*
X82898056Y-65207128D01*
X82898061Y-65207128D01*
X82904513Y-65208500D01*
X83095487Y-65208500D01*
X83101939Y-65207128D01*
X83101944Y-65207128D01*
X83188888Y-65188647D01*
X83282288Y-65168794D01*
X83288319Y-65166109D01*
X83450722Y-65093803D01*
X83450724Y-65093802D01*
X83456752Y-65091118D01*
X83611253Y-64978866D01*
X83739040Y-64836944D01*
X83834527Y-64671556D01*
X83893542Y-64489928D01*
X83913504Y-64300000D01*
X83893542Y-64110072D01*
X83834527Y-63928444D01*
X83739040Y-63763056D01*
X83611253Y-63621134D01*
X83456752Y-63508882D01*
X83450724Y-63506198D01*
X83450722Y-63506197D01*
X83288319Y-63433891D01*
X83288318Y-63433891D01*
X83282288Y-63431206D01*
X83188887Y-63411353D01*
X83101944Y-63392872D01*
X83101939Y-63392872D01*
X83095487Y-63391500D01*
X82904513Y-63391500D01*
X82898061Y-63392872D01*
X82898056Y-63392872D01*
X82811113Y-63411353D01*
X82717712Y-63431206D01*
X82711682Y-63433891D01*
X82711681Y-63433891D01*
X82549278Y-63506197D01*
X82549276Y-63506198D01*
X82543248Y-63508882D01*
X82388747Y-63621134D01*
X82260960Y-63763056D01*
X82165473Y-63928444D01*
X82106458Y-64110072D01*
X82086496Y-64300000D01*
X81000000Y-64300000D01*
X81000000Y-61085851D01*
X95086719Y-61085851D01*
X95103268Y-61282934D01*
X95104967Y-61288858D01*
X95139274Y-61408500D01*
X95157783Y-61473050D01*
X95248187Y-61648956D01*
X95371035Y-61803953D01*
X95521650Y-61932136D01*
X95694294Y-62028624D01*
X95882392Y-62089740D01*
X96078777Y-62113158D01*
X96084912Y-62112686D01*
X96084914Y-62112686D01*
X96269830Y-62098457D01*
X96269834Y-62098456D01*
X96275972Y-62097984D01*
X96466463Y-62044798D01*
X96471967Y-62042018D01*
X96471969Y-62042017D01*
X96637495Y-61958404D01*
X96637497Y-61958403D01*
X96642996Y-61955625D01*
X96798847Y-61833861D01*
X96928078Y-61684145D01*
X97025769Y-61512179D01*
X97088197Y-61324513D01*
X97112985Y-61128295D01*
X97113380Y-61100000D01*
X97094080Y-60903167D01*
X97036916Y-60713831D01*
X96944066Y-60539204D01*
X96873709Y-60452938D01*
X96822960Y-60390713D01*
X96822957Y-60390710D01*
X96819065Y-60385938D01*
X96812724Y-60380692D01*
X96671425Y-60263799D01*
X96671421Y-60263797D01*
X96666675Y-60259870D01*
X96492701Y-60165802D01*
X96303768Y-60107318D01*
X96297643Y-60106674D01*
X96297642Y-60106674D01*
X96113204Y-60087289D01*
X96113202Y-60087289D01*
X96107075Y-60086645D01*
X96024576Y-60094153D01*
X95916251Y-60104011D01*
X95916248Y-60104012D01*
X95910112Y-60104570D01*
X95904206Y-60106308D01*
X95904202Y-60106309D01*
X95799076Y-60137249D01*
X95720381Y-60160410D01*
X95714923Y-60163263D01*
X95714919Y-60163265D01*
X95624147Y-60210720D01*
X95545110Y-60252040D01*
X95390975Y-60375968D01*
X95263846Y-60527474D01*
X95260879Y-60532872D01*
X95260875Y-60532877D01*
X95257397Y-60539204D01*
X95168567Y-60700787D01*
X95166706Y-60706654D01*
X95166705Y-60706656D01*
X95139912Y-60791118D01*
X95108765Y-60889306D01*
X95086719Y-61085851D01*
X81000000Y-61085851D01*
X81000000Y-59500000D01*
X79628403Y-59500000D01*
X79560282Y-59479998D01*
X79534770Y-59458313D01*
X79411253Y-59321134D01*
X79256752Y-59208882D01*
X79250724Y-59206198D01*
X79250722Y-59206197D01*
X79088319Y-59133891D01*
X79088318Y-59133891D01*
X79082288Y-59131206D01*
X78988888Y-59111353D01*
X78901944Y-59092872D01*
X78901939Y-59092872D01*
X78895487Y-59091500D01*
X78704513Y-59091500D01*
X78698061Y-59092872D01*
X78698056Y-59092872D01*
X78611112Y-59111353D01*
X78517712Y-59131206D01*
X78511682Y-59133891D01*
X78511681Y-59133891D01*
X78349278Y-59206197D01*
X78349276Y-59206198D01*
X78343248Y-59208882D01*
X78188747Y-59321134D01*
X78065232Y-59458312D01*
X78004787Y-59495550D01*
X77971597Y-59500000D01*
X71963585Y-59500000D01*
X71912337Y-59489107D01*
X71788324Y-59433893D01*
X71788321Y-59433892D01*
X71782288Y-59431206D01*
X71740660Y-59422358D01*
X71601944Y-59392872D01*
X71601939Y-59392872D01*
X71595487Y-59391500D01*
X71404513Y-59391500D01*
X71398061Y-59392872D01*
X71398056Y-59392872D01*
X71259340Y-59422358D01*
X71217712Y-59431206D01*
X71211679Y-59433892D01*
X71211676Y-59433893D01*
X71087663Y-59489107D01*
X71036415Y-59500000D01*
X70963585Y-59500000D01*
X70912337Y-59489107D01*
X70788324Y-59433893D01*
X70788321Y-59433892D01*
X70782288Y-59431206D01*
X70740660Y-59422358D01*
X70601944Y-59392872D01*
X70601939Y-59392872D01*
X70595487Y-59391500D01*
X70404513Y-59391500D01*
X70398061Y-59392872D01*
X70398056Y-59392872D01*
X70259340Y-59422358D01*
X70217712Y-59431206D01*
X70211679Y-59433892D01*
X70211676Y-59433893D01*
X70087663Y-59489107D01*
X70036415Y-59500000D01*
X61034500Y-59500000D01*
X60966379Y-59479998D01*
X60919886Y-59426342D01*
X60908500Y-59374000D01*
X60908500Y-58885851D01*
X92586719Y-58885851D01*
X92603268Y-59082934D01*
X92657783Y-59273050D01*
X92660602Y-59278535D01*
X92740446Y-59433893D01*
X92748187Y-59448956D01*
X92871035Y-59603953D01*
X92875728Y-59607947D01*
X92875729Y-59607948D01*
X92994327Y-59708882D01*
X93021650Y-59732136D01*
X93194294Y-59828624D01*
X93382392Y-59889740D01*
X93578777Y-59913158D01*
X93584912Y-59912686D01*
X93584914Y-59912686D01*
X93769830Y-59898457D01*
X93769834Y-59898456D01*
X93775972Y-59897984D01*
X93966463Y-59844798D01*
X93971967Y-59842018D01*
X93971969Y-59842017D01*
X94137495Y-59758404D01*
X94137497Y-59758403D01*
X94142996Y-59755625D01*
X94221692Y-59694141D01*
X94287685Y-59667965D01*
X94357355Y-59681623D01*
X94380925Y-59697477D01*
X94421650Y-59732136D01*
X94594294Y-59828624D01*
X94782392Y-59889740D01*
X94978777Y-59913158D01*
X94984912Y-59912686D01*
X94984914Y-59912686D01*
X95169830Y-59898457D01*
X95169834Y-59898456D01*
X95175972Y-59897984D01*
X95366463Y-59844798D01*
X95371967Y-59842018D01*
X95371969Y-59842017D01*
X95537495Y-59758404D01*
X95537497Y-59758403D01*
X95542996Y-59755625D01*
X95698847Y-59633861D01*
X95806726Y-59508882D01*
X95824049Y-59488813D01*
X95824050Y-59488811D01*
X95828078Y-59484145D01*
X95925769Y-59312179D01*
X95988197Y-59124513D01*
X96012985Y-58928295D01*
X96013380Y-58900000D01*
X95994080Y-58703167D01*
X95936916Y-58513831D01*
X95844066Y-58339204D01*
X95773709Y-58252938D01*
X95722960Y-58190713D01*
X95722957Y-58190710D01*
X95719065Y-58185938D01*
X95712724Y-58180692D01*
X95571425Y-58063799D01*
X95571421Y-58063797D01*
X95566675Y-58059870D01*
X95392701Y-57965802D01*
X95203768Y-57907318D01*
X95197643Y-57906674D01*
X95197642Y-57906674D01*
X95013204Y-57887289D01*
X95013202Y-57887289D01*
X95007075Y-57886645D01*
X94924576Y-57894153D01*
X94816251Y-57904011D01*
X94816248Y-57904012D01*
X94810112Y-57904570D01*
X94804206Y-57906308D01*
X94804202Y-57906309D01*
X94726435Y-57929197D01*
X94620381Y-57960410D01*
X94614923Y-57963263D01*
X94614919Y-57963265D01*
X94524147Y-58010720D01*
X94445110Y-58052040D01*
X94379193Y-58105038D01*
X94313575Y-58132134D01*
X94243720Y-58119451D01*
X94219928Y-58103925D01*
X94171424Y-58063799D01*
X94166675Y-58059870D01*
X93992701Y-57965802D01*
X93803768Y-57907318D01*
X93797643Y-57906674D01*
X93797642Y-57906674D01*
X93613204Y-57887289D01*
X93613202Y-57887289D01*
X93607075Y-57886645D01*
X93524576Y-57894153D01*
X93416251Y-57904011D01*
X93416248Y-57904012D01*
X93410112Y-57904570D01*
X93404206Y-57906308D01*
X93404202Y-57906309D01*
X93326435Y-57929197D01*
X93220381Y-57960410D01*
X93214923Y-57963263D01*
X93214919Y-57963265D01*
X93124147Y-58010720D01*
X93045110Y-58052040D01*
X92890975Y-58175968D01*
X92887011Y-58180692D01*
X92879419Y-58189740D01*
X92763846Y-58327474D01*
X92760879Y-58332872D01*
X92760875Y-58332877D01*
X92757397Y-58339204D01*
X92668567Y-58500787D01*
X92666706Y-58506654D01*
X92666705Y-58506656D01*
X92610627Y-58683436D01*
X92608765Y-58689306D01*
X92586719Y-58885851D01*
X60908500Y-58885851D01*
X60908500Y-57185851D01*
X76886719Y-57185851D01*
X76887235Y-57191995D01*
X76896903Y-57307128D01*
X76903268Y-57382934D01*
X76957783Y-57573050D01*
X77048187Y-57748956D01*
X77171035Y-57903953D01*
X77175728Y-57907947D01*
X77175729Y-57907948D01*
X77243708Y-57965802D01*
X77321650Y-58032136D01*
X77494294Y-58128624D01*
X77682392Y-58189740D01*
X77878777Y-58213158D01*
X77884912Y-58212686D01*
X77884914Y-58212686D01*
X78069830Y-58198457D01*
X78069834Y-58198456D01*
X78075972Y-58197984D01*
X78266463Y-58144798D01*
X78271967Y-58142018D01*
X78271969Y-58142017D01*
X78437495Y-58058404D01*
X78437497Y-58058403D01*
X78442996Y-58055625D01*
X78598847Y-57933861D01*
X78728078Y-57784145D01*
X78825769Y-57612179D01*
X78888197Y-57424513D01*
X78912985Y-57228295D01*
X78913380Y-57200000D01*
X78894080Y-57003167D01*
X78836916Y-56813831D01*
X78744066Y-56639204D01*
X78673709Y-56552938D01*
X78622960Y-56490713D01*
X78622957Y-56490710D01*
X78619065Y-56485938D01*
X78612724Y-56480692D01*
X78471425Y-56363799D01*
X78471421Y-56363797D01*
X78466675Y-56359870D01*
X78292701Y-56265802D01*
X78103768Y-56207318D01*
X78097643Y-56206674D01*
X78097642Y-56206674D01*
X77913204Y-56187289D01*
X77913202Y-56187289D01*
X77907075Y-56186645D01*
X77824576Y-56194153D01*
X77716251Y-56204011D01*
X77716248Y-56204012D01*
X77710112Y-56204570D01*
X77704206Y-56206308D01*
X77704202Y-56206309D01*
X77616449Y-56232136D01*
X77520381Y-56260410D01*
X77514923Y-56263263D01*
X77514919Y-56263265D01*
X77424147Y-56310720D01*
X77345110Y-56352040D01*
X77190975Y-56475968D01*
X77063846Y-56627474D01*
X77060879Y-56632872D01*
X77060875Y-56632877D01*
X77057397Y-56639204D01*
X76968567Y-56800787D01*
X76966706Y-56806654D01*
X76966705Y-56806656D01*
X76927189Y-56931226D01*
X76908765Y-56989306D01*
X76886719Y-57185851D01*
X60908500Y-57185851D01*
X60908500Y-55385851D01*
X81786719Y-55385851D01*
X81803268Y-55582934D01*
X81804967Y-55588858D01*
X81851174Y-55750000D01*
X81857783Y-55773050D01*
X81948187Y-55948956D01*
X82071035Y-56103953D01*
X82075728Y-56107947D01*
X82075729Y-56107948D01*
X82194630Y-56209140D01*
X82221650Y-56232136D01*
X82394294Y-56328624D01*
X82582392Y-56389740D01*
X82778777Y-56413158D01*
X82784912Y-56412686D01*
X82784914Y-56412686D01*
X82949778Y-56400000D01*
X107286496Y-56400000D01*
X107306458Y-56589928D01*
X107365473Y-56771556D01*
X107368776Y-56777278D01*
X107368777Y-56777279D01*
X107393287Y-56819731D01*
X107460960Y-56936944D01*
X107465378Y-56941851D01*
X107465379Y-56941852D01*
X107508107Y-56989306D01*
X107588747Y-57078866D01*
X107687843Y-57150864D01*
X107735999Y-57185851D01*
X107743248Y-57191118D01*
X107749276Y-57193802D01*
X107749278Y-57193803D01*
X107763197Y-57200000D01*
X107917712Y-57268794D01*
X108011113Y-57288647D01*
X108098056Y-57307128D01*
X108098061Y-57307128D01*
X108104513Y-57308500D01*
X108295487Y-57308500D01*
X108301939Y-57307128D01*
X108301944Y-57307128D01*
X108388887Y-57288647D01*
X108482288Y-57268794D01*
X108636803Y-57200000D01*
X108650722Y-57193803D01*
X108650724Y-57193802D01*
X108656752Y-57191118D01*
X108664002Y-57185851D01*
X108712157Y-57150864D01*
X108811253Y-57078866D01*
X108891893Y-56989306D01*
X108934621Y-56941852D01*
X108934622Y-56941851D01*
X108939040Y-56936944D01*
X109006713Y-56819731D01*
X109031223Y-56777279D01*
X109031224Y-56777278D01*
X109034527Y-56771556D01*
X109093542Y-56589928D01*
X109113504Y-56400000D01*
X109108163Y-56349187D01*
X109094232Y-56216635D01*
X109094232Y-56216633D01*
X109093542Y-56210072D01*
X109034527Y-56028444D01*
X108939040Y-55863056D01*
X108913157Y-55834310D01*
X108882439Y-55770303D01*
X108891204Y-55699849D01*
X108913157Y-55665690D01*
X108934621Y-55641852D01*
X108934622Y-55641851D01*
X108939040Y-55636944D01*
X109034527Y-55471556D01*
X109093542Y-55289928D01*
X109113504Y-55100000D01*
X109112814Y-55093435D01*
X109094232Y-54916635D01*
X109094232Y-54916633D01*
X109093542Y-54910072D01*
X109034527Y-54728444D01*
X108939040Y-54563056D01*
X108932600Y-54555903D01*
X108815675Y-54426045D01*
X108815674Y-54426044D01*
X108811253Y-54421134D01*
X108656752Y-54308882D01*
X108650724Y-54306198D01*
X108650722Y-54306197D01*
X108488319Y-54233891D01*
X108488318Y-54233891D01*
X108482288Y-54231206D01*
X108388887Y-54211353D01*
X108301944Y-54192872D01*
X108301939Y-54192872D01*
X108295487Y-54191500D01*
X108104513Y-54191500D01*
X108098061Y-54192872D01*
X108098056Y-54192872D01*
X108011113Y-54211353D01*
X107917712Y-54231206D01*
X107911682Y-54233891D01*
X107911681Y-54233891D01*
X107749278Y-54306197D01*
X107749276Y-54306198D01*
X107743248Y-54308882D01*
X107588747Y-54421134D01*
X107584326Y-54426044D01*
X107584325Y-54426045D01*
X107467401Y-54555903D01*
X107460960Y-54563056D01*
X107365473Y-54728444D01*
X107306458Y-54910072D01*
X107305768Y-54916633D01*
X107305768Y-54916635D01*
X107287186Y-55093435D01*
X107286496Y-55100000D01*
X107306458Y-55289928D01*
X107365473Y-55471556D01*
X107460960Y-55636944D01*
X107465378Y-55641851D01*
X107465379Y-55641852D01*
X107486843Y-55665690D01*
X107517561Y-55729697D01*
X107508796Y-55800151D01*
X107486843Y-55834310D01*
X107460960Y-55863056D01*
X107365473Y-56028444D01*
X107306458Y-56210072D01*
X107305768Y-56216633D01*
X107305768Y-56216635D01*
X107291837Y-56349187D01*
X107286496Y-56400000D01*
X82949778Y-56400000D01*
X82969830Y-56398457D01*
X82969834Y-56398456D01*
X82975972Y-56397984D01*
X83166463Y-56344798D01*
X83171967Y-56342018D01*
X83171969Y-56342017D01*
X83337495Y-56258404D01*
X83337497Y-56258403D01*
X83342996Y-56255625D01*
X83498847Y-56133861D01*
X83628078Y-55984145D01*
X83725769Y-55812179D01*
X83788197Y-55624513D01*
X83812985Y-55428295D01*
X83813380Y-55400000D01*
X83794080Y-55203167D01*
X83736916Y-55013831D01*
X83644066Y-54839204D01*
X83549065Y-54722721D01*
X83522960Y-54690713D01*
X83522957Y-54690710D01*
X83519065Y-54685938D01*
X83512724Y-54680692D01*
X83371425Y-54563799D01*
X83371421Y-54563797D01*
X83366675Y-54559870D01*
X83192701Y-54465802D01*
X83003768Y-54407318D01*
X82997643Y-54406674D01*
X82997642Y-54406674D01*
X82813204Y-54387289D01*
X82813202Y-54387289D01*
X82807075Y-54386645D01*
X82724576Y-54394153D01*
X82616251Y-54404011D01*
X82616248Y-54404012D01*
X82610112Y-54404570D01*
X82604206Y-54406308D01*
X82604202Y-54406309D01*
X82553831Y-54421134D01*
X82420381Y-54460410D01*
X82414923Y-54463263D01*
X82414919Y-54463265D01*
X82324147Y-54510720D01*
X82245110Y-54552040D01*
X82090975Y-54675968D01*
X81963846Y-54827474D01*
X81960879Y-54832872D01*
X81960875Y-54832877D01*
X81882095Y-54976180D01*
X81868567Y-55000787D01*
X81866706Y-55006654D01*
X81866705Y-55006656D01*
X81835012Y-55106565D01*
X81808765Y-55189306D01*
X81786719Y-55385851D01*
X60908500Y-55385851D01*
X60908500Y-52600000D01*
X98086496Y-52600000D01*
X98106458Y-52789928D01*
X98165473Y-52971556D01*
X98260960Y-53136944D01*
X98388747Y-53278866D01*
X98543248Y-53391118D01*
X98549276Y-53393802D01*
X98549278Y-53393803D01*
X98711681Y-53466109D01*
X98717712Y-53468794D01*
X98811112Y-53488647D01*
X98898056Y-53507128D01*
X98898061Y-53507128D01*
X98904513Y-53508500D01*
X99095487Y-53508500D01*
X99101939Y-53507128D01*
X99101944Y-53507128D01*
X99188888Y-53488647D01*
X99282288Y-53468794D01*
X99288319Y-53466109D01*
X99450722Y-53393803D01*
X99450724Y-53393802D01*
X99456752Y-53391118D01*
X99611253Y-53278866D01*
X99739040Y-53136944D01*
X99834527Y-52971556D01*
X99893542Y-52789928D01*
X99913504Y-52600000D01*
X107186496Y-52600000D01*
X107206458Y-52789928D01*
X107265473Y-52971556D01*
X107360960Y-53136944D01*
X107488747Y-53278866D01*
X107643248Y-53391118D01*
X107649276Y-53393802D01*
X107649278Y-53393803D01*
X107811681Y-53466109D01*
X107817712Y-53468794D01*
X107911112Y-53488647D01*
X107998056Y-53507128D01*
X107998061Y-53507128D01*
X108004513Y-53508500D01*
X108195487Y-53508500D01*
X108201939Y-53507128D01*
X108201944Y-53507128D01*
X108288888Y-53488647D01*
X108382288Y-53468794D01*
X108388319Y-53466109D01*
X108550722Y-53393803D01*
X108550724Y-53393802D01*
X108556752Y-53391118D01*
X108711253Y-53278866D01*
X108839040Y-53136944D01*
X108934527Y-52971556D01*
X108993542Y-52789928D01*
X109013504Y-52600000D01*
X108993542Y-52410072D01*
X108934527Y-52228444D01*
X108839040Y-52063056D01*
X108711253Y-51921134D01*
X108556752Y-51808882D01*
X108550724Y-51806198D01*
X108550722Y-51806197D01*
X108388319Y-51733891D01*
X108388318Y-51733891D01*
X108382288Y-51731206D01*
X108288887Y-51711353D01*
X108201944Y-51692872D01*
X108201939Y-51692872D01*
X108195487Y-51691500D01*
X108004513Y-51691500D01*
X107998061Y-51692872D01*
X107998056Y-51692872D01*
X107911113Y-51711353D01*
X107817712Y-51731206D01*
X107811682Y-51733891D01*
X107811681Y-51733891D01*
X107649278Y-51806197D01*
X107649276Y-51806198D01*
X107643248Y-51808882D01*
X107488747Y-51921134D01*
X107360960Y-52063056D01*
X107265473Y-52228444D01*
X107206458Y-52410072D01*
X107186496Y-52600000D01*
X99913504Y-52600000D01*
X99893542Y-52410072D01*
X99834527Y-52228444D01*
X99739040Y-52063056D01*
X99611253Y-51921134D01*
X99456752Y-51808882D01*
X99450724Y-51806198D01*
X99450722Y-51806197D01*
X99288319Y-51733891D01*
X99288318Y-51733891D01*
X99282288Y-51731206D01*
X99188887Y-51711353D01*
X99101944Y-51692872D01*
X99101939Y-51692872D01*
X99095487Y-51691500D01*
X98904513Y-51691500D01*
X98898061Y-51692872D01*
X98898056Y-51692872D01*
X98811113Y-51711353D01*
X98717712Y-51731206D01*
X98711682Y-51733891D01*
X98711681Y-51733891D01*
X98549278Y-51806197D01*
X98549276Y-51806198D01*
X98543248Y-51808882D01*
X98388747Y-51921134D01*
X98260960Y-52063056D01*
X98165473Y-52228444D01*
X98106458Y-52410072D01*
X98086496Y-52600000D01*
X60908500Y-52600000D01*
X60908500Y-46485230D01*
X60928502Y-46417109D01*
X60982158Y-46370616D01*
X61052432Y-46360512D01*
X61117012Y-46390006D01*
X61155405Y-46449761D01*
X61178053Y-46526961D01*
X61246163Y-46759127D01*
X61247190Y-46761740D01*
X61247190Y-46761741D01*
X61385651Y-47114145D01*
X61402789Y-47157765D01*
X61404044Y-47160276D01*
X61572161Y-47496731D01*
X61594231Y-47540901D01*
X61818974Y-47905502D01*
X62075239Y-48248682D01*
X62077100Y-48250760D01*
X62077101Y-48250761D01*
X62359127Y-48565637D01*
X62359133Y-48565643D01*
X62360995Y-48567722D01*
X62673981Y-48860098D01*
X63011719Y-49123493D01*
X63371533Y-49355822D01*
X63374012Y-49357126D01*
X63374015Y-49357128D01*
X63748077Y-49553932D01*
X63748083Y-49553935D01*
X63750577Y-49555247D01*
X63753175Y-49556331D01*
X63753179Y-49556333D01*
X64143263Y-49719109D01*
X64143268Y-49719111D01*
X64145847Y-49720187D01*
X64148512Y-49721030D01*
X64148518Y-49721032D01*
X64370561Y-49791254D01*
X64554214Y-49849336D01*
X64972446Y-49941673D01*
X64975220Y-49942031D01*
X64975221Y-49942031D01*
X65394460Y-49996109D01*
X65394467Y-49996110D01*
X65397230Y-49996466D01*
X65400017Y-49996576D01*
X65400023Y-49996576D01*
X65648238Y-50006328D01*
X65825203Y-50013281D01*
X65827995Y-50013142D01*
X65828000Y-50013142D01*
X66250172Y-49992125D01*
X66250181Y-49992124D01*
X66252976Y-49991985D01*
X66255753Y-49991597D01*
X66255755Y-49991597D01*
X66330066Y-49981219D01*
X66677163Y-49932747D01*
X67094404Y-49836036D01*
X67308307Y-49765915D01*
X67498744Y-49703487D01*
X67498750Y-49703485D01*
X67501397Y-49702617D01*
X67894918Y-49533547D01*
X67900829Y-49530358D01*
X68143298Y-49399528D01*
X68271852Y-49330164D01*
X68629214Y-49094080D01*
X68964175Y-48827162D01*
X69274082Y-48531525D01*
X69275919Y-48529431D01*
X69275927Y-48529422D01*
X69554635Y-48211616D01*
X69556482Y-48209510D01*
X69809139Y-47863666D01*
X69975002Y-47588169D01*
X70028601Y-47499142D01*
X70028606Y-47499133D01*
X70030052Y-47496731D01*
X70217471Y-47111611D01*
X70320653Y-46840695D01*
X70368918Y-46713971D01*
X70368920Y-46713964D01*
X70369914Y-46711355D01*
X70486173Y-46299132D01*
X70537053Y-46028563D01*
X70564811Y-45880954D01*
X70564813Y-45880942D01*
X70565327Y-45878207D01*
X70606750Y-45451911D01*
X70608194Y-45396780D01*
X70613289Y-45202234D01*
X70613289Y-45202220D01*
X70613347Y-45200000D01*
X70594291Y-44772121D01*
X70591914Y-44754420D01*
X70575256Y-44630404D01*
X70537275Y-44347630D01*
X70536618Y-44344723D01*
X70443368Y-43932618D01*
X70443368Y-43932617D01*
X70442750Y-43929887D01*
X70388545Y-43761564D01*
X70312318Y-43524856D01*
X70312316Y-43524849D01*
X70311463Y-43522202D01*
X70144456Y-43127801D01*
X69943050Y-42749807D01*
X69909055Y-42697758D01*
X69710381Y-42393573D01*
X69710378Y-42393569D01*
X69708840Y-42391214D01*
X69689511Y-42366695D01*
X74372251Y-42366695D01*
X74372548Y-42371848D01*
X74372548Y-42371851D01*
X74378011Y-42466590D01*
X74385110Y-42589715D01*
X74386247Y-42594761D01*
X74386248Y-42594767D01*
X74400606Y-42658475D01*
X74434222Y-42807639D01*
X74518266Y-43014616D01*
X74634987Y-43205088D01*
X74781250Y-43373938D01*
X74953126Y-43516632D01*
X75146000Y-43629338D01*
X75354692Y-43709030D01*
X75359760Y-43710061D01*
X75359763Y-43710062D01*
X75467017Y-43731883D01*
X75573597Y-43753567D01*
X75578772Y-43753757D01*
X75578774Y-43753757D01*
X75791673Y-43761564D01*
X75791677Y-43761564D01*
X75796837Y-43761753D01*
X75801957Y-43761097D01*
X75801959Y-43761097D01*
X76013288Y-43734025D01*
X76013289Y-43734025D01*
X76018416Y-43733368D01*
X76023366Y-43731883D01*
X76227429Y-43670661D01*
X76227434Y-43670659D01*
X76232384Y-43669174D01*
X76432994Y-43570896D01*
X76614860Y-43441173D01*
X76682331Y-43373938D01*
X76723479Y-43332933D01*
X76785851Y-43299017D01*
X76856658Y-43304205D01*
X76913419Y-43346851D01*
X76930401Y-43377954D01*
X76971676Y-43488054D01*
X76980214Y-43503649D01*
X77056715Y-43605724D01*
X77069276Y-43618285D01*
X77171351Y-43694786D01*
X77186946Y-43703324D01*
X77307394Y-43748478D01*
X77322649Y-43752105D01*
X77373514Y-43757631D01*
X77380328Y-43758000D01*
X78002885Y-43758000D01*
X78018124Y-43753525D01*
X78019329Y-43752135D01*
X78021000Y-43744452D01*
X78021000Y-43739884D01*
X78529000Y-43739884D01*
X78533475Y-43755123D01*
X78534865Y-43756328D01*
X78542548Y-43757999D01*
X79169669Y-43757999D01*
X79176490Y-43757629D01*
X79227352Y-43752105D01*
X79242604Y-43748479D01*
X79363054Y-43703324D01*
X79378649Y-43694786D01*
X79480724Y-43618285D01*
X79493285Y-43605724D01*
X79569786Y-43503649D01*
X79578324Y-43488054D01*
X79623478Y-43367606D01*
X79627105Y-43352351D01*
X79632631Y-43301486D01*
X79632813Y-43298134D01*
X81766500Y-43298134D01*
X81773255Y-43360316D01*
X81824385Y-43496705D01*
X81911739Y-43613261D01*
X82028295Y-43700615D01*
X82164684Y-43751745D01*
X82226866Y-43758500D01*
X84023134Y-43758500D01*
X84085316Y-43751745D01*
X84221705Y-43700615D01*
X84338261Y-43613261D01*
X84425615Y-43496705D01*
X84430346Y-43484086D01*
X84469598Y-43379382D01*
X84512240Y-43322618D01*
X84578802Y-43297918D01*
X84648150Y-43313126D01*
X84682817Y-43341114D01*
X84711250Y-43373938D01*
X84883126Y-43516632D01*
X85076000Y-43629338D01*
X85284692Y-43709030D01*
X85289760Y-43710061D01*
X85289763Y-43710062D01*
X85397017Y-43731883D01*
X85503597Y-43753567D01*
X85508772Y-43753757D01*
X85508774Y-43753757D01*
X85721673Y-43761564D01*
X85721677Y-43761564D01*
X85726837Y-43761753D01*
X85731957Y-43761097D01*
X85731959Y-43761097D01*
X85943288Y-43734025D01*
X85943289Y-43734025D01*
X85948416Y-43733368D01*
X85953366Y-43731883D01*
X86157429Y-43670661D01*
X86157434Y-43670659D01*
X86162384Y-43669174D01*
X86362994Y-43570896D01*
X86544860Y-43441173D01*
X86613509Y-43372764D01*
X86685036Y-43301486D01*
X86703096Y-43283489D01*
X86762594Y-43200689D01*
X86830435Y-43106277D01*
X86833453Y-43102077D01*
X86843103Y-43082553D01*
X86930136Y-42906453D01*
X86930137Y-42906451D01*
X86932430Y-42901811D01*
X86977861Y-42752280D01*
X86995865Y-42693023D01*
X86995865Y-42693021D01*
X86997370Y-42688069D01*
X87026529Y-42466590D01*
X87028156Y-42400000D01*
X87009852Y-42177361D01*
X86955431Y-41960702D01*
X86866354Y-41755840D01*
X86802353Y-41656909D01*
X86747822Y-41572617D01*
X86747820Y-41572614D01*
X86745014Y-41568277D01*
X86594670Y-41403051D01*
X86590619Y-41399852D01*
X86590615Y-41399848D01*
X86423414Y-41267800D01*
X86423410Y-41267798D01*
X86419359Y-41264598D01*
X86223789Y-41156638D01*
X86218920Y-41154914D01*
X86218916Y-41154912D01*
X86018087Y-41083795D01*
X86018083Y-41083794D01*
X86013212Y-41082069D01*
X86008119Y-41081162D01*
X86008116Y-41081161D01*
X85798373Y-41043800D01*
X85798367Y-41043799D01*
X85793284Y-41042894D01*
X85719452Y-41041992D01*
X85575081Y-41040228D01*
X85575079Y-41040228D01*
X85569911Y-41040165D01*
X85349091Y-41073955D01*
X85136756Y-41143357D01*
X84938607Y-41246507D01*
X84934474Y-41249610D01*
X84934471Y-41249612D01*
X84764100Y-41377530D01*
X84759965Y-41380635D01*
X84681360Y-41462891D01*
X84679283Y-41465064D01*
X84617759Y-41500494D01*
X84546846Y-41497037D01*
X84489060Y-41455791D01*
X84470207Y-41422243D01*
X84428767Y-41311703D01*
X84425615Y-41303295D01*
X84338261Y-41186739D01*
X84221705Y-41099385D01*
X84085316Y-41048255D01*
X84023134Y-41041500D01*
X82226866Y-41041500D01*
X82164684Y-41048255D01*
X82028295Y-41099385D01*
X81911739Y-41186739D01*
X81824385Y-41303295D01*
X81773255Y-41439684D01*
X81766500Y-41501866D01*
X81766500Y-43298134D01*
X79632813Y-43298134D01*
X79633000Y-43294672D01*
X79633000Y-42672115D01*
X79628525Y-42656876D01*
X79627135Y-42655671D01*
X79619452Y-42654000D01*
X78547115Y-42654000D01*
X78531876Y-42658475D01*
X78530671Y-42659865D01*
X78529000Y-42667548D01*
X78529000Y-43739884D01*
X78021000Y-43739884D01*
X78021000Y-42127885D01*
X78529000Y-42127885D01*
X78533475Y-42143124D01*
X78534865Y-42144329D01*
X78542548Y-42146000D01*
X79614884Y-42146000D01*
X79630123Y-42141525D01*
X79631328Y-42140135D01*
X79632999Y-42132452D01*
X79632999Y-41505331D01*
X79632629Y-41498510D01*
X79627105Y-41447648D01*
X79623479Y-41432396D01*
X79578324Y-41311946D01*
X79569786Y-41296351D01*
X79493285Y-41194276D01*
X79480724Y-41181715D01*
X79378649Y-41105214D01*
X79363054Y-41096676D01*
X79242606Y-41051522D01*
X79227351Y-41047895D01*
X79176486Y-41042369D01*
X79169672Y-41042000D01*
X78547115Y-41042000D01*
X78531876Y-41046475D01*
X78530671Y-41047865D01*
X78529000Y-41055548D01*
X78529000Y-42127885D01*
X78021000Y-42127885D01*
X78021000Y-41060116D01*
X78016525Y-41044877D01*
X78015135Y-41043672D01*
X78007452Y-41042001D01*
X77380331Y-41042001D01*
X77373510Y-41042371D01*
X77322648Y-41047895D01*
X77307396Y-41051521D01*
X77186946Y-41096676D01*
X77171351Y-41105214D01*
X77069276Y-41181715D01*
X77056715Y-41194276D01*
X76980214Y-41296351D01*
X76971676Y-41311946D01*
X76930297Y-41422322D01*
X76887655Y-41479087D01*
X76821093Y-41503786D01*
X76751744Y-41488578D01*
X76719121Y-41462891D01*
X76668151Y-41406876D01*
X76668145Y-41406870D01*
X76664670Y-41403051D01*
X76660619Y-41399852D01*
X76660615Y-41399848D01*
X76493414Y-41267800D01*
X76493410Y-41267798D01*
X76489359Y-41264598D01*
X76293789Y-41156638D01*
X76288920Y-41154914D01*
X76288916Y-41154912D01*
X76088087Y-41083795D01*
X76088083Y-41083794D01*
X76083212Y-41082069D01*
X76078119Y-41081162D01*
X76078116Y-41081161D01*
X75868373Y-41043800D01*
X75868367Y-41043799D01*
X75863284Y-41042894D01*
X75789452Y-41041992D01*
X75645081Y-41040228D01*
X75645079Y-41040228D01*
X75639911Y-41040165D01*
X75419091Y-41073955D01*
X75206756Y-41143357D01*
X75008607Y-41246507D01*
X75004474Y-41249610D01*
X75004471Y-41249612D01*
X74834100Y-41377530D01*
X74829965Y-41380635D01*
X74798352Y-41413716D01*
X74718729Y-41497037D01*
X74675629Y-41542138D01*
X74549743Y-41726680D01*
X74455688Y-41929305D01*
X74395989Y-42144570D01*
X74372251Y-42366695D01*
X69689511Y-42366695D01*
X69443680Y-42054860D01*
X69161405Y-41755840D01*
X69151596Y-41745449D01*
X69151593Y-41745446D01*
X69149670Y-41743409D01*
X69147579Y-41741556D01*
X69147571Y-41741548D01*
X68831237Y-41461188D01*
X68831235Y-41461186D01*
X68829137Y-41459327D01*
X68820428Y-41452894D01*
X68663964Y-41337328D01*
X68484621Y-41204863D01*
X68268454Y-41073173D01*
X68121237Y-40983487D01*
X68121230Y-40983483D01*
X68118848Y-40982032D01*
X68081953Y-40963837D01*
X67737228Y-40793838D01*
X67734714Y-40792598D01*
X67335262Y-40638062D01*
X67048590Y-40555589D01*
X66988655Y-40517532D01*
X66958809Y-40453114D01*
X66968528Y-40382786D01*
X67014726Y-40328876D01*
X67083426Y-40308500D01*
X103176912Y-40308500D01*
X103245033Y-40328502D01*
G37*
%TD.AperFunction*%
%TD*%
M02*
