%TF.GenerationSoftware,KiCad,Pcbnew,(6.0.7)*%
%TF.CreationDate,2023-05-29T18:59:42-07:00*%
%TF.ProjectId,STM32F4_Breakout,53544d33-3246-4345-9f42-7265616b6f75,rev?*%
%TF.SameCoordinates,Original*%
%TF.FileFunction,Legend,Bot*%
%TF.FilePolarity,Positive*%
%FSLAX46Y46*%
G04 Gerber Fmt 4.6, Leading zero omitted, Abs format (unit mm)*
G04 Created by KiCad (PCBNEW (6.0.7)) date 2023-05-29 18:59:42*
%MOMM*%
%LPD*%
G01*
G04 APERTURE LIST*
%ADD10C,0.150000*%
G04 APERTURE END LIST*
D10*
X105361904Y-71552380D02*
X104790476Y-71552380D01*
X105076190Y-72552380D02*
X105076190Y-71552380D01*
X104552380Y-71552380D02*
X103885714Y-72552380D01*
X103885714Y-71552380D02*
X104552380Y-72552380D01*
X75300000Y-45038095D02*
X75252380Y-44942857D01*
X75252380Y-44800000D01*
X75300000Y-44657142D01*
X75395238Y-44561904D01*
X75490476Y-44514285D01*
X75680952Y-44466666D01*
X75823809Y-44466666D01*
X76014285Y-44514285D01*
X76109523Y-44561904D01*
X76204761Y-44657142D01*
X76252380Y-44800000D01*
X76252380Y-44895238D01*
X76204761Y-45038095D01*
X76157142Y-45085714D01*
X75823809Y-45085714D01*
X75823809Y-44895238D01*
X76252380Y-45514285D02*
X75252380Y-45514285D01*
X76252380Y-46085714D01*
X75252380Y-46085714D01*
X76252380Y-46561904D02*
X75252380Y-46561904D01*
X75252380Y-46800000D01*
X75300000Y-46942857D01*
X75395238Y-47038095D01*
X75490476Y-47085714D01*
X75680952Y-47133333D01*
X75823809Y-47133333D01*
X76014285Y-47085714D01*
X76109523Y-47038095D01*
X76204761Y-46942857D01*
X76252380Y-46800000D01*
X76252380Y-46561904D01*
X104866666Y-69952380D02*
X105200000Y-69476190D01*
X105438095Y-69952380D02*
X105438095Y-68952380D01*
X105057142Y-68952380D01*
X104961904Y-69000000D01*
X104914285Y-69047619D01*
X104866666Y-69142857D01*
X104866666Y-69285714D01*
X104914285Y-69380952D01*
X104961904Y-69428571D01*
X105057142Y-69476190D01*
X105438095Y-69476190D01*
X104533333Y-68952380D02*
X103866666Y-69952380D01*
X103866666Y-68952380D02*
X104533333Y-69952380D01*
X87952380Y-81728571D02*
X86952380Y-81728571D01*
X87666666Y-82061904D01*
X86952380Y-82395238D01*
X87952380Y-82395238D01*
X87952380Y-82871428D02*
X86952380Y-82871428D01*
X87904761Y-83300000D02*
X87952380Y-83442857D01*
X87952380Y-83680952D01*
X87904761Y-83776190D01*
X87857142Y-83823809D01*
X87761904Y-83871428D01*
X87666666Y-83871428D01*
X87571428Y-83823809D01*
X87523809Y-83776190D01*
X87476190Y-83680952D01*
X87428571Y-83490476D01*
X87380952Y-83395238D01*
X87333333Y-83347619D01*
X87238095Y-83300000D01*
X87142857Y-83300000D01*
X87047619Y-83347619D01*
X87000000Y-83395238D01*
X86952380Y-83490476D01*
X86952380Y-83728571D01*
X87000000Y-83871428D01*
X86952380Y-84490476D02*
X86952380Y-84680952D01*
X87000000Y-84776190D01*
X87095238Y-84871428D01*
X87285714Y-84919047D01*
X87619047Y-84919047D01*
X87809523Y-84871428D01*
X87904761Y-84776190D01*
X87952380Y-84680952D01*
X87952380Y-84490476D01*
X87904761Y-84395238D01*
X87809523Y-84300000D01*
X87619047Y-84252380D01*
X87285714Y-84252380D01*
X87095238Y-84300000D01*
X87000000Y-84395238D01*
X86952380Y-84490476D01*
X83504761Y-44585714D02*
X83552380Y-44728571D01*
X83552380Y-44966666D01*
X83504761Y-45061904D01*
X83457142Y-45109523D01*
X83361904Y-45157142D01*
X83266666Y-45157142D01*
X83171428Y-45109523D01*
X83123809Y-45061904D01*
X83076190Y-44966666D01*
X83028571Y-44776190D01*
X82980952Y-44680952D01*
X82933333Y-44633333D01*
X82838095Y-44585714D01*
X82742857Y-44585714D01*
X82647619Y-44633333D01*
X82600000Y-44680952D01*
X82552380Y-44776190D01*
X82552380Y-45014285D01*
X82600000Y-45157142D01*
X83552380Y-45585714D02*
X82552380Y-45585714D01*
X82552380Y-45823809D01*
X82600000Y-45966666D01*
X82695238Y-46061904D01*
X82790476Y-46109523D01*
X82980952Y-46157142D01*
X83123809Y-46157142D01*
X83314285Y-46109523D01*
X83409523Y-46061904D01*
X83504761Y-45966666D01*
X83552380Y-45823809D01*
X83552380Y-45585714D01*
X83266666Y-46538095D02*
X83266666Y-47014285D01*
X83552380Y-46442857D02*
X82552380Y-46776190D01*
X83552380Y-47109523D01*
X85204761Y-82214285D02*
X85252380Y-82357142D01*
X85252380Y-82595238D01*
X85204761Y-82690476D01*
X85157142Y-82738095D01*
X85061904Y-82785714D01*
X84966666Y-82785714D01*
X84871428Y-82738095D01*
X84823809Y-82690476D01*
X84776190Y-82595238D01*
X84728571Y-82404761D01*
X84680952Y-82309523D01*
X84633333Y-82261904D01*
X84538095Y-82214285D01*
X84442857Y-82214285D01*
X84347619Y-82261904D01*
X84300000Y-82309523D01*
X84252380Y-82404761D01*
X84252380Y-82642857D01*
X84300000Y-82785714D01*
X85157142Y-83785714D02*
X85204761Y-83738095D01*
X85252380Y-83595238D01*
X85252380Y-83500000D01*
X85204761Y-83357142D01*
X85109523Y-83261904D01*
X85014285Y-83214285D01*
X84823809Y-83166666D01*
X84680952Y-83166666D01*
X84490476Y-83214285D01*
X84395238Y-83261904D01*
X84300000Y-83357142D01*
X84252380Y-83500000D01*
X84252380Y-83595238D01*
X84300000Y-83738095D01*
X84347619Y-83785714D01*
X85252380Y-84214285D02*
X84252380Y-84214285D01*
X85252380Y-84785714D02*
X84680952Y-84357142D01*
X84252380Y-84785714D02*
X84823809Y-84214285D01*
X67833333Y-76852380D02*
X67500000Y-77852380D01*
X67166666Y-76852380D01*
X66261904Y-77757142D02*
X66309523Y-77804761D01*
X66452380Y-77852380D01*
X66547619Y-77852380D01*
X66690476Y-77804761D01*
X66785714Y-77709523D01*
X66833333Y-77614285D01*
X66880952Y-77423809D01*
X66880952Y-77280952D01*
X66833333Y-77090476D01*
X66785714Y-76995238D01*
X66690476Y-76900000D01*
X66547619Y-76852380D01*
X66452380Y-76852380D01*
X66309523Y-76900000D01*
X66261904Y-76947619D01*
X65261904Y-77757142D02*
X65309523Y-77804761D01*
X65452380Y-77852380D01*
X65547619Y-77852380D01*
X65690476Y-77804761D01*
X65785714Y-77709523D01*
X65833333Y-77614285D01*
X65880952Y-77423809D01*
X65880952Y-77280952D01*
X65833333Y-77090476D01*
X65785714Y-76995238D01*
X65690476Y-76900000D01*
X65547619Y-76852380D01*
X65452380Y-76852380D01*
X65309523Y-76900000D01*
X65261904Y-76947619D01*
X82657142Y-83233333D02*
X82704761Y-83185714D01*
X82752380Y-83042857D01*
X82752380Y-82947619D01*
X82704761Y-82804761D01*
X82609523Y-82709523D01*
X82514285Y-82661904D01*
X82323809Y-82614285D01*
X82180952Y-82614285D01*
X81990476Y-82661904D01*
X81895238Y-82709523D01*
X81800000Y-82804761D01*
X81752380Y-82947619D01*
X81752380Y-83042857D01*
X81800000Y-83185714D01*
X81847619Y-83233333D01*
X82704761Y-83614285D02*
X82752380Y-83757142D01*
X82752380Y-83995238D01*
X82704761Y-84090476D01*
X82657142Y-84138095D01*
X82561904Y-84185714D01*
X82466666Y-84185714D01*
X82371428Y-84138095D01*
X82323809Y-84090476D01*
X82276190Y-83995238D01*
X82228571Y-83804761D01*
X82180952Y-83709523D01*
X82133333Y-83661904D01*
X82038095Y-83614285D01*
X81942857Y-83614285D01*
X81847619Y-83661904D01*
X81800000Y-83709523D01*
X81752380Y-83804761D01*
X81752380Y-84042857D01*
X81800000Y-84185714D01*
X90452380Y-81728571D02*
X89452380Y-81728571D01*
X90166666Y-82061904D01*
X89452380Y-82395238D01*
X90452380Y-82395238D01*
X89452380Y-83061904D02*
X89452380Y-83252380D01*
X89500000Y-83347619D01*
X89595238Y-83442857D01*
X89785714Y-83490476D01*
X90119047Y-83490476D01*
X90309523Y-83442857D01*
X90404761Y-83347619D01*
X90452380Y-83252380D01*
X90452380Y-83061904D01*
X90404761Y-82966666D01*
X90309523Y-82871428D01*
X90119047Y-82823809D01*
X89785714Y-82823809D01*
X89595238Y-82871428D01*
X89500000Y-82966666D01*
X89452380Y-83061904D01*
X90404761Y-83871428D02*
X90452380Y-84014285D01*
X90452380Y-84252380D01*
X90404761Y-84347619D01*
X90357142Y-84395238D01*
X90261904Y-84442857D01*
X90166666Y-84442857D01*
X90071428Y-84395238D01*
X90023809Y-84347619D01*
X89976190Y-84252380D01*
X89928571Y-84061904D01*
X89880952Y-83966666D01*
X89833333Y-83919047D01*
X89738095Y-83871428D01*
X89642857Y-83871428D01*
X89547619Y-83919047D01*
X89500000Y-83966666D01*
X89452380Y-84061904D01*
X89452380Y-84300000D01*
X89500000Y-84442857D01*
X90452380Y-84871428D02*
X89452380Y-84871428D01*
X67361904Y-74000000D02*
X67457142Y-73952380D01*
X67600000Y-73952380D01*
X67742857Y-74000000D01*
X67838095Y-74095238D01*
X67885714Y-74190476D01*
X67933333Y-74380952D01*
X67933333Y-74523809D01*
X67885714Y-74714285D01*
X67838095Y-74809523D01*
X67742857Y-74904761D01*
X67600000Y-74952380D01*
X67504761Y-74952380D01*
X67361904Y-74904761D01*
X67314285Y-74857142D01*
X67314285Y-74523809D01*
X67504761Y-74523809D01*
X66885714Y-74952380D02*
X66885714Y-73952380D01*
X66314285Y-74952380D01*
X66314285Y-73952380D01*
X65838095Y-74952380D02*
X65838095Y-73952380D01*
X65600000Y-73952380D01*
X65457142Y-74000000D01*
X65361904Y-74095238D01*
X65314285Y-74190476D01*
X65266666Y-74380952D01*
X65266666Y-74523809D01*
X65314285Y-74714285D01*
X65361904Y-74809523D01*
X65457142Y-74904761D01*
X65600000Y-74952380D01*
X65838095Y-74952380D01*
X86604761Y-44709523D02*
X86652380Y-44852380D01*
X86652380Y-45090476D01*
X86604761Y-45185714D01*
X86557142Y-45233333D01*
X86461904Y-45280952D01*
X86366666Y-45280952D01*
X86271428Y-45233333D01*
X86223809Y-45185714D01*
X86176190Y-45090476D01*
X86128571Y-44900000D01*
X86080952Y-44804761D01*
X86033333Y-44757142D01*
X85938095Y-44709523D01*
X85842857Y-44709523D01*
X85747619Y-44757142D01*
X85700000Y-44804761D01*
X85652380Y-44900000D01*
X85652380Y-45138095D01*
X85700000Y-45280952D01*
X86557142Y-46280952D02*
X86604761Y-46233333D01*
X86652380Y-46090476D01*
X86652380Y-45995238D01*
X86604761Y-45852380D01*
X86509523Y-45757142D01*
X86414285Y-45709523D01*
X86223809Y-45661904D01*
X86080952Y-45661904D01*
X85890476Y-45709523D01*
X85795238Y-45757142D01*
X85700000Y-45852380D01*
X85652380Y-45995238D01*
X85652380Y-46090476D01*
X85700000Y-46233333D01*
X85747619Y-46280952D01*
X86652380Y-47185714D02*
X86652380Y-46709523D01*
X85652380Y-46709523D01*
X78052380Y-44561904D02*
X78052380Y-45180952D01*
X78433333Y-44847619D01*
X78433333Y-44990476D01*
X78480952Y-45085714D01*
X78528571Y-45133333D01*
X78623809Y-45180952D01*
X78861904Y-45180952D01*
X78957142Y-45133333D01*
X79004761Y-45085714D01*
X79052380Y-44990476D01*
X79052380Y-44704761D01*
X79004761Y-44609523D01*
X78957142Y-44561904D01*
X78052380Y-45466666D02*
X79052380Y-45800000D01*
X78052380Y-46133333D01*
X78052380Y-46371428D02*
X78052380Y-46990476D01*
X78433333Y-46657142D01*
X78433333Y-46800000D01*
X78480952Y-46895238D01*
X78528571Y-46942857D01*
X78623809Y-46990476D01*
X78861904Y-46990476D01*
X78957142Y-46942857D01*
X79004761Y-46895238D01*
X79052380Y-46800000D01*
X79052380Y-46514285D01*
X79004761Y-46419047D01*
X78957142Y-46371428D01*
M02*
