M48
; DRILL file {KiCad (6.0.7)} date Thu Sep 22 19:59:18 2022
; FORMAT={-:-/ absolute / inch / decimal}
; #@! TF.CreationDate,2022-09-22T19:59:18-07:00
; #@! TF.GenerationSoftware,Kicad,Pcbnew,(6.0.7)
; #@! TF.FileFunction,Plated,1,4,PTH
FMAT,2
INCH
; #@! TA.AperFunction,Plated,PTH,ViaDrill
T1C0.0157
; #@! TA.AperFunction,Plated,PTH,ComponentDrill
T2C0.0197
; #@! TA.AperFunction,Plated,PTH,ComponentDrill
T3C0.0236
; #@! TA.AperFunction,Plated,PTH,ComponentDrill
T4C0.0256
; #@! TA.AperFunction,Plated,PTH,ComponentDrill
T5C0.0276
; #@! TA.AperFunction,Plated,PTH,ComponentDrill
T6C0.0472
; #@! TA.AperFunction,Plated,PTH,ComponentDrill
T7C0.1693
%
G90
G05
T1
X2.8051Y-2.815
X2.8051Y-2.9921
X2.8051Y-3.2283
X2.9134Y-3.0315
X2.9626Y-3.3957
X2.9724Y-3.1398
X3.002Y-2.4311
X3.0217Y-3.5039
X3.0217Y-4.0846
X3.0512Y-3.2972
X3.0807Y-3.1201
X3.0906Y-2.9035
X3.1004Y-2.9626
X3.1004Y-3.2972
X3.1201Y-3.0413
X3.248Y-3.5724
X3.2972Y-2.9232
X3.3268Y-3.622
X3.3858Y-2.7953
X3.5236Y-3.189
X3.5433Y-2.8346
X3.5728Y-3.8091
X3.6614Y-3.4547
X3.6811Y-3.5728
X3.6909Y-3.7402
X3.7008Y-3.0807
X3.7106Y-3.002
X3.7106Y-3.5039
X3.7697Y-2.6476
X3.8189Y-3.0807
X3.8583Y-2.3917
X3.9469Y-3.9173
X3.9469Y-4.0354
X3.9567Y-2.3917
X4.0059Y-2.3917
X4.0059Y-3.5335
X4.1142Y-2.4508
X4.1339Y-3.878
X4.1831Y-3.4744
X4.1929Y-4.0059
X4.2126Y-2.4508
X4.2126Y-2.628
X4.2815Y-2.9823
X4.3307Y-2.372
X4.3504Y-3.4843
X4.3799Y-3.75
X4.3799Y-3.8976
X4.5079Y-3.002
X4.5374Y-3.4941
X4.5374Y-3.8878
T2
X3.4203Y-2.5768
X3.4203Y-3.8996
X3.4695Y-2.5768
X3.4695Y-3.8996
X3.5187Y-2.5768
X3.5187Y-3.8996
X3.5679Y-2.5768
X3.5679Y-3.8996
T3
X2.6388Y-2.4409
X2.6388Y-4.0945
X2.676Y-2.3512
X2.676Y-2.5307
X2.676Y-4.0047
X2.676Y-4.1843
X2.7657Y-2.314
X2.7657Y-2.5679
X2.7657Y-3.9675
X2.7657Y-4.2215
X2.8555Y-2.3512
X2.8555Y-2.5307
X2.8555Y-4.0047
X2.8555Y-4.1843
X2.8927Y-2.4409
X2.8927Y-4.0945
X4.4104Y-2.4409
X4.4104Y-4.0945
X4.4476Y-2.3512
X4.4476Y-2.5307
X4.4476Y-4.0047
X4.4476Y-4.1843
X4.5374Y-2.314
X4.5374Y-2.5679
X4.5374Y-3.9675
X4.5374Y-4.2215
X4.6272Y-2.3512
X4.6272Y-2.5307
X4.6272Y-4.0047
X4.6272Y-4.1843
X4.6644Y-2.4409
X4.6644Y-4.0945
T6
X4.5374Y-3.6024
X4.5374Y-3.7402
T7
X2.7657Y-2.4409
X2.7657Y-4.0945
X4.5374Y-2.4409
X4.5374Y-4.0945
T4
G00X4.5695Y-2.9569
M15
G01X4.5537Y-2.9569
M16
G05
G00X4.5695Y-3.1474
M15
G01X4.5537Y-3.1474
M16
G05
T5
G00X4.6896Y-2.9447
M15
G01X4.6699Y-2.9447
M16
G05
G00X4.6896Y-3.1596
M15
G01X4.6699Y-3.1596
M16
G05
T0
M30
