%TF.GenerationSoftware,KiCad,Pcbnew,(6.0.7)*%
%TF.CreationDate,2022-09-22T19:59:32-07:00*%
%TF.ProjectId,STM32F4_rev2,53544d33-3246-4345-9f72-6576322e6b69,rev?*%
%TF.SameCoordinates,Original*%
%TF.FileFunction,Copper,L2,Inr*%
%TF.FilePolarity,Positive*%
%FSLAX46Y46*%
G04 Gerber Fmt 4.6, Leading zero omitted, Abs format (unit mm)*
G04 Created by KiCad (PCBNEW (6.0.7)) date 2022-09-22 19:59:32*
%MOMM*%
%LPD*%
G01*
G04 APERTURE LIST*
G04 Aperture macros list*
%AMRoundRect*
0 Rectangle with rounded corners*
0 $1 Rounding radius*
0 $2 $3 $4 $5 $6 $7 $8 $9 X,Y pos of 4 corners*
0 Add a 4 corners polygon primitive as box body*
4,1,4,$2,$3,$4,$5,$6,$7,$8,$9,$2,$3,0*
0 Add four circle primitives for the rounded corners*
1,1,$1+$1,$2,$3*
1,1,$1+$1,$4,$5*
1,1,$1+$1,$6,$7*
1,1,$1+$1,$8,$9*
0 Add four rect primitives between the rounded corners*
20,1,$1+$1,$2,$3,$4,$5,0*
20,1,$1+$1,$4,$5,$6,$7,0*
20,1,$1+$1,$6,$7,$8,$9,0*
20,1,$1+$1,$8,$9,$2,$3,0*%
G04 Aperture macros list end*
%TA.AperFunction,ComponentPad*%
%ADD10C,0.900000*%
%TD*%
%TA.AperFunction,ComponentPad*%
%ADD11C,8.600000*%
%TD*%
%TA.AperFunction,ComponentPad*%
%ADD12RoundRect,0.200000X0.200000X0.450000X-0.200000X0.450000X-0.200000X-0.450000X0.200000X-0.450000X0*%
%TD*%
%TA.AperFunction,ComponentPad*%
%ADD13O,0.800000X1.300000*%
%TD*%
%TA.AperFunction,ComponentPad*%
%ADD14O,1.700000X1.350000*%
%TD*%
%TA.AperFunction,ComponentPad*%
%ADD15O,1.500000X1.100000*%
%TD*%
%TA.AperFunction,ComponentPad*%
%ADD16RoundRect,0.200000X-0.200000X-0.450000X0.200000X-0.450000X0.200000X0.450000X-0.200000X0.450000X0*%
%TD*%
%TA.AperFunction,ComponentPad*%
%ADD17R,2.400000X2.400000*%
%TD*%
%TA.AperFunction,ComponentPad*%
%ADD18C,2.400000*%
%TD*%
%TA.AperFunction,ViaPad*%
%ADD19C,0.800000*%
%TD*%
G04 APERTURE END LIST*
D10*
%TO.N,GND*%
%TO.C,H2*%
X115250000Y-107225000D03*
X112025000Y-104000000D03*
X112969581Y-101719581D03*
X117530419Y-101719581D03*
X115250000Y-100775000D03*
X117530419Y-106280419D03*
X112969581Y-106280419D03*
X118475000Y-104000000D03*
D11*
X115250000Y-104000000D03*
%TD*%
D12*
%TO.N,+3.3V*%
%TO.C,J3*%
X90625000Y-65450000D03*
D13*
%TO.N,I2C1_SCL*%
X89375000Y-65450000D03*
%TO.N,I2C1_SDA*%
X88125000Y-65450000D03*
%TO.N,GND*%
X86875000Y-65450000D03*
%TD*%
D14*
%TO.N,unconnected-(J5-Pad6)*%
%TO.C,J5*%
X118865000Y-80255000D03*
D15*
X115865000Y-75105000D03*
D14*
X118865000Y-74795000D03*
D15*
X115865000Y-79945000D03*
%TD*%
D10*
%TO.N,GND*%
%TO.C,H3*%
X70250000Y-65225000D03*
X67969581Y-64280419D03*
D11*
X70250000Y-62000000D03*
D10*
X72530419Y-59719581D03*
X73475000Y-62000000D03*
X72530419Y-64280419D03*
X70250000Y-58775000D03*
X67969581Y-59719581D03*
X67025000Y-62000000D03*
%TD*%
D16*
%TO.N,+3.3V*%
%TO.C,J4*%
X86875000Y-99050000D03*
D13*
%TO.N,USART3_TX*%
X88125000Y-99050000D03*
%TO.N,USART3_RX*%
X89375000Y-99050000D03*
%TO.N,GND*%
X90625000Y-99050000D03*
%TD*%
D17*
%TO.N,+12V*%
%TO.C,J1*%
X115250000Y-95000000D03*
D18*
%TO.N,GND*%
X115250000Y-91500000D03*
%TD*%
D10*
%TO.N,GND*%
%TO.C,H4*%
X112969581Y-64280419D03*
X115250000Y-65225000D03*
X112969581Y-59719581D03*
X112025000Y-62000000D03*
X117530419Y-59719581D03*
D11*
X115250000Y-62000000D03*
D10*
X118475000Y-62000000D03*
X115250000Y-58775000D03*
X117530419Y-64280419D03*
%TD*%
D11*
%TO.N,GND*%
%TO.C,H1*%
X70250000Y-104000000D03*
D10*
X67969581Y-101719581D03*
X67025000Y-104000000D03*
X70250000Y-100775000D03*
X70250000Y-107225000D03*
X67969581Y-106280419D03*
X72530419Y-101719581D03*
X72530419Y-106280419D03*
X73475000Y-104000000D03*
%TD*%
D19*
%TO.N,NRST*%
X95750000Y-67250000D03*
X89500000Y-81000000D03*
%TO.N,GND*%
X101750000Y-60750000D03*
X76250000Y-61750000D03*
X76750000Y-103750000D03*
X97000000Y-78250000D03*
X94250000Y-76250000D03*
X76750000Y-89000000D03*
X77500000Y-83750000D03*
X78750000Y-83750000D03*
X82499478Y-90739668D03*
X94250000Y-89000000D03*
X93500000Y-90750000D03*
X90750000Y-96750000D03*
X100250000Y-102500000D03*
X100250000Y-99500000D03*
X105000000Y-98500000D03*
X115250000Y-98750000D03*
X111250000Y-99000000D03*
X111250000Y-95250000D03*
X101750000Y-89750000D03*
X106250000Y-88250000D03*
X110500000Y-88500000D03*
X115250000Y-88750000D03*
X108750000Y-75750000D03*
X114500000Y-76250000D03*
X110000000Y-60250000D03*
X107000000Y-62250000D03*
%TO.N,+3.3V*%
X104500000Y-62250000D03*
%TO.N,GND*%
X100500000Y-60750000D03*
X83750000Y-74250000D03*
X78500000Y-73750000D03*
X79250000Y-77250000D03*
X71250000Y-82000000D03*
X75500000Y-79750000D03*
X74000000Y-77000000D03*
X71250000Y-76000000D03*
%TO.N,+3.3V*%
X78750000Y-75250000D03*
X94000000Y-78250000D03*
X90000000Y-72000000D03*
X86000000Y-71000000D03*
X78250000Y-79250000D03*
X75250000Y-86250000D03*
X84500000Y-92000000D03*
X93000000Y-87750000D03*
X93750000Y-95000000D03*
X106500000Y-101750000D03*
X107000000Y-66750000D03*
%TO.N,GND*%
X98000000Y-60750000D03*
%TO.N,+3.3V*%
X71250000Y-71500000D03*
%TD*%
%TA.AperFunction,Conductor*%
%TO.N,GND*%
G36*
X114498272Y-57028502D02*
G01*
X114544765Y-57082158D01*
X114554869Y-57152432D01*
X114525375Y-57217012D01*
X114465649Y-57255396D01*
X114450838Y-57258790D01*
X114252128Y-57291864D01*
X114246631Y-57293032D01*
X113837547Y-57399209D01*
X113832181Y-57400861D01*
X113434153Y-57542983D01*
X113428965Y-57545100D01*
X113045133Y-57722050D01*
X113040164Y-57724614D01*
X112673581Y-57934984D01*
X112668848Y-57937987D01*
X112322420Y-58180109D01*
X112317979Y-58183517D01*
X112139445Y-58333589D01*
X112131001Y-58346306D01*
X112137108Y-58356778D01*
X118892094Y-65111764D01*
X118905855Y-65119278D01*
X118915215Y-65112820D01*
X119004244Y-65011303D01*
X119007744Y-65006935D01*
X119257073Y-64665645D01*
X119260168Y-64660987D01*
X119478160Y-64298903D01*
X119480841Y-64293964D01*
X119665779Y-63913946D01*
X119668014Y-63908780D01*
X119818442Y-63513815D01*
X119820201Y-63508496D01*
X119934920Y-63101730D01*
X119936204Y-63096259D01*
X119991670Y-62801301D01*
X120023917Y-62738050D01*
X120085241Y-62702274D01*
X120156172Y-62705332D01*
X120214189Y-62746252D01*
X120240874Y-62812043D01*
X120241500Y-62824587D01*
X120241500Y-74041436D01*
X120221498Y-74109557D01*
X120167842Y-74156050D01*
X120097568Y-74166154D01*
X120032988Y-74136660D01*
X120007216Y-74105861D01*
X120001573Y-74096376D01*
X119858158Y-73932842D01*
X119687342Y-73798181D01*
X119494846Y-73696905D01*
X119446406Y-73681864D01*
X119292639Y-73634117D01*
X119292636Y-73634116D01*
X119287118Y-73632403D01*
X119272833Y-73630712D01*
X119114197Y-73611936D01*
X119114190Y-73611936D01*
X119110510Y-73611500D01*
X118634824Y-73611500D01*
X118473400Y-73626333D01*
X118467838Y-73627902D01*
X118467836Y-73627902D01*
X118368727Y-73655854D01*
X118264055Y-73685374D01*
X118068974Y-73781577D01*
X117894691Y-73911720D01*
X117890777Y-73915954D01*
X117890775Y-73915956D01*
X117756667Y-74061034D01*
X117747044Y-74071444D01*
X117630976Y-74255401D01*
X117550376Y-74457428D01*
X117507941Y-74670761D01*
X117507865Y-74676536D01*
X117507865Y-74676540D01*
X117507108Y-74734406D01*
X117505094Y-74888254D01*
X117506073Y-74893951D01*
X117506073Y-74893952D01*
X117540865Y-75096425D01*
X117541930Y-75102625D01*
X117617214Y-75306693D01*
X117728427Y-75493624D01*
X117871842Y-75657158D01*
X117876373Y-75660730D01*
X118029221Y-75781226D01*
X118042658Y-75791819D01*
X118235154Y-75893095D01*
X118277342Y-75906195D01*
X118437361Y-75955883D01*
X118437364Y-75955884D01*
X118442882Y-75957597D01*
X118448619Y-75958276D01*
X118615803Y-75978064D01*
X118615810Y-75978064D01*
X118619490Y-75978500D01*
X119095176Y-75978500D01*
X119256600Y-75963667D01*
X119262162Y-75962098D01*
X119262164Y-75962098D01*
X119416538Y-75918560D01*
X119465945Y-75904626D01*
X119661026Y-75808423D01*
X119816667Y-75692201D01*
X119830685Y-75681733D01*
X119830686Y-75681732D01*
X119835309Y-75678280D01*
X119839225Y-75674044D01*
X119979037Y-75522796D01*
X119979039Y-75522793D01*
X119982956Y-75518556D01*
X120008938Y-75477377D01*
X120062205Y-75430438D01*
X120132392Y-75419749D01*
X120197216Y-75448704D01*
X120236096Y-75508108D01*
X120241500Y-75544612D01*
X120241500Y-79501436D01*
X120221498Y-79569557D01*
X120167842Y-79616050D01*
X120097568Y-79626154D01*
X120032988Y-79596660D01*
X120007216Y-79565861D01*
X120001573Y-79556376D01*
X119858158Y-79392842D01*
X119804105Y-79350230D01*
X119691876Y-79261755D01*
X119691874Y-79261753D01*
X119687342Y-79258181D01*
X119494846Y-79156905D01*
X119446406Y-79141864D01*
X119292639Y-79094117D01*
X119292636Y-79094116D01*
X119287118Y-79092403D01*
X119272833Y-79090712D01*
X119114197Y-79071936D01*
X119114190Y-79071936D01*
X119110510Y-79071500D01*
X118634824Y-79071500D01*
X118473400Y-79086333D01*
X118467838Y-79087902D01*
X118467836Y-79087902D01*
X118368728Y-79115853D01*
X118264055Y-79145374D01*
X118068974Y-79241577D01*
X118064348Y-79245031D01*
X118064347Y-79245032D01*
X117906904Y-79362600D01*
X117894691Y-79371720D01*
X117747044Y-79531444D01*
X117630976Y-79715401D01*
X117550376Y-79917428D01*
X117507941Y-80130761D01*
X117507865Y-80136536D01*
X117507865Y-80136540D01*
X117506438Y-80245581D01*
X117505094Y-80348254D01*
X117506073Y-80353951D01*
X117506073Y-80353952D01*
X117538819Y-80544518D01*
X117541930Y-80562625D01*
X117617214Y-80766693D01*
X117650481Y-80822609D01*
X117714463Y-80930152D01*
X117728427Y-80953624D01*
X117871842Y-81117158D01*
X117876373Y-81120730D01*
X117972114Y-81196206D01*
X118042658Y-81251819D01*
X118235154Y-81353095D01*
X118274367Y-81365271D01*
X118437361Y-81415883D01*
X118437364Y-81415884D01*
X118442882Y-81417597D01*
X118448619Y-81418276D01*
X118615803Y-81438064D01*
X118615810Y-81438064D01*
X118619490Y-81438500D01*
X119095176Y-81438500D01*
X119256600Y-81423667D01*
X119262162Y-81422098D01*
X119262164Y-81422098D01*
X119361272Y-81394147D01*
X119465945Y-81364626D01*
X119661026Y-81268423D01*
X119835309Y-81138280D01*
X119957065Y-81006565D01*
X119979037Y-80982796D01*
X119979039Y-80982793D01*
X119982956Y-80978556D01*
X120008938Y-80937377D01*
X120062205Y-80890438D01*
X120132392Y-80879749D01*
X120197216Y-80908704D01*
X120236096Y-80968108D01*
X120241500Y-81004612D01*
X120241500Y-103159527D01*
X120221498Y-103227648D01*
X120167842Y-103274141D01*
X120097568Y-103284245D01*
X120032988Y-103254751D01*
X119994604Y-103195025D01*
X119990621Y-103176300D01*
X119987155Y-103150498D01*
X119986162Y-103144976D01*
X119892883Y-102732748D01*
X119891410Y-102727361D01*
X119761847Y-102325025D01*
X119759910Y-102319815D01*
X119595098Y-101930599D01*
X119592683Y-101925536D01*
X119393936Y-101552535D01*
X119391085Y-101547713D01*
X119159974Y-101193865D01*
X119156692Y-101189297D01*
X118918554Y-100887220D01*
X118906629Y-100878749D01*
X118895095Y-100885235D01*
X112135209Y-107645121D01*
X112127595Y-107659065D01*
X112127644Y-107659755D01*
X112131209Y-107665100D01*
X112459802Y-107921363D01*
X112464359Y-107924602D01*
X112819448Y-108153880D01*
X112824250Y-108156686D01*
X113198316Y-108353491D01*
X113203374Y-108355871D01*
X113593435Y-108518638D01*
X113598690Y-108520561D01*
X114001676Y-108648008D01*
X114007075Y-108649455D01*
X114419799Y-108740576D01*
X114424390Y-108741377D01*
X114488057Y-108772794D01*
X114524631Y-108833645D01*
X114522501Y-108904610D01*
X114482342Y-108963157D01*
X114416905Y-108990699D01*
X114402724Y-108991500D01*
X71083941Y-108991500D01*
X71015820Y-108971498D01*
X70969327Y-108917842D01*
X70959223Y-108847568D01*
X70988717Y-108782988D01*
X71048443Y-108744604D01*
X71066514Y-108740711D01*
X71124305Y-108732640D01*
X71129792Y-108731623D01*
X71541543Y-108636185D01*
X71546929Y-108634681D01*
X71948567Y-108503018D01*
X71953784Y-108501046D01*
X72342126Y-108334202D01*
X72347169Y-108331764D01*
X72719131Y-108131063D01*
X72723935Y-108128188D01*
X73076563Y-107895231D01*
X73081126Y-107891916D01*
X73362173Y-107667961D01*
X73370643Y-107655904D01*
X73364216Y-107644546D01*
X69720802Y-104001132D01*
X70785528Y-104001132D01*
X70785659Y-104002965D01*
X70789910Y-104009580D01*
X73892094Y-107111764D01*
X73905855Y-107119278D01*
X73915215Y-107112820D01*
X74004244Y-107011303D01*
X74007744Y-107006935D01*
X74257073Y-106665645D01*
X74260168Y-106660987D01*
X74478160Y-106298903D01*
X74480841Y-106293964D01*
X74665779Y-105913946D01*
X74668014Y-105908780D01*
X74818442Y-105513815D01*
X74820201Y-105508496D01*
X74934920Y-105101730D01*
X74936204Y-105096259D01*
X75014315Y-104680883D01*
X75015102Y-104675346D01*
X75056035Y-104254102D01*
X75056308Y-104249665D01*
X75062788Y-104002233D01*
X75062746Y-103997762D01*
X75057360Y-103876825D01*
X110438855Y-103876825D01*
X110446600Y-104299410D01*
X110446950Y-104304976D01*
X110492231Y-104725208D01*
X110493078Y-104730746D01*
X110575535Y-105145286D01*
X110576864Y-105150698D01*
X110695852Y-105556289D01*
X110697658Y-105561564D01*
X110852219Y-105954948D01*
X110854501Y-105960072D01*
X111043416Y-106338150D01*
X111046140Y-106343043D01*
X111267917Y-106702833D01*
X111271068Y-106707469D01*
X111523955Y-107046127D01*
X111527488Y-107050444D01*
X111582371Y-107111719D01*
X111595866Y-107120082D01*
X111605277Y-107114393D01*
X114706858Y-104012812D01*
X114714472Y-103998868D01*
X114714341Y-103997035D01*
X114710090Y-103990420D01*
X111607863Y-100888193D01*
X111594555Y-100880926D01*
X111584516Y-100888048D01*
X111418223Y-101087994D01*
X111414828Y-101092467D01*
X111174528Y-101440152D01*
X111171549Y-101444902D01*
X110963106Y-101812575D01*
X110960562Y-101817568D01*
X110785629Y-102202312D01*
X110783538Y-102207511D01*
X110643498Y-102606290D01*
X110641877Y-102611659D01*
X110537840Y-103021303D01*
X110536706Y-103026776D01*
X110469496Y-103444054D01*
X110468851Y-103449632D01*
X110439002Y-103871204D01*
X110438855Y-103876825D01*
X75057360Y-103876825D01*
X75043917Y-103574973D01*
X75043419Y-103569386D01*
X74987155Y-103150499D01*
X74986162Y-103144976D01*
X74892883Y-102732748D01*
X74891410Y-102727361D01*
X74761847Y-102325025D01*
X74759910Y-102319815D01*
X74595098Y-101930599D01*
X74592683Y-101925536D01*
X74499152Y-101750000D01*
X105586496Y-101750000D01*
X105606458Y-101939928D01*
X105665473Y-102121556D01*
X105760960Y-102286944D01*
X105888747Y-102428866D01*
X106043248Y-102541118D01*
X106049276Y-102543802D01*
X106049278Y-102543803D01*
X106189627Y-102606290D01*
X106217712Y-102618794D01*
X106311113Y-102638647D01*
X106398056Y-102657128D01*
X106398061Y-102657128D01*
X106404513Y-102658500D01*
X106595487Y-102658500D01*
X106601939Y-102657128D01*
X106601944Y-102657128D01*
X106688887Y-102638647D01*
X106782288Y-102618794D01*
X106810373Y-102606290D01*
X106950722Y-102543803D01*
X106950724Y-102543802D01*
X106956752Y-102541118D01*
X107111253Y-102428866D01*
X107239040Y-102286944D01*
X107334527Y-102121556D01*
X107393542Y-101939928D01*
X107413504Y-101750000D01*
X107393542Y-101560072D01*
X107334527Y-101378444D01*
X107239040Y-101213056D01*
X107221761Y-101193865D01*
X107115675Y-101076045D01*
X107115674Y-101076044D01*
X107111253Y-101071134D01*
X106956752Y-100958882D01*
X106950724Y-100956198D01*
X106950722Y-100956197D01*
X106788319Y-100883891D01*
X106788318Y-100883891D01*
X106782288Y-100881206D01*
X106688887Y-100861353D01*
X106601944Y-100842872D01*
X106601939Y-100842872D01*
X106595487Y-100841500D01*
X106404513Y-100841500D01*
X106398061Y-100842872D01*
X106398056Y-100842872D01*
X106311113Y-100861353D01*
X106217712Y-100881206D01*
X106211682Y-100883891D01*
X106211681Y-100883891D01*
X106049278Y-100956197D01*
X106049276Y-100956198D01*
X106043248Y-100958882D01*
X105888747Y-101071134D01*
X105884326Y-101076044D01*
X105884325Y-101076045D01*
X105778240Y-101193865D01*
X105760960Y-101213056D01*
X105665473Y-101378444D01*
X105606458Y-101560072D01*
X105586496Y-101750000D01*
X74499152Y-101750000D01*
X74393936Y-101552535D01*
X74391085Y-101547713D01*
X74159974Y-101193865D01*
X74156692Y-101189297D01*
X73918554Y-100887220D01*
X73906629Y-100878749D01*
X73895095Y-100885235D01*
X70793142Y-103987188D01*
X70785528Y-104001132D01*
X69720802Y-104001132D01*
X66607863Y-100888193D01*
X66594555Y-100880926D01*
X66584516Y-100888048D01*
X66418223Y-101087994D01*
X66414828Y-101092467D01*
X66174528Y-101440152D01*
X66171549Y-101444902D01*
X65963106Y-101812575D01*
X65960562Y-101817568D01*
X65785629Y-102202312D01*
X65783538Y-102207511D01*
X65643498Y-102606290D01*
X65641877Y-102611659D01*
X65537840Y-103021303D01*
X65536706Y-103026776D01*
X65508897Y-103199433D01*
X65478317Y-103263507D01*
X65417951Y-103300876D01*
X65346964Y-103299676D01*
X65287895Y-103260289D01*
X65259497Y-103195219D01*
X65258500Y-103179397D01*
X65258500Y-100346306D01*
X67131001Y-100346306D01*
X67137108Y-100356778D01*
X70237188Y-103456858D01*
X70251132Y-103464472D01*
X70252965Y-103464341D01*
X70259580Y-103460090D01*
X73362036Y-100357634D01*
X73368222Y-100346306D01*
X112131001Y-100346306D01*
X112137108Y-100356778D01*
X115237188Y-103456858D01*
X115251132Y-103464472D01*
X115252965Y-103464341D01*
X115259580Y-103460090D01*
X118362036Y-100357634D01*
X118369599Y-100343784D01*
X118363272Y-100334562D01*
X118280922Y-100261577D01*
X118276560Y-100258045D01*
X117936600Y-100006948D01*
X117931947Y-100003821D01*
X117570995Y-99783926D01*
X117566094Y-99781232D01*
X117187027Y-99594297D01*
X117181904Y-99592048D01*
X116787707Y-99439545D01*
X116782417Y-99437765D01*
X116376218Y-99320904D01*
X116370794Y-99319602D01*
X115955822Y-99239316D01*
X115950293Y-99238500D01*
X115529828Y-99195420D01*
X115524247Y-99195098D01*
X115101635Y-99189566D01*
X115096024Y-99189742D01*
X114674593Y-99221800D01*
X114669036Y-99222472D01*
X114252128Y-99291864D01*
X114246631Y-99293032D01*
X113837547Y-99399209D01*
X113832181Y-99400861D01*
X113434153Y-99542983D01*
X113428965Y-99545100D01*
X113045133Y-99722050D01*
X113040164Y-99724614D01*
X112673581Y-99934984D01*
X112668848Y-99937987D01*
X112322420Y-100180109D01*
X112317979Y-100183517D01*
X112139445Y-100333589D01*
X112131001Y-100346306D01*
X73368222Y-100346306D01*
X73369599Y-100343784D01*
X73363272Y-100334562D01*
X73280922Y-100261577D01*
X73276560Y-100258045D01*
X72936600Y-100006948D01*
X72931947Y-100003821D01*
X72570995Y-99783926D01*
X72566094Y-99781232D01*
X72187027Y-99594297D01*
X72181904Y-99592048D01*
X71787707Y-99439545D01*
X71782417Y-99437765D01*
X71376218Y-99320904D01*
X71370794Y-99319602D01*
X70955822Y-99239316D01*
X70950293Y-99238500D01*
X70529828Y-99195420D01*
X70524247Y-99195098D01*
X70101635Y-99189566D01*
X70096024Y-99189742D01*
X69674593Y-99221800D01*
X69669036Y-99222472D01*
X69252128Y-99291864D01*
X69246631Y-99293032D01*
X68837547Y-99399209D01*
X68832181Y-99400861D01*
X68434153Y-99542983D01*
X68428965Y-99545100D01*
X68045133Y-99722050D01*
X68040164Y-99724614D01*
X67673581Y-99934984D01*
X67668848Y-99937987D01*
X67322420Y-100180109D01*
X67317979Y-100183517D01*
X67139445Y-100333589D01*
X67131001Y-100346306D01*
X65258500Y-100346306D01*
X65258500Y-98543365D01*
X85966500Y-98543365D01*
X85966501Y-99556634D01*
X85966764Y-99559492D01*
X85966764Y-99559501D01*
X85969755Y-99592048D01*
X85973247Y-99630062D01*
X85975246Y-99636440D01*
X85975246Y-99636441D01*
X85986251Y-99671556D01*
X86024528Y-99793699D01*
X86113361Y-99940381D01*
X86234619Y-100061639D01*
X86381301Y-100150472D01*
X86388548Y-100152743D01*
X86388550Y-100152744D01*
X86431198Y-100166109D01*
X86544938Y-100201753D01*
X86618365Y-100208500D01*
X86621263Y-100208500D01*
X86875665Y-100208499D01*
X87131634Y-100208499D01*
X87134492Y-100208236D01*
X87134501Y-100208236D01*
X87170004Y-100204974D01*
X87205062Y-100201753D01*
X87318802Y-100166109D01*
X87361450Y-100152744D01*
X87361452Y-100152743D01*
X87368699Y-100150472D01*
X87505018Y-100067915D01*
X87573648Y-100049736D01*
X87644350Y-100073755D01*
X87662308Y-100086802D01*
X87668248Y-100091118D01*
X87674276Y-100093802D01*
X87674278Y-100093803D01*
X87806663Y-100152744D01*
X87842712Y-100168794D01*
X87936112Y-100188647D01*
X88023056Y-100207128D01*
X88023061Y-100207128D01*
X88029513Y-100208500D01*
X88220487Y-100208500D01*
X88226939Y-100207128D01*
X88226944Y-100207128D01*
X88313888Y-100188647D01*
X88407288Y-100168794D01*
X88443337Y-100152744D01*
X88575722Y-100093803D01*
X88575724Y-100093802D01*
X88581752Y-100091118D01*
X88587693Y-100086802D01*
X88675939Y-100022687D01*
X88742807Y-99998828D01*
X88811958Y-100014909D01*
X88824061Y-100022687D01*
X88912308Y-100086802D01*
X88918248Y-100091118D01*
X88924276Y-100093802D01*
X88924278Y-100093803D01*
X89056663Y-100152744D01*
X89092712Y-100168794D01*
X89186112Y-100188647D01*
X89273056Y-100207128D01*
X89273061Y-100207128D01*
X89279513Y-100208500D01*
X89470487Y-100208500D01*
X89476939Y-100207128D01*
X89476944Y-100207128D01*
X89563888Y-100188647D01*
X89657288Y-100168794D01*
X89693337Y-100152744D01*
X89825722Y-100093803D01*
X89825724Y-100093802D01*
X89831752Y-100091118D01*
X89926366Y-100022377D01*
X89993230Y-99998520D01*
X90062382Y-100014600D01*
X90074485Y-100022378D01*
X90163157Y-100086802D01*
X90174529Y-100093368D01*
X90233450Y-100119601D01*
X90247427Y-100121475D01*
X90250000Y-100117387D01*
X90250000Y-100108855D01*
X91000000Y-100108855D01*
X91003973Y-100122386D01*
X91008753Y-100123073D01*
X91075471Y-100093368D01*
X91086843Y-100086802D01*
X91230574Y-99982376D01*
X91240337Y-99973585D01*
X91359214Y-99841558D01*
X91366938Y-99830927D01*
X91455765Y-99677074D01*
X91461111Y-99665066D01*
X91516011Y-99496102D01*
X91518741Y-99483261D01*
X91522971Y-99443015D01*
X91520291Y-99428364D01*
X91507971Y-99425000D01*
X91018115Y-99425000D01*
X91002876Y-99429475D01*
X91001671Y-99430865D01*
X91000000Y-99438548D01*
X91000000Y-100108855D01*
X90250000Y-100108855D01*
X90250000Y-99566950D01*
X90256167Y-99528014D01*
X90266502Y-99496206D01*
X90268542Y-99489928D01*
X90274025Y-99437765D01*
X90283156Y-99350880D01*
X90283500Y-99347610D01*
X90283500Y-98752390D01*
X90273462Y-98656885D01*
X91000000Y-98656885D01*
X91004475Y-98672124D01*
X91005865Y-98673329D01*
X91013548Y-98675000D01*
X91506749Y-98675000D01*
X91521041Y-98670803D01*
X91523099Y-98658202D01*
X91518741Y-98616739D01*
X91516011Y-98603898D01*
X91461111Y-98434934D01*
X91455765Y-98422926D01*
X91366938Y-98269073D01*
X91359214Y-98258442D01*
X91240337Y-98126415D01*
X91230574Y-98117624D01*
X91086843Y-98013198D01*
X91075471Y-98006632D01*
X91016550Y-97980399D01*
X91002573Y-97978525D01*
X91000000Y-97982613D01*
X91000000Y-98656885D01*
X90273462Y-98656885D01*
X90268542Y-98610072D01*
X90256167Y-98571986D01*
X90250000Y-98533050D01*
X90250000Y-97991145D01*
X90246027Y-97977614D01*
X90241247Y-97976927D01*
X90174529Y-98006632D01*
X90163157Y-98013198D01*
X90074485Y-98077622D01*
X90007617Y-98101481D01*
X89938466Y-98085400D01*
X89926380Y-98077634D01*
X89831752Y-98008882D01*
X89825724Y-98006198D01*
X89825722Y-98006197D01*
X89663319Y-97933891D01*
X89663318Y-97933891D01*
X89657288Y-97931206D01*
X89563888Y-97911353D01*
X89476944Y-97892872D01*
X89476939Y-97892872D01*
X89470487Y-97891500D01*
X89279513Y-97891500D01*
X89273061Y-97892872D01*
X89273056Y-97892872D01*
X89186112Y-97911353D01*
X89092712Y-97931206D01*
X89086682Y-97933891D01*
X89086681Y-97933891D01*
X88924278Y-98006197D01*
X88924276Y-98006198D01*
X88918248Y-98008882D01*
X88912907Y-98012762D01*
X88912906Y-98012763D01*
X88824061Y-98077313D01*
X88757193Y-98101172D01*
X88688042Y-98085091D01*
X88675939Y-98077313D01*
X88587094Y-98012763D01*
X88587093Y-98012762D01*
X88581752Y-98008882D01*
X88575724Y-98006198D01*
X88575722Y-98006197D01*
X88413319Y-97933891D01*
X88413318Y-97933891D01*
X88407288Y-97931206D01*
X88313888Y-97911353D01*
X88226944Y-97892872D01*
X88226939Y-97892872D01*
X88220487Y-97891500D01*
X88029513Y-97891500D01*
X88023061Y-97892872D01*
X88023056Y-97892872D01*
X87936112Y-97911353D01*
X87842712Y-97931206D01*
X87836682Y-97933891D01*
X87836681Y-97933891D01*
X87674278Y-98006197D01*
X87674276Y-98006198D01*
X87668248Y-98008882D01*
X87662908Y-98012762D01*
X87662906Y-98012763D01*
X87644350Y-98026245D01*
X87577482Y-98050103D01*
X87505018Y-98032085D01*
X87495375Y-98026245D01*
X87368699Y-97949528D01*
X87361452Y-97947257D01*
X87361450Y-97947256D01*
X87295164Y-97926483D01*
X87205062Y-97898247D01*
X87131635Y-97891500D01*
X87128737Y-97891500D01*
X86874335Y-97891501D01*
X86618366Y-97891501D01*
X86615508Y-97891764D01*
X86615499Y-97891764D01*
X86579996Y-97895026D01*
X86544938Y-97898247D01*
X86538560Y-97900246D01*
X86538559Y-97900246D01*
X86388550Y-97947256D01*
X86388548Y-97947257D01*
X86381301Y-97949528D01*
X86234619Y-98038361D01*
X86113361Y-98159619D01*
X86024528Y-98306301D01*
X85973247Y-98469938D01*
X85966500Y-98543365D01*
X65258500Y-98543365D01*
X65258500Y-96248134D01*
X113541500Y-96248134D01*
X113548255Y-96310316D01*
X113599385Y-96446705D01*
X113686739Y-96563261D01*
X113803295Y-96650615D01*
X113939684Y-96701745D01*
X114001866Y-96708500D01*
X116498134Y-96708500D01*
X116560316Y-96701745D01*
X116696705Y-96650615D01*
X116813261Y-96563261D01*
X116900615Y-96446705D01*
X116951745Y-96310316D01*
X116958500Y-96248134D01*
X116958500Y-93751866D01*
X116951745Y-93689684D01*
X116900615Y-93553295D01*
X116813261Y-93436739D01*
X116696705Y-93349385D01*
X116560316Y-93298255D01*
X116498134Y-93291500D01*
X116019696Y-93291500D01*
X115951575Y-93271498D01*
X115905082Y-93217842D01*
X115894978Y-93147568D01*
X115924472Y-93082988D01*
X115969958Y-93049733D01*
X116036577Y-93021111D01*
X116044847Y-93016806D01*
X116147819Y-92953085D01*
X116157233Y-92942588D01*
X116153345Y-92933675D01*
X115262812Y-92043142D01*
X115248868Y-92035528D01*
X115247035Y-92035659D01*
X115240420Y-92039910D01*
X114346773Y-92933557D01*
X114340115Y-92945750D01*
X114347146Y-92955045D01*
X114535213Y-93053992D01*
X114586186Y-93103411D01*
X114602349Y-93172544D01*
X114578570Y-93239440D01*
X114522399Y-93282860D01*
X114476546Y-93291500D01*
X114001866Y-93291500D01*
X113939684Y-93298255D01*
X113803295Y-93349385D01*
X113686739Y-93436739D01*
X113599385Y-93553295D01*
X113548255Y-93689684D01*
X113541500Y-93751866D01*
X113541500Y-96248134D01*
X65258500Y-96248134D01*
X65258500Y-95000000D01*
X92836496Y-95000000D01*
X92856458Y-95189928D01*
X92915473Y-95371556D01*
X93010960Y-95536944D01*
X93138747Y-95678866D01*
X93293248Y-95791118D01*
X93299276Y-95793802D01*
X93299278Y-95793803D01*
X93461681Y-95866109D01*
X93467712Y-95868794D01*
X93561113Y-95888647D01*
X93648056Y-95907128D01*
X93648061Y-95907128D01*
X93654513Y-95908500D01*
X93845487Y-95908500D01*
X93851939Y-95907128D01*
X93851944Y-95907128D01*
X93938887Y-95888647D01*
X94032288Y-95868794D01*
X94038319Y-95866109D01*
X94200722Y-95793803D01*
X94200724Y-95793802D01*
X94206752Y-95791118D01*
X94361253Y-95678866D01*
X94489040Y-95536944D01*
X94584527Y-95371556D01*
X94643542Y-95189928D01*
X94663504Y-95000000D01*
X94643542Y-94810072D01*
X94584527Y-94628444D01*
X94489040Y-94463056D01*
X94361253Y-94321134D01*
X94206752Y-94208882D01*
X94200724Y-94206198D01*
X94200722Y-94206197D01*
X94038319Y-94133891D01*
X94038318Y-94133891D01*
X94032288Y-94131206D01*
X93938887Y-94111353D01*
X93851944Y-94092872D01*
X93851939Y-94092872D01*
X93845487Y-94091500D01*
X93654513Y-94091500D01*
X93648061Y-94092872D01*
X93648056Y-94092872D01*
X93561113Y-94111353D01*
X93467712Y-94131206D01*
X93461682Y-94133891D01*
X93461681Y-94133891D01*
X93299278Y-94206197D01*
X93299276Y-94206198D01*
X93293248Y-94208882D01*
X93138747Y-94321134D01*
X93010960Y-94463056D01*
X92915473Y-94628444D01*
X92856458Y-94810072D01*
X92836496Y-95000000D01*
X65258500Y-95000000D01*
X65258500Y-92000000D01*
X83586496Y-92000000D01*
X83606458Y-92189928D01*
X83665473Y-92371556D01*
X83760960Y-92536944D01*
X83888747Y-92678866D01*
X84043248Y-92791118D01*
X84049276Y-92793802D01*
X84049278Y-92793803D01*
X84211681Y-92866109D01*
X84217712Y-92868794D01*
X84311112Y-92888647D01*
X84398056Y-92907128D01*
X84398061Y-92907128D01*
X84404513Y-92908500D01*
X84595487Y-92908500D01*
X84601939Y-92907128D01*
X84601944Y-92907128D01*
X84688888Y-92888647D01*
X84782288Y-92868794D01*
X84788319Y-92866109D01*
X84950722Y-92793803D01*
X84950724Y-92793802D01*
X84956752Y-92791118D01*
X85111253Y-92678866D01*
X85239040Y-92536944D01*
X85334527Y-92371556D01*
X85393542Y-92189928D01*
X85413504Y-92000000D01*
X85412814Y-91993435D01*
X85394232Y-91816635D01*
X85394232Y-91816633D01*
X85393542Y-91810072D01*
X85334527Y-91628444D01*
X85239040Y-91463056D01*
X85236140Y-91459835D01*
X113538022Y-91459835D01*
X113549754Y-91704064D01*
X113550891Y-91713324D01*
X113598593Y-91953143D01*
X113601082Y-91962118D01*
X113683708Y-92192250D01*
X113687505Y-92200778D01*
X113794755Y-92400381D01*
X113804660Y-92410420D01*
X113811892Y-92407778D01*
X114706858Y-91512812D01*
X114713236Y-91501132D01*
X115785528Y-91501132D01*
X115785659Y-91502965D01*
X115789910Y-91509580D01*
X116680715Y-92400385D01*
X116693095Y-92407145D01*
X116701436Y-92400901D01*
X116752700Y-92321202D01*
X116757147Y-92313011D01*
X116857572Y-92090076D01*
X116860767Y-92081298D01*
X116927135Y-91845973D01*
X116928993Y-91836844D01*
X116960044Y-91592770D01*
X116960525Y-91586483D01*
X116962706Y-91503160D01*
X116962555Y-91496851D01*
X116944321Y-91251486D01*
X116942944Y-91242280D01*
X116888979Y-91003786D01*
X116886255Y-90994875D01*
X116797631Y-90766978D01*
X116793620Y-90758569D01*
X116703738Y-90601309D01*
X116693574Y-90591533D01*
X116685675Y-90594655D01*
X115793142Y-91487188D01*
X115785528Y-91501132D01*
X114713236Y-91501132D01*
X114714472Y-91498868D01*
X114714341Y-91497035D01*
X114710090Y-91490420D01*
X113819104Y-90599434D01*
X113806724Y-90592674D01*
X113799203Y-90598304D01*
X113726322Y-90718409D01*
X113722084Y-90726726D01*
X113627529Y-90952214D01*
X113624572Y-90961052D01*
X113564384Y-91198042D01*
X113562763Y-91207232D01*
X113538267Y-91450510D01*
X113538022Y-91459835D01*
X85236140Y-91459835D01*
X85111253Y-91321134D01*
X84956752Y-91208882D01*
X84950724Y-91206198D01*
X84950722Y-91206197D01*
X84788319Y-91133891D01*
X84788318Y-91133891D01*
X84782288Y-91131206D01*
X84688888Y-91111353D01*
X84601944Y-91092872D01*
X84601939Y-91092872D01*
X84595487Y-91091500D01*
X84404513Y-91091500D01*
X84398061Y-91092872D01*
X84398056Y-91092872D01*
X84311112Y-91111353D01*
X84217712Y-91131206D01*
X84211682Y-91133891D01*
X84211681Y-91133891D01*
X84049278Y-91206197D01*
X84049276Y-91206198D01*
X84043248Y-91208882D01*
X83888747Y-91321134D01*
X83760960Y-91463056D01*
X83665473Y-91628444D01*
X83606458Y-91810072D01*
X83605768Y-91816633D01*
X83605768Y-91816635D01*
X83587186Y-91993435D01*
X83586496Y-92000000D01*
X65258500Y-92000000D01*
X65258500Y-90057153D01*
X114342687Y-90057153D01*
X114347260Y-90066930D01*
X115237188Y-90956858D01*
X115251132Y-90964472D01*
X115252965Y-90964341D01*
X115259580Y-90960090D01*
X116151456Y-90068214D01*
X116157840Y-90056524D01*
X116148428Y-90044414D01*
X116123144Y-90026873D01*
X116115116Y-90022145D01*
X115895810Y-89913995D01*
X115887177Y-89910507D01*
X115654288Y-89835958D01*
X115645238Y-89833785D01*
X115403891Y-89794480D01*
X115394602Y-89793668D01*
X115150114Y-89790467D01*
X115140803Y-89791037D01*
X114898522Y-89824010D01*
X114889403Y-89825948D01*
X114654668Y-89894367D01*
X114645915Y-89897639D01*
X114423871Y-90000002D01*
X114415708Y-90004528D01*
X114351824Y-90046411D01*
X114342687Y-90057153D01*
X65258500Y-90057153D01*
X65258500Y-87750000D01*
X92086496Y-87750000D01*
X92106458Y-87939928D01*
X92165473Y-88121556D01*
X92260960Y-88286944D01*
X92388747Y-88428866D01*
X92543248Y-88541118D01*
X92549276Y-88543802D01*
X92549278Y-88543803D01*
X92711681Y-88616109D01*
X92717712Y-88618794D01*
X92811113Y-88638647D01*
X92898056Y-88657128D01*
X92898061Y-88657128D01*
X92904513Y-88658500D01*
X93095487Y-88658500D01*
X93101939Y-88657128D01*
X93101944Y-88657128D01*
X93188887Y-88638647D01*
X93282288Y-88618794D01*
X93288319Y-88616109D01*
X93450722Y-88543803D01*
X93450724Y-88543802D01*
X93456752Y-88541118D01*
X93611253Y-88428866D01*
X93739040Y-88286944D01*
X93834527Y-88121556D01*
X93893542Y-87939928D01*
X93913504Y-87750000D01*
X93893542Y-87560072D01*
X93834527Y-87378444D01*
X93739040Y-87213056D01*
X93611253Y-87071134D01*
X93456752Y-86958882D01*
X93450724Y-86956198D01*
X93450722Y-86956197D01*
X93288319Y-86883891D01*
X93288318Y-86883891D01*
X93282288Y-86881206D01*
X93188887Y-86861353D01*
X93101944Y-86842872D01*
X93101939Y-86842872D01*
X93095487Y-86841500D01*
X92904513Y-86841500D01*
X92898061Y-86842872D01*
X92898056Y-86842872D01*
X92811113Y-86861353D01*
X92717712Y-86881206D01*
X92711682Y-86883891D01*
X92711681Y-86883891D01*
X92549278Y-86956197D01*
X92549276Y-86956198D01*
X92543248Y-86958882D01*
X92388747Y-87071134D01*
X92260960Y-87213056D01*
X92165473Y-87378444D01*
X92106458Y-87560072D01*
X92086496Y-87750000D01*
X65258500Y-87750000D01*
X65258500Y-86250000D01*
X74336496Y-86250000D01*
X74356458Y-86439928D01*
X74415473Y-86621556D01*
X74510960Y-86786944D01*
X74638747Y-86928866D01*
X74793248Y-87041118D01*
X74799276Y-87043802D01*
X74799278Y-87043803D01*
X74961681Y-87116109D01*
X74967712Y-87118794D01*
X75061112Y-87138647D01*
X75148056Y-87157128D01*
X75148061Y-87157128D01*
X75154513Y-87158500D01*
X75345487Y-87158500D01*
X75351939Y-87157128D01*
X75351944Y-87157128D01*
X75438888Y-87138647D01*
X75532288Y-87118794D01*
X75538319Y-87116109D01*
X75700722Y-87043803D01*
X75700724Y-87043802D01*
X75706752Y-87041118D01*
X75861253Y-86928866D01*
X75989040Y-86786944D01*
X76084527Y-86621556D01*
X76143542Y-86439928D01*
X76163504Y-86250000D01*
X76143542Y-86060072D01*
X76084527Y-85878444D01*
X75989040Y-85713056D01*
X75861253Y-85571134D01*
X75706752Y-85458882D01*
X75700724Y-85456198D01*
X75700722Y-85456197D01*
X75538319Y-85383891D01*
X75538318Y-85383891D01*
X75532288Y-85381206D01*
X75438887Y-85361353D01*
X75351944Y-85342872D01*
X75351939Y-85342872D01*
X75345487Y-85341500D01*
X75154513Y-85341500D01*
X75148061Y-85342872D01*
X75148056Y-85342872D01*
X75061113Y-85361353D01*
X74967712Y-85381206D01*
X74961682Y-85383891D01*
X74961681Y-85383891D01*
X74799278Y-85456197D01*
X74799276Y-85456198D01*
X74793248Y-85458882D01*
X74638747Y-85571134D01*
X74510960Y-85713056D01*
X74415473Y-85878444D01*
X74356458Y-86060072D01*
X74336496Y-86250000D01*
X65258500Y-86250000D01*
X65258500Y-81000000D01*
X88586496Y-81000000D01*
X88587186Y-81006565D01*
X88601393Y-81141733D01*
X88606458Y-81189928D01*
X88665473Y-81371556D01*
X88760960Y-81536944D01*
X88888747Y-81678866D01*
X89043248Y-81791118D01*
X89049276Y-81793802D01*
X89049278Y-81793803D01*
X89211681Y-81866109D01*
X89217712Y-81868794D01*
X89311113Y-81888647D01*
X89398056Y-81907128D01*
X89398061Y-81907128D01*
X89404513Y-81908500D01*
X89595487Y-81908500D01*
X89601939Y-81907128D01*
X89601944Y-81907128D01*
X89688887Y-81888647D01*
X89782288Y-81868794D01*
X89788319Y-81866109D01*
X89950722Y-81793803D01*
X89950724Y-81793802D01*
X89956752Y-81791118D01*
X90111253Y-81678866D01*
X90239040Y-81536944D01*
X90334527Y-81371556D01*
X90393542Y-81189928D01*
X90398608Y-81141733D01*
X90412814Y-81006565D01*
X90413504Y-81000000D01*
X90412094Y-80986584D01*
X90394232Y-80816635D01*
X90394232Y-80816633D01*
X90393542Y-80810072D01*
X90334527Y-80628444D01*
X90239040Y-80463056D01*
X90140803Y-80353952D01*
X90115675Y-80326045D01*
X90115674Y-80326044D01*
X90111253Y-80321134D01*
X89956752Y-80208882D01*
X89950724Y-80206198D01*
X89950722Y-80206197D01*
X89788319Y-80133891D01*
X89788318Y-80133891D01*
X89782288Y-80131206D01*
X89688888Y-80111353D01*
X89601944Y-80092872D01*
X89601939Y-80092872D01*
X89595487Y-80091500D01*
X89404513Y-80091500D01*
X89398061Y-80092872D01*
X89398056Y-80092872D01*
X89311112Y-80111353D01*
X89217712Y-80131206D01*
X89211682Y-80133891D01*
X89211681Y-80133891D01*
X89049278Y-80206197D01*
X89049276Y-80206198D01*
X89043248Y-80208882D01*
X88888747Y-80321134D01*
X88884326Y-80326044D01*
X88884325Y-80326045D01*
X88859198Y-80353952D01*
X88760960Y-80463056D01*
X88665473Y-80628444D01*
X88606458Y-80810072D01*
X88605768Y-80816633D01*
X88605768Y-80816635D01*
X88587906Y-80986584D01*
X88586496Y-81000000D01*
X65258500Y-81000000D01*
X65258500Y-79250000D01*
X77336496Y-79250000D01*
X77337186Y-79256565D01*
X77348331Y-79362600D01*
X77356458Y-79439928D01*
X77415473Y-79621556D01*
X77510960Y-79786944D01*
X77638747Y-79928866D01*
X77793248Y-80041118D01*
X77799276Y-80043802D01*
X77799278Y-80043803D01*
X77906408Y-80091500D01*
X77967712Y-80118794D01*
X78051200Y-80136540D01*
X78148056Y-80157128D01*
X78148061Y-80157128D01*
X78154513Y-80158500D01*
X78345487Y-80158500D01*
X78351939Y-80157128D01*
X78351944Y-80157128D01*
X78448800Y-80136540D01*
X78532288Y-80118794D01*
X78593592Y-80091500D01*
X78700722Y-80043803D01*
X78700724Y-80043802D01*
X78706752Y-80041118D01*
X78849266Y-79937575D01*
X114601404Y-79937575D01*
X114603313Y-79958554D01*
X114619512Y-80136540D01*
X114620218Y-80144303D01*
X114621956Y-80150209D01*
X114621957Y-80150213D01*
X114640367Y-80212763D01*
X114678827Y-80343440D01*
X114774999Y-80527400D01*
X114905071Y-80689177D01*
X114909788Y-80693135D01*
X114909790Y-80693137D01*
X114990993Y-80761274D01*
X115064089Y-80822609D01*
X115069481Y-80825573D01*
X115069485Y-80825576D01*
X115187469Y-80890438D01*
X115245995Y-80922613D01*
X115443861Y-80985379D01*
X115449978Y-80986065D01*
X115449982Y-80986066D01*
X115526598Y-80994659D01*
X115605413Y-81003500D01*
X116117237Y-81003500D01*
X116120293Y-81003200D01*
X116120300Y-81003200D01*
X116265466Y-80988966D01*
X116265469Y-80988965D01*
X116271592Y-80988365D01*
X116403546Y-80948526D01*
X116464407Y-80930152D01*
X116464410Y-80930151D01*
X116470315Y-80928368D01*
X116477635Y-80924476D01*
X116648153Y-80833809D01*
X116648155Y-80833808D01*
X116653599Y-80830913D01*
X116713471Y-80782083D01*
X116809689Y-80703610D01*
X116809692Y-80703607D01*
X116814464Y-80699715D01*
X116868226Y-80634729D01*
X116942855Y-80544518D01*
X116946783Y-80539770D01*
X116950876Y-80532201D01*
X117042584Y-80362590D01*
X117042586Y-80362585D01*
X117045514Y-80357170D01*
X117106898Y-80158871D01*
X117108429Y-80144303D01*
X117127952Y-79958554D01*
X117127952Y-79958552D01*
X117128596Y-79952425D01*
X117120777Y-79866515D01*
X117110341Y-79751836D01*
X117110340Y-79751833D01*
X117109782Y-79745697D01*
X117107298Y-79737255D01*
X117052912Y-79552469D01*
X117051173Y-79546560D01*
X116955001Y-79362600D01*
X116824929Y-79200823D01*
X116812371Y-79190285D01*
X116687855Y-79085804D01*
X116665911Y-79067391D01*
X116660519Y-79064427D01*
X116660515Y-79064424D01*
X116489402Y-78970354D01*
X116484005Y-78967387D01*
X116286139Y-78904621D01*
X116280022Y-78903935D01*
X116280018Y-78903934D01*
X116203402Y-78895341D01*
X116124587Y-78886500D01*
X115612763Y-78886500D01*
X115609707Y-78886800D01*
X115609700Y-78886800D01*
X115464534Y-78901034D01*
X115464531Y-78901035D01*
X115458408Y-78901635D01*
X115355352Y-78932749D01*
X115265593Y-78959848D01*
X115265590Y-78959849D01*
X115259685Y-78961632D01*
X115254240Y-78964527D01*
X115254238Y-78964528D01*
X115081847Y-79056191D01*
X115081845Y-79056192D01*
X115076401Y-79059087D01*
X115033450Y-79094117D01*
X114920311Y-79186390D01*
X114920308Y-79186393D01*
X114915536Y-79190285D01*
X114783217Y-79350230D01*
X114780288Y-79355647D01*
X114780286Y-79355650D01*
X114687416Y-79527410D01*
X114687414Y-79527415D01*
X114684486Y-79532830D01*
X114623102Y-79731129D01*
X114622458Y-79737254D01*
X114622458Y-79737255D01*
X114603522Y-79917428D01*
X114601404Y-79937575D01*
X78849266Y-79937575D01*
X78861253Y-79928866D01*
X78989040Y-79786944D01*
X79084527Y-79621556D01*
X79143542Y-79439928D01*
X79151670Y-79362600D01*
X79162814Y-79256565D01*
X79163504Y-79250000D01*
X79153743Y-79157128D01*
X79144232Y-79066635D01*
X79144232Y-79066633D01*
X79143542Y-79060072D01*
X79084527Y-78878444D01*
X78989040Y-78713056D01*
X78861253Y-78571134D01*
X78706752Y-78458882D01*
X78700724Y-78456198D01*
X78700722Y-78456197D01*
X78538319Y-78383891D01*
X78538318Y-78383891D01*
X78532288Y-78381206D01*
X78438888Y-78361353D01*
X78351944Y-78342872D01*
X78351939Y-78342872D01*
X78345487Y-78341500D01*
X78154513Y-78341500D01*
X78148061Y-78342872D01*
X78148056Y-78342872D01*
X78061112Y-78361353D01*
X77967712Y-78381206D01*
X77961682Y-78383891D01*
X77961681Y-78383891D01*
X77799278Y-78456197D01*
X77799276Y-78456198D01*
X77793248Y-78458882D01*
X77638747Y-78571134D01*
X77510960Y-78713056D01*
X77415473Y-78878444D01*
X77356458Y-79060072D01*
X77355768Y-79066633D01*
X77355768Y-79066635D01*
X77346257Y-79157128D01*
X77336496Y-79250000D01*
X65258500Y-79250000D01*
X65258500Y-78250000D01*
X93086496Y-78250000D01*
X93106458Y-78439928D01*
X93165473Y-78621556D01*
X93260960Y-78786944D01*
X93265378Y-78791851D01*
X93265379Y-78791852D01*
X93350871Y-78886800D01*
X93388747Y-78928866D01*
X93543248Y-79041118D01*
X93549276Y-79043802D01*
X93549278Y-79043803D01*
X93662286Y-79094117D01*
X93717712Y-79118794D01*
X93811113Y-79138647D01*
X93898056Y-79157128D01*
X93898061Y-79157128D01*
X93904513Y-79158500D01*
X94095487Y-79158500D01*
X94101939Y-79157128D01*
X94101944Y-79157128D01*
X94188887Y-79138647D01*
X94282288Y-79118794D01*
X94337714Y-79094117D01*
X94450722Y-79043803D01*
X94450724Y-79043802D01*
X94456752Y-79041118D01*
X94611253Y-78928866D01*
X94649129Y-78886800D01*
X94734621Y-78791852D01*
X94734622Y-78791851D01*
X94739040Y-78786944D01*
X94834527Y-78621556D01*
X94893542Y-78439928D01*
X94913504Y-78250000D01*
X94893542Y-78060072D01*
X94834527Y-77878444D01*
X94739040Y-77713056D01*
X94611253Y-77571134D01*
X94456752Y-77458882D01*
X94450724Y-77456198D01*
X94450722Y-77456197D01*
X94288319Y-77383891D01*
X94288318Y-77383891D01*
X94282288Y-77381206D01*
X94188887Y-77361353D01*
X94101944Y-77342872D01*
X94101939Y-77342872D01*
X94095487Y-77341500D01*
X93904513Y-77341500D01*
X93898061Y-77342872D01*
X93898056Y-77342872D01*
X93811113Y-77361353D01*
X93717712Y-77381206D01*
X93711682Y-77383891D01*
X93711681Y-77383891D01*
X93549278Y-77456197D01*
X93549276Y-77456198D01*
X93543248Y-77458882D01*
X93388747Y-77571134D01*
X93260960Y-77713056D01*
X93165473Y-77878444D01*
X93106458Y-78060072D01*
X93086496Y-78250000D01*
X65258500Y-78250000D01*
X65258500Y-75297064D01*
X66932707Y-75297064D01*
X66961825Y-75489599D01*
X66964028Y-75495585D01*
X66964029Y-75495591D01*
X67026860Y-75666360D01*
X67026862Y-75666365D01*
X67029063Y-75672346D01*
X67032425Y-75677768D01*
X67113435Y-75808423D01*
X67131674Y-75837840D01*
X67136055Y-75842473D01*
X67136056Y-75842474D01*
X67147869Y-75854966D01*
X67265466Y-75979322D01*
X67270696Y-75982984D01*
X67270697Y-75982985D01*
X67347808Y-76036978D01*
X67424975Y-76091011D01*
X67430838Y-76093548D01*
X67597825Y-76165810D01*
X67597829Y-76165811D01*
X67603684Y-76168345D01*
X67609931Y-76169650D01*
X67609934Y-76169651D01*
X67789557Y-76207176D01*
X67789562Y-76207177D01*
X67794293Y-76208165D01*
X67800685Y-76208500D01*
X67943663Y-76208500D01*
X68012951Y-76201462D01*
X68082378Y-76194410D01*
X68082379Y-76194410D01*
X68088727Y-76193765D01*
X68169843Y-76168345D01*
X68268451Y-76137444D01*
X68268456Y-76137442D01*
X68274541Y-76135535D01*
X68375366Y-76079646D01*
X68439271Y-76044223D01*
X68439274Y-76044221D01*
X68444850Y-76041130D01*
X68449691Y-76036981D01*
X68449695Y-76036978D01*
X68587855Y-75918560D01*
X68592698Y-75914409D01*
X68599070Y-75906195D01*
X68708131Y-75765594D01*
X68712046Y-75760547D01*
X68745677Y-75692201D01*
X68795200Y-75591556D01*
X68798018Y-75585829D01*
X68814491Y-75522590D01*
X68845492Y-75403575D01*
X68845492Y-75403572D01*
X68847102Y-75397393D01*
X68852694Y-75290683D01*
X68854827Y-75250000D01*
X77836496Y-75250000D01*
X77837186Y-75256565D01*
X77855461Y-75430438D01*
X77856458Y-75439928D01*
X77915473Y-75621556D01*
X78010960Y-75786944D01*
X78138747Y-75928866D01*
X78293248Y-76041118D01*
X78299276Y-76043802D01*
X78299278Y-76043803D01*
X78405310Y-76091011D01*
X78467712Y-76118794D01*
X78546472Y-76135535D01*
X78648056Y-76157128D01*
X78648061Y-76157128D01*
X78654513Y-76158500D01*
X78845487Y-76158500D01*
X78851939Y-76157128D01*
X78851944Y-76157128D01*
X78953528Y-76135535D01*
X79032288Y-76118794D01*
X79094690Y-76091011D01*
X79200722Y-76043803D01*
X79200724Y-76043802D01*
X79206752Y-76041118D01*
X79361253Y-75928866D01*
X79489040Y-75786944D01*
X79584527Y-75621556D01*
X79643542Y-75439928D01*
X79644540Y-75430438D01*
X79662814Y-75256565D01*
X79663504Y-75250000D01*
X79649689Y-75118554D01*
X79647484Y-75097575D01*
X114601404Y-75097575D01*
X114620218Y-75304303D01*
X114621956Y-75310209D01*
X114621957Y-75310213D01*
X114645738Y-75391014D01*
X114678827Y-75503440D01*
X114774999Y-75687400D01*
X114905071Y-75849177D01*
X114909788Y-75853135D01*
X114909790Y-75853137D01*
X114973022Y-75906195D01*
X115064089Y-75982609D01*
X115069481Y-75985573D01*
X115069485Y-75985576D01*
X115170516Y-76041118D01*
X115245995Y-76082613D01*
X115443861Y-76145379D01*
X115449978Y-76146065D01*
X115449982Y-76146066D01*
X115526598Y-76154659D01*
X115605413Y-76163500D01*
X116117237Y-76163500D01*
X116120293Y-76163200D01*
X116120300Y-76163200D01*
X116265466Y-76148966D01*
X116265469Y-76148965D01*
X116271592Y-76148365D01*
X116403546Y-76108526D01*
X116464407Y-76090152D01*
X116464410Y-76090151D01*
X116470315Y-76088368D01*
X116477635Y-76084476D01*
X116648153Y-75993809D01*
X116648155Y-75993808D01*
X116653599Y-75990913D01*
X116742313Y-75918560D01*
X116809689Y-75863610D01*
X116809692Y-75863607D01*
X116814464Y-75859715D01*
X116946783Y-75699770D01*
X116950876Y-75692201D01*
X117042584Y-75522590D01*
X117042586Y-75522585D01*
X117045514Y-75517170D01*
X117106898Y-75318871D01*
X117108526Y-75303382D01*
X117127952Y-75118554D01*
X117127952Y-75118552D01*
X117128596Y-75112425D01*
X117111116Y-74920351D01*
X117110341Y-74911836D01*
X117110340Y-74911833D01*
X117109782Y-74905697D01*
X117107298Y-74897255D01*
X117052912Y-74712469D01*
X117051173Y-74706560D01*
X116955001Y-74522600D01*
X116824929Y-74360823D01*
X116812371Y-74350285D01*
X116670629Y-74231350D01*
X116665911Y-74227391D01*
X116660519Y-74224427D01*
X116660515Y-74224424D01*
X116489402Y-74130354D01*
X116484005Y-74127387D01*
X116286139Y-74064621D01*
X116280022Y-74063935D01*
X116280018Y-74063934D01*
X116203402Y-74055341D01*
X116124587Y-74046500D01*
X115612763Y-74046500D01*
X115609707Y-74046800D01*
X115609700Y-74046800D01*
X115464534Y-74061034D01*
X115464531Y-74061035D01*
X115458408Y-74061635D01*
X115326893Y-74101341D01*
X115265593Y-74119848D01*
X115265590Y-74119849D01*
X115259685Y-74121632D01*
X115254240Y-74124527D01*
X115254238Y-74124528D01*
X115081847Y-74216191D01*
X115081845Y-74216192D01*
X115076401Y-74219087D01*
X115061365Y-74231350D01*
X114920311Y-74346390D01*
X114920308Y-74346393D01*
X114915536Y-74350285D01*
X114783217Y-74510230D01*
X114780288Y-74515647D01*
X114780286Y-74515650D01*
X114687416Y-74687410D01*
X114687414Y-74687415D01*
X114684486Y-74692830D01*
X114623102Y-74891129D01*
X114622458Y-74897254D01*
X114622458Y-74897255D01*
X114605346Y-75060072D01*
X114601404Y-75097575D01*
X79647484Y-75097575D01*
X79644232Y-75066635D01*
X79644232Y-75066633D01*
X79643542Y-75060072D01*
X79584527Y-74878444D01*
X79489040Y-74713056D01*
X79478857Y-74701746D01*
X79365675Y-74576045D01*
X79365674Y-74576044D01*
X79361253Y-74571134D01*
X79206752Y-74458882D01*
X79200724Y-74456198D01*
X79200722Y-74456197D01*
X79038319Y-74383891D01*
X79038318Y-74383891D01*
X79032288Y-74381206D01*
X78917764Y-74356863D01*
X78851944Y-74342872D01*
X78851939Y-74342872D01*
X78845487Y-74341500D01*
X78654513Y-74341500D01*
X78648061Y-74342872D01*
X78648056Y-74342872D01*
X78582236Y-74356863D01*
X78467712Y-74381206D01*
X78461682Y-74383891D01*
X78461681Y-74383891D01*
X78299278Y-74456197D01*
X78299276Y-74456198D01*
X78293248Y-74458882D01*
X78138747Y-74571134D01*
X78134326Y-74576044D01*
X78134325Y-74576045D01*
X78021144Y-74701746D01*
X78010960Y-74713056D01*
X77915473Y-74878444D01*
X77856458Y-75060072D01*
X77855768Y-75066633D01*
X77855768Y-75066635D01*
X77850311Y-75118554D01*
X77836496Y-75250000D01*
X68854827Y-75250000D01*
X68856959Y-75209317D01*
X68856959Y-75209313D01*
X68857293Y-75202936D01*
X68828175Y-75010401D01*
X68825972Y-75004415D01*
X68825971Y-75004409D01*
X68763140Y-74833640D01*
X68763138Y-74833635D01*
X68760937Y-74827654D01*
X68685855Y-74706560D01*
X68661688Y-74667582D01*
X68661687Y-74667581D01*
X68658326Y-74662160D01*
X68524534Y-74520678D01*
X68517354Y-74515650D01*
X68370259Y-74412654D01*
X68365025Y-74408989D01*
X68297652Y-74379834D01*
X68192175Y-74334190D01*
X68192171Y-74334189D01*
X68186316Y-74331655D01*
X68180069Y-74330350D01*
X68180066Y-74330349D01*
X68000443Y-74292824D01*
X68000438Y-74292823D01*
X67995707Y-74291835D01*
X67989315Y-74291500D01*
X67846337Y-74291500D01*
X67777049Y-74298538D01*
X67707622Y-74305590D01*
X67707621Y-74305590D01*
X67701273Y-74306235D01*
X67644939Y-74323889D01*
X67521549Y-74362556D01*
X67521544Y-74362558D01*
X67515459Y-74364465D01*
X67439713Y-74406452D01*
X67350729Y-74455777D01*
X67350726Y-74455779D01*
X67345150Y-74458870D01*
X67340309Y-74463019D01*
X67340305Y-74463022D01*
X67202145Y-74581440D01*
X67197302Y-74585591D01*
X67077954Y-74739453D01*
X67075138Y-74745176D01*
X67075136Y-74745179D01*
X67031608Y-74833640D01*
X66991982Y-74914171D01*
X66990373Y-74920349D01*
X66990372Y-74920351D01*
X66953978Y-75060072D01*
X66942898Y-75102607D01*
X66941328Y-75132572D01*
X66935174Y-75250000D01*
X66932707Y-75297064D01*
X65258500Y-75297064D01*
X65258500Y-72297064D01*
X66932707Y-72297064D01*
X66961825Y-72489599D01*
X66964028Y-72495585D01*
X66964029Y-72495591D01*
X67026860Y-72666360D01*
X67026862Y-72666365D01*
X67029063Y-72672346D01*
X67131674Y-72837840D01*
X67136055Y-72842473D01*
X67136056Y-72842474D01*
X67162243Y-72870166D01*
X67265466Y-72979322D01*
X67424975Y-73091011D01*
X67430838Y-73093548D01*
X67597825Y-73165810D01*
X67597829Y-73165811D01*
X67603684Y-73168345D01*
X67609931Y-73169650D01*
X67609934Y-73169651D01*
X67789557Y-73207176D01*
X67789562Y-73207177D01*
X67794293Y-73208165D01*
X67800685Y-73208500D01*
X67943663Y-73208500D01*
X68012951Y-73201462D01*
X68082378Y-73194410D01*
X68082379Y-73194410D01*
X68088727Y-73193765D01*
X68169843Y-73168345D01*
X68268451Y-73137444D01*
X68268456Y-73137442D01*
X68274541Y-73135535D01*
X68361475Y-73087346D01*
X68439271Y-73044223D01*
X68439274Y-73044221D01*
X68444850Y-73041130D01*
X68449691Y-73036981D01*
X68449695Y-73036978D01*
X68587855Y-72918560D01*
X68592698Y-72914409D01*
X68630164Y-72866109D01*
X68708131Y-72765594D01*
X68712046Y-72760547D01*
X68750328Y-72682749D01*
X68795200Y-72591556D01*
X68798018Y-72585829D01*
X68812241Y-72531226D01*
X68845492Y-72403575D01*
X68845492Y-72403572D01*
X68847102Y-72397393D01*
X68857293Y-72202936D01*
X68833799Y-72047587D01*
X68829130Y-72016715D01*
X68829130Y-72016714D01*
X68828175Y-72010401D01*
X68825972Y-72004415D01*
X68825971Y-72004409D01*
X68763140Y-71833640D01*
X68763138Y-71833635D01*
X68760937Y-71827654D01*
X68703121Y-71734406D01*
X68661688Y-71667582D01*
X68661687Y-71667581D01*
X68658326Y-71662160D01*
X68524534Y-71520678D01*
X68504379Y-71506565D01*
X68495003Y-71500000D01*
X70336496Y-71500000D01*
X70337186Y-71506565D01*
X70353540Y-71662160D01*
X70356458Y-71689928D01*
X70415473Y-71871556D01*
X70418776Y-71877278D01*
X70418777Y-71877279D01*
X70436770Y-71908444D01*
X70510960Y-72036944D01*
X70638747Y-72178866D01*
X70793248Y-72291118D01*
X70799276Y-72293802D01*
X70799278Y-72293803D01*
X70959799Y-72365271D01*
X70967712Y-72368794D01*
X71061113Y-72388647D01*
X71148056Y-72407128D01*
X71148061Y-72407128D01*
X71154513Y-72408500D01*
X71345487Y-72408500D01*
X71351939Y-72407128D01*
X71351944Y-72407128D01*
X71438887Y-72388647D01*
X71532288Y-72368794D01*
X71540201Y-72365271D01*
X71700722Y-72293803D01*
X71700724Y-72293802D01*
X71706752Y-72291118D01*
X71861253Y-72178866D01*
X71989040Y-72036944D01*
X72010370Y-72000000D01*
X89086496Y-72000000D01*
X89087186Y-72006565D01*
X89096631Y-72096425D01*
X89106458Y-72189928D01*
X89165473Y-72371556D01*
X89168776Y-72377278D01*
X89168777Y-72377279D01*
X89186803Y-72408500D01*
X89260960Y-72536944D01*
X89265378Y-72541851D01*
X89265379Y-72541852D01*
X89382876Y-72672346D01*
X89388747Y-72678866D01*
X89543248Y-72791118D01*
X89549276Y-72793802D01*
X89549278Y-72793803D01*
X89658596Y-72842474D01*
X89717712Y-72868794D01*
X89811113Y-72888647D01*
X89898056Y-72907128D01*
X89898061Y-72907128D01*
X89904513Y-72908500D01*
X90095487Y-72908500D01*
X90101939Y-72907128D01*
X90101944Y-72907128D01*
X90188887Y-72888647D01*
X90282288Y-72868794D01*
X90341404Y-72842474D01*
X90450722Y-72793803D01*
X90450724Y-72793802D01*
X90456752Y-72791118D01*
X90611253Y-72678866D01*
X90617124Y-72672346D01*
X90734621Y-72541852D01*
X90734622Y-72541851D01*
X90739040Y-72536944D01*
X90813197Y-72408500D01*
X90831223Y-72377279D01*
X90831224Y-72377278D01*
X90834527Y-72371556D01*
X90893542Y-72189928D01*
X90903370Y-72096425D01*
X90912814Y-72006565D01*
X90913504Y-72000000D01*
X90893542Y-71810072D01*
X90834527Y-71628444D01*
X90739040Y-71463056D01*
X90650269Y-71364465D01*
X90615675Y-71326045D01*
X90615674Y-71326044D01*
X90611253Y-71321134D01*
X90456752Y-71208882D01*
X90450724Y-71206198D01*
X90450722Y-71206197D01*
X90288319Y-71133891D01*
X90288318Y-71133891D01*
X90282288Y-71131206D01*
X90188887Y-71111353D01*
X90101944Y-71092872D01*
X90101939Y-71092872D01*
X90095487Y-71091500D01*
X89904513Y-71091500D01*
X89898061Y-71092872D01*
X89898056Y-71092872D01*
X89811113Y-71111353D01*
X89717712Y-71131206D01*
X89711682Y-71133891D01*
X89711681Y-71133891D01*
X89549278Y-71206197D01*
X89549276Y-71206198D01*
X89543248Y-71208882D01*
X89388747Y-71321134D01*
X89384326Y-71326044D01*
X89384325Y-71326045D01*
X89349732Y-71364465D01*
X89260960Y-71463056D01*
X89165473Y-71628444D01*
X89106458Y-71810072D01*
X89086496Y-72000000D01*
X72010370Y-72000000D01*
X72063230Y-71908444D01*
X72081223Y-71877279D01*
X72081224Y-71877278D01*
X72084527Y-71871556D01*
X72143542Y-71689928D01*
X72146461Y-71662160D01*
X72162814Y-71506565D01*
X72163504Y-71500000D01*
X72154324Y-71412654D01*
X72144232Y-71316635D01*
X72144232Y-71316633D01*
X72143542Y-71310072D01*
X72084527Y-71128444D01*
X72063990Y-71092872D01*
X72014160Y-71006565D01*
X72010370Y-71000000D01*
X85086496Y-71000000D01*
X85106458Y-71189928D01*
X85165473Y-71371556D01*
X85260960Y-71536944D01*
X85265378Y-71541851D01*
X85265379Y-71541852D01*
X85338194Y-71622721D01*
X85388747Y-71678866D01*
X85543248Y-71791118D01*
X85549276Y-71793802D01*
X85549278Y-71793803D01*
X85638754Y-71833640D01*
X85717712Y-71868794D01*
X85811112Y-71888647D01*
X85898056Y-71907128D01*
X85898061Y-71907128D01*
X85904513Y-71908500D01*
X86095487Y-71908500D01*
X86101939Y-71907128D01*
X86101944Y-71907128D01*
X86188888Y-71888647D01*
X86282288Y-71868794D01*
X86361246Y-71833640D01*
X86450722Y-71793803D01*
X86450724Y-71793802D01*
X86456752Y-71791118D01*
X86611253Y-71678866D01*
X86661806Y-71622721D01*
X86734621Y-71541852D01*
X86734622Y-71541851D01*
X86739040Y-71536944D01*
X86834527Y-71371556D01*
X86893542Y-71189928D01*
X86913504Y-71000000D01*
X86893542Y-70810072D01*
X86834527Y-70628444D01*
X86813990Y-70592872D01*
X86742341Y-70468774D01*
X86739040Y-70463056D01*
X86611253Y-70321134D01*
X86456752Y-70208882D01*
X86450724Y-70206198D01*
X86450722Y-70206197D01*
X86288319Y-70133891D01*
X86288318Y-70133891D01*
X86282288Y-70131206D01*
X86188888Y-70111353D01*
X86101944Y-70092872D01*
X86101939Y-70092872D01*
X86095487Y-70091500D01*
X85904513Y-70091500D01*
X85898061Y-70092872D01*
X85898056Y-70092872D01*
X85811112Y-70111353D01*
X85717712Y-70131206D01*
X85711682Y-70133891D01*
X85711681Y-70133891D01*
X85549278Y-70206197D01*
X85549276Y-70206198D01*
X85543248Y-70208882D01*
X85388747Y-70321134D01*
X85260960Y-70463056D01*
X85257659Y-70468774D01*
X85186011Y-70592872D01*
X85165473Y-70628444D01*
X85106458Y-70810072D01*
X85086496Y-71000000D01*
X72010370Y-71000000D01*
X71989040Y-70963056D01*
X71861253Y-70821134D01*
X71706752Y-70708882D01*
X71700724Y-70706198D01*
X71700722Y-70706197D01*
X71538319Y-70633891D01*
X71538318Y-70633891D01*
X71532288Y-70631206D01*
X71438887Y-70611353D01*
X71351944Y-70592872D01*
X71351939Y-70592872D01*
X71345487Y-70591500D01*
X71154513Y-70591500D01*
X71148061Y-70592872D01*
X71148056Y-70592872D01*
X71061113Y-70611353D01*
X70967712Y-70631206D01*
X70961682Y-70633891D01*
X70961681Y-70633891D01*
X70799278Y-70706197D01*
X70799276Y-70706198D01*
X70793248Y-70708882D01*
X70638747Y-70821134D01*
X70510960Y-70963056D01*
X70485840Y-71006565D01*
X70436011Y-71092872D01*
X70415473Y-71128444D01*
X70356458Y-71310072D01*
X70355768Y-71316633D01*
X70355768Y-71316635D01*
X70345676Y-71412654D01*
X70336496Y-71500000D01*
X68495003Y-71500000D01*
X68370259Y-71412654D01*
X68365025Y-71408989D01*
X68278522Y-71371556D01*
X68192175Y-71334190D01*
X68192171Y-71334189D01*
X68186316Y-71331655D01*
X68180069Y-71330350D01*
X68180066Y-71330349D01*
X68000443Y-71292824D01*
X68000438Y-71292823D01*
X67995707Y-71291835D01*
X67989315Y-71291500D01*
X67846337Y-71291500D01*
X67777049Y-71298538D01*
X67707622Y-71305590D01*
X67707621Y-71305590D01*
X67701273Y-71306235D01*
X67666121Y-71317251D01*
X67521549Y-71362556D01*
X67521544Y-71362558D01*
X67515459Y-71364465D01*
X67439713Y-71406452D01*
X67350729Y-71455777D01*
X67350726Y-71455779D01*
X67345150Y-71458870D01*
X67340309Y-71463019D01*
X67340305Y-71463022D01*
X67254059Y-71536944D01*
X67197302Y-71585591D01*
X67193391Y-71590633D01*
X67193390Y-71590634D01*
X67141503Y-71657526D01*
X67077954Y-71739453D01*
X67075138Y-71745176D01*
X67075136Y-71745179D01*
X67031608Y-71833640D01*
X66991982Y-71914171D01*
X66990373Y-71920349D01*
X66990372Y-71920351D01*
X66958724Y-72041852D01*
X66942898Y-72102607D01*
X66932707Y-72297064D01*
X65258500Y-72297064D01*
X65258500Y-67250000D01*
X94836496Y-67250000D01*
X94856458Y-67439928D01*
X94915473Y-67621556D01*
X94918776Y-67627278D01*
X94918777Y-67627279D01*
X94936803Y-67658500D01*
X95010960Y-67786944D01*
X95138747Y-67928866D01*
X95293248Y-68041118D01*
X95299276Y-68043802D01*
X95299278Y-68043803D01*
X95461681Y-68116109D01*
X95467712Y-68118794D01*
X95561112Y-68138647D01*
X95648056Y-68157128D01*
X95648061Y-68157128D01*
X95654513Y-68158500D01*
X95845487Y-68158500D01*
X95851939Y-68157128D01*
X95851944Y-68157128D01*
X95938888Y-68138647D01*
X96032288Y-68118794D01*
X96038319Y-68116109D01*
X96200722Y-68043803D01*
X96200724Y-68043802D01*
X96206752Y-68041118D01*
X96361253Y-67928866D01*
X96489040Y-67786944D01*
X96563197Y-67658500D01*
X96581223Y-67627279D01*
X96581224Y-67627278D01*
X96584527Y-67621556D01*
X96643542Y-67439928D01*
X96663504Y-67250000D01*
X96643542Y-67060072D01*
X96584527Y-66878444D01*
X96510370Y-66750000D01*
X106086496Y-66750000D01*
X106087186Y-66756565D01*
X106090816Y-66791098D01*
X106106458Y-66939928D01*
X106165473Y-67121556D01*
X106260960Y-67286944D01*
X106388747Y-67428866D01*
X106543248Y-67541118D01*
X106549276Y-67543802D01*
X106549278Y-67543803D01*
X106709799Y-67615271D01*
X106717712Y-67618794D01*
X106811113Y-67638647D01*
X106898056Y-67657128D01*
X106898061Y-67657128D01*
X106904513Y-67658500D01*
X107095487Y-67658500D01*
X107101939Y-67657128D01*
X107101944Y-67657128D01*
X107188887Y-67638647D01*
X107282288Y-67618794D01*
X107290201Y-67615271D01*
X107450722Y-67543803D01*
X107450724Y-67543802D01*
X107456752Y-67541118D01*
X107611253Y-67428866D01*
X107739040Y-67286944D01*
X107834527Y-67121556D01*
X107893542Y-66939928D01*
X107909185Y-66791098D01*
X107912814Y-66756565D01*
X107913504Y-66750000D01*
X107909105Y-66708148D01*
X107894232Y-66566635D01*
X107894232Y-66566633D01*
X107893542Y-66560072D01*
X107834527Y-66378444D01*
X107821495Y-66355871D01*
X107797314Y-66313990D01*
X107739040Y-66213056D01*
X107616602Y-66077074D01*
X107615675Y-66076045D01*
X107615674Y-66076044D01*
X107611253Y-66071134D01*
X107456752Y-65958882D01*
X107450724Y-65956198D01*
X107450722Y-65956197D01*
X107288319Y-65883891D01*
X107288318Y-65883891D01*
X107282288Y-65881206D01*
X107188887Y-65861353D01*
X107101944Y-65842872D01*
X107101939Y-65842872D01*
X107095487Y-65841500D01*
X106904513Y-65841500D01*
X106898061Y-65842872D01*
X106898056Y-65842872D01*
X106811113Y-65861353D01*
X106717712Y-65881206D01*
X106711682Y-65883891D01*
X106711681Y-65883891D01*
X106549278Y-65956197D01*
X106549276Y-65956198D01*
X106543248Y-65958882D01*
X106388747Y-66071134D01*
X106384326Y-66076044D01*
X106384325Y-66076045D01*
X106383399Y-66077074D01*
X106260960Y-66213056D01*
X106202686Y-66313990D01*
X106178506Y-66355871D01*
X106165473Y-66378444D01*
X106106458Y-66560072D01*
X106105768Y-66566633D01*
X106105768Y-66566635D01*
X106090895Y-66708148D01*
X106086496Y-66750000D01*
X96510370Y-66750000D01*
X96489040Y-66713056D01*
X96431774Y-66649455D01*
X96365675Y-66576045D01*
X96365674Y-66576044D01*
X96361253Y-66571134D01*
X96245779Y-66487237D01*
X96212094Y-66462763D01*
X96212093Y-66462762D01*
X96206752Y-66458882D01*
X96200724Y-66456198D01*
X96200722Y-66456197D01*
X96038319Y-66383891D01*
X96038318Y-66383891D01*
X96032288Y-66381206D01*
X95938887Y-66361353D01*
X95851944Y-66342872D01*
X95851939Y-66342872D01*
X95845487Y-66341500D01*
X95654513Y-66341500D01*
X95648061Y-66342872D01*
X95648056Y-66342872D01*
X95561113Y-66361353D01*
X95467712Y-66381206D01*
X95461682Y-66383891D01*
X95461681Y-66383891D01*
X95299278Y-66456197D01*
X95299276Y-66456198D01*
X95293248Y-66458882D01*
X95287907Y-66462762D01*
X95287906Y-66462763D01*
X95254221Y-66487237D01*
X95138747Y-66571134D01*
X95134326Y-66576044D01*
X95134325Y-66576045D01*
X95068227Y-66649455D01*
X95010960Y-66713056D01*
X94915473Y-66878444D01*
X94856458Y-67060072D01*
X94836496Y-67250000D01*
X65258500Y-67250000D01*
X65258500Y-65659065D01*
X67127595Y-65659065D01*
X67127644Y-65659755D01*
X67131209Y-65665100D01*
X67459802Y-65921363D01*
X67464359Y-65924602D01*
X67819448Y-66153880D01*
X67824250Y-66156686D01*
X68198316Y-66353491D01*
X68203374Y-66355871D01*
X68593435Y-66518638D01*
X68598690Y-66520561D01*
X69001676Y-66648008D01*
X69007075Y-66649455D01*
X69419796Y-66740575D01*
X69425307Y-66741537D01*
X69844501Y-66795610D01*
X69850064Y-66796077D01*
X70272405Y-66812670D01*
X70277997Y-66812641D01*
X70700125Y-66791626D01*
X70705708Y-66791098D01*
X71124305Y-66732640D01*
X71129792Y-66731623D01*
X71541543Y-66636185D01*
X71546929Y-66634681D01*
X71948567Y-66503018D01*
X71953784Y-66501046D01*
X72342126Y-66334202D01*
X72347169Y-66331764D01*
X72719131Y-66131063D01*
X72723935Y-66128188D01*
X73076563Y-65895231D01*
X73081126Y-65891916D01*
X73144020Y-65841798D01*
X85976901Y-65841798D01*
X85981259Y-65883261D01*
X85983989Y-65896102D01*
X86038889Y-66065066D01*
X86044235Y-66077074D01*
X86133062Y-66230927D01*
X86140786Y-66241558D01*
X86259663Y-66373585D01*
X86269426Y-66382376D01*
X86413157Y-66486802D01*
X86424529Y-66493368D01*
X86483450Y-66519601D01*
X86497427Y-66521475D01*
X86500000Y-66517387D01*
X86500000Y-65843115D01*
X86495525Y-65827876D01*
X86494135Y-65826671D01*
X86486452Y-65825000D01*
X85993251Y-65825000D01*
X85978959Y-65829197D01*
X85976901Y-65841798D01*
X73144020Y-65841798D01*
X73262219Y-65747610D01*
X87216500Y-65747610D01*
X87231458Y-65889928D01*
X87233498Y-65896206D01*
X87243833Y-65928014D01*
X87250000Y-65966950D01*
X87250000Y-66508855D01*
X87253973Y-66522386D01*
X87258753Y-66523073D01*
X87325471Y-66493368D01*
X87336843Y-66486802D01*
X87425515Y-66422378D01*
X87492383Y-66398519D01*
X87561534Y-66414600D01*
X87573620Y-66422366D01*
X87668248Y-66491118D01*
X87674276Y-66493802D01*
X87674278Y-66493803D01*
X87806663Y-66552744D01*
X87842712Y-66568794D01*
X87936112Y-66588647D01*
X88023056Y-66607128D01*
X88023061Y-66607128D01*
X88029513Y-66608500D01*
X88220487Y-66608500D01*
X88226939Y-66607128D01*
X88226944Y-66607128D01*
X88313888Y-66588647D01*
X88407288Y-66568794D01*
X88443337Y-66552744D01*
X88575722Y-66493803D01*
X88575724Y-66493802D01*
X88581752Y-66491118D01*
X88587693Y-66486802D01*
X88675939Y-66422687D01*
X88742807Y-66398828D01*
X88811958Y-66414909D01*
X88824061Y-66422687D01*
X88912308Y-66486802D01*
X88918248Y-66491118D01*
X88924276Y-66493802D01*
X88924278Y-66493803D01*
X89056663Y-66552744D01*
X89092712Y-66568794D01*
X89186112Y-66588647D01*
X89273056Y-66607128D01*
X89273061Y-66607128D01*
X89279513Y-66608500D01*
X89470487Y-66608500D01*
X89476939Y-66607128D01*
X89476944Y-66607128D01*
X89563888Y-66588647D01*
X89657288Y-66568794D01*
X89693337Y-66552744D01*
X89825722Y-66493803D01*
X89825724Y-66493802D01*
X89831752Y-66491118D01*
X89837693Y-66486802D01*
X89855650Y-66473755D01*
X89922518Y-66449897D01*
X89994982Y-66467915D01*
X90131301Y-66550472D01*
X90138548Y-66552743D01*
X90138550Y-66552744D01*
X90189766Y-66568794D01*
X90294938Y-66601753D01*
X90368365Y-66608500D01*
X90371263Y-66608500D01*
X90625665Y-66608499D01*
X90881634Y-66608499D01*
X90884492Y-66608236D01*
X90884501Y-66608236D01*
X90920004Y-66604974D01*
X90955062Y-66601753D01*
X91060234Y-66568794D01*
X91111450Y-66552744D01*
X91111452Y-66552743D01*
X91118699Y-66550472D01*
X91265381Y-66461639D01*
X91386639Y-66340381D01*
X91475472Y-66193699D01*
X91526753Y-66030062D01*
X91533500Y-65956635D01*
X91533500Y-65659065D01*
X112127595Y-65659065D01*
X112127644Y-65659755D01*
X112131209Y-65665100D01*
X112459802Y-65921363D01*
X112464359Y-65924602D01*
X112819448Y-66153880D01*
X112824250Y-66156686D01*
X113198316Y-66353491D01*
X113203374Y-66355871D01*
X113593435Y-66518638D01*
X113598690Y-66520561D01*
X114001676Y-66648008D01*
X114007075Y-66649455D01*
X114419796Y-66740575D01*
X114425307Y-66741537D01*
X114844501Y-66795610D01*
X114850064Y-66796077D01*
X115272405Y-66812670D01*
X115277997Y-66812641D01*
X115700125Y-66791626D01*
X115705708Y-66791098D01*
X116124305Y-66732640D01*
X116129792Y-66731623D01*
X116541543Y-66636185D01*
X116546929Y-66634681D01*
X116948567Y-66503018D01*
X116953784Y-66501046D01*
X117342126Y-66334202D01*
X117347169Y-66331764D01*
X117719131Y-66131063D01*
X117723935Y-66128188D01*
X118076563Y-65895231D01*
X118081126Y-65891916D01*
X118362173Y-65667961D01*
X118370643Y-65655904D01*
X118364216Y-65644546D01*
X115262812Y-62543142D01*
X115248868Y-62535528D01*
X115247035Y-62535659D01*
X115240420Y-62539910D01*
X112135209Y-65645121D01*
X112127595Y-65659065D01*
X91533500Y-65659065D01*
X91533499Y-64943366D01*
X91532552Y-64933050D01*
X91527364Y-64876592D01*
X91526753Y-64869938D01*
X91515783Y-64834934D01*
X91477744Y-64713550D01*
X91477743Y-64713548D01*
X91475472Y-64706301D01*
X91386639Y-64559619D01*
X91265381Y-64438361D01*
X91118699Y-64349528D01*
X91111452Y-64347257D01*
X91111450Y-64347256D01*
X91045164Y-64326483D01*
X90955062Y-64298247D01*
X90881635Y-64291500D01*
X90878737Y-64291500D01*
X90624335Y-64291501D01*
X90368366Y-64291501D01*
X90365508Y-64291764D01*
X90365499Y-64291764D01*
X90329996Y-64295026D01*
X90294938Y-64298247D01*
X90288560Y-64300246D01*
X90288559Y-64300246D01*
X90138550Y-64347256D01*
X90138548Y-64347257D01*
X90131301Y-64349528D01*
X90004625Y-64426245D01*
X89994982Y-64432085D01*
X89926352Y-64450264D01*
X89855650Y-64426245D01*
X89837094Y-64412763D01*
X89837092Y-64412762D01*
X89831752Y-64408882D01*
X89825724Y-64406198D01*
X89825722Y-64406197D01*
X89663319Y-64333891D01*
X89663318Y-64333891D01*
X89657288Y-64331206D01*
X89563888Y-64311353D01*
X89476944Y-64292872D01*
X89476939Y-64292872D01*
X89470487Y-64291500D01*
X89279513Y-64291500D01*
X89273061Y-64292872D01*
X89273056Y-64292872D01*
X89186112Y-64311353D01*
X89092712Y-64331206D01*
X89086682Y-64333891D01*
X89086681Y-64333891D01*
X88924278Y-64406197D01*
X88924276Y-64406198D01*
X88918248Y-64408882D01*
X88912907Y-64412762D01*
X88912906Y-64412763D01*
X88824061Y-64477313D01*
X88757193Y-64501172D01*
X88688042Y-64485091D01*
X88675939Y-64477313D01*
X88587094Y-64412763D01*
X88587093Y-64412762D01*
X88581752Y-64408882D01*
X88575724Y-64406198D01*
X88575722Y-64406197D01*
X88413319Y-64333891D01*
X88413318Y-64333891D01*
X88407288Y-64331206D01*
X88313888Y-64311353D01*
X88226944Y-64292872D01*
X88226939Y-64292872D01*
X88220487Y-64291500D01*
X88029513Y-64291500D01*
X88023061Y-64292872D01*
X88023056Y-64292872D01*
X87936112Y-64311353D01*
X87842712Y-64331206D01*
X87836682Y-64333891D01*
X87836681Y-64333891D01*
X87674278Y-64406197D01*
X87674276Y-64406198D01*
X87668248Y-64408882D01*
X87573634Y-64477623D01*
X87506770Y-64501480D01*
X87437618Y-64485400D01*
X87425515Y-64477622D01*
X87336843Y-64413198D01*
X87325471Y-64406632D01*
X87266550Y-64380399D01*
X87252573Y-64378525D01*
X87250000Y-64382613D01*
X87250000Y-64933050D01*
X87243833Y-64971986D01*
X87231458Y-65010072D01*
X87230768Y-65016633D01*
X87230768Y-65016635D01*
X87227215Y-65050444D01*
X87216500Y-65152390D01*
X87216500Y-65747610D01*
X73262219Y-65747610D01*
X73362173Y-65667961D01*
X73370643Y-65655904D01*
X73364216Y-65644546D01*
X70262812Y-62543142D01*
X70248868Y-62535528D01*
X70247035Y-62535659D01*
X70240420Y-62539910D01*
X67135209Y-65645121D01*
X67127595Y-65659065D01*
X65258500Y-65659065D01*
X65258500Y-62830741D01*
X65278502Y-62762620D01*
X65332158Y-62716127D01*
X65402432Y-62706023D01*
X65467012Y-62735517D01*
X65505396Y-62795243D01*
X65508079Y-62806160D01*
X65575535Y-63145286D01*
X65576864Y-63150698D01*
X65695852Y-63556289D01*
X65697658Y-63561564D01*
X65852219Y-63954948D01*
X65854501Y-63960072D01*
X66043416Y-64338150D01*
X66046140Y-64343043D01*
X66267917Y-64702833D01*
X66271068Y-64707469D01*
X66523955Y-65046127D01*
X66527488Y-65050444D01*
X66582371Y-65111719D01*
X66595866Y-65120082D01*
X66605277Y-65114393D01*
X69718538Y-62001132D01*
X70785528Y-62001132D01*
X70785659Y-62002965D01*
X70789910Y-62009580D01*
X73892094Y-65111764D01*
X73905855Y-65119278D01*
X73915215Y-65112820D01*
X73964182Y-65056985D01*
X85977029Y-65056985D01*
X85979709Y-65071636D01*
X85992029Y-65075000D01*
X86481885Y-65075000D01*
X86497124Y-65070525D01*
X86498329Y-65069135D01*
X86500000Y-65061452D01*
X86500000Y-64391145D01*
X86496027Y-64377614D01*
X86491247Y-64376927D01*
X86424529Y-64406632D01*
X86413157Y-64413198D01*
X86269426Y-64517624D01*
X86259663Y-64526415D01*
X86140786Y-64658442D01*
X86133062Y-64669073D01*
X86044235Y-64822926D01*
X86038889Y-64834934D01*
X85983989Y-65003898D01*
X85981259Y-65016739D01*
X85977029Y-65056985D01*
X73964182Y-65056985D01*
X74004244Y-65011303D01*
X74007744Y-65006935D01*
X74257073Y-64665645D01*
X74260168Y-64660987D01*
X74478160Y-64298903D01*
X74480841Y-64293964D01*
X74665779Y-63913946D01*
X74668014Y-63908780D01*
X74818442Y-63513815D01*
X74820201Y-63508496D01*
X74934920Y-63101730D01*
X74936204Y-63096259D01*
X75014315Y-62680883D01*
X75015102Y-62675346D01*
X75056035Y-62254102D01*
X75056287Y-62250000D01*
X103586496Y-62250000D01*
X103606458Y-62439928D01*
X103665473Y-62621556D01*
X103760960Y-62786944D01*
X103888747Y-62928866D01*
X104043248Y-63041118D01*
X104049276Y-63043802D01*
X104049278Y-63043803D01*
X104167097Y-63096259D01*
X104217712Y-63118794D01*
X104311112Y-63138647D01*
X104398056Y-63157128D01*
X104398061Y-63157128D01*
X104404513Y-63158500D01*
X104595487Y-63158500D01*
X104601939Y-63157128D01*
X104601944Y-63157128D01*
X104688888Y-63138647D01*
X104782288Y-63118794D01*
X104832903Y-63096259D01*
X104950722Y-63043803D01*
X104950724Y-63043802D01*
X104956752Y-63041118D01*
X105111253Y-62928866D01*
X105239040Y-62786944D01*
X105334527Y-62621556D01*
X105393542Y-62439928D01*
X105413504Y-62250000D01*
X105393542Y-62060072D01*
X105334527Y-61878444D01*
X105333592Y-61876825D01*
X110438855Y-61876825D01*
X110446600Y-62299410D01*
X110446950Y-62304976D01*
X110492231Y-62725208D01*
X110493078Y-62730746D01*
X110575535Y-63145286D01*
X110576864Y-63150698D01*
X110695852Y-63556289D01*
X110697658Y-63561564D01*
X110852219Y-63954948D01*
X110854501Y-63960072D01*
X111043416Y-64338150D01*
X111046140Y-64343043D01*
X111267917Y-64702833D01*
X111271068Y-64707469D01*
X111523955Y-65046127D01*
X111527488Y-65050444D01*
X111582371Y-65111719D01*
X111595866Y-65120082D01*
X111605277Y-65114393D01*
X114706858Y-62012812D01*
X114714472Y-61998868D01*
X114714341Y-61997035D01*
X114710090Y-61990420D01*
X111607863Y-58888193D01*
X111594555Y-58880926D01*
X111584516Y-58888048D01*
X111418223Y-59087994D01*
X111414828Y-59092467D01*
X111174528Y-59440152D01*
X111171549Y-59444902D01*
X110963106Y-59812575D01*
X110960562Y-59817568D01*
X110785629Y-60202312D01*
X110783538Y-60207511D01*
X110643498Y-60606290D01*
X110641877Y-60611659D01*
X110537840Y-61021303D01*
X110536706Y-61026776D01*
X110469496Y-61444054D01*
X110468851Y-61449632D01*
X110439002Y-61871204D01*
X110438855Y-61876825D01*
X105333592Y-61876825D01*
X105239040Y-61713056D01*
X105111253Y-61571134D01*
X104956752Y-61458882D01*
X104950724Y-61456198D01*
X104950722Y-61456197D01*
X104788319Y-61383891D01*
X104788318Y-61383891D01*
X104782288Y-61381206D01*
X104688888Y-61361353D01*
X104601944Y-61342872D01*
X104601939Y-61342872D01*
X104595487Y-61341500D01*
X104404513Y-61341500D01*
X104398061Y-61342872D01*
X104398056Y-61342872D01*
X104311112Y-61361353D01*
X104217712Y-61381206D01*
X104211682Y-61383891D01*
X104211681Y-61383891D01*
X104049278Y-61456197D01*
X104049276Y-61456198D01*
X104043248Y-61458882D01*
X103888747Y-61571134D01*
X103760960Y-61713056D01*
X103665473Y-61878444D01*
X103606458Y-62060072D01*
X103586496Y-62250000D01*
X75056287Y-62250000D01*
X75056308Y-62249665D01*
X75062788Y-62002233D01*
X75062746Y-61997762D01*
X75043917Y-61574973D01*
X75043419Y-61569386D01*
X74987155Y-61150499D01*
X74986162Y-61144976D01*
X74892883Y-60732748D01*
X74891410Y-60727361D01*
X74761847Y-60325025D01*
X74759910Y-60319815D01*
X74595098Y-59930599D01*
X74592683Y-59925536D01*
X74393936Y-59552535D01*
X74391085Y-59547713D01*
X74159974Y-59193865D01*
X74156692Y-59189297D01*
X73918554Y-58887220D01*
X73906629Y-58878749D01*
X73895095Y-58885235D01*
X70793142Y-61987188D01*
X70785528Y-62001132D01*
X69718538Y-62001132D01*
X73362036Y-58357634D01*
X73369599Y-58343784D01*
X73363272Y-58334562D01*
X73280922Y-58261577D01*
X73276560Y-58258045D01*
X72936600Y-58006948D01*
X72931947Y-58003821D01*
X72570995Y-57783926D01*
X72566094Y-57781232D01*
X72187027Y-57594297D01*
X72181904Y-57592048D01*
X71787707Y-57439545D01*
X71782417Y-57437765D01*
X71376218Y-57320904D01*
X71370794Y-57319602D01*
X71053456Y-57258206D01*
X70990375Y-57225629D01*
X70954921Y-57164118D01*
X70958349Y-57093205D01*
X70999573Y-57035402D01*
X71065502Y-57009062D01*
X71077390Y-57008500D01*
X114430151Y-57008500D01*
X114498272Y-57028502D01*
G37*
%TD.AperFunction*%
%TA.AperFunction,Conductor*%
G36*
X117133923Y-105369695D02*
G01*
X117178986Y-105398656D01*
X118412182Y-106631852D01*
X118446208Y-106694164D01*
X118441143Y-106764979D01*
X118412182Y-106810042D01*
X118060042Y-107162182D01*
X117997730Y-107196208D01*
X117926915Y-107191143D01*
X117881852Y-107162182D01*
X116648656Y-105928986D01*
X116614630Y-105866674D01*
X116619695Y-105795859D01*
X116648656Y-105750796D01*
X117000796Y-105398656D01*
X117063108Y-105364630D01*
X117133923Y-105369695D01*
G37*
%TD.AperFunction*%
%TA.AperFunction,Conductor*%
G36*
X68454141Y-105369695D02*
G01*
X68499204Y-105398656D01*
X68851344Y-105750796D01*
X68885370Y-105813108D01*
X68880305Y-105883923D01*
X68851344Y-105928986D01*
X67618148Y-107162182D01*
X67555836Y-107196208D01*
X67485021Y-107191143D01*
X67439958Y-107162182D01*
X67087818Y-106810042D01*
X67053792Y-106747730D01*
X67058857Y-106676915D01*
X67087818Y-106631852D01*
X68321014Y-105398656D01*
X68383326Y-105364630D01*
X68454141Y-105369695D01*
G37*
%TD.AperFunction*%
%TA.AperFunction,Conductor*%
G36*
X118014979Y-58808857D02*
G01*
X118060042Y-58837818D01*
X118412182Y-59189958D01*
X118446208Y-59252270D01*
X118441143Y-59323085D01*
X118412182Y-59368148D01*
X117178986Y-60601344D01*
X117116674Y-60635370D01*
X117045859Y-60630305D01*
X117000796Y-60601344D01*
X116648656Y-60249204D01*
X116614630Y-60186892D01*
X116619695Y-60116077D01*
X116648656Y-60071014D01*
X117881852Y-58837818D01*
X117944164Y-58803792D01*
X118014979Y-58808857D01*
G37*
%TD.AperFunction*%
%TA.AperFunction,Conductor*%
G36*
X67573085Y-58808857D02*
G01*
X67618148Y-58837818D01*
X68851344Y-60071014D01*
X68885370Y-60133326D01*
X68880305Y-60204141D01*
X68851344Y-60249204D01*
X68499204Y-60601344D01*
X68436892Y-60635370D01*
X68366077Y-60630305D01*
X68321014Y-60601344D01*
X67087818Y-59368148D01*
X67053792Y-59305836D01*
X67058857Y-59235021D01*
X67087818Y-59189958D01*
X67439958Y-58837818D01*
X67502270Y-58803792D01*
X67573085Y-58808857D01*
G37*
%TD.AperFunction*%
%TD*%
M02*
