%TF.GenerationSoftware,KiCad,Pcbnew,(6.0.7)*%
%TF.CreationDate,2022-09-22T19:59:32-07:00*%
%TF.ProjectId,STM32F4_rev2,53544d33-3246-4345-9f72-6576322e6b69,rev?*%
%TF.SameCoordinates,Original*%
%TF.FileFunction,Legend,Top*%
%TF.FilePolarity,Positive*%
%FSLAX46Y46*%
G04 Gerber Fmt 4.6, Leading zero omitted, Abs format (unit mm)*
G04 Created by KiCad (PCBNEW (6.0.7)) date 2022-09-22 19:59:32*
%MOMM*%
%LPD*%
G01*
G04 APERTURE LIST*
%ADD10C,0.150000*%
%ADD11C,0.120000*%
G04 APERTURE END LIST*
D10*
X85856609Y-107846761D02*
X85999466Y-107894380D01*
X86237561Y-107894380D01*
X86332800Y-107846761D01*
X86380419Y-107799142D01*
X86428038Y-107703904D01*
X86428038Y-107608666D01*
X86380419Y-107513428D01*
X86332800Y-107465809D01*
X86237561Y-107418190D01*
X86047085Y-107370571D01*
X85951847Y-107322952D01*
X85904228Y-107275333D01*
X85856609Y-107180095D01*
X85856609Y-107084857D01*
X85904228Y-106989619D01*
X85951847Y-106942000D01*
X86047085Y-106894380D01*
X86285180Y-106894380D01*
X86428038Y-106942000D01*
X86713752Y-106894380D02*
X87285180Y-106894380D01*
X86999466Y-107894380D02*
X86999466Y-106894380D01*
X87618514Y-107894380D02*
X87618514Y-106894380D01*
X87951847Y-107608666D01*
X88285180Y-106894380D01*
X88285180Y-107894380D01*
X88666133Y-106894380D02*
X89285180Y-106894380D01*
X88951847Y-107275333D01*
X89094704Y-107275333D01*
X89189942Y-107322952D01*
X89237561Y-107370571D01*
X89285180Y-107465809D01*
X89285180Y-107703904D01*
X89237561Y-107799142D01*
X89189942Y-107846761D01*
X89094704Y-107894380D01*
X88808990Y-107894380D01*
X88713752Y-107846761D01*
X88666133Y-107799142D01*
X89666133Y-106989619D02*
X89713752Y-106942000D01*
X89808990Y-106894380D01*
X90047085Y-106894380D01*
X90142323Y-106942000D01*
X90189942Y-106989619D01*
X90237561Y-107084857D01*
X90237561Y-107180095D01*
X90189942Y-107322952D01*
X89618514Y-107894380D01*
X90237561Y-107894380D01*
X90999466Y-107370571D02*
X90666133Y-107370571D01*
X90666133Y-107894380D02*
X90666133Y-106894380D01*
X91142323Y-106894380D01*
X91951847Y-107227714D02*
X91951847Y-107894380D01*
X91713752Y-106846761D02*
X91475657Y-107561047D01*
X92094704Y-107561047D01*
X93094704Y-106894380D02*
X93666133Y-106894380D01*
X93380419Y-107894380D02*
X93380419Y-106894380D01*
X93999466Y-107370571D02*
X94332800Y-107370571D01*
X94475657Y-107894380D02*
X93999466Y-107894380D01*
X93999466Y-106894380D01*
X94475657Y-106894380D01*
X94856609Y-107846761D02*
X94999466Y-107894380D01*
X95237561Y-107894380D01*
X95332800Y-107846761D01*
X95380419Y-107799142D01*
X95428038Y-107703904D01*
X95428038Y-107608666D01*
X95380419Y-107513428D01*
X95332800Y-107465809D01*
X95237561Y-107418190D01*
X95047085Y-107370571D01*
X94951847Y-107322952D01*
X94904228Y-107275333D01*
X94856609Y-107180095D01*
X94856609Y-107084857D01*
X94904228Y-106989619D01*
X94951847Y-106942000D01*
X95047085Y-106894380D01*
X95285180Y-106894380D01*
X95428038Y-106942000D01*
X95713752Y-106894380D02*
X96285180Y-106894380D01*
X95999466Y-107894380D02*
X95999466Y-106894380D01*
X97713752Y-107370571D02*
X97856609Y-107418190D01*
X97904228Y-107465809D01*
X97951847Y-107561047D01*
X97951847Y-107703904D01*
X97904228Y-107799142D01*
X97856609Y-107846761D01*
X97761371Y-107894380D01*
X97380419Y-107894380D01*
X97380419Y-106894380D01*
X97713752Y-106894380D01*
X97808990Y-106942000D01*
X97856609Y-106989619D01*
X97904228Y-107084857D01*
X97904228Y-107180095D01*
X97856609Y-107275333D01*
X97808990Y-107322952D01*
X97713752Y-107370571D01*
X97380419Y-107370571D01*
X98570895Y-106894380D02*
X98761371Y-106894380D01*
X98856609Y-106942000D01*
X98951847Y-107037238D01*
X98999466Y-107227714D01*
X98999466Y-107561047D01*
X98951847Y-107751523D01*
X98856609Y-107846761D01*
X98761371Y-107894380D01*
X98570895Y-107894380D01*
X98475657Y-107846761D01*
X98380419Y-107751523D01*
X98332800Y-107561047D01*
X98332800Y-107227714D01*
X98380419Y-107037238D01*
X98475657Y-106942000D01*
X98570895Y-106894380D01*
X99380419Y-107608666D02*
X99856609Y-107608666D01*
X99285180Y-107894380D02*
X99618514Y-106894380D01*
X99951847Y-107894380D01*
X100856609Y-107894380D02*
X100523276Y-107418190D01*
X100285180Y-107894380D02*
X100285180Y-106894380D01*
X100666133Y-106894380D01*
X100761371Y-106942000D01*
X100808990Y-106989619D01*
X100856609Y-107084857D01*
X100856609Y-107227714D01*
X100808990Y-107322952D01*
X100761371Y-107370571D01*
X100666133Y-107418190D01*
X100285180Y-107418190D01*
X101285180Y-107894380D02*
X101285180Y-106894380D01*
X101523276Y-106894380D01*
X101666133Y-106942000D01*
X101761371Y-107037238D01*
X101808990Y-107132476D01*
X101856609Y-107322952D01*
X101856609Y-107465809D01*
X101808990Y-107656285D01*
X101761371Y-107751523D01*
X101666133Y-107846761D01*
X101523276Y-107894380D01*
X101285180Y-107894380D01*
X103285180Y-108227714D02*
X103285180Y-106799142D01*
X105332799Y-107894380D02*
X104999466Y-107418190D01*
X104761371Y-107894380D02*
X104761371Y-106894380D01*
X105142323Y-106894380D01*
X105237561Y-106942000D01*
X105285180Y-106989619D01*
X105332799Y-107084857D01*
X105332799Y-107227714D01*
X105285180Y-107322952D01*
X105237561Y-107370571D01*
X105142323Y-107418190D01*
X104761371Y-107418190D01*
X105761371Y-107370571D02*
X106094704Y-107370571D01*
X106237561Y-107894380D02*
X105761371Y-107894380D01*
X105761371Y-106894380D01*
X106237561Y-106894380D01*
X106523276Y-106894380D02*
X106856609Y-107894380D01*
X107189942Y-106894380D01*
X108237561Y-106989619D02*
X108285180Y-106942000D01*
X108380419Y-106894380D01*
X108618514Y-106894380D01*
X108713752Y-106942000D01*
X108761371Y-106989619D01*
X108808990Y-107084857D01*
X108808990Y-107180095D01*
X108761371Y-107322952D01*
X108189942Y-107894380D01*
X108808990Y-107894380D01*
X67740304Y-79928980D02*
X67406971Y-79452790D01*
X67168876Y-79928980D02*
X67168876Y-78928980D01*
X67549828Y-78928980D01*
X67645066Y-78976600D01*
X67692685Y-79024219D01*
X67740304Y-79119457D01*
X67740304Y-79262314D01*
X67692685Y-79357552D01*
X67645066Y-79405171D01*
X67549828Y-79452790D01*
X67168876Y-79452790D01*
X68168876Y-78928980D02*
X68168876Y-79738504D01*
X68216495Y-79833742D01*
X68264114Y-79881361D01*
X68359352Y-79928980D01*
X68549828Y-79928980D01*
X68645066Y-79881361D01*
X68692685Y-79833742D01*
X68740304Y-79738504D01*
X68740304Y-78928980D01*
X69216495Y-79928980D02*
X69216495Y-78928980D01*
X69787923Y-79928980D01*
X69787923Y-78928980D01*
X114858800Y-97510600D02*
X115773200Y-97510600D01*
X115316000Y-97917000D02*
X115316000Y-97104200D01*
X87193380Y-97078800D02*
G75*
G03*
X87193380Y-97078800I-198380J0D01*
G01*
X100426780Y-91617800D02*
G75*
G03*
X100426780Y-91617800I-198380J0D01*
G01*
X71660515Y-70789800D02*
G75*
G03*
X71660515Y-70789800I-184915J0D01*
G01*
X91170805Y-67487800D02*
G75*
G03*
X91170805Y-67487800I-289605J0D01*
G01*
X103205776Y-60426600D02*
G75*
G03*
X103205776Y-60426600I-234176J0D01*
G01*
X80066796Y-79222600D02*
G75*
G03*
X80066796Y-79222600I-56796J0D01*
G01*
X76523809Y-92654761D02*
X76666666Y-92702380D01*
X76904761Y-92702380D01*
X77000000Y-92654761D01*
X77047619Y-92607142D01*
X77095238Y-92511904D01*
X77095238Y-92416666D01*
X77047619Y-92321428D01*
X77000000Y-92273809D01*
X76904761Y-92226190D01*
X76714285Y-92178571D01*
X76619047Y-92130952D01*
X76571428Y-92083333D01*
X76523809Y-91988095D01*
X76523809Y-91892857D01*
X76571428Y-91797619D01*
X76619047Y-91750000D01*
X76714285Y-91702380D01*
X76952380Y-91702380D01*
X77095238Y-91750000D01*
X77380952Y-91702380D02*
X77952380Y-91702380D01*
X77666666Y-92702380D02*
X77666666Y-91702380D01*
X78238095Y-92416666D02*
X78714285Y-92416666D01*
X78142857Y-92702380D02*
X78476190Y-91702380D01*
X78809523Y-92702380D01*
X79000000Y-91702380D02*
X79571428Y-91702380D01*
X79285714Y-92702380D02*
X79285714Y-91702380D01*
X79904761Y-91702380D02*
X79904761Y-92511904D01*
X79952380Y-92607142D01*
X80000000Y-92654761D01*
X80095238Y-92702380D01*
X80285714Y-92702380D01*
X80380952Y-92654761D01*
X80428571Y-92607142D01*
X80476190Y-92511904D01*
X80476190Y-91702380D01*
X80904761Y-92654761D02*
X81047619Y-92702380D01*
X81285714Y-92702380D01*
X81380952Y-92654761D01*
X81428571Y-92607142D01*
X81476190Y-92511904D01*
X81476190Y-92416666D01*
X81428571Y-92321428D01*
X81380952Y-92273809D01*
X81285714Y-92226190D01*
X81095238Y-92178571D01*
X81000000Y-92130952D01*
X80952380Y-92083333D01*
X80904761Y-91988095D01*
X80904761Y-91892857D01*
X80952380Y-91797619D01*
X81000000Y-91750000D01*
X81095238Y-91702380D01*
X81333333Y-91702380D01*
X81476190Y-91750000D01*
X106261904Y-60202380D02*
X106880952Y-60202380D01*
X106547619Y-60583333D01*
X106690476Y-60583333D01*
X106785714Y-60630952D01*
X106833333Y-60678571D01*
X106880952Y-60773809D01*
X106880952Y-61011904D01*
X106833333Y-61107142D01*
X106785714Y-61154761D01*
X106690476Y-61202380D01*
X106404761Y-61202380D01*
X106309523Y-61154761D01*
X106261904Y-61107142D01*
X107166666Y-60202380D02*
X107500000Y-61202380D01*
X107833333Y-60202380D01*
X108071428Y-60202380D02*
X108690476Y-60202380D01*
X108357142Y-60583333D01*
X108500000Y-60583333D01*
X108595238Y-60630952D01*
X108642857Y-60678571D01*
X108690476Y-60773809D01*
X108690476Y-61011904D01*
X108642857Y-61107142D01*
X108595238Y-61154761D01*
X108500000Y-61202380D01*
X108214285Y-61202380D01*
X108119047Y-61154761D01*
X108071428Y-61107142D01*
X99142857Y-59154761D02*
X99285714Y-59202380D01*
X99523809Y-59202380D01*
X99619047Y-59154761D01*
X99666666Y-59107142D01*
X99714285Y-59011904D01*
X99714285Y-58916666D01*
X99666666Y-58821428D01*
X99619047Y-58773809D01*
X99523809Y-58726190D01*
X99333333Y-58678571D01*
X99238095Y-58630952D01*
X99190476Y-58583333D01*
X99142857Y-58488095D01*
X99142857Y-58392857D01*
X99190476Y-58297619D01*
X99238095Y-58250000D01*
X99333333Y-58202380D01*
X99571428Y-58202380D01*
X99714285Y-58250000D01*
X100047619Y-58202380D02*
X100285714Y-59202380D01*
X100476190Y-58488095D01*
X100666666Y-59202380D01*
X100904761Y-58202380D01*
X101285714Y-59202380D02*
X101285714Y-58202380D01*
X101523809Y-58202380D01*
X101666666Y-58250000D01*
X101761904Y-58345238D01*
X101809523Y-58440476D01*
X101857142Y-58630952D01*
X101857142Y-58773809D01*
X101809523Y-58964285D01*
X101761904Y-59059523D01*
X101666666Y-59154761D01*
X101523809Y-59202380D01*
X101285714Y-59202380D01*
X67172057Y-68330771D02*
X67314914Y-68378390D01*
X67362533Y-68426009D01*
X67410152Y-68521247D01*
X67410152Y-68664104D01*
X67362533Y-68759342D01*
X67314914Y-68806961D01*
X67219676Y-68854580D01*
X66838723Y-68854580D01*
X66838723Y-67854580D01*
X67172057Y-67854580D01*
X67267295Y-67902200D01*
X67314914Y-67949819D01*
X67362533Y-68045057D01*
X67362533Y-68140295D01*
X67314914Y-68235533D01*
X67267295Y-68283152D01*
X67172057Y-68330771D01*
X66838723Y-68330771D01*
X68029200Y-67854580D02*
X68219676Y-67854580D01*
X68314914Y-67902200D01*
X68410152Y-67997438D01*
X68457771Y-68187914D01*
X68457771Y-68521247D01*
X68410152Y-68711723D01*
X68314914Y-68806961D01*
X68219676Y-68854580D01*
X68029200Y-68854580D01*
X67933961Y-68806961D01*
X67838723Y-68711723D01*
X67791104Y-68521247D01*
X67791104Y-68187914D01*
X67838723Y-67997438D01*
X67933961Y-67902200D01*
X68029200Y-67854580D01*
X69076819Y-67854580D02*
X69267295Y-67854580D01*
X69362533Y-67902200D01*
X69457771Y-67997438D01*
X69505390Y-68187914D01*
X69505390Y-68521247D01*
X69457771Y-68711723D01*
X69362533Y-68806961D01*
X69267295Y-68854580D01*
X69076819Y-68854580D01*
X68981580Y-68806961D01*
X68886342Y-68711723D01*
X68838723Y-68521247D01*
X68838723Y-68187914D01*
X68886342Y-67997438D01*
X68981580Y-67902200D01*
X69076819Y-67854580D01*
X69791104Y-67854580D02*
X70362533Y-67854580D01*
X70076819Y-68854580D02*
X70076819Y-67854580D01*
X114190476Y-87202380D02*
X114190476Y-86202380D01*
X114571428Y-86202380D01*
X114666666Y-86250000D01*
X114714285Y-86297619D01*
X114761904Y-86392857D01*
X114761904Y-86535714D01*
X114714285Y-86630952D01*
X114666666Y-86678571D01*
X114571428Y-86726190D01*
X114190476Y-86726190D01*
X115380952Y-86202380D02*
X115571428Y-86202380D01*
X115666666Y-86250000D01*
X115761904Y-86345238D01*
X115809523Y-86535714D01*
X115809523Y-86869047D01*
X115761904Y-87059523D01*
X115666666Y-87154761D01*
X115571428Y-87202380D01*
X115380952Y-87202380D01*
X115285714Y-87154761D01*
X115190476Y-87059523D01*
X115142857Y-86869047D01*
X115142857Y-86535714D01*
X115190476Y-86345238D01*
X115285714Y-86250000D01*
X115380952Y-86202380D01*
X116142857Y-86202380D02*
X116380952Y-87202380D01*
X116571428Y-86488095D01*
X116761904Y-87202380D01*
X117000000Y-86202380D01*
X117380952Y-86678571D02*
X117714285Y-86678571D01*
X117857142Y-87202380D02*
X117380952Y-87202380D01*
X117380952Y-86202380D01*
X117857142Y-86202380D01*
X118857142Y-87202380D02*
X118523809Y-86726190D01*
X118285714Y-87202380D02*
X118285714Y-86202380D01*
X118666666Y-86202380D01*
X118761904Y-86250000D01*
X118809523Y-86297619D01*
X118857142Y-86392857D01*
X118857142Y-86535714D01*
X118809523Y-86630952D01*
X118761904Y-86678571D01*
X118666666Y-86726190D01*
X118285714Y-86726190D01*
X116738095Y-82452380D02*
X116738095Y-83261904D01*
X116785714Y-83357142D01*
X116833333Y-83404761D01*
X116928571Y-83452380D01*
X117119047Y-83452380D01*
X117214285Y-83404761D01*
X117261904Y-83357142D01*
X117309523Y-83261904D01*
X117309523Y-82452380D01*
X117738095Y-83404761D02*
X117880952Y-83452380D01*
X118119047Y-83452380D01*
X118214285Y-83404761D01*
X118261904Y-83357142D01*
X118309523Y-83261904D01*
X118309523Y-83166666D01*
X118261904Y-83071428D01*
X118214285Y-83023809D01*
X118119047Y-82976190D01*
X117928571Y-82928571D01*
X117833333Y-82880952D01*
X117785714Y-82833333D01*
X117738095Y-82738095D01*
X117738095Y-82642857D01*
X117785714Y-82547619D01*
X117833333Y-82500000D01*
X117928571Y-82452380D01*
X118166666Y-82452380D01*
X118309523Y-82500000D01*
X119071428Y-82928571D02*
X119214285Y-82976190D01*
X119261904Y-83023809D01*
X119309523Y-83119047D01*
X119309523Y-83261904D01*
X119261904Y-83357142D01*
X119214285Y-83404761D01*
X119119047Y-83452380D01*
X118738095Y-83452380D01*
X118738095Y-82452380D01*
X119071428Y-82452380D01*
X119166666Y-82500000D01*
X119214285Y-82547619D01*
X119261904Y-82642857D01*
X119261904Y-82738095D01*
X119214285Y-82833333D01*
X119166666Y-82880952D01*
X119071428Y-82928571D01*
X118738095Y-82928571D01*
X86904761Y-95452380D02*
X86904761Y-96261904D01*
X86952380Y-96357142D01*
X87000000Y-96404761D01*
X87095238Y-96452380D01*
X87285714Y-96452380D01*
X87380952Y-96404761D01*
X87428571Y-96357142D01*
X87476190Y-96261904D01*
X87476190Y-95452380D01*
X87904761Y-96166666D02*
X88380952Y-96166666D01*
X87809523Y-96452380D02*
X88142857Y-95452380D01*
X88476190Y-96452380D01*
X89380952Y-96452380D02*
X89047619Y-95976190D01*
X88809523Y-96452380D02*
X88809523Y-95452380D01*
X89190476Y-95452380D01*
X89285714Y-95500000D01*
X89333333Y-95547619D01*
X89380952Y-95642857D01*
X89380952Y-95785714D01*
X89333333Y-95880952D01*
X89285714Y-95928571D01*
X89190476Y-95976190D01*
X88809523Y-95976190D01*
X89666666Y-95452380D02*
X90238095Y-95452380D01*
X89952380Y-96452380D02*
X89952380Y-95452380D01*
X87523809Y-67952380D02*
X87523809Y-66952380D01*
X87952380Y-67047619D02*
X88000000Y-67000000D01*
X88095238Y-66952380D01*
X88333333Y-66952380D01*
X88428571Y-67000000D01*
X88476190Y-67047619D01*
X88523809Y-67142857D01*
X88523809Y-67238095D01*
X88476190Y-67380952D01*
X87904761Y-67952380D01*
X88523809Y-67952380D01*
X89523809Y-67857142D02*
X89476190Y-67904761D01*
X89333333Y-67952380D01*
X89238095Y-67952380D01*
X89095238Y-67904761D01*
X89000000Y-67809523D01*
X88952380Y-67714285D01*
X88904761Y-67523809D01*
X88904761Y-67380952D01*
X88952380Y-67190476D01*
X89000000Y-67095238D01*
X89095238Y-67000000D01*
X89238095Y-66952380D01*
X89333333Y-66952380D01*
X89476190Y-67000000D01*
X89523809Y-67047619D01*
%TO.C,J2*%
X104187380Y-64583333D02*
X104901666Y-64583333D01*
X105044523Y-64630952D01*
X105139761Y-64726190D01*
X105187380Y-64869047D01*
X105187380Y-64964285D01*
X104282619Y-64154761D02*
X104235000Y-64107142D01*
X104187380Y-64011904D01*
X104187380Y-63773809D01*
X104235000Y-63678571D01*
X104282619Y-63630952D01*
X104377857Y-63583333D01*
X104473095Y-63583333D01*
X104615952Y-63630952D01*
X105187380Y-64202380D01*
X105187380Y-63583333D01*
D11*
X97330000Y-62485000D02*
X97265000Y-62485000D01*
X97265000Y-62485000D02*
X97265000Y-66015000D01*
X103735000Y-62485000D02*
X103735000Y-66015000D01*
X103735000Y-66015000D02*
X103670000Y-66015000D01*
X97330000Y-66015000D02*
X97265000Y-66015000D01*
X103670000Y-61160000D02*
X103670000Y-62485000D01*
X103735000Y-62485000D02*
X103670000Y-62485000D01*
%TO.C,Q1*%
X111060000Y-91250000D02*
X111060000Y-89575000D01*
X111060000Y-91250000D02*
X111060000Y-91900000D01*
X107940000Y-91250000D02*
X107940000Y-90600000D01*
X107940000Y-91250000D02*
X107940000Y-91900000D01*
%TO.C,D2*%
X96450000Y-90750000D02*
X100350000Y-90750000D01*
X96450000Y-88750000D02*
X100350000Y-88750000D01*
X96450000Y-88750000D02*
X96450000Y-90750000D01*
%TO.C,R8*%
X78153641Y-81370000D02*
X77846359Y-81370000D01*
X78153641Y-82130000D02*
X77846359Y-82130000D01*
%TO.C,J3*%
X86335000Y-66310000D02*
X86335000Y-66610000D01*
X90875000Y-66900000D02*
X91375000Y-66900000D01*
X91165000Y-66310000D02*
X91165000Y-66610000D01*
X86335000Y-66610000D02*
X85265000Y-66610000D01*
X91165000Y-66610000D02*
X92235000Y-66610000D01*
X88750000Y-66310000D02*
X91165000Y-66310000D01*
X85265000Y-66610000D02*
X85265000Y-60890000D01*
X85265000Y-60890000D02*
X88750000Y-60890000D01*
X90875000Y-66600000D02*
X90875000Y-66900000D01*
X88750000Y-66310000D02*
X86335000Y-66310000D01*
X92235000Y-60890000D02*
X88750000Y-60890000D01*
X92235000Y-66610000D02*
X92235000Y-60890000D01*
%TO.C,J5*%
X114885000Y-78825000D02*
X114435000Y-79225000D01*
X120485000Y-81375000D02*
X117685000Y-81375000D01*
X114435000Y-79225000D02*
X114435000Y-78425000D01*
X117685000Y-81675000D02*
X116135000Y-81675000D01*
X120485000Y-73675000D02*
X117685000Y-73675000D01*
X114435000Y-78425000D02*
X114885000Y-78825000D01*
X117685000Y-73375000D02*
X116135000Y-73375000D01*
X117685000Y-73675000D02*
X117685000Y-73375000D01*
X117685000Y-81675000D02*
X117685000Y-81375000D01*
%TO.C,D3*%
X106950000Y-66235000D02*
X109235000Y-66235000D01*
X109235000Y-64765000D02*
X106950000Y-64765000D01*
X109235000Y-66235000D02*
X109235000Y-64765000D01*
%TO.C,C12*%
X78390000Y-85357836D02*
X78390000Y-85142164D01*
X79110000Y-85357836D02*
X79110000Y-85142164D01*
%TO.C,R6*%
X107987258Y-62977500D02*
X107512742Y-62977500D01*
X107987258Y-64022500D02*
X107512742Y-64022500D01*
%TO.C,R5*%
X109477500Y-99987258D02*
X109477500Y-99512742D01*
X110522500Y-99987258D02*
X110522500Y-99512742D01*
%TO.C,R7*%
X72403641Y-74120000D02*
X72096359Y-74120000D01*
X72403641Y-74880000D02*
X72096359Y-74880000D01*
%TO.C,R11*%
X86336359Y-71620000D02*
X86643641Y-71620000D01*
X86336359Y-72380000D02*
X86643641Y-72380000D01*
%TO.C,C8*%
X92642164Y-89360000D02*
X92857836Y-89360000D01*
X92642164Y-88640000D02*
X92857836Y-88640000D01*
%TO.C,C10*%
X83372164Y-75610000D02*
X83587836Y-75610000D01*
X83372164Y-74890000D02*
X83587836Y-74890000D01*
%TO.C,D1*%
X108250000Y-87500000D02*
X112150000Y-87500000D01*
X108250000Y-85500000D02*
X108250000Y-87500000D01*
X108250000Y-85500000D02*
X112150000Y-85500000D01*
%TO.C,U3*%
X108750000Y-76440000D02*
X109550000Y-76440000D01*
X108750000Y-79560000D02*
X107950000Y-79560000D01*
X108750000Y-79560000D02*
X110550000Y-79560000D01*
X108750000Y-76440000D02*
X107950000Y-76440000D01*
%TO.C,SW1*%
X65205000Y-72350000D02*
X64995000Y-72550000D01*
X65205000Y-73650000D02*
X64995000Y-73450000D01*
X65205000Y-73650000D02*
X66495000Y-73650000D01*
X69345000Y-75150000D02*
X69345000Y-75350000D01*
X68295000Y-70300000D02*
X67505000Y-70300000D01*
X64995000Y-72550000D02*
X64995000Y-73450000D01*
X67505000Y-77200000D02*
X68295000Y-77200000D01*
X69345000Y-72150000D02*
X69345000Y-73850000D01*
X66495000Y-72350000D02*
X65205000Y-72350000D01*
X66495000Y-70900000D02*
X66495000Y-76600000D01*
%TO.C,C5*%
X80260000Y-74640580D02*
X80260000Y-74359420D01*
X79240000Y-74640580D02*
X79240000Y-74359420D01*
%TO.C,C13*%
X91359420Y-90240000D02*
X91640580Y-90240000D01*
X91359420Y-91260000D02*
X91640580Y-91260000D01*
%TO.C,J4*%
X86625000Y-97900000D02*
X86625000Y-97600000D01*
X92235000Y-97890000D02*
X92235000Y-103610000D01*
X86335000Y-98190000D02*
X86335000Y-97890000D01*
X88750000Y-98190000D02*
X91165000Y-98190000D01*
X91165000Y-97890000D02*
X92235000Y-97890000D01*
X85265000Y-97890000D02*
X85265000Y-103610000D01*
X85265000Y-103610000D02*
X88750000Y-103610000D01*
X86625000Y-97600000D02*
X86125000Y-97600000D01*
X86335000Y-97890000D02*
X85265000Y-97890000D01*
X92235000Y-103610000D02*
X88750000Y-103610000D01*
X91165000Y-98190000D02*
X91165000Y-97890000D01*
X88750000Y-98190000D02*
X86335000Y-98190000D01*
%TO.C,F1*%
X105852064Y-85590000D02*
X104647936Y-85590000D01*
X105852064Y-87410000D02*
X104647936Y-87410000D01*
%TO.C,D4*%
X79265000Y-91197500D02*
X80735000Y-91197500D01*
X79265000Y-88912500D02*
X79265000Y-91197500D01*
X80735000Y-91197500D02*
X80735000Y-88912500D01*
%TO.C,Y1*%
X75250000Y-78900000D02*
X71950000Y-78900000D01*
X71950000Y-78900000D02*
X71950000Y-82900000D01*
%TO.C,J1*%
X113975000Y-90430000D02*
X114069000Y-90524000D01*
X119810000Y-96810000D02*
X119810000Y-89690000D01*
X112090000Y-96810000D02*
X112090000Y-89690000D01*
X116191000Y-92645000D02*
X116319000Y-92774000D01*
X112090000Y-89690000D02*
X119810000Y-89690000D01*
X119350000Y-96810000D02*
X119350000Y-89690000D01*
X112090000Y-96810000D02*
X119810000Y-96810000D01*
X119410000Y-97050000D02*
X120050000Y-97050000D01*
X120050000Y-97050000D02*
X120050000Y-96650000D01*
X118250000Y-96810000D02*
X118250000Y-89690000D01*
X114181000Y-90225000D02*
X114309000Y-90354000D01*
X116431000Y-92475000D02*
X116524000Y-92569000D01*
X116930000Y-95000000D02*
G75*
G03*
X116674721Y-94109736I-1679990J3D01*
G01*
X116690000Y-95866000D02*
G75*
G03*
X116930099Y-94971326I-1440014J866003D01*
G01*
X116141000Y-93575000D02*
G75*
G03*
X114359807Y-93574496I-891000J-1425003D01*
G01*
X113809999Y-94134000D02*
G75*
G03*
X113824642Y-95889894I1439999J-866000D01*
G01*
X114384000Y-96440001D02*
G75*
G03*
X116139894Y-96425358I866000J1439999D01*
G01*
X116930000Y-91500000D02*
G75*
G03*
X116930000Y-91500000I-1680000J0D01*
G01*
%TO.C,C7*%
X84087836Y-90390000D02*
X83872164Y-90390000D01*
X84087836Y-91110000D02*
X83872164Y-91110000D01*
%TO.C,R2*%
X110522500Y-95487258D02*
X110522500Y-95012742D01*
X109477500Y-95487258D02*
X109477500Y-95012742D01*
%TO.C,R10*%
X88653641Y-71620000D02*
X88346359Y-71620000D01*
X88653641Y-72380000D02*
X88346359Y-72380000D01*
%TO.C,C14*%
X95760000Y-79140580D02*
X95760000Y-78859420D01*
X94740000Y-79140580D02*
X94740000Y-78859420D01*
%TO.C,L1*%
X100550000Y-97700000D02*
X94950000Y-97700000D01*
X94950000Y-97700000D02*
X94950000Y-96550000D01*
X94950000Y-92300000D02*
X94950000Y-93450000D01*
X100550000Y-92300000D02*
X100550000Y-93450000D01*
X100550000Y-97700000D02*
X100550000Y-96550000D01*
X100550000Y-92300000D02*
X94950000Y-92300000D01*
%TO.C,C6*%
X79610000Y-78877836D02*
X79610000Y-78662164D01*
X78890000Y-78877836D02*
X78890000Y-78662164D01*
%TO.C,C15*%
X73392164Y-77640000D02*
X73607836Y-77640000D01*
X73392164Y-78360000D02*
X73607836Y-78360000D01*
%TO.C,R1*%
X108772500Y-95012742D02*
X108772500Y-95487258D01*
X107727500Y-95012742D02*
X107727500Y-95487258D01*
%TO.C,C16*%
X73607836Y-84360000D02*
X73392164Y-84360000D01*
X73607836Y-83640000D02*
X73392164Y-83640000D01*
%TO.C,C2*%
X96538748Y-98590000D02*
X97961252Y-98590000D01*
X96538748Y-100410000D02*
X97961252Y-100410000D01*
%TO.C,FB1*%
X104260000Y-91100378D02*
X104260000Y-91899622D01*
X103140000Y-91100378D02*
X103140000Y-91899622D01*
%TO.C,C1*%
X106860000Y-91711252D02*
X106860000Y-90288748D01*
X105040000Y-91711252D02*
X105040000Y-90288748D01*
%TO.C,C4*%
X101940000Y-96109420D02*
X101940000Y-96390580D01*
X102960000Y-96109420D02*
X102960000Y-96390580D01*
%TO.C,C9*%
X92890000Y-77587836D02*
X92890000Y-77372164D01*
X93610000Y-77587836D02*
X93610000Y-77372164D01*
%TO.C,C3*%
X96538748Y-103410000D02*
X97961252Y-103410000D01*
X96538748Y-101590000D02*
X97961252Y-101590000D01*
%TO.C,U2*%
X92110000Y-77890000D02*
X92110000Y-78840000D01*
X91160000Y-88110000D02*
X92110000Y-88110000D01*
X81890000Y-88110000D02*
X81890000Y-87160000D01*
X82840000Y-77890000D02*
X81890000Y-77890000D01*
X81890000Y-77890000D02*
X81890000Y-78840000D01*
X81890000Y-78840000D02*
X80550000Y-78840000D01*
X91160000Y-77890000D02*
X92110000Y-77890000D01*
X82840000Y-88110000D02*
X81890000Y-88110000D01*
X92110000Y-88110000D02*
X92110000Y-87160000D01*
%TO.C,C11*%
X77140000Y-85337836D02*
X77140000Y-85122164D01*
X77860000Y-85337836D02*
X77860000Y-85122164D01*
%TO.C,R9*%
X77477500Y-89987258D02*
X77477500Y-89512742D01*
X78522500Y-89987258D02*
X78522500Y-89512742D01*
%TO.C,U1*%
X107010000Y-95750000D02*
X107010000Y-94950000D01*
X107010000Y-95750000D02*
X107010000Y-96550000D01*
X103890000Y-95750000D02*
X103890000Y-97550000D01*
X103890000Y-95750000D02*
X103890000Y-94950000D01*
%TO.C,R4*%
X107727500Y-99512742D02*
X107727500Y-99987258D01*
X108772500Y-99512742D02*
X108772500Y-99987258D01*
%TO.C,R3*%
X107022500Y-99987258D02*
X107022500Y-99512742D01*
X105977500Y-99987258D02*
X105977500Y-99512742D01*
%TD*%
M02*
