%TF.GenerationSoftware,KiCad,Pcbnew,(6.0.7)*%
%TF.CreationDate,2022-09-22T19:59:32-07:00*%
%TF.ProjectId,STM32F4_rev2,53544d33-3246-4345-9f72-6576322e6b69,rev?*%
%TF.SameCoordinates,Original*%
%TF.FileFunction,Copper,L3,Inr*%
%TF.FilePolarity,Positive*%
%FSLAX46Y46*%
G04 Gerber Fmt 4.6, Leading zero omitted, Abs format (unit mm)*
G04 Created by KiCad (PCBNEW (6.0.7)) date 2022-09-22 19:59:32*
%MOMM*%
%LPD*%
G01*
G04 APERTURE LIST*
G04 Aperture macros list*
%AMRoundRect*
0 Rectangle with rounded corners*
0 $1 Rounding radius*
0 $2 $3 $4 $5 $6 $7 $8 $9 X,Y pos of 4 corners*
0 Add a 4 corners polygon primitive as box body*
4,1,4,$2,$3,$4,$5,$6,$7,$8,$9,$2,$3,0*
0 Add four circle primitives for the rounded corners*
1,1,$1+$1,$2,$3*
1,1,$1+$1,$4,$5*
1,1,$1+$1,$6,$7*
1,1,$1+$1,$8,$9*
0 Add four rect primitives between the rounded corners*
20,1,$1+$1,$2,$3,$4,$5,0*
20,1,$1+$1,$4,$5,$6,$7,0*
20,1,$1+$1,$6,$7,$8,$9,0*
20,1,$1+$1,$8,$9,$2,$3,0*%
G04 Aperture macros list end*
%TA.AperFunction,ComponentPad*%
%ADD10C,0.900000*%
%TD*%
%TA.AperFunction,ComponentPad*%
%ADD11C,8.600000*%
%TD*%
%TA.AperFunction,ComponentPad*%
%ADD12RoundRect,0.200000X0.200000X0.450000X-0.200000X0.450000X-0.200000X-0.450000X0.200000X-0.450000X0*%
%TD*%
%TA.AperFunction,ComponentPad*%
%ADD13O,0.800000X1.300000*%
%TD*%
%TA.AperFunction,ComponentPad*%
%ADD14O,1.700000X1.350000*%
%TD*%
%TA.AperFunction,ComponentPad*%
%ADD15O,1.500000X1.100000*%
%TD*%
%TA.AperFunction,ComponentPad*%
%ADD16RoundRect,0.200000X-0.200000X-0.450000X0.200000X-0.450000X0.200000X0.450000X-0.200000X0.450000X0*%
%TD*%
%TA.AperFunction,ComponentPad*%
%ADD17R,2.400000X2.400000*%
%TD*%
%TA.AperFunction,ComponentPad*%
%ADD18C,2.400000*%
%TD*%
%TA.AperFunction,ViaPad*%
%ADD19C,0.800000*%
%TD*%
G04 APERTURE END LIST*
D10*
%TO.N,GND*%
%TO.C,H2*%
X115250000Y-107225000D03*
X112025000Y-104000000D03*
X112969581Y-101719581D03*
X117530419Y-101719581D03*
X115250000Y-100775000D03*
X117530419Y-106280419D03*
X112969581Y-106280419D03*
X118475000Y-104000000D03*
D11*
X115250000Y-104000000D03*
%TD*%
D12*
%TO.N,+3.3V*%
%TO.C,J3*%
X90625000Y-65450000D03*
D13*
%TO.N,I2C1_SCL*%
X89375000Y-65450000D03*
%TO.N,I2C1_SDA*%
X88125000Y-65450000D03*
%TO.N,GND*%
X86875000Y-65450000D03*
%TD*%
D14*
%TO.N,unconnected-(J5-Pad6)*%
%TO.C,J5*%
X118865000Y-80255000D03*
D15*
X115865000Y-75105000D03*
D14*
X118865000Y-74795000D03*
D15*
X115865000Y-79945000D03*
%TD*%
D10*
%TO.N,GND*%
%TO.C,H3*%
X70250000Y-65225000D03*
X67969581Y-64280419D03*
D11*
X70250000Y-62000000D03*
D10*
X72530419Y-59719581D03*
X73475000Y-62000000D03*
X72530419Y-64280419D03*
X70250000Y-58775000D03*
X67969581Y-59719581D03*
X67025000Y-62000000D03*
%TD*%
D16*
%TO.N,+3.3V*%
%TO.C,J4*%
X86875000Y-99050000D03*
D13*
%TO.N,USART3_TX*%
X88125000Y-99050000D03*
%TO.N,USART3_RX*%
X89375000Y-99050000D03*
%TO.N,GND*%
X90625000Y-99050000D03*
%TD*%
D17*
%TO.N,+12V*%
%TO.C,J1*%
X115250000Y-95000000D03*
D18*
%TO.N,GND*%
X115250000Y-91500000D03*
%TD*%
D10*
%TO.N,GND*%
%TO.C,H4*%
X112969581Y-64280419D03*
X115250000Y-65225000D03*
X112969581Y-59719581D03*
X112025000Y-62000000D03*
X117530419Y-59719581D03*
D11*
X115250000Y-62000000D03*
D10*
X118475000Y-62000000D03*
X115250000Y-58775000D03*
X117530419Y-64280419D03*
%TD*%
D11*
%TO.N,GND*%
%TO.C,H1*%
X70250000Y-104000000D03*
D10*
X67969581Y-101719581D03*
X67025000Y-104000000D03*
X70250000Y-100775000D03*
X70250000Y-107225000D03*
X67969581Y-106280419D03*
X72530419Y-101719581D03*
X72530419Y-106280419D03*
X73475000Y-104000000D03*
%TD*%
D19*
%TO.N,NRST*%
X95750000Y-67250000D03*
X89500000Y-81000000D03*
%TO.N,GND*%
X101750000Y-60750000D03*
X76250000Y-61750000D03*
X76750000Y-103750000D03*
X97000000Y-78250000D03*
X94250000Y-76250000D03*
X76750000Y-89000000D03*
X77500000Y-83750000D03*
X78750000Y-83750000D03*
X82499478Y-90739668D03*
X94250000Y-89000000D03*
X93500000Y-90750000D03*
X90750000Y-96750000D03*
X100250000Y-102500000D03*
X100250000Y-99500000D03*
X105000000Y-98500000D03*
X115250000Y-98750000D03*
X111250000Y-99000000D03*
X111250000Y-95250000D03*
X101750000Y-89750000D03*
X106250000Y-88250000D03*
X110500000Y-88500000D03*
X115250000Y-88750000D03*
X108750000Y-75750000D03*
X114500000Y-76250000D03*
X110000000Y-60250000D03*
X107000000Y-62250000D03*
%TO.N,+3.3V*%
X104500000Y-62250000D03*
%TO.N,GND*%
X100500000Y-60750000D03*
X83750000Y-74250000D03*
X78500000Y-73750000D03*
X79250000Y-77250000D03*
X71250000Y-82000000D03*
X75500000Y-79750000D03*
X74000000Y-77000000D03*
X71250000Y-76000000D03*
%TO.N,+3.3V*%
X78750000Y-75250000D03*
X94000000Y-78250000D03*
X90000000Y-72000000D03*
X86000000Y-71000000D03*
X78250000Y-79250000D03*
X75250000Y-86250000D03*
X84500000Y-92000000D03*
X93000000Y-87750000D03*
X93750000Y-95000000D03*
X106500000Y-101750000D03*
X107000000Y-66750000D03*
%TO.N,GND*%
X98000000Y-60750000D03*
%TO.N,+3.3V*%
X71250000Y-71500000D03*
%TD*%
%TA.AperFunction,Conductor*%
%TO.N,+3.3V*%
G36*
X114495221Y-57028502D02*
G01*
X114541714Y-57082158D01*
X114551818Y-57152432D01*
X114522324Y-57217012D01*
X114462598Y-57255396D01*
X114447789Y-57258790D01*
X114249249Y-57291836D01*
X114163671Y-57314048D01*
X113837400Y-57398731D01*
X113837389Y-57398734D01*
X113834682Y-57399437D01*
X113576575Y-57491599D01*
X113433964Y-57542520D01*
X113433959Y-57542522D01*
X113431321Y-57543464D01*
X113428781Y-57544635D01*
X113428776Y-57544637D01*
X113326930Y-57591589D01*
X113042361Y-57722777D01*
X112670880Y-57935957D01*
X112668577Y-57937566D01*
X112668570Y-57937571D01*
X112491960Y-58061005D01*
X112319820Y-58181315D01*
X111991961Y-58456909D01*
X111689899Y-58760557D01*
X111416025Y-59089855D01*
X111414431Y-59092162D01*
X111414429Y-59092164D01*
X111291455Y-59270093D01*
X111172508Y-59442194D01*
X111069262Y-59624309D01*
X110988884Y-59766088D01*
X110937887Y-59815483D01*
X110868281Y-59829467D01*
X110802165Y-59803598D01*
X110770154Y-59766947D01*
X110742341Y-59718774D01*
X110739040Y-59713056D01*
X110611253Y-59571134D01*
X110456752Y-59458882D01*
X110450724Y-59456198D01*
X110450722Y-59456197D01*
X110288319Y-59383891D01*
X110288318Y-59383891D01*
X110282288Y-59381206D01*
X110188888Y-59361353D01*
X110101944Y-59342872D01*
X110101939Y-59342872D01*
X110095487Y-59341500D01*
X109904513Y-59341500D01*
X109898061Y-59342872D01*
X109898056Y-59342872D01*
X109811112Y-59361353D01*
X109717712Y-59381206D01*
X109711682Y-59383891D01*
X109711681Y-59383891D01*
X109549278Y-59456197D01*
X109549276Y-59456198D01*
X109543248Y-59458882D01*
X109388747Y-59571134D01*
X109260960Y-59713056D01*
X109257659Y-59718774D01*
X109186011Y-59842872D01*
X109165473Y-59878444D01*
X109106458Y-60060072D01*
X109105768Y-60066633D01*
X109105768Y-60066635D01*
X109097864Y-60141839D01*
X109086496Y-60250000D01*
X109106458Y-60439928D01*
X109165473Y-60621556D01*
X109260960Y-60786944D01*
X109388747Y-60928866D01*
X109543248Y-61041118D01*
X109549276Y-61043802D01*
X109549278Y-61043803D01*
X109709799Y-61115271D01*
X109717712Y-61118794D01*
X109811112Y-61138647D01*
X109898056Y-61157128D01*
X109898061Y-61157128D01*
X109904513Y-61158500D01*
X110095487Y-61158500D01*
X110101939Y-61157128D01*
X110101944Y-61157128D01*
X110188888Y-61138647D01*
X110282288Y-61118794D01*
X110288315Y-61116111D01*
X110288323Y-61116108D01*
X110327186Y-61098805D01*
X110397553Y-61089371D01*
X110461850Y-61119478D01*
X110499663Y-61179567D01*
X110502831Y-61233948D01*
X110468552Y-61446768D01*
X110438302Y-61874001D01*
X110446151Y-62302233D01*
X110492036Y-62728071D01*
X110492582Y-62730817D01*
X110492583Y-62730822D01*
X110504723Y-62791852D01*
X110575594Y-63148144D01*
X110696163Y-63559127D01*
X110697190Y-63561740D01*
X110697190Y-63561741D01*
X110835651Y-63914145D01*
X110852789Y-63957765D01*
X110854044Y-63960276D01*
X111039387Y-64331206D01*
X111044231Y-64340901D01*
X111268974Y-64705502D01*
X111525239Y-65048682D01*
X111527100Y-65050760D01*
X111527101Y-65050761D01*
X111809127Y-65365637D01*
X111809133Y-65365643D01*
X111810995Y-65367722D01*
X112123981Y-65660098D01*
X112461719Y-65923493D01*
X112821533Y-66155822D01*
X112824012Y-66157126D01*
X112824015Y-66157128D01*
X113198077Y-66353932D01*
X113198083Y-66353935D01*
X113200577Y-66355247D01*
X113203175Y-66356331D01*
X113203179Y-66356333D01*
X113593263Y-66519109D01*
X113593268Y-66519111D01*
X113595847Y-66520187D01*
X113598512Y-66521030D01*
X113598518Y-66521032D01*
X113770199Y-66575327D01*
X114004214Y-66649336D01*
X114006944Y-66649939D01*
X114006945Y-66649939D01*
X114270598Y-66708148D01*
X114422446Y-66741673D01*
X114425220Y-66742031D01*
X114425221Y-66742031D01*
X114844460Y-66796109D01*
X114844467Y-66796110D01*
X114847230Y-66796466D01*
X114850017Y-66796576D01*
X114850023Y-66796576D01*
X115098238Y-66806328D01*
X115275203Y-66813281D01*
X115277995Y-66813142D01*
X115278000Y-66813142D01*
X115700172Y-66792125D01*
X115700181Y-66792124D01*
X115702976Y-66791985D01*
X115705753Y-66791597D01*
X115705755Y-66791597D01*
X115780066Y-66781219D01*
X116127163Y-66732747D01*
X116544404Y-66636036D01*
X116758307Y-66565915D01*
X116948744Y-66503487D01*
X116948750Y-66503485D01*
X116951397Y-66502617D01*
X117297471Y-66353932D01*
X117342344Y-66334653D01*
X117342346Y-66334652D01*
X117344918Y-66333547D01*
X117721852Y-66130164D01*
X118079214Y-65894080D01*
X118414175Y-65627162D01*
X118724082Y-65331525D01*
X118725919Y-65329431D01*
X118725927Y-65329422D01*
X118975113Y-65045279D01*
X119006482Y-65009510D01*
X119033896Y-64971986D01*
X119257490Y-64665923D01*
X119259139Y-64663666D01*
X119260585Y-64661265D01*
X119478601Y-64299142D01*
X119478606Y-64299133D01*
X119480052Y-64296731D01*
X119667471Y-63911611D01*
X119800724Y-63561741D01*
X119818918Y-63513971D01*
X119818920Y-63513964D01*
X119819914Y-63511355D01*
X119936173Y-63099132D01*
X119946578Y-63043803D01*
X119991670Y-62804010D01*
X120023917Y-62740759D01*
X120085241Y-62704983D01*
X120156172Y-62708041D01*
X120214189Y-62748961D01*
X120240874Y-62814752D01*
X120241500Y-62827296D01*
X120241500Y-74041436D01*
X120221498Y-74109557D01*
X120167842Y-74156050D01*
X120097568Y-74166154D01*
X120032988Y-74136660D01*
X120007216Y-74105861D01*
X120001573Y-74096376D01*
X119858158Y-73932842D01*
X119687342Y-73798181D01*
X119494846Y-73696905D01*
X119446406Y-73681864D01*
X119292639Y-73634117D01*
X119292636Y-73634116D01*
X119287118Y-73632403D01*
X119272833Y-73630712D01*
X119114197Y-73611936D01*
X119114190Y-73611936D01*
X119110510Y-73611500D01*
X118634824Y-73611500D01*
X118473400Y-73626333D01*
X118467838Y-73627902D01*
X118467836Y-73627902D01*
X118368727Y-73655854D01*
X118264055Y-73685374D01*
X118068974Y-73781577D01*
X117894691Y-73911720D01*
X117890777Y-73915954D01*
X117890775Y-73915956D01*
X117756667Y-74061034D01*
X117747044Y-74071444D01*
X117630976Y-74255401D01*
X117550376Y-74457428D01*
X117507941Y-74670761D01*
X117505094Y-74888254D01*
X117506073Y-74893951D01*
X117506073Y-74893952D01*
X117540865Y-75096425D01*
X117541930Y-75102625D01*
X117617214Y-75306693D01*
X117642735Y-75349590D01*
X117710067Y-75462763D01*
X117728427Y-75493624D01*
X117871842Y-75657158D01*
X117876373Y-75660730D01*
X118002990Y-75760547D01*
X118042658Y-75791819D01*
X118235154Y-75893095D01*
X118277342Y-75906195D01*
X118437361Y-75955883D01*
X118437364Y-75955884D01*
X118442882Y-75957597D01*
X118448619Y-75958276D01*
X118615803Y-75978064D01*
X118615810Y-75978064D01*
X118619490Y-75978500D01*
X119095176Y-75978500D01*
X119256600Y-75963667D01*
X119262162Y-75962098D01*
X119262164Y-75962098D01*
X119361273Y-75934146D01*
X119465945Y-75904626D01*
X119661026Y-75808423D01*
X119730473Y-75756565D01*
X119830685Y-75681733D01*
X119830686Y-75681732D01*
X119835309Y-75678280D01*
X119839225Y-75674044D01*
X119979037Y-75522796D01*
X119979039Y-75522793D01*
X119982956Y-75518556D01*
X120008938Y-75477377D01*
X120062205Y-75430438D01*
X120132392Y-75419749D01*
X120197216Y-75448704D01*
X120236096Y-75508108D01*
X120241500Y-75544612D01*
X120241500Y-79501436D01*
X120221498Y-79569557D01*
X120167842Y-79616050D01*
X120097568Y-79626154D01*
X120032988Y-79596660D01*
X120007216Y-79565861D01*
X120001573Y-79556376D01*
X119858158Y-79392842D01*
X119804105Y-79350230D01*
X119691876Y-79261755D01*
X119691874Y-79261753D01*
X119687342Y-79258181D01*
X119494846Y-79156905D01*
X119446406Y-79141864D01*
X119292639Y-79094117D01*
X119292636Y-79094116D01*
X119287118Y-79092403D01*
X119272833Y-79090712D01*
X119114197Y-79071936D01*
X119114190Y-79071936D01*
X119110510Y-79071500D01*
X118634824Y-79071500D01*
X118473400Y-79086333D01*
X118467838Y-79087902D01*
X118467836Y-79087902D01*
X118368728Y-79115853D01*
X118264055Y-79145374D01*
X118068974Y-79241577D01*
X118064348Y-79245031D01*
X118064347Y-79245032D01*
X117906904Y-79362600D01*
X117894691Y-79371720D01*
X117890777Y-79375954D01*
X117890775Y-79375956D01*
X117882666Y-79384729D01*
X117747044Y-79531444D01*
X117630976Y-79715401D01*
X117550376Y-79917428D01*
X117507941Y-80130761D01*
X117507865Y-80136536D01*
X117507865Y-80136540D01*
X117506438Y-80245581D01*
X117505094Y-80348254D01*
X117506073Y-80353951D01*
X117506073Y-80353952D01*
X117538819Y-80544518D01*
X117541930Y-80562625D01*
X117617214Y-80766693D01*
X117650481Y-80822609D01*
X117714463Y-80930152D01*
X117728427Y-80953624D01*
X117871842Y-81117158D01*
X117876373Y-81120730D01*
X117972114Y-81196206D01*
X118042658Y-81251819D01*
X118235154Y-81353095D01*
X118274367Y-81365271D01*
X118437361Y-81415883D01*
X118437364Y-81415884D01*
X118442882Y-81417597D01*
X118448619Y-81418276D01*
X118615803Y-81438064D01*
X118615810Y-81438064D01*
X118619490Y-81438500D01*
X119095176Y-81438500D01*
X119256600Y-81423667D01*
X119262162Y-81422098D01*
X119262164Y-81422098D01*
X119361272Y-81394147D01*
X119465945Y-81364626D01*
X119661026Y-81268423D01*
X119835309Y-81138280D01*
X119841848Y-81131206D01*
X119979037Y-80982796D01*
X119979039Y-80982793D01*
X119982956Y-80978556D01*
X120008938Y-80937377D01*
X120062205Y-80890438D01*
X120132392Y-80879749D01*
X120197216Y-80908704D01*
X120236096Y-80968108D01*
X120241500Y-81004612D01*
X120241500Y-103155768D01*
X120221498Y-103223889D01*
X120167842Y-103270382D01*
X120097568Y-103280486D01*
X120032988Y-103250992D01*
X119994604Y-103191266D01*
X119990621Y-103172541D01*
X119988368Y-103155768D01*
X119987275Y-103147630D01*
X119969088Y-103067251D01*
X119893368Y-102732618D01*
X119893368Y-102732617D01*
X119892750Y-102729887D01*
X119820834Y-102506565D01*
X119762318Y-102324856D01*
X119762316Y-102324849D01*
X119761463Y-102322202D01*
X119594456Y-101927801D01*
X119393050Y-101549807D01*
X119158840Y-101191214D01*
X118893680Y-100854860D01*
X118599670Y-100543409D01*
X118597579Y-100541556D01*
X118597571Y-100541548D01*
X118281237Y-100261188D01*
X118281235Y-100261186D01*
X118279137Y-100259327D01*
X117934621Y-100004863D01*
X117705483Y-99865271D01*
X117571237Y-99783487D01*
X117571230Y-99783483D01*
X117568848Y-99782032D01*
X117451514Y-99724169D01*
X117187228Y-99593838D01*
X117184714Y-99592598D01*
X116785262Y-99438062D01*
X116482222Y-99350880D01*
X116376335Y-99320417D01*
X116376329Y-99320415D01*
X116373654Y-99319646D01*
X116370917Y-99319117D01*
X116370911Y-99319115D01*
X116227542Y-99291377D01*
X116181017Y-99282376D01*
X116117937Y-99249798D01*
X116082483Y-99188288D01*
X116085119Y-99119734D01*
X116141502Y-98946206D01*
X116141503Y-98946203D01*
X116143542Y-98939928D01*
X116155512Y-98826045D01*
X116162814Y-98756565D01*
X116163504Y-98750000D01*
X116157190Y-98689928D01*
X116144232Y-98566635D01*
X116144232Y-98566633D01*
X116143542Y-98560072D01*
X116084527Y-98378444D01*
X115989040Y-98213056D01*
X115861253Y-98071134D01*
X115706752Y-97958882D01*
X115700724Y-97956198D01*
X115700722Y-97956197D01*
X115538319Y-97883891D01*
X115538318Y-97883891D01*
X115532288Y-97881206D01*
X115438887Y-97861353D01*
X115351944Y-97842872D01*
X115351939Y-97842872D01*
X115345487Y-97841500D01*
X115154513Y-97841500D01*
X115148061Y-97842872D01*
X115148056Y-97842872D01*
X115061113Y-97861353D01*
X114967712Y-97881206D01*
X114961682Y-97883891D01*
X114961681Y-97883891D01*
X114799278Y-97956197D01*
X114799276Y-97956198D01*
X114793248Y-97958882D01*
X114638747Y-98071134D01*
X114510960Y-98213056D01*
X114415473Y-98378444D01*
X114356458Y-98560072D01*
X114355768Y-98566633D01*
X114355768Y-98566635D01*
X114342810Y-98689928D01*
X114336496Y-98750000D01*
X114337186Y-98756565D01*
X114344489Y-98826045D01*
X114356458Y-98939928D01*
X114414206Y-99117657D01*
X114416234Y-99188623D01*
X114379571Y-99249421D01*
X114315060Y-99280882D01*
X114306084Y-99282376D01*
X114252011Y-99291376D01*
X114252005Y-99291377D01*
X114249249Y-99291836D01*
X114241671Y-99293803D01*
X113837400Y-99398731D01*
X113837389Y-99398734D01*
X113834682Y-99399437D01*
X113712358Y-99443115D01*
X113433964Y-99542520D01*
X113433959Y-99542522D01*
X113431321Y-99543464D01*
X113428781Y-99544635D01*
X113428776Y-99544637D01*
X113396636Y-99559454D01*
X113042361Y-99722777D01*
X113039938Y-99724167D01*
X113039935Y-99724169D01*
X112673321Y-99934556D01*
X112670880Y-99935957D01*
X112668577Y-99937566D01*
X112668570Y-99937571D01*
X112323324Y-100178866D01*
X112319820Y-100181315D01*
X111991961Y-100456909D01*
X111689899Y-100760557D01*
X111416025Y-101089855D01*
X111172508Y-101442194D01*
X110961276Y-101814786D01*
X110784002Y-102204680D01*
X110783080Y-102207306D01*
X110783075Y-102207318D01*
X110746991Y-102310072D01*
X110642089Y-102608790D01*
X110641398Y-102611510D01*
X110641397Y-102611514D01*
X110573253Y-102879834D01*
X110536661Y-103023914D01*
X110468552Y-103446768D01*
X110438302Y-103874001D01*
X110446151Y-104302233D01*
X110492036Y-104728071D01*
X110575594Y-105148144D01*
X110696163Y-105559127D01*
X110697190Y-105561740D01*
X110697190Y-105561741D01*
X110835651Y-105914145D01*
X110852789Y-105957765D01*
X110948702Y-106149717D01*
X111024358Y-106301128D01*
X111044231Y-106340901D01*
X111268974Y-106705502D01*
X111525239Y-107048682D01*
X111527100Y-107050760D01*
X111527101Y-107050761D01*
X111809127Y-107365637D01*
X111809133Y-107365643D01*
X111810995Y-107367722D01*
X112123981Y-107660098D01*
X112461719Y-107923493D01*
X112821533Y-108155822D01*
X112824012Y-108157126D01*
X112824015Y-108157128D01*
X113198077Y-108353932D01*
X113198083Y-108353935D01*
X113200577Y-108355247D01*
X113203175Y-108356331D01*
X113203179Y-108356333D01*
X113593263Y-108519109D01*
X113593268Y-108519111D01*
X113595847Y-108520187D01*
X113598512Y-108521030D01*
X113598518Y-108521032D01*
X113820561Y-108591254D01*
X114004214Y-108649336D01*
X114006944Y-108649939D01*
X114006945Y-108649939D01*
X114419717Y-108741071D01*
X114419728Y-108741073D01*
X114421771Y-108741524D01*
X114422446Y-108741673D01*
X114422409Y-108741839D01*
X114485140Y-108772794D01*
X114521715Y-108833645D01*
X114519585Y-108904609D01*
X114479426Y-108963157D01*
X114413990Y-108990699D01*
X114399808Y-108991500D01*
X71087562Y-108991500D01*
X71019441Y-108971498D01*
X70972948Y-108917842D01*
X70962844Y-108847568D01*
X70992338Y-108782988D01*
X71052064Y-108744604D01*
X71070135Y-108740711D01*
X71070321Y-108740685D01*
X71127163Y-108732747D01*
X71544404Y-108636036D01*
X71758307Y-108565915D01*
X71948744Y-108503487D01*
X71948750Y-108503485D01*
X71951397Y-108502617D01*
X72344918Y-108333547D01*
X72721852Y-108130164D01*
X73079214Y-107894080D01*
X73414175Y-107627162D01*
X73724082Y-107331525D01*
X73725919Y-107329431D01*
X73725927Y-107329422D01*
X74004635Y-107011616D01*
X74006482Y-107009510D01*
X74259139Y-106663666D01*
X74260585Y-106661265D01*
X74478601Y-106299142D01*
X74478606Y-106299133D01*
X74480052Y-106296731D01*
X74591110Y-106068523D01*
X74666238Y-105914145D01*
X74666239Y-105914142D01*
X74667471Y-105911611D01*
X74800724Y-105561741D01*
X74818918Y-105513971D01*
X74818920Y-105513964D01*
X74819914Y-105511355D01*
X74936173Y-105099132D01*
X74965973Y-104940662D01*
X75014811Y-104680954D01*
X75014813Y-104680942D01*
X75015327Y-104678207D01*
X75056750Y-104251911D01*
X75060164Y-104121556D01*
X75063289Y-104002234D01*
X75063289Y-104002220D01*
X75063347Y-104000000D01*
X75052213Y-103750000D01*
X75836496Y-103750000D01*
X75837186Y-103756565D01*
X75849234Y-103871191D01*
X75856458Y-103939928D01*
X75915473Y-104121556D01*
X76010960Y-104286944D01*
X76138747Y-104428866D01*
X76293248Y-104541118D01*
X76299276Y-104543802D01*
X76299278Y-104543803D01*
X76461681Y-104616109D01*
X76467712Y-104618794D01*
X76561113Y-104638647D01*
X76648056Y-104657128D01*
X76648061Y-104657128D01*
X76654513Y-104658500D01*
X76845487Y-104658500D01*
X76851939Y-104657128D01*
X76851944Y-104657128D01*
X76938888Y-104638647D01*
X77032288Y-104618794D01*
X77038319Y-104616109D01*
X77200722Y-104543803D01*
X77200724Y-104543802D01*
X77206752Y-104541118D01*
X77361253Y-104428866D01*
X77489040Y-104286944D01*
X77584527Y-104121556D01*
X77643542Y-103939928D01*
X77650767Y-103871191D01*
X77662814Y-103756565D01*
X77663504Y-103750000D01*
X77645104Y-103574929D01*
X77644232Y-103566635D01*
X77644232Y-103566633D01*
X77643542Y-103560072D01*
X77584527Y-103378444D01*
X77577406Y-103366109D01*
X77547314Y-103313990D01*
X77489040Y-103213056D01*
X77461752Y-103182749D01*
X77365675Y-103076045D01*
X77365674Y-103076044D01*
X77361253Y-103071134D01*
X77206752Y-102958882D01*
X77200724Y-102956198D01*
X77200722Y-102956197D01*
X77038319Y-102883891D01*
X77038318Y-102883891D01*
X77032288Y-102881206D01*
X76938887Y-102861353D01*
X76851944Y-102842872D01*
X76851939Y-102842872D01*
X76845487Y-102841500D01*
X76654513Y-102841500D01*
X76648061Y-102842872D01*
X76648056Y-102842872D01*
X76561113Y-102861353D01*
X76467712Y-102881206D01*
X76461682Y-102883891D01*
X76461681Y-102883891D01*
X76299278Y-102956197D01*
X76299276Y-102956198D01*
X76293248Y-102958882D01*
X76138747Y-103071134D01*
X76134326Y-103076044D01*
X76134325Y-103076045D01*
X76038249Y-103182749D01*
X76010960Y-103213056D01*
X75952686Y-103313990D01*
X75922595Y-103366109D01*
X75915473Y-103378444D01*
X75856458Y-103560072D01*
X75855768Y-103566633D01*
X75855768Y-103566635D01*
X75854896Y-103574929D01*
X75836496Y-103750000D01*
X75052213Y-103750000D01*
X75044291Y-103572121D01*
X75041830Y-103553794D01*
X75016620Y-103366109D01*
X74987275Y-103147630D01*
X74969088Y-103067251D01*
X74893368Y-102732618D01*
X74893368Y-102732617D01*
X74892750Y-102729887D01*
X74820834Y-102506565D01*
X74818720Y-102500000D01*
X99336496Y-102500000D01*
X99356458Y-102689928D01*
X99415473Y-102871556D01*
X99418776Y-102877278D01*
X99418777Y-102877279D01*
X99452686Y-102936010D01*
X99510960Y-103036944D01*
X99515378Y-103041851D01*
X99515379Y-103041852D01*
X99608153Y-103144888D01*
X99638747Y-103178866D01*
X99793248Y-103291118D01*
X99799276Y-103293802D01*
X99799278Y-103293803D01*
X99808094Y-103297728D01*
X99967712Y-103368794D01*
X100042680Y-103384729D01*
X100148056Y-103407128D01*
X100148061Y-103407128D01*
X100154513Y-103408500D01*
X100345487Y-103408500D01*
X100351939Y-103407128D01*
X100351944Y-103407128D01*
X100457320Y-103384729D01*
X100532288Y-103368794D01*
X100691906Y-103297728D01*
X100700722Y-103293803D01*
X100700724Y-103293802D01*
X100706752Y-103291118D01*
X100861253Y-103178866D01*
X100891847Y-103144888D01*
X100984621Y-103041852D01*
X100984622Y-103041851D01*
X100989040Y-103036944D01*
X101047314Y-102936010D01*
X101081223Y-102877279D01*
X101081224Y-102877278D01*
X101084527Y-102871556D01*
X101143542Y-102689928D01*
X101163504Y-102500000D01*
X101143542Y-102310072D01*
X101084527Y-102128444D01*
X100989040Y-101963056D01*
X100861253Y-101821134D01*
X100706752Y-101708882D01*
X100700724Y-101706198D01*
X100700722Y-101706197D01*
X100538319Y-101633891D01*
X100538318Y-101633891D01*
X100532288Y-101631206D01*
X100438887Y-101611353D01*
X100351944Y-101592872D01*
X100351939Y-101592872D01*
X100345487Y-101591500D01*
X100154513Y-101591500D01*
X100148061Y-101592872D01*
X100148056Y-101592872D01*
X100061113Y-101611353D01*
X99967712Y-101631206D01*
X99961682Y-101633891D01*
X99961681Y-101633891D01*
X99799278Y-101706197D01*
X99799276Y-101706198D01*
X99793248Y-101708882D01*
X99638747Y-101821134D01*
X99510960Y-101963056D01*
X99415473Y-102128444D01*
X99356458Y-102310072D01*
X99336496Y-102500000D01*
X74818720Y-102500000D01*
X74762318Y-102324856D01*
X74762316Y-102324849D01*
X74761463Y-102322202D01*
X74594456Y-101927801D01*
X74393050Y-101549807D01*
X74158840Y-101191214D01*
X73893680Y-100854860D01*
X73599670Y-100543409D01*
X73597579Y-100541556D01*
X73597571Y-100541548D01*
X73281237Y-100261188D01*
X73281235Y-100261186D01*
X73279137Y-100259327D01*
X72934621Y-100004863D01*
X72705483Y-99865271D01*
X72571237Y-99783487D01*
X72571230Y-99783483D01*
X72568848Y-99782032D01*
X72451514Y-99724169D01*
X72187228Y-99593838D01*
X72184714Y-99592598D01*
X72084182Y-99553705D01*
X85967001Y-99553705D01*
X85967264Y-99559454D01*
X85973132Y-99623315D01*
X85975743Y-99636351D01*
X86022715Y-99786243D01*
X86028921Y-99799988D01*
X86109824Y-99933574D01*
X86119131Y-99945443D01*
X86229557Y-100055869D01*
X86241426Y-100065176D01*
X86375012Y-100146079D01*
X86388757Y-100152285D01*
X86482713Y-100181729D01*
X86496813Y-100181984D01*
X86500000Y-100175327D01*
X86500000Y-99443115D01*
X86495525Y-99427876D01*
X86494135Y-99426671D01*
X86486452Y-99425000D01*
X85985116Y-99425000D01*
X85969877Y-99429475D01*
X85968672Y-99430865D01*
X85967001Y-99438548D01*
X85967001Y-99553705D01*
X72084182Y-99553705D01*
X71785262Y-99438062D01*
X71482222Y-99350880D01*
X71470856Y-99347610D01*
X87216500Y-99347610D01*
X87231458Y-99489928D01*
X87233498Y-99496206D01*
X87243833Y-99528014D01*
X87250000Y-99566950D01*
X87250000Y-100169031D01*
X87253973Y-100182562D01*
X87261277Y-100183612D01*
X87361243Y-100152285D01*
X87374988Y-100146079D01*
X87504578Y-100067596D01*
X87573208Y-100049417D01*
X87643911Y-100073436D01*
X87668248Y-100091118D01*
X87674276Y-100093802D01*
X87674278Y-100093803D01*
X87791693Y-100146079D01*
X87842712Y-100168794D01*
X87912425Y-100183612D01*
X88023056Y-100207128D01*
X88023061Y-100207128D01*
X88029513Y-100208500D01*
X88220487Y-100208500D01*
X88226939Y-100207128D01*
X88226944Y-100207128D01*
X88337575Y-100183612D01*
X88407288Y-100168794D01*
X88458307Y-100146079D01*
X88575722Y-100093803D01*
X88575724Y-100093802D01*
X88581752Y-100091118D01*
X88675939Y-100022687D01*
X88742807Y-99998828D01*
X88811958Y-100014909D01*
X88824061Y-100022687D01*
X88918248Y-100091118D01*
X88924276Y-100093802D01*
X88924278Y-100093803D01*
X89041693Y-100146079D01*
X89092712Y-100168794D01*
X89162425Y-100183612D01*
X89273056Y-100207128D01*
X89273061Y-100207128D01*
X89279513Y-100208500D01*
X89470487Y-100208500D01*
X89476939Y-100207128D01*
X89476944Y-100207128D01*
X89587575Y-100183612D01*
X89657288Y-100168794D01*
X89708307Y-100146079D01*
X89825722Y-100093803D01*
X89825724Y-100093802D01*
X89831752Y-100091118D01*
X89925939Y-100022687D01*
X89992807Y-99998828D01*
X90061958Y-100014909D01*
X90074061Y-100022687D01*
X90168248Y-100091118D01*
X90174276Y-100093802D01*
X90174278Y-100093803D01*
X90291693Y-100146079D01*
X90342712Y-100168794D01*
X90412425Y-100183612D01*
X90523056Y-100207128D01*
X90523061Y-100207128D01*
X90529513Y-100208500D01*
X90720487Y-100208500D01*
X90726939Y-100207128D01*
X90726944Y-100207128D01*
X90837575Y-100183612D01*
X90907288Y-100168794D01*
X90958307Y-100146079D01*
X91075722Y-100093803D01*
X91075724Y-100093802D01*
X91081752Y-100091118D01*
X91236253Y-99978866D01*
X91273435Y-99937571D01*
X91359621Y-99841852D01*
X91359622Y-99841851D01*
X91364040Y-99836944D01*
X91429151Y-99724169D01*
X91456223Y-99677279D01*
X91456224Y-99677278D01*
X91459527Y-99671556D01*
X91515269Y-99500000D01*
X99336496Y-99500000D01*
X99337186Y-99506565D01*
X99355129Y-99677279D01*
X99356458Y-99689928D01*
X99415473Y-99871556D01*
X99418776Y-99877278D01*
X99418777Y-99877279D01*
X99436803Y-99908500D01*
X99510960Y-100036944D01*
X99515378Y-100041851D01*
X99515379Y-100041852D01*
X99630913Y-100170166D01*
X99638747Y-100178866D01*
X99793248Y-100291118D01*
X99799276Y-100293802D01*
X99799278Y-100293803D01*
X99961681Y-100366109D01*
X99967712Y-100368794D01*
X100061113Y-100388647D01*
X100148056Y-100407128D01*
X100148061Y-100407128D01*
X100154513Y-100408500D01*
X100345487Y-100408500D01*
X100351939Y-100407128D01*
X100351944Y-100407128D01*
X100438887Y-100388647D01*
X100532288Y-100368794D01*
X100538319Y-100366109D01*
X100700722Y-100293803D01*
X100700724Y-100293802D01*
X100706752Y-100291118D01*
X100861253Y-100178866D01*
X100869087Y-100170166D01*
X100984621Y-100041852D01*
X100984622Y-100041851D01*
X100989040Y-100036944D01*
X101063197Y-99908500D01*
X101081223Y-99877279D01*
X101081224Y-99877278D01*
X101084527Y-99871556D01*
X101143542Y-99689928D01*
X101144872Y-99677279D01*
X101162814Y-99506565D01*
X101163504Y-99500000D01*
X101147831Y-99350880D01*
X101144232Y-99316635D01*
X101144232Y-99316633D01*
X101143542Y-99310072D01*
X101084527Y-99128444D01*
X100989040Y-98963056D01*
X100968216Y-98939928D01*
X100865675Y-98826045D01*
X100865674Y-98826044D01*
X100861253Y-98821134D01*
X100706752Y-98708882D01*
X100700724Y-98706198D01*
X100700722Y-98706197D01*
X100538319Y-98633891D01*
X100538318Y-98633891D01*
X100532288Y-98631206D01*
X100432861Y-98610072D01*
X100351944Y-98592872D01*
X100351939Y-98592872D01*
X100345487Y-98591500D01*
X100154513Y-98591500D01*
X100148061Y-98592872D01*
X100148056Y-98592872D01*
X100067139Y-98610072D01*
X99967712Y-98631206D01*
X99961682Y-98633891D01*
X99961681Y-98633891D01*
X99799278Y-98706197D01*
X99799276Y-98706198D01*
X99793248Y-98708882D01*
X99638747Y-98821134D01*
X99634326Y-98826044D01*
X99634325Y-98826045D01*
X99531785Y-98939928D01*
X99510960Y-98963056D01*
X99415473Y-99128444D01*
X99356458Y-99310072D01*
X99355768Y-99316633D01*
X99355768Y-99316635D01*
X99352169Y-99350880D01*
X99336496Y-99500000D01*
X91515269Y-99500000D01*
X91518542Y-99489928D01*
X91533500Y-99347610D01*
X91533500Y-98752390D01*
X91521134Y-98634729D01*
X91519232Y-98616635D01*
X91519232Y-98616633D01*
X91518542Y-98610072D01*
X91482777Y-98500000D01*
X104086496Y-98500000D01*
X104087186Y-98506565D01*
X104104419Y-98670525D01*
X104106458Y-98689928D01*
X104165473Y-98871556D01*
X104260960Y-99036944D01*
X104388747Y-99178866D01*
X104471269Y-99238822D01*
X104531216Y-99282376D01*
X104543248Y-99291118D01*
X104549276Y-99293802D01*
X104549278Y-99293803D01*
X104677476Y-99350880D01*
X104717712Y-99368794D01*
X104811113Y-99388647D01*
X104898056Y-99407128D01*
X104898061Y-99407128D01*
X104904513Y-99408500D01*
X105095487Y-99408500D01*
X105101939Y-99407128D01*
X105101944Y-99407128D01*
X105188887Y-99388647D01*
X105282288Y-99368794D01*
X105322524Y-99350880D01*
X105450722Y-99293803D01*
X105450724Y-99293802D01*
X105456752Y-99291118D01*
X105468785Y-99282376D01*
X105528731Y-99238822D01*
X105611253Y-99178866D01*
X105739040Y-99036944D01*
X105760370Y-99000000D01*
X110336496Y-99000000D01*
X110356458Y-99189928D01*
X110415473Y-99371556D01*
X110418776Y-99377278D01*
X110418777Y-99377279D01*
X110436803Y-99408500D01*
X110510960Y-99536944D01*
X110515378Y-99541851D01*
X110515379Y-99541852D01*
X110588729Y-99623315D01*
X110638747Y-99678866D01*
X110793248Y-99791118D01*
X110799276Y-99793802D01*
X110799278Y-99793803D01*
X110813170Y-99799988D01*
X110967712Y-99868794D01*
X111061112Y-99888647D01*
X111148056Y-99907128D01*
X111148061Y-99907128D01*
X111154513Y-99908500D01*
X111345487Y-99908500D01*
X111351939Y-99907128D01*
X111351944Y-99907128D01*
X111438888Y-99888647D01*
X111532288Y-99868794D01*
X111686830Y-99799988D01*
X111700722Y-99793803D01*
X111700724Y-99793802D01*
X111706752Y-99791118D01*
X111861253Y-99678866D01*
X111911271Y-99623315D01*
X111984621Y-99541852D01*
X111984622Y-99541851D01*
X111989040Y-99536944D01*
X112063197Y-99408500D01*
X112081223Y-99377279D01*
X112081224Y-99377278D01*
X112084527Y-99371556D01*
X112143542Y-99189928D01*
X112163504Y-99000000D01*
X112157190Y-98939928D01*
X112144232Y-98816635D01*
X112144232Y-98816633D01*
X112143542Y-98810072D01*
X112084527Y-98628444D01*
X112063990Y-98592872D01*
X112037106Y-98546309D01*
X111989040Y-98463056D01*
X111861253Y-98321134D01*
X111706752Y-98208882D01*
X111700724Y-98206198D01*
X111700722Y-98206197D01*
X111538319Y-98133891D01*
X111538318Y-98133891D01*
X111532288Y-98131206D01*
X111438887Y-98111353D01*
X111351944Y-98092872D01*
X111351939Y-98092872D01*
X111345487Y-98091500D01*
X111154513Y-98091500D01*
X111148061Y-98092872D01*
X111148056Y-98092872D01*
X111061113Y-98111353D01*
X110967712Y-98131206D01*
X110961682Y-98133891D01*
X110961681Y-98133891D01*
X110799278Y-98206197D01*
X110799276Y-98206198D01*
X110793248Y-98208882D01*
X110638747Y-98321134D01*
X110510960Y-98463056D01*
X110462894Y-98546309D01*
X110436011Y-98592872D01*
X110415473Y-98628444D01*
X110356458Y-98810072D01*
X110355768Y-98816633D01*
X110355768Y-98816635D01*
X110342810Y-98939928D01*
X110336496Y-99000000D01*
X105760370Y-99000000D01*
X105834527Y-98871556D01*
X105893542Y-98689928D01*
X105895582Y-98670525D01*
X105912814Y-98506565D01*
X105913504Y-98500000D01*
X105893542Y-98310072D01*
X105834527Y-98128444D01*
X105818782Y-98101172D01*
X105765498Y-98008882D01*
X105739040Y-97963056D01*
X105698716Y-97918271D01*
X105615675Y-97826045D01*
X105615674Y-97826044D01*
X105611253Y-97821134D01*
X105456752Y-97708882D01*
X105450724Y-97706198D01*
X105450722Y-97706197D01*
X105288319Y-97633891D01*
X105288318Y-97633891D01*
X105282288Y-97631206D01*
X105188887Y-97611353D01*
X105101944Y-97592872D01*
X105101939Y-97592872D01*
X105095487Y-97591500D01*
X104904513Y-97591500D01*
X104898061Y-97592872D01*
X104898056Y-97592872D01*
X104811112Y-97611353D01*
X104717712Y-97631206D01*
X104711682Y-97633891D01*
X104711681Y-97633891D01*
X104549278Y-97706197D01*
X104549276Y-97706198D01*
X104543248Y-97708882D01*
X104388747Y-97821134D01*
X104384326Y-97826044D01*
X104384325Y-97826045D01*
X104301285Y-97918271D01*
X104260960Y-97963056D01*
X104234502Y-98008882D01*
X104181219Y-98101172D01*
X104165473Y-98128444D01*
X104106458Y-98310072D01*
X104086496Y-98500000D01*
X91482777Y-98500000D01*
X91459527Y-98428444D01*
X91364040Y-98263056D01*
X91324169Y-98218774D01*
X91240675Y-98126045D01*
X91240674Y-98126044D01*
X91236253Y-98121134D01*
X91081752Y-98008882D01*
X91075724Y-98006198D01*
X91075722Y-98006197D01*
X90913319Y-97933891D01*
X90913318Y-97933891D01*
X90907288Y-97931206D01*
X90796923Y-97907747D01*
X90734449Y-97874018D01*
X90700128Y-97811869D01*
X90704856Y-97741030D01*
X90747132Y-97683992D01*
X90813533Y-97658865D01*
X90823120Y-97658500D01*
X90845487Y-97658500D01*
X90851939Y-97657128D01*
X90851944Y-97657128D01*
X90938888Y-97638647D01*
X91032288Y-97618794D01*
X91093592Y-97591500D01*
X91200722Y-97543803D01*
X91200724Y-97543802D01*
X91206752Y-97541118D01*
X91361253Y-97428866D01*
X91489040Y-97286944D01*
X91584527Y-97121556D01*
X91643542Y-96939928D01*
X91663504Y-96750000D01*
X91643542Y-96560072D01*
X91584527Y-96378444D01*
X91489040Y-96213056D01*
X91361253Y-96071134D01*
X91206752Y-95958882D01*
X91200724Y-95956198D01*
X91200722Y-95956197D01*
X91038319Y-95883891D01*
X91038318Y-95883891D01*
X91032288Y-95881206D01*
X90938887Y-95861353D01*
X90851944Y-95842872D01*
X90851939Y-95842872D01*
X90845487Y-95841500D01*
X90654513Y-95841500D01*
X90648061Y-95842872D01*
X90648056Y-95842872D01*
X90561113Y-95861353D01*
X90467712Y-95881206D01*
X90461682Y-95883891D01*
X90461681Y-95883891D01*
X90299278Y-95956197D01*
X90299276Y-95956198D01*
X90293248Y-95958882D01*
X90138747Y-96071134D01*
X90010960Y-96213056D01*
X89915473Y-96378444D01*
X89856458Y-96560072D01*
X89836496Y-96750000D01*
X89856458Y-96939928D01*
X89915473Y-97121556D01*
X90010960Y-97286944D01*
X90138747Y-97428866D01*
X90293248Y-97541118D01*
X90299276Y-97543802D01*
X90299278Y-97543803D01*
X90406408Y-97591500D01*
X90467712Y-97618794D01*
X90565960Y-97639677D01*
X90578077Y-97642253D01*
X90640551Y-97675982D01*
X90674872Y-97738131D01*
X90670144Y-97808970D01*
X90627868Y-97866008D01*
X90561467Y-97891135D01*
X90551880Y-97891500D01*
X90529513Y-97891500D01*
X90523061Y-97892872D01*
X90523056Y-97892872D01*
X90453077Y-97907747D01*
X90342712Y-97931206D01*
X90336682Y-97933891D01*
X90336681Y-97933891D01*
X90174278Y-98006197D01*
X90174276Y-98006198D01*
X90168248Y-98008882D01*
X90162907Y-98012762D01*
X90162906Y-98012763D01*
X90074061Y-98077313D01*
X90007193Y-98101172D01*
X89938042Y-98085091D01*
X89925939Y-98077313D01*
X89837094Y-98012763D01*
X89837093Y-98012762D01*
X89831752Y-98008882D01*
X89825724Y-98006198D01*
X89825722Y-98006197D01*
X89663319Y-97933891D01*
X89663318Y-97933891D01*
X89657288Y-97931206D01*
X89546923Y-97907747D01*
X89476944Y-97892872D01*
X89476939Y-97892872D01*
X89470487Y-97891500D01*
X89279513Y-97891500D01*
X89273061Y-97892872D01*
X89273056Y-97892872D01*
X89203077Y-97907747D01*
X89092712Y-97931206D01*
X89086682Y-97933891D01*
X89086681Y-97933891D01*
X88924278Y-98006197D01*
X88924276Y-98006198D01*
X88918248Y-98008882D01*
X88912907Y-98012762D01*
X88912906Y-98012763D01*
X88824061Y-98077313D01*
X88757193Y-98101172D01*
X88688042Y-98085091D01*
X88675939Y-98077313D01*
X88587094Y-98012763D01*
X88587093Y-98012762D01*
X88581752Y-98008882D01*
X88575724Y-98006198D01*
X88575722Y-98006197D01*
X88413319Y-97933891D01*
X88413318Y-97933891D01*
X88407288Y-97931206D01*
X88296923Y-97907747D01*
X88226944Y-97892872D01*
X88226939Y-97892872D01*
X88220487Y-97891500D01*
X88029513Y-97891500D01*
X88023061Y-97892872D01*
X88023056Y-97892872D01*
X87953077Y-97907747D01*
X87842712Y-97931206D01*
X87836682Y-97933891D01*
X87836681Y-97933891D01*
X87674278Y-98006197D01*
X87674276Y-98006198D01*
X87668248Y-98008882D01*
X87662907Y-98012762D01*
X87662906Y-98012763D01*
X87643911Y-98026564D01*
X87577044Y-98050422D01*
X87504578Y-98032404D01*
X87374988Y-97953921D01*
X87361243Y-97947715D01*
X87267287Y-97918271D01*
X87253187Y-97918016D01*
X87250000Y-97924673D01*
X87250000Y-98533050D01*
X87243833Y-98571986D01*
X87231458Y-98610072D01*
X87230768Y-98616633D01*
X87230768Y-98616635D01*
X87228866Y-98634729D01*
X87216500Y-98752390D01*
X87216500Y-99347610D01*
X71470856Y-99347610D01*
X71376335Y-99320417D01*
X71376329Y-99320415D01*
X71373654Y-99319646D01*
X71370917Y-99319117D01*
X71370911Y-99319115D01*
X71173296Y-99280882D01*
X70953148Y-99238289D01*
X70950374Y-99238005D01*
X70950362Y-99238003D01*
X70667111Y-99208982D01*
X70527076Y-99194634D01*
X70524286Y-99194597D01*
X70524278Y-99194597D01*
X70256825Y-99191096D01*
X70098809Y-99189028D01*
X70096009Y-99189241D01*
X70096008Y-99189241D01*
X70021364Y-99194919D01*
X69671740Y-99221514D01*
X69249249Y-99291836D01*
X69241671Y-99293803D01*
X68837400Y-99398731D01*
X68837389Y-99398734D01*
X68834682Y-99399437D01*
X68712358Y-99443115D01*
X68433964Y-99542520D01*
X68433959Y-99542522D01*
X68431321Y-99543464D01*
X68428781Y-99544635D01*
X68428776Y-99544637D01*
X68396636Y-99559454D01*
X68042361Y-99722777D01*
X68039938Y-99724167D01*
X68039935Y-99724169D01*
X67673321Y-99934556D01*
X67670880Y-99935957D01*
X67668577Y-99937566D01*
X67668570Y-99937571D01*
X67323324Y-100178866D01*
X67319820Y-100181315D01*
X66991961Y-100456909D01*
X66689899Y-100760557D01*
X66416025Y-101089855D01*
X66172508Y-101442194D01*
X65961276Y-101814786D01*
X65784002Y-102204680D01*
X65783080Y-102207306D01*
X65783075Y-102207318D01*
X65746991Y-102310072D01*
X65642089Y-102608790D01*
X65641398Y-102611510D01*
X65641397Y-102611514D01*
X65573253Y-102879834D01*
X65536661Y-103023914D01*
X65517176Y-103144888D01*
X65508897Y-103196286D01*
X65478317Y-103260359D01*
X65417950Y-103297728D01*
X65346964Y-103296528D01*
X65287895Y-103257141D01*
X65259497Y-103192071D01*
X65258500Y-103176249D01*
X65258500Y-98656885D01*
X85967000Y-98656885D01*
X85971475Y-98672124D01*
X85972865Y-98673329D01*
X85980548Y-98675000D01*
X86481885Y-98675000D01*
X86497124Y-98670525D01*
X86498329Y-98669135D01*
X86500000Y-98661452D01*
X86500000Y-97930969D01*
X86496027Y-97917438D01*
X86488723Y-97916388D01*
X86388757Y-97947715D01*
X86375012Y-97953921D01*
X86241426Y-98034824D01*
X86229557Y-98044131D01*
X86119131Y-98154557D01*
X86109824Y-98166426D01*
X86028921Y-98300012D01*
X86022715Y-98313757D01*
X85975744Y-98463644D01*
X85973131Y-98476694D01*
X85967266Y-98540521D01*
X85967000Y-98546309D01*
X85967000Y-98656885D01*
X65258500Y-98656885D01*
X65258500Y-95250000D01*
X110336496Y-95250000D01*
X110356458Y-95439928D01*
X110415473Y-95621556D01*
X110510960Y-95786944D01*
X110638747Y-95928866D01*
X110793248Y-96041118D01*
X110799276Y-96043802D01*
X110799278Y-96043803D01*
X110961681Y-96116109D01*
X110967712Y-96118794D01*
X111061112Y-96138647D01*
X111148056Y-96157128D01*
X111148061Y-96157128D01*
X111154513Y-96158500D01*
X111345487Y-96158500D01*
X111351939Y-96157128D01*
X111351944Y-96157128D01*
X111438887Y-96138647D01*
X111532288Y-96118794D01*
X111538319Y-96116109D01*
X111700722Y-96043803D01*
X111700724Y-96043802D01*
X111706752Y-96041118D01*
X111861253Y-95928866D01*
X111989040Y-95786944D01*
X112084527Y-95621556D01*
X112143542Y-95439928D01*
X112163504Y-95250000D01*
X112143542Y-95060072D01*
X112084527Y-94878444D01*
X111989040Y-94713056D01*
X111861253Y-94571134D01*
X111706752Y-94458882D01*
X111700724Y-94456198D01*
X111700722Y-94456197D01*
X111538319Y-94383891D01*
X111538318Y-94383891D01*
X111532288Y-94381206D01*
X111438888Y-94361353D01*
X111351944Y-94342872D01*
X111351939Y-94342872D01*
X111345487Y-94341500D01*
X111154513Y-94341500D01*
X111148061Y-94342872D01*
X111148056Y-94342872D01*
X111061112Y-94361353D01*
X110967712Y-94381206D01*
X110961682Y-94383891D01*
X110961681Y-94383891D01*
X110799278Y-94456197D01*
X110799276Y-94456198D01*
X110793248Y-94458882D01*
X110638747Y-94571134D01*
X110510960Y-94713056D01*
X110415473Y-94878444D01*
X110356458Y-95060072D01*
X110336496Y-95250000D01*
X65258500Y-95250000D01*
X65258500Y-90739668D01*
X81585974Y-90739668D01*
X81605936Y-90929596D01*
X81664951Y-91111224D01*
X81760438Y-91276612D01*
X81888225Y-91418534D01*
X82042726Y-91530786D01*
X82048754Y-91533470D01*
X82048756Y-91533471D01*
X82211159Y-91605777D01*
X82217190Y-91608462D01*
X82310590Y-91628315D01*
X82397534Y-91646796D01*
X82397539Y-91646796D01*
X82403991Y-91648168D01*
X82594965Y-91648168D01*
X82601417Y-91646796D01*
X82601422Y-91646796D01*
X82688366Y-91628315D01*
X82781766Y-91608462D01*
X82787797Y-91605777D01*
X82950200Y-91533471D01*
X82950202Y-91533470D01*
X82956230Y-91530786D01*
X83110731Y-91418534D01*
X83238518Y-91276612D01*
X83334005Y-91111224D01*
X83393020Y-90929596D01*
X83411896Y-90750000D01*
X92586496Y-90750000D01*
X92606458Y-90939928D01*
X92665473Y-91121556D01*
X92760960Y-91286944D01*
X92888747Y-91428866D01*
X92924925Y-91455151D01*
X93023686Y-91526905D01*
X93043248Y-91541118D01*
X93049276Y-91543802D01*
X93049278Y-91543803D01*
X93197587Y-91609834D01*
X93217712Y-91618794D01*
X93311112Y-91638647D01*
X93398056Y-91657128D01*
X93398061Y-91657128D01*
X93404513Y-91658500D01*
X93595487Y-91658500D01*
X93601939Y-91657128D01*
X93601944Y-91657128D01*
X93688888Y-91638647D01*
X93782288Y-91618794D01*
X93802413Y-91609834D01*
X93950722Y-91543803D01*
X93950724Y-91543802D01*
X93956752Y-91541118D01*
X93976315Y-91526905D01*
X94075075Y-91455151D01*
X113537296Y-91455151D01*
X113549480Y-91708798D01*
X113599021Y-91957857D01*
X113600600Y-91962255D01*
X113600602Y-91962262D01*
X113645022Y-92085980D01*
X113684831Y-92196858D01*
X113805025Y-92420551D01*
X113807820Y-92424294D01*
X113807822Y-92424297D01*
X113954171Y-92620282D01*
X113954176Y-92620288D01*
X113956963Y-92624020D01*
X113960272Y-92627300D01*
X113960277Y-92627306D01*
X114058859Y-92725031D01*
X114137307Y-92802797D01*
X114141069Y-92805555D01*
X114141072Y-92805558D01*
X114246764Y-92883054D01*
X114342094Y-92952953D01*
X114346229Y-92955129D01*
X114346233Y-92955131D01*
X114534137Y-93053992D01*
X114585109Y-93103411D01*
X114601272Y-93172544D01*
X114577493Y-93239440D01*
X114521322Y-93282860D01*
X114475469Y-93291500D01*
X114001866Y-93291500D01*
X113939684Y-93298255D01*
X113803295Y-93349385D01*
X113686739Y-93436739D01*
X113599385Y-93553295D01*
X113548255Y-93689684D01*
X113541500Y-93751866D01*
X113541500Y-96248134D01*
X113548255Y-96310316D01*
X113599385Y-96446705D01*
X113686739Y-96563261D01*
X113803295Y-96650615D01*
X113939684Y-96701745D01*
X114001866Y-96708500D01*
X116498134Y-96708500D01*
X116560316Y-96701745D01*
X116696705Y-96650615D01*
X116813261Y-96563261D01*
X116900615Y-96446705D01*
X116951745Y-96310316D01*
X116958500Y-96248134D01*
X116958500Y-93751866D01*
X116951745Y-93689684D01*
X116900615Y-93553295D01*
X116813261Y-93436739D01*
X116696705Y-93349385D01*
X116560316Y-93298255D01*
X116498134Y-93291500D01*
X116020964Y-93291500D01*
X115952843Y-93271498D01*
X115906350Y-93217842D01*
X115896246Y-93147568D01*
X115925740Y-93082988D01*
X115971225Y-93049733D01*
X116041110Y-93019708D01*
X116045090Y-93017245D01*
X116045094Y-93017243D01*
X116253064Y-92888547D01*
X116253066Y-92888545D01*
X116257047Y-92886082D01*
X116355428Y-92802797D01*
X116447289Y-92725031D01*
X116447291Y-92725029D01*
X116450862Y-92722006D01*
X116618295Y-92531084D01*
X116755669Y-92317512D01*
X116859967Y-92085980D01*
X116928896Y-91841575D01*
X116957579Y-91616109D01*
X116960545Y-91592798D01*
X116960545Y-91592792D01*
X116960943Y-91589667D01*
X116963291Y-91500000D01*
X116947823Y-91291852D01*
X116944818Y-91251411D01*
X116944817Y-91251407D01*
X116944472Y-91246759D01*
X116888428Y-90999082D01*
X116862872Y-90933365D01*
X116798084Y-90766762D01*
X116798083Y-90766760D01*
X116796391Y-90762409D01*
X116785547Y-90743435D01*
X116672702Y-90545997D01*
X116672700Y-90545995D01*
X116670383Y-90541940D01*
X116513171Y-90342517D01*
X116375549Y-90213056D01*
X116331610Y-90171722D01*
X116331608Y-90171720D01*
X116328209Y-90168523D01*
X116256548Y-90118810D01*
X116123393Y-90026437D01*
X116123390Y-90026435D01*
X116119561Y-90023779D01*
X116115384Y-90021719D01*
X116115377Y-90021715D01*
X115895996Y-89913528D01*
X115895992Y-89913527D01*
X115891810Y-89911464D01*
X115649960Y-89834047D01*
X115645357Y-89833297D01*
X115645343Y-89833294D01*
X115626320Y-89830196D01*
X115562300Y-89799504D01*
X115525037Y-89739073D01*
X115526361Y-89668088D01*
X115565852Y-89609088D01*
X115595326Y-89590728D01*
X115700719Y-89543805D01*
X115700726Y-89543801D01*
X115706752Y-89541118D01*
X115861253Y-89428866D01*
X115989040Y-89286944D01*
X116063197Y-89158500D01*
X116081223Y-89127279D01*
X116081224Y-89127278D01*
X116084527Y-89121556D01*
X116143542Y-88939928D01*
X116156501Y-88816635D01*
X116162814Y-88756565D01*
X116163504Y-88750000D01*
X116157190Y-88689928D01*
X116144232Y-88566635D01*
X116144232Y-88566633D01*
X116143542Y-88560072D01*
X116084527Y-88378444D01*
X115989040Y-88213056D01*
X115861253Y-88071134D01*
X115706752Y-87958882D01*
X115700724Y-87956198D01*
X115700722Y-87956197D01*
X115538319Y-87883891D01*
X115538318Y-87883891D01*
X115532288Y-87881206D01*
X115438888Y-87861353D01*
X115351944Y-87842872D01*
X115351939Y-87842872D01*
X115345487Y-87841500D01*
X115154513Y-87841500D01*
X115148061Y-87842872D01*
X115148056Y-87842872D01*
X115061112Y-87861353D01*
X114967712Y-87881206D01*
X114961682Y-87883891D01*
X114961681Y-87883891D01*
X114799278Y-87956197D01*
X114799276Y-87956198D01*
X114793248Y-87958882D01*
X114638747Y-88071134D01*
X114510960Y-88213056D01*
X114415473Y-88378444D01*
X114356458Y-88560072D01*
X114355768Y-88566633D01*
X114355768Y-88566635D01*
X114342810Y-88689928D01*
X114336496Y-88750000D01*
X114337186Y-88756565D01*
X114343500Y-88816635D01*
X114356458Y-88939928D01*
X114415473Y-89121556D01*
X114418776Y-89127278D01*
X114418777Y-89127279D01*
X114436803Y-89158500D01*
X114510960Y-89286944D01*
X114638747Y-89428866D01*
X114793248Y-89541118D01*
X114799274Y-89543801D01*
X114799281Y-89543805D01*
X114903093Y-89590024D01*
X114957189Y-89636004D01*
X114977839Y-89703931D01*
X114958487Y-89772239D01*
X114905277Y-89819241D01*
X114887103Y-89826097D01*
X114859828Y-89834047D01*
X114649993Y-89895208D01*
X114645740Y-89897168D01*
X114645739Y-89897169D01*
X114621160Y-89908500D01*
X114419380Y-90001522D01*
X114415471Y-90004085D01*
X114210928Y-90138189D01*
X114210923Y-90138193D01*
X114207015Y-90140755D01*
X114017562Y-90309848D01*
X113855183Y-90505087D01*
X113723447Y-90722182D01*
X113721638Y-90726496D01*
X113721637Y-90726498D01*
X113632139Y-90939928D01*
X113625246Y-90956365D01*
X113562738Y-91202490D01*
X113537296Y-91455151D01*
X94075075Y-91455151D01*
X94111253Y-91428866D01*
X94239040Y-91286944D01*
X94334527Y-91121556D01*
X94393542Y-90939928D01*
X94413504Y-90750000D01*
X94393542Y-90560072D01*
X94334527Y-90378444D01*
X94313785Y-90342517D01*
X94242341Y-90218774D01*
X94239040Y-90213056D01*
X94201823Y-90171722D01*
X94154181Y-90118810D01*
X94123463Y-90054803D01*
X94132228Y-89984349D01*
X94177691Y-89929818D01*
X94247817Y-89908500D01*
X94345487Y-89908500D01*
X94351939Y-89907128D01*
X94351944Y-89907128D01*
X94438887Y-89888647D01*
X94532288Y-89868794D01*
X94593592Y-89841500D01*
X94700722Y-89793803D01*
X94700724Y-89793802D01*
X94706752Y-89791118D01*
X94763346Y-89750000D01*
X100836496Y-89750000D01*
X100837186Y-89756565D01*
X100853011Y-89907128D01*
X100856458Y-89939928D01*
X100915473Y-90121556D01*
X100918776Y-90127278D01*
X100918777Y-90127279D01*
X100928357Y-90143872D01*
X101010960Y-90286944D01*
X101138747Y-90428866D01*
X101293248Y-90541118D01*
X101299276Y-90543802D01*
X101299278Y-90543803D01*
X101350560Y-90566635D01*
X101467712Y-90618794D01*
X101561113Y-90638647D01*
X101648056Y-90657128D01*
X101648061Y-90657128D01*
X101654513Y-90658500D01*
X101845487Y-90658500D01*
X101851939Y-90657128D01*
X101851944Y-90657128D01*
X101938887Y-90638647D01*
X102032288Y-90618794D01*
X102149440Y-90566635D01*
X102200722Y-90543803D01*
X102200724Y-90543802D01*
X102206752Y-90541118D01*
X102361253Y-90428866D01*
X102489040Y-90286944D01*
X102571643Y-90143872D01*
X102581223Y-90127279D01*
X102581224Y-90127278D01*
X102584527Y-90121556D01*
X102643542Y-89939928D01*
X102646990Y-89907128D01*
X102662814Y-89756565D01*
X102663504Y-89750000D01*
X102656028Y-89678866D01*
X102644232Y-89566635D01*
X102644232Y-89566633D01*
X102643542Y-89560072D01*
X102584527Y-89378444D01*
X102577406Y-89366109D01*
X102534109Y-89291118D01*
X102489040Y-89213056D01*
X102468216Y-89189928D01*
X102365675Y-89076045D01*
X102365674Y-89076044D01*
X102361253Y-89071134D01*
X102206752Y-88958882D01*
X102200724Y-88956198D01*
X102200722Y-88956197D01*
X102038319Y-88883891D01*
X102038318Y-88883891D01*
X102032288Y-88881206D01*
X101938887Y-88861353D01*
X101851944Y-88842872D01*
X101851939Y-88842872D01*
X101845487Y-88841500D01*
X101654513Y-88841500D01*
X101648061Y-88842872D01*
X101648056Y-88842872D01*
X101561113Y-88861353D01*
X101467712Y-88881206D01*
X101461682Y-88883891D01*
X101461681Y-88883891D01*
X101299278Y-88956197D01*
X101299276Y-88956198D01*
X101293248Y-88958882D01*
X101138747Y-89071134D01*
X101134326Y-89076044D01*
X101134325Y-89076045D01*
X101031785Y-89189928D01*
X101010960Y-89213056D01*
X100965891Y-89291118D01*
X100922595Y-89366109D01*
X100915473Y-89378444D01*
X100856458Y-89560072D01*
X100855768Y-89566633D01*
X100855768Y-89566635D01*
X100843972Y-89678866D01*
X100836496Y-89750000D01*
X94763346Y-89750000D01*
X94861253Y-89678866D01*
X94962306Y-89566635D01*
X94984621Y-89541852D01*
X94984622Y-89541851D01*
X94989040Y-89536944D01*
X95063197Y-89408500D01*
X95081223Y-89377279D01*
X95081224Y-89377278D01*
X95084527Y-89371556D01*
X95143542Y-89189928D01*
X95146990Y-89157128D01*
X95162814Y-89006565D01*
X95163504Y-89000000D01*
X95157190Y-88939928D01*
X95144232Y-88816635D01*
X95144232Y-88816633D01*
X95143542Y-88810072D01*
X95084527Y-88628444D01*
X94989040Y-88463056D01*
X94968216Y-88439928D01*
X94865675Y-88326045D01*
X94865674Y-88326044D01*
X94861253Y-88321134D01*
X94763346Y-88250000D01*
X105336496Y-88250000D01*
X105337186Y-88256565D01*
X105344489Y-88326045D01*
X105356458Y-88439928D01*
X105415473Y-88621556D01*
X105510960Y-88786944D01*
X105515378Y-88791851D01*
X105515379Y-88791852D01*
X105537694Y-88816635D01*
X105638747Y-88928866D01*
X105793248Y-89041118D01*
X105799276Y-89043802D01*
X105799278Y-89043803D01*
X105959799Y-89115271D01*
X105967712Y-89118794D01*
X106061112Y-89138647D01*
X106148056Y-89157128D01*
X106148061Y-89157128D01*
X106154513Y-89158500D01*
X106345487Y-89158500D01*
X106351939Y-89157128D01*
X106351944Y-89157128D01*
X106438888Y-89138647D01*
X106532288Y-89118794D01*
X106540201Y-89115271D01*
X106700722Y-89043803D01*
X106700724Y-89043802D01*
X106706752Y-89041118D01*
X106861253Y-88928866D01*
X106962306Y-88816635D01*
X106984621Y-88791852D01*
X106984622Y-88791851D01*
X106989040Y-88786944D01*
X107084527Y-88621556D01*
X107124023Y-88500000D01*
X109586496Y-88500000D01*
X109587186Y-88506565D01*
X109593500Y-88566635D01*
X109606458Y-88689928D01*
X109665473Y-88871556D01*
X109668776Y-88877278D01*
X109668777Y-88877279D01*
X109695726Y-88923955D01*
X109760960Y-89036944D01*
X109765378Y-89041851D01*
X109765379Y-89041852D01*
X109831486Y-89115271D01*
X109888747Y-89178866D01*
X110043248Y-89291118D01*
X110049276Y-89293802D01*
X110049278Y-89293803D01*
X110209799Y-89365271D01*
X110217712Y-89368794D01*
X110292680Y-89384729D01*
X110398056Y-89407128D01*
X110398061Y-89407128D01*
X110404513Y-89408500D01*
X110595487Y-89408500D01*
X110601939Y-89407128D01*
X110601944Y-89407128D01*
X110707320Y-89384729D01*
X110782288Y-89368794D01*
X110790201Y-89365271D01*
X110950722Y-89293803D01*
X110950724Y-89293802D01*
X110956752Y-89291118D01*
X111111253Y-89178866D01*
X111168514Y-89115271D01*
X111234621Y-89041852D01*
X111234622Y-89041851D01*
X111239040Y-89036944D01*
X111304274Y-88923955D01*
X111331223Y-88877279D01*
X111331224Y-88877278D01*
X111334527Y-88871556D01*
X111393542Y-88689928D01*
X111406501Y-88566635D01*
X111412814Y-88506565D01*
X111413504Y-88500000D01*
X111407190Y-88439928D01*
X111394232Y-88316635D01*
X111394232Y-88316633D01*
X111393542Y-88310072D01*
X111334527Y-88128444D01*
X111313990Y-88092872D01*
X111242341Y-87968774D01*
X111239040Y-87963056D01*
X111111253Y-87821134D01*
X110956752Y-87708882D01*
X110950724Y-87706198D01*
X110950722Y-87706197D01*
X110788319Y-87633891D01*
X110788318Y-87633891D01*
X110782288Y-87631206D01*
X110688887Y-87611353D01*
X110601944Y-87592872D01*
X110601939Y-87592872D01*
X110595487Y-87591500D01*
X110404513Y-87591500D01*
X110398061Y-87592872D01*
X110398056Y-87592872D01*
X110311113Y-87611353D01*
X110217712Y-87631206D01*
X110211682Y-87633891D01*
X110211681Y-87633891D01*
X110049278Y-87706197D01*
X110049276Y-87706198D01*
X110043248Y-87708882D01*
X109888747Y-87821134D01*
X109760960Y-87963056D01*
X109757659Y-87968774D01*
X109686011Y-88092872D01*
X109665473Y-88128444D01*
X109606458Y-88310072D01*
X109605768Y-88316633D01*
X109605768Y-88316635D01*
X109592810Y-88439928D01*
X109586496Y-88500000D01*
X107124023Y-88500000D01*
X107143542Y-88439928D01*
X107155512Y-88326045D01*
X107162814Y-88256565D01*
X107163504Y-88250000D01*
X107151301Y-88133891D01*
X107144232Y-88066635D01*
X107144232Y-88066633D01*
X107143542Y-88060072D01*
X107084527Y-87878444D01*
X107063990Y-87842872D01*
X106992341Y-87718774D01*
X106989040Y-87713056D01*
X106861253Y-87571134D01*
X106706752Y-87458882D01*
X106700724Y-87456198D01*
X106700722Y-87456197D01*
X106538319Y-87383891D01*
X106538318Y-87383891D01*
X106532288Y-87381206D01*
X106438887Y-87361353D01*
X106351944Y-87342872D01*
X106351939Y-87342872D01*
X106345487Y-87341500D01*
X106154513Y-87341500D01*
X106148061Y-87342872D01*
X106148056Y-87342872D01*
X106061113Y-87361353D01*
X105967712Y-87381206D01*
X105961682Y-87383891D01*
X105961681Y-87383891D01*
X105799278Y-87456197D01*
X105799276Y-87456198D01*
X105793248Y-87458882D01*
X105638747Y-87571134D01*
X105510960Y-87713056D01*
X105507659Y-87718774D01*
X105436011Y-87842872D01*
X105415473Y-87878444D01*
X105356458Y-88060072D01*
X105355768Y-88066633D01*
X105355768Y-88066635D01*
X105348699Y-88133891D01*
X105336496Y-88250000D01*
X94763346Y-88250000D01*
X94706752Y-88208882D01*
X94700724Y-88206198D01*
X94700722Y-88206197D01*
X94538319Y-88133891D01*
X94538318Y-88133891D01*
X94532288Y-88131206D01*
X94438888Y-88111353D01*
X94351944Y-88092872D01*
X94351939Y-88092872D01*
X94345487Y-88091500D01*
X94154513Y-88091500D01*
X94148061Y-88092872D01*
X94148056Y-88092872D01*
X94061112Y-88111353D01*
X93967712Y-88131206D01*
X93961682Y-88133891D01*
X93961681Y-88133891D01*
X93799278Y-88206197D01*
X93799276Y-88206198D01*
X93793248Y-88208882D01*
X93638747Y-88321134D01*
X93634326Y-88326044D01*
X93634325Y-88326045D01*
X93531785Y-88439928D01*
X93510960Y-88463056D01*
X93415473Y-88628444D01*
X93356458Y-88810072D01*
X93355768Y-88816633D01*
X93355768Y-88816635D01*
X93342810Y-88939928D01*
X93336496Y-89000000D01*
X93337186Y-89006565D01*
X93353011Y-89157128D01*
X93356458Y-89189928D01*
X93415473Y-89371556D01*
X93418776Y-89377278D01*
X93418777Y-89377279D01*
X93436803Y-89408500D01*
X93510960Y-89536944D01*
X93515378Y-89541851D01*
X93515379Y-89541852D01*
X93595819Y-89631190D01*
X93626537Y-89695197D01*
X93617772Y-89765651D01*
X93572309Y-89820182D01*
X93502183Y-89841500D01*
X93404513Y-89841500D01*
X93398061Y-89842872D01*
X93398056Y-89842872D01*
X93311113Y-89861353D01*
X93217712Y-89881206D01*
X93211682Y-89883891D01*
X93211681Y-89883891D01*
X93049278Y-89956197D01*
X93049276Y-89956198D01*
X93043248Y-89958882D01*
X92888747Y-90071134D01*
X92884326Y-90076044D01*
X92884325Y-90076045D01*
X92801058Y-90168523D01*
X92760960Y-90213056D01*
X92757659Y-90218774D01*
X92686216Y-90342517D01*
X92665473Y-90378444D01*
X92606458Y-90560072D01*
X92586496Y-90750000D01*
X83411896Y-90750000D01*
X83412982Y-90739668D01*
X83393020Y-90549740D01*
X83334005Y-90368112D01*
X83321346Y-90346185D01*
X83289976Y-90291852D01*
X83238518Y-90202724D01*
X83185528Y-90143872D01*
X83115153Y-90065713D01*
X83115152Y-90065712D01*
X83110731Y-90060802D01*
X83005503Y-89984349D01*
X82961572Y-89952431D01*
X82961571Y-89952430D01*
X82956230Y-89948550D01*
X82950202Y-89945866D01*
X82950200Y-89945865D01*
X82787797Y-89873559D01*
X82787796Y-89873559D01*
X82781766Y-89870874D01*
X82688366Y-89851021D01*
X82601422Y-89832540D01*
X82601417Y-89832540D01*
X82594965Y-89831168D01*
X82403991Y-89831168D01*
X82397539Y-89832540D01*
X82397534Y-89832540D01*
X82310590Y-89851021D01*
X82217190Y-89870874D01*
X82211160Y-89873559D01*
X82211159Y-89873559D01*
X82048756Y-89945865D01*
X82048754Y-89945866D01*
X82042726Y-89948550D01*
X82037385Y-89952430D01*
X82037384Y-89952431D01*
X81993453Y-89984349D01*
X81888225Y-90060802D01*
X81883804Y-90065712D01*
X81883803Y-90065713D01*
X81813429Y-90143872D01*
X81760438Y-90202724D01*
X81708980Y-90291852D01*
X81677611Y-90346185D01*
X81664951Y-90368112D01*
X81605936Y-90549740D01*
X81585974Y-90739668D01*
X65258500Y-90739668D01*
X65258500Y-89000000D01*
X75836496Y-89000000D01*
X75837186Y-89006565D01*
X75853011Y-89157128D01*
X75856458Y-89189928D01*
X75915473Y-89371556D01*
X75918776Y-89377278D01*
X75918777Y-89377279D01*
X75936803Y-89408500D01*
X76010960Y-89536944D01*
X76015378Y-89541851D01*
X76015379Y-89541852D01*
X76037694Y-89566635D01*
X76138747Y-89678866D01*
X76293248Y-89791118D01*
X76299276Y-89793802D01*
X76299278Y-89793803D01*
X76406408Y-89841500D01*
X76467712Y-89868794D01*
X76561113Y-89888647D01*
X76648056Y-89907128D01*
X76648061Y-89907128D01*
X76654513Y-89908500D01*
X76845487Y-89908500D01*
X76851939Y-89907128D01*
X76851944Y-89907128D01*
X76938887Y-89888647D01*
X77032288Y-89868794D01*
X77093592Y-89841500D01*
X77200722Y-89793803D01*
X77200724Y-89793802D01*
X77206752Y-89791118D01*
X77361253Y-89678866D01*
X77462306Y-89566635D01*
X77484621Y-89541852D01*
X77484622Y-89541851D01*
X77489040Y-89536944D01*
X77563197Y-89408500D01*
X77581223Y-89377279D01*
X77581224Y-89377278D01*
X77584527Y-89371556D01*
X77643542Y-89189928D01*
X77646990Y-89157128D01*
X77662814Y-89006565D01*
X77663504Y-89000000D01*
X77657190Y-88939928D01*
X77644232Y-88816635D01*
X77644232Y-88816633D01*
X77643542Y-88810072D01*
X77584527Y-88628444D01*
X77489040Y-88463056D01*
X77468216Y-88439928D01*
X77365675Y-88326045D01*
X77365674Y-88326044D01*
X77361253Y-88321134D01*
X77206752Y-88208882D01*
X77200724Y-88206198D01*
X77200722Y-88206197D01*
X77038319Y-88133891D01*
X77038318Y-88133891D01*
X77032288Y-88131206D01*
X76938888Y-88111353D01*
X76851944Y-88092872D01*
X76851939Y-88092872D01*
X76845487Y-88091500D01*
X76654513Y-88091500D01*
X76648061Y-88092872D01*
X76648056Y-88092872D01*
X76561112Y-88111353D01*
X76467712Y-88131206D01*
X76461682Y-88133891D01*
X76461681Y-88133891D01*
X76299278Y-88206197D01*
X76299276Y-88206198D01*
X76293248Y-88208882D01*
X76138747Y-88321134D01*
X76134326Y-88326044D01*
X76134325Y-88326045D01*
X76031785Y-88439928D01*
X76010960Y-88463056D01*
X75915473Y-88628444D01*
X75856458Y-88810072D01*
X75855768Y-88816633D01*
X75855768Y-88816635D01*
X75842810Y-88939928D01*
X75836496Y-89000000D01*
X65258500Y-89000000D01*
X65258500Y-83750000D01*
X76586496Y-83750000D01*
X76606458Y-83939928D01*
X76665473Y-84121556D01*
X76760960Y-84286944D01*
X76888747Y-84428866D01*
X77043248Y-84541118D01*
X77049276Y-84543802D01*
X77049278Y-84543803D01*
X77211681Y-84616109D01*
X77217712Y-84618794D01*
X77311113Y-84638647D01*
X77398056Y-84657128D01*
X77398061Y-84657128D01*
X77404513Y-84658500D01*
X77595487Y-84658500D01*
X77601939Y-84657128D01*
X77601944Y-84657128D01*
X77688887Y-84638647D01*
X77782288Y-84618794D01*
X77788319Y-84616109D01*
X77950722Y-84543803D01*
X77950724Y-84543802D01*
X77956752Y-84541118D01*
X78050939Y-84472687D01*
X78117807Y-84448828D01*
X78186958Y-84464909D01*
X78199061Y-84472687D01*
X78293248Y-84541118D01*
X78299276Y-84543802D01*
X78299278Y-84543803D01*
X78461681Y-84616109D01*
X78467712Y-84618794D01*
X78561113Y-84638647D01*
X78648056Y-84657128D01*
X78648061Y-84657128D01*
X78654513Y-84658500D01*
X78845487Y-84658500D01*
X78851939Y-84657128D01*
X78851944Y-84657128D01*
X78938887Y-84638647D01*
X79032288Y-84618794D01*
X79038319Y-84616109D01*
X79200722Y-84543803D01*
X79200724Y-84543802D01*
X79206752Y-84541118D01*
X79361253Y-84428866D01*
X79489040Y-84286944D01*
X79584527Y-84121556D01*
X79643542Y-83939928D01*
X79663504Y-83750000D01*
X79643542Y-83560072D01*
X79584527Y-83378444D01*
X79489040Y-83213056D01*
X79361253Y-83071134D01*
X79206752Y-82958882D01*
X79200724Y-82956198D01*
X79200722Y-82956197D01*
X79038319Y-82883891D01*
X79038318Y-82883891D01*
X79032288Y-82881206D01*
X78938887Y-82861353D01*
X78851944Y-82842872D01*
X78851939Y-82842872D01*
X78845487Y-82841500D01*
X78654513Y-82841500D01*
X78648061Y-82842872D01*
X78648056Y-82842872D01*
X78561113Y-82861353D01*
X78467712Y-82881206D01*
X78461682Y-82883891D01*
X78461681Y-82883891D01*
X78299278Y-82956197D01*
X78299276Y-82956198D01*
X78293248Y-82958882D01*
X78287907Y-82962762D01*
X78287906Y-82962763D01*
X78199061Y-83027313D01*
X78132193Y-83051172D01*
X78063042Y-83035091D01*
X78050939Y-83027313D01*
X77962094Y-82962763D01*
X77962093Y-82962762D01*
X77956752Y-82958882D01*
X77950724Y-82956198D01*
X77950722Y-82956197D01*
X77788319Y-82883891D01*
X77788318Y-82883891D01*
X77782288Y-82881206D01*
X77688887Y-82861353D01*
X77601944Y-82842872D01*
X77601939Y-82842872D01*
X77595487Y-82841500D01*
X77404513Y-82841500D01*
X77398061Y-82842872D01*
X77398056Y-82842872D01*
X77311113Y-82861353D01*
X77217712Y-82881206D01*
X77211682Y-82883891D01*
X77211681Y-82883891D01*
X77049278Y-82956197D01*
X77049276Y-82956198D01*
X77043248Y-82958882D01*
X76888747Y-83071134D01*
X76760960Y-83213056D01*
X76665473Y-83378444D01*
X76606458Y-83560072D01*
X76586496Y-83750000D01*
X65258500Y-83750000D01*
X65258500Y-82000000D01*
X70336496Y-82000000D01*
X70356458Y-82189928D01*
X70415473Y-82371556D01*
X70510960Y-82536944D01*
X70638747Y-82678866D01*
X70793248Y-82791118D01*
X70799276Y-82793802D01*
X70799278Y-82793803D01*
X70906408Y-82841500D01*
X70967712Y-82868794D01*
X71061112Y-82888647D01*
X71148056Y-82907128D01*
X71148061Y-82907128D01*
X71154513Y-82908500D01*
X71345487Y-82908500D01*
X71351939Y-82907128D01*
X71351944Y-82907128D01*
X71438888Y-82888647D01*
X71532288Y-82868794D01*
X71593592Y-82841500D01*
X71700722Y-82793803D01*
X71700724Y-82793802D01*
X71706752Y-82791118D01*
X71861253Y-82678866D01*
X71989040Y-82536944D01*
X72084527Y-82371556D01*
X72143542Y-82189928D01*
X72163504Y-82000000D01*
X72143542Y-81810072D01*
X72084527Y-81628444D01*
X71989040Y-81463056D01*
X71954051Y-81424196D01*
X71865675Y-81326045D01*
X71865674Y-81326044D01*
X71861253Y-81321134D01*
X71706752Y-81208882D01*
X71700724Y-81206198D01*
X71700722Y-81206197D01*
X71538319Y-81133891D01*
X71538318Y-81133891D01*
X71532288Y-81131206D01*
X71438888Y-81111353D01*
X71351944Y-81092872D01*
X71351939Y-81092872D01*
X71345487Y-81091500D01*
X71154513Y-81091500D01*
X71148061Y-81092872D01*
X71148056Y-81092872D01*
X71061112Y-81111353D01*
X70967712Y-81131206D01*
X70961682Y-81133891D01*
X70961681Y-81133891D01*
X70799278Y-81206197D01*
X70799276Y-81206198D01*
X70793248Y-81208882D01*
X70638747Y-81321134D01*
X70634326Y-81326044D01*
X70634325Y-81326045D01*
X70545950Y-81424196D01*
X70510960Y-81463056D01*
X70415473Y-81628444D01*
X70356458Y-81810072D01*
X70336496Y-82000000D01*
X65258500Y-82000000D01*
X65258500Y-81000000D01*
X88586496Y-81000000D01*
X88587186Y-81006565D01*
X88601393Y-81141733D01*
X88606458Y-81189928D01*
X88665473Y-81371556D01*
X88760960Y-81536944D01*
X88888747Y-81678866D01*
X89043248Y-81791118D01*
X89049276Y-81793802D01*
X89049278Y-81793803D01*
X89100560Y-81816635D01*
X89217712Y-81868794D01*
X89311113Y-81888647D01*
X89398056Y-81907128D01*
X89398061Y-81907128D01*
X89404513Y-81908500D01*
X89595487Y-81908500D01*
X89601939Y-81907128D01*
X89601944Y-81907128D01*
X89688887Y-81888647D01*
X89782288Y-81868794D01*
X89899440Y-81816635D01*
X89950722Y-81793803D01*
X89950724Y-81793802D01*
X89956752Y-81791118D01*
X90111253Y-81678866D01*
X90239040Y-81536944D01*
X90334527Y-81371556D01*
X90393542Y-81189928D01*
X90398608Y-81141733D01*
X90412814Y-81006565D01*
X90413504Y-81000000D01*
X90412094Y-80986584D01*
X90394232Y-80816635D01*
X90394232Y-80816633D01*
X90393542Y-80810072D01*
X90334527Y-80628444D01*
X90327406Y-80616109D01*
X90283331Y-80539770D01*
X90239040Y-80463056D01*
X90211752Y-80432749D01*
X90115675Y-80326045D01*
X90115674Y-80326044D01*
X90111253Y-80321134D01*
X89956752Y-80208882D01*
X89950724Y-80206198D01*
X89950722Y-80206197D01*
X89788319Y-80133891D01*
X89788318Y-80133891D01*
X89782288Y-80131206D01*
X89688888Y-80111353D01*
X89601944Y-80092872D01*
X89601939Y-80092872D01*
X89595487Y-80091500D01*
X89404513Y-80091500D01*
X89398061Y-80092872D01*
X89398056Y-80092872D01*
X89311112Y-80111353D01*
X89217712Y-80131206D01*
X89211682Y-80133891D01*
X89211681Y-80133891D01*
X89049278Y-80206197D01*
X89049276Y-80206198D01*
X89043248Y-80208882D01*
X88888747Y-80321134D01*
X88884326Y-80326044D01*
X88884325Y-80326045D01*
X88788249Y-80432749D01*
X88760960Y-80463056D01*
X88716669Y-80539770D01*
X88672595Y-80616109D01*
X88665473Y-80628444D01*
X88606458Y-80810072D01*
X88605768Y-80816633D01*
X88605768Y-80816635D01*
X88587906Y-80986584D01*
X88586496Y-81000000D01*
X65258500Y-81000000D01*
X65258500Y-79750000D01*
X74586496Y-79750000D01*
X74587186Y-79756565D01*
X74605567Y-79931446D01*
X74606458Y-79939928D01*
X74665473Y-80121556D01*
X74668776Y-80127278D01*
X74668777Y-80127279D01*
X74674124Y-80136540D01*
X74760960Y-80286944D01*
X74765378Y-80291851D01*
X74765379Y-80291852D01*
X74811829Y-80343440D01*
X74888747Y-80428866D01*
X74987843Y-80500864D01*
X75033933Y-80534350D01*
X75043248Y-80541118D01*
X75049276Y-80543802D01*
X75049278Y-80543803D01*
X75158816Y-80592572D01*
X75217712Y-80618794D01*
X75292680Y-80634729D01*
X75398056Y-80657128D01*
X75398061Y-80657128D01*
X75404513Y-80658500D01*
X75595487Y-80658500D01*
X75601939Y-80657128D01*
X75601944Y-80657128D01*
X75707320Y-80634729D01*
X75782288Y-80618794D01*
X75841184Y-80592572D01*
X75950722Y-80543803D01*
X75950724Y-80543802D01*
X75956752Y-80541118D01*
X75966068Y-80534350D01*
X76012157Y-80500864D01*
X76111253Y-80428866D01*
X76188171Y-80343440D01*
X76234621Y-80291852D01*
X76234622Y-80291851D01*
X76239040Y-80286944D01*
X76325876Y-80136540D01*
X76331223Y-80127279D01*
X76331224Y-80127278D01*
X76334527Y-80121556D01*
X76393542Y-79939928D01*
X76393789Y-79937575D01*
X114601404Y-79937575D01*
X114603313Y-79958554D01*
X114619512Y-80136540D01*
X114620218Y-80144303D01*
X114621956Y-80150209D01*
X114621957Y-80150213D01*
X114640367Y-80212763D01*
X114678827Y-80343440D01*
X114774999Y-80527400D01*
X114778859Y-80532200D01*
X114778859Y-80532201D01*
X114788187Y-80543803D01*
X114905071Y-80689177D01*
X114909788Y-80693135D01*
X114909790Y-80693137D01*
X114990993Y-80761274D01*
X115064089Y-80822609D01*
X115069481Y-80825573D01*
X115069485Y-80825576D01*
X115187469Y-80890438D01*
X115245995Y-80922613D01*
X115443861Y-80985379D01*
X115449978Y-80986065D01*
X115449982Y-80986066D01*
X115526598Y-80994659D01*
X115605413Y-81003500D01*
X116117237Y-81003500D01*
X116120293Y-81003200D01*
X116120300Y-81003200D01*
X116265466Y-80988966D01*
X116265469Y-80988965D01*
X116271592Y-80988365D01*
X116403546Y-80948526D01*
X116464407Y-80930152D01*
X116464410Y-80930151D01*
X116470315Y-80928368D01*
X116477635Y-80924476D01*
X116648153Y-80833809D01*
X116648155Y-80833808D01*
X116653599Y-80830913D01*
X116713471Y-80782083D01*
X116809689Y-80703610D01*
X116809692Y-80703607D01*
X116814464Y-80699715D01*
X116868226Y-80634729D01*
X116942855Y-80544518D01*
X116946783Y-80539770D01*
X116950876Y-80532201D01*
X117042584Y-80362590D01*
X117042586Y-80362585D01*
X117045514Y-80357170D01*
X117106898Y-80158871D01*
X117108429Y-80144303D01*
X117127952Y-79958554D01*
X117127952Y-79958552D01*
X117128596Y-79952425D01*
X117109782Y-79745697D01*
X117107298Y-79737255D01*
X117052912Y-79552469D01*
X117051173Y-79546560D01*
X116955001Y-79362600D01*
X116824929Y-79200823D01*
X116812371Y-79190285D01*
X116676224Y-79076045D01*
X116665911Y-79067391D01*
X116660519Y-79064427D01*
X116660515Y-79064424D01*
X116489402Y-78970354D01*
X116484005Y-78967387D01*
X116286139Y-78904621D01*
X116280022Y-78903935D01*
X116280018Y-78903934D01*
X116203402Y-78895341D01*
X116124587Y-78886500D01*
X115612763Y-78886500D01*
X115609707Y-78886800D01*
X115609700Y-78886800D01*
X115464534Y-78901034D01*
X115464531Y-78901035D01*
X115458408Y-78901635D01*
X115355352Y-78932749D01*
X115265593Y-78959848D01*
X115265590Y-78959849D01*
X115259685Y-78961632D01*
X115254240Y-78964527D01*
X115254238Y-78964528D01*
X115081847Y-79056191D01*
X115081845Y-79056192D01*
X115076401Y-79059087D01*
X115033450Y-79094117D01*
X114920311Y-79186390D01*
X114920308Y-79186393D01*
X114915536Y-79190285D01*
X114911608Y-79195033D01*
X114911607Y-79195034D01*
X114875217Y-79239022D01*
X114783217Y-79350230D01*
X114780288Y-79355647D01*
X114780286Y-79355650D01*
X114687416Y-79527410D01*
X114687414Y-79527415D01*
X114684486Y-79532830D01*
X114623102Y-79731129D01*
X114622458Y-79737254D01*
X114622458Y-79737255D01*
X114603522Y-79917428D01*
X114601404Y-79937575D01*
X76393789Y-79937575D01*
X76394434Y-79931446D01*
X76412814Y-79756565D01*
X76413504Y-79750000D01*
X76409354Y-79710518D01*
X76394232Y-79566635D01*
X76394232Y-79566633D01*
X76393542Y-79560072D01*
X76334527Y-79378444D01*
X76325380Y-79362600D01*
X76257501Y-79245032D01*
X76239040Y-79213056D01*
X76228026Y-79200823D01*
X76115675Y-79076045D01*
X76115674Y-79076044D01*
X76111253Y-79071134D01*
X75956752Y-78958882D01*
X75950724Y-78956198D01*
X75950722Y-78956197D01*
X75788319Y-78883891D01*
X75788318Y-78883891D01*
X75782288Y-78881206D01*
X75688887Y-78861353D01*
X75601944Y-78842872D01*
X75601939Y-78842872D01*
X75595487Y-78841500D01*
X75404513Y-78841500D01*
X75398061Y-78842872D01*
X75398056Y-78842872D01*
X75311113Y-78861353D01*
X75217712Y-78881206D01*
X75211682Y-78883891D01*
X75211681Y-78883891D01*
X75049278Y-78956197D01*
X75049276Y-78956198D01*
X75043248Y-78958882D01*
X74888747Y-79071134D01*
X74884326Y-79076044D01*
X74884325Y-79076045D01*
X74771975Y-79200823D01*
X74760960Y-79213056D01*
X74742499Y-79245032D01*
X74674621Y-79362600D01*
X74665473Y-79378444D01*
X74606458Y-79560072D01*
X74605768Y-79566633D01*
X74605768Y-79566635D01*
X74590646Y-79710518D01*
X74586496Y-79750000D01*
X65258500Y-79750000D01*
X65258500Y-78250000D01*
X96086496Y-78250000D01*
X96106458Y-78439928D01*
X96165473Y-78621556D01*
X96260960Y-78786944D01*
X96265378Y-78791851D01*
X96265379Y-78791852D01*
X96350871Y-78886800D01*
X96388747Y-78928866D01*
X96543248Y-79041118D01*
X96549276Y-79043802D01*
X96549278Y-79043803D01*
X96662286Y-79094117D01*
X96717712Y-79118794D01*
X96811113Y-79138647D01*
X96898056Y-79157128D01*
X96898061Y-79157128D01*
X96904513Y-79158500D01*
X97095487Y-79158500D01*
X97101939Y-79157128D01*
X97101944Y-79157128D01*
X97188887Y-79138647D01*
X97282288Y-79118794D01*
X97337714Y-79094117D01*
X97450722Y-79043803D01*
X97450724Y-79043802D01*
X97456752Y-79041118D01*
X97611253Y-78928866D01*
X97649129Y-78886800D01*
X97734621Y-78791852D01*
X97734622Y-78791851D01*
X97739040Y-78786944D01*
X97834527Y-78621556D01*
X97893542Y-78439928D01*
X97913504Y-78250000D01*
X97893542Y-78060072D01*
X97834527Y-77878444D01*
X97827406Y-77866109D01*
X97784109Y-77791118D01*
X97739040Y-77713056D01*
X97711752Y-77682749D01*
X97615675Y-77576045D01*
X97615674Y-77576044D01*
X97611253Y-77571134D01*
X97456752Y-77458882D01*
X97450724Y-77456198D01*
X97450722Y-77456197D01*
X97288319Y-77383891D01*
X97288318Y-77383891D01*
X97282288Y-77381206D01*
X97188887Y-77361353D01*
X97101944Y-77342872D01*
X97101939Y-77342872D01*
X97095487Y-77341500D01*
X96904513Y-77341500D01*
X96898061Y-77342872D01*
X96898056Y-77342872D01*
X96811113Y-77361353D01*
X96717712Y-77381206D01*
X96711682Y-77383891D01*
X96711681Y-77383891D01*
X96549278Y-77456197D01*
X96549276Y-77456198D01*
X96543248Y-77458882D01*
X96388747Y-77571134D01*
X96384326Y-77576044D01*
X96384325Y-77576045D01*
X96288249Y-77682749D01*
X96260960Y-77713056D01*
X96215891Y-77791118D01*
X96172595Y-77866109D01*
X96165473Y-77878444D01*
X96106458Y-78060072D01*
X96086496Y-78250000D01*
X65258500Y-78250000D01*
X65258500Y-77000000D01*
X73086496Y-77000000D01*
X73087186Y-77006565D01*
X73103011Y-77157128D01*
X73106458Y-77189928D01*
X73165473Y-77371556D01*
X73168776Y-77377278D01*
X73168777Y-77377279D01*
X73201159Y-77433365D01*
X73260960Y-77536944D01*
X73265378Y-77541851D01*
X73265379Y-77541852D01*
X73331486Y-77615271D01*
X73388747Y-77678866D01*
X73543248Y-77791118D01*
X73549276Y-77793802D01*
X73549278Y-77793803D01*
X73711681Y-77866109D01*
X73717712Y-77868794D01*
X73792680Y-77884729D01*
X73898056Y-77907128D01*
X73898061Y-77907128D01*
X73904513Y-77908500D01*
X74095487Y-77908500D01*
X74101939Y-77907128D01*
X74101944Y-77907128D01*
X74207320Y-77884729D01*
X74282288Y-77868794D01*
X74288319Y-77866109D01*
X74450722Y-77793803D01*
X74450724Y-77793802D01*
X74456752Y-77791118D01*
X74611253Y-77678866D01*
X74668514Y-77615271D01*
X74734621Y-77541852D01*
X74734622Y-77541851D01*
X74739040Y-77536944D01*
X74798841Y-77433365D01*
X74831223Y-77377279D01*
X74831224Y-77377278D01*
X74834527Y-77371556D01*
X74874023Y-77250000D01*
X78336496Y-77250000D01*
X78356458Y-77439928D01*
X78415473Y-77621556D01*
X78510960Y-77786944D01*
X78638747Y-77928866D01*
X78793248Y-78041118D01*
X78799276Y-78043802D01*
X78799278Y-78043803D01*
X78850560Y-78066635D01*
X78967712Y-78118794D01*
X79061112Y-78138647D01*
X79148056Y-78157128D01*
X79148061Y-78157128D01*
X79154513Y-78158500D01*
X79345487Y-78158500D01*
X79351939Y-78157128D01*
X79351944Y-78157128D01*
X79438888Y-78138647D01*
X79532288Y-78118794D01*
X79649440Y-78066635D01*
X79700722Y-78043803D01*
X79700724Y-78043802D01*
X79706752Y-78041118D01*
X79861253Y-77928866D01*
X79989040Y-77786944D01*
X80084527Y-77621556D01*
X80143542Y-77439928D01*
X80163504Y-77250000D01*
X80157190Y-77189928D01*
X80144232Y-77066635D01*
X80144232Y-77066633D01*
X80143542Y-77060072D01*
X80084527Y-76878444D01*
X80077406Y-76866109D01*
X80034109Y-76791118D01*
X79989040Y-76713056D01*
X79961752Y-76682749D01*
X79865675Y-76576045D01*
X79865674Y-76576044D01*
X79861253Y-76571134D01*
X79706752Y-76458882D01*
X79700724Y-76456198D01*
X79700722Y-76456197D01*
X79538319Y-76383891D01*
X79538318Y-76383891D01*
X79532288Y-76381206D01*
X79438888Y-76361353D01*
X79351944Y-76342872D01*
X79351939Y-76342872D01*
X79345487Y-76341500D01*
X79154513Y-76341500D01*
X79148061Y-76342872D01*
X79148056Y-76342872D01*
X79061112Y-76361353D01*
X78967712Y-76381206D01*
X78961682Y-76383891D01*
X78961681Y-76383891D01*
X78799278Y-76456197D01*
X78799276Y-76456198D01*
X78793248Y-76458882D01*
X78638747Y-76571134D01*
X78634326Y-76576044D01*
X78634325Y-76576045D01*
X78538249Y-76682749D01*
X78510960Y-76713056D01*
X78465891Y-76791118D01*
X78422595Y-76866109D01*
X78415473Y-76878444D01*
X78356458Y-77060072D01*
X78355768Y-77066633D01*
X78355768Y-77066635D01*
X78342810Y-77189928D01*
X78336496Y-77250000D01*
X74874023Y-77250000D01*
X74893542Y-77189928D01*
X74896990Y-77157128D01*
X74912814Y-77006565D01*
X74913504Y-77000000D01*
X74906028Y-76928866D01*
X74894232Y-76816635D01*
X74894232Y-76816633D01*
X74893542Y-76810072D01*
X74834527Y-76628444D01*
X74827406Y-76616109D01*
X74784109Y-76541118D01*
X74739040Y-76463056D01*
X74718216Y-76439928D01*
X74615675Y-76326045D01*
X74615674Y-76326044D01*
X74611253Y-76321134D01*
X74513346Y-76250000D01*
X93336496Y-76250000D01*
X93337186Y-76256565D01*
X93344489Y-76326045D01*
X93356458Y-76439928D01*
X93415473Y-76621556D01*
X93418776Y-76627278D01*
X93418777Y-76627279D01*
X93436803Y-76658500D01*
X93510960Y-76786944D01*
X93515378Y-76791851D01*
X93515379Y-76791852D01*
X93537694Y-76816635D01*
X93638747Y-76928866D01*
X93793248Y-77041118D01*
X93799276Y-77043802D01*
X93799278Y-77043803D01*
X93850560Y-77066635D01*
X93967712Y-77118794D01*
X94061113Y-77138647D01*
X94148056Y-77157128D01*
X94148061Y-77157128D01*
X94154513Y-77158500D01*
X94345487Y-77158500D01*
X94351939Y-77157128D01*
X94351944Y-77157128D01*
X94438887Y-77138647D01*
X94532288Y-77118794D01*
X94649440Y-77066635D01*
X94700722Y-77043803D01*
X94700724Y-77043802D01*
X94706752Y-77041118D01*
X94861253Y-76928866D01*
X94962306Y-76816635D01*
X94984621Y-76791852D01*
X94984622Y-76791851D01*
X94989040Y-76786944D01*
X95063197Y-76658500D01*
X95081223Y-76627279D01*
X95081224Y-76627278D01*
X95084527Y-76621556D01*
X95143542Y-76439928D01*
X95155512Y-76326045D01*
X95162814Y-76256565D01*
X95163504Y-76250000D01*
X95158900Y-76206197D01*
X95144232Y-76066635D01*
X95144232Y-76066633D01*
X95143542Y-76060072D01*
X95084527Y-75878444D01*
X95010370Y-75750000D01*
X107836496Y-75750000D01*
X107837186Y-75756565D01*
X107852913Y-75906195D01*
X107856458Y-75939928D01*
X107915473Y-76121556D01*
X107918776Y-76127278D01*
X107918777Y-76127279D01*
X107923544Y-76135535D01*
X108010960Y-76286944D01*
X108015378Y-76291851D01*
X108015379Y-76291852D01*
X108060082Y-76341500D01*
X108138747Y-76428866D01*
X108293248Y-76541118D01*
X108299276Y-76543802D01*
X108299278Y-76543803D01*
X108459799Y-76615271D01*
X108467712Y-76618794D01*
X108542680Y-76634729D01*
X108648056Y-76657128D01*
X108648061Y-76657128D01*
X108654513Y-76658500D01*
X108845487Y-76658500D01*
X108851939Y-76657128D01*
X108851944Y-76657128D01*
X108957320Y-76634729D01*
X109032288Y-76618794D01*
X109040201Y-76615271D01*
X109200722Y-76543803D01*
X109200724Y-76543802D01*
X109206752Y-76541118D01*
X109361253Y-76428866D01*
X109439918Y-76341500D01*
X109484621Y-76291852D01*
X109484622Y-76291851D01*
X109489040Y-76286944D01*
X109510370Y-76250000D01*
X113586496Y-76250000D01*
X113587186Y-76256565D01*
X113594489Y-76326045D01*
X113606458Y-76439928D01*
X113665473Y-76621556D01*
X113668776Y-76627278D01*
X113668777Y-76627279D01*
X113686803Y-76658500D01*
X113760960Y-76786944D01*
X113765378Y-76791851D01*
X113765379Y-76791852D01*
X113787694Y-76816635D01*
X113888747Y-76928866D01*
X114043248Y-77041118D01*
X114049276Y-77043802D01*
X114049278Y-77043803D01*
X114100560Y-77066635D01*
X114217712Y-77118794D01*
X114311113Y-77138647D01*
X114398056Y-77157128D01*
X114398061Y-77157128D01*
X114404513Y-77158500D01*
X114595487Y-77158500D01*
X114601939Y-77157128D01*
X114601944Y-77157128D01*
X114688887Y-77138647D01*
X114782288Y-77118794D01*
X114899440Y-77066635D01*
X114950722Y-77043803D01*
X114950724Y-77043802D01*
X114956752Y-77041118D01*
X115111253Y-76928866D01*
X115212306Y-76816635D01*
X115234621Y-76791852D01*
X115234622Y-76791851D01*
X115239040Y-76786944D01*
X115313197Y-76658500D01*
X115331223Y-76627279D01*
X115331224Y-76627278D01*
X115334527Y-76621556D01*
X115393542Y-76439928D01*
X115405512Y-76326045D01*
X115411463Y-76269420D01*
X115438476Y-76203764D01*
X115496698Y-76163134D01*
X115550818Y-76157376D01*
X115573387Y-76159908D01*
X115601915Y-76163108D01*
X115601921Y-76163108D01*
X115605413Y-76163500D01*
X116117237Y-76163500D01*
X116120293Y-76163200D01*
X116120300Y-76163200D01*
X116265466Y-76148966D01*
X116265469Y-76148965D01*
X116271592Y-76148365D01*
X116403546Y-76108526D01*
X116464407Y-76090152D01*
X116464410Y-76090151D01*
X116470315Y-76088368D01*
X116475762Y-76085472D01*
X116648153Y-75993809D01*
X116648155Y-75993808D01*
X116653599Y-75990913D01*
X116742313Y-75918560D01*
X116809689Y-75863610D01*
X116809692Y-75863607D01*
X116814464Y-75859715D01*
X116946783Y-75699770D01*
X116958403Y-75678280D01*
X117042584Y-75522590D01*
X117042586Y-75522585D01*
X117045514Y-75517170D01*
X117106898Y-75318871D01*
X117108526Y-75303382D01*
X117127952Y-75118554D01*
X117127952Y-75118552D01*
X117128596Y-75112425D01*
X117118766Y-75004409D01*
X117110341Y-74911836D01*
X117110340Y-74911833D01*
X117109782Y-74905697D01*
X117107298Y-74897255D01*
X117052912Y-74712469D01*
X117051173Y-74706560D01*
X116955001Y-74522600D01*
X116824929Y-74360823D01*
X116812371Y-74350285D01*
X116670629Y-74231350D01*
X116665911Y-74227391D01*
X116660519Y-74224427D01*
X116660515Y-74224424D01*
X116489402Y-74130354D01*
X116484005Y-74127387D01*
X116286139Y-74064621D01*
X116280022Y-74063935D01*
X116280018Y-74063934D01*
X116189614Y-74053794D01*
X116124587Y-74046500D01*
X115612763Y-74046500D01*
X115609707Y-74046800D01*
X115609700Y-74046800D01*
X115464534Y-74061034D01*
X115464531Y-74061035D01*
X115458408Y-74061635D01*
X115326893Y-74101341D01*
X115265593Y-74119848D01*
X115265590Y-74119849D01*
X115259685Y-74121632D01*
X115254240Y-74124527D01*
X115254238Y-74124528D01*
X115081847Y-74216191D01*
X115081845Y-74216192D01*
X115076401Y-74219087D01*
X115038498Y-74250000D01*
X114920311Y-74346390D01*
X114920308Y-74346393D01*
X114915536Y-74350285D01*
X114783217Y-74510230D01*
X114780288Y-74515647D01*
X114780286Y-74515650D01*
X114687416Y-74687410D01*
X114687414Y-74687415D01*
X114684486Y-74692830D01*
X114623102Y-74891129D01*
X114622458Y-74897254D01*
X114622458Y-74897255D01*
X114607056Y-75043803D01*
X114601404Y-75097575D01*
X114603091Y-75116109D01*
X114611097Y-75204080D01*
X114597352Y-75273733D01*
X114548131Y-75324898D01*
X114485616Y-75341500D01*
X114404513Y-75341500D01*
X114398061Y-75342872D01*
X114398056Y-75342872D01*
X114311112Y-75361353D01*
X114217712Y-75381206D01*
X114211682Y-75383891D01*
X114211681Y-75383891D01*
X114049278Y-75456197D01*
X114049276Y-75456198D01*
X114043248Y-75458882D01*
X113888747Y-75571134D01*
X113884326Y-75576044D01*
X113884325Y-75576045D01*
X113768648Y-75704518D01*
X113760960Y-75713056D01*
X113665473Y-75878444D01*
X113606458Y-76060072D01*
X113605768Y-76066633D01*
X113605768Y-76066635D01*
X113591100Y-76206197D01*
X113586496Y-76250000D01*
X109510370Y-76250000D01*
X109576456Y-76135535D01*
X109581223Y-76127279D01*
X109581224Y-76127278D01*
X109584527Y-76121556D01*
X109643542Y-75939928D01*
X109647088Y-75906195D01*
X109662814Y-75756565D01*
X109663504Y-75750000D01*
X109654713Y-75666360D01*
X109644232Y-75566635D01*
X109644232Y-75566633D01*
X109643542Y-75560072D01*
X109584527Y-75378444D01*
X109563990Y-75342872D01*
X109492341Y-75218774D01*
X109489040Y-75213056D01*
X109389592Y-75102607D01*
X109365675Y-75076045D01*
X109365674Y-75076044D01*
X109361253Y-75071134D01*
X109206752Y-74958882D01*
X109200724Y-74956198D01*
X109200722Y-74956197D01*
X109038319Y-74883891D01*
X109038318Y-74883891D01*
X109032288Y-74881206D01*
X108938887Y-74861353D01*
X108851944Y-74842872D01*
X108851939Y-74842872D01*
X108845487Y-74841500D01*
X108654513Y-74841500D01*
X108648061Y-74842872D01*
X108648056Y-74842872D01*
X108561113Y-74861353D01*
X108467712Y-74881206D01*
X108461682Y-74883891D01*
X108461681Y-74883891D01*
X108299278Y-74956197D01*
X108299276Y-74956198D01*
X108293248Y-74958882D01*
X108138747Y-75071134D01*
X108134326Y-75076044D01*
X108134325Y-75076045D01*
X108110409Y-75102607D01*
X108010960Y-75213056D01*
X108007659Y-75218774D01*
X107936011Y-75342872D01*
X107915473Y-75378444D01*
X107856458Y-75560072D01*
X107855768Y-75566633D01*
X107855768Y-75566635D01*
X107845287Y-75666360D01*
X107836496Y-75750000D01*
X95010370Y-75750000D01*
X94989040Y-75713056D01*
X94981353Y-75704518D01*
X94865675Y-75576045D01*
X94865674Y-75576044D01*
X94861253Y-75571134D01*
X94706752Y-75458882D01*
X94700724Y-75456198D01*
X94700722Y-75456197D01*
X94538319Y-75383891D01*
X94538318Y-75383891D01*
X94532288Y-75381206D01*
X94438888Y-75361353D01*
X94351944Y-75342872D01*
X94351939Y-75342872D01*
X94345487Y-75341500D01*
X94154513Y-75341500D01*
X94148061Y-75342872D01*
X94148056Y-75342872D01*
X94061112Y-75361353D01*
X93967712Y-75381206D01*
X93961682Y-75383891D01*
X93961681Y-75383891D01*
X93799278Y-75456197D01*
X93799276Y-75456198D01*
X93793248Y-75458882D01*
X93638747Y-75571134D01*
X93634326Y-75576044D01*
X93634325Y-75576045D01*
X93518648Y-75704518D01*
X93510960Y-75713056D01*
X93415473Y-75878444D01*
X93356458Y-76060072D01*
X93355768Y-76066633D01*
X93355768Y-76066635D01*
X93341100Y-76206197D01*
X93336496Y-76250000D01*
X74513346Y-76250000D01*
X74456752Y-76208882D01*
X74450724Y-76206198D01*
X74450722Y-76206197D01*
X74288319Y-76133891D01*
X74288318Y-76133891D01*
X74282288Y-76131206D01*
X74188888Y-76111353D01*
X74101944Y-76092872D01*
X74101939Y-76092872D01*
X74095487Y-76091500D01*
X73904513Y-76091500D01*
X73898061Y-76092872D01*
X73898056Y-76092872D01*
X73811112Y-76111353D01*
X73717712Y-76131206D01*
X73711682Y-76133891D01*
X73711681Y-76133891D01*
X73549278Y-76206197D01*
X73549276Y-76206198D01*
X73543248Y-76208882D01*
X73388747Y-76321134D01*
X73384326Y-76326044D01*
X73384325Y-76326045D01*
X73281785Y-76439928D01*
X73260960Y-76463056D01*
X73215891Y-76541118D01*
X73172595Y-76616109D01*
X73165473Y-76628444D01*
X73106458Y-76810072D01*
X73105768Y-76816633D01*
X73105768Y-76816635D01*
X73093972Y-76928866D01*
X73086496Y-77000000D01*
X65258500Y-77000000D01*
X65258500Y-75297064D01*
X66932707Y-75297064D01*
X66945225Y-75379834D01*
X66958676Y-75468774D01*
X66961825Y-75489599D01*
X66964028Y-75495585D01*
X66964029Y-75495591D01*
X67026860Y-75666360D01*
X67026862Y-75666365D01*
X67029063Y-75672346D01*
X67032425Y-75677768D01*
X67113435Y-75808423D01*
X67131674Y-75837840D01*
X67265466Y-75979322D01*
X67270696Y-75982984D01*
X67270697Y-75982985D01*
X67294997Y-76000000D01*
X67424975Y-76091011D01*
X67430838Y-76093548D01*
X67597825Y-76165810D01*
X67597829Y-76165811D01*
X67603684Y-76168345D01*
X67609931Y-76169650D01*
X67609934Y-76169651D01*
X67789557Y-76207176D01*
X67789562Y-76207177D01*
X67794293Y-76208165D01*
X67800685Y-76208500D01*
X67943663Y-76208500D01*
X68064696Y-76196206D01*
X68082378Y-76194410D01*
X68082379Y-76194410D01*
X68088727Y-76193765D01*
X68169843Y-76168345D01*
X68268451Y-76137444D01*
X68268456Y-76137442D01*
X68274541Y-76135535D01*
X68364856Y-76085472D01*
X68439271Y-76044223D01*
X68439274Y-76044221D01*
X68444850Y-76041130D01*
X68449691Y-76036981D01*
X68449695Y-76036978D01*
X68492838Y-76000000D01*
X70336496Y-76000000D01*
X70337186Y-76006565D01*
X70354190Y-76168345D01*
X70356458Y-76189928D01*
X70415473Y-76371556D01*
X70418776Y-76377278D01*
X70418777Y-76377279D01*
X70445726Y-76423955D01*
X70510960Y-76536944D01*
X70515378Y-76541851D01*
X70515379Y-76541852D01*
X70581486Y-76615271D01*
X70638747Y-76678866D01*
X70793248Y-76791118D01*
X70799276Y-76793802D01*
X70799278Y-76793803D01*
X70850560Y-76816635D01*
X70967712Y-76868794D01*
X71042680Y-76884729D01*
X71148056Y-76907128D01*
X71148061Y-76907128D01*
X71154513Y-76908500D01*
X71345487Y-76908500D01*
X71351939Y-76907128D01*
X71351944Y-76907128D01*
X71457320Y-76884729D01*
X71532288Y-76868794D01*
X71649440Y-76816635D01*
X71700722Y-76793803D01*
X71700724Y-76793802D01*
X71706752Y-76791118D01*
X71861253Y-76678866D01*
X71918514Y-76615271D01*
X71984621Y-76541852D01*
X71984622Y-76541851D01*
X71989040Y-76536944D01*
X72054274Y-76423955D01*
X72081223Y-76377279D01*
X72081224Y-76377278D01*
X72084527Y-76371556D01*
X72143542Y-76189928D01*
X72145811Y-76168345D01*
X72162814Y-76006565D01*
X72163504Y-76000000D01*
X72157190Y-75939928D01*
X72144232Y-75816635D01*
X72144232Y-75816633D01*
X72143542Y-75810072D01*
X72084527Y-75628444D01*
X71989040Y-75463056D01*
X71976118Y-75448704D01*
X71865675Y-75326045D01*
X71865674Y-75326044D01*
X71861253Y-75321134D01*
X71706752Y-75208882D01*
X71700724Y-75206198D01*
X71700722Y-75206197D01*
X71538319Y-75133891D01*
X71538318Y-75133891D01*
X71532288Y-75131206D01*
X71427752Y-75108986D01*
X71351944Y-75092872D01*
X71351939Y-75092872D01*
X71345487Y-75091500D01*
X71154513Y-75091500D01*
X71148061Y-75092872D01*
X71148056Y-75092872D01*
X71072248Y-75108986D01*
X70967712Y-75131206D01*
X70961682Y-75133891D01*
X70961681Y-75133891D01*
X70799278Y-75206197D01*
X70799276Y-75206198D01*
X70793248Y-75208882D01*
X70638747Y-75321134D01*
X70634326Y-75326044D01*
X70634325Y-75326045D01*
X70523883Y-75448704D01*
X70510960Y-75463056D01*
X70415473Y-75628444D01*
X70356458Y-75810072D01*
X70355768Y-75816633D01*
X70355768Y-75816635D01*
X70342810Y-75939928D01*
X70336496Y-76000000D01*
X68492838Y-76000000D01*
X68587855Y-75918560D01*
X68592698Y-75914409D01*
X68599070Y-75906195D01*
X68708131Y-75765594D01*
X68712046Y-75760547D01*
X68720467Y-75743435D01*
X68795200Y-75591556D01*
X68798018Y-75585829D01*
X68814491Y-75522590D01*
X68845492Y-75403575D01*
X68845492Y-75403572D01*
X68847102Y-75397393D01*
X68857293Y-75202936D01*
X68833227Y-75043803D01*
X68829130Y-75016715D01*
X68829130Y-75016714D01*
X68828175Y-75010401D01*
X68825972Y-75004415D01*
X68825971Y-75004409D01*
X68763140Y-74833640D01*
X68763138Y-74833635D01*
X68760937Y-74827654D01*
X68685855Y-74706560D01*
X68661688Y-74667582D01*
X68661687Y-74667581D01*
X68658326Y-74662160D01*
X68524534Y-74520678D01*
X68517354Y-74515650D01*
X68370259Y-74412654D01*
X68365025Y-74408989D01*
X68317013Y-74388212D01*
X68192175Y-74334190D01*
X68192171Y-74334189D01*
X68186316Y-74331655D01*
X68180069Y-74330350D01*
X68180066Y-74330349D01*
X68000443Y-74292824D01*
X68000438Y-74292823D01*
X67995707Y-74291835D01*
X67989315Y-74291500D01*
X67846337Y-74291500D01*
X67777049Y-74298538D01*
X67707622Y-74305590D01*
X67707621Y-74305590D01*
X67701273Y-74306235D01*
X67644939Y-74323889D01*
X67521549Y-74362556D01*
X67521544Y-74362558D01*
X67515459Y-74364465D01*
X67439713Y-74406452D01*
X67350729Y-74455777D01*
X67350726Y-74455779D01*
X67345150Y-74458870D01*
X67340309Y-74463019D01*
X67340305Y-74463022D01*
X67246057Y-74543803D01*
X67197302Y-74585591D01*
X67193391Y-74590633D01*
X67193390Y-74590634D01*
X67164965Y-74627279D01*
X67077954Y-74739453D01*
X67075138Y-74745176D01*
X67075136Y-74745179D01*
X67027065Y-74842872D01*
X66991982Y-74914171D01*
X66990373Y-74920349D01*
X66990372Y-74920351D01*
X66945434Y-75092872D01*
X66942898Y-75102607D01*
X66940041Y-75157128D01*
X66933930Y-75273733D01*
X66932707Y-75297064D01*
X65258500Y-75297064D01*
X65258500Y-73750000D01*
X77586496Y-73750000D01*
X77606458Y-73939928D01*
X77665473Y-74121556D01*
X77668776Y-74127278D01*
X77668777Y-74127279D01*
X77674193Y-74136660D01*
X77760960Y-74286944D01*
X77765378Y-74291851D01*
X77765379Y-74291852D01*
X77800042Y-74330349D01*
X77888747Y-74428866D01*
X78043248Y-74541118D01*
X78049276Y-74543802D01*
X78049278Y-74543803D01*
X78133813Y-74581440D01*
X78217712Y-74618794D01*
X78311112Y-74638647D01*
X78398056Y-74657128D01*
X78398061Y-74657128D01*
X78404513Y-74658500D01*
X78595487Y-74658500D01*
X78601939Y-74657128D01*
X78601944Y-74657128D01*
X78688888Y-74638647D01*
X78782288Y-74618794D01*
X78866187Y-74581440D01*
X78950722Y-74543803D01*
X78950724Y-74543802D01*
X78956752Y-74541118D01*
X79111253Y-74428866D01*
X79199958Y-74330349D01*
X79234621Y-74291852D01*
X79234622Y-74291851D01*
X79239040Y-74286944D01*
X79260370Y-74250000D01*
X82836496Y-74250000D01*
X82837186Y-74256565D01*
X82852940Y-74406452D01*
X82856458Y-74439928D01*
X82915473Y-74621556D01*
X82918776Y-74627278D01*
X82918777Y-74627279D01*
X82936240Y-74657526D01*
X83010960Y-74786944D01*
X83015378Y-74791851D01*
X83015379Y-74791852D01*
X83130079Y-74919239D01*
X83138747Y-74928866D01*
X83293248Y-75041118D01*
X83299276Y-75043802D01*
X83299278Y-75043803D01*
X83453407Y-75112425D01*
X83467712Y-75118794D01*
X83561113Y-75138647D01*
X83648056Y-75157128D01*
X83648061Y-75157128D01*
X83654513Y-75158500D01*
X83845487Y-75158500D01*
X83851939Y-75157128D01*
X83851944Y-75157128D01*
X83938887Y-75138647D01*
X84032288Y-75118794D01*
X84046593Y-75112425D01*
X84200722Y-75043803D01*
X84200724Y-75043802D01*
X84206752Y-75041118D01*
X84361253Y-74928866D01*
X84369921Y-74919239D01*
X84484621Y-74791852D01*
X84484622Y-74791851D01*
X84489040Y-74786944D01*
X84563760Y-74657526D01*
X84581223Y-74627279D01*
X84581224Y-74627278D01*
X84584527Y-74621556D01*
X84643542Y-74439928D01*
X84647061Y-74406452D01*
X84662814Y-74256565D01*
X84663504Y-74250000D01*
X84648355Y-74105861D01*
X84644232Y-74066635D01*
X84644232Y-74066633D01*
X84643542Y-74060072D01*
X84584527Y-73878444D01*
X84489040Y-73713056D01*
X84466417Y-73687930D01*
X84365675Y-73576045D01*
X84365674Y-73576044D01*
X84361253Y-73571134D01*
X84206752Y-73458882D01*
X84200724Y-73456198D01*
X84200722Y-73456197D01*
X84038319Y-73383891D01*
X84038318Y-73383891D01*
X84032288Y-73381206D01*
X83938888Y-73361353D01*
X83851944Y-73342872D01*
X83851939Y-73342872D01*
X83845487Y-73341500D01*
X83654513Y-73341500D01*
X83648061Y-73342872D01*
X83648056Y-73342872D01*
X83561112Y-73361353D01*
X83467712Y-73381206D01*
X83461682Y-73383891D01*
X83461681Y-73383891D01*
X83299278Y-73456197D01*
X83299276Y-73456198D01*
X83293248Y-73458882D01*
X83138747Y-73571134D01*
X83134326Y-73576044D01*
X83134325Y-73576045D01*
X83033584Y-73687930D01*
X83010960Y-73713056D01*
X82915473Y-73878444D01*
X82856458Y-74060072D01*
X82855768Y-74066633D01*
X82855768Y-74066635D01*
X82851645Y-74105861D01*
X82836496Y-74250000D01*
X79260370Y-74250000D01*
X79325807Y-74136660D01*
X79331223Y-74127279D01*
X79331224Y-74127278D01*
X79334527Y-74121556D01*
X79393542Y-73939928D01*
X79413504Y-73750000D01*
X79393542Y-73560072D01*
X79334527Y-73378444D01*
X79313990Y-73342872D01*
X79242341Y-73218774D01*
X79239040Y-73213056D01*
X79219952Y-73191856D01*
X79115675Y-73076045D01*
X79115674Y-73076044D01*
X79111253Y-73071134D01*
X78956752Y-72958882D01*
X78950724Y-72956198D01*
X78950722Y-72956197D01*
X78788319Y-72883891D01*
X78788318Y-72883891D01*
X78782288Y-72881206D01*
X78688887Y-72861353D01*
X78601944Y-72842872D01*
X78601939Y-72842872D01*
X78595487Y-72841500D01*
X78404513Y-72841500D01*
X78398061Y-72842872D01*
X78398056Y-72842872D01*
X78311113Y-72861353D01*
X78217712Y-72881206D01*
X78211682Y-72883891D01*
X78211681Y-72883891D01*
X78049278Y-72956197D01*
X78049276Y-72956198D01*
X78043248Y-72958882D01*
X77888747Y-73071134D01*
X77884326Y-73076044D01*
X77884325Y-73076045D01*
X77780049Y-73191856D01*
X77760960Y-73213056D01*
X77757659Y-73218774D01*
X77686011Y-73342872D01*
X77665473Y-73378444D01*
X77606458Y-73560072D01*
X77586496Y-73750000D01*
X65258500Y-73750000D01*
X65258500Y-72297064D01*
X66932707Y-72297064D01*
X66961825Y-72489599D01*
X66964028Y-72495585D01*
X66964029Y-72495591D01*
X67026860Y-72666360D01*
X67026862Y-72666365D01*
X67029063Y-72672346D01*
X67131674Y-72837840D01*
X67265466Y-72979322D01*
X67424975Y-73091011D01*
X67430838Y-73093548D01*
X67597825Y-73165810D01*
X67597829Y-73165811D01*
X67603684Y-73168345D01*
X67609931Y-73169650D01*
X67609934Y-73169651D01*
X67789557Y-73207176D01*
X67789562Y-73207177D01*
X67794293Y-73208165D01*
X67800685Y-73208500D01*
X67943663Y-73208500D01*
X68012951Y-73201462D01*
X68082378Y-73194410D01*
X68082379Y-73194410D01*
X68088727Y-73193765D01*
X68169843Y-73168345D01*
X68268451Y-73137444D01*
X68268456Y-73137442D01*
X68274541Y-73135535D01*
X68361475Y-73087346D01*
X68439271Y-73044223D01*
X68439274Y-73044221D01*
X68444850Y-73041130D01*
X68449691Y-73036981D01*
X68449695Y-73036978D01*
X68587855Y-72918560D01*
X68592698Y-72914409D01*
X68712046Y-72760547D01*
X68752779Y-72677768D01*
X68795200Y-72591556D01*
X68798018Y-72585829D01*
X68799628Y-72579649D01*
X68845492Y-72403575D01*
X68845492Y-72403572D01*
X68847102Y-72397393D01*
X68857293Y-72202936D01*
X68828175Y-72010401D01*
X68825972Y-72004415D01*
X68825971Y-72004409D01*
X68763140Y-71833640D01*
X68763138Y-71833635D01*
X68760937Y-71827654D01*
X68658326Y-71662160D01*
X68524534Y-71520678D01*
X68365025Y-71408989D01*
X68317013Y-71388212D01*
X68192175Y-71334190D01*
X68192171Y-71334189D01*
X68186316Y-71331655D01*
X68180069Y-71330350D01*
X68180066Y-71330349D01*
X68000443Y-71292824D01*
X68000438Y-71292823D01*
X67995707Y-71291835D01*
X67989315Y-71291500D01*
X67846337Y-71291500D01*
X67777049Y-71298538D01*
X67707622Y-71305590D01*
X67707621Y-71305590D01*
X67701273Y-71306235D01*
X67644939Y-71323889D01*
X67521549Y-71362556D01*
X67521544Y-71362558D01*
X67515459Y-71364465D01*
X67439713Y-71406452D01*
X67350729Y-71455777D01*
X67350726Y-71455779D01*
X67345150Y-71458870D01*
X67340309Y-71463019D01*
X67340305Y-71463022D01*
X67277311Y-71517015D01*
X67197302Y-71585591D01*
X67077954Y-71739453D01*
X67075138Y-71745176D01*
X67075136Y-71745179D01*
X67031608Y-71833640D01*
X66991982Y-71914171D01*
X66990373Y-71920349D01*
X66990372Y-71920351D01*
X66968477Y-72004409D01*
X66942898Y-72102607D01*
X66932707Y-72297064D01*
X65258500Y-72297064D01*
X65258500Y-67250000D01*
X94836496Y-67250000D01*
X94856458Y-67439928D01*
X94915473Y-67621556D01*
X95010960Y-67786944D01*
X95138747Y-67928866D01*
X95293248Y-68041118D01*
X95299276Y-68043802D01*
X95299278Y-68043803D01*
X95461681Y-68116109D01*
X95467712Y-68118794D01*
X95561112Y-68138647D01*
X95648056Y-68157128D01*
X95648061Y-68157128D01*
X95654513Y-68158500D01*
X95845487Y-68158500D01*
X95851939Y-68157128D01*
X95851944Y-68157128D01*
X95938888Y-68138647D01*
X96032288Y-68118794D01*
X96038319Y-68116109D01*
X96200722Y-68043803D01*
X96200724Y-68043802D01*
X96206752Y-68041118D01*
X96361253Y-67928866D01*
X96489040Y-67786944D01*
X96584527Y-67621556D01*
X96643542Y-67439928D01*
X96663504Y-67250000D01*
X96643542Y-67060072D01*
X96584527Y-66878444D01*
X96489040Y-66713056D01*
X96430907Y-66648492D01*
X96365675Y-66576045D01*
X96365674Y-66576044D01*
X96361253Y-66571134D01*
X96206752Y-66458882D01*
X96200724Y-66456198D01*
X96200722Y-66456197D01*
X96038319Y-66383891D01*
X96038318Y-66383891D01*
X96032288Y-66381206D01*
X95938887Y-66361353D01*
X95851944Y-66342872D01*
X95851939Y-66342872D01*
X95845487Y-66341500D01*
X95654513Y-66341500D01*
X95648061Y-66342872D01*
X95648056Y-66342872D01*
X95561113Y-66361353D01*
X95467712Y-66381206D01*
X95461682Y-66383891D01*
X95461681Y-66383891D01*
X95299278Y-66456197D01*
X95299276Y-66456198D01*
X95293248Y-66458882D01*
X95138747Y-66571134D01*
X95134326Y-66576044D01*
X95134325Y-66576045D01*
X95069094Y-66648492D01*
X95010960Y-66713056D01*
X94915473Y-66878444D01*
X94856458Y-67060072D01*
X94836496Y-67250000D01*
X65258500Y-67250000D01*
X65258500Y-62833305D01*
X65278502Y-62765184D01*
X65332158Y-62718691D01*
X65402432Y-62708587D01*
X65467012Y-62738081D01*
X65505396Y-62797807D01*
X65508079Y-62808723D01*
X65575594Y-63148144D01*
X65696163Y-63559127D01*
X65697190Y-63561740D01*
X65697190Y-63561741D01*
X65835651Y-63914145D01*
X65852789Y-63957765D01*
X65854044Y-63960276D01*
X66039387Y-64331206D01*
X66044231Y-64340901D01*
X66268974Y-64705502D01*
X66525239Y-65048682D01*
X66527100Y-65050760D01*
X66527101Y-65050761D01*
X66809127Y-65365637D01*
X66809133Y-65365643D01*
X66810995Y-65367722D01*
X67123981Y-65660098D01*
X67461719Y-65923493D01*
X67821533Y-66155822D01*
X67824012Y-66157126D01*
X67824015Y-66157128D01*
X68198077Y-66353932D01*
X68198083Y-66353935D01*
X68200577Y-66355247D01*
X68203175Y-66356331D01*
X68203179Y-66356333D01*
X68593263Y-66519109D01*
X68593268Y-66519111D01*
X68595847Y-66520187D01*
X68598512Y-66521030D01*
X68598518Y-66521032D01*
X68770199Y-66575327D01*
X69004214Y-66649336D01*
X69006944Y-66649939D01*
X69006945Y-66649939D01*
X69270598Y-66708148D01*
X69422446Y-66741673D01*
X69425220Y-66742031D01*
X69425221Y-66742031D01*
X69844460Y-66796109D01*
X69844467Y-66796110D01*
X69847230Y-66796466D01*
X69850017Y-66796576D01*
X69850023Y-66796576D01*
X70098238Y-66806328D01*
X70275203Y-66813281D01*
X70277995Y-66813142D01*
X70278000Y-66813142D01*
X70700172Y-66792125D01*
X70700181Y-66792124D01*
X70702976Y-66791985D01*
X70705753Y-66791597D01*
X70705755Y-66791597D01*
X70780066Y-66781219D01*
X71127163Y-66732747D01*
X71544404Y-66636036D01*
X71758307Y-66565915D01*
X71948744Y-66503487D01*
X71948750Y-66503485D01*
X71951397Y-66502617D01*
X72297471Y-66353932D01*
X72342344Y-66334653D01*
X72342346Y-66334652D01*
X72344918Y-66333547D01*
X72721852Y-66130164D01*
X73079214Y-65894080D01*
X73263022Y-65747610D01*
X85966500Y-65747610D01*
X85981458Y-65889928D01*
X86040473Y-66071556D01*
X86135960Y-66236944D01*
X86140378Y-66241851D01*
X86140379Y-66241852D01*
X86231338Y-66342872D01*
X86263747Y-66378866D01*
X86418248Y-66491118D01*
X86424276Y-66493802D01*
X86424278Y-66493803D01*
X86441600Y-66501515D01*
X86592712Y-66568794D01*
X86662425Y-66583612D01*
X86773056Y-66607128D01*
X86773061Y-66607128D01*
X86779513Y-66608500D01*
X86970487Y-66608500D01*
X86976939Y-66607128D01*
X86976944Y-66607128D01*
X87087575Y-66583612D01*
X87157288Y-66568794D01*
X87308400Y-66501515D01*
X87325722Y-66493803D01*
X87325724Y-66493802D01*
X87331752Y-66491118D01*
X87379817Y-66456197D01*
X87425939Y-66422687D01*
X87492807Y-66398828D01*
X87561958Y-66414909D01*
X87574061Y-66422687D01*
X87620184Y-66456197D01*
X87668248Y-66491118D01*
X87674276Y-66493802D01*
X87674278Y-66493803D01*
X87691600Y-66501515D01*
X87842712Y-66568794D01*
X87912425Y-66583612D01*
X88023056Y-66607128D01*
X88023061Y-66607128D01*
X88029513Y-66608500D01*
X88220487Y-66608500D01*
X88226939Y-66607128D01*
X88226944Y-66607128D01*
X88337575Y-66583612D01*
X88407288Y-66568794D01*
X88558400Y-66501515D01*
X88575722Y-66493803D01*
X88575724Y-66493802D01*
X88581752Y-66491118D01*
X88629817Y-66456197D01*
X88675939Y-66422687D01*
X88742807Y-66398828D01*
X88811958Y-66414909D01*
X88824061Y-66422687D01*
X88870184Y-66456197D01*
X88918248Y-66491118D01*
X88924276Y-66493802D01*
X88924278Y-66493803D01*
X88941600Y-66501515D01*
X89092712Y-66568794D01*
X89162425Y-66583612D01*
X89273056Y-66607128D01*
X89273061Y-66607128D01*
X89279513Y-66608500D01*
X89470487Y-66608500D01*
X89476939Y-66607128D01*
X89476944Y-66607128D01*
X89587575Y-66583612D01*
X89657288Y-66568794D01*
X89808400Y-66501515D01*
X89825722Y-66493803D01*
X89825724Y-66493802D01*
X89831752Y-66491118D01*
X89856089Y-66473436D01*
X89922956Y-66449578D01*
X89995422Y-66467596D01*
X90125012Y-66546079D01*
X90138757Y-66552285D01*
X90232713Y-66581729D01*
X90246813Y-66581984D01*
X90250000Y-66575327D01*
X90250000Y-66569031D01*
X91000000Y-66569031D01*
X91003973Y-66582562D01*
X91011277Y-66583612D01*
X91111243Y-66552285D01*
X91124988Y-66546079D01*
X91258574Y-66465176D01*
X91270443Y-66455869D01*
X91380869Y-66345443D01*
X91390176Y-66333574D01*
X91471079Y-66199988D01*
X91477285Y-66186243D01*
X91524256Y-66036356D01*
X91526869Y-66023306D01*
X91532734Y-65959479D01*
X91533000Y-65953691D01*
X91533000Y-65843115D01*
X91528525Y-65827876D01*
X91527135Y-65826671D01*
X91519452Y-65825000D01*
X91018115Y-65825000D01*
X91002876Y-65829475D01*
X91001671Y-65830865D01*
X91000000Y-65838548D01*
X91000000Y-66569031D01*
X90250000Y-66569031D01*
X90250000Y-65966950D01*
X90256167Y-65928014D01*
X90266502Y-65896206D01*
X90268542Y-65889928D01*
X90283500Y-65747610D01*
X90283500Y-65152390D01*
X90273462Y-65056885D01*
X91000000Y-65056885D01*
X91004475Y-65072124D01*
X91005865Y-65073329D01*
X91013548Y-65075000D01*
X91514884Y-65075000D01*
X91530123Y-65070525D01*
X91531328Y-65069135D01*
X91532999Y-65061452D01*
X91532999Y-64946295D01*
X91532736Y-64940546D01*
X91526868Y-64876685D01*
X91524257Y-64863649D01*
X91477285Y-64713757D01*
X91471079Y-64700012D01*
X91390176Y-64566426D01*
X91380869Y-64554557D01*
X91270443Y-64444131D01*
X91258574Y-64434824D01*
X91124988Y-64353921D01*
X91111243Y-64347715D01*
X91017287Y-64318271D01*
X91003187Y-64318016D01*
X91000000Y-64324673D01*
X91000000Y-65056885D01*
X90273462Y-65056885D01*
X90268542Y-65010072D01*
X90256167Y-64971986D01*
X90250000Y-64933050D01*
X90250000Y-64330969D01*
X90246027Y-64317438D01*
X90238723Y-64316388D01*
X90138757Y-64347715D01*
X90125012Y-64353921D01*
X89995422Y-64432404D01*
X89926792Y-64450583D01*
X89856089Y-64426564D01*
X89837094Y-64412763D01*
X89837093Y-64412762D01*
X89831752Y-64408882D01*
X89825724Y-64406198D01*
X89825722Y-64406197D01*
X89663319Y-64333891D01*
X89663318Y-64333891D01*
X89657288Y-64331206D01*
X89563888Y-64311353D01*
X89476944Y-64292872D01*
X89476939Y-64292872D01*
X89470487Y-64291500D01*
X89279513Y-64291500D01*
X89273061Y-64292872D01*
X89273056Y-64292872D01*
X89186112Y-64311353D01*
X89092712Y-64331206D01*
X89086682Y-64333891D01*
X89086681Y-64333891D01*
X88924278Y-64406197D01*
X88924276Y-64406198D01*
X88918248Y-64408882D01*
X88912907Y-64412762D01*
X88912906Y-64412763D01*
X88824061Y-64477313D01*
X88757193Y-64501172D01*
X88688042Y-64485091D01*
X88675939Y-64477313D01*
X88587094Y-64412763D01*
X88587093Y-64412762D01*
X88581752Y-64408882D01*
X88575724Y-64406198D01*
X88575722Y-64406197D01*
X88413319Y-64333891D01*
X88413318Y-64333891D01*
X88407288Y-64331206D01*
X88313888Y-64311353D01*
X88226944Y-64292872D01*
X88226939Y-64292872D01*
X88220487Y-64291500D01*
X88029513Y-64291500D01*
X88023061Y-64292872D01*
X88023056Y-64292872D01*
X87936112Y-64311353D01*
X87842712Y-64331206D01*
X87836682Y-64333891D01*
X87836681Y-64333891D01*
X87674278Y-64406197D01*
X87674276Y-64406198D01*
X87668248Y-64408882D01*
X87662907Y-64412762D01*
X87662906Y-64412763D01*
X87574061Y-64477313D01*
X87507193Y-64501172D01*
X87438042Y-64485091D01*
X87425939Y-64477313D01*
X87337094Y-64412763D01*
X87337093Y-64412762D01*
X87331752Y-64408882D01*
X87325724Y-64406198D01*
X87325722Y-64406197D01*
X87163319Y-64333891D01*
X87163318Y-64333891D01*
X87157288Y-64331206D01*
X87063888Y-64311353D01*
X86976944Y-64292872D01*
X86976939Y-64292872D01*
X86970487Y-64291500D01*
X86779513Y-64291500D01*
X86773061Y-64292872D01*
X86773056Y-64292872D01*
X86686112Y-64311353D01*
X86592712Y-64331206D01*
X86586682Y-64333891D01*
X86586681Y-64333891D01*
X86424278Y-64406197D01*
X86424276Y-64406198D01*
X86418248Y-64408882D01*
X86263747Y-64521134D01*
X86135960Y-64663056D01*
X86040473Y-64828444D01*
X85981458Y-65010072D01*
X85966500Y-65152390D01*
X85966500Y-65747610D01*
X73263022Y-65747610D01*
X73414175Y-65627162D01*
X73724082Y-65331525D01*
X73725919Y-65329431D01*
X73725927Y-65329422D01*
X73975113Y-65045279D01*
X74006482Y-65009510D01*
X74033896Y-64971986D01*
X74257490Y-64665923D01*
X74259139Y-64663666D01*
X74260585Y-64661265D01*
X74478601Y-64299142D01*
X74478606Y-64299133D01*
X74480052Y-64296731D01*
X74667471Y-63911611D01*
X74800724Y-63561741D01*
X74818918Y-63513971D01*
X74818920Y-63513964D01*
X74819914Y-63511355D01*
X74936173Y-63099132D01*
X74936689Y-63096389D01*
X75014811Y-62680954D01*
X75014813Y-62680942D01*
X75015327Y-62678207D01*
X75056750Y-62251911D01*
X75060164Y-62121556D01*
X75063289Y-62002234D01*
X75063289Y-62002220D01*
X75063347Y-62000000D01*
X75052213Y-61750000D01*
X75336496Y-61750000D01*
X75337186Y-61756565D01*
X75349234Y-61871191D01*
X75356458Y-61939928D01*
X75415473Y-62121556D01*
X75510960Y-62286944D01*
X75638747Y-62428866D01*
X75793248Y-62541118D01*
X75799276Y-62543802D01*
X75799278Y-62543803D01*
X75959799Y-62615271D01*
X75967712Y-62618794D01*
X76061113Y-62638647D01*
X76148056Y-62657128D01*
X76148061Y-62657128D01*
X76154513Y-62658500D01*
X76345487Y-62658500D01*
X76351939Y-62657128D01*
X76351944Y-62657128D01*
X76438887Y-62638647D01*
X76532288Y-62618794D01*
X76540201Y-62615271D01*
X76700722Y-62543803D01*
X76700724Y-62543802D01*
X76706752Y-62541118D01*
X76861253Y-62428866D01*
X76989040Y-62286944D01*
X77010370Y-62250000D01*
X106086496Y-62250000D01*
X106087186Y-62256565D01*
X106092278Y-62305008D01*
X106106458Y-62439928D01*
X106165473Y-62621556D01*
X106168776Y-62627278D01*
X106168777Y-62627279D01*
X106186803Y-62658500D01*
X106260960Y-62786944D01*
X106265378Y-62791851D01*
X106265379Y-62791852D01*
X106384325Y-62923955D01*
X106388747Y-62928866D01*
X106543248Y-63041118D01*
X106549276Y-63043802D01*
X106549278Y-63043803D01*
X106711681Y-63116109D01*
X106717712Y-63118794D01*
X106811112Y-63138647D01*
X106898056Y-63157128D01*
X106898061Y-63157128D01*
X106904513Y-63158500D01*
X107095487Y-63158500D01*
X107101939Y-63157128D01*
X107101944Y-63157128D01*
X107188888Y-63138647D01*
X107282288Y-63118794D01*
X107288319Y-63116109D01*
X107450722Y-63043803D01*
X107450724Y-63043802D01*
X107456752Y-63041118D01*
X107611253Y-62928866D01*
X107615675Y-62923955D01*
X107734621Y-62791852D01*
X107734622Y-62791851D01*
X107739040Y-62786944D01*
X107813197Y-62658500D01*
X107831223Y-62627279D01*
X107831224Y-62627278D01*
X107834527Y-62621556D01*
X107893542Y-62439928D01*
X107907723Y-62305008D01*
X107912814Y-62256565D01*
X107913504Y-62250000D01*
X107893542Y-62060072D01*
X107834527Y-61878444D01*
X107830340Y-61871191D01*
X107764160Y-61756565D01*
X107739040Y-61713056D01*
X107611253Y-61571134D01*
X107475753Y-61472687D01*
X107462094Y-61462763D01*
X107462093Y-61462762D01*
X107456752Y-61458882D01*
X107450724Y-61456198D01*
X107450722Y-61456197D01*
X107288319Y-61383891D01*
X107288318Y-61383891D01*
X107282288Y-61381206D01*
X107188888Y-61361353D01*
X107101944Y-61342872D01*
X107101939Y-61342872D01*
X107095487Y-61341500D01*
X106904513Y-61341500D01*
X106898061Y-61342872D01*
X106898056Y-61342872D01*
X106811112Y-61361353D01*
X106717712Y-61381206D01*
X106711682Y-61383891D01*
X106711681Y-61383891D01*
X106549278Y-61456197D01*
X106549276Y-61456198D01*
X106543248Y-61458882D01*
X106537907Y-61462762D01*
X106537906Y-61462763D01*
X106524247Y-61472687D01*
X106388747Y-61571134D01*
X106260960Y-61713056D01*
X106235840Y-61756565D01*
X106169661Y-61871191D01*
X106165473Y-61878444D01*
X106106458Y-62060072D01*
X106086496Y-62250000D01*
X77010370Y-62250000D01*
X77084527Y-62121556D01*
X77143542Y-61939928D01*
X77150767Y-61871191D01*
X77162814Y-61756565D01*
X77163504Y-61750000D01*
X77145104Y-61574929D01*
X77144232Y-61566635D01*
X77144232Y-61566633D01*
X77143542Y-61560072D01*
X77084527Y-61378444D01*
X77063990Y-61342872D01*
X77028398Y-61281226D01*
X76989040Y-61213056D01*
X76958887Y-61179567D01*
X76865675Y-61076045D01*
X76865674Y-61076044D01*
X76861253Y-61071134D01*
X76706752Y-60958882D01*
X76700724Y-60956198D01*
X76700722Y-60956197D01*
X76538319Y-60883891D01*
X76538318Y-60883891D01*
X76532288Y-60881206D01*
X76438888Y-60861353D01*
X76351944Y-60842872D01*
X76351939Y-60842872D01*
X76345487Y-60841500D01*
X76154513Y-60841500D01*
X76148061Y-60842872D01*
X76148056Y-60842872D01*
X76061112Y-60861353D01*
X75967712Y-60881206D01*
X75961682Y-60883891D01*
X75961681Y-60883891D01*
X75799278Y-60956197D01*
X75799276Y-60956198D01*
X75793248Y-60958882D01*
X75638747Y-61071134D01*
X75634326Y-61076044D01*
X75634325Y-61076045D01*
X75541114Y-61179567D01*
X75510960Y-61213056D01*
X75471602Y-61281226D01*
X75436011Y-61342872D01*
X75415473Y-61378444D01*
X75356458Y-61560072D01*
X75355768Y-61566633D01*
X75355768Y-61566635D01*
X75354896Y-61574929D01*
X75336496Y-61750000D01*
X75052213Y-61750000D01*
X75044291Y-61572121D01*
X75041830Y-61553794D01*
X74998869Y-61233949D01*
X74987275Y-61147630D01*
X74981376Y-61121556D01*
X74897301Y-60750000D01*
X97086496Y-60750000D01*
X97106458Y-60939928D01*
X97165473Y-61121556D01*
X97168776Y-61127278D01*
X97168777Y-61127279D01*
X97186803Y-61158500D01*
X97260960Y-61286944D01*
X97388747Y-61428866D01*
X97435402Y-61462763D01*
X97525489Y-61528215D01*
X97543248Y-61541118D01*
X97549276Y-61543802D01*
X97549278Y-61543803D01*
X97648109Y-61587805D01*
X97717712Y-61618794D01*
X97811113Y-61638647D01*
X97898056Y-61657128D01*
X97898061Y-61657128D01*
X97904513Y-61658500D01*
X98095487Y-61658500D01*
X98101939Y-61657128D01*
X98101944Y-61657128D01*
X98188887Y-61638647D01*
X98282288Y-61618794D01*
X98351891Y-61587805D01*
X98450722Y-61543803D01*
X98450724Y-61543802D01*
X98456752Y-61541118D01*
X98474512Y-61528215D01*
X98564598Y-61462763D01*
X98611253Y-61428866D01*
X98739040Y-61286944D01*
X98813197Y-61158500D01*
X98831223Y-61127279D01*
X98831224Y-61127278D01*
X98834527Y-61121556D01*
X98893542Y-60939928D01*
X98913504Y-60750000D01*
X99586496Y-60750000D01*
X99606458Y-60939928D01*
X99665473Y-61121556D01*
X99668776Y-61127278D01*
X99668777Y-61127279D01*
X99686803Y-61158500D01*
X99760960Y-61286944D01*
X99888747Y-61428866D01*
X99935402Y-61462763D01*
X100025489Y-61528215D01*
X100043248Y-61541118D01*
X100049276Y-61543802D01*
X100049278Y-61543803D01*
X100148109Y-61587805D01*
X100217712Y-61618794D01*
X100311113Y-61638647D01*
X100398056Y-61657128D01*
X100398061Y-61657128D01*
X100404513Y-61658500D01*
X100595487Y-61658500D01*
X100601939Y-61657128D01*
X100601944Y-61657128D01*
X100688887Y-61638647D01*
X100782288Y-61618794D01*
X100851891Y-61587805D01*
X100950722Y-61543803D01*
X100950724Y-61543802D01*
X100956752Y-61541118D01*
X100974512Y-61528215D01*
X101050939Y-61472687D01*
X101117807Y-61448828D01*
X101186958Y-61464909D01*
X101199061Y-61472687D01*
X101275489Y-61528215D01*
X101293248Y-61541118D01*
X101299276Y-61543802D01*
X101299278Y-61543803D01*
X101398109Y-61587805D01*
X101467712Y-61618794D01*
X101561113Y-61638647D01*
X101648056Y-61657128D01*
X101648061Y-61657128D01*
X101654513Y-61658500D01*
X101845487Y-61658500D01*
X101851939Y-61657128D01*
X101851944Y-61657128D01*
X101938887Y-61638647D01*
X102032288Y-61618794D01*
X102101891Y-61587805D01*
X102200722Y-61543803D01*
X102200724Y-61543802D01*
X102206752Y-61541118D01*
X102224512Y-61528215D01*
X102314598Y-61462763D01*
X102361253Y-61428866D01*
X102489040Y-61286944D01*
X102563197Y-61158500D01*
X102581223Y-61127279D01*
X102581224Y-61127278D01*
X102584527Y-61121556D01*
X102643542Y-60939928D01*
X102663504Y-60750000D01*
X102649344Y-60615271D01*
X102644232Y-60566635D01*
X102644232Y-60566633D01*
X102643542Y-60560072D01*
X102584527Y-60378444D01*
X102489040Y-60213056D01*
X102361253Y-60071134D01*
X102206752Y-59958882D01*
X102200724Y-59956198D01*
X102200722Y-59956197D01*
X102038319Y-59883891D01*
X102038318Y-59883891D01*
X102032288Y-59881206D01*
X101938887Y-59861353D01*
X101851944Y-59842872D01*
X101851939Y-59842872D01*
X101845487Y-59841500D01*
X101654513Y-59841500D01*
X101648061Y-59842872D01*
X101648056Y-59842872D01*
X101561113Y-59861353D01*
X101467712Y-59881206D01*
X101461682Y-59883891D01*
X101461681Y-59883891D01*
X101299278Y-59956197D01*
X101299276Y-59956198D01*
X101293248Y-59958882D01*
X101287907Y-59962762D01*
X101287906Y-59962763D01*
X101199061Y-60027313D01*
X101132193Y-60051172D01*
X101063042Y-60035091D01*
X101050939Y-60027313D01*
X100962094Y-59962763D01*
X100962093Y-59962762D01*
X100956752Y-59958882D01*
X100950724Y-59956198D01*
X100950722Y-59956197D01*
X100788319Y-59883891D01*
X100788318Y-59883891D01*
X100782288Y-59881206D01*
X100688887Y-59861353D01*
X100601944Y-59842872D01*
X100601939Y-59842872D01*
X100595487Y-59841500D01*
X100404513Y-59841500D01*
X100398061Y-59842872D01*
X100398056Y-59842872D01*
X100311113Y-59861353D01*
X100217712Y-59881206D01*
X100211682Y-59883891D01*
X100211681Y-59883891D01*
X100049278Y-59956197D01*
X100049276Y-59956198D01*
X100043248Y-59958882D01*
X99888747Y-60071134D01*
X99760960Y-60213056D01*
X99665473Y-60378444D01*
X99606458Y-60560072D01*
X99605768Y-60566633D01*
X99605768Y-60566635D01*
X99600656Y-60615271D01*
X99586496Y-60750000D01*
X98913504Y-60750000D01*
X98899344Y-60615271D01*
X98894232Y-60566635D01*
X98894232Y-60566633D01*
X98893542Y-60560072D01*
X98834527Y-60378444D01*
X98739040Y-60213056D01*
X98611253Y-60071134D01*
X98456752Y-59958882D01*
X98450724Y-59956198D01*
X98450722Y-59956197D01*
X98288319Y-59883891D01*
X98288318Y-59883891D01*
X98282288Y-59881206D01*
X98188887Y-59861353D01*
X98101944Y-59842872D01*
X98101939Y-59842872D01*
X98095487Y-59841500D01*
X97904513Y-59841500D01*
X97898061Y-59842872D01*
X97898056Y-59842872D01*
X97811113Y-59861353D01*
X97717712Y-59881206D01*
X97711682Y-59883891D01*
X97711681Y-59883891D01*
X97549278Y-59956197D01*
X97549276Y-59956198D01*
X97543248Y-59958882D01*
X97388747Y-60071134D01*
X97260960Y-60213056D01*
X97165473Y-60378444D01*
X97106458Y-60560072D01*
X97105768Y-60566633D01*
X97105768Y-60566635D01*
X97100656Y-60615271D01*
X97086496Y-60750000D01*
X74897301Y-60750000D01*
X74893368Y-60732618D01*
X74893368Y-60732617D01*
X74892750Y-60729887D01*
X74840178Y-60566635D01*
X74762318Y-60324856D01*
X74762316Y-60324849D01*
X74761463Y-60322202D01*
X74622884Y-59994937D01*
X74595550Y-59930384D01*
X74595548Y-59930379D01*
X74594456Y-59927801D01*
X74393050Y-59549807D01*
X74391516Y-59547458D01*
X74160381Y-59193573D01*
X74160378Y-59193569D01*
X74158840Y-59191214D01*
X73893680Y-58854860D01*
X73599670Y-58543409D01*
X73597579Y-58541556D01*
X73597571Y-58541548D01*
X73281237Y-58261188D01*
X73281235Y-58261186D01*
X73279137Y-58259327D01*
X72934621Y-58004863D01*
X72741733Y-57887355D01*
X72571237Y-57783487D01*
X72571230Y-57783483D01*
X72568848Y-57782032D01*
X72451514Y-57724169D01*
X72382555Y-57690163D01*
X72184714Y-57592598D01*
X71785262Y-57438062D01*
X71538678Y-57367122D01*
X71376335Y-57320417D01*
X71376329Y-57320415D01*
X71373654Y-57319646D01*
X71370917Y-57319117D01*
X71370911Y-57319115D01*
X71056092Y-57258206D01*
X70993011Y-57225628D01*
X70957557Y-57164118D01*
X70960985Y-57093205D01*
X71002209Y-57035402D01*
X71068138Y-57009062D01*
X71080026Y-57008500D01*
X114427100Y-57008500D01*
X114495221Y-57028502D01*
G37*
%TD.AperFunction*%
%TD*%
M02*
