%TF.GenerationSoftware,KiCad,Pcbnew,(6.0.7)*%
%TF.CreationDate,2022-09-22T19:59:32-07:00*%
%TF.ProjectId,STM32F4_rev2,53544d33-3246-4345-9f72-6576322e6b69,rev?*%
%TF.SameCoordinates,Original*%
%TF.FileFunction,Copper,L4,Bot*%
%TF.FilePolarity,Positive*%
%FSLAX46Y46*%
G04 Gerber Fmt 4.6, Leading zero omitted, Abs format (unit mm)*
G04 Created by KiCad (PCBNEW (6.0.7)) date 2022-09-22 19:59:32*
%MOMM*%
%LPD*%
G01*
G04 APERTURE LIST*
G04 Aperture macros list*
%AMRoundRect*
0 Rectangle with rounded corners*
0 $1 Rounding radius*
0 $2 $3 $4 $5 $6 $7 $8 $9 X,Y pos of 4 corners*
0 Add a 4 corners polygon primitive as box body*
4,1,4,$2,$3,$4,$5,$6,$7,$8,$9,$2,$3,0*
0 Add four circle primitives for the rounded corners*
1,1,$1+$1,$2,$3*
1,1,$1+$1,$4,$5*
1,1,$1+$1,$6,$7*
1,1,$1+$1,$8,$9*
0 Add four rect primitives between the rounded corners*
20,1,$1+$1,$2,$3,$4,$5,0*
20,1,$1+$1,$4,$5,$6,$7,0*
20,1,$1+$1,$6,$7,$8,$9,0*
20,1,$1+$1,$8,$9,$2,$3,0*%
G04 Aperture macros list end*
%TA.AperFunction,ComponentPad*%
%ADD10C,0.900000*%
%TD*%
%TA.AperFunction,ComponentPad*%
%ADD11C,8.600000*%
%TD*%
%TA.AperFunction,ComponentPad*%
%ADD12RoundRect,0.200000X0.200000X0.450000X-0.200000X0.450000X-0.200000X-0.450000X0.200000X-0.450000X0*%
%TD*%
%TA.AperFunction,ComponentPad*%
%ADD13O,0.800000X1.300000*%
%TD*%
%TA.AperFunction,ComponentPad*%
%ADD14O,1.700000X1.350000*%
%TD*%
%TA.AperFunction,ComponentPad*%
%ADD15O,1.500000X1.100000*%
%TD*%
%TA.AperFunction,ComponentPad*%
%ADD16RoundRect,0.200000X-0.200000X-0.450000X0.200000X-0.450000X0.200000X0.450000X-0.200000X0.450000X0*%
%TD*%
%TA.AperFunction,ComponentPad*%
%ADD17R,2.400000X2.400000*%
%TD*%
%TA.AperFunction,ComponentPad*%
%ADD18C,2.400000*%
%TD*%
%TA.AperFunction,ViaPad*%
%ADD19C,0.800000*%
%TD*%
%TA.AperFunction,Conductor*%
%ADD20C,0.300000*%
%TD*%
G04 APERTURE END LIST*
D10*
%TO.P,H2,1,1*%
%TO.N,GND*%
X115250000Y-107225000D03*
X112025000Y-104000000D03*
X112969581Y-101719581D03*
X117530419Y-101719581D03*
X115250000Y-100775000D03*
X117530419Y-106280419D03*
X112969581Y-106280419D03*
X118475000Y-104000000D03*
D11*
X115250000Y-104000000D03*
%TD*%
D12*
%TO.P,J3,1,Pin_1*%
%TO.N,+3.3V*%
X90625000Y-65450000D03*
D13*
%TO.P,J3,2,Pin_2*%
%TO.N,I2C1_SCL*%
X89375000Y-65450000D03*
%TO.P,J3,3,Pin_3*%
%TO.N,I2C1_SDA*%
X88125000Y-65450000D03*
%TO.P,J3,4,Pin_4*%
%TO.N,GND*%
X86875000Y-65450000D03*
%TD*%
D14*
%TO.P,J5,6,Shield*%
%TO.N,unconnected-(J5-Pad6)*%
X118865000Y-80255000D03*
D15*
X115865000Y-75105000D03*
D14*
X118865000Y-74795000D03*
D15*
X115865000Y-79945000D03*
%TD*%
D10*
%TO.P,H3,1,1*%
%TO.N,GND*%
X70250000Y-65225000D03*
X67969581Y-64280419D03*
D11*
X70250000Y-62000000D03*
D10*
X72530419Y-59719581D03*
X73475000Y-62000000D03*
X72530419Y-64280419D03*
X70250000Y-58775000D03*
X67969581Y-59719581D03*
X67025000Y-62000000D03*
%TD*%
D16*
%TO.P,J4,1,Pin_1*%
%TO.N,+3.3V*%
X86875000Y-99050000D03*
D13*
%TO.P,J4,2,Pin_2*%
%TO.N,USART3_TX*%
X88125000Y-99050000D03*
%TO.P,J4,3,Pin_3*%
%TO.N,USART3_RX*%
X89375000Y-99050000D03*
%TO.P,J4,4,Pin_4*%
%TO.N,GND*%
X90625000Y-99050000D03*
%TD*%
D17*
%TO.P,J1,1,Pin_1*%
%TO.N,+12V*%
X115250000Y-95000000D03*
D18*
%TO.P,J1,2,Pin_2*%
%TO.N,GND*%
X115250000Y-91500000D03*
%TD*%
D10*
%TO.P,H4,1,1*%
%TO.N,GND*%
X112969581Y-64280419D03*
X115250000Y-65225000D03*
X112969581Y-59719581D03*
X112025000Y-62000000D03*
X117530419Y-59719581D03*
D11*
X115250000Y-62000000D03*
D10*
X118475000Y-62000000D03*
X115250000Y-58775000D03*
X117530419Y-64280419D03*
%TD*%
D11*
%TO.P,H1,1,1*%
%TO.N,GND*%
X70250000Y-104000000D03*
D10*
X67969581Y-101719581D03*
X67025000Y-104000000D03*
X70250000Y-100775000D03*
X70250000Y-107225000D03*
X67969581Y-106280419D03*
X72530419Y-101719581D03*
X72530419Y-106280419D03*
X73475000Y-104000000D03*
%TD*%
D19*
%TO.N,NRST*%
X95750000Y-67250000D03*
X89500000Y-81000000D03*
%TO.N,GND*%
X101750000Y-60750000D03*
X76250000Y-61750000D03*
X76750000Y-103750000D03*
X97000000Y-78250000D03*
X94250000Y-76250000D03*
X76750000Y-89000000D03*
X77500000Y-83750000D03*
X78750000Y-83750000D03*
X82499478Y-90739668D03*
X94250000Y-89000000D03*
X93500000Y-90750000D03*
X90750000Y-96750000D03*
X100250000Y-102500000D03*
X100250000Y-99500000D03*
X105000000Y-98500000D03*
X115250000Y-98750000D03*
X111250000Y-99000000D03*
X111250000Y-95250000D03*
X101750000Y-89750000D03*
X106250000Y-88250000D03*
X110500000Y-88500000D03*
X115250000Y-88750000D03*
X108750000Y-75750000D03*
X114500000Y-76250000D03*
X110000000Y-60250000D03*
X107000000Y-62250000D03*
%TO.N,+3.3V*%
X104500000Y-62250000D03*
%TO.N,GND*%
X100500000Y-60750000D03*
X83750000Y-74250000D03*
X78500000Y-73750000D03*
X79250000Y-77250000D03*
X71250000Y-82000000D03*
X75500000Y-79750000D03*
X74000000Y-77000000D03*
X71250000Y-76000000D03*
%TO.N,+3.3V*%
X78750000Y-75250000D03*
X94000000Y-78250000D03*
X90000000Y-72000000D03*
X86000000Y-71000000D03*
X78250000Y-79250000D03*
X75250000Y-86250000D03*
X84500000Y-92000000D03*
X93000000Y-87750000D03*
X93750000Y-95000000D03*
X106500000Y-101750000D03*
X107000000Y-66750000D03*
%TO.N,GND*%
X98000000Y-60750000D03*
%TO.N,+3.3V*%
X71250000Y-71500000D03*
%TD*%
D20*
%TO.N,NRST*%
X89500000Y-76500000D02*
X89500000Y-81000000D01*
X95750000Y-67250000D02*
X95750000Y-70250000D01*
X95750000Y-70250000D02*
X89500000Y-76500000D01*
%TD*%
M02*
