%TF.GenerationSoftware,KiCad,Pcbnew,(6.0.7)*%
%TF.CreationDate,2022-09-22T19:59:32-07:00*%
%TF.ProjectId,STM32F4_rev2,53544d33-3246-4345-9f72-6576322e6b69,rev?*%
%TF.SameCoordinates,Original*%
%TF.FileFunction,Copper,L1,Top*%
%TF.FilePolarity,Positive*%
%FSLAX46Y46*%
G04 Gerber Fmt 4.6, Leading zero omitted, Abs format (unit mm)*
G04 Created by KiCad (PCBNEW (6.0.7)) date 2022-09-22 19:59:32*
%MOMM*%
%LPD*%
G01*
G04 APERTURE LIST*
G04 Aperture macros list*
%AMRoundRect*
0 Rectangle with rounded corners*
0 $1 Rounding radius*
0 $2 $3 $4 $5 $6 $7 $8 $9 X,Y pos of 4 corners*
0 Add a 4 corners polygon primitive as box body*
4,1,4,$2,$3,$4,$5,$6,$7,$8,$9,$2,$3,0*
0 Add four circle primitives for the rounded corners*
1,1,$1+$1,$2,$3*
1,1,$1+$1,$4,$5*
1,1,$1+$1,$6,$7*
1,1,$1+$1,$8,$9*
0 Add four rect primitives between the rounded corners*
20,1,$1+$1,$2,$3,$4,$5,0*
20,1,$1+$1,$4,$5,$6,$7,0*
20,1,$1+$1,$6,$7,$8,$9,0*
20,1,$1+$1,$8,$9,$2,$3,0*%
G04 Aperture macros list end*
%TA.AperFunction,SMDPad,CuDef*%
%ADD10R,0.740000X2.400000*%
%TD*%
%TA.AperFunction,ComponentPad*%
%ADD11C,0.900000*%
%TD*%
%TA.AperFunction,ComponentPad*%
%ADD12C,8.600000*%
%TD*%
%TA.AperFunction,SMDPad,CuDef*%
%ADD13RoundRect,0.150000X-0.150000X0.587500X-0.150000X-0.587500X0.150000X-0.587500X0.150000X0.587500X0*%
%TD*%
%TA.AperFunction,SMDPad,CuDef*%
%ADD14R,0.900000X1.200000*%
%TD*%
%TA.AperFunction,SMDPad,CuDef*%
%ADD15RoundRect,0.135000X0.135000X0.185000X-0.135000X0.185000X-0.135000X-0.185000X0.135000X-0.185000X0*%
%TD*%
%TA.AperFunction,ComponentPad*%
%ADD16RoundRect,0.200000X0.200000X0.450000X-0.200000X0.450000X-0.200000X-0.450000X0.200000X-0.450000X0*%
%TD*%
%TA.AperFunction,ComponentPad*%
%ADD17O,0.800000X1.300000*%
%TD*%
%TA.AperFunction,SMDPad,CuDef*%
%ADD18R,1.650000X0.400000*%
%TD*%
%TA.AperFunction,SMDPad,CuDef*%
%ADD19R,1.500000X2.000000*%
%TD*%
%TA.AperFunction,ComponentPad*%
%ADD20O,1.700000X1.350000*%
%TD*%
%TA.AperFunction,ComponentPad*%
%ADD21O,1.500000X1.100000*%
%TD*%
%TA.AperFunction,SMDPad,CuDef*%
%ADD22R,2.500000X1.430000*%
%TD*%
%TA.AperFunction,SMDPad,CuDef*%
%ADD23R,2.000000X1.350000*%
%TD*%
%TA.AperFunction,SMDPad,CuDef*%
%ADD24R,0.700000X1.825000*%
%TD*%
%TA.AperFunction,SMDPad,CuDef*%
%ADD25RoundRect,0.218750X0.218750X0.256250X-0.218750X0.256250X-0.218750X-0.256250X0.218750X-0.256250X0*%
%TD*%
%TA.AperFunction,SMDPad,CuDef*%
%ADD26RoundRect,0.140000X0.170000X-0.140000X0.170000X0.140000X-0.170000X0.140000X-0.170000X-0.140000X0*%
%TD*%
%TA.AperFunction,SMDPad,CuDef*%
%ADD27RoundRect,0.200000X0.200000X0.275000X-0.200000X0.275000X-0.200000X-0.275000X0.200000X-0.275000X0*%
%TD*%
%TA.AperFunction,SMDPad,CuDef*%
%ADD28RoundRect,0.200000X0.275000X-0.200000X0.275000X0.200000X-0.275000X0.200000X-0.275000X-0.200000X0*%
%TD*%
%TA.AperFunction,SMDPad,CuDef*%
%ADD29RoundRect,0.135000X-0.135000X-0.185000X0.135000X-0.185000X0.135000X0.185000X-0.135000X0.185000X0*%
%TD*%
%TA.AperFunction,SMDPad,CuDef*%
%ADD30RoundRect,0.140000X-0.140000X-0.170000X0.140000X-0.170000X0.140000X0.170000X-0.140000X0.170000X0*%
%TD*%
%TA.AperFunction,SMDPad,CuDef*%
%ADD31RoundRect,0.150000X0.512500X0.150000X-0.512500X0.150000X-0.512500X-0.150000X0.512500X-0.150000X0*%
%TD*%
%TA.AperFunction,SMDPad,CuDef*%
%ADD32R,0.800000X1.000000*%
%TD*%
%TA.AperFunction,SMDPad,CuDef*%
%ADD33R,1.500000X0.700000*%
%TD*%
%TA.AperFunction,SMDPad,CuDef*%
%ADD34RoundRect,0.225000X0.250000X-0.225000X0.250000X0.225000X-0.250000X0.225000X-0.250000X-0.225000X0*%
%TD*%
%TA.AperFunction,SMDPad,CuDef*%
%ADD35RoundRect,0.225000X-0.225000X-0.250000X0.225000X-0.250000X0.225000X0.250000X-0.225000X0.250000X0*%
%TD*%
%TA.AperFunction,ComponentPad*%
%ADD36RoundRect,0.200000X-0.200000X-0.450000X0.200000X-0.450000X0.200000X0.450000X-0.200000X0.450000X0*%
%TD*%
%TA.AperFunction,SMDPad,CuDef*%
%ADD37RoundRect,0.250000X0.375000X0.625000X-0.375000X0.625000X-0.375000X-0.625000X0.375000X-0.625000X0*%
%TD*%
%TA.AperFunction,SMDPad,CuDef*%
%ADD38RoundRect,0.218750X0.256250X-0.218750X0.256250X0.218750X-0.256250X0.218750X-0.256250X-0.218750X0*%
%TD*%
%TA.AperFunction,SMDPad,CuDef*%
%ADD39R,1.200000X1.400000*%
%TD*%
%TA.AperFunction,ComponentPad*%
%ADD40R,2.400000X2.400000*%
%TD*%
%TA.AperFunction,ComponentPad*%
%ADD41C,2.400000*%
%TD*%
%TA.AperFunction,SMDPad,CuDef*%
%ADD42RoundRect,0.140000X0.140000X0.170000X-0.140000X0.170000X-0.140000X-0.170000X0.140000X-0.170000X0*%
%TD*%
%TA.AperFunction,SMDPad,CuDef*%
%ADD43R,1.900000X2.500000*%
%TD*%
%TA.AperFunction,SMDPad,CuDef*%
%ADD44RoundRect,0.147500X-0.147500X-0.172500X0.147500X-0.172500X0.147500X0.172500X-0.147500X0.172500X0*%
%TD*%
%TA.AperFunction,SMDPad,CuDef*%
%ADD45RoundRect,0.200000X-0.275000X0.200000X-0.275000X-0.200000X0.275000X-0.200000X0.275000X0.200000X0*%
%TD*%
%TA.AperFunction,SMDPad,CuDef*%
%ADD46RoundRect,0.250000X-0.325000X-0.650000X0.325000X-0.650000X0.325000X0.650000X-0.325000X0.650000X0*%
%TD*%
%TA.AperFunction,SMDPad,CuDef*%
%ADD47RoundRect,0.218750X-0.381250X0.218750X-0.381250X-0.218750X0.381250X-0.218750X0.381250X0.218750X0*%
%TD*%
%TA.AperFunction,SMDPad,CuDef*%
%ADD48RoundRect,0.250000X0.650000X-0.325000X0.650000X0.325000X-0.650000X0.325000X-0.650000X-0.325000X0*%
%TD*%
%TA.AperFunction,SMDPad,CuDef*%
%ADD49RoundRect,0.225000X-0.250000X0.225000X-0.250000X-0.225000X0.250000X-0.225000X0.250000X0.225000X0*%
%TD*%
%TA.AperFunction,SMDPad,CuDef*%
%ADD50RoundRect,0.075000X-0.700000X-0.075000X0.700000X-0.075000X0.700000X0.075000X-0.700000X0.075000X0*%
%TD*%
%TA.AperFunction,SMDPad,CuDef*%
%ADD51RoundRect,0.075000X-0.075000X-0.700000X0.075000X-0.700000X0.075000X0.700000X-0.075000X0.700000X0*%
%TD*%
%TA.AperFunction,SMDPad,CuDef*%
%ADD52RoundRect,0.150000X0.150000X-0.512500X0.150000X0.512500X-0.150000X0.512500X-0.150000X-0.512500X0*%
%TD*%
%TA.AperFunction,ViaPad*%
%ADD53C,0.800000*%
%TD*%
%TA.AperFunction,Conductor*%
%ADD54C,0.300000*%
%TD*%
%TA.AperFunction,Conductor*%
%ADD55C,0.750000*%
%TD*%
%TA.AperFunction,Conductor*%
%ADD56C,0.500000*%
%TD*%
%TA.AperFunction,Conductor*%
%ADD57C,1.000000*%
%TD*%
%TA.AperFunction,Conductor*%
%ADD58C,0.260350*%
%TD*%
G04 APERTURE END LIST*
D10*
%TO.P,J2,10,Pin_10*%
%TO.N,NRST*%
X97960000Y-66200000D03*
%TO.P,J2,9,Pin_9*%
%TO.N,GND*%
X97960000Y-62300000D03*
%TO.P,J2,8,Pin_8*%
%TO.N,unconnected-(J2-Pad8)*%
X99230000Y-66200000D03*
%TO.P,J2,7,Pin_7*%
%TO.N,unconnected-(J2-Pad7)*%
X99230000Y-62300000D03*
%TO.P,J2,6,Pin_6*%
%TO.N,SWO*%
X100500000Y-66200000D03*
%TO.P,J2,5,Pin_5*%
%TO.N,GND*%
X100500000Y-62300000D03*
%TO.P,J2,4,Pin_4*%
%TO.N,SWCLK*%
X101770000Y-66200000D03*
%TO.P,J2,3,Pin_3*%
%TO.N,GND*%
X101770000Y-62300000D03*
%TO.P,J2,2,Pin_2*%
%TO.N,SWDIO*%
X103040000Y-66200000D03*
%TO.P,J2,1,Pin_1*%
%TO.N,+3.3V*%
X103040000Y-62300000D03*
%TD*%
D11*
%TO.P,H2,1,1*%
%TO.N,GND*%
X115250000Y-107225000D03*
X112025000Y-104000000D03*
X112969581Y-101719581D03*
X117530419Y-101719581D03*
X115250000Y-100775000D03*
X117530419Y-106280419D03*
X112969581Y-106280419D03*
X118475000Y-104000000D03*
D12*
X115250000Y-104000000D03*
%TD*%
D13*
%TO.P,Q1,1,G*%
%TO.N,GND*%
X110450000Y-90312500D03*
%TO.P,Q1,2,S*%
%TO.N,Net-(D1-Pad1)*%
X108550000Y-90312500D03*
%TO.P,Q1,3,D*%
%TO.N,+12V*%
X109500000Y-92187500D03*
%TD*%
D14*
%TO.P,D2,1,K*%
%TO.N,BUCK_SW*%
X97050000Y-89750000D03*
%TO.P,D2,2,A*%
%TO.N,GND*%
X100350000Y-89750000D03*
%TD*%
D15*
%TO.P,R8,1*%
%TO.N,HSE_OUT*%
X78510000Y-81750000D03*
%TO.P,R8,2*%
%TO.N,Net-(C16-Pad1)*%
X77490000Y-81750000D03*
%TD*%
D16*
%TO.P,J3,1,Pin_1*%
%TO.N,+3.3V*%
X90625000Y-65450000D03*
D17*
%TO.P,J3,2,Pin_2*%
%TO.N,I2C1_SCL*%
X89375000Y-65450000D03*
%TO.P,J3,3,Pin_3*%
%TO.N,I2C1_SDA*%
X88125000Y-65450000D03*
%TO.P,J3,4,Pin_4*%
%TO.N,GND*%
X86875000Y-65450000D03*
%TD*%
D18*
%TO.P,J5,1,VBUS*%
%TO.N,+5V*%
X115985000Y-78825000D03*
%TO.P,J5,2,D-*%
%TO.N,USB_CONN_D-*%
X115985000Y-78175000D03*
%TO.P,J5,3,D+*%
%TO.N,USB_CONN_D+*%
X115985000Y-77525000D03*
%TO.P,J5,4,ID*%
%TO.N,unconnected-(J5-Pad4)*%
X115985000Y-76875000D03*
%TO.P,J5,5,GND*%
%TO.N,GND*%
X115985000Y-76225000D03*
D19*
%TO.P,J5,6,Shield*%
%TO.N,unconnected-(J5-Pad6)*%
X115885000Y-80375000D03*
D20*
X118865000Y-80255000D03*
D21*
X115865000Y-75105000D03*
D22*
X119135000Y-78485000D03*
D23*
X117935000Y-80255000D03*
X117935000Y-74775000D03*
D22*
X119135000Y-76565000D03*
D20*
X118865000Y-74795000D03*
D19*
X115865000Y-74625000D03*
D24*
X117185000Y-80475000D03*
X117185000Y-74525000D03*
D21*
X115865000Y-79945000D03*
%TD*%
D25*
%TO.P,D3,1,K*%
%TO.N,Net-(D3-Pad1)*%
X108537500Y-65500000D03*
%TO.P,D3,2,A*%
%TO.N,+3.3V*%
X106962500Y-65500000D03*
%TD*%
D26*
%TO.P,C12,1*%
%TO.N,+3.3VA*%
X78750000Y-85730000D03*
%TO.P,C12,2*%
%TO.N,GND*%
X78750000Y-84770000D03*
%TD*%
D27*
%TO.P,R6,1*%
%TO.N,Net-(D3-Pad1)*%
X108575000Y-63500000D03*
%TO.P,R6,2*%
%TO.N,GND*%
X106925000Y-63500000D03*
%TD*%
D28*
%TO.P,R5,1*%
%TO.N,Net-(R4-Pad2)*%
X110000000Y-100575000D03*
%TO.P,R5,2*%
%TO.N,GND*%
X110000000Y-98925000D03*
%TD*%
D15*
%TO.P,R7,1*%
%TO.N,BOOT0*%
X72760000Y-74500000D03*
%TO.P,R7,2*%
%TO.N,Net-(R7-Pad2)*%
X71740000Y-74500000D03*
%TD*%
D29*
%TO.P,R11,1*%
%TO.N,+3.3V*%
X85980000Y-72000000D03*
%TO.P,R11,2*%
%TO.N,I2C1_SDA*%
X87000000Y-72000000D03*
%TD*%
D30*
%TO.P,C8,1*%
%TO.N,+3.3V*%
X92270000Y-89000000D03*
%TO.P,C8,2*%
%TO.N,GND*%
X93230000Y-89000000D03*
%TD*%
D11*
%TO.P,H3,1,1*%
%TO.N,GND*%
X70250000Y-65225000D03*
X67969581Y-64280419D03*
D12*
X70250000Y-62000000D03*
D11*
X72530419Y-59719581D03*
X73475000Y-62000000D03*
X72530419Y-64280419D03*
X70250000Y-58775000D03*
X67969581Y-59719581D03*
X67025000Y-62000000D03*
%TD*%
D30*
%TO.P,C10,1*%
%TO.N,+3.3V*%
X83000000Y-75250000D03*
%TO.P,C10,2*%
%TO.N,GND*%
X83960000Y-75250000D03*
%TD*%
D14*
%TO.P,D1,1,K*%
%TO.N,Net-(D1-Pad1)*%
X108850000Y-86500000D03*
%TO.P,D1,2,A*%
%TO.N,+5V*%
X112150000Y-86500000D03*
%TD*%
D31*
%TO.P,U3,1,I/O1*%
%TO.N,USB_CONN_D-*%
X109887500Y-78950000D03*
%TO.P,U3,2,GND*%
%TO.N,GND*%
X109887500Y-78000000D03*
%TO.P,U3,3,I/O2*%
%TO.N,USB_CONN_D+*%
X109887500Y-77050000D03*
%TO.P,U3,4,I/O2*%
%TO.N,USB_D+*%
X107612500Y-77050000D03*
%TO.P,U3,5,VBUS*%
%TO.N,+5V*%
X107612500Y-78000000D03*
%TO.P,U3,6,I/O1*%
%TO.N,USB_D-*%
X107612500Y-78950000D03*
%TD*%
D32*
%TO.P,SW1,*%
%TO.N,*%
X66795000Y-70100000D03*
X66795000Y-77400000D03*
X69005000Y-70100000D03*
X69005000Y-77400000D03*
D33*
%TO.P,SW1,1,A*%
%TO.N,+3.3V*%
X69655000Y-71500000D03*
%TO.P,SW1,2,B*%
%TO.N,Net-(R7-Pad2)*%
X69655000Y-74500000D03*
%TO.P,SW1,3,C*%
%TO.N,GND*%
X69655000Y-76000000D03*
%TD*%
D34*
%TO.P,C5,1*%
%TO.N,+3.3V*%
X79750000Y-75275000D03*
%TO.P,C5,2*%
%TO.N,GND*%
X79750000Y-73725000D03*
%TD*%
D35*
%TO.P,C13,1*%
%TO.N,Net-(C13-Pad1)*%
X90725000Y-90750000D03*
%TO.P,C13,2*%
%TO.N,GND*%
X92275000Y-90750000D03*
%TD*%
D36*
%TO.P,J4,1,Pin_1*%
%TO.N,+3.3V*%
X86875000Y-99050000D03*
D17*
%TO.P,J4,2,Pin_2*%
%TO.N,USART3_TX*%
X88125000Y-99050000D03*
%TO.P,J4,3,Pin_3*%
%TO.N,USART3_RX*%
X89375000Y-99050000D03*
%TO.P,J4,4,Pin_4*%
%TO.N,GND*%
X90625000Y-99050000D03*
%TD*%
D37*
%TO.P,F1,1*%
%TO.N,Net-(D1-Pad1)*%
X106650000Y-86500000D03*
%TO.P,F1,2*%
%TO.N,Net-(F1-Pad2)*%
X103850000Y-86500000D03*
%TD*%
D38*
%TO.P,D4,1,K*%
%TO.N,Net-(D4-Pad1)*%
X80000000Y-90500000D03*
%TO.P,D4,2,A*%
%TO.N,LED_STATUS*%
X80000000Y-88925000D03*
%TD*%
D39*
%TO.P,Y1,1,1*%
%TO.N,HSE_IN*%
X72750000Y-79800000D03*
%TO.P,Y1,2,2*%
%TO.N,GND*%
X72750000Y-82000000D03*
%TO.P,Y1,3,3*%
%TO.N,Net-(C16-Pad1)*%
X74450000Y-82000000D03*
%TO.P,Y1,4,4*%
%TO.N,GND*%
X74450000Y-79800000D03*
%TD*%
D40*
%TO.P,J1,1,Pin_1*%
%TO.N,+12V*%
X115250000Y-95000000D03*
D41*
%TO.P,J1,2,Pin_2*%
%TO.N,GND*%
X115250000Y-91500000D03*
%TD*%
D42*
%TO.P,C7,1*%
%TO.N,+3.3V*%
X84460000Y-90750000D03*
%TO.P,C7,2*%
%TO.N,GND*%
X83500000Y-90750000D03*
%TD*%
D28*
%TO.P,R2,1*%
%TO.N,BUCK_EN*%
X110000000Y-96075000D03*
%TO.P,R2,2*%
%TO.N,GND*%
X110000000Y-94425000D03*
%TD*%
D15*
%TO.P,R10,1*%
%TO.N,+3.3V*%
X89010000Y-72000000D03*
%TO.P,R10,2*%
%TO.N,I2C1_SCL*%
X87990000Y-72000000D03*
%TD*%
D34*
%TO.P,C14,1*%
%TO.N,Net-(C14-Pad1)*%
X95250000Y-79775000D03*
%TO.P,C14,2*%
%TO.N,GND*%
X95250000Y-78225000D03*
%TD*%
D43*
%TO.P,L1,1*%
%TO.N,BUCK_SW*%
X99800000Y-95000000D03*
%TO.P,L1,2*%
%TO.N,+3.3V*%
X95700000Y-95000000D03*
%TD*%
D26*
%TO.P,C6,1*%
%TO.N,+3.3V*%
X79250000Y-79250000D03*
%TO.P,C6,2*%
%TO.N,GND*%
X79250000Y-78290000D03*
%TD*%
D30*
%TO.P,C15,1*%
%TO.N,HSE_IN*%
X73020000Y-78000000D03*
%TO.P,C15,2*%
%TO.N,GND*%
X73980000Y-78000000D03*
%TD*%
D44*
%TO.P,L2,1*%
%TO.N,+3.3V*%
X75265000Y-87250000D03*
%TO.P,L2,2*%
%TO.N,+3.3VA*%
X76235000Y-87250000D03*
%TD*%
D11*
%TO.P,H4,1,1*%
%TO.N,GND*%
X112969581Y-64280419D03*
X115250000Y-65225000D03*
X112969581Y-59719581D03*
X112025000Y-62000000D03*
X117530419Y-59719581D03*
D12*
X115250000Y-62000000D03*
D11*
X118475000Y-62000000D03*
X115250000Y-58775000D03*
X117530419Y-64280419D03*
%TD*%
D45*
%TO.P,R1,1*%
%TO.N,BUCK_IN*%
X108250000Y-94425000D03*
%TO.P,R1,2*%
%TO.N,BUCK_EN*%
X108250000Y-96075000D03*
%TD*%
D42*
%TO.P,C16,1*%
%TO.N,Net-(C16-Pad1)*%
X73980000Y-84000000D03*
%TO.P,C16,2*%
%TO.N,GND*%
X73020000Y-84000000D03*
%TD*%
D46*
%TO.P,C2,1*%
%TO.N,+3.3V*%
X95775000Y-99500000D03*
%TO.P,C2,2*%
%TO.N,GND*%
X98725000Y-99500000D03*
%TD*%
D47*
%TO.P,FB1,1*%
%TO.N,Net-(F1-Pad2)*%
X103700000Y-90437500D03*
%TO.P,FB1,2*%
%TO.N,BUCK_IN*%
X103700000Y-92562500D03*
%TD*%
D48*
%TO.P,C1,1*%
%TO.N,BUCK_IN*%
X105950000Y-92475000D03*
%TO.P,C1,2*%
%TO.N,GND*%
X105950000Y-89525000D03*
%TD*%
D49*
%TO.P,C4,1*%
%TO.N,BUCK_SW*%
X102450000Y-95475000D03*
%TO.P,C4,2*%
%TO.N,BUCK_BST*%
X102450000Y-97025000D03*
%TD*%
D26*
%TO.P,C9,1*%
%TO.N,+3.3V*%
X93250000Y-77960000D03*
%TO.P,C9,2*%
%TO.N,GND*%
X93250000Y-77000000D03*
%TD*%
D46*
%TO.P,C3,1*%
%TO.N,+3.3V*%
X95775000Y-102500000D03*
%TO.P,C3,2*%
%TO.N,GND*%
X98725000Y-102500000D03*
%TD*%
D50*
%TO.P,U2,1,VBAT*%
%TO.N,+3.3V*%
X81325000Y-79250000D03*
%TO.P,U2,2,PC13*%
%TO.N,unconnected-(U2-Pad2)*%
X81325000Y-79750000D03*
%TO.P,U2,3,PC14*%
%TO.N,unconnected-(U2-Pad3)*%
X81325000Y-80250000D03*
%TO.P,U2,4,PC15*%
%TO.N,unconnected-(U2-Pad4)*%
X81325000Y-80750000D03*
%TO.P,U2,5,PH0*%
%TO.N,HSE_IN*%
X81325000Y-81250000D03*
%TO.P,U2,6,PH1*%
%TO.N,HSE_OUT*%
X81325000Y-81750000D03*
%TO.P,U2,7,NRST*%
%TO.N,NRST*%
X81325000Y-82250000D03*
%TO.P,U2,8,PC0*%
%TO.N,unconnected-(U2-Pad8)*%
X81325000Y-82750000D03*
%TO.P,U2,9,PC1*%
%TO.N,unconnected-(U2-Pad9)*%
X81325000Y-83250000D03*
%TO.P,U2,10,PC2*%
%TO.N,unconnected-(U2-Pad10)*%
X81325000Y-83750000D03*
%TO.P,U2,11,PC3*%
%TO.N,unconnected-(U2-Pad11)*%
X81325000Y-84250000D03*
%TO.P,U2,12,VSSA*%
%TO.N,GND*%
X81325000Y-84750000D03*
%TO.P,U2,13,VDDA*%
%TO.N,+3.3VA*%
X81325000Y-85250000D03*
%TO.P,U2,14,PA0*%
%TO.N,unconnected-(U2-Pad14)*%
X81325000Y-85750000D03*
%TO.P,U2,15,PA1*%
%TO.N,unconnected-(U2-Pad15)*%
X81325000Y-86250000D03*
%TO.P,U2,16,PA2*%
%TO.N,LED_STATUS*%
X81325000Y-86750000D03*
D51*
%TO.P,U2,17,PA3*%
%TO.N,unconnected-(U2-Pad17)*%
X83250000Y-88675000D03*
%TO.P,U2,18,VSS*%
%TO.N,GND*%
X83750000Y-88675000D03*
%TO.P,U2,19,VDD*%
%TO.N,+3.3V*%
X84250000Y-88675000D03*
%TO.P,U2,20,PA4*%
%TO.N,unconnected-(U2-Pad20)*%
X84750000Y-88675000D03*
%TO.P,U2,21,PA5*%
%TO.N,unconnected-(U2-Pad21)*%
X85250000Y-88675000D03*
%TO.P,U2,22,PA6*%
%TO.N,unconnected-(U2-Pad22)*%
X85750000Y-88675000D03*
%TO.P,U2,23,PA7*%
%TO.N,unconnected-(U2-Pad23)*%
X86250000Y-88675000D03*
%TO.P,U2,24,PC4*%
%TO.N,unconnected-(U2-Pad24)*%
X86750000Y-88675000D03*
%TO.P,U2,25,PC5*%
%TO.N,unconnected-(U2-Pad25)*%
X87250000Y-88675000D03*
%TO.P,U2,26,PB0*%
%TO.N,unconnected-(U2-Pad26)*%
X87750000Y-88675000D03*
%TO.P,U2,27,PB1*%
%TO.N,unconnected-(U2-Pad27)*%
X88250000Y-88675000D03*
%TO.P,U2,28,PB2*%
%TO.N,unconnected-(U2-Pad28)*%
X88750000Y-88675000D03*
%TO.P,U2,29,PB10*%
%TO.N,USART3_TX*%
X89250000Y-88675000D03*
%TO.P,U2,30,PB11*%
%TO.N,USART3_RX*%
X89750000Y-88675000D03*
%TO.P,U2,31,VCAP_1*%
%TO.N,Net-(C13-Pad1)*%
X90250000Y-88675000D03*
%TO.P,U2,32,VDD*%
%TO.N,+3.3V*%
X90750000Y-88675000D03*
D50*
%TO.P,U2,33,PB12*%
%TO.N,unconnected-(U2-Pad33)*%
X92675000Y-86750000D03*
%TO.P,U2,34,PB13*%
%TO.N,unconnected-(U2-Pad34)*%
X92675000Y-86250000D03*
%TO.P,U2,35,PB14*%
%TO.N,unconnected-(U2-Pad35)*%
X92675000Y-85750000D03*
%TO.P,U2,36,PB15*%
%TO.N,unconnected-(U2-Pad36)*%
X92675000Y-85250000D03*
%TO.P,U2,37,PC6*%
%TO.N,unconnected-(U2-Pad37)*%
X92675000Y-84750000D03*
%TO.P,U2,38,PC7*%
%TO.N,unconnected-(U2-Pad38)*%
X92675000Y-84250000D03*
%TO.P,U2,39,PC8*%
%TO.N,unconnected-(U2-Pad39)*%
X92675000Y-83750000D03*
%TO.P,U2,40,PC9*%
%TO.N,unconnected-(U2-Pad40)*%
X92675000Y-83250000D03*
%TO.P,U2,41,PA8*%
%TO.N,unconnected-(U2-Pad41)*%
X92675000Y-82750000D03*
%TO.P,U2,42,PA9*%
%TO.N,unconnected-(U2-Pad42)*%
X92675000Y-82250000D03*
%TO.P,U2,43,PA10*%
%TO.N,unconnected-(U2-Pad43)*%
X92675000Y-81750000D03*
%TO.P,U2,44,PA11*%
%TO.N,USB_D-*%
X92675000Y-81250000D03*
%TO.P,U2,45,PA12*%
%TO.N,USB_D+*%
X92675000Y-80750000D03*
%TO.P,U2,46,PA13*%
%TO.N,SWDIO*%
X92675000Y-80250000D03*
%TO.P,U2,47,VCAP_2*%
%TO.N,Net-(C14-Pad1)*%
X92675000Y-79750000D03*
%TO.P,U2,48,VDD*%
%TO.N,+3.3V*%
X92675000Y-79250000D03*
D51*
%TO.P,U2,49,PA14*%
%TO.N,SWCLK*%
X90750000Y-77325000D03*
%TO.P,U2,50,PA15*%
%TO.N,unconnected-(U2-Pad50)*%
X90250000Y-77325000D03*
%TO.P,U2,51,PC10*%
%TO.N,unconnected-(U2-Pad51)*%
X89750000Y-77325000D03*
%TO.P,U2,52,PC11*%
%TO.N,unconnected-(U2-Pad52)*%
X89250000Y-77325000D03*
%TO.P,U2,53,PC12*%
%TO.N,unconnected-(U2-Pad53)*%
X88750000Y-77325000D03*
%TO.P,U2,54,PD2*%
%TO.N,unconnected-(U2-Pad54)*%
X88250000Y-77325000D03*
%TO.P,U2,55,PB3*%
%TO.N,SWO*%
X87750000Y-77325000D03*
%TO.P,U2,56,PB4*%
%TO.N,unconnected-(U2-Pad56)*%
X87250000Y-77325000D03*
%TO.P,U2,57,PB5*%
%TO.N,unconnected-(U2-Pad57)*%
X86750000Y-77325000D03*
%TO.P,U2,58,PB6*%
%TO.N,I2C1_SCL*%
X86250000Y-77325000D03*
%TO.P,U2,59,PB7*%
%TO.N,I2C1_SDA*%
X85750000Y-77325000D03*
%TO.P,U2,60,BOOT0*%
%TO.N,BOOT0*%
X85250000Y-77325000D03*
%TO.P,U2,61,PB8*%
%TO.N,unconnected-(U2-Pad61)*%
X84750000Y-77325000D03*
%TO.P,U2,62,PB9*%
%TO.N,unconnected-(U2-Pad62)*%
X84250000Y-77325000D03*
%TO.P,U2,63,VSS*%
%TO.N,GND*%
X83750000Y-77325000D03*
%TO.P,U2,64,VDD*%
%TO.N,+3.3V*%
X83250000Y-77325000D03*
%TD*%
D26*
%TO.P,C11,1*%
%TO.N,+3.3VA*%
X77500000Y-85710000D03*
%TO.P,C11,2*%
%TO.N,GND*%
X77500000Y-84750000D03*
%TD*%
D28*
%TO.P,R9,1*%
%TO.N,Net-(D4-Pad1)*%
X78000000Y-90575000D03*
%TO.P,R9,2*%
%TO.N,GND*%
X78000000Y-88925000D03*
%TD*%
D52*
%TO.P,U1,1,BST*%
%TO.N,BUCK_BST*%
X104500000Y-96887500D03*
%TO.P,U1,2,GND*%
%TO.N,GND*%
X105450000Y-96887500D03*
%TO.P,U1,3,FB*%
%TO.N,BUCK_FB*%
X106400000Y-96887500D03*
%TO.P,U1,4,EN*%
%TO.N,BUCK_EN*%
X106400000Y-94612500D03*
%TO.P,U1,5,IN*%
%TO.N,BUCK_IN*%
X105450000Y-94612500D03*
%TO.P,U1,6,SW*%
%TO.N,BUCK_SW*%
X104500000Y-94612500D03*
%TD*%
D12*
%TO.P,H1,1,1*%
%TO.N,GND*%
X70250000Y-104000000D03*
D11*
X67969581Y-101719581D03*
X67025000Y-104000000D03*
X70250000Y-100775000D03*
X70250000Y-107225000D03*
X67969581Y-106280419D03*
X72530419Y-101719581D03*
X72530419Y-106280419D03*
X73475000Y-104000000D03*
%TD*%
D45*
%TO.P,R4,1*%
%TO.N,BUCK_FB*%
X108250000Y-98925000D03*
%TO.P,R4,2*%
%TO.N,Net-(R4-Pad2)*%
X108250000Y-100575000D03*
%TD*%
D28*
%TO.P,R3,1*%
%TO.N,+3.3V*%
X106500000Y-100575000D03*
%TO.P,R3,2*%
%TO.N,BUCK_FB*%
X106500000Y-98925000D03*
%TD*%
D53*
%TO.N,NRST*%
X95750000Y-67250000D03*
X89500000Y-81000000D03*
%TO.N,GND*%
X101750000Y-60750000D03*
X76250000Y-61750000D03*
X76750000Y-103750000D03*
X97000000Y-78250000D03*
X94250000Y-76250000D03*
X76750000Y-89000000D03*
X77500000Y-83750000D03*
X78750000Y-83750000D03*
X82499478Y-90739668D03*
X94250000Y-89000000D03*
X93500000Y-90750000D03*
X90750000Y-96750000D03*
X100250000Y-102500000D03*
X100250000Y-99500000D03*
X105000000Y-98500000D03*
X115250000Y-98750000D03*
X111250000Y-99000000D03*
X111250000Y-95250000D03*
X101750000Y-89750000D03*
X106250000Y-88250000D03*
X110500000Y-88500000D03*
X115250000Y-88750000D03*
X108750000Y-75750000D03*
X114500000Y-76250000D03*
X110000000Y-60250000D03*
X107000000Y-62250000D03*
%TO.N,+3.3V*%
X104500000Y-62250000D03*
%TO.N,GND*%
X100500000Y-60750000D03*
X83750000Y-74250000D03*
X78500000Y-73750000D03*
X79250000Y-77250000D03*
X71250000Y-82000000D03*
X75500000Y-79750000D03*
X74000000Y-77000000D03*
X71250000Y-76000000D03*
%TO.N,+3.3V*%
X78750000Y-75250000D03*
X94000000Y-78250000D03*
X90000000Y-72000000D03*
X86000000Y-71000000D03*
X78250000Y-79250000D03*
X75250000Y-86250000D03*
X84500000Y-92000000D03*
X93000000Y-87750000D03*
X93750000Y-95000000D03*
X106500000Y-101750000D03*
X107000000Y-66750000D03*
%TO.N,GND*%
X98000000Y-60750000D03*
%TO.N,+3.3V*%
X71250000Y-71500000D03*
%TD*%
D54*
%TO.N,SWO*%
X100500000Y-67250000D02*
X100500000Y-66200000D01*
X99250000Y-68500000D02*
X100500000Y-67250000D01*
X88800000Y-76200000D02*
X96500000Y-68500000D01*
X96500000Y-68500000D02*
X99250000Y-68500000D01*
X87998959Y-76200000D02*
X88800000Y-76200000D01*
X87750000Y-76448959D02*
X87998959Y-76200000D01*
X87750000Y-77325000D02*
X87750000Y-76448959D01*
%TO.N,NRST*%
X96800000Y-66200000D02*
X97960000Y-66200000D01*
X95750000Y-67250000D02*
X96800000Y-66200000D01*
D55*
%TO.N,+3.3V*%
X103090000Y-62250000D02*
X103040000Y-62300000D01*
X104500000Y-62250000D02*
X103090000Y-62250000D01*
D54*
%TO.N,NRST*%
X89250000Y-81250000D02*
X89500000Y-81000000D01*
X88250000Y-82250000D02*
X89250000Y-81250000D01*
X81325000Y-82250000D02*
X88250000Y-82250000D01*
%TO.N,SWCLK*%
X101770000Y-67230000D02*
X101770000Y-66200000D01*
X99250000Y-69750000D02*
X101770000Y-67230000D01*
X90750000Y-77042894D02*
X98042894Y-69750000D01*
X90750000Y-77325000D02*
X90750000Y-77042894D01*
X98042894Y-69750000D02*
X99250000Y-69750000D01*
%TO.N,SWDIO*%
X103040000Y-68460000D02*
X103040000Y-66200000D01*
X101250000Y-70250000D02*
X103040000Y-68460000D01*
X92250000Y-77250000D02*
X92250000Y-76250000D01*
X90750000Y-78750000D02*
X92250000Y-77250000D01*
X90750000Y-79500000D02*
X90750000Y-78750000D01*
X91500000Y-80250000D02*
X90750000Y-79500000D01*
X98250000Y-70250000D02*
X101250000Y-70250000D01*
X92250000Y-76250000D02*
X98250000Y-70250000D01*
X92675000Y-80250000D02*
X91500000Y-80250000D01*
D56*
%TO.N,GND*%
X98100000Y-60650000D02*
X100400000Y-60650000D01*
X100400000Y-60650000D02*
X100500000Y-60750000D01*
X98000000Y-60750000D02*
X98100000Y-60650000D01*
X101770000Y-60770000D02*
X101750000Y-60750000D01*
X101770000Y-62300000D02*
X101770000Y-60770000D01*
X100500000Y-62300000D02*
X100500000Y-60750000D01*
X97960000Y-60790000D02*
X98000000Y-60750000D01*
X97960000Y-62300000D02*
X97960000Y-60790000D01*
D54*
%TO.N,Net-(R7-Pad2)*%
X69655000Y-74500000D02*
X71740000Y-74500000D01*
%TO.N,BOOT0*%
X75010000Y-72250000D02*
X72760000Y-74500000D01*
X83250000Y-72250000D02*
X75010000Y-72250000D01*
X85250000Y-77325000D02*
X85250000Y-74250000D01*
X85250000Y-74250000D02*
X83250000Y-72250000D01*
D57*
%TO.N,GND*%
X115250000Y-91500000D02*
X115250000Y-88750000D01*
D54*
%TO.N,+3.3V*%
X79250000Y-79250000D02*
X78250000Y-79250000D01*
%TO.N,GND*%
X96975000Y-78225000D02*
X97000000Y-78250000D01*
X95250000Y-78225000D02*
X96975000Y-78225000D01*
%TO.N,+3.3V*%
X93710000Y-77960000D02*
X94000000Y-78250000D01*
X93250000Y-77960000D02*
X93710000Y-77960000D01*
%TO.N,GND*%
X93500000Y-77000000D02*
X94250000Y-76250000D01*
X93250000Y-77000000D02*
X93500000Y-77000000D01*
X71250000Y-76000000D02*
X69655000Y-76000000D01*
%TO.N,unconnected-(J5-Pad6)*%
X116175000Y-74795000D02*
X115865000Y-75105000D01*
X118865000Y-74795000D02*
X116175000Y-74795000D01*
X119135000Y-75065000D02*
X118865000Y-74795000D01*
X119135000Y-76565000D02*
X119135000Y-75065000D01*
X119135000Y-76565000D02*
X119135000Y-78485000D01*
X118865000Y-78755000D02*
X119135000Y-78485000D01*
X118865000Y-80255000D02*
X118865000Y-78755000D01*
X118745000Y-80375000D02*
X118865000Y-80255000D01*
X115885000Y-80375000D02*
X118745000Y-80375000D01*
%TO.N,GND*%
X115250000Y-104000000D02*
X115250000Y-98750000D01*
X70250000Y-104000000D02*
X76500000Y-104000000D01*
X76500000Y-104000000D02*
X76750000Y-103750000D01*
X76000000Y-62000000D02*
X76250000Y-61750000D01*
X70250000Y-62000000D02*
X76000000Y-62000000D01*
X98725000Y-102500000D02*
X100250000Y-102500000D01*
X98725000Y-99500000D02*
X100250000Y-99500000D01*
X105450000Y-98050000D02*
X105450000Y-96887500D01*
X105000000Y-98500000D02*
X105450000Y-98050000D01*
%TO.N,+3.3V*%
X106500000Y-101750000D02*
X106500000Y-100575000D01*
%TO.N,GND*%
X111175000Y-98925000D02*
X111250000Y-99000000D01*
X110000000Y-98925000D02*
X111175000Y-98925000D01*
X110425000Y-94425000D02*
X111250000Y-95250000D01*
X110000000Y-94425000D02*
X110425000Y-94425000D01*
X110450000Y-90312500D02*
X110450000Y-88550000D01*
X110450000Y-88550000D02*
X110500000Y-88500000D01*
X101750000Y-89750000D02*
X100350000Y-89750000D01*
X106250000Y-89225000D02*
X105950000Y-89525000D01*
X106250000Y-88250000D02*
X106250000Y-89225000D01*
X108750000Y-77532107D02*
X108750000Y-75750000D01*
X109887500Y-78000000D02*
X109217893Y-78000000D01*
X109217893Y-78000000D02*
X108750000Y-77532107D01*
X114525000Y-76225000D02*
X114500000Y-76250000D01*
X115985000Y-76225000D02*
X114525000Y-76225000D01*
X111750000Y-62000000D02*
X110000000Y-60250000D01*
X112025000Y-62000000D02*
X111750000Y-62000000D01*
%TO.N,+3.3V*%
X106962500Y-66712500D02*
X107000000Y-66750000D01*
D55*
X106962500Y-65500000D02*
X106962500Y-66712500D01*
D54*
%TO.N,GND*%
X106925000Y-62325000D02*
X107000000Y-62250000D01*
X106925000Y-63500000D02*
X106925000Y-62325000D01*
X100500000Y-62450000D02*
X100500000Y-60750000D01*
X97960000Y-62450000D02*
X97960000Y-60790000D01*
%TO.N,+3.3V*%
X89010000Y-72000000D02*
X90000000Y-72000000D01*
X85980000Y-71020000D02*
X86000000Y-71000000D01*
X85980000Y-72000000D02*
X85980000Y-71020000D01*
%TO.N,GND*%
X83960000Y-74460000D02*
X83750000Y-74250000D01*
X83960000Y-75250000D02*
X83960000Y-74460000D01*
%TO.N,+3.3V*%
X92270000Y-89000000D02*
X92270000Y-88480000D01*
X92270000Y-88480000D02*
X93000000Y-87750000D01*
%TO.N,GND*%
X93230000Y-89000000D02*
X94250000Y-89000000D01*
X92275000Y-90750000D02*
X93500000Y-90750000D01*
%TO.N,+3.3V*%
X93750000Y-95000000D02*
X95700000Y-95000000D01*
%TO.N,GND*%
X90750000Y-98925000D02*
X90625000Y-99050000D01*
X90750000Y-96750000D02*
X90750000Y-98925000D01*
%TO.N,+3.3V*%
X84500000Y-90790000D02*
X84460000Y-90750000D01*
X84500000Y-92000000D02*
X84500000Y-90790000D01*
%TO.N,GND*%
X83489668Y-90739668D02*
X83500000Y-90750000D01*
X82499478Y-90739668D02*
X83489668Y-90739668D01*
X76825000Y-88925000D02*
X76750000Y-89000000D01*
X78000000Y-88925000D02*
X76825000Y-88925000D01*
X78750000Y-84770000D02*
X78750000Y-83750000D01*
X77500000Y-84750000D02*
X77500000Y-83750000D01*
%TO.N,+3.3V*%
X75265000Y-86265000D02*
X75250000Y-86250000D01*
X75265000Y-87250000D02*
X75265000Y-86265000D01*
%TO.N,GND*%
X72750000Y-82000000D02*
X71250000Y-82000000D01*
X75450000Y-79800000D02*
X75500000Y-79750000D01*
X74450000Y-79800000D02*
X75450000Y-79800000D01*
X79250000Y-77250000D02*
X79250000Y-78290000D01*
%TO.N,+3.3V*%
X79750000Y-75275000D02*
X78775000Y-75275000D01*
X78775000Y-75275000D02*
X78750000Y-75250000D01*
%TO.N,GND*%
X78525000Y-73725000D02*
X78500000Y-73750000D01*
X79750000Y-73725000D02*
X78525000Y-73725000D01*
X73980000Y-77020000D02*
X74000000Y-77000000D01*
X73980000Y-78000000D02*
X73980000Y-77020000D01*
%TO.N,+3.3V*%
X81325000Y-79250000D02*
X79250000Y-79250000D01*
%TO.N,+5V*%
X110850000Y-81350000D02*
X112150000Y-81350000D01*
X108875000Y-79375000D02*
X110850000Y-81350000D01*
X108875000Y-78842893D02*
X108875000Y-79375000D01*
X107612500Y-78000000D02*
X108032107Y-78000000D01*
X108032107Y-78000000D02*
X108875000Y-78842893D01*
%TO.N,+3.3V*%
X69655000Y-71500000D02*
X71250000Y-71500000D01*
D57*
%TO.N,+12V*%
X112750000Y-95000000D02*
X115250000Y-95000000D01*
X109500000Y-92187500D02*
X109937500Y-92187500D01*
X109937500Y-92187500D02*
X112750000Y-95000000D01*
D54*
%TO.N,Net-(C16-Pad1)*%
X74450000Y-82000000D02*
X77240000Y-82000000D01*
X74450000Y-83530000D02*
X73980000Y-84000000D01*
X77240000Y-82000000D02*
X77490000Y-81750000D01*
X74450000Y-82000000D02*
X74450000Y-83530000D01*
D56*
%TO.N,Net-(D4-Pad1)*%
X78075000Y-90500000D02*
X78000000Y-90575000D01*
X80000000Y-90500000D02*
X78075000Y-90500000D01*
%TO.N,Net-(D3-Pad1)*%
X108575000Y-65462500D02*
X108537500Y-65500000D01*
X108575000Y-63500000D02*
X108575000Y-65462500D01*
D55*
%TO.N,Net-(R4-Pad2)*%
X110000000Y-100575000D02*
X108250000Y-100575000D01*
%TO.N,BUCK_FB*%
X106500000Y-98925000D02*
X106500000Y-96987500D01*
X106500000Y-96987500D02*
X106400000Y-96887500D01*
X108250000Y-98925000D02*
X106500000Y-98925000D01*
D54*
%TO.N,+3.3V*%
X91945000Y-88675000D02*
X92270000Y-89000000D01*
D57*
X95700000Y-95000000D02*
X95700000Y-102425000D01*
D54*
X83250000Y-75500000D02*
X83000000Y-75250000D01*
X93250000Y-77960000D02*
X93250000Y-78675000D01*
X93250000Y-78675000D02*
X92675000Y-79250000D01*
X84250000Y-88675000D02*
X84250000Y-90540000D01*
X83250000Y-77325000D02*
X83250000Y-75500000D01*
D57*
X95700000Y-102425000D02*
X95775000Y-102500000D01*
D54*
X83000000Y-75250000D02*
X79975000Y-75250000D01*
X84250000Y-90540000D02*
X84460000Y-90750000D01*
X90750000Y-88675000D02*
X91945000Y-88675000D01*
D55*
%TO.N,BUCK_EN*%
X110000000Y-96075000D02*
X108250000Y-96075000D01*
X107862500Y-96075000D02*
X108250000Y-96075000D01*
X106400000Y-94612500D02*
X107862500Y-96075000D01*
%TO.N,BUCK_IN*%
X105950000Y-92475000D02*
X105450000Y-92975000D01*
X108250000Y-94425000D02*
X107900000Y-94425000D01*
X107900000Y-94425000D02*
X105950000Y-92475000D01*
X103700000Y-92562500D02*
X105862500Y-92562500D01*
X105450000Y-92975000D02*
X105450000Y-94612500D01*
X105862500Y-92562500D02*
X105950000Y-92475000D01*
D54*
%TO.N,I2C1_SCL*%
X87990000Y-74510000D02*
X87990000Y-72000000D01*
X88500000Y-71490000D02*
X88500000Y-68500000D01*
X87990000Y-72000000D02*
X88500000Y-71490000D01*
X88500000Y-68500000D02*
X89375000Y-67625000D01*
X86250000Y-76250000D02*
X87990000Y-74510000D01*
X89375000Y-67625000D02*
X89375000Y-65450000D01*
X86250000Y-77325000D02*
X86250000Y-76250000D01*
%TO.N,I2C1_SDA*%
X87000000Y-74250000D02*
X87000000Y-72000000D01*
X85750000Y-77325000D02*
X85750000Y-75500000D01*
X85750000Y-75500000D02*
X87000000Y-74250000D01*
X87000000Y-72000000D02*
X87000000Y-68250000D01*
X88125000Y-67125000D02*
X88125000Y-65450000D01*
X87000000Y-68250000D02*
X88125000Y-67125000D01*
%TO.N,HSE_OUT*%
X81325000Y-81750000D02*
X78510000Y-81750000D01*
D55*
%TO.N,Net-(F1-Pad2)*%
X103700000Y-90437500D02*
X103700000Y-86650000D01*
X103700000Y-86650000D02*
X103850000Y-86500000D01*
D58*
%TO.N,USB_CONN_D+*%
X114598548Y-77768225D02*
X114841773Y-77525000D01*
X110880175Y-77768225D02*
X114598548Y-77768225D01*
X109887500Y-77050000D02*
X110207325Y-77369825D01*
X110207325Y-77369825D02*
X110598895Y-77369825D01*
X114841773Y-77525000D02*
X115985000Y-77525000D01*
X110598895Y-77369825D02*
X110880175Y-77651105D01*
X110880175Y-77651105D02*
X110880175Y-77768225D01*
%TO.N,USB_D+*%
X107292675Y-77369825D02*
X106901105Y-77369825D01*
X107612500Y-77050000D02*
X107292675Y-77369825D01*
X92693225Y-80768225D02*
X92675000Y-80750000D01*
X100403995Y-80768225D02*
X92693225Y-80768225D01*
X103403995Y-77768225D02*
X100403995Y-80768225D01*
X106502705Y-77768225D02*
X103403995Y-77768225D01*
X106901105Y-77369825D02*
X106502705Y-77768225D01*
D56*
%TO.N,+5V*%
X112150000Y-81350000D02*
X112150000Y-86500000D01*
X115985000Y-78825000D02*
X114675000Y-78825000D01*
X114675000Y-78825000D02*
X112150000Y-81350000D01*
D58*
%TO.N,USB_D-*%
X92693225Y-81231775D02*
X92675000Y-81250000D01*
X107292675Y-78630175D02*
X106901105Y-78630175D01*
X106502705Y-78231775D02*
X103596005Y-78231775D01*
X107612500Y-78950000D02*
X107292675Y-78630175D01*
X100596005Y-81231775D02*
X92693225Y-81231775D01*
X106901105Y-78630175D02*
X106502705Y-78231775D01*
X103596005Y-78231775D02*
X100596005Y-81231775D01*
D55*
%TO.N,BUCK_BST*%
X104500000Y-96887500D02*
X102587500Y-96887500D01*
X102587500Y-96887500D02*
X102450000Y-97025000D01*
%TO.N,BUCK_SW*%
X100275000Y-95475000D02*
X99800000Y-95000000D01*
X102450000Y-95475000D02*
X100275000Y-95475000D01*
X103312500Y-94612500D02*
X102450000Y-95475000D01*
X99800000Y-95000000D02*
X99800000Y-92500000D01*
X104500000Y-94612500D02*
X103312500Y-94612500D01*
X99800000Y-92500000D02*
X97050000Y-89750000D01*
D54*
%TO.N,HSE_IN*%
X79250000Y-81250000D02*
X78850000Y-80850000D01*
X81325000Y-81250000D02*
X79250000Y-81250000D01*
X73020000Y-78000000D02*
X73020000Y-79530000D01*
X72750000Y-80000000D02*
X72750000Y-79800000D01*
X73600000Y-80850000D02*
X72750000Y-80000000D01*
X78850000Y-80850000D02*
X73600000Y-80850000D01*
X73020000Y-79530000D02*
X72750000Y-79800000D01*
%TO.N,+3.3VA*%
X79281483Y-85730000D02*
X78750000Y-85730000D01*
D56*
X76235000Y-87250000D02*
X76235000Y-86975000D01*
X78730000Y-85710000D02*
X78750000Y-85730000D01*
X76235000Y-86975000D02*
X77500000Y-85710000D01*
X77500000Y-85710000D02*
X78730000Y-85710000D01*
D54*
X81325000Y-85250000D02*
X79761483Y-85250000D01*
X79761483Y-85250000D02*
X79281483Y-85730000D01*
%TO.N,LED_STATUS*%
X81325000Y-86750000D02*
X81325000Y-87600000D01*
X81325000Y-87600000D02*
X80000000Y-88925000D01*
%TO.N,USART3_TX*%
X89250000Y-89551041D02*
X88301041Y-90500000D01*
X88125000Y-90625000D02*
X88125000Y-99050000D01*
X88301041Y-90500000D02*
X88250000Y-90500000D01*
X88250000Y-90500000D02*
X88125000Y-90625000D01*
X89250000Y-88675000D02*
X89250000Y-89551041D01*
%TO.N,USART3_RX*%
X89750000Y-98675000D02*
X89375000Y-99050000D01*
X89750000Y-88675000D02*
X89750000Y-98675000D01*
%TO.N,Net-(C13-Pad1)*%
X90250000Y-90275000D02*
X90725000Y-90750000D01*
X90250000Y-88675000D02*
X90250000Y-90275000D01*
%TO.N,NRST*%
X98000000Y-66090000D02*
X97960000Y-66050000D01*
%TO.N,Net-(C14-Pad1)*%
X95225000Y-79750000D02*
X95250000Y-79775000D01*
X92675000Y-79750000D02*
X95225000Y-79750000D01*
%TO.N,GND*%
X81325000Y-84750000D02*
X78770000Y-84750000D01*
X73020000Y-82270000D02*
X72750000Y-82000000D01*
X73980000Y-78000000D02*
X74500000Y-78520000D01*
X78770000Y-84750000D02*
X78750000Y-84770000D01*
X83750000Y-90500000D02*
X83500000Y-90750000D01*
X83750000Y-88675000D02*
X83750000Y-90500000D01*
X74500000Y-79750000D02*
X74450000Y-79800000D01*
X73020000Y-84000000D02*
X73020000Y-82270000D01*
X83750000Y-75460000D02*
X83960000Y-75250000D01*
X83750000Y-77325000D02*
X83750000Y-75460000D01*
X74500000Y-78520000D02*
X74500000Y-79750000D01*
D55*
%TO.N,Net-(D1-Pad1)*%
X108550000Y-90312500D02*
X108550000Y-86800000D01*
X106650000Y-86500000D02*
X108850000Y-86500000D01*
X108550000Y-86800000D02*
X108850000Y-86500000D01*
D58*
%TO.N,USB_CONN_D-*%
X115915175Y-78244825D02*
X115985000Y-78175000D01*
X110598895Y-78630175D02*
X110880175Y-78348895D01*
X114494825Y-78244825D02*
X115915175Y-78244825D01*
X109887500Y-78950000D02*
X110207325Y-78630175D01*
X110207325Y-78630175D02*
X110598895Y-78630175D01*
X110880175Y-78348895D02*
X110880175Y-78231775D01*
X110880175Y-78231775D02*
X114481775Y-78231775D01*
X114481775Y-78231775D02*
X114494825Y-78244825D01*
%TD*%
M02*
