%TF.GenerationSoftware,KiCad,Pcbnew,(6.0.7)*%
%TF.CreationDate,2022-09-22T19:59:32-07:00*%
%TF.ProjectId,STM32F4_rev2,53544d33-3246-4345-9f72-6576322e6b69,rev?*%
%TF.SameCoordinates,Original*%
%TF.FileFunction,Paste,Top*%
%TF.FilePolarity,Positive*%
%FSLAX46Y46*%
G04 Gerber Fmt 4.6, Leading zero omitted, Abs format (unit mm)*
G04 Created by KiCad (PCBNEW (6.0.7)) date 2022-09-22 19:59:32*
%MOMM*%
%LPD*%
G01*
G04 APERTURE LIST*
G04 Aperture macros list*
%AMRoundRect*
0 Rectangle with rounded corners*
0 $1 Rounding radius*
0 $2 $3 $4 $5 $6 $7 $8 $9 X,Y pos of 4 corners*
0 Add a 4 corners polygon primitive as box body*
4,1,4,$2,$3,$4,$5,$6,$7,$8,$9,$2,$3,0*
0 Add four circle primitives for the rounded corners*
1,1,$1+$1,$2,$3*
1,1,$1+$1,$4,$5*
1,1,$1+$1,$6,$7*
1,1,$1+$1,$8,$9*
0 Add four rect primitives between the rounded corners*
20,1,$1+$1,$2,$3,$4,$5,0*
20,1,$1+$1,$4,$5,$6,$7,0*
20,1,$1+$1,$6,$7,$8,$9,0*
20,1,$1+$1,$8,$9,$2,$3,0*%
G04 Aperture macros list end*
%ADD10R,0.740000X2.400000*%
%ADD11RoundRect,0.150000X-0.150000X0.587500X-0.150000X-0.587500X0.150000X-0.587500X0.150000X0.587500X0*%
%ADD12R,0.900000X1.200000*%
%ADD13RoundRect,0.135000X0.135000X0.185000X-0.135000X0.185000X-0.135000X-0.185000X0.135000X-0.185000X0*%
%ADD14R,1.650000X0.400000*%
%ADD15R,1.500000X2.000000*%
%ADD16R,2.500000X1.430000*%
%ADD17R,2.000000X1.350000*%
%ADD18R,0.700000X1.825000*%
%ADD19RoundRect,0.218750X0.218750X0.256250X-0.218750X0.256250X-0.218750X-0.256250X0.218750X-0.256250X0*%
%ADD20RoundRect,0.140000X0.170000X-0.140000X0.170000X0.140000X-0.170000X0.140000X-0.170000X-0.140000X0*%
%ADD21RoundRect,0.200000X0.200000X0.275000X-0.200000X0.275000X-0.200000X-0.275000X0.200000X-0.275000X0*%
%ADD22RoundRect,0.200000X0.275000X-0.200000X0.275000X0.200000X-0.275000X0.200000X-0.275000X-0.200000X0*%
%ADD23RoundRect,0.135000X-0.135000X-0.185000X0.135000X-0.185000X0.135000X0.185000X-0.135000X0.185000X0*%
%ADD24RoundRect,0.140000X-0.140000X-0.170000X0.140000X-0.170000X0.140000X0.170000X-0.140000X0.170000X0*%
%ADD25RoundRect,0.150000X0.512500X0.150000X-0.512500X0.150000X-0.512500X-0.150000X0.512500X-0.150000X0*%
%ADD26R,0.800000X1.000000*%
%ADD27R,1.500000X0.700000*%
%ADD28RoundRect,0.225000X0.250000X-0.225000X0.250000X0.225000X-0.250000X0.225000X-0.250000X-0.225000X0*%
%ADD29RoundRect,0.225000X-0.225000X-0.250000X0.225000X-0.250000X0.225000X0.250000X-0.225000X0.250000X0*%
%ADD30RoundRect,0.250000X0.375000X0.625000X-0.375000X0.625000X-0.375000X-0.625000X0.375000X-0.625000X0*%
%ADD31RoundRect,0.218750X0.256250X-0.218750X0.256250X0.218750X-0.256250X0.218750X-0.256250X-0.218750X0*%
%ADD32R,1.200000X1.400000*%
%ADD33RoundRect,0.140000X0.140000X0.170000X-0.140000X0.170000X-0.140000X-0.170000X0.140000X-0.170000X0*%
%ADD34R,1.900000X2.500000*%
%ADD35RoundRect,0.147500X-0.147500X-0.172500X0.147500X-0.172500X0.147500X0.172500X-0.147500X0.172500X0*%
%ADD36RoundRect,0.200000X-0.275000X0.200000X-0.275000X-0.200000X0.275000X-0.200000X0.275000X0.200000X0*%
%ADD37RoundRect,0.250000X-0.325000X-0.650000X0.325000X-0.650000X0.325000X0.650000X-0.325000X0.650000X0*%
%ADD38RoundRect,0.218750X-0.381250X0.218750X-0.381250X-0.218750X0.381250X-0.218750X0.381250X0.218750X0*%
%ADD39RoundRect,0.250000X0.650000X-0.325000X0.650000X0.325000X-0.650000X0.325000X-0.650000X-0.325000X0*%
%ADD40RoundRect,0.225000X-0.250000X0.225000X-0.250000X-0.225000X0.250000X-0.225000X0.250000X0.225000X0*%
%ADD41RoundRect,0.075000X-0.700000X-0.075000X0.700000X-0.075000X0.700000X0.075000X-0.700000X0.075000X0*%
%ADD42RoundRect,0.075000X-0.075000X-0.700000X0.075000X-0.700000X0.075000X0.700000X-0.075000X0.700000X0*%
%ADD43RoundRect,0.150000X0.150000X-0.512500X0.150000X0.512500X-0.150000X0.512500X-0.150000X-0.512500X0*%
G04 APERTURE END LIST*
D10*
%TO.C,J2*%
X97960000Y-66200000D03*
X97960000Y-62300000D03*
X99230000Y-66200000D03*
X99230000Y-62300000D03*
X100500000Y-66200000D03*
X100500000Y-62300000D03*
X101770000Y-66200000D03*
X101770000Y-62300000D03*
X103040000Y-66200000D03*
X103040000Y-62300000D03*
%TD*%
D11*
%TO.C,Q1*%
X110450000Y-90312500D03*
X108550000Y-90312500D03*
X109500000Y-92187500D03*
%TD*%
D12*
%TO.C,D2*%
X97050000Y-89750000D03*
X100350000Y-89750000D03*
%TD*%
D13*
%TO.C,R8*%
X78510000Y-81750000D03*
X77490000Y-81750000D03*
%TD*%
D14*
%TO.C,J5*%
X115985000Y-78825000D03*
X115985000Y-78175000D03*
X115985000Y-77525000D03*
X115985000Y-76875000D03*
X115985000Y-76225000D03*
D15*
X115885000Y-80375000D03*
D16*
X119135000Y-78485000D03*
D17*
X117935000Y-80255000D03*
X117935000Y-74775000D03*
D16*
X119135000Y-76565000D03*
D15*
X115865000Y-74625000D03*
D18*
X117185000Y-80475000D03*
X117185000Y-74525000D03*
%TD*%
D19*
%TO.C,D3*%
X108537500Y-65500000D03*
X106962500Y-65500000D03*
%TD*%
D20*
%TO.C,C12*%
X78750000Y-85730000D03*
X78750000Y-84770000D03*
%TD*%
D21*
%TO.C,R6*%
X108575000Y-63500000D03*
X106925000Y-63500000D03*
%TD*%
D22*
%TO.C,R5*%
X110000000Y-100575000D03*
X110000000Y-98925000D03*
%TD*%
D13*
%TO.C,R7*%
X72760000Y-74500000D03*
X71740000Y-74500000D03*
%TD*%
D23*
%TO.C,R11*%
X85980000Y-72000000D03*
X87000000Y-72000000D03*
%TD*%
D24*
%TO.C,C8*%
X92270000Y-89000000D03*
X93230000Y-89000000D03*
%TD*%
%TO.C,C10*%
X83000000Y-75250000D03*
X83960000Y-75250000D03*
%TD*%
D12*
%TO.C,D1*%
X108850000Y-86500000D03*
X112150000Y-86500000D03*
%TD*%
D25*
%TO.C,U3*%
X109887500Y-78950000D03*
X109887500Y-78000000D03*
X109887500Y-77050000D03*
X107612500Y-77050000D03*
X107612500Y-78000000D03*
X107612500Y-78950000D03*
%TD*%
D26*
%TO.C,SW1*%
X66795000Y-70100000D03*
X66795000Y-77400000D03*
X69005000Y-70100000D03*
X69005000Y-77400000D03*
D27*
X69655000Y-71500000D03*
X69655000Y-74500000D03*
X69655000Y-76000000D03*
%TD*%
D28*
%TO.C,C5*%
X79750000Y-75275000D03*
X79750000Y-73725000D03*
%TD*%
D29*
%TO.C,C13*%
X90725000Y-90750000D03*
X92275000Y-90750000D03*
%TD*%
D30*
%TO.C,F1*%
X106650000Y-86500000D03*
X103850000Y-86500000D03*
%TD*%
D31*
%TO.C,D4*%
X80000000Y-90500000D03*
X80000000Y-88925000D03*
%TD*%
D32*
%TO.C,Y1*%
X72750000Y-79800000D03*
X72750000Y-82000000D03*
X74450000Y-82000000D03*
X74450000Y-79800000D03*
%TD*%
D33*
%TO.C,C7*%
X84460000Y-90750000D03*
X83500000Y-90750000D03*
%TD*%
D22*
%TO.C,R2*%
X110000000Y-96075000D03*
X110000000Y-94425000D03*
%TD*%
D13*
%TO.C,R10*%
X89010000Y-72000000D03*
X87990000Y-72000000D03*
%TD*%
D28*
%TO.C,C14*%
X95250000Y-79775000D03*
X95250000Y-78225000D03*
%TD*%
D34*
%TO.C,L1*%
X99800000Y-95000000D03*
X95700000Y-95000000D03*
%TD*%
D20*
%TO.C,C6*%
X79250000Y-79250000D03*
X79250000Y-78290000D03*
%TD*%
D24*
%TO.C,C15*%
X73020000Y-78000000D03*
X73980000Y-78000000D03*
%TD*%
D35*
%TO.C,L2*%
X75265000Y-87250000D03*
X76235000Y-87250000D03*
%TD*%
D36*
%TO.C,R1*%
X108250000Y-94425000D03*
X108250000Y-96075000D03*
%TD*%
D33*
%TO.C,C16*%
X73980000Y-84000000D03*
X73020000Y-84000000D03*
%TD*%
D37*
%TO.C,C2*%
X95775000Y-99500000D03*
X98725000Y-99500000D03*
%TD*%
D38*
%TO.C,FB1*%
X103700000Y-90437500D03*
X103700000Y-92562500D03*
%TD*%
D39*
%TO.C,C1*%
X105950000Y-92475000D03*
X105950000Y-89525000D03*
%TD*%
D40*
%TO.C,C4*%
X102450000Y-95475000D03*
X102450000Y-97025000D03*
%TD*%
D20*
%TO.C,C9*%
X93250000Y-77960000D03*
X93250000Y-77000000D03*
%TD*%
D37*
%TO.C,C3*%
X95775000Y-102500000D03*
X98725000Y-102500000D03*
%TD*%
D41*
%TO.C,U2*%
X81325000Y-79250000D03*
X81325000Y-79750000D03*
X81325000Y-80250000D03*
X81325000Y-80750000D03*
X81325000Y-81250000D03*
X81325000Y-81750000D03*
X81325000Y-82250000D03*
X81325000Y-82750000D03*
X81325000Y-83250000D03*
X81325000Y-83750000D03*
X81325000Y-84250000D03*
X81325000Y-84750000D03*
X81325000Y-85250000D03*
X81325000Y-85750000D03*
X81325000Y-86250000D03*
X81325000Y-86750000D03*
D42*
X83250000Y-88675000D03*
X83750000Y-88675000D03*
X84250000Y-88675000D03*
X84750000Y-88675000D03*
X85250000Y-88675000D03*
X85750000Y-88675000D03*
X86250000Y-88675000D03*
X86750000Y-88675000D03*
X87250000Y-88675000D03*
X87750000Y-88675000D03*
X88250000Y-88675000D03*
X88750000Y-88675000D03*
X89250000Y-88675000D03*
X89750000Y-88675000D03*
X90250000Y-88675000D03*
X90750000Y-88675000D03*
D41*
X92675000Y-86750000D03*
X92675000Y-86250000D03*
X92675000Y-85750000D03*
X92675000Y-85250000D03*
X92675000Y-84750000D03*
X92675000Y-84250000D03*
X92675000Y-83750000D03*
X92675000Y-83250000D03*
X92675000Y-82750000D03*
X92675000Y-82250000D03*
X92675000Y-81750000D03*
X92675000Y-81250000D03*
X92675000Y-80750000D03*
X92675000Y-80250000D03*
X92675000Y-79750000D03*
X92675000Y-79250000D03*
D42*
X90750000Y-77325000D03*
X90250000Y-77325000D03*
X89750000Y-77325000D03*
X89250000Y-77325000D03*
X88750000Y-77325000D03*
X88250000Y-77325000D03*
X87750000Y-77325000D03*
X87250000Y-77325000D03*
X86750000Y-77325000D03*
X86250000Y-77325000D03*
X85750000Y-77325000D03*
X85250000Y-77325000D03*
X84750000Y-77325000D03*
X84250000Y-77325000D03*
X83750000Y-77325000D03*
X83250000Y-77325000D03*
%TD*%
D20*
%TO.C,C11*%
X77500000Y-85710000D03*
X77500000Y-84750000D03*
%TD*%
D22*
%TO.C,R9*%
X78000000Y-90575000D03*
X78000000Y-88925000D03*
%TD*%
D43*
%TO.C,U1*%
X104500000Y-96887500D03*
X105450000Y-96887500D03*
X106400000Y-96887500D03*
X106400000Y-94612500D03*
X105450000Y-94612500D03*
X104500000Y-94612500D03*
%TD*%
D36*
%TO.C,R4*%
X108250000Y-98925000D03*
X108250000Y-100575000D03*
%TD*%
D22*
%TO.C,R3*%
X106500000Y-100575000D03*
X106500000Y-98925000D03*
%TD*%
M02*
